<svg width="24" height="24" viewBox="0 0 24 24" fill="none" xmlns="http://www.w3.org/2000/svg">
<path d="M17.9999 11.4695C17.7255 11.4695 17.4901 11.7051 17.4901 11.9801C17.4901 15.0046 15.0195 17.4793 11.9999 17.4793C11.7254 17.4793 11.4902 17.715 11.4902 17.9899C11.4902 18.2649 11.7254 18.5005 11.9999 18.5005C15.5685 18.5005 18.5097 15.5938 18.5097 11.9801C18.5097 11.7051 18.2744 11.4695 17.9999 11.4695Z" fill="url(#paint0_linear_12498_3454)"/>
<path d="M12.5099 5.97087C12.5099 5.69592 12.2745 5.46024 12.0001 5.46024C8.4315 5.46024 5.49023 8.36695 5.49023 11.9807C5.49023 12.2557 5.72555 12.4913 5.99994 12.4913C6.27464 12.4913 6.50995 12.2557 6.50995 11.9807C6.50995 8.95614 8.98043 6.48151 12.0001 6.48151C12.2745 6.48151 12.5099 6.24583 12.5099 5.97087Z" fill="url(#paint1_linear_12498_3454)"/>
<path d="M19.8826 13.3944C19.6864 14.5336 19.255 15.5941 18.5882 16.5368C18.4316 16.7332 18.4707 17.0082 18.6273 17.1653L20.4707 19.0115L19.0588 20.4255L17.2158 18.5794C17.0588 18.4223 16.7844 18.383 16.5882 18.5401C15.647 19.2079 14.5882 19.6399 13.4508 19.8363C13.2157 19.8756 13.0195 20.072 13.0195 20.347V22.9787H11.0197V20.347C11.0197 20.1113 10.8628 19.9149 10.5883 19.8363C9.45104 19.6399 8.39224 19.2079 7.4511 18.5401C7.25498 18.383 6.98044 18.4223 6.82355 18.5794L4.98047 20.4255L3.56866 19.0115L5.4119 17.1653C5.56864 17.0082 5.60802 16.7332 5.45098 16.5368C4.78435 15.5941 4.35295 14.5336 4.15683 13.3944C4.1176 13.1588 3.92152 12.9624 3.64713 12.9624H1.01945V10.9984H3.64713C3.88244 10.9984 4.07841 10.8412 4.15683 10.5663C4.35295 9.42717 4.78435 8.36661 5.45098 7.42389C5.60802 7.2275 5.56864 6.95254 5.4119 6.79542L3.56866 4.94926L4.98047 3.53519L6.82355 5.38134C6.98044 5.53846 7.25498 5.57774 7.4511 5.42062C8.39224 4.75286 9.45104 4.32079 10.5883 4.12439C10.8236 4.08511 11.0197 3.88871 11.0197 3.61375V0.981997H12.9803V3.61375C12.9803 3.84943 13.1374 4.04583 13.4117 4.12439C14.5491 4.32079 15.6078 4.75286 16.549 5.42062C16.7452 5.57774 17.0197 5.53846 17.1767 5.38134L19.0197 3.53519L20.4315 4.94926L18.5882 6.79542C18.4316 6.95254 18.3924 7.2275 18.549 7.42389C19.2158 8.36661 19.6473 9.42717 19.8434 10.5663C19.8826 10.802 20.0788 10.9984 20.3532 10.9984H22.9804V12.9624H20.3532C20.1179 12.9624 19.9217 13.1588 19.8826 13.3944ZM23.4902 13.9836C23.7647 13.9836 24 13.748 24 13.473V10.4877C24 10.2128 23.7647 9.97709 23.4902 9.97709H20.7843C20.549 8.99509 20.1571 8.05237 19.6081 7.18822L21.5294 5.2635C21.7256 5.0671 21.7256 4.75286 21.5294 4.55646L19.412 2.43535C19.2158 2.23895 18.9018 2.23895 18.706 2.43535L16.7844 4.36007C15.9214 3.81015 14.9806 3.41735 14.0001 3.22095V0.510637C14.0001 0.235678 13.7648 -1.90735e-06 13.49 -1.90735e-06H10.5099C10.2353 -1.90735e-06 10 0.235678 10 0.510637V3.22095C9.0196 3.45663 8.07846 3.84943 7.21575 4.36007L5.29409 2.43535C5.09797 2.23895 4.78435 2.23895 4.58826 2.43535L2.47064 4.55646C2.27452 4.75286 2.27452 5.0671 2.47064 5.2635L4.39214 7.18822C3.84321 8.05237 3.45101 8.99509 3.21569 9.97709H0.509744C0.235354 9.97709 0 10.2128 0 10.4877V13.473C0 13.748 0.235354 13.9836 0.509744 13.9836H3.21569C3.45101 14.9656 3.84321 15.9083 4.35295 16.7725L2.4314 18.6972C2.23532 18.8936 2.23532 19.2079 2.4314 19.4043L4.54903 21.5254C4.74515 21.7218 5.05878 21.7218 5.25486 21.5254L7.1764 19.6007C8.03912 20.1506 8.98041 20.5434 9.96093 20.7398V22.9787H0.509744C0.235354 22.9787 0 23.2144 0 23.4894C0 23.7643 0.235354 24 0.509744 24C1.21572 24 22.5885 24 23.4902 24C23.7647 24 24 23.7643 24 23.4894C24 23.2144 23.7647 22.9787 23.4902 22.9787H22.5098V21.9967H21.5294V22.9787H14.0001V20.7398C14.9806 20.5041 15.9214 20.1113 16.7844 19.6007L18.706 21.5254C18.9018 21.7218 19.2158 21.7218 19.412 21.5254L21.5294 19.4043C21.7256 19.2079 21.7256 18.8936 21.5294 18.6972L19.6081 16.7725C20.1571 15.9083 20.549 14.9656 20.7843 13.9836H23.4902Z" fill="url(#paint2_linear_12498_3454)"/>
<path d="M14.0004 14.4943H10.0002V13.5123C10.0002 12.4124 10.9021 11.509 12.0003 11.509C13.0984 11.509 14.0004 12.4124 14.0004 13.5123V14.4943ZM11.02 9.46644C11.02 8.91652 11.4511 8.48444 12.0003 8.48444C12.5493 8.48444 12.9805 8.91652 12.9805 9.46644C12.9805 10.0164 12.5493 10.4484 12.0003 10.4484C11.4511 10.4484 11.02 10.0164 11.02 9.46644ZM14.9808 14.9656V13.473C14.9808 12.3339 14.3532 11.3519 13.4119 10.8412C13.7651 10.4877 13.9612 10.0164 13.9612 9.46644C13.9612 8.3666 13.0592 7.46316 11.9611 7.46316C10.8631 7.46316 9.96116 8.3666 9.96116 9.46644C9.96116 10.0164 10.1571 10.4877 10.5101 10.8412C9.56896 11.3519 8.94141 12.3339 8.94141 13.473V14.9656C8.94141 15.2406 9.17657 15.4763 9.45127 15.4763H14.4318C14.7846 15.4763 14.9808 15.2406 14.9808 14.9656Z" fill="url(#paint3_linear_12498_3454)"/>
<path d="M22 1.4529C22.2744 1.4529 22.5097 1.68858 22.5097 1.96354C22.5097 2.2385 22.2744 2.47418 22 2.47418C21.7255 2.47418 21.4902 2.2385 21.4902 1.96354C21.4902 1.68858 21.7255 1.4529 22 1.4529ZM22 3.45618C22.8237 3.45618 23.4901 2.78842 23.4901 1.96354C23.4901 1.13866 22.8237 0.470906 22 0.470906C21.1765 0.470906 20.5098 1.13866 20.5098 1.96354C20.5098 2.78842 21.1765 3.45618 22 3.45618Z" fill="url(#paint4_linear_12498_3454)"/>
<path d="M1.49011 15.9875C1.76481 15.9875 1.99997 16.2232 1.99997 16.4981C1.99997 16.7731 1.76481 17.0088 1.49011 17.0088C1.21572 17.0088 0.980369 16.7731 0.980369 16.4981C1.01945 16.2232 1.21572 15.9875 1.49011 15.9875ZM1.49011 17.9908C2.31375 17.9908 2.98034 17.323 2.98034 16.4981C2.98034 15.6733 2.31375 15.0055 1.49011 15.0055C0.666788 15.0055 0 15.6733 0 16.4981C0 17.323 0.666788 17.9908 1.49011 17.9908Z" fill="url(#paint5_linear_12498_3454)"/>
<path d="M1.49023 0.471128H2.47076V1.45312H1.49023V0.471128Z" fill="url(#paint6_linear_12498_3454)"/>
<path d="M1.49023 2.47418H2.47076V3.45618H1.49023V2.47418Z" fill="url(#paint7_linear_12498_3454)"/>
<path d="M2.50977 1.453H3.49014V2.435H2.50977V1.453Z" fill="url(#paint8_linear_12498_3454)"/>
<path d="M0.509766 1.453H1.49014V2.435H0.509766V1.453Z" fill="url(#paint9_linear_12498_3454)"/>
<path d="M21.4902 19.9937H22.4706V20.9757H21.4902V19.9937Z" fill="url(#paint10_linear_12498_3454)"/>
<path d="M22.5098 20.9756H23.4902V21.9576H22.5098V20.9756Z" fill="url(#paint11_linear_12498_3454)"/>
<path d="M20.5098 20.9756H21.4902V21.9576H20.5098V20.9756Z" fill="url(#paint12_linear_12498_3454)"/>
<defs>
<linearGradient id="paint0_linear_12498_3454" x1="11.4902" y1="13.154" x2="18.518" y2="13.0815" gradientUnits="userSpaceOnUse">
<stop stop-color="#FF0A54"/>
<stop offset="1" stop-color="#FF6F00"/>
</linearGradient>
<linearGradient id="paint1_linear_12498_3454" x1="5.49023" y1="7.14477" x2="12.5182" y2="7.07231" gradientUnits="userSpaceOnUse">
<stop stop-color="#FF0A54"/>
<stop offset="1" stop-color="#FF6F00"/>
</linearGradient>
<linearGradient id="paint2_linear_12498_3454" x1="-1.26708e-07" y1="5.75" x2="24.0284" y2="5.50187" gradientUnits="userSpaceOnUse">
<stop stop-color="#FF0A54"/>
<stop offset="1" stop-color="#FF6F00"/>
</linearGradient>
<linearGradient id="paint3_linear_12498_3454" x1="8.94141" y1="9.38297" x2="14.9882" y2="9.33591" gradientUnits="userSpaceOnUse">
<stop stop-color="#FF0A54"/>
<stop offset="1" stop-color="#FF6F00"/>
</linearGradient>
<linearGradient id="paint4_linear_12498_3454" x1="20.5098" y1="1.18613" x2="23.4937" y2="1.15536" gradientUnits="userSpaceOnUse">
<stop stop-color="#FF0A54"/>
<stop offset="1" stop-color="#FF6F00"/>
</linearGradient>
<linearGradient id="paint5_linear_12498_3454" x1="-1.57347e-08" y1="15.7207" x2="2.98387" y2="15.69" gradientUnits="userSpaceOnUse">
<stop stop-color="#FF0A54"/>
<stop offset="1" stop-color="#FF6F00"/>
</linearGradient>
<linearGradient id="paint6_linear_12498_3454" x1="1.49023" y1="0.706398" x2="2.47192" y2="0.696276" gradientUnits="userSpaceOnUse">
<stop stop-color="#FF0A54"/>
<stop offset="1" stop-color="#FF6F00"/>
</linearGradient>
<linearGradient id="paint7_linear_12498_3454" x1="1.49023" y1="2.70945" x2="2.47192" y2="2.69933" gradientUnits="userSpaceOnUse">
<stop stop-color="#FF0A54"/>
<stop offset="1" stop-color="#FF6F00"/>
</linearGradient>
<linearGradient id="paint8_linear_12498_3454" x1="2.50977" y1="1.68827" x2="3.4913" y2="1.67815" gradientUnits="userSpaceOnUse">
<stop stop-color="#FF0A54"/>
<stop offset="1" stop-color="#FF6F00"/>
</linearGradient>
<linearGradient id="paint9_linear_12498_3454" x1="0.509766" y1="1.68827" x2="1.4913" y2="1.67815" gradientUnits="userSpaceOnUse">
<stop stop-color="#FF0A54"/>
<stop offset="1" stop-color="#FF6F00"/>
</linearGradient>
<linearGradient id="paint10_linear_12498_3454" x1="21.4902" y1="20.229" x2="22.4718" y2="20.2189" gradientUnits="userSpaceOnUse">
<stop stop-color="#FF0A54"/>
<stop offset="1" stop-color="#FF6F00"/>
</linearGradient>
<linearGradient id="paint11_linear_12498_3454" x1="22.5098" y1="21.2109" x2="23.4913" y2="21.2007" gradientUnits="userSpaceOnUse">
<stop stop-color="#FF0A54"/>
<stop offset="1" stop-color="#FF6F00"/>
</linearGradient>
<linearGradient id="paint12_linear_12498_3454" x1="20.5098" y1="21.2109" x2="21.4913" y2="21.2007" gradientUnits="userSpaceOnUse">
<stop stop-color="#FF0A54"/>
<stop offset="1" stop-color="#FF6F00"/>
</linearGradient>
</defs>
</svg>
