<svg width="25" height="24" viewBox="0 0 25 24" fill="none" xmlns="http://www.w3.org/2000/svg">
<path d="M23.4479 11.4698H21.3646C21.0787 11.4698 20.834 11.7054 20.834 11.9804C20.834 12.2554 21.0787 12.491 21.3646 12.491H23.4479C23.7342 12.491 23.9793 12.2554 23.9793 11.9804C23.9381 11.7054 23.7342 11.4698 23.4479 11.4698Z" fill="url(#paint0_linear_12498_3474)"/>
<path d="M23.0803 8.56281L21.2013 9.46624C20.9562 9.58408 20.8338 9.89831 20.9562 10.134C21.0786 10.3697 21.4056 10.4875 21.6504 10.3697L23.5297 9.46624C23.7748 9.3484 23.8976 9.03416 23.7748 8.79849C23.6521 8.56281 23.3662 8.44497 23.0803 8.56281Z" fill="url(#paint1_linear_12498_3474)"/>
<path d="M23.7745 15.0836C23.8972 14.8479 23.8157 14.5337 23.5294 14.4159L21.6912 13.5517C21.4461 13.4339 21.1194 13.5124 20.9966 13.7874C20.8739 14.0231 20.9558 14.3373 21.2421 14.4552L23.1211 15.3586C23.3658 15.4371 23.6517 15.3586 23.7745 15.0836Z" fill="url(#paint2_linear_12498_3474)"/>
<path d="M2.61432 22.9784V15.9866H3.63517V22.9784H2.61432ZM1.06204 8.99488C2.85944 8.99488 4.08463 8.99488 5.75967 8.99488V15.0046C5.26943 15.0046 1.67464 15.0046 1.06204 15.0046C1.06204 14.9654 1.06204 8.99488 1.06204 8.99488ZM2.61432 5.97037H3.63517V7.97362H2.61432V5.97037ZM17.1978 20.6609L6.78093 15.201V8.75921L17.1978 3.29936C17.1978 4.04567 17.1978 19.8753 17.1978 20.6609ZM19.2807 11.9801C19.2807 12.53 18.8317 13.0014 18.2599 13.0014V10.9589C18.7905 10.9589 19.2807 11.4302 19.2807 11.9801ZM24.469 22.9784H4.69762V15.9866H6.12714L17.4837 21.9178C17.5653 21.9571 17.6469 21.9964 17.7284 21.9964C18.0143 21.9964 18.2599 21.7607 18.2599 21.4857V14.0227C19.4035 14.0227 20.3432 13.1192 20.3432 11.9801C20.3432 10.8803 19.4035 9.97687 18.2599 9.93759V2.47449C18.2599 2.2781 18.1783 2.12098 18.0143 2.04242C17.8512 1.96386 17.6469 1.96386 17.4837 2.04242L6.12714 7.97362H4.69762V5.45973C4.69762 5.18478 4.45251 4.9491 4.16661 4.9491H2.0833C1.7974 4.9491 1.55229 5.18478 1.55229 5.45973V7.97362H0.530623C0.24472 7.97362 0 8.20929 0 8.48425V15.476C0 15.7509 0.24472 15.9866 0.530623 15.9866H1.55229V22.9784H0.530623C0.24472 22.9784 0 23.214 0 23.489C0 23.764 0.24472 23.9996 0.530623 23.9996C0.653384 23.9996 23.7744 23.9996 24.469 23.9996C24.7549 23.9996 25 23.764 25 23.489C25 23.214 24.7549 22.9784 24.469 22.9784Z" fill="url(#paint3_linear_12498_3474)"/>
<path d="M8.3333 20.5041C8.3333 20.7791 8.08819 21.0148 7.80229 21.0148C7.51638 21.0148 7.27126 20.7791 7.27126 20.5041C7.27126 20.2292 7.51638 19.9935 7.80229 19.9935C8.08819 19.9935 8.3333 20.2292 8.3333 20.5041ZM6.25 20.5041C6.25 21.329 6.94458 21.9968 7.80229 21.9968C8.66 21.9968 9.35456 21.329 9.35456 20.5041C9.35456 19.6793 8.66 19.0115 7.80229 19.0115C6.94458 18.9722 6.25 19.6793 6.25 20.5041Z" fill="url(#paint4_linear_12498_3474)"/>
<path d="M9.3958 0.982038C9.6817 0.982038 9.92681 1.21771 9.92681 1.49267C9.92681 1.76763 9.6817 1.96402 9.3958 1.96402C9.10989 1.96402 8.86477 1.72835 8.86477 1.45339C8.86477 1.17844 9.10989 0.982038 9.3958 0.982038ZM9.3958 2.98529C10.2539 2.98529 10.9481 2.31754 10.9481 1.49267C10.9481 0.667803 10.2539 5.17368e-05 9.3958 5.17368e-05C8.53809 5.17368e-05 7.80273 0.628523 7.80273 1.45339C7.80273 2.27826 8.4973 2.98529 9.3958 2.98529Z" fill="url(#paint5_linear_12498_3474)"/>
<path d="M21.855 2.4752C22.1409 2.4752 22.3864 2.71088 22.3864 2.98584C22.3864 3.26079 22.1409 3.49647 21.855 3.49647C21.5691 3.49647 21.3244 3.26079 21.3244 2.98584C21.3244 2.71088 21.5691 2.4752 21.855 2.4752ZM21.855 4.47845C22.7131 4.47845 23.4077 3.8107 23.4077 2.98584C23.4077 2.16097 22.7131 1.49322 21.855 1.49322C20.9973 1.49322 20.3027 2.16097 20.3027 2.98584C20.3027 3.8107 20.9973 4.47845 21.855 4.47845Z" fill="url(#paint6_linear_12498_3474)"/>
<path d="M2.61523 0.981881H3.63609V1.96387H2.61523V0.981881Z" fill="url(#paint7_linear_12498_3474)"/>
<path d="M2.61523 2.98573H3.63609V3.96771H2.61523V2.98573Z" fill="url(#paint8_linear_12498_3474)"/>
<path d="M3.63477 1.96424H4.65643V2.94623H3.63477V1.96424Z" fill="url(#paint9_linear_12498_3474)"/>
<path d="M1.55273 1.96424H2.57398V2.94623H1.55273V1.96424Z" fill="url(#paint10_linear_12498_3474)"/>
<path d="M21.3633 18.5011H22.3849V19.4831H21.3633V18.5011Z" fill="url(#paint11_linear_12498_3474)"/>
<path d="M21.3633 20.504H22.3849V21.486H21.3633V20.504Z" fill="url(#paint12_linear_12498_3474)"/>
<path d="M22.3848 19.4826H23.406V20.4645H22.3848V19.4826Z" fill="url(#paint13_linear_12498_3474)"/>
<path d="M20.3027 19.4826H21.3244V20.4645H20.3027V19.4826Z" fill="url(#paint14_linear_12498_3474)"/>
<path d="M11.1929 8.99532H11.5604C11.8055 8.99532 11.969 9.15243 11.969 9.38811V9.74163H11.1929V8.99532ZM13.8072 11.0378H12.9495C12.6636 11.0378 12.4185 11.2735 12.4185 11.5485C12.4185 11.8234 12.6636 12.0591 12.9495 12.0591H13.8072V12.3734H12.9495C12.6636 12.3734 12.4185 12.609 12.4185 12.884C12.4185 13.1589 12.6636 13.3946 12.9495 13.3946H13.8072V13.7089H12.9495C12.6636 13.7089 12.4185 13.9445 12.4185 14.2195C12.4185 14.4944 12.6636 14.7301 12.9495 14.7301H13.8072V15.0444H11.1929V10.7236C12.0098 10.7236 12.9495 10.7236 13.8072 10.7236V11.0378ZM10.6619 15.9871H14.3386C14.6245 15.9871 14.8693 15.7514 14.8693 15.4764V10.213C14.8693 9.93802 14.6245 9.70235 14.3386 9.70235H13.0311V9.34883C13.0311 8.56324 12.3777 7.97405 11.6016 7.97405H10.6619C10.376 7.97405 10.1309 8.20973 10.1309 8.48468C10.1309 9.11316 10.1309 14.5337 10.1309 15.4764C10.1716 15.7514 10.376 15.9871 10.6619 15.9871Z" fill="url(#paint15_linear_12498_3474)"/>
<defs>
<linearGradient id="paint0_linear_12498_3474" x1="20.834" y1="11.7144" x2="23.9802" y2="11.6144" gradientUnits="userSpaceOnUse">
<stop stop-color="#FF0A54"/>
<stop offset="1" stop-color="#FF6F00"/>
</linearGradient>
<linearGradient id="paint1_linear_12498_3474" x1="20.9082" y1="8.97163" x2="23.826" y2="8.92538" gradientUnits="userSpaceOnUse">
<stop stop-color="#FF0A54"/>
<stop offset="1" stop-color="#FF6F00"/>
</linearGradient>
<linearGradient id="paint2_linear_12498_3474" x1="20.9414" y1="13.9512" x2="23.8328" y2="13.9055" gradientUnits="userSpaceOnUse">
<stop stop-color="#FF0A54"/>
<stop offset="1" stop-color="#FF6F00"/>
</linearGradient>
<linearGradient id="paint3_linear_12498_3474" x1="-1.31988e-07" y1="7.2582" x2="25.0288" y2="6.9647" gradientUnits="userSpaceOnUse">
<stop stop-color="#FF0A54"/>
<stop offset="1" stop-color="#FF6F00"/>
</linearGradient>
<linearGradient id="paint4_linear_12498_3474" x1="6.25" y1="19.7256" x2="9.35821" y2="19.6922" gradientUnits="userSpaceOnUse">
<stop stop-color="#FF0A54"/>
<stop offset="1" stop-color="#FF6F00"/>
</linearGradient>
<linearGradient id="paint5_linear_12498_3474" x1="7.80273" y1="0.715265" x2="10.9518" y2="0.681002" gradientUnits="userSpaceOnUse">
<stop stop-color="#FF0A54"/>
<stop offset="1" stop-color="#FF6F00"/>
</linearGradient>
<linearGradient id="paint6_linear_12498_3474" x1="20.3027" y1="2.20843" x2="23.4113" y2="2.17504" gradientUnits="userSpaceOnUse">
<stop stop-color="#FF0A54"/>
<stop offset="1" stop-color="#FF6F00"/>
</linearGradient>
<linearGradient id="paint7_linear_12498_3474" x1="2.61523" y1="1.21715" x2="3.63729" y2="1.20618" gradientUnits="userSpaceOnUse">
<stop stop-color="#FF0A54"/>
<stop offset="1" stop-color="#FF6F00"/>
</linearGradient>
<linearGradient id="paint8_linear_12498_3474" x1="2.61523" y1="3.22099" x2="3.63729" y2="3.21002" gradientUnits="userSpaceOnUse">
<stop stop-color="#FF0A54"/>
<stop offset="1" stop-color="#FF6F00"/>
</linearGradient>
<linearGradient id="paint9_linear_12498_3474" x1="3.63477" y1="2.19951" x2="4.65763" y2="2.18852" gradientUnits="userSpaceOnUse">
<stop stop-color="#FF0A54"/>
<stop offset="1" stop-color="#FF6F00"/>
</linearGradient>
<linearGradient id="paint10_linear_12498_3474" x1="1.55273" y1="2.19951" x2="2.57518" y2="2.18853" gradientUnits="userSpaceOnUse">
<stop stop-color="#FF0A54"/>
<stop offset="1" stop-color="#FF6F00"/>
</linearGradient>
<linearGradient id="paint11_linear_12498_3474" x1="21.3633" y1="18.7364" x2="22.3861" y2="18.7254" gradientUnits="userSpaceOnUse">
<stop stop-color="#FF0A54"/>
<stop offset="1" stop-color="#FF6F00"/>
</linearGradient>
<linearGradient id="paint12_linear_12498_3474" x1="21.3633" y1="20.7393" x2="22.3861" y2="20.7283" gradientUnits="userSpaceOnUse">
<stop stop-color="#FF0A54"/>
<stop offset="1" stop-color="#FF6F00"/>
</linearGradient>
<linearGradient id="paint13_linear_12498_3474" x1="22.3848" y1="19.7178" x2="23.4072" y2="19.7068" gradientUnits="userSpaceOnUse">
<stop stop-color="#FF0A54"/>
<stop offset="1" stop-color="#FF6F00"/>
</linearGradient>
<linearGradient id="paint14_linear_12498_3474" x1="20.3027" y1="19.7178" x2="21.3256" y2="19.7068" gradientUnits="userSpaceOnUse">
<stop stop-color="#FF0A54"/>
<stop offset="1" stop-color="#FF6F00"/>
</linearGradient>
<linearGradient id="paint15_linear_12498_3474" x1="10.1309" y1="9.89384" x2="14.8752" y2="9.86486" gradientUnits="userSpaceOnUse">
<stop stop-color="#FF0A54"/>
<stop offset="1" stop-color="#FF6F00"/>
</linearGradient>
</defs>
</svg>
