<svg width="44" height="44" viewBox="0 0 44 44" fill="none" xmlns="http://www.w3.org/2000/svg">
<path fill-rule="evenodd" clip-rule="evenodd" d="M35.7632 6.05306C36.1049 6.04083 36.4375 6.16484 36.6878 6.39782C36.938 6.6308 37.0855 6.95366 37.0978 7.29538L37.6515 22.7569C37.6637 23.0986 37.5397 23.4312 37.3067 23.6815C37.0737 23.9318 36.7509 24.0793 36.4091 24.0915C36.0674 24.1038 35.7348 23.9797 35.4845 23.7468C35.2343 23.5138 35.0868 23.1909 35.0745 22.8492L34.6322 10.498L9.42316 37.5823C9.30766 37.7064 9.16884 37.8065 9.01464 37.877C8.86044 37.9474 8.69388 37.9868 8.52446 37.9929C8.35505 37.9989 8.18609 37.9716 8.02725 37.9123C7.86841 37.8531 7.72279 37.7632 7.5987 37.6477C7.47462 37.5322 7.3745 37.3934 7.30406 37.2392C7.23362 37.085 7.19424 36.9184 7.18818 36.749C7.18211 36.5796 7.20947 36.4106 7.2687 36.2518C7.32793 36.0929 7.41786 35.9473 7.53337 35.8232L32.7451 8.74137L20.3939 9.18368C20.0522 9.19592 19.7196 9.07191 19.4693 8.83893C19.219 8.60595 19.0715 8.28308 19.0593 7.94136C19.0471 7.59964 19.1711 7.26705 19.4041 7.01677C19.637 6.76648 19.9599 6.619 20.3016 6.60676L35.7632 6.05306Z" fill="#090B0E"/>
</svg>
