<svg width="52" height="32" viewBox="0 0 52 32" fill="none" xmlns="http://www.w3.org/2000/svg">
<path d="M4.8753 25.6489H46.7792V2.56426C46.7792 1.61793 46.0097 0.848452 45.064 0.848452H6.59111C5.64477 0.848452 4.8753 1.61793 4.8753 2.56426V25.6489ZM47.2034 26.4981H4.45108C4.21678 26.4981 4.02686 26.3082 4.02686 26.0739V2.56426C4.02686 1.14998 5.17747 9.53674e-06 6.59111 9.53674e-06H45.064C46.4776 9.53674e-06 47.6283 1.14998 47.6283 2.56426V26.0739C47.6283 26.3082 47.4383 26.4981 47.2034 26.4981Z" fill="#F6F8F9"/>
<path d="M7.01478 23.5113H44.6392V2.9895H7.01478V23.5113ZM45.0641 24.3606H6.59121C6.35691 24.3606 6.16699 24.1706 6.16699 23.9356V2.56463C6.16699 2.33033 6.35691 2.14041 6.59121 2.14041H45.0641C45.2984 2.14041 45.4883 2.33033 45.4883 2.56463V23.9356C45.4883 24.1706 45.2984 24.3606 45.0641 24.3606Z" fill="#F6F8F9"/>
<path d="M0.848441 26.4972V28.8213C0.848441 30.1056 1.89398 31.1507 3.17904 31.1507H48.4773C49.7624 31.1507 50.8073 30.1056 50.8073 28.8213V26.4972H0.848441ZM48.4773 31.9996H3.17904C1.42603 31.9996 0 30.5737 0 28.8213V26.073C0 25.838 0.18992 25.6481 0.424221 25.6481H51.2315C51.4658 25.6481 51.6557 25.838 51.6557 26.073V28.8213C51.6557 30.5737 50.2303 31.9996 48.4773 31.9996Z" fill="#F6F8F9"/>
<path d="M25.8243 28.1797C25.4699 28.1797 25.1821 28.4709 25.1821 28.8285C25.1821 29.1816 25.4699 29.4695 25.8243 29.4695C26.1813 29.4695 26.4717 29.1816 26.4717 28.8285C26.4717 28.4709 26.1813 28.1797 25.8243 28.1797ZM25.8243 30.3184C25.0026 30.3184 24.333 29.6494 24.333 28.8285C24.333 28.0028 25.0026 27.3313 25.8243 27.3313C26.6492 27.3313 27.3208 28.0028 27.3208 28.8285C27.3208 29.6494 26.6492 30.3184 25.8243 30.3184Z" fill="#F6F8F9"/>
<path d="M32.4278 17.9535H36.5956C36.8391 17.1033 37.3801 16.2445 38.1463 15.5037C39.389 14.3231 39.992 12.6686 39.8027 10.9619C39.5247 8.44467 37.495 6.41494 34.9771 6.13691C34.9229 6.13821 34.8256 6.13103 34.731 6.1219C34.6442 6.11472 34.5529 6.10884 34.4641 6.10949C34.3277 6.10949 34.2096 6.1108 34.0673 6.13364C31.5317 6.41558 29.502 8.44532 29.2181 10.9626C29.036 12.6673 29.6391 14.3224 30.8739 15.5024C31.646 16.2419 32.1883 17.1013 32.4278 17.9535ZM36.9304 18.8028H32.0917C31.8868 18.8028 31.7112 18.6567 31.674 18.455C31.5298 17.664 31.037 16.8331 30.2871 16.1152C28.8611 14.7519 28.1641 12.8402 28.3749 10.8706C28.7025 7.95975 31.0481 5.61544 33.9524 5.29303C34.25 5.24343 34.528 5.25061 34.8067 5.27737C34.8772 5.28389 34.9477 5.29043 35.0234 5.29043C37.9792 5.61479 40.3249 7.95975 40.6466 10.8693C40.8646 12.8409 40.1676 14.7538 38.7344 16.1159C37.9916 16.8344 37.4982 17.6673 37.3475 18.4581C37.309 18.6579 37.1341 18.8028 36.9304 18.8028Z" fill="#F6F8F9"/>
<path d="M37.5121 19.8278H31.5116C31.2773 19.8278 31.0874 19.6378 31.0874 19.4035C31.0874 19.1692 31.2773 18.9793 31.5116 18.9793H37.5121C37.747 18.9793 37.9369 19.1692 37.9369 19.4035C37.9369 19.6378 37.747 19.8278 37.5121 19.8278Z" fill="#F6F8F9"/>
<path d="M37.5121 20.8699H31.5116C31.2773 20.8699 31.0874 20.6799 31.0874 20.4457C31.0874 20.2106 31.2773 20.0207 31.5116 20.0207H37.5121C37.747 20.0207 37.9369 20.2106 37.9369 20.4457C37.9369 20.6799 37.747 20.8699 37.5121 20.8699Z" fill="#F6F8F9"/>
<path d="M37.5121 21.9059H31.5116C31.2773 21.9059 31.0874 21.7162 31.0874 21.4819C31.0874 21.2468 31.2773 21.0569 31.5116 21.0569H37.5121C37.747 21.0569 37.9369 21.2468 37.9369 21.4819C37.9369 21.7162 37.747 21.9059 37.5121 21.9059Z" fill="#F6F8F9"/>
<path d="M34.5078 18.809C34.4536 18.809 34.3988 18.7978 34.3453 18.7764C34.22 18.7241 34.1325 18.6183 34.0986 18.4962L31.7543 13.873C31.6486 13.6641 31.7321 13.409 31.9409 13.3026C32.1498 13.1968 32.405 13.2817 32.5114 13.4892L34.3956 17.2059L35.2995 13.578C35.3569 13.3522 35.5821 13.2164 35.8144 13.2699C36.0415 13.3267 36.1799 13.5571 36.1231 13.7849L34.9262 18.4794C34.9072 18.5551 34.8681 18.6254 34.8113 18.6818C34.7317 18.7626 34.6214 18.809 34.5078 18.809Z" fill="#F6F8F9"/>
<path d="M33.7707 13.5559C33.4914 13.5559 33.1794 13.4508 32.8492 13.1421C32.5209 12.838 32.207 12.9274 31.6666 13.2276C31.4695 13.3372 31.3128 13.4247 31.1327 13.4247C30.8984 13.4247 30.7085 13.2348 30.7085 12.9998C30.7085 12.7832 30.871 12.605 31.0798 12.5795C31.1268 12.5606 31.1849 12.5247 31.2541 12.4862C31.6868 12.2441 32.5875 11.7428 33.4281 12.5214C33.7316 12.8053 33.8699 12.7388 34.2582 12.4901C34.4664 12.357 34.702 12.2069 34.9833 12.1899C35.6053 12.1742 36.5751 12.6311 36.7664 12.727C36.9752 12.8314 37.0607 13.086 36.9556 13.2955C36.8519 13.505 36.5954 13.5911 36.3872 13.4854C35.9949 13.2896 35.3312 13.024 35.031 13.0377C34.9722 13.0409 34.8176 13.1395 34.7151 13.2048C34.4958 13.3451 34.1669 13.5559 33.7707 13.5559Z" fill="#F6F8F9"/>
<path d="M32.5161 18.8024V20.4281C32.5161 21.321 33.2451 22.0473 34.1412 22.0473H34.8872C35.78 22.0473 36.5064 21.321 36.5064 20.4281V18.8024H32.5161ZM34.8872 22.8965H34.1412C32.7778 22.8965 31.667 21.789 31.667 20.4281V18.3782C31.667 18.1432 31.8569 17.9532 32.0919 17.9532H36.9306C37.1649 17.9532 37.3548 18.1432 37.3548 18.3782V20.4281C37.3548 21.789 36.2479 22.8965 34.8872 22.8965Z" fill="#F6F8F9"/>
<path d="M34.5147 5.32776C34.2798 5.32776 34.0898 5.13784 34.0898 4.90288V3.8952C34.0898 3.6609 34.2798 3.47098 34.5147 3.47098C34.749 3.47098 34.9389 3.6609 34.9389 3.8952V4.90288C34.9389 5.13784 34.749 5.32776 34.5147 5.32776Z" fill="#F6F8F9"/>
<path d="M38.1216 6.29181C38.0498 6.29181 37.9767 6.27353 37.9101 6.23438C37.7072 6.11755 37.638 5.8578 37.7555 5.65548L38.2587 4.78485C38.3755 4.58188 38.6352 4.51204 38.8382 4.62952C39.0405 4.74699 39.1104 5.0061 38.9929 5.20907L38.4897 6.0797C38.4107 6.21545 38.2684 6.29181 38.1216 6.29181Z" fill="#F6F8F9"/>
<path d="M40.7592 8.93399C40.6123 8.93399 40.4694 8.85763 40.3911 8.72123C40.2742 8.5176 40.3441 8.2585 40.5471 8.14168L41.4242 7.63783C41.6291 7.52036 41.8876 7.5915 42.0031 7.79382C42.1199 7.99679 42.0501 8.25654 41.8471 8.37337L40.97 8.87721C40.9034 8.91572 40.8303 8.93399 40.7592 8.93399Z" fill="#F6F8F9"/>
<path d="M42.7376 12.5418H41.7299C41.4956 12.5418 41.3057 12.3519 41.3057 12.1176C41.3057 11.8833 41.4956 11.6934 41.7299 11.6934H42.7376C42.9725 11.6934 43.1625 11.8833 43.1625 12.1176C43.1625 12.3519 42.9725 12.5418 42.7376 12.5418Z" fill="#F6F8F9"/>
<path d="M41.635 16.6512C41.5639 16.6512 41.4908 16.6328 41.4248 16.5943L40.5477 16.0919C40.3441 15.9756 40.2742 15.7166 40.391 15.513C40.5072 15.31 40.767 15.2402 40.9693 15.3563L41.8465 15.8588C42.0501 15.9751 42.1199 16.2349 42.0031 16.4378C41.9248 16.5747 41.7818 16.6512 41.635 16.6512Z" fill="#F6F8F9"/>
<path d="M27.3951 16.6512C27.2476 16.6512 27.1053 16.5747 27.0264 16.4391C26.9095 16.2354 26.9794 15.9763 27.1817 15.8588L28.0536 15.3563C28.2592 15.2402 28.5163 15.3106 28.6338 15.5117C28.7506 15.7153 28.6808 15.9743 28.4785 16.0919L27.6065 16.5943C27.5393 16.6328 27.4662 16.6512 27.3951 16.6512Z" fill="#F6F8F9"/>
<path d="M27.2996 12.5418H26.2919C26.0576 12.5418 25.8677 12.3519 25.8677 12.1176C25.8677 11.8833 26.0576 11.6934 26.2919 11.6934H27.2996C27.5339 11.6934 27.7238 11.8833 27.7238 12.1176C27.7238 12.3519 27.5339 12.5418 27.2996 12.5418Z" fill="#F6F8F9"/>
<path d="M28.2655 8.93399C28.1931 8.93399 28.1207 8.91572 28.0534 8.87656L27.1815 8.37272C26.9792 8.25524 26.9093 7.99614 27.0268 7.79316C27.1436 7.59084 27.4027 7.52036 27.6064 7.63849L28.4783 8.14233C28.6806 8.25981 28.7505 8.51891 28.633 8.72188C28.5547 8.85763 28.4117 8.93399 28.2655 8.93399Z" fill="#F6F8F9"/>
<path d="M30.9075 6.29181C30.7614 6.29181 30.6184 6.2161 30.5401 6.0797L30.0363 5.20907C29.9194 5.0061 29.9886 4.74699 30.1916 4.62952C30.3939 4.51204 30.6543 4.58122 30.7705 4.78485L31.2743 5.65548C31.3918 5.8578 31.322 6.11755 31.1197 6.23438C31.0524 6.27353 30.98 6.29181 30.9075 6.29181Z" fill="#F6F8F9"/>
<path d="M12.1702 18.0587C12.1687 18.0622 12.1668 18.0658 12.1651 18.0693C12.1074 18.1754 12.0716 18.2959 12.0611 18.4177L11.826 21.3223C11.825 21.3331 11.831 21.3381 11.8361 21.3409L11.8592 21.3523C11.8609 21.3523 11.8629 21.3519 11.8663 21.3497L14.3455 19.8121C14.4495 19.7482 14.538 19.6641 14.6092 19.562C14.611 19.559 14.6133 19.556 14.6157 19.5534L20.0977 10.5751L17.6522 9.08266L12.1702 18.0587ZM11.8592 21.5949C11.8058 21.5949 11.7539 21.5785 11.7089 21.5475C11.6278 21.5042 11.5746 21.4048 11.5841 21.3011L11.8192 18.3977C11.8299 18.2714 11.8622 18.1467 11.9132 18.0318C11.9154 18.017 11.9205 18.0027 11.9283 17.9888L11.941 17.9679L17.5082 8.85257C17.5431 8.79561 17.6176 8.7773 17.675 8.81223L20.328 10.4313C20.3851 10.4662 20.4032 10.5409 20.3683 10.5983L14.789 19.7349C14.7802 19.7497 14.7685 19.7618 14.7552 19.7712C14.6751 19.8696 14.5804 19.9525 14.4732 20.0186L11.9967 21.5546C11.9569 21.5806 11.9087 21.5949 11.8592 21.5949Z" fill="#F6F8F9"/>
<path d="M18.2619 8.1057L20.6919 9.58957L21.134 8.86678C21.3288 8.54759 21.2276 8.12774 20.908 7.93089L19.638 7.15693C19.5308 7.09138 19.4085 7.05663 19.2841 7.05663C19.0452 7.05663 18.828 7.17878 18.7029 7.38329L18.2619 8.1057ZM20.7321 9.87775C20.7106 9.87775 20.6886 9.87196 20.669 9.86001L18.0318 8.2497C17.9745 8.21477 17.9565 8.14026 17.9915 8.08292L18.4955 7.25685C18.6651 6.97932 18.96 6.81384 19.2841 6.81384C19.4531 6.81384 19.6193 6.8609 19.7646 6.9498L21.0348 7.72395C21.4683 7.99084 21.6058 8.5603 21.3413 8.99341L20.8359 9.81966C20.8128 9.85702 20.773 9.87775 20.7321 9.87775Z" fill="#F6F8F9"/>
<path d="M17.781 8.87506L20.2245 10.3675L20.5724 9.79863L18.1278 8.30617L17.781 8.87506ZM20.265 10.6559C20.243 10.6559 20.2209 10.6497 20.2017 10.638L17.5509 9.01887C17.4936 8.98395 17.4755 8.90924 17.5106 8.85209L17.9839 8.07607C18.0005 8.04843 18.0276 8.02882 18.0587 8.02117C18.0903 8.01351 18.1234 8.01873 18.1508 8.03554L20.8029 9.65481C20.8304 9.67162 20.8502 9.69871 20.8576 9.73008C20.8651 9.76127 20.8599 9.79432 20.8431 9.82178L20.3687 10.5976C20.3519 10.6253 20.3248 10.6449 20.2936 10.6525C20.2841 10.6548 20.2746 10.6559 20.265 10.6559Z" fill="#F6F8F9"/>
<path d="M12.6588 18.6371C12.6373 18.6371 12.6155 18.6314 12.5957 18.6194C12.5385 18.5845 12.5204 18.5096 12.5555 18.4524L18.1731 9.25808C18.2078 9.20093 18.2829 9.18281 18.3399 9.21773C18.3972 9.25266 18.4153 9.32738 18.3802 9.38471L12.7626 18.5791C12.7399 18.6166 12.6999 18.6371 12.6588 18.6371Z" fill="#F6F8F9"/>
</svg>
