<svg width="16" height="16" viewBox="0 0 16 16" fill="none" xmlns="http://www.w3.org/2000/svg">
<path d="M0 8C0 3.58172 3.58172 0 8 0C12.4183 0 16 3.58172 16 8C16 12.4183 12.4183 16 8 16C3.58172 16 0 12.4183 0 8Z" fill="#E1EFFE"/>
<g clip-path="url(#clip0_12525_11039)">
<path d="M6.86216 11.3333C6.7316 11.334 6.60601 11.2726 6.51227 11.1625L4.15098 8.385C4.10391 8.3293 4.06636 8.26291 4.04046 8.18962C4.01456 8.11633 4.00083 8.03757 4.00004 7.95785C3.99844 7.79683 4.04968 7.64165 4.14248 7.52643C4.23528 7.41121 4.36203 7.34539 4.49486 7.34346C4.62769 7.34153 4.75571 7.40364 4.85077 7.51613L6.86416 9.88341L11.1489 4.83922C11.2441 4.72674 11.3722 4.66469 11.5051 4.66674C11.6381 4.66878 11.7649 4.73475 11.8577 4.85013C11.9505 4.96551 12.0016 5.12085 12 5.28198C11.9983 5.44311 11.9439 5.59682 11.8487 5.70931L7.21206 11.1625C7.11831 11.2726 6.99273 11.334 6.86216 11.3333Z" fill="#1C64F2"/>
</g>
<defs>
<clipPath id="clip0_12525_11039">
<rect width="8" height="8" fill="white" transform="translate(4 4)"/>
</clipPath>
</defs>
</svg>
