<svg width="20" height="20" viewBox="0 0 20 20" fill="none" xmlns="http://www.w3.org/2000/svg">
<path d="M14.8386 12.3647C14.9355 12.4223 15.0552 12.4899 15.1908 12.5664C15.7848 12.9015 16.6827 13.4081 17.2979 14.0102C17.6826 14.3868 18.0482 14.883 18.1146 15.491C18.1852 16.1375 17.9032 16.7443 17.3373 17.2833C16.3612 18.2133 15.1897 18.9587 13.6744 18.9587H6.32587C4.81062 18.9587 3.63912 18.2133 2.66292 17.2833C2.09707 16.7443 1.81502 16.1375 1.88569 15.491C1.95214 14.883 2.31769 14.3868 2.70242 14.0102C3.31755 13.4081 4.21547 12.9015 4.80949 12.5664C4.94503 12.4899 5.06477 12.4223 5.1617 12.3647C8.12341 10.6011 11.8769 10.6011 14.8386 12.3647Z" fill="#090B0E"/>
<path d="M5.625 5.41699C5.625 3.00074 7.58375 1.04199 10 1.04199C12.4163 1.04199 14.375 3.00074 14.375 5.41699C14.375 7.83323 12.4163 9.79199 10 9.79199C7.58375 9.79199 5.625 7.83323 5.625 5.41699Z" fill="#090B0E"/>
</svg>
