<svg width="30" height="30" viewBox="0 0 30 30" fill="none" xmlns="http://www.w3.org/2000/svg">
<path fill-rule="evenodd" clip-rule="evenodd" d="M18.3529 3.48351C15.9081 3.42216 14.0919 3.42217 11.6471 3.48351L11.5536 3.48586C9.66686 3.53315 8.11451 3.57206 6.8633 3.78968C5.53535 4.02067 4.42345 4.47051 3.4817 5.41467C2.54487 6.35388 2.09631 7.44825 1.86907 8.7552C1.65581 9.98172 1.62354 11.4953 1.58447 13.3271L1.58246 13.4214C1.55584 14.6689 1.55585 15.3312 1.58249 16.5786L1.5845 16.6729C1.62355 18.5047 1.65582 20.0182 1.86909 21.2449C2.09634 22.5517 2.5449 23.6461 3.48171 24.5854C4.42347 25.5295 5.53536 25.9794 6.86332 26.2104C8.11452 26.428 9.66687 26.4669 11.5536 26.5141L11.6471 26.5165C14.0919 26.5779 15.9081 26.5779 18.3529 26.5165L18.4464 26.5141C20.3331 26.4669 21.8855 26.4279 23.1367 26.2102C24.4646 25.9794 25.5765 25.5295 26.5182 24.5854C27.4551 23.6461 27.9037 22.5517 28.1309 21.2447C28.3442 20.0182 28.3765 18.5047 28.4155 16.6729L28.4175 16.5786C28.4441 15.3311 28.4441 14.6689 28.4175 13.4214L28.4155 13.3272C28.3765 11.4953 28.3441 9.98172 28.1309 8.7552C27.9036 7.44825 27.4551 6.35388 26.5182 5.41467C25.9891 4.8841 25.4061 4.50962 24.7612 4.24236C24.6631 4.1888 24.558 4.14841 24.4484 4.12263C24.0361 3.9773 23.5995 3.8702 23.1366 3.7897C21.8855 3.57206 20.3331 3.53315 18.4464 3.48585L18.3529 3.48351ZM25.8497 11.0629C25.8255 10.556 25.8134 10.3025 25.6299 10.2014C25.4464 10.1002 25.2206 10.228 24.7694 10.4837L19.4747 13.4837C17.8501 14.4042 16.4762 15 14.9997 15C13.5232 15 12.1493 14.4042 10.5248 13.4837L5.23056 10.484C4.77929 10.2283 4.55365 10.1004 4.3701 10.2016C4.18655 10.3028 4.17446 10.5563 4.15029 11.0632C4.1177 11.7463 4.10004 12.5382 4.08004 13.4746C4.05416 14.6865 4.05417 15.3135 4.08006 16.5254C4.1217 18.4754 4.15326 19.7991 4.3304 20.8179C4.4972 21.7772 4.77547 22.3471 5.25152 22.8244C5.72262 23.2967 6.30034 23.5797 7.29194 23.7522C8.33967 23.9345 9.70621 23.972 11.7099 24.0222C14.1127 24.0825 15.8872 24.0825 18.2901 24.0222C20.2937 23.972 21.6604 23.9345 22.7081 23.7522C23.6996 23.5797 24.2774 23.2967 24.7485 22.8244C25.2245 22.3471 25.5029 21.7772 25.6696 20.8179C25.8467 19.7991 25.8784 18.4754 25.92 16.5254C25.9459 15.3135 25.9459 14.6865 25.92 13.4746C25.9 12.5381 25.8822 11.7461 25.8497 11.0629Z" fill="#4E2FDA"/>
</svg>
