<svg width="40" height="40" viewBox="0 0 40 40" fill="none" xmlns="http://www.w3.org/2000/svg">
<path fill-rule="evenodd" clip-rule="evenodd" d="M24.4702 4.64338C21.2105 4.56158 18.7888 4.56159 15.5292 4.64338L15.4044 4.64651C12.8888 4.70956 10.819 4.76144 9.15074 5.05161C7.38014 5.35959 5.89761 5.95937 4.64194 7.21826C3.39284 8.47054 2.79476 9.92969 2.49177 11.6723C2.20742 13.3077 2.16439 15.3257 2.11231 17.7682L2.10962 17.8939C2.07412 19.5572 2.07414 20.4404 2.10966 22.1035L2.11234 22.2292C2.16441 24.6717 2.20744 26.6897 2.49179 28.3252C2.79479 30.0677 3.39287 31.5269 4.64196 32.7792C5.89764 34.038 7.38016 34.6379 9.15077 34.9459C10.819 35.236 12.8888 35.2879 15.4044 35.3509L15.5292 35.354C18.7888 35.4359 21.2105 35.4359 24.4702 35.354L24.5948 35.3509C27.1105 35.2879 29.1803 35.2359 30.8487 34.9457C32.6192 34.6379 34.1017 34.038 35.3573 32.7792C36.6065 31.5269 37.2047 30.0677 37.5075 28.325C37.792 26.6897 37.835 24.6717 37.887 22.2292L37.8897 22.1035C37.9252 20.4402 37.9252 19.5572 37.8897 17.8939L37.887 17.7684C37.835 15.3258 37.7918 13.3077 37.5075 11.6723C37.2045 9.92969 36.6065 8.47054 35.3573 7.21826C34.6518 6.51082 33.8745 6.01152 33.0147 5.65517C32.8838 5.58376 32.7437 5.52991 32.5975 5.49554C32.0478 5.30176 31.4657 5.15896 30.8485 5.05163C29.1803 4.76144 27.1105 4.70956 24.5948 4.64649L24.4702 4.64338ZM34.466 14.7492C34.4337 14.0733 34.4175 13.7354 34.1728 13.6005C33.9282 13.4656 33.6272 13.6361 33.0255 13.977L25.966 17.977C23.7998 19.2044 21.968 19.9987 19.9993 19.9987C18.0307 19.9987 16.1988 19.2044 14.0328 17.977L6.97376 13.9773C6.37206 13.6364 6.07121 13.4659 5.82647 13.6009C5.58174 13.7358 5.56562 14.0737 5.53339 14.7496C5.48994 15.6604 5.46639 16.7164 5.43972 17.9649C5.40522 19.5807 5.40524 20.4167 5.43976 22.0325C5.49527 24.6325 5.53736 26.3975 5.77354 27.7559C5.99594 29.035 6.36697 29.7949 7.00171 30.4312C7.62984 31.061 8.40012 31.4384 9.72226 31.6684C11.1192 31.9114 12.9413 31.9614 15.6129 32.0284C18.8167 32.1087 21.1827 32.1087 24.3865 32.0284C27.058 31.9614 28.8802 31.9114 30.2772 31.6684C31.5992 31.4384 32.3695 31.061 32.9977 30.4312C33.6323 29.7949 34.0035 29.035 34.2258 27.7559C34.462 26.3975 34.5042 24.6325 34.5597 22.0325C34.5942 20.4167 34.5942 19.5807 34.5597 17.9649C34.533 16.7162 34.5093 15.6601 34.466 14.7492Z" fill="white"/>
</svg>
