<svg width="34" height="34" viewBox="0 0 34 34" fill="none" xmlns="http://www.w3.org/2000/svg">
<path d="M5.66667 25.4987L12.75 16.9987M28.3333 25.4987L21.25 16.9987M4.25 11.332L14.4854 18.1555C15.3942 18.7615 15.8485 19.0645 16.3397 19.1821C16.7738 19.2862 17.2262 19.2862 17.6603 19.1821C18.1515 19.0645 18.6058 18.7615 19.5146 18.1555L29.75 11.332M8.78333 26.9154H25.2167C26.8035 26.9154 27.597 26.9154 28.203 26.6065C28.7361 26.335 29.1696 25.9015 29.4412 25.3684C29.75 24.7623 29.75 23.9688 29.75 22.382V11.6154C29.75 10.0286 29.75 9.23514 29.4412 8.62906C29.1696 8.09593 28.7361 7.66248 28.203 7.39085C27.597 7.08203 26.8035 7.08203 25.2167 7.08203H8.78333C7.19652 7.08203 6.40311 7.08203 5.79703 7.39085C5.26389 7.66248 4.83045 8.09593 4.55882 8.62906C4.25 9.23514 4.25 10.0285 4.25 11.6154V22.382C4.25 23.9688 4.25 24.7623 4.55882 25.3684C4.83045 25.9015 5.26389 26.335 5.79703 26.6065C6.40311 26.9154 7.19651 26.9154 8.78333 26.9154Z" stroke="#055346" stroke-width="2" stroke-linecap="round" stroke-linejoin="round"/>
</svg>
