<svg width="22" height="20" viewBox="0 0 22 20" fill="none" xmlns="http://www.w3.org/2000/svg">
<path fill-rule="evenodd" clip-rule="evenodd" d="M13.6823 0.786806C11.7265 0.737726 10.2735 0.737736 8.3177 0.786806L8.24285 0.788686C6.73349 0.826516 5.49161 0.857646 4.49064 1.03175C3.42828 1.21654 2.53876 1.57641 1.78536 2.33174C1.0359 3.08311 0.677049 3.9586 0.495259 5.00416C0.324649 5.98538 0.298829 7.19623 0.267579 8.6617L0.265969 8.7371C0.244669 9.7351 0.244679 10.265 0.265989 11.2629L0.267599 11.3383C0.298839 12.8038 0.324659 14.0146 0.495269 14.9959C0.677069 16.0414 1.03592 16.9169 1.78537 17.6683C2.53878 18.4236 3.42829 18.7835 4.49066 18.9683C5.49162 19.1424 6.7335 19.1735 8.24286 19.2113L8.31772 19.2132C10.2735 19.2623 11.7265 19.2623 13.6823 19.2132L13.7571 19.2113C15.2665 19.1735 16.5084 19.1423 17.5094 18.9682C18.5717 18.7835 19.4612 18.4236 20.2146 17.6683C20.9641 16.9169 21.323 16.0414 21.5047 14.9958C21.6754 14.0146 21.7012 12.8038 21.7324 11.3383L21.734 11.2629C21.7553 10.2649 21.7553 9.7351 21.734 8.7371L21.7324 8.6618C21.7012 7.19627 21.6753 5.98538 21.5047 5.00416C21.3229 3.9586 20.9641 3.08311 20.2146 2.33174C19.7913 1.90728 19.3249 1.6077 18.809 1.39389C18.7305 1.35104 18.6464 1.31873 18.5587 1.29811C18.2289 1.18184 17.8796 1.09616 17.5093 1.03176C16.5084 0.857646 15.2665 0.826516 13.7571 0.788676L13.6823 0.786806ZM19.6798 6.8503C19.6604 6.44479 19.6507 6.24204 19.5039 6.16109C19.3571 6.08014 19.1765 6.18242 18.8155 6.38697L14.5798 8.787C13.2801 9.5234 12.181 10 10.9998 10C9.8186 10 8.71946 9.5234 7.41985 8.787L3.18445 6.38719C2.82343 6.18263 2.64292 6.08035 2.49608 6.1613C2.34924 6.24225 2.33957 6.44501 2.32023 6.85053C2.29416 7.39704 2.28003 8.0306 2.26403 8.7797C2.24333 9.7492 2.24334 10.2508 2.26405 11.2203C2.29736 12.7803 2.32261 13.8393 2.46432 14.6543C2.59776 15.4218 2.82038 15.8777 3.20122 16.2595C3.5781 16.6374 4.04027 16.8638 4.83355 17.0018C5.67174 17.1476 6.76497 17.1776 8.36791 17.2178C10.2902 17.266 11.7098 17.266 13.6321 17.2178C15.235 17.1776 16.3283 17.1476 17.1665 17.0018C17.9597 16.8638 18.4219 16.6374 18.7988 16.2595C19.1796 15.8777 19.4023 15.4218 19.5357 14.6543C19.6774 13.8393 19.7027 12.7803 19.736 11.2203C19.7567 10.2508 19.7567 9.7492 19.736 8.7797C19.72 8.0305 19.7058 7.39687 19.6798 6.8503Z" fill="#090B0E"/>
</svg>
