<svg width="48" height="48" viewBox="0 0 48 48" fill="none" xmlns="http://www.w3.org/2000/svg">
<path d="M8 36L18 24M40 36L30 24M6 16L20.45 25.6332C21.733 26.4886 22.3744 26.9164 23.0678 27.0824C23.6806 27.2294 24.3194 27.2294 24.9322 27.0824C25.6256 26.9164 26.267 26.4886 27.55 25.6332L42 16M12.4 38H35.6C37.8402 38 38.9604 38 39.816 37.564C40.5686 37.1806 41.1806 36.5686 41.564 35.816C42 34.9604 42 33.8402 42 31.6V16.4C42 14.1598 42 13.0397 41.564 12.184C41.1806 11.4314 40.5686 10.8195 39.816 10.436C38.9604 10 37.8402 10 35.6 10H12.4C10.1598 10 9.03968 10 8.18404 10.436C7.43138 10.8195 6.81946 11.4314 6.43598 12.184C6 13.0397 6 14.1598 6 16.4V31.6C6 33.8402 6 34.9604 6.43598 35.816C6.81946 36.5686 7.43138 37.1806 8.18404 37.564C9.03968 38 10.1598 38 12.4 38Z" stroke="#4E46C3" stroke-width="3" stroke-linecap="round" stroke-linejoin="round"/>
</svg>
