<svg width="28" height="22" viewBox="0 0 28 22" fill="none" xmlns="http://www.w3.org/2000/svg">
<path d="M2.66667 19.4987L9.75 10.9987M25.3333 19.4987L18.25 10.9987M1.25 5.33203L11.4854 12.1555C12.3942 12.7615 12.8485 13.0645 13.3397 13.1821C13.7738 13.2862 14.2262 13.2862 14.6603 13.1821C15.1515 13.0645 15.6058 12.7615 16.5146 12.1555L26.75 5.33203M5.78333 20.9154H22.2167C23.8035 20.9154 24.597 20.9154 25.203 20.6065C25.7361 20.335 26.1696 19.9015 26.4412 19.3684C26.75 18.7623 26.75 17.9688 26.75 16.382V5.61536C26.75 4.02856 26.75 3.23514 26.4412 2.62906C26.1696 2.09593 25.7361 1.66248 25.203 1.39085C24.597 1.08203 23.8035 1.08203 22.2167 1.08203H5.78333C4.19652 1.08203 3.40311 1.08203 2.79703 1.39085C2.26389 1.66248 1.83045 2.09593 1.55882 2.62906C1.25 3.23514 1.25 4.02854 1.25 5.61536V16.382C1.25 17.9688 1.25 18.7623 1.55882 19.3684C1.83045 19.9015 2.26389 20.335 2.79703 20.6065C3.40311 20.9154 4.19651 20.9154 5.78333 20.9154Z" stroke="url(#paint0_linear_12107_25337)" stroke-width="2" stroke-linecap="round" stroke-linejoin="round"/>
<defs>
<linearGradient id="paint0_linear_12107_25337" x1="26.75" y1="2.4987" x2="0.95103" y2="3.63689" gradientUnits="userSpaceOnUse">
<stop stop-color="#408BFF"/>
<stop offset="1" stop-color="#0A18A1"/>
</linearGradient>
</defs>
</svg>
