<svg width="20" height="20" viewBox="0 0 20 20" fill="none" xmlns="http://www.w3.org/2000/svg">
<path d="M2.0835 10.0007C2.0835 6.2687 2.0835 4.40273 3.24286 3.24335C4.40224 2.08398 6.26821 2.08398 10.0002 2.08398C13.7321 2.08398 15.5981 2.08398 16.7575 3.24335C17.9168 4.40273 17.9168 6.2687 17.9168 10.0007C17.9168 13.7326 17.9168 15.5986 16.7575 16.758C15.5981 17.9173 13.7321 17.9173 10.0002 17.9173C6.26821 17.9173 4.40224 17.9173 3.24286 16.758C2.0835 15.5986 2.0835 13.7326 2.0835 10.0007Z" stroke="#FB3189" stroke-width="1.5" stroke-linejoin="round"/>
<path d="M14.1668 7.29102C14.512 7.29102 14.7918 7.01119 14.7918 6.66602C14.7918 6.32084 14.512 6.04102 14.1668 6.04102V7.29102ZM9.37516 17.916C9.37516 18.2612 9.655 18.541 10.0002 18.541C10.3453 18.541 10.6252 18.2612 10.6252 17.916H9.37516ZM8.3335 11.041C7.98832 11.041 7.7085 11.3209 7.7085 11.666C7.7085 12.0112 7.98832 12.291 8.3335 12.291V11.041ZM12.5002 12.291C12.8453 12.291 13.1252 12.0112 13.1252 11.666C13.1252 11.3209 12.8453 11.041 12.5002 11.041V12.291ZM14.1668 6.04102H13.3335V7.29102H14.1668V6.04102ZM9.37516 9.99935V17.916H10.6252V9.99935H9.37516ZM13.3335 6.04102C12.5655 6.04102 11.9266 6.03969 11.4214 6.10761C10.8982 6.17795 10.4259 6.33268 10.0464 6.71223L10.9302 7.59612C11.0388 7.48752 11.2034 7.39817 11.588 7.34647C11.9905 7.29234 12.5302 7.29102 13.3335 7.29102V6.04102ZM10.6252 9.99935C10.6252 9.19602 10.6265 8.65635 10.6806 8.25384C10.7323 7.86929 10.8217 7.70471 10.9302 7.59612L10.0464 6.71223C9.66683 7.09179 9.51208 7.56413 9.44175 8.08728C9.37383 8.59243 9.37516 9.23135 9.37516 9.99935H10.6252ZM8.3335 12.291H12.5002V11.041H8.3335V12.291Z" fill="#FB3189"/>
</svg>
