<svg width="18" height="18" viewBox="0 0 18 18" fill="none" xmlns="http://www.w3.org/2000/svg">
<path d="M12.2678 4.62502C11.5381 4.62495 10.8893 4.6249 10.3654 4.69535C9.79609 4.77191 9.22117 4.94849 8.75126 5.41852C8.28134 5.88854 8.10484 6.46364 8.02834 7.03319C7.95792 7.55721 7.95792 8.20621 7.95801 8.93613V9.62655H7.33301C6.75771 9.62655 6.29134 10.0931 6.29134 10.6685C6.29134 11.244 6.75771 11.7105 7.33301 11.7105H7.95801V16.7085C7.95801 17.1037 7.95801 17.3013 7.83409 17.4237C7.71018 17.5461 7.51409 17.5436 7.12192 17.5386C6.13072 17.526 5.2878 17.4913 4.57302 17.3952C3.42582 17.2409 2.5156 16.9183 1.80043 16.2029C1.08527 15.4875 0.762741 14.577 0.6085 13.4295C0.457991 12.3095 0.458 10.8752 0.458008 9.04905V8.95371C0.458 7.12757 0.457991 5.69321 0.6085 4.57335C0.762741 3.42577 1.08527 2.51527 1.80043 1.79988C2.5156 1.08449 3.42582 0.761857 4.57302 0.607573C5.69253 0.457015 7.12646 0.457015 8.95201 0.457032H9.04734C10.8729 0.457015 12.3068 0.457015 13.4263 0.607573C14.5735 0.761857 15.4838 1.08449 16.1989 1.79988C16.9141 2.51527 17.2366 3.42576 17.3908 4.57335C17.5413 5.69321 17.5413 7.12758 17.5413 8.95371V9.04905C17.5413 10.8752 17.5413 12.3095 17.3908 13.4295C17.2366 14.577 16.9141 15.4875 16.1989 16.2029C15.4838 16.9183 14.5735 17.2409 13.4263 17.3952C12.7116 17.4913 11.8686 17.526 10.8774 17.5386C10.4853 17.5436 10.2892 17.5461 10.1653 17.4237C10.0413 17.3013 10.0413 17.1037 10.0413 16.7085V11.7105H11.4997C12.075 11.7105 12.5413 11.244 12.5413 10.6685C12.5413 10.0931 12.075 9.62655 11.4997 9.62655H10.0413V9.00138C10.0413 8.18605 10.0436 7.6793 10.0931 7.31087C10.1378 6.97834 10.2038 6.91266 10.2234 6.89312L10.2244 6.89212L10.2254 6.89112C10.2449 6.87148 10.3106 6.80546 10.643 6.76075C11.0113 6.71121 11.5179 6.70901 12.333 6.70901H13.1663C13.7417 6.70901 14.208 6.24249 14.208 5.66701C14.208 5.09153 13.7417 4.62502 13.1663 4.62502H12.2678Z" fill="#090B0E"/>
</svg>
