<svg width="20" height="20" viewBox="0 0 20 20" fill="none" xmlns="http://www.w3.org/2000/svg">
<path d="M2.08301 9.9987C2.08301 6.26675 2.08301 4.40077 3.24237 3.2414C4.40175 2.08203 6.26772 2.08203 9.99967 2.08203C13.7316 2.08203 15.5976 2.08203 16.757 3.2414C17.9163 4.40077 17.9163 6.26675 17.9163 9.9987C17.9163 13.7306 17.9163 15.5966 16.757 16.756C15.5976 17.9154 13.7316 17.9154 9.99967 17.9154C6.26772 17.9154 4.40175 17.9154 3.24237 16.756C2.08301 15.5966 2.08301 13.7306 2.08301 9.9987Z" stroke="#FF0A54" stroke-width="1.5" stroke-linejoin="round"/>
<path d="M14.1663 7.29297C14.5115 7.29297 14.7913 7.01315 14.7913 6.66797C14.7913 6.3228 14.5115 6.04297 14.1663 6.04297V7.29297ZM9.37467 17.918C9.37467 18.2631 9.65451 18.543 9.99967 18.543C10.3448 18.543 10.6247 18.2631 10.6247 17.918H9.37467ZM8.33301 11.043C7.98783 11.043 7.70801 11.3228 7.70801 11.668C7.70801 12.0131 7.98783 12.293 8.33301 12.293V11.043ZM12.4997 12.293C12.8448 12.293 13.1247 12.0131 13.1247 11.668C13.1247 11.3228 12.8448 11.043 12.4997 11.043V12.293ZM14.1663 6.04297H13.333V7.29297H14.1663V6.04297ZM9.37467 10.0013V17.918H10.6247V10.0013H9.37467ZM13.333 6.04297C12.565 6.04297 11.9261 6.04165 11.4209 6.10956C10.8978 6.1799 10.4254 6.33463 10.0459 6.71419L10.9298 7.59807C11.0383 7.48947 11.2029 7.40012 11.5875 7.34842C11.99 7.2943 12.5297 7.29297 13.333 7.29297V6.04297ZM10.6247 10.0013C10.6247 9.19797 10.626 8.6583 10.6801 8.2558C10.7318 7.87125 10.8212 7.70666 10.9298 7.59807L10.0459 6.71419C9.66634 7.09375 9.51159 7.56608 9.44126 8.08924C9.37334 8.59439 9.37467 9.2333 9.37467 10.0013H10.6247ZM8.33301 12.293H12.4997V11.043H8.33301V12.293Z" fill="#FF0A54"/>
</svg>
