<svg width="20" height="20" viewBox="0 0 20 20" fill="none" xmlns="http://www.w3.org/2000/svg">
<path d="M13.2678 5.62892C12.5381 5.62885 11.8893 5.6288 11.3654 5.69925C10.7961 5.77582 10.2212 5.9524 9.75126 6.42242C9.28134 6.89245 9.10484 7.46755 9.02834 8.0371C8.95792 8.56112 8.95792 9.21012 8.95801 9.94004V10.6305H8.33301C7.75771 10.6305 7.29134 11.097 7.29134 11.6725C7.29134 12.248 7.75771 12.7145 8.33301 12.7145H8.95801V17.7124C8.95801 18.1076 8.95801 18.3052 8.83409 18.4276C8.71018 18.55 8.51409 18.5475 8.12193 18.5425C7.13072 18.53 6.2878 18.4952 5.57302 18.3991C4.42582 18.2448 3.5156 17.9222 2.80043 17.2068C2.08527 16.4914 1.76274 15.5809 1.6085 14.4334C1.45799 13.3135 1.458 11.8791 1.45801 10.053V9.95762C1.458 8.13148 1.45799 6.69711 1.6085 5.57725C1.76274 4.42968 2.08527 3.51918 2.80043 2.80379C3.5156 2.0884 4.42582 1.76576 5.57302 1.61148C6.69253 1.46092 8.12646 1.46092 9.95201 1.46094H10.0473C11.8729 1.46092 13.3068 1.46092 14.4263 1.61148C15.5735 1.76576 16.4838 2.0884 17.1989 2.80379C17.9141 3.51918 18.2366 4.42967 18.3908 5.57725C18.5413 6.69711 18.5413 8.13149 18.5413 9.95762V10.053C18.5413 11.8791 18.5413 13.3135 18.3908 14.4334C18.2366 15.5809 17.9141 16.4914 17.1989 17.2068C16.4838 17.9222 15.5735 18.2448 14.4263 18.3991C13.7116 18.4952 12.8686 18.53 11.8774 18.5425C11.4853 18.5475 11.2892 18.55 11.1653 18.4276C11.0413 18.3052 11.0413 18.1076 11.0413 17.7124V12.7145H12.4997C13.075 12.7145 13.5413 12.248 13.5413 11.6725C13.5413 11.097 13.075 10.6305 12.4997 10.6305H11.0413V10.0053C11.0413 9.18995 11.0436 8.6832 11.0931 8.31478C11.1378 7.98225 11.2038 7.91656 11.2234 7.89703L11.2244 7.89603L11.2254 7.89502C11.2449 7.87539 11.3106 7.80936 11.643 7.76465C12.0113 7.71512 12.5179 7.71291 13.333 7.71291H14.1663C14.7417 7.71291 15.208 7.2464 15.208 6.67091C15.208 6.09544 14.7417 5.62892 14.1663 5.62892H13.2678Z" fill="#1B6CFC"/>
</svg>
