<svg width="20" height="20" viewBox="0 0 20 20" fill="none" xmlns="http://www.w3.org/2000/svg">
<path d="M2.0835 10.0002C2.0835 6.26821 2.0835 4.40224 3.24286 3.24286C4.40224 2.0835 6.26821 2.0835 10.0002 2.0835C13.7321 2.0835 15.5981 2.0835 16.7575 3.24286C17.9168 4.40224 17.9168 6.26821 17.9168 10.0002C17.9168 13.7321 17.9168 15.5981 16.7575 16.7575C15.5981 17.9168 13.7321 17.9168 10.0002 17.9168C6.26821 17.9168 4.40224 17.9168 3.24286 16.7575C2.0835 15.5981 2.0835 13.7321 2.0835 10.0002Z" stroke="#FB3189" stroke-width="1.5" stroke-linejoin="round"/>
<path d="M14.1668 7.29151C14.512 7.29151 14.7918 7.01168 14.7918 6.66651C14.7918 6.32133 14.512 6.04151 14.1668 6.04151V7.29151ZM9.37516 17.9165C9.37516 18.2617 9.655 18.5415 10.0002 18.5415C10.3453 18.5415 10.6252 18.2617 10.6252 17.9165H9.37516ZM8.3335 11.0415C7.98832 11.0415 7.7085 11.3213 7.7085 11.6665C7.7085 12.0117 7.98832 12.2915 8.3335 12.2915V11.0415ZM12.5002 12.2915C12.8453 12.2915 13.1252 12.0117 13.1252 11.6665C13.1252 11.3213 12.8453 11.0415 12.5002 11.0415V12.2915ZM14.1668 6.04151H13.3335V7.29151H14.1668V6.04151ZM9.37516 9.99984V17.9165H10.6252V9.99984H9.37516ZM13.3335 6.04151C12.5655 6.04151 11.9266 6.04018 11.4214 6.1081C10.8982 6.17844 10.4259 6.33316 10.0464 6.71272L10.9302 7.59661C11.0388 7.48801 11.2034 7.39866 11.588 7.34696C11.9905 7.29283 12.5302 7.29151 13.3335 7.29151V6.04151ZM10.6252 9.99984C10.6252 9.19651 10.6265 8.65684 10.6806 8.25433C10.7323 7.86978 10.8217 7.7052 10.9302 7.59661L10.0464 6.71272C9.66683 7.09228 9.51208 7.56461 9.44175 8.08777C9.37383 8.59292 9.37516 9.23184 9.37516 9.99984H10.6252ZM8.3335 12.2915H12.5002V11.0415H8.3335V12.2915Z" fill="#FB3189"/>
</svg>
