<svg width="20" height="20" viewBox="0 0 20 20" fill="none" xmlns="http://www.w3.org/2000/svg">
<path d="M13.2678 5.62599C12.5381 5.62593 11.8893 5.62587 11.3654 5.69632C10.7961 5.77289 10.2212 5.94947 9.75126 6.41949C9.28134 6.88952 9.10484 7.46462 9.02834 8.03417C8.95793 8.55819 8.95792 9.20719 8.95801 9.93711V10.6275H8.33301C7.75771 10.6275 7.29134 11.0941 7.29134 11.6695C7.29134 12.245 7.75771 12.7115 8.33301 12.7115H8.95801V17.7094C8.95801 18.1047 8.95801 18.3023 8.83409 18.4247C8.71017 18.5471 8.51409 18.5446 8.12192 18.5396C7.13072 18.527 6.2878 18.4923 5.57302 18.3962C4.42582 18.2419 3.5156 17.9193 2.80043 17.2039C2.08527 16.4884 1.76274 15.5779 1.6085 14.4304C1.45799 13.3105 1.458 11.8762 1.45801 10.05V9.95469C1.458 8.12855 1.45799 6.69418 1.6085 5.57432C1.76274 4.42675 2.08527 3.51625 2.80043 2.80086C3.5156 2.08547 4.42582 1.76283 5.57302 1.60855C6.69253 1.45799 8.12646 1.45799 9.95201 1.45801H10.0473C11.8729 1.45799 13.3068 1.45799 14.4263 1.60855C15.5735 1.76283 16.4838 2.08547 17.1989 2.80086C17.9141 3.51625 18.2366 4.42674 18.3908 5.57432C18.5413 6.69418 18.5413 8.12856 18.5413 9.95469V10.05C18.5413 11.8762 18.5413 13.3105 18.3908 14.4304C18.2366 15.5779 17.9141 16.4884 17.1989 17.2039C16.4838 17.9193 15.5735 18.2419 14.4263 18.3962C13.7116 18.4923 12.8686 18.527 11.8774 18.5396C11.4853 18.5446 11.2892 18.5471 11.1653 18.4247C11.0413 18.3023 11.0413 18.1047 11.0413 17.7094V12.7115H12.4997C13.075 12.7115 13.5413 12.245 13.5413 11.6695C13.5413 11.0941 13.075 10.6275 12.4997 10.6275H11.0413V10.0024C11.0413 9.18703 11.0436 8.68027 11.0931 8.31185C11.1378 7.97932 11.2038 7.91363 11.2234 7.8941L11.2244 7.8931L11.2254 7.89209C11.2449 7.87246 11.3106 7.80643 11.643 7.76172C12.0113 7.71219 12.5179 7.70998 13.333 7.70998H14.1663C14.7417 7.70998 15.208 7.24347 15.208 6.66798C15.208 6.09251 14.7417 5.62599 14.1663 5.62599H13.2678Z" fill="#4E2FDA"/>
</svg>
