<svg width="40" height="41" viewBox="0 0 40 41" fill="none" xmlns="http://www.w3.org/2000/svg">
<g clip-path="url(#clip0_9354_4990)">
<mask id="mask0_9354_4990" style="mask-type:luminance" maskUnits="userSpaceOnUse" x="1" y="0" width="40" height="41">
<path d="M39.6364 16.8636H21V24.5909H31.7273C30.7273 29.5 26.5455 32.3182 21 32.3182C14.4545 32.3182 9.18182 27.0455 9.18182 20.5C9.18182 13.9546 14.4545 8.68182 21 8.68182C23.8182 8.68182 26.3636 9.68182 28.3636 11.3182L34.1818 5.5C30.6364 2.40909 26.0909 0.5 21 0.5C9.90909 0.5 1 9.40909 1 20.5C1 31.5909 9.90909 40.5 21 40.5C31 40.5 40.0909 33.2273 40.0909 20.5C40.0909 19.3182 39.9091 18.0455 39.6364 16.8636Z" fill="white"/>
</mask>
<g mask="url(#mask0_9354_4990)">
<path d="M-0.8125 32.3161V8.67969L14.642 20.4979L-0.8125 32.3161Z" fill="#FBBC05"/>
</g>
<mask id="mask1_9354_4990" style="mask-type:luminance" maskUnits="userSpaceOnUse" x="1" y="0" width="40" height="41">
<path d="M39.6364 16.8636H21V24.5909H31.7273C30.7273 29.5 26.5455 32.3182 21 32.3182C14.4545 32.3182 9.18182 27.0455 9.18182 20.5C9.18182 13.9546 14.4545 8.68182 21 8.68182C23.8182 8.68182 26.3636 9.68182 28.3636 11.3182L34.1818 5.5C30.6364 2.40909 26.0909 0.5 21 0.5C9.90909 0.5 1 9.40909 1 20.5C1 31.5909 9.90909 40.5 21 40.5C31 40.5 40.0909 33.2273 40.0909 20.5C40.0909 19.3182 39.9091 18.0455 39.6364 16.8636Z" fill="white"/>
</mask>
<g mask="url(#mask1_9354_4990)">
<path d="M-0.8125 8.67969L14.6421 20.4979L21.0057 14.9524L42.8239 11.407V-1.32031H-0.8125V8.67969Z" fill="#EA4335"/>
</g>
<mask id="mask2_9354_4990" style="mask-type:luminance" maskUnits="userSpaceOnUse" x="1" y="0" width="40" height="41">
<path d="M39.6364 16.8636H21V24.5909H31.7273C30.7273 29.5 26.5455 32.3182 21 32.3182C14.4545 32.3182 9.18182 27.0455 9.18182 20.5C9.18182 13.9546 14.4545 8.68182 21 8.68182C23.8182 8.68182 26.3636 9.68182 28.3636 11.3182L34.1818 5.5C30.6364 2.40909 26.0909 0.5 21 0.5C9.90909 0.5 1 9.40909 1 20.5C1 31.5909 9.90909 40.5 21 40.5C31 40.5 40.0909 33.2273 40.0909 20.5C40.0909 19.3182 39.9091 18.0455 39.6364 16.8636Z" fill="white"/>
</mask>
<g mask="url(#mask2_9354_4990)">
<path d="M-0.8125 32.3161L26.4602 11.407L33.6421 12.3161L42.8239 -1.32031V42.3161H-0.8125V32.3161Z" fill="#34A853"/>
</g>
<mask id="mask3_9354_4990" style="mask-type:luminance" maskUnits="userSpaceOnUse" x="1" y="0" width="40" height="41">
<path d="M39.6364 16.8636H21V24.5909H31.7273C30.7273 29.5 26.5455 32.3182 21 32.3182C14.4545 32.3182 9.18182 27.0455 9.18182 20.5C9.18182 13.9546 14.4545 8.68182 21 8.68182C23.8182 8.68182 26.3636 9.68182 28.3636 11.3182L34.1818 5.5C30.6364 2.40909 26.0909 0.5 21 0.5C9.90909 0.5 1 9.40909 1 20.5C1 31.5909 9.90909 40.5 21 40.5C31 40.5 40.0909 33.2273 40.0909 20.5C40.0909 19.3182 39.9091 18.0455 39.6364 16.8636Z" fill="white"/>
</mask>
<g mask="url(#mask3_9354_4990)">
<path d="M42.8182 42.3161L14.6364 20.4979L11 17.7706L42.8182 8.67969V42.3161Z" fill="#4285F4"/>
</g>
</g>
<defs>
<clipPath id="clip0_9354_4990">
<rect width="40" height="40" fill="white" transform="translate(0 0.5)"/>
</clipPath>
</defs>
</svg>
