<svg width="95" height="115" viewBox="0 0 95 115" fill="none" xmlns="http://www.w3.org/2000/svg">
<path fill-rule="evenodd" clip-rule="evenodd" d="M63.8513 98.4409C59.8568 100.926 54.7884 100.887 50.0878 100.647C45.5869 100.418 41.5531 98.3158 37.2166 97.0823C32.273 95.676 26.2016 96.4971 22.5974 92.8273C19.0238 89.1889 18.7645 83.3281 18.7006 78.2298C18.6428 73.6225 21.3377 69.571 22.2491 65.0561C23.1492 60.5967 21.4527 55.4264 24.0559 51.6994C26.6554 47.9778 32.3255 48.1666 35.9516 45.438C40.3767 42.1081 42.2121 34.9579 47.6563 33.9401C52.8723 32.9649 57.7376 37.3059 61.9202 40.5829C65.6544 43.5087 67.045 48.4447 70.422 51.7772C74.1609 55.4668 80.4404 56.5038 82.8069 61.1943C85.1676 65.8731 85.0452 71.8919 83.0029 76.712C80.9892 81.4646 75.2308 83.256 71.8196 87.1263C68.7311 90.6304 67.8163 95.974 63.8513 98.4409Z" fill="#055346" fill-opacity="0.2"/>
<path d="M35.7095 43.5646C33.4524 42.3551 29.8017 40.186 31.2665 39.1802C32.2145 38.5291 33.9201 40.3518 34.3956 40.9418C35.0225 41.7201 35.4581 42.6143 35.7095 43.5646ZM38.1879 42.9318C38.4183 41.4574 38.8183 40.0182 39.4313 38.6379C39.8034 37.7993 40.3138 36.5504 41.0636 35.978C43.4163 34.1812 44.0049 37.014 43.3332 38.404C42.3803 40.3764 40.1371 41.6 38.1879 42.9318ZM43.2285 13.7208C52.731 16.8887 58.2554 26.4646 57.3953 36.2617C56.4479 47.0534 51.0568 56.8836 49.7122 67.6135C48.5114 67.9549 47.1577 68.3335 45.8235 68.7065L45.7914 68.7156C42.8501 61.1079 40.3431 53.3575 38.2745 45.4625C40.3284 43.6461 42.9953 42.4703 44.6381 40.2331C45.9499 38.4469 46.2773 35.8101 44.5173 34.1559C42.6944 32.4427 40.3375 33.4317 38.9929 35.18C37.8318 36.6888 37.0625 38.5052 36.5696 40.3989C36.2498 39.8995 35.8819 39.426 35.4595 38.9891C34.1617 37.6447 32.0589 36.3888 30.1808 37.3427C28.6156 38.1378 28.5234 40.722 29.5916 41.9701C31.2672 43.9284 33.9774 44.9884 36.1828 46.1832L36.3134 46.2387C38.3708 54.0599 40.8583 61.7407 43.7731 69.2803C42.6658 69.5915 41.6312 69.8837 40.7389 70.1415C35.4442 63.456 28.3922 58.5623 22.6939 52.266C15.6126 44.4405 12.6553 33.9389 17.7294 24.1122C22.3825 15.0997 33.6346 10.5228 43.2285 13.7208ZM53.869 68.5765C54.2907 68.4353 54.815 68.2598 55.1571 68.3244C55.5061 68.3904 55.6967 68.5239 55.9397 69.4602C56.4165 71.2969 56.3355 72.4138 55.6856 72.975C55.2157 73.3803 54.4422 73.5987 53.7594 73.7912L39.483 77.816C39.0152 77.948 38.1439 78.1939 37.7292 78.0028C37.459 77.8785 37.3145 77.469 37.1693 76.8488C36.964 75.9672 36.7511 75.0555 37.0024 74.2555C37.2049 73.6114 37.9135 72.9237 38.648 72.9237H38.6522C38.7694 72.9195 38.8784 72.9069 38.9859 72.8704C40.1741 72.4735 43.3311 71.5905 46.3841 70.7364C49.5977 69.838 52.6333 68.9888 53.869 68.5765ZM56.0863 78.7333C55.6674 79.0466 54.9951 79.2369 54.4017 79.4048L42.0605 82.8958C41.6842 83.0032 40.9009 83.2259 40.5728 83.11C40.5197 83.0917 40.4548 83.0334 40.3521 82.5713C40.1979 81.8773 40.1106 81.3884 40.2977 80.9424C40.4785 80.5111 41.1103 80.011 41.7261 79.9829C41.8197 79.9787 41.9118 79.9618 42.0012 79.933C43.0309 79.5973 45.7586 78.8309 48.3962 78.0899C51.1755 77.3088 53.8013 76.5706 54.8715 76.2222C55.1892 76.119 55.6129 75.9813 55.9048 75.9813L55.9899 75.9855C56.2147 76.0108 56.2559 76.0157 56.3816 76.5088C56.7586 77.9923 56.4437 78.4664 56.0863 78.7333ZM53.5024 85.364C53.9185 87.7943 52.7212 88.7517 50.58 89.4408C48.3152 90.1685 46.5475 90.0413 45.8263 87.4473C45.5219 86.3537 45.3586 85.2966 45.0248 84.2465L52.8127 82.043C52.9858 83.1655 53.3098 84.2366 53.5024 85.364ZM15.6838 45.9465C20.832 56.2044 31.3593 62.1671 38.5656 70.7926L38.4755 70.8214C36.7637 70.9099 35.4197 72.3035 35.0057 73.6205C34.5806 74.9726 34.8857 76.2798 35.1307 77.3306C35.2948 78.0337 35.5999 79.3416 36.86 79.9197C37.2733 80.11 37.7124 80.1789 38.1418 80.1789C38.2137 80.1789 38.2821 80.169 38.3534 80.1655C37.9149 81.2507 38.1404 82.2791 38.308 83.032C38.4183 83.5251 38.6752 84.6799 39.8879 85.1013C40.1874 85.206 40.4974 85.2481 40.8115 85.2481C41.4133 85.2481 42.0319 85.0929 42.6281 84.9243L43.0414 84.8077C43.7849 86.8594 43.6502 89.2891 45.3292 90.9018C46.9371 92.4457 49.2137 92.0909 51.1371 91.4721C52.791 90.9404 54.5469 90.2485 55.3044 88.5445C56.3418 86.2125 55.0523 83.8187 54.8247 81.4741L54.9686 81.4333C55.6981 81.2268 56.6064 80.9705 57.336 80.4247C59.1868 79.0403 58.6024 76.742 58.4104 75.9869C58.3148 75.6104 58.0963 74.7872 57.343 74.2857C58.9117 72.5817 58.2324 69.9532 57.9664 68.9277C57.7849 68.2302 57.3611 66.5986 55.5445 66.2537C54.6691 66.0886 53.8264 66.3703 53.2092 66.5761C52.8965 66.6807 52.4441 66.8198 51.8953 66.9828C53.4696 55.8398 59.4032 45.5482 59.6029 34.1699C59.7669 24.8652 54.1413 16.0613 45.6113 12.3891C36.6624 8.5371 25.5305 11.1697 19.0817 18.4712C12.494 25.93 11.2401 37.0927 15.6838 45.9465Z" fill="#055346"/>
<path d="M8.1431 55.0301C9.81656 53.6526 11.4907 52.2745 13.1649 50.8964C14.2086 50.0374 12.7195 48.5539 11.6841 49.4066C10.0099 50.784 8.33579 52.1621 6.66163 53.5403C5.6179 54.3993 7.10775 55.8828 8.1431 55.0301Z" fill="#055346"/>
<path d="M1.01135 39.2657C3.1421 39.2657 5.27285 39.2657 7.40289 39.2657C8.75102 39.2657 8.75311 37.1585 7.40289 37.1585C5.27285 37.1585 3.1421 37.1585 1.01135 37.1585C-0.33607 37.1585 -0.338165 39.2657 1.01135 39.2657Z" fill="#055346"/>
<path d="M2.76632 21.2081C4.89706 22.1268 7.02711 23.0456 9.15786 23.9643C10.3831 24.4925 11.4513 22.6775 10.2149 22.1444C8.08481 21.2263 5.95406 20.3076 3.82332 19.3888C2.59807 18.8599 1.5299 20.675 2.76632 21.2081Z" fill="#055346"/>
<path d="M17.6743 11.7939C18.674 12.6979 20.1604 11.2123 19.1551 10.3041C17.6317 8.92739 16.1083 7.55137 14.585 6.17466C13.5845 5.27066 12.0989 6.75625 13.1042 7.66446C14.6276 9.04117 16.1509 10.4172 17.6743 11.7939Z" fill="#055346"/>
<path d="M30.097 5.13964C30.2436 6.4728 32.3402 6.48755 32.1915 5.13964C32.0393 3.76152 31.8871 2.38338 31.7349 1.00526C31.5876 -0.327204 29.491 -0.342658 29.6404 1.00526C29.7926 2.38338 29.9448 3.76152 30.097 5.13964Z" fill="#055346"/>
<path d="M48.3699 7.96787C49.1749 6.20975 49.9617 4.44321 50.7667 2.68509C51.3273 1.4622 49.5226 0.390323 48.9585 1.62164C48.1535 3.37976 47.3667 5.14629 46.5617 6.9037C46.0011 8.12729 47.8058 9.19919 48.3699 7.96787Z" fill="#055346"/>
<path d="M64.0153 37.4287C66.2982 37.4287 68.5811 37.4287 70.8641 37.4287C72.2115 37.4287 72.2136 35.3215 70.8641 35.3215C68.5811 35.3215 66.2982 35.3215 64.0153 35.3215C62.6678 35.3215 62.6657 37.4287 64.0153 37.4287Z" fill="#055346"/>
<path d="M63.6536 26.309C65.3348 25.5588 67.0152 24.8087 68.6964 24.0585C69.9258 23.5099 68.8618 21.6935 67.6394 22.2393C65.9582 22.9895 64.2778 23.7396 62.5966 24.4898C61.3672 25.0384 62.4312 26.8548 63.6536 26.309Z" fill="#055346"/>
<path d="M58.1937 15.4684C59.5139 14.4914 60.8341 13.5143 62.1543 12.5365C63.228 11.7414 62.185 9.91167 61.0966 10.7173C59.7771 11.6944 58.4569 12.6721 57.1367 13.6491C56.0622 14.4443 57.106 16.2741 58.1937 15.4684Z" fill="#055346"/>
</svg>
