<svg width="150" height="161" viewBox="0 0 150 161" fill="none" xmlns="http://www.w3.org/2000/svg">
<path fill-rule="evenodd" clip-rule="evenodd" d="M40.3402 114.417C43.3246 118.976 48.6681 121.406 53.7232 123.447C58.5636 125.4 63.8263 125.16 68.9836 125.978C74.8627 126.912 80.8405 130.735 86.4166 128.638C91.9452 126.558 95.0758 120.528 97.6293 115.203C99.9368 110.391 99.0816 104.821 100.326 99.6332C101.555 94.5095 105.859 89.9052 104.942 84.7203C104.026 79.5429 97.977 76.9761 95.4983 72.3411C92.4735 66.6849 94.0324 58.2783 88.8094 54.554C83.8054 50.9858 76.5772 53.1735 70.5851 54.5764C65.2353 55.8289 61.3673 60.3362 56.1943 62.1902C50.4672 64.2428 43.3647 62.2699 38.591 66.0433C33.8293 69.8073 31.0227 76.19 30.8175 82.2497C30.6152 88.2245 35.791 92.9147 37.4871 98.6442C39.0228 103.832 37.3779 109.891 40.3402 114.417Z" fill="#055346" fill-opacity="0.2"/>
<path d="M106.026 39.8901C106.884 39.6372 107.474 38.1594 107.5 37.2412C107.543 35.6893 107.527 35.8693 106.319 35.2063C105.113 34.5435 103.417 34.2848 102.116 33.8716C96.0255 31.9377 89.9346 30.0038 83.8437 28.0699C80.2853 26.9408 76.7279 25.8109 73.1695 24.6818C70.9992 23.9925 68.8305 23.2997 66.6585 22.6147C65.1137 22.1276 63.4998 21.1069 62.8203 23.1148C62.0363 25.4606 62.2334 25.832 64.239 26.647C65.877 27.3128 67.6658 27.7352 69.3505 28.2695C73.2285 29.5009 77.1064 30.7323 80.9845 31.9628C86.3774 33.6752 91.7704 35.3875 97.1642 37.1C99.0122 37.6866 100.861 38.2733 102.71 38.8609C103.253 39.0325 105.463 40.0563 106.026 39.8901ZM62.7603 43.228C63.2932 48.7308 67.8287 50.3229 70.5727 54.3158C72.1191 56.5652 72.6997 59.9309 72.6065 62.5917C72.4285 67.7338 69.0735 72.0663 64.2912 73.9377C60.1042 75.5757 55.7109 73.9327 51.915 76.9261C48.9689 79.2489 47.5058 82.7072 46.5439 86.2904C59.8115 78.5173 76.8372 85.1428 81.6386 99.8248C83.4005 96.2147 84.7815 92.3604 83.8983 88.3177C82.9324 83.8985 79.7072 83.1826 77.2238 79.9934C74.0072 75.8619 74.1831 68.754 76.6706 64.3042C77.9006 62.1045 80.115 59.6236 82.5613 58.7262C86.3746 57.3253 90.4101 58.833 94.0873 56.4431C95.3222 55.6406 96.3287 54.6393 97.1642 53.5066C85.6798 49.4486 74.1963 45.3908 62.7119 41.3328C62.686 41.9584 62.6985 42.5898 62.7603 43.228ZM40.8499 92.763C39.9923 93.0159 39.4009 94.4926 39.3758 95.411C39.3318 96.9636 39.3495 96.7838 40.5566 97.4468C41.7622 98.1086 43.4578 98.3681 44.7596 98.7815C50.8507 100.714 56.9416 102.648 63.0325 104.582C66.5899 105.712 70.1483 106.841 73.7056 107.971C75.876 108.66 78.0455 109.353 80.2175 110.038C81.7623 110.525 83.3762 111.546 84.0557 109.538C84.8388 107.192 84.6426 106.821 82.637 106.006C80.999 105.34 79.2102 104.918 77.5257 104.383C73.6476 103.152 69.7696 101.921 65.8917 100.689C60.4988 98.977 55.1049 97.2645 49.7118 95.553C47.8631 94.9654 46.0151 94.3789 44.1662 93.7922C43.6227 93.6195 41.4118 92.5967 40.8499 92.763ZM45.4208 91.309C52.2738 93.4729 59.1194 95.658 65.9687 97.8325C70.4604 99.2585 74.9518 100.685 79.4435 102.111C75.7402 86.9552 58.0014 80.9598 45.6406 90.2272C45.5661 90.591 45.4931 90.9523 45.4208 91.309ZM66.4877 30.2421C65.1087 32.8882 63.7431 35.6444 63.0929 38.5445C74.9305 42.7267 86.7688 46.91 98.6063 51.0931C100.094 48.0574 100.811 44.5239 101.454 41.343C94.6022 39.1802 87.7568 36.9941 80.9074 34.8196C76.1005 33.294 71.2946 31.7677 66.4877 30.2421ZM93.637 59.7949C88.6272 61.9085 83.5252 59.6576 79.8971 64.423C77.4965 67.5762 77.1255 71.9088 78.2794 75.6287C79.4554 79.4201 82.9989 80.4369 85.0449 83.5593C89.1003 89.7461 86.0647 97.3044 83.0224 103.204C84.3607 103.554 85.9357 103.944 86.8028 104.669C88.7489 106.295 87.2488 108.66 86.5589 110.727C84.9948 115.348 82.0284 113.494 78.2623 112.299C73.3986 110.755 68.534 109.21 63.6695 107.665C56.4277 105.366 49.1858 103.067 41.944 100.768C40.6385 100.354 39.0214 100.011 37.8127 99.3833C35.2792 98.0682 36.0595 96.7223 36.866 94.1854C37.3588 92.635 37.5673 90.3837 39.3009 89.8266C40.2851 89.5098 41.6011 89.965 42.7792 90.41L42.7899 90.3603C42.5466 89.8204 42.5877 89.1403 43.152 88.6574C44.5053 82.5673 46.6701 75.9966 52.6383 73.1171C56.4428 71.2813 60.6933 72.6441 64.4595 70.7125C68.506 68.6372 70.3236 64.7323 69.7127 60.3419C68.9335 54.7413 64.0658 53.1881 61.5263 48.514C58.1045 42.2176 60.8 35.3224 63.7938 29.4324C62.4687 29.0871 60.9265 28.697 60.0723 27.9838C58.1264 26.3569 59.6265 23.992 60.3173 21.9252C61.8812 17.305 64.8467 19.1585 68.613 20.3534C73.4774 21.8985 78.342 23.4427 83.2067 24.9869C90.4485 27.2859 97.6904 29.585 104.932 31.884C106.238 32.2989 107.854 32.6411 109.063 33.2687C111.596 34.5838 110.817 35.9299 110.01 38.4677C109.517 40.0172 109.308 42.2683 107.574 42.8263C106.591 43.1424 105.274 42.6879 104.096 42.243C102.709 48.9911 100.609 56.8523 93.637 59.7949Z" fill="#055346"/>
</svg>
