<svg width="20" height="20" viewBox="0 0 20 20" fill="none" xmlns="http://www.w3.org/2000/svg">
<path d="M2.0835 10.0007C2.0835 6.2687 2.0835 4.40273 3.24286 3.24335C4.40224 2.08398 6.26821 2.08398 10.0002 2.08398C13.7321 2.08398 15.5981 2.08398 16.7575 3.24335C17.9168 4.40273 17.9168 6.2687 17.9168 10.0007C17.9168 13.7326 17.9168 15.5986 16.7575 16.758C15.5981 17.9173 13.7321 17.9173 10.0002 17.9173C6.26821 17.9173 4.40224 17.9173 3.24286 16.758C2.0835 15.5986 2.0835 13.7326 2.0835 10.0007Z" stroke="#FB3189" stroke-width="1.5" stroke-linejoin="round"/>
<path d="M13.75 10C13.75 12.0711 12.0711 13.75 10 13.75C7.92893 13.75 6.25 12.0711 6.25 10C6.25 7.92893 7.92893 6.25 10 6.25C12.0711 6.25 13.75 7.92893 13.75 10Z" stroke="#FB3189" stroke-width="1.5"/>
<path d="M14.59 5.41602H14.5825" stroke="#FB3189" stroke-width="2" stroke-linecap="round" stroke-linejoin="round"/>
</svg>
