<svg width="20" height="20" viewBox="0 0 20 20" fill="none" xmlns="http://www.w3.org/2000/svg">
<path fill-rule="evenodd" clip-rule="evenodd" d="M10.0473 1.45801C11.8729 1.458 13.3068 1.45799 14.4263 1.6085C15.5735 1.76274 16.4838 2.08527 17.1989 2.80043C17.9141 3.5156 18.2366 4.42582 18.3908 5.57302C18.5413 6.69254 18.5413 8.12642 18.5413 9.95201V10.0473C18.5413 11.8729 18.5413 13.3068 18.3908 14.4263C18.2366 15.5735 17.9141 16.4838 17.1989 17.1989C16.4838 17.9141 15.5735 18.2366 14.4263 18.3908C13.3068 18.5413 11.8729 18.5413 10.0473 18.5413H9.95201C8.12642 18.5413 6.69254 18.5413 5.57302 18.3908C4.42582 18.2366 3.5156 17.9141 2.80043 17.1989C2.08527 16.4838 1.76274 15.5735 1.6085 14.4263C1.45799 13.3068 1.458 11.8729 1.45801 10.0473V9.95201C1.458 8.12644 1.45799 6.69254 1.6085 5.57302C1.76274 4.42582 2.08527 3.5156 2.80043 2.80043C3.5156 2.08527 4.42582 1.76274 5.57302 1.6085C6.69253 1.45799 8.12642 1.458 9.95201 1.45801H10.0473ZM13.7497 9.99967C13.7497 12.0708 12.0708 13.7497 9.99967 13.7497C7.92861 13.7497 6.24967 12.0708 6.24967 9.99967C6.24967 7.92861 7.92861 6.24967 9.99967 6.24967C12.0708 6.24967 13.7497 7.92861 13.7497 9.99967ZM14.5941 6.24967C15.0523 6.24967 15.4237 5.87658 15.4237 5.41634C15.4237 4.95611 15.0523 4.58301 14.5941 4.58301H14.5866C14.1284 4.58301 13.757 4.95611 13.757 5.41634C13.757 5.87657 14.1284 6.24967 14.5866 6.24967H14.5941Z" fill="#4E2FDA"/>
</svg>
