<svg width="18" height="18" viewBox="0 0 18 18" fill="none" xmlns="http://www.w3.org/2000/svg">
<path fill-rule="evenodd" clip-rule="evenodd" d="M9.04734 0.460938C10.8729 0.460929 12.3068 0.460921 13.4263 0.611429C14.5735 0.765671 15.4838 1.0882 16.1989 1.80336C16.9141 2.51853 17.2366 3.42875 17.3908 4.57595C17.5413 5.69547 17.5413 7.12935 17.5413 8.95494V9.05027C17.5413 10.8759 17.5413 12.3098 17.3908 13.4293C17.2366 14.5764 16.9141 15.4867 16.1989 16.2019C15.4838 16.917 14.5735 17.2395 13.4263 17.3938C12.3068 17.5443 10.8729 17.5443 9.04734 17.5443H8.95201C7.12642 17.5443 5.69254 17.5443 4.57302 17.3938C3.42582 17.2395 2.5156 16.917 1.80043 16.2019C1.08527 15.4867 0.762741 14.5764 0.6085 13.4293C0.457991 12.3098 0.458 10.8759 0.458008 9.05027V8.95494C0.458 7.12937 0.457991 5.69547 0.6085 4.57595C0.762741 3.42875 1.08527 2.51853 1.80043 1.80336C2.5156 1.0882 3.42582 0.765671 4.57302 0.611429C5.69253 0.460921 7.12642 0.460929 8.95201 0.460938H9.04734ZM12.7497 9.0026C12.7497 11.0737 11.0708 12.7526 8.99967 12.7526C6.92861 12.7526 5.24967 11.0737 5.24967 9.0026C5.24967 6.93154 6.92861 5.2526 8.99967 5.2526C11.0708 5.2526 12.7497 6.93154 12.7497 9.0026ZM13.5941 5.2526C14.0523 5.2526 14.4237 4.87951 14.4237 4.41927C14.4237 3.95904 14.0523 3.58594 13.5941 3.58594H13.5866C13.1284 3.58594 12.757 3.95904 12.757 4.41927C12.757 4.8795 13.1284 5.2526 13.5866 5.2526H13.5941Z" fill="#1B6CFC"/>
</svg>
