<svg width="20" height="20" viewBox="0 0 20 20" fill="none" xmlns="http://www.w3.org/2000/svg">
<path d="M2.08301 9.9987C2.08301 6.26675 2.08301 4.40077 3.24237 3.2414C4.40175 2.08203 6.26772 2.08203 9.99967 2.08203C13.7316 2.08203 15.5976 2.08203 16.757 3.2414C17.9163 4.40077 17.9163 6.26675 17.9163 9.9987C17.9163 13.7306 17.9163 15.5966 16.757 16.756C15.5976 17.9154 13.7316 17.9154 9.99967 17.9154C6.26772 17.9154 4.40175 17.9154 3.24237 16.756C2.08301 15.5966 2.08301 13.7306 2.08301 9.9987Z" stroke="#FF0A54" stroke-width="1.5" stroke-linejoin="round"/>
<path d="M13.75 10C13.75 12.0711 12.0711 13.75 10 13.75C7.92893 13.75 6.25 12.0711 6.25 10C6.25 7.92893 7.92893 6.25 10 6.25C12.0711 6.25 13.75 7.92893 13.75 10Z" stroke="#FF0A54" stroke-width="1.5"/>
<path d="M14.5895 5.41797H14.582" stroke="#FF0A54" stroke-width="2" stroke-linecap="round" stroke-linejoin="round"/>
</svg>
