<svg width="20" height="20" viewBox="0 0 20 20" fill="none" xmlns="http://www.w3.org/2000/svg">
<path fill-rule="evenodd" clip-rule="evenodd" d="M9.95201 1.46094H10.0473C11.8729 1.46093 13.3068 1.46092 14.4263 1.61143C15.5735 1.76567 16.4838 2.0882 17.1989 2.80336C17.9141 3.51853 18.2366 4.42875 18.3908 5.57595C18.5413 6.69547 18.5413 8.12939 18.5413 9.95494V10.0503C18.5413 11.8759 18.5413 13.3098 18.3908 14.4293C18.2366 15.5764 17.9141 16.4867 17.1989 17.2019C16.4838 17.917 15.5735 18.2395 14.4263 18.3938C13.3068 18.5443 11.8729 18.5443 10.0473 18.5443H9.95201C8.12642 18.5443 6.69254 18.5443 5.57302 18.3938C4.42582 18.2395 3.5156 17.917 2.80043 17.2019C2.08527 16.4867 1.76274 15.5764 1.6085 14.4293C1.45799 13.3098 1.458 11.8759 1.45801 10.0503V9.95494C1.458 8.12936 1.45799 6.69547 1.6085 5.57595C1.76274 4.42875 2.08527 3.51853 2.80043 2.80336C3.5156 2.0882 4.42582 1.76567 5.57302 1.61143C6.69253 1.46092 8.12646 1.46093 9.95201 1.46094ZM6.6665 8.7526C6.6665 8.29236 6.29341 7.91927 5.83317 7.91927C5.37293 7.91927 4.99983 8.29236 4.99983 8.7526V14.1693C4.99983 14.6295 5.37293 15.0026 5.83317 15.0026C6.29341 15.0026 6.6665 14.6295 6.6665 14.1693V8.7526ZM9.16651 7.5026C9.50434 7.5026 9.79517 7.7036 9.92601 7.99253C10.4326 7.68177 11.0286 7.5026 11.6665 7.5026C13.5074 7.5026 14.9998 8.99502 14.9998 10.8359V14.1693C14.9998 14.6295 14.6268 15.0026 14.1665 15.0026C13.7063 15.0026 13.3332 14.6295 13.3332 14.1693V10.8359C13.3332 9.91544 12.587 9.16927 11.6665 9.16927C10.746 9.16927 9.99984 9.91544 9.99984 10.8359V14.1693C9.99984 14.6295 9.62676 15.0026 9.16651 15.0026C8.70626 15.0026 8.33318 14.6295 8.33318 14.1693V8.33594C8.33318 7.8757 8.70626 7.5026 9.16651 7.5026ZM6.88135 5.83594C6.88135 6.41124 6.41497 6.8776 5.83968 6.8776H5.83219C5.2569 6.8776 4.79052 6.41124 4.79052 5.83594C4.79052 5.26064 5.2569 4.79427 5.83219 4.79427H5.83968C6.41497 4.79427 6.88135 5.26064 6.88135 5.83594Z" fill="#1B6CFC"/>
</svg>
