<svg width="20" height="20" viewBox="0 0 20 20" fill="none" xmlns="http://www.w3.org/2000/svg">
<path fill-rule="evenodd" clip-rule="evenodd" d="M9.95201 1.45703H10.0473C11.8729 1.45702 13.3068 1.45701 14.4263 1.60752C15.5735 1.76176 16.4838 2.08429 17.1989 2.79946C17.9141 3.51462 18.2366 4.42484 18.3908 5.57205C18.5413 6.69157 18.5413 8.12548 18.5413 9.95103V10.0464C18.5413 11.8719 18.5413 13.3059 18.3908 14.4254C18.2366 15.5725 17.9141 16.4828 17.1989 17.1979C16.4838 17.9131 15.5735 18.2356 14.4263 18.3899C13.3068 18.5404 11.8729 18.5404 10.0473 18.5404H9.95201C8.12642 18.5404 6.69254 18.5404 5.57302 18.3899C4.42582 18.2356 3.5156 17.9131 2.80043 17.1979C2.08527 16.4828 1.76274 15.5725 1.6085 14.4254C1.45799 13.3059 1.458 11.8719 1.45801 10.0464V9.95103C1.458 8.12546 1.45799 6.69157 1.6085 5.57205C1.76274 4.42484 2.08527 3.51462 2.80043 2.79946C3.5156 2.08429 4.42582 1.76176 5.57302 1.60752C6.69253 1.45701 8.12646 1.45702 9.95201 1.45703ZM6.6665 8.7487C6.6665 8.28846 6.29341 7.91536 5.83317 7.91536C5.37293 7.91536 4.99983 8.28846 4.99983 8.7487V14.1654C4.99983 14.6256 5.37293 14.9987 5.83317 14.9987C6.29341 14.9987 6.6665 14.6256 6.6665 14.1654V8.7487ZM9.16651 7.4987C9.50434 7.4987 9.79517 7.6997 9.92601 7.98862C10.4326 7.67786 11.0286 7.4987 11.6665 7.4987C13.5074 7.4987 14.9998 8.99112 14.9998 10.832V14.1654C14.9998 14.6256 14.6268 14.9987 14.1665 14.9987C13.7063 14.9987 13.3332 14.6256 13.3332 14.1654V10.832C13.3332 9.91153 12.587 9.16536 11.6665 9.16536C10.746 9.16536 9.99984 9.91153 9.99984 10.832V14.1654C9.99984 14.6256 9.62676 14.9987 9.16651 14.9987C8.70626 14.9987 8.33318 14.6256 8.33318 14.1654V8.33203C8.33318 7.87179 8.70626 7.4987 9.16651 7.4987ZM6.88135 5.83203C6.88135 6.40733 6.41497 6.8737 5.83968 6.8737H5.83219C5.2569 6.8737 4.79052 6.40733 4.79052 5.83203C4.79052 5.25673 5.2569 4.79036 5.83219 4.79036H5.83968C6.41497 4.79036 6.88135 5.25673 6.88135 5.83203Z" fill="#090B0E"/>
</svg>
