<svg width="20" height="20" viewBox="0 0 20 20" fill="none" xmlns="http://www.w3.org/2000/svg">
<path fill-rule="evenodd" clip-rule="evenodd" d="M9.95201 1.45801H10.0473C11.8729 1.458 13.3068 1.45799 14.4263 1.6085C15.5735 1.76274 16.4838 2.08527 17.1989 2.80043C17.9141 3.5156 18.2366 4.42582 18.3908 5.57302C18.5413 6.69254 18.5413 8.12646 18.5413 9.95201V10.0473C18.5413 11.8729 18.5413 13.3068 18.3908 14.4263C18.2366 15.5735 17.9141 16.4838 17.1989 17.1989C16.4838 17.9141 15.5735 18.2366 14.4263 18.3908C13.3068 18.5413 11.8729 18.5413 10.0473 18.5413H9.95201C8.12642 18.5413 6.69254 18.5413 5.57302 18.3908C4.42582 18.2366 3.5156 17.9141 2.80043 17.1989C2.08527 16.4838 1.76274 15.5735 1.6085 14.4263C1.45799 13.3068 1.458 11.8729 1.45801 10.0473V9.95201C1.458 8.12643 1.45799 6.69254 1.6085 5.57302C1.76274 4.42582 2.08527 3.5156 2.80043 2.80043C3.5156 2.08527 4.42582 1.76274 5.57302 1.6085C6.69253 1.45799 8.12646 1.458 9.95201 1.45801ZM6.6665 8.74967C6.6665 8.28943 6.29341 7.91634 5.83317 7.91634C5.37293 7.91634 4.99983 8.28943 4.99983 8.74967V14.1663C4.99983 14.6266 5.37293 14.9997 5.83317 14.9997C6.29341 14.9997 6.6665 14.6266 6.6665 14.1663V8.74967ZM9.16651 7.49967C9.50434 7.49967 9.79517 7.70067 9.92601 7.9896C10.4326 7.67884 11.0286 7.49967 11.6665 7.49967C13.5074 7.49967 14.9998 8.99209 14.9998 10.833V14.1663C14.9998 14.6266 14.6268 14.9997 14.1665 14.9997C13.7063 14.9997 13.3332 14.6266 13.3332 14.1663V10.833C13.3332 9.91251 12.587 9.16634 11.6665 9.16634C10.746 9.16634 9.99984 9.91251 9.99984 10.833V14.1663C9.99984 14.6266 9.62676 14.9997 9.16651 14.9997C8.70626 14.9997 8.33318 14.6266 8.33318 14.1663V8.33301C8.33318 7.87277 8.70626 7.49967 9.16651 7.49967ZM6.88135 5.83301C6.88135 6.40831 6.41497 6.87467 5.83968 6.87467H5.83219C5.2569 6.87467 4.79052 6.40831 4.79052 5.83301C4.79052 5.25771 5.2569 4.79134 5.83219 4.79134H5.83968C6.41497 4.79134 6.88135 5.25771 6.88135 5.83301Z" fill="#4E2FDA"/>
</svg>
