<svg width="20" height="20" viewBox="0 0 20 20" fill="none" xmlns="http://www.w3.org/2000/svg">
<path d="M5.8335 8.33398V14.1673" stroke="#FB3189" stroke-width="1.5" stroke-linecap="round" stroke-linejoin="round"/>
<path d="M9.1665 10.834V14.1673M9.1665 10.834C9.1665 9.45323 10.2858 8.33398 11.6665 8.33398C13.0473 8.33398 14.1665 9.45323 14.1665 10.834V14.1673M9.1665 10.834V8.33398" stroke="#FB3189" stroke-width="1.5" stroke-linecap="round" stroke-linejoin="round"/>
<path d="M5.84001 5.83398H5.83252" stroke="#FB3189" stroke-width="2" stroke-linecap="round" stroke-linejoin="round"/>
<path d="M2.0835 10.0007C2.0835 6.2687 2.0835 4.40273 3.24286 3.24335C4.40224 2.08398 6.26821 2.08398 10.0002 2.08398C13.7321 2.08398 15.5981 2.08398 16.7575 3.24335C17.9168 4.40273 17.9168 6.2687 17.9168 10.0007C17.9168 13.7326 17.9168 15.5986 16.7575 16.758C15.5981 17.9173 13.7321 17.9173 10.0002 17.9173C6.26821 17.9173 4.40224 17.9173 3.24286 16.758C2.0835 15.5986 2.0835 13.7326 2.0835 10.0007Z" stroke="#FB3189" stroke-width="1.5" stroke-linejoin="round"/>
</svg>
