<svg width="99" height="111" viewBox="0 0 99 111" fill="none" xmlns="http://www.w3.org/2000/svg">
<path d="M56.4883 61.3515C49.3427 62.2577 49.9823 55.7097 46.9843 51.035C43.9885 46.0683 40.6048 44.6162 34.8347 45.3406C29.8118 45.9 25.9212 49.3271 25.7207 54.5082C25.5451 59.109 26.1247 63.3461 25.493 67.6602C21.1258 75.0334 16.195 83.845 26.7012 88.2954C32.6935 90.7651 36.7656 88.7045 41.4154 85.1081C46.2263 81.6584 50.0677 83.8755 55.5801 84.6684C65.2177 86.4566 75.3177 73.4584 69.0465 64.751C65.7508 59.7985 61.6543 60.6433 56.4883 61.3515Z" fill="#C8BFF4"/>
<path d="M46.6557 75.2553C45.6399 77.4641 43.017 78.4213 40.8086 77.4069C38.5985 76.3917 37.6334 73.7864 38.6492 71.5776C39.6642 69.3705 42.2718 68.4043 44.482 69.4195C46.6904 70.4339 47.6707 73.0482 46.6557 75.2553Z" fill="#47586E"/>
<path d="M76.6574 48.9719C74.2849 54.1305 70.0552 57.8493 65.1251 59.6971C60.8219 61.3129 57.1167 64.1635 54.5227 67.8697L39.1194 60.7943C40.2422 56.367 39.9323 51.6613 38.3645 47.2775C36.6232 42.3653 36.714 36.7929 39.07 31.6935C43.6052 21.8322 55.3405 17.1014 65.4358 21.0913C76.563 25.4753 81.5924 38.2413 76.6574 48.9719Z" fill="#4E2FDA"/>
<path d="M67.3954 19.6174C67.0211 19.4455 66.8591 19.0043 67.0303 18.632L68.2166 16.0527C68.3878 15.6804 68.8274 15.5177 69.2017 15.6896C69.5743 15.8607 69.737 16.3002 69.5658 16.6725L68.3796 19.2518C68.2084 19.6241 67.7679 19.7885 67.3954 19.6174Z" fill="#4E2FDA"/>
<path d="M49.3501 18.9278C49.1772 18.8484 49.0338 18.7049 48.9633 18.5107L47.9762 15.8501C47.8354 15.4661 48.0321 15.0385 48.4153 14.8953C48.8004 14.7528 49.2281 14.9493 49.3707 15.3341L50.357 17.9965C50.4995 18.3813 50.3037 18.8071 49.9187 18.9495C49.7253 19.0226 49.523 19.0073 49.3501 18.9278Z" fill="#4E2FDA"/>
<path d="M79.6561 32.8469C79.4832 32.7675 79.3406 32.6222 79.2694 32.4298C79.1268 32.045 79.3234 31.6175 79.7085 31.475L82.3717 30.4911C82.7567 30.3486 83.1827 30.5443 83.3253 30.9291C83.4678 31.3139 83.2712 31.7414 82.8862 31.8839L80.2247 32.8686C80.0322 32.9399 79.829 32.9263 79.6561 32.8469Z" fill="#4E2FDA"/>
<path d="M43.5048 63.0654L49.9535 66.0276C52.2559 60.2844 59.3046 52.8722 63.0842 49.1604C61.6213 49.4356 60.5419 49.2289 59.8199 48.5456C58.9737 47.7426 58.8911 46.5093 59.0197 45.4831C57.1041 46.4609 55.6455 46.6 54.5841 45.8989C53.495 45.1828 53.2034 43.7889 53.163 42.6656C51.8321 43.4847 50.6132 43.7081 49.5299 43.3313C48.7922 43.0766 48.2201 42.5743 47.7832 41.9939C47.4235 47.3155 46.3756 57.579 43.5048 63.0654ZM50.0641 67.7117L42.1521 64.0774C41.9596 63.989 41.8155 63.8235 41.7527 63.6221C41.6899 63.4206 41.7178 63.2004 41.8268 63.0197C45.8163 56.4246 46.4459 39.4421 46.4705 38.722C46.4819 38.3453 46.7772 38.0365 47.1536 38.0066C47.5318 37.9775 47.8694 38.234 47.9422 38.6061C47.9972 38.8903 48.5255 41.4265 50.0175 41.9285C51.1363 42.3172 52.5404 41.4001 53.5188 40.5635C53.7552 40.3593 54.0938 40.3271 54.3684 40.4813C54.6403 40.6364 54.7874 40.9456 54.7343 41.2535C54.6148 41.9451 54.484 44.0556 55.4027 44.6589C56.1427 45.1433 57.6977 44.6774 59.7496 43.3328C60.0203 43.1573 60.3738 43.1772 60.6235 43.3761C60.8733 43.5793 60.967 43.9201 60.8505 44.2204C60.6146 44.8413 60.103 46.7704 60.8422 47.4681C61.152 47.7615 62.2501 48.2702 65.7195 46.7116C66.0517 46.5621 66.4442 46.6755 66.6448 46.9812C66.8453 47.2869 66.7928 47.6922 66.5243 47.9378C66.393 48.0544 53.5599 59.796 51.0784 67.2714C51.0121 67.4718 50.8638 67.6346 50.67 67.7182C50.4761 67.8017 50.2548 67.7993 50.0641 67.7117Z" fill="#F6F8F9"/>
<path d="M52.5312 75.2011C52.242 75.8299 51.7311 76.2836 51.1275 76.5069C50.5281 76.7213 49.8407 76.7184 49.2204 76.4335L36.0807 70.3979C34.8312 69.8239 34.2804 68.3411 34.8588 67.0835C35.1439 66.4636 35.6637 66.0141 36.2601 65.7875C36.8637 65.5642 37.538 65.5719 38.1672 65.8609L51.307 71.8965C52.5565 72.4704 53.1055 73.9525 52.5312 75.2011Z" fill="#A3ADBB"/>
</svg>
