<svg width="99" height="111" viewBox="0 0 99 111" fill="none" xmlns="http://www.w3.org/2000/svg">
<path opacity="0.4" d="M55.6163 60.5451C48.4706 61.4513 49.1103 54.9033 46.1122 50.2286C43.1164 45.2619 39.7327 43.8098 33.9626 44.5342C28.9397 45.0936 25.0491 48.5207 24.8486 53.7018C24.673 58.3026 25.2526 62.5397 24.621 66.8538C20.2537 74.227 15.3229 83.0386 25.8292 87.489C31.8214 89.9587 35.8936 87.8982 40.5433 84.3017C45.3543 80.852 49.1956 83.0691 54.708 83.862C64.3456 85.6502 74.4456 72.652 68.1744 63.9446C64.8787 58.9921 60.7822 59.8369 55.6163 60.5451Z" fill="#82BF15"/>
<path d="M45.7836 74.4479C44.7678 76.6567 42.1449 77.6139 39.9365 76.5995C37.7264 75.5843 36.7613 72.979 37.7771 70.7702C38.7921 68.5632 41.3998 67.5969 43.6099 68.6121C45.8183 69.6265 46.7986 72.2409 45.7836 74.4479Z" fill="#F6F8F9"/>
<path d="M75.7853 48.1645C73.4129 53.3232 69.1832 57.0419 64.253 58.8897C59.9499 60.5055 56.2446 63.3561 53.6507 67.0623L38.2473 59.9869C39.3702 55.5596 39.0602 50.8539 37.4925 46.4702C35.7511 41.5579 35.8419 35.9855 38.1979 30.8861C42.7331 21.0248 54.4685 16.294 64.5637 20.2839C75.691 24.668 80.7203 37.4339 75.7853 48.1645Z" fill="#ADFF1C"/>
<path d="M66.5232 18.8088C66.1489 18.6369 65.9869 18.1957 66.1581 17.8234L67.3444 15.2441C67.5156 14.8718 67.9553 14.7091 68.3296 14.881C68.7021 15.0522 68.8648 15.4916 68.6936 15.8639L67.5074 18.4432C67.3362 18.8155 66.8957 18.9799 66.5232 18.8088Z" fill="#ADFF1C"/>
<path d="M48.4779 18.1192C48.305 18.0398 48.1616 17.8963 48.0911 17.7021L47.104 15.0415C46.9632 14.6575 47.1599 14.23 47.5431 14.0867C47.9282 13.9442 48.3559 14.1407 48.4985 14.5255L49.4848 17.1879C49.6273 17.5728 49.4315 17.9985 49.0465 18.1409C48.8531 18.214 48.6508 18.1987 48.4779 18.1192Z" fill="#ADFF1C"/>
<path d="M78.7839 32.0393C78.611 31.9599 78.4684 31.8146 78.3972 31.6222C78.2546 31.2374 78.4512 30.8099 78.8363 30.6674L81.4995 29.6835C81.8846 29.541 82.3105 29.7367 82.4531 30.1215C82.5956 30.5063 82.399 30.9338 82.014 31.0763L79.3525 32.061C79.16 32.1322 78.9568 32.1187 78.7839 32.0393Z" fill="#ADFF1C"/>
<path d="M42.6328 62.2581L49.0814 65.2202C51.3838 59.477 58.4325 52.0648 62.2122 48.353C60.7492 48.6282 59.6698 48.4215 58.9478 47.7382C58.1016 46.9352 58.019 45.7019 58.1477 44.6758C56.2321 45.6536 54.7734 45.7926 53.712 45.0915C52.6229 44.3755 52.3314 42.9815 52.2909 41.8582C50.96 42.6774 49.7411 42.9007 48.6579 42.524C47.9201 42.2692 47.348 41.7669 46.9111 41.1865C46.5514 46.5081 45.5035 56.7716 42.6328 62.2581ZM49.1921 66.9044L41.28 63.27C41.0875 63.1816 40.9434 63.0162 40.8806 62.8147C40.8178 62.6133 40.8457 62.3931 40.9547 62.2123C44.9442 55.6172 45.5739 38.6347 45.5985 37.9146C45.6098 37.5379 45.9051 37.2291 46.2815 37.1992C46.6598 37.1701 46.9974 37.4266 47.0702 37.7988C47.1251 38.0829 47.6535 40.6192 49.1455 41.1211C50.2642 41.5098 51.6683 40.5927 52.6467 39.7562C52.8831 39.5519 53.2218 39.5197 53.4963 39.6739C53.7682 39.829 53.9153 40.1382 53.8622 40.4461C53.7428 41.1378 53.612 43.2483 54.5306 43.8515C55.2707 44.336 56.8256 43.87 58.8775 42.5255C59.1482 42.3499 59.5018 42.3699 59.7514 42.5687C60.0012 42.7719 60.0949 43.1127 59.9784 43.413C59.7425 44.034 59.231 45.963 59.9701 46.6607C60.28 46.9541 61.378 47.4628 64.8475 45.9042C65.1796 45.7547 65.5722 45.8681 65.7727 46.1738C65.9732 46.4795 65.9207 46.8848 65.6523 47.1304C65.5209 47.247 52.6878 58.9886 50.2063 66.464C50.14 66.6645 49.9918 66.8272 49.7979 66.9108C49.604 66.9944 49.3828 66.992 49.1921 66.9044Z" fill="#090B0E"/>
<path d="M51.6591 74.3938C51.3699 75.0226 50.8591 75.4762 50.2555 75.6995C49.656 75.9139 48.9687 75.911 48.3484 75.6261L35.2086 69.5905C33.9592 69.0166 33.4084 67.5337 33.9867 66.2761C34.2718 65.6562 34.7916 65.2067 35.388 64.9801C35.9916 64.7568 36.666 64.7645 37.2952 65.0535L50.4349 71.0891C51.6844 71.6631 52.2334 73.1451 51.6591 74.3938Z" fill="#090B0E"/>
</svg>
