<svg width="40" height="40" viewBox="0 0 40 40" fill="none" xmlns="http://www.w3.org/2000/svg">
<g clip-path="url(#clip0_9354_2587)">
<path fill-rule="evenodd" clip-rule="evenodd" d="M20.0003 1.99902C13.7224 1.99902 7.7329 5.9988 5.22591 12.3115C2.89275 18.1863 4.15581 23.1859 6.7856 27.467C8.94172 30.9769 12.0864 34.1096 14.9235 36.9357L14.9249 36.9369C15.4654 37.4755 15.9948 38.0029 16.504 38.5195L16.5067 38.5223C17.4501 39.4737 18.7036 39.999 20.0003 39.999C21.2972 39.999 22.5506 39.4737 23.494 38.5221C23.9756 38.0365 24.4749 37.5409 24.9842 37.0354C27.8522 34.1889 31.0411 31.024 33.2197 27.4695C35.8465 23.1839 37.105 18.1791 34.7747 12.3115C32.2677 5.9988 26.2783 1.99902 20.0003 1.99902ZM19.9978 12.1618C16.3731 12.1618 13.4346 15.3271 13.4346 19.2316C13.4346 23.136 16.3731 26.3013 19.9978 26.3013C23.6225 26.3013 26.561 23.136 26.561 19.2316C26.561 15.3271 23.6225 12.1618 19.9978 12.1618Z" fill="white"/>
</g>
<defs>
<clipPath id="clip0_9354_2587">
<rect width="40" height="40" fill="white" transform="translate(0 -0.000976562)"/>
</clipPath>
</defs>
</svg>
