<svg width="24" height="24" viewBox="0 0 24 24" fill="none" xmlns="http://www.w3.org/2000/svg">
<g clip-path="url(#clip0_9354_2734)">
<path fill-rule="evenodd" clip-rule="evenodd" d="M12.0006 1.2002C8.23381 1.2002 4.64013 3.60006 3.13594 7.38767C1.73604 10.9126 2.49388 13.9123 4.07175 16.481C5.36542 18.5869 7.25226 20.4665 8.95449 22.1622L8.9553 22.1629C9.27963 22.4861 9.59725 22.8025 9.90278 23.1125L9.90441 23.1142C10.4705 23.685 11.2225 24.0002 12.0006 24.0002C12.7787 24.0002 13.5307 23.685 14.0968 23.1141C14.3858 22.8227 14.6853 22.5253 14.9909 22.222C16.7117 20.5141 18.625 18.6152 19.9322 16.4825C21.5083 13.9111 22.2634 10.9082 20.8652 7.38767C19.361 3.60006 15.7674 1.2002 12.0006 1.2002ZM11.9991 7.29787C9.82422 7.29787 8.06116 9.19701 8.06116 11.5397C8.06116 13.8824 9.82422 15.7816 11.9991 15.7816C14.1739 15.7816 15.937 13.8824 15.937 11.5397C15.937 9.19701 14.1739 7.29787 11.9991 7.29787Z" fill="#090B0E"/>
</g>
<defs>
<clipPath id="clip0_9354_2734">
<rect width="24" height="24" fill="white"/>
</clipPath>
</defs>
</svg>
