<svg width="30" height="30" viewBox="0 0 30 30" fill="none" xmlns="http://www.w3.org/2000/svg">
<path fill-rule="evenodd" clip-rule="evenodd" d="M15.0002 1.5C10.2918 1.5 5.79968 4.49983 3.91943 9.23434C2.16957 13.6405 3.11686 17.3901 5.0892 20.601C6.70629 23.2334 9.06483 25.5829 11.1926 27.7025L11.1936 27.7034C11.599 28.1073 11.9961 28.5029 12.378 28.8904L12.38 28.8925C13.0876 29.606 14.0277 30 15.0002 30C15.9729 30 16.9129 29.606 17.6205 28.8923C17.9817 28.5281 18.3562 28.1564 18.7382 27.7773C20.8891 25.6424 23.2808 23.2687 24.9148 20.6028C26.8849 17.3887 27.8287 13.635 26.081 9.23434C24.2008 4.49983 19.7087 1.5 15.0002 1.5ZM14.9984 9.12209C12.2798 9.12209 10.076 11.496 10.076 14.4244C10.076 17.3528 12.2798 19.7267 14.9984 19.7267C17.7169 19.7267 19.9208 17.3528 19.9208 14.4244C19.9208 11.496 17.7169 9.12209 14.9984 9.12209Z" fill="#4E2FDA"/>
</svg>
