<svg width="16" height="20" viewBox="0 0 16 20" fill="none" xmlns="http://www.w3.org/2000/svg">
<path d="M0.5 1.96064L3.87268 19.9975L2.70895 7.92516L8.46041 7.53835L8.44971 5.51781L10.7195 0L8.55396 3.67533L0.5 1.96064Z" fill="url(#paint0_linear_12107_25346)"/>
<path d="M9.69725 10.9502L10.7199 0.00390625L8.98775 8.1237L5.10099 8.33735L5.41214 12.5207L3.87305 20L6.26254 11.8428L9.69725 10.9502Z" fill="url(#paint1_linear_12107_25346)"/>
<path d="M10.3732 13.5307L10.4821 11.3936L7.31529 12.1613L7.30894 14.5731L3.87305 19.9975L8.16965 14.3515L10.3732 13.5307ZM10.9502 12.5518L13.8914 11.5846L14.1904 9.02243L11.0395 9.45074L10.9502 12.5518ZM12.2104 8.89383L14.388 8.60413L14.7014 6.50283L13.1002 6.42657L10.7199 0L12.3906 6.33109L12.2104 8.89383Z" fill="url(#paint2_linear_12107_25346)"/>
<path d="M15.2501 6.1941L15.499 4.25045L13.6075 3.69961L10.7188 0L13.5891 4.58761L13.5054 6.01887L15.2501 6.1941Z" fill="url(#paint3_linear_12107_25346)"/>
<defs>
<linearGradient id="paint0_linear_12107_25346" x1="10.7195" y1="1.4284" x2="0.363244" y2="1.61" gradientUnits="userSpaceOnUse">
<stop stop-color="#408BFF"/>
<stop offset="1" stop-color="#0A18A1"/>
</linearGradient>
<linearGradient id="paint1_linear_12107_25346" x1="10.7199" y1="1.43221" x2="3.78025" y2="1.51374" gradientUnits="userSpaceOnUse">
<stop stop-color="#408BFF"/>
<stop offset="1" stop-color="#0A18A1"/>
</linearGradient>
<linearGradient id="paint2_linear_12107_25346" x1="14.7014" y1="1.4284" x2="3.72856" y2="1.63228" gradientUnits="userSpaceOnUse">
<stop stop-color="#408BFF"/>
<stop offset="1" stop-color="#0A18A1"/>
</linearGradient>
<linearGradient id="paint3_linear_12107_25346" x1="15.499" y1="0.442438" x2="10.6567" y2="0.570668" gradientUnits="userSpaceOnUse">
<stop stop-color="#408BFF"/>
<stop offset="1" stop-color="#0A18A1"/>
</linearGradient>
</defs>
</svg>
