<svg width="17" height="20" viewBox="0 0 17 20" fill="none" xmlns="http://www.w3.org/2000/svg">
<path d="M0.772461 1.96088L4.24752 20L3.04846 7.92614L8.97453 7.53928L8.9635 5.51849L11.3022 0L9.07091 3.67579L0.772461 1.96088Z" fill="#FF0A54"/>
<path d="M10.2486 10.9491L11.3022 0.00146484L9.51753 8.12227L5.51278 8.33594L5.83337 12.5198L4.24756 20L6.70959 11.8418L10.2486 10.9491Z" fill="#FF0A54"/>
<path d="M10.9451 13.5324L11.0572 11.395L7.79429 12.1628L7.78776 14.575L4.24756 20L8.6746 14.3533L10.9451 13.5324ZM11.5395 12.5533L14.57 11.586L14.8782 9.02354L11.6316 9.45191L11.5395 12.5533ZM12.838 8.89493L15.0818 8.60519L15.4046 6.50363L13.7549 6.42737L11.3022 0L13.0236 6.33188L12.838 8.89493Z" fill="#FF0A54"/>
<path d="M15.9711 6.19427L16.2275 4.25056L14.2787 3.69971L11.3022 0L14.2597 4.58773L14.1735 6.01904L15.9711 6.19427Z" fill="#FF0A54"/>
</svg>
