<svg width="16" height="20" viewBox="0 0 16 20" fill="none" xmlns="http://www.w3.org/2000/svg">
<path d="M0 1.96088L3.47506 20L2.276 7.92614L8.20207 7.53928L8.19104 5.51849L10.5297 0L8.29845 3.67579L0 1.96088Z" fill="#6455E1"/>
<path d="M9.47659 10.9491L10.5303 0.00146484L8.74556 8.12227L4.7408 8.33594L5.0614 12.5198L3.47559 20L5.93761 11.8418L9.47659 10.9491Z" fill="#6455E1"/>
<path d="M10.1731 13.5324L10.2852 11.395L7.02232 12.1628L7.01579 14.575L3.47559 20L7.90262 14.3533L10.1731 13.5324ZM10.7675 12.5533L13.7981 11.586L14.1062 9.02354L10.8596 9.45191L10.7675 12.5533ZM12.066 8.89493L14.3098 8.60519L14.6326 6.50363L12.9829 6.42737L10.5303 0L12.2517 6.33188L12.066 8.89493Z" fill="#6455E1"/>
<path d="M15.1991 6.19427L15.4556 4.25056L13.5067 3.69971L10.5303 0L13.4877 4.58773L13.4015 6.01904L15.1991 6.19427Z" fill="#6455E1"/>
</svg>
