<svg width="16" height="20" viewBox="0 0 16 20" fill="none" xmlns="http://www.w3.org/2000/svg">
<path d="M0 1.96088L3.47506 20L2.276 7.92614L8.20207 7.53928L8.19104 5.51849L10.5297 0L8.29845 3.67579L0 1.96088Z" fill="#FB3189"/>
<path d="M9.4761 10.9491L10.5298 0.00146484L8.74507 8.12227L4.74032 8.33594L5.06091 12.5198L3.4751 20L5.93713 11.8418L9.4761 10.9491Z" fill="#FB3189"/>
<path d="M10.1726 13.5324L10.2847 11.395L7.02183 12.1628L7.0153 14.575L3.4751 20L7.90213 14.3533L10.1726 13.5324ZM10.767 12.5533L13.7976 11.586L14.1057 9.02354L10.8591 9.45191L10.767 12.5533ZM12.0656 8.89493L14.3093 8.60519L14.6321 6.50363L12.9824 6.42737L10.5298 0L12.2512 6.33188L12.0656 8.89493Z" fill="#FB3189"/>
<path d="M15.1986 6.19427L15.4551 4.25056L13.5062 3.69971L10.5298 0L13.4872 4.58773L13.401 6.01904L15.1986 6.19427Z" fill="#FB3189"/>
</svg>
