<svg width="94" height="120" viewBox="0 0 94 120" fill="none" xmlns="http://www.w3.org/2000/svg">
<path d="M0.600586 11.7652L21.4507 119.999L14.2565 47.5564L49.8125 45.2352L49.7463 33.1106L63.7783 0L50.3908 22.0545L0.600586 11.7652Z" fill="#FF0A54"/>
<path d="M57.4568 65.6968L63.7788 0.0117188L53.0707 48.736L29.0424 50.0181L30.9659 75.1212L21.4512 120.002L36.2232 71.0531L57.4568 65.6968Z" fill="#FF0A54"/>
<path d="M61.6359 81.1933L62.3085 68.3693L42.7314 72.976L42.6922 87.4488L21.4512 119.999L48.0131 86.1189L61.6359 81.1933ZM65.2024 75.3193L83.3854 69.5152L85.2341 54.1407L65.755 56.7109L65.2024 75.3193ZM72.9934 53.369L86.4557 51.6306L88.3927 39.0214L78.4944 38.5638L63.7788 0L74.107 37.9909L72.9934 53.369Z" fill="#FF0A54"/>
<path d="M91.7919 37.1652L93.3307 25.5031L81.6376 22.198L63.7793 0L81.5236 27.5261L81.0066 36.1138L91.7919 37.1652Z" fill="#FF0A54"/>
</svg>
