<svg width="17" height="20" viewBox="0 0 17 20" fill="none" xmlns="http://www.w3.org/2000/svg">
<path d="M0.772461 1.96088L4.24752 20L3.04846 7.92614L8.97453 7.53928L8.9635 5.51849L11.3022 0L9.07091 3.67579L0.772461 1.96088Z" fill="#0A2828"/>
<path d="M10.2491 10.9491L11.3027 0.00146484L9.51802 8.12227L5.51326 8.33594L5.83386 12.5198L4.24805 20L6.71008 11.8418L10.2491 10.9491Z" fill="#0A2828"/>
<path d="M10.9456 13.5324L11.0577 11.395L7.79478 12.1628L7.78825 14.575L4.24805 20L8.67508 14.3533L10.9456 13.5324ZM11.54 12.5533L14.5705 11.586L14.8787 9.02354L11.6321 9.45191L11.54 12.5533ZM12.8385 8.89493L15.0822 8.60519L15.4051 6.50363L13.7554 6.42737L11.3027 0L13.0241 6.33188L12.8385 8.89493Z" fill="#0A2828"/>
<path d="M15.9715 6.19427L16.228 4.25056L14.2791 3.69971L11.3027 0L14.2601 4.58773L14.174 6.01904L15.9715 6.19427Z" fill="#0A2828"/>
</svg>
