<svg width="16" height="21" viewBox="0 0 16 21" fill="none" xmlns="http://www.w3.org/2000/svg">
<path d="M0 2.86323L3.47506 20.9023L2.276 8.82849L8.20207 8.44163L8.19104 6.42083L10.5297 0.902344L8.29845 4.57813L0 2.86323Z" fill="#4E2FDA"/>
<path d="M9.4761 11.8514L10.5298 0.903809L8.74507 9.02461L4.74032 9.23828L5.06091 13.4222L3.4751 20.9024L5.93713 12.7442L9.4761 11.8514Z" fill="#4E2FDA"/>
<path d="M10.1726 14.4347L10.2847 12.2974L7.02183 13.0651L7.0153 15.4773L3.4751 20.9023L7.90213 15.2556L10.1726 14.4347ZM10.767 13.4557L13.7976 12.4883L14.1057 9.92589L10.8591 10.3543L10.767 13.4557ZM12.0656 9.79727L14.3093 9.50754L14.6321 7.40598L12.9824 7.32971L10.5298 0.902344L12.2512 7.23422L12.0656 9.79727Z" fill="#4E2FDA"/>
<path d="M15.1986 7.09661L15.4551 5.1529L13.5062 4.60206L10.5298 0.902344L13.4872 5.49008L13.401 6.92138L15.1986 7.09661Z" fill="#4E2FDA"/>
</svg>
