<svg width="28" height="28" viewBox="0 0 28 28" fill="none" xmlns="http://www.w3.org/2000/svg">
<path d="M5.64658 0.607235C6.35493 0.753635 6.91906 1.22956 7.26954 1.85835L8.38606 3.86141C8.79732 4.59916 9.14341 5.22002 9.36943 5.75974C9.60918 6.33226 9.75158 6.89682 9.68648 7.52104C9.6214 8.14524 9.36557 8.66827 9.01286 9.17901C8.68034 9.66049 8.21361 10.1966 7.65898 10.8336L6.01772 12.7189C5.72361 13.0566 5.57654 13.2256 5.56311 13.4368C5.54967 13.6479 5.6702 13.8281 5.91126 14.1888C7.96573 17.2626 10.7347 20.0325 13.811 22.0888C14.1717 22.3299 14.352 22.4504 14.5631 22.4369C14.7742 22.4235 14.9432 22.2764 15.281 21.9824L17.1663 20.341C17.8033 19.7864 18.3395 19.3196 18.821 18.9871C19.3317 18.6344 19.8547 18.3785 20.479 18.3135C21.1031 18.2484 21.6677 18.3908 22.2402 18.6305C22.7798 18.8565 23.4007 19.2026 24.1383 19.6138L26.1416 20.7304C26.7703 21.0809 27.2463 21.645 27.3927 22.3534C27.5407 23.0691 27.3225 23.7886 26.8405 24.3799C25.0918 26.5253 22.2903 27.8914 19.3512 27.2985C17.5447 26.934 15.7622 26.3269 13.6063 25.0905C9.27462 22.6063 5.39078 18.7203 2.90945 14.3936C1.67305 12.2378 1.0659 10.4553 0.70147 8.6487C0.1086 5.70967 1.47465 2.90807 3.6201 1.15945C4.2114 0.67751 4.93082 0.459297 5.64658 0.607235Z" fill="#4E2FDA"/>
</svg>
