<svg width="24" height="24" viewBox="0 0 24 24" fill="none" xmlns="http://www.w3.org/2000/svg">
<path d="M5.31629 1.28559C5.88297 1.40271 6.33427 1.78345 6.61466 2.28648L7.50787 3.88893C7.83688 4.47913 8.11375 4.97582 8.29457 5.40759C8.48637 5.86561 8.60029 6.31726 8.54821 6.81663C8.49614 7.31599 8.29148 7.73442 8.00931 8.14301C7.7433 8.52819 7.36991 8.95706 6.92621 9.46669L5.6132 10.9749C5.37791 11.2451 5.26026 11.3803 5.24951 11.5492C5.23876 11.7181 5.33518 11.8623 5.52803 12.1508C7.17161 14.6099 9.38675 16.8258 11.8478 18.4708C12.1364 18.6637 12.2806 18.7601 12.4495 18.7493C12.6184 18.7386 12.7536 18.6209 13.0238 18.3857L14.5321 17.0726C15.0417 16.6289 15.4706 16.2555 15.8558 15.9895C16.2644 15.7073 16.6828 15.5026 17.1822 15.4506C17.6815 15.3985 18.1332 15.5124 18.5912 15.7042C19.0229 15.885 19.5196 16.1619 20.1097 16.4908L21.7123 17.3841C22.2153 17.6645 22.5961 18.1158 22.7132 18.6825C22.8316 19.2551 22.657 19.8307 22.2714 20.3037C20.8725 22.02 18.6313 23.1129 16.28 22.6386C14.8348 22.347 13.4088 21.8613 11.6841 20.8722C8.21872 18.8848 5.11165 15.776 3.12658 12.3147C2.13746 10.59 1.65174 9.16403 1.3602 7.71876C0.885904 5.36754 1.97874 3.12626 3.6951 1.72736C4.16814 1.34181 4.74368 1.16724 5.31629 1.28559Z" fill="#090B0E"/>
</svg>
