<svg width="32" height="32" viewBox="0 0 32 32" fill="none" xmlns="http://www.w3.org/2000/svg">
<path d="M17.7333 9.0013C19.0357 9.2554 20.2325 9.89232 21.1708 10.8306C22.1091 11.7688 22.746 12.9656 23 14.268M17.7333 3.66797C20.4391 3.96856 22.9621 5.1802 24.8884 7.10398C26.8145 9.02776 28.0295 11.5493 28.3333 14.2546M23.6667 29.0013C12.2528 29.0013 3 19.7485 3 8.33464C3 7.81968 3.01884 7.30912 3.05585 6.80361C3.09833 6.22346 3.11957 5.9334 3.2716 5.66934C3.39752 5.45065 3.62067 5.24325 3.84797 5.13364C4.12241 5.0013 4.44251 5.0013 5.08268 5.0013H8.83909C9.37744 5.0013 9.64661 5.0013 9.87736 5.0899C10.0812 5.16817 10.2627 5.29529 10.4059 5.4601C10.568 5.64668 10.66 5.89965 10.844 6.40558L12.3988 10.6814C12.6128 11.27 12.7199 11.5643 12.7017 11.8436C12.6857 12.0898 12.6016 12.3267 12.4589 12.528C12.2971 12.7563 12.0286 12.9175 11.4915 13.2397L9.66667 14.3346C11.2692 17.8665 14.1335 20.7345 17.6667 22.3346L18.7616 20.5098C19.0839 19.9726 19.2449 19.7041 19.4732 19.5424C19.6745 19.3997 19.9115 19.3156 20.1577 19.2996C20.4369 19.2814 20.7313 19.3885 21.32 19.6025L25.5957 21.1573C26.1016 21.3413 26.3547 21.4333 26.5412 21.5954C26.706 21.7386 26.8332 21.9201 26.9113 22.124C27 22.3546 27 22.6238 27 23.1622V26.9186C27 27.5588 27 27.8789 26.8676 28.1533C26.758 28.3806 26.5507 28.6038 26.332 28.7297C26.0679 28.8817 25.7779 28.9029 25.1977 28.9454C24.6921 28.9825 24.1816 29.0013 23.6667 29.0013Z" stroke="url(#paint0_linear_12107_25326)" stroke-width="2" stroke-linecap="round" stroke-linejoin="round"/>
<defs>
<linearGradient id="paint0_linear_12107_25326" x1="28.3333" y1="5.4775" x2="2.6833" y2="6.35765" gradientUnits="userSpaceOnUse">
<stop stop-color="#408BFF"/>
<stop offset="1" stop-color="#0A18A1"/>
</linearGradient>
</defs>
</svg>
