<svg width="40" height="40" viewBox="0 0 40 40" fill="none" xmlns="http://www.w3.org/2000/svg">
<path d="M8.86081 2.142C9.80527 2.3372 10.5574 2.97177 11.0248 3.81015L12.5134 6.4809C13.0618 7.46457 13.5232 8.29239 13.8246 9.012C14.1443 9.77537 14.3341 10.5281 14.2473 11.3604C14.1606 12.1927 13.8195 12.8901 13.3492 13.571C12.9058 14.213 12.2835 14.9278 11.544 15.7772L9.35566 18.2909C8.96351 18.7412 8.76742 18.9665 8.74951 19.248C8.73159 19.5295 8.89229 19.7699 9.21371 20.2507C11.953 24.3492 15.6449 28.0424 19.7467 30.784C20.2277 31.1055 20.468 31.2662 20.7495 31.2482C21.031 31.2304 21.2563 31.0342 21.7067 30.6422L24.2205 28.4537C25.0698 27.7142 25.7847 27.0919 26.4267 26.6485C27.1077 26.1782 27.805 25.837 28.6373 25.7504C29.4695 25.6635 30.2223 25.8534 30.9857 26.173C31.7052 26.4744 32.533 26.9359 33.5165 27.484L36.1875 28.9729C37.0258 29.4402 37.6605 30.1924 37.8557 31.1369C38.053 32.0912 37.762 33.0505 37.1193 33.8389C34.7878 36.6994 31.0525 38.5209 27.1337 37.7304C24.725 37.2444 22.3483 36.4349 19.4738 34.7864C13.6982 31.474 8.51974 26.2927 5.21129 20.5239C3.56276 17.6494 2.75322 15.2727 2.26732 12.864C1.47683 8.94525 3.29822 5.20979 6.15882 2.87829C6.94722 2.2357 7.90646 1.94475 8.86081 2.142Z" fill="white"/>
</svg>
