<svg width="42" height="42" viewBox="0 0 42 42" fill="none" xmlns="http://www.w3.org/2000/svg">
<path d="M23.7125 11.375C25.4219 11.7085 26.9927 12.5445 28.2242 13.7759C29.4556 15.0073 30.2916 16.5782 30.625 18.2875M23.7125 4.375C27.2638 4.76952 30.5753 6.3598 33.1035 8.88477C35.6316 11.4097 37.2262 14.7193 37.625 18.27M31.5 37.625C16.5193 37.625 4.375 25.4807 4.375 10.5C4.375 9.82411 4.39973 9.154 4.44831 8.49053C4.50406 7.72908 4.53194 7.34837 4.73148 7.0018C4.89675 6.71477 5.18962 6.44256 5.48796 6.29869C5.84817 6.125 6.26829 6.125 7.10852 6.125H12.0388C12.7454 6.125 13.0987 6.125 13.4015 6.24129C13.6691 6.34401 13.9073 6.51086 14.0952 6.72717C14.308 6.97205 14.4287 7.30408 14.6702 7.96812L16.7109 13.5801C16.9918 14.3527 17.1323 14.739 17.1085 15.1055C17.0875 15.4286 16.9771 15.7396 16.7899 16.0039C16.5775 16.3035 16.225 16.515 15.5201 16.9379L13.125 18.375C15.2283 23.0106 18.9877 26.7748 23.625 28.875L25.0621 26.48C25.4851 25.7749 25.6965 25.4224 25.9961 25.2101C26.2603 25.0229 26.5713 24.9125 26.8945 24.8915C27.261 24.8677 27.6474 25.0082 28.42 25.2891L34.0319 27.3297C34.6959 27.5712 35.028 27.692 35.2728 27.9048C35.4891 28.0927 35.6561 28.3309 35.7586 28.5985C35.875 28.9013 35.875 29.2546 35.875 29.9612V34.8915C35.875 35.7317 35.875 36.1519 35.7012 36.512C35.5574 36.8104 35.2853 37.1033 34.9983 37.2685C34.6516 37.468 34.271 37.4958 33.5095 37.5517C32.8459 37.6003 32.1759 37.625 31.5 37.625Z" stroke="#4D44C5" stroke-width="3" stroke-linecap="round" stroke-linejoin="round"/>
</svg>
