<svg width="80" height="80" viewBox="0 0 80 80" fill="none" xmlns="http://www.w3.org/2000/svg">
<path d="M19.8259 42.4997C16.831 42.4997 14.3337 42.5 12.3511 42.2333C10.2584 41.952 8.36909 41.333 6.85085 39.8147C5.33262 38.2967 4.71372 36.4073 4.43239 34.3147C4.16582 32.332 4.16592 29.8346 4.16602 26.8397V26.493C4.16592 23.4981 4.16582 21.0006 4.43239 19.0181C4.71372 16.9254 5.33262 15.0361 6.85089 13.5178C8.36912 11.9996 10.2584 11.3807 12.3511 11.0994C14.3337 10.8328 16.8311 10.8329 19.8259 10.833H20.1727C23.1676 10.8329 25.665 10.8328 27.6476 11.0994C29.7403 11.3807 31.6296 11.9996 33.1478 13.5178C34.666 15.0361 35.285 16.9254 35.5664 19.0181C35.833 21.0006 35.8327 23.498 35.8327 26.4929V26.8397C35.8327 29.8345 35.833 32.332 35.5664 34.3147C35.285 36.4073 34.666 38.2967 33.1478 39.8147C31.6296 41.333 29.7403 41.952 27.6476 42.2333C25.665 42.5 23.1677 42.4997 20.1728 42.4997H19.8259Z" fill="#4E2FDA"/>
<path fill-rule="evenodd" clip-rule="evenodd" d="M9.31786 66.8251C8.77013 65.0674 9.7509 63.1987 11.5085 62.6511C21.8674 59.4227 29.1669 50.2497 29.1669 39.6244V25.8333C29.1669 23.9924 30.6593 22.5 32.5002 22.5C34.3412 22.5 35.8336 23.9924 35.8336 25.8333V39.6244C35.8336 53.4457 26.3617 65.0051 13.492 69.0157C11.7344 69.5634 9.8656 68.5827 9.31786 66.8251Z" fill="#4E2FDA"/>
<path d="M59.826 42.4997C56.831 42.4997 54.3337 42.5 52.351 42.2333C50.2583 41.952 48.369 41.333 46.851 39.8147C45.3327 38.2967 44.7137 36.4073 44.4323 34.3147C44.1657 32.332 44.166 29.8346 44.166 26.8397V26.493C44.166 23.4981 44.1657 21.0006 44.4323 19.0181C44.7137 16.9254 45.3327 15.0361 46.851 13.5178C48.369 11.9996 50.2583 11.3807 52.351 11.0994C54.3337 10.8328 56.831 10.8329 59.826 10.833H60.1727C63.1677 10.8329 65.665 10.8328 67.6477 11.0994C69.7403 11.3807 71.6297 11.9996 73.1477 13.5178C74.666 15.0361 75.285 16.9254 75.5663 19.0181C75.833 21.0006 75.8327 23.498 75.8327 26.4929V26.8397C75.8327 29.8345 75.833 32.332 75.5663 34.3147C75.285 36.4073 74.666 38.2967 73.1477 39.8147C71.6297 41.333 69.7403 41.952 67.6477 42.2333C65.665 42.5 63.1677 42.4997 60.1727 42.4997H59.826Z" fill="#4E2FDA"/>
<path fill-rule="evenodd" clip-rule="evenodd" d="M49.3178 66.8251C48.7702 65.0674 49.7508 63.1987 51.5085 62.6511C61.8672 59.4227 69.1668 50.2497 69.1668 39.6244V25.8333C69.1668 23.9924 70.6592 22.5 72.5002 22.5C74.3412 22.5 75.8335 23.9924 75.8335 25.8333V39.6244C75.8335 53.4457 66.3615 65.0051 53.4918 69.0157C51.7345 69.5634 49.8655 68.5827 49.3178 66.8251Z" fill="#4E2FDA"/>
</svg>
