<svg width="40" height="36" viewBox="0 0 40 36" fill="none" xmlns="http://www.w3.org/2000/svg">
<path d="M0 31.75V21.75C0 11.0455 4.98219 3.28718 15.1427 0.564677C16.3322 0.245927 17.5 1.14569 17.5 2.3771V5.02515C17.5 5.81085 17.0134 6.51991 16.2745 6.78687C11.1184 8.64937 8.125 12.2145 8.125 18H13.75C15.8211 18 17.5 19.6789 17.5 21.75V31.75C17.5 33.8211 15.8211 35.5 13.75 35.5H3.75C1.67891 35.5 0 33.8211 0 31.75ZM26.25 35.5H36.25C38.3211 35.5 40 33.8211 40 31.75V21.75C40 19.6789 38.3211 18 36.25 18H30.625C30.625 12.2145 33.6184 8.64937 38.7745 6.78687C39.5134 6.51991 40 5.81085 40 5.02515V2.3771C40 1.14569 38.8322 0.245927 37.6427 0.564677C27.4822 3.28718 22.5 11.0455 22.5 21.75V31.75C22.5 33.8211 24.1789 35.5 26.25 35.5Z" fill="#DDFA63"/>
</svg>
