<svg width="40" height="40" viewBox="0 0 40 40" fill="none" xmlns="http://www.w3.org/2000/svg">
<path d="M0 33.75V23.75C0 13.0455 4.98219 5.28718 15.1427 2.56468C16.3322 2.24593 17.5 3.14569 17.5 4.3771V7.02515C17.5 7.81085 17.0134 8.51991 16.2745 8.78687C11.1184 10.6494 8.125 14.2145 8.125 20H13.75C15.8211 20 17.5 21.6789 17.5 23.75V33.75C17.5 35.8211 15.8211 37.5 13.75 37.5H3.75C1.67891 37.5 0 35.8211 0 33.75ZM26.25 37.5H36.25C38.3211 37.5 40 35.8211 40 33.75V23.75C40 21.6789 38.3211 20 36.25 20H30.625C30.625 14.2145 33.6184 10.6494 38.7745 8.78687C39.5134 8.51991 40 7.81085 40 7.02515V4.3771C40 3.14569 38.8322 2.24593 37.6427 2.56468C27.4822 5.28718 22.5 13.0455 22.5 23.75V33.75C22.5 35.8211 24.1789 37.5 26.25 37.5Z" fill="#FF0A54"/>
</svg>
