<svg width="48" height="44" viewBox="0 0 48 44" fill="none" xmlns="http://www.w3.org/2000/svg">
<path d="M41.59 9.05778C42.725 9.05778 43.6448 9.9637 43.6448 11.0799C43.6448 12.1961 42.725 13.1021 41.59 13.1021C40.4549 13.1021 39.5352 12.1961 39.5352 11.0799C39.5352 9.9637 40.4549 9.05778 41.59 9.05778Z" fill="#70F2A4"/>
<path d="M4.0265 1.94238C5.43456 1.94238 6.57532 3.06507 6.57532 4.44983C6.57532 5.83459 5.43456 6.95728 4.0265 6.95728C2.62007 6.95728 1.47852 5.83459 1.47852 4.44983C1.47852 3.06507 2.62007 1.94238 4.0265 1.94238Z" fill="#70F2A4"/>
<path d="M33.3682 31.7858V35.3447C32.4639 35.3447 5.09487 35.3447 2.54688 35.3447V31.7858C4.1085 31.7858 32.2998 31.7858 33.3682 31.7858Z" fill="#FFDD40"/>
<path d="M47.1801 36.8001C47.1801 37.6089 46.5229 38.3369 45.6185 38.3369H42.4953C42.3311 37.1236 41.7559 36.0721 40.7695 35.2633H45.5365C46.5228 35.3442 47.1801 35.9912 47.1801 36.8001Z" fill="#D3DCFB"/>
<path d="M45.6999 35.3447H33.3711C33.3711 34.2932 33.3711 29.2783 33.3711 28.2268H42.6587L44.0562 29.1165C45.1247 29.7636 45.6999 30.9769 45.6999 32.1902C45.6999 33.3226 45.6999 34.1314 45.6999 35.3447Z" fill="#464D58"/>
<path d="M40.6039 22.08L42.5767 28.2273H33.3711V20.1388H37.9739C39.2065 20.1388 40.2749 20.9476 40.6039 22.08Z" fill="#9BD8F9"/>
<path d="M37.9739 43.4348C35.4259 43.4348 33.3711 41.4127 33.3711 38.9052C33.3711 37.5302 34.0284 36.236 35.0968 35.3463C36.8226 33.9712 39.2064 33.9712 40.933 35.3463C44.2204 38.0155 42.3305 43.4348 37.9739 43.4348Z" fill="#464D58"/>
<path d="M37.9718 37.2867C38.8347 37.2867 39.5334 37.975 39.5334 38.8235C39.5334 39.672 38.8347 40.3604 37.9718 40.3604C37.1097 40.3604 36.4102 39.672 36.4102 38.8235C36.4102 37.975 37.1097 37.2867 37.9718 37.2867Z" fill="#33383F"/>
<path d="M35.0952 35.3453C34.1917 36.0733 33.5344 37.1248 33.3695 38.4189C31.3976 38.4189 16.8489 38.4189 14.7941 38.4189C14.63 37.2057 14.0547 36.1542 13.0684 35.3453C13.8906 35.3453 34.3558 35.3453 35.0952 35.3453Z" fill="#D3DCFB"/>
<path d="M33.3698 31.7859H6.08203V28.2269H33.2877C33.3698 29.0358 33.3698 30.977 33.3698 31.7859Z" fill="#FFB530"/>
<path d="M33.3698 28.2273H6.08203V13.1017H33.2877C33.3698 14.7194 33.3698 26.5287 33.3698 28.2273Z" fill="#FFDD40"/>
<path d="M19.4799 3.96282C24.5751 3.96282 28.7667 8.00709 28.7667 13.1029C28.7667 18.1986 24.6571 22.2429 19.4799 22.2429C14.3018 22.2429 10.1914 18.1986 10.1914 13.1029C10.1914 8.00709 14.3831 3.96282 19.4799 3.96282Z" fill="#2A428C"/>
<path d="M19.3148 7.84315C22.2732 7.84315 24.7391 10.2697 24.7391 13.1816C24.7391 16.0935 22.2732 18.52 19.3148 18.52C16.3557 18.52 13.8906 16.0935 13.8906 13.1816C13.8906 10.2697 16.3557 7.84315 19.3148 7.84315Z" fill="#FF4155"/>
<path d="M17.5889 10.8356C18.2462 10.8356 18.8214 11.4018 18.8214 12.0489C18.8214 12.696 18.2462 13.2622 17.5889 13.2622C16.9307 13.2622 16.3555 12.696 16.3555 12.0489C16.3555 11.4018 16.9307 10.8356 17.5889 10.8356Z" fill="#FFDD40"/>
<path d="M14.8775 38.8271C14.8775 41.3346 12.8219 43.3567 10.2747 43.3567C7.72672 43.3567 5.67188 41.3346 5.67188 38.8271C5.67188 37.4521 6.32921 36.1579 7.39764 35.2681C9.1242 33.8931 11.5072 33.8931 13.233 35.2681C14.2194 36.1579 14.8775 37.4521 14.8775 38.8271Z" fill="#464D58"/>
<path d="M10.1905 37.2867C11.0534 37.2867 11.7521 37.975 11.7521 38.8235C11.7521 39.672 11.0534 40.3604 10.1905 40.3604C9.32849 40.3604 8.62891 39.672 8.62891 38.8235C8.62891 37.975 9.32849 37.2867 10.1905 37.2867Z" fill="#33383F"/>
<path d="M7.31477 35.3453C6.41046 36.0733 5.75315 37.1248 5.58821 38.4189H1.97259C1.15034 38.4189 0.410156 37.7719 0.410156 36.8821C0.410156 36.0733 1.06828 35.3453 1.97259 35.3453C3.61546 35.3453 5.83521 35.3453 7.31477 35.3453Z" fill="#D3DCFB"/>
<path d="M6.0813 31.7859H2.46484C2.46484 31.0579 2.46484 14.3955 2.46484 13.1014H6.0813C6.0813 15.6897 6.0813 29.4402 6.0813 31.7859Z" fill="#464D58"/>
<path d="M43.3956 17.1461C43.8043 17.1461 44.1358 17.4721 44.1358 17.8741C44.1358 18.2761 43.8043 18.6021 43.3956 18.6021C42.9878 18.6021 42.6562 18.2761 42.6562 17.8741C42.6562 17.4721 42.9878 17.1461 43.3956 17.1461Z" fill="#081120"/>
<path d="M40.2745 2.02087C40.6832 2.02087 41.0147 2.34684 41.0147 2.74884C41.0147 3.15084 40.6832 3.47681 40.2745 3.47681C39.8667 3.47681 39.5352 3.15084 39.5352 2.74884C39.5352 2.34684 39.8667 2.02087 40.2745 2.02087Z" fill="#081120"/>
<path d="M29.0136 0.00133812C29.4223 0.00133812 29.753 0.327306 29.753 0.729307C29.753 1.13131 29.4223 1.45728 29.0136 1.45728C28.6049 1.45728 28.2734 1.13131 28.2734 0.729307C28.2734 0.327306 28.6049 0.00133812 29.0136 0.00133812Z" fill="#081120"/>
<path d="M20.7121 15.6099C21.2061 15.6099 21.6172 15.2054 21.6172 14.7201C21.6172 14.2348 21.2061 13.8304 20.7121 13.8304C20.2197 13.8304 19.8086 14.2348 19.8086 14.7201C19.8907 15.2054 20.301 15.6099 20.7121 15.6099Z" fill="#081120"/>
<path d="M20.7107 12.2114C21.0403 12.2114 21.2042 11.9688 21.2042 11.7261C21.2042 11.4835 20.9575 11.2408 20.7107 11.2408C20.4655 11.2408 20.2188 11.4835 20.2188 11.7261C20.2188 11.9688 20.4655 12.2114 20.7107 12.2114Z" fill="#081120"/>
<path d="M11.5078 0.00133812C11.9165 0.00133812 12.2471 0.327306 12.2471 0.729307C12.2471 1.13131 11.9165 1.45728 11.5078 1.45728C11.0991 1.45728 10.7676 1.13131 10.7676 0.729307C10.7676 0.327306 11.0991 0.00133812 11.5078 0.00133812Z" fill="#081120"/>
<path d="M3.28626 9.54431C3.69494 9.54431 4.02564 9.87028 4.02564 10.2723C4.02564 10.6743 3.69494 11.0002 3.28626 11.0002C2.87757 11.0002 2.54688 10.6743 2.54688 10.2723C2.54688 9.87028 2.87757 9.54431 3.28626 9.54431Z" fill="#081120"/>
<path d="M36.9054 30.2528H35.8369C35.5907 30.2528 35.3438 30.4954 35.3438 30.7381C35.3438 30.9807 35.5907 31.2234 35.8369 31.2234H36.9054C37.1524 31.2234 37.3986 30.9807 37.3986 30.7381C37.3986 30.4954 37.2336 30.2528 36.9054 30.2528Z" fill="#081120"/>
<path d="M45.699 37.8537H42.9861C42.8219 37.1258 42.4937 36.3978 42.0826 35.8316H45.699C46.2743 35.8316 46.7674 36.3169 46.7674 36.8831C46.6854 37.3684 46.2743 37.8537 45.699 37.8537ZM37.973 42.8688C35.6712 42.8688 33.8634 41.0893 33.8634 38.8244C33.8634 37.6111 34.3565 36.4787 35.425 35.6698C36.9045 34.4565 39.0414 34.4565 40.603 35.6698C41.5894 36.4787 42.1655 37.6111 42.1655 38.8244C42.0826 41.0893 40.1919 42.8688 37.973 42.8688ZM15.2888 37.8537C15.1231 37.1258 14.7948 36.3978 14.3837 35.8316C15.3701 35.8316 32.7949 35.8316 33.8634 35.8316C33.3702 36.3978 33.124 37.1258 32.9598 37.8537H15.2888ZM10.192 42.8688C7.89102 42.8688 6.0824 41.0893 6.0824 38.8244C6.0824 36.5595 7.97309 34.78 10.192 34.78C12.4118 34.78 14.3024 36.5595 14.3024 38.8244C14.3024 41.0893 12.4938 42.8688 10.192 42.8688ZM1.97356 37.8537C1.3975 37.8537 0.904341 37.3684 0.904341 36.8022C0.904341 36.236 1.3975 35.7507 1.97356 35.7507H6.0824C5.58921 36.3169 5.34301 37.0449 5.17889 37.7729H1.97356V37.8537ZM3.0412 32.2725H32.877V34.78H13.3161C11.5074 33.4049 8.95943 33.4049 7.15162 34.78H3.0412V32.2725ZM3.0412 13.5874H5.58918V31.3018H3.0412C3.0412 27.7428 3.0412 17.7936 3.0412 13.5874ZM19.4805 4.44708C24.3287 4.44708 28.1921 8.32969 28.1921 13.0212C28.1921 17.7127 24.2474 21.6762 19.4805 21.6762C14.7136 21.6762 10.7672 17.7936 10.7672 13.1021C10.7672 8.41058 14.6307 4.44708 19.4805 4.44708ZM32.7949 27.7428H6.65765V13.5874H9.78089C10.0279 18.6833 14.3024 22.7277 19.5617 22.7277C24.7398 22.7277 29.0143 18.6833 29.3426 13.5874H32.9598V27.7428H32.7949ZM37.973 20.6246C38.9594 20.6246 39.8637 21.2717 40.1919 22.1615L41.9185 27.6619H33.8634V20.5438H37.973V20.6246ZM6.65765 28.7134H32.877C32.877 29.6032 32.877 30.7356 32.877 31.2209H6.65765V28.7134ZM45.1238 32.2725L41.5073 32.3534C41.2603 32.3534 41.0141 32.596 41.0141 32.8387C41.0141 33.0814 41.2603 33.324 41.5073 33.324H45.1238V34.8609H41.0141C39.2055 33.4858 36.6575 33.4858 34.8497 34.8609H33.7813C33.7813 33.0005 33.7813 31.5445 33.7813 28.7943H42.3296L43.6442 29.6032C44.6306 30.1694 45.1238 31.1401 45.1238 32.2725ZM46.1922 34.8609V32.1916C46.1922 30.8165 45.4528 29.5223 44.3023 28.7134L43.069 27.9045L41.1791 21.9188C40.768 20.5438 39.4525 19.654 38.055 19.654H33.9454V13.1021C33.9454 12.8594 33.6992 12.6167 33.4522 12.6167H29.3426C29.0964 7.52082 24.8227 3.47643 19.5617 3.47643C14.3837 3.47643 10.11 7.52082 9.78089 12.6167H2.54882C2.30182 12.6167 2.05481 12.8594 2.05481 13.1021C2.05481 15.6905 2.05481 33.7285 2.05481 34.8609C0.904315 34.8609 0 35.7507 0 36.8831C0 38.0155 0.904315 38.9053 2.05481 38.9053H5.17805C5.17805 41.6555 7.4799 44.0012 10.3561 44.0012C13.2332 44.0012 15.5342 41.7364 15.5342 38.9053H33.0411C33.0411 41.6555 35.3429 44.0012 38.2191 44.0012C41.0141 44.0012 43.3972 41.7364 43.3972 38.9053H45.946C47.0965 38.9053 48 38.0155 48 36.8831C47.7538 36.3169 47.0965 35.1036 46.1922 34.8609Z" fill="#081120"/>
<path d="M37.9728 39.8741C37.3975 39.8741 36.9044 39.3888 36.9044 38.8226C36.9044 38.2564 37.3975 37.7711 37.9728 37.7711C38.548 37.7711 39.0412 38.2564 39.0412 38.8226C38.9591 39.3888 38.548 39.8741 37.9728 39.8741ZM37.9728 36.8005C36.8215 36.8005 35.918 37.6902 35.918 38.8226C35.918 39.955 36.8215 40.8447 37.9728 40.8447C39.1233 40.8447 40.0276 39.955 40.0276 38.8226C40.0276 37.6902 39.1233 36.8005 37.9728 36.8005Z" fill="#081120"/>
<path d="M10.1927 39.8741C9.61744 39.8741 9.12506 39.3888 9.12506 38.8226C9.12506 38.2564 9.61744 37.7711 10.1927 37.7711C10.7679 37.7711 11.2619 38.2564 11.2619 38.8226C11.2619 39.3888 10.7679 39.8741 10.1927 39.8741ZM10.1927 36.8005C9.04219 36.8005 8.13867 37.6902 8.13867 38.8226C8.13867 39.955 9.04219 40.8447 10.1927 40.8447C11.344 40.8447 12.2475 39.955 12.2475 38.8226C12.2475 37.6902 11.344 36.8005 10.1927 36.8005Z" fill="#081120"/>
<path d="M19.3158 8.41018C22.028 8.41018 24.2477 10.5941 24.2477 13.2633C24.2477 15.9325 22.028 18.1164 19.3158 18.1164C16.6037 18.1164 14.384 15.9325 14.384 13.2633C14.384 10.5941 16.6037 8.41018 19.3158 8.41018ZM14.4669 16.5796C14.878 17.1458 15.3703 17.6311 15.9456 18.0355L15.3704 19.0062C15.2062 19.2488 15.2891 19.5724 15.5345 19.7341C15.7815 19.8959 16.1105 19.815 16.2747 19.5724L16.8499 18.6017C17.5072 18.9253 18.1653 19.0871 18.8227 19.1679V20.3003C18.8227 20.543 19.0696 20.7856 19.3158 20.7856C19.562 20.7856 19.809 20.543 19.809 20.3003V19.0871C20.5484 19.0062 21.2065 18.8444 21.7818 18.5209L22.357 19.4915C22.4391 19.6532 22.6032 19.7341 22.7682 19.7341C22.8502 19.7341 22.9323 19.7341 23.0143 19.6532C23.2613 19.4915 23.3434 19.1679 23.1785 18.9253L22.6032 17.9547C23.1785 17.5502 23.6717 17.0649 24.0828 16.4987L25.0691 17.0649C25.1512 17.1458 25.2341 17.1458 25.3154 17.1458C25.4803 17.1458 25.6452 17.0649 25.7265 16.9031C25.8906 16.6605 25.8094 16.3369 25.5624 16.1752L24.576 15.609C24.9042 14.9619 25.0692 14.3148 25.1512 13.6677H26.3017C26.5487 13.6677 26.7957 13.4251 26.7957 13.1824C26.7957 12.9398 26.5487 12.6971 26.3017 12.6971H25.1512C25.0692 11.9691 24.9042 11.3221 24.576 10.7559L25.5624 10.1897C25.8094 10.0279 25.8906 9.70434 25.7265 9.46169C25.5624 9.21903 25.2341 9.13815 24.9871 9.29992L24.0007 9.86611C23.5896 9.29992 23.0964 8.8146 22.5212 8.41018L23.0964 7.43955C23.2613 7.1969 23.1785 6.87335 22.9323 6.71158C22.6853 6.54981 22.357 6.6307 22.1929 6.87335L21.6176 7.84398C20.9595 7.52044 20.3014 7.35867 19.6449 7.27778V6.14539C19.6449 5.90273 19.3979 5.66007 19.1509 5.66007C18.9047 5.66007 18.6585 5.90273 18.6585 6.14539V7.27778C17.9183 7.35867 17.2611 7.52044 16.6858 7.84398L16.2747 6.95424C16.1105 6.71158 15.7815 6.6307 15.5345 6.79247C15.2891 6.95424 15.2062 7.27778 15.3704 7.52044L15.9456 8.49106C15.3703 8.89549 14.878 9.3808 14.4669 9.947L13.4805 9.3808C13.2335 9.21903 12.9052 9.29992 12.7403 9.54257C12.5762 9.78523 12.6582 10.1088 12.9052 10.2705L13.8916 10.8367C13.5625 11.4838 13.3976 12.1309 13.3164 12.778H12.165C11.9189 12.778 11.6719 13.0206 11.6719 13.2633C11.6719 13.506 11.9189 13.7486 12.165 13.7486H13.3164C13.3976 14.4766 13.5625 15.1237 13.8916 15.6899L12.9052 16.2561C12.7403 16.4178 12.6582 16.6605 12.7403 16.9031C12.9052 17.1458 13.2335 17.2267 13.4805 17.0649L14.4669 16.5796Z" fill="#081120"/>
<path d="M17.589 11.3239C17.9994 11.3239 18.3284 11.6475 18.3284 12.0519C18.3284 12.4563 17.9994 12.7799 17.589 12.7799C17.1779 12.7799 16.8489 12.4563 16.8489 12.0519C16.8489 11.6475 17.1779 11.3239 17.589 11.3239ZM17.589 13.7505C18.5746 13.7505 19.3148 13.0225 19.3148 12.0519C19.3148 11.0813 18.5746 10.3533 17.589 10.3533C16.6027 10.3533 15.8633 11.0813 15.8633 12.0519C15.8633 13.0225 16.6847 13.7505 17.589 13.7505Z" fill="#081120"/>
<path d="M41.591 9.54606C42.4124 9.54606 43.1534 10.1931 43.1534 11.0829C43.1534 11.9726 42.4953 12.6197 41.591 12.6197C40.7695 12.6197 40.0294 11.9726 40.0294 11.0829C40.0294 10.1931 40.6866 9.54606 41.591 9.54606ZM41.591 13.5903C42.9876 13.5903 44.1389 12.4579 44.1389 11.0829C44.1389 9.70783 42.9876 8.57544 41.591 8.57544C40.1935 8.57544 39.043 9.70783 39.043 11.0829C39.043 12.4579 40.1114 13.5903 41.591 13.5903Z" fill="#081120"/>
<path d="M4.02754 2.42399C5.17885 2.42399 6.08235 3.31373 6.08235 4.44613C6.08235 5.57853 5.17885 6.46827 4.02754 6.46827C2.87704 6.46827 1.97352 5.57853 1.97352 4.44613C1.97352 3.31373 2.95991 2.42399 4.02754 2.42399ZM4.02754 7.51978C5.7541 7.51978 7.15157 6.14472 7.15157 4.44613C7.15157 2.74754 5.7541 1.37248 4.02754 1.37248C2.30179 1.37248 0.904297 2.74754 0.904297 4.44613C0.904297 6.14472 2.38467 7.51978 4.02754 7.51978Z" fill="#081120"/>
</svg>
