<svg width="39" height="36" viewBox="0 0 39 36" fill="none" xmlns="http://www.w3.org/2000/svg">
<path d="M10.5683 7.30321C11.0438 6.14705 11.6055 5.07825 12.3837 4.0968C14.1915 1.81541 16.9676 0.348921 19.8449 0.0564919C22.8574 -0.249502 25.8704 0.682043 28.1995 2.62488C30.926 4.89975 32.072 7.84737 32.3881 11.3321C32.8948 11.35 33.4091 11.3798 33.9121 11.4504C35.4059 11.6598 36.8632 12.6309 37.7507 13.8473C38.8293 15.3252 39.1939 17.1178 38.9047 18.9146C38.6371 20.5764 37.8013 22.0549 36.4108 23.0249C35.8998 23.3814 35.3279 23.6635 34.7226 23.8132C33.7258 24.0596 29.4661 24.2071 28.4327 23.9624C28.0546 23.8729 27.99 23.6912 27.7945 23.3863L27.9178 23.2767C28.2846 22.9609 28.6497 22.6538 29.0412 22.3695C30.332 22.7482 33.2185 22.2003 34.9466 22.598C35.3623 22.4759 35.7285 22.3251 36.0829 22.0695C37.3322 21.1694 37.8341 19.8028 38.0797 18.3401C38.07 16.7342 37.6995 15.2775 36.6058 14.0567C35.2153 12.5034 33.5039 12.1904 31.5388 12.0727C31.3294 10.0268 31.0192 8.17886 30.0046 6.36081C28.654 3.94217 26.3507 2.08072 23.6851 1.34883C21.0614 0.628878 18.246 1.00594 15.9029 2.39484C13.3293 3.92046 11.997 6.18883 11.2668 9.04042C11.0487 11.1764 11.2614 13.2462 12.6556 14.9785C13.514 16.0446 14.6158 16.7 15.799 17.3424C15.1603 17.6652 14.5695 18.0428 13.9696 18.434C13.2399 18.0542 12.2334 17.3413 11.3664 17.6267C10.4332 17.9343 9.54352 20.2997 9.068 21.17C9.05885 21.7576 9.12403 22.0147 9.49991 22.4846C9.91134 22.7086 11.1338 23.1617 11.3223 23.5176C10.1418 23.7536 5.64087 23.6782 4.47767 23.4953C3.83414 23.3944 3.22722 23.2181 2.64885 22.9126C1.48295 22.2963 0.650936 21.2497 0.265895 19.9856C-0.180538 18.5197 -0.0728303 16.7863 0.649863 15.431C1.39948 14.0258 2.55839 13.2988 4.01885 12.8225C3.68389 11.3261 3.52826 9.89763 4.31773 8.49734C4.86325 7.53053 5.75451 6.82251 6.82885 6.55341C8.19993 6.20944 9.39274 6.62232 10.5683 7.30321Z" fill="#842394"/>
<path d="M29.0433 22.3708C30.3341 22.7495 33.2206 22.2015 34.9487 22.5992C32.9238 23.4645 30.1047 23.2692 27.9199 23.2779C28.2867 22.9621 28.6518 22.6551 29.0433 22.3708Z" fill="#AD33A0"/>
<path d="M1.09375 18.7015C4.54459 20.5022 5.14773 20.774 9.07192 21.1717C9.06277 21.7593 9.12795 22.0165 9.50383 22.4863C9.47583 22.4966 9.4489 22.5102 9.42036 22.5183C8.12253 22.9008 4.16117 22.5655 3.0319 21.87C1.85738 21.1462 1.37216 19.9993 1.09375 18.7015Z" fill="#AD33A0"/>
<path d="M1.09375 18.6997C1.14868 13.3009 4.50421 14.6725 5.53063 13.3411C5.45739 13.2119 5.38522 13.0828 5.31629 12.951C4.75462 11.8784 4.57422 10.8568 4.97326 9.68544C5.25975 8.8445 5.80312 8.1902 6.61682 7.82941C8.64542 6.92879 9.41067 8.40612 11.0898 8.98122C11.1496 9.00183 11.2104 9.02082 11.2707 9.04035C11.0526 11.1763 11.2653 13.2461 12.6596 14.9785C13.518 16.0445 14.6198 16.6999 15.8029 17.3423C15.1642 17.6651 14.5735 18.0427 13.9735 18.4339C13.2439 18.0541 12.2373 17.3412 11.3703 17.6266C10.4371 17.9342 9.54744 20.2997 9.07192 21.1699C5.14773 20.7722 4.54459 20.5004 1.09375 18.6997Z" fill="#E133A2"/>
<path d="M16.6905 16.9266C16.6953 16.8951 16.7013 16.8636 16.7056 16.8322C16.8171 16.0493 16.5591 15.1459 16.8273 14.4189C17.6938 13.9659 21.2151 13.9833 22.1823 14.2741C22.3428 14.3224 22.3552 14.3365 22.4807 14.4076C22.7322 15.1253 22.6045 16.1659 22.5991 16.9347L24.4414 18.195C24.9794 17.736 25.8723 16.6412 26.6224 16.779C26.9924 16.8468 27.2756 17.1468 27.5417 17.3915C28.182 18.3084 29.8643 20.3842 29.5789 21.5772C29.504 21.8881 29.2509 22.1436 29.0404 22.3704C28.6489 22.6547 28.2838 22.9618 27.917 23.2775L27.7937 23.3871C27.4377 23.9769 27.6467 25.6783 27.6564 26.4031C28.4496 26.8046 29.2843 27.1784 30.0313 27.6602C29.4777 28.8071 28.0893 31.5941 27.1857 32.3917C27.0554 32.5154 26.9396 32.6054 26.7581 32.6467C26.1011 32.7942 24.7758 31.7618 24.1727 31.4422C23.5329 31.9023 22.9083 32.4166 22.1597 32.6808C22.0849 33.4458 22.1915 34.6476 21.8253 35.3078C21.6648 35.5981 21.5194 35.6974 21.2087 35.7896C20.1338 36.1092 17.8801 36.0994 16.9091 35.5178C16.4019 34.8125 16.5074 33.7252 16.4745 32.88C15.5811 32.5219 14.8811 32.2349 14.1934 31.5269C13.6597 31.8188 12.2402 32.7454 11.6478 32.5338C10.9187 32.2739 9.83677 30.0419 9.50719 29.373C9.34402 29.0415 9.00259 28.4268 9.15284 28.0731C9.49534 27.2679 10.5427 26.9098 11.2832 26.5827C11.2762 25.5611 11.2547 24.5384 11.3215 23.5184C11.133 23.1625 9.91054 22.7095 9.49911 22.4854C9.12323 22.0156 9.05805 21.7584 9.0672 21.1709C9.54272 20.3006 10.4324 17.9352 11.3656 17.6275C12.2326 17.3422 13.2391 18.0551 13.9688 18.4348C14.5687 18.0437 15.1595 17.666 15.7982 17.3432L16.6905 16.9266Z" fill="#452B90"/>
<path d="M19.8848 30.2679C21.2974 29.8469 22.1289 29.2512 23.2275 28.2876C23.6895 28.7868 24.2049 29.2805 24.6163 29.8209C23.4854 30.543 22.5241 31.4159 21.3394 32.0822C21.0637 32.9486 20.8763 33.8194 20.7244 34.7157C20.033 34.8214 19.3237 34.8578 18.6376 34.9745L17.8164 35.0054C18.0587 33.2964 19.5294 31.9514 19.8848 30.2679Z" fill="#58359A"/>
<path d="M16.6905 16.9266C16.7363 17.2337 16.7713 17.3904 16.5925 17.659C16.0577 18.4598 14.8552 19.0474 14.0507 19.5481C13.3323 19.1716 12.6231 18.7642 12.0167 18.2162C11.5848 18.9014 10.0726 20.8481 10.3166 21.5658C10.56 22.2836 11.4819 22.5858 12.1023 22.8858C12.1239 24.3322 12.1691 25.7824 12.1659 27.2283L10.0338 28.3888C10.6811 29.5504 11.3527 30.7272 12.0657 31.8486C12.8126 31.3891 13.4874 30.8693 14.1724 30.3203C15.6872 31.7102 17.6948 32.2072 17.8063 34.5532C17.8133 34.704 17.8133 34.8537 17.8122 35.0051L18.6335 34.9742C18.8247 34.9948 19.0002 35.0018 19.1914 34.9866L19.3858 34.9704L19.3976 35.0675C19.123 35.2465 18.8322 35.393 18.5414 35.5433L18.5387 35.6719C19.1742 35.8585 20.6734 35.8357 21.2787 35.5818C22.1032 35.2357 21.6982 33.4079 21.9771 32.6863C22.5097 32.3141 23.3595 31.5415 23.9514 31.3603C24.8157 31.095 25.8319 32.4552 26.6854 32.5458C26.8044 32.4215 26.8933 32.3602 27.0376 32.2723L27.1857 32.3917C27.0554 32.5154 26.9396 32.6054 26.7581 32.6467C26.1011 32.7942 24.7758 31.7618 24.1727 31.4422C23.5329 31.9023 22.9083 32.4166 22.1597 32.6808C22.0849 33.4458 22.1915 34.6476 21.8253 35.3078C21.6648 35.5981 21.5194 35.6974 21.2087 35.7896C20.1338 36.1092 17.8801 36.0994 16.9091 35.5178C16.4019 34.8125 16.5074 33.7252 16.4745 32.88C15.5811 32.5219 14.8811 32.2349 14.1934 31.5269C13.6597 31.8188 12.2402 32.7454 11.6478 32.5338C10.9187 32.2739 9.83677 30.0419 9.50719 29.373C9.34402 29.0415 9.00259 28.4268 9.15284 28.0731C9.49534 27.2679 10.5427 26.9098 11.2832 26.5827C11.2762 25.5611 11.2547 24.5384 11.3215 23.5184C11.133 23.1625 9.91054 22.7095 9.49911 22.4854C9.12323 22.0156 9.05805 21.7584 9.0672 21.1709C9.54272 20.3006 10.4324 17.9352 11.3656 17.6275C12.2326 17.3422 13.2391 18.0551 13.9688 18.4348C14.5687 18.0437 15.1595 17.666 15.7982 17.3432L16.6905 16.9266Z" fill="#2D2F87"/>
<path d="M17.8012 20.8741C19.1529 20.5122 20.4836 20.5133 21.713 21.262C22.8568 21.9581 23.6291 23.1674 23.9258 24.4668C24.1988 25.6625 24.0491 27.0802 23.3501 28.1105C23.3092 28.1702 23.2672 28.2282 23.2257 28.2874C22.1271 29.2509 21.2956 29.8466 19.8831 30.2676C19.2859 30.3148 18.6623 30.2937 18.0802 30.1445C16.918 29.8466 15.9045 29.0887 15.3122 28.0351C14.6288 26.8203 14.5265 25.1743 14.9142 23.8445C15.3962 22.1914 16.4 21.6179 17.8012 20.8741Z" fill="#2D2F87"/>
<path d="M18.9062 21.4934C20.014 21.4511 20.9295 21.7202 21.7642 22.483C22.6059 23.2518 23.111 24.371 23.117 25.5169C23.1223 26.5727 22.7184 27.4776 22.0017 28.2334C21.7954 27.7321 21.7539 27.0854 21.622 26.5542C21.1309 24.5832 20.3592 22.9165 18.9062 21.4934Z" fill="#62C9AF"/>
<path d="M22.0026 28.2325C21.5966 28.7235 20.9293 29.0831 20.3316 29.279C19.4452 29.5693 18.3875 29.4504 17.5695 29.0077C16.598 28.4815 15.9125 27.5478 15.6314 26.479C15.3551 25.4308 15.4558 24.2697 16.0391 23.3425C16.7084 22.2797 17.7338 21.7708 18.9072 21.4925C20.3601 22.9156 21.1318 24.5822 21.623 26.5533C21.7549 27.0844 21.7964 27.7311 22.0026 28.2325Z" fill="#58B1E7"/>
<path d="M17.6055 15.1727L21.8436 15.1863C21.8355 16.0283 21.8415 16.8731 21.8183 17.7145C22.73 18.2061 23.5152 18.766 24.303 19.4404C25.0457 19.0215 25.77 18.4974 26.5325 18.129C27.3441 19.0524 28.0894 20.1527 28.5988 21.2763C27.9817 21.8644 27.364 22.452 26.7641 23.0586C26.7646 24.289 26.7522 25.5212 26.7716 26.7511C27.5186 27.4873 28.0452 27.783 29.0991 27.8573C28.2854 29.1307 27.4415 30.5196 26.4684 31.6714C25.8147 31.0795 25.2013 30.48 24.6143 29.8202C24.2029 29.2799 23.6875 28.7862 23.2255 28.287C23.2669 28.2279 23.3089 28.1698 23.3499 28.1102C24.0489 27.0799 24.1986 25.6622 23.9255 24.4665C23.6288 23.1671 22.8566 21.9578 21.7128 21.2617C20.4833 20.513 19.1526 20.5119 17.801 20.8738C17.6491 18.9776 17.6749 17.0727 17.6055 15.1727Z" fill="#7F53AF"/>
<path d="M11.2688 9.04207C11.999 6.19048 13.3313 3.92212 15.9049 2.3965C18.248 1.00759 21.0634 0.630533 23.6871 1.35048C26.3527 2.08237 28.656 3.94382 30.0066 6.36246C31.0212 8.18052 31.3314 10.0284 31.5408 12.0743C33.5059 12.1921 35.2173 12.5051 36.6078 14.0584C37.7015 15.2791 38.072 16.7358 38.0817 18.3418C37.8361 19.8044 37.3342 21.1711 36.0849 22.0712C35.7305 22.3267 35.3643 22.4775 34.9486 22.5996C33.2205 22.2019 30.334 22.7499 29.0432 22.3712C29.2537 22.1444 29.5068 21.8889 29.5817 21.578C29.8671 20.385 28.1848 18.3092 27.5445 17.3923C27.2784 17.1476 26.9952 16.8476 26.6252 16.7798C25.8751 16.642 24.9822 17.7368 24.4442 18.1958L22.6019 16.9355C22.6073 16.1667 22.735 15.1261 22.4835 14.4083C22.358 14.3373 22.3456 14.3232 22.1851 14.2749C21.2179 13.9841 17.6966 13.9667 16.8301 14.4197C16.5619 15.1467 16.8199 16.0501 16.7084 16.8329C16.7041 16.8644 16.6981 16.8959 16.6933 16.9274L15.801 17.344C14.6178 16.7016 13.516 16.0463 12.6576 14.9802C11.2634 13.2478 11.0507 11.1781 11.2688 9.04207Z" fill="#EE8ACB"/>
</svg>
