<svg width="44" height="44" viewBox="0 0 44 44" fill="none" xmlns="http://www.w3.org/2000/svg">
<path d="M14.1918 19.0483H7.50891C3.60461 19.0483 0.451172 15.9108 0.451172 12.0263C0.451172 8.14172 3.60461 5.0042 7.50891 5.0042C11.4136 5.0042 14.5673 8.14172 14.5673 12.0263C14.5673 14.1927 13.591 16.1349 11.9395 17.4796L14.1918 19.0483Z" fill="#2A428C"/>
<path d="M7.43344 7.99117C9.68601 7.99117 11.4883 9.78404 11.4883 12.0251C11.4883 14.2662 9.68601 16.0591 7.43344 16.0591C5.18094 16.0591 3.37891 14.2662 3.37891 12.0251C3.37891 9.78404 5.18094 7.99117 7.43344 7.99117Z" fill="#FF4155"/>
<path d="M16.8203 35.8562H23.4277V40.5625H16.8203V35.8562Z" fill="#33383F"/>
<path d="M37.9924 3.13986C39.0286 3.13986 39.8688 3.97578 39.8688 5.00743C39.8688 6.03907 39.0286 6.875 37.9924 6.875C36.9555 6.875 36.1152 6.03907 36.1152 5.00743C36.1152 3.97578 36.9555 3.13986 37.9924 3.13986Z" fill="#FFDD40"/>
<path d="M6.08179 30.1773C7.65796 30.1773 8.93544 31.448 8.93544 33.016C8.93544 34.584 7.65796 35.8547 6.08179 35.8547C4.50629 35.8547 3.22852 34.584 3.22852 33.016C3.22852 31.448 4.50629 30.1773 6.08179 30.1773Z" fill="#FFDD40"/>
<path d="M28.6074 31.1485H31.4606V35.8547H28.6074V31.1485Z" fill="#33383F"/>
<path d="M31.3853 11.5763C38.1428 11.5763 43.6243 17.0296 43.6243 23.7529C43.6243 30.4761 38.1428 35.9294 31.3853 35.9294V31.1485C35.5145 31.1485 38.8932 27.7868 38.8932 23.6782C38.8932 19.5695 35.5145 16.2079 31.3853 16.2079H25.7539V11.5016H31.3853V11.5763Z" fill="#464D58"/>
<path d="M23.4276 2.46753V6.875H19.2227V2.46753C19.2227 1.27228 20.1992 0.375849 21.3253 0.375849C22.4517 0.375849 23.4276 1.27228 23.4276 2.46753Z" fill="#D3DCFB"/>
<path d="M23.8765 20.918V25.1013H19.1465V20.918C20.6481 20.918 22.3753 20.918 23.8765 20.918Z" fill="#D3DCFB"/>
<path d="M28.6066 31.1485V35.8547C27.0301 35.8547 17.1184 35.8547 15.4666 35.8547C14.19 35.8547 13.1387 34.8089 13.1387 33.5389C13.1387 32.269 14.19 31.2232 15.4666 31.2232C16.8181 31.1485 27.18 31.1485 28.6066 31.1485Z" fill="#464D58"/>
<path d="M28.082 40.4887C28.8324 40.4887 29.5079 41.0863 29.5079 41.908C29.5079 42.6551 28.9074 43.3274 28.082 43.3274H14.4913C13.7406 43.3274 13.0645 42.7298 13.0645 41.908C13.0645 41.161 13.6655 40.4887 14.4913 40.4887C15.843 40.4887 26.6554 40.4887 28.082 40.4887Z" fill="#464D58"/>
<path d="M17.3438 20.9165V6.87236C18.1695 6.87236 23.6508 6.87236 25.8284 6.87236C25.8284 8.66523 25.8284 19.1983 25.8284 20.9165C22.1489 20.9165 23.5006 20.9165 17.3438 20.9165Z" fill="#464D58"/>
<path d="M8.70946 10.16C9.23512 10.16 9.61055 10.5335 9.61055 11.0564C9.61055 11.5794 9.23512 11.9529 8.70946 11.9529C8.18402 11.9529 7.80859 11.5794 7.80859 11.0564C7.80859 10.6082 8.25884 10.16 8.70946 10.16Z" fill="#FFDD40"/>
<path d="M41.4477 9.7115C41.821 9.7115 42.1231 10.0126 42.1231 10.3838C42.1231 10.7551 41.821 11.0562 41.4477 11.0562C41.0743 11.0562 40.7715 10.7551 40.7715 10.3838C40.7715 10.0126 41.0743 9.7115 41.4477 9.7115Z" fill="#081120"/>
<path d="M40.5453 37.275C40.9187 37.275 41.2208 37.576 41.2208 37.9473C41.2208 38.3186 40.9187 38.6196 40.5453 38.6196C40.172 38.6196 39.8691 38.3186 39.8691 37.9473C39.8691 37.576 40.172 37.275 40.5453 37.275Z" fill="#081120"/>
<path d="M30.7113 19.4971C31.0847 19.4971 31.3875 19.7982 31.3875 20.1695C31.3875 20.5407 31.0847 20.8418 30.7113 20.8418C30.338 20.8418 30.0352 20.5407 30.0352 20.1695C30.0352 19.7982 30.338 19.4971 30.7113 19.4971Z" fill="#081120"/>
<path d="M28.8337 3.13533C29.207 3.13533 29.5091 3.43638 29.5091 3.80765C29.5091 4.17893 29.207 4.47998 28.8337 4.47998C28.4603 4.47998 28.1582 4.17893 28.1582 3.80765C28.1582 3.43638 28.4603 3.13533 28.8337 3.13533Z" fill="#081120"/>
<path d="M12.3888 2.24226C12.7616 2.24226 13.0643 2.54331 13.0643 2.91459C13.0643 3.28586 12.7616 3.58691 12.3888 3.58691C12.0157 3.58691 11.7129 3.28586 11.7129 2.91459C11.7129 2.54331 12.0157 2.24226 12.3888 2.24226Z" fill="#081120"/>
<path d="M9.53497 26.5179C9.90839 26.5179 10.2108 26.8189 10.2108 27.1902C10.2108 27.5615 9.90839 27.8625 9.53497 27.8625C9.16147 27.8625 8.85938 27.5615 8.85938 27.1902C8.85938 26.8189 9.16147 26.5179 9.53497 26.5179Z" fill="#081120"/>
<path d="M6.38285 12.4764C6.75575 12.4764 7.05844 12.7774 7.05844 13.1487C7.05844 13.52 6.75575 13.821 6.38285 13.821C6.00942 13.821 5.70703 13.52 5.70703 13.1487C5.70703 12.7774 6.00942 12.4764 6.38285 12.4764Z" fill="#081120"/>
<path d="M6.38324 11.2056C6.60822 11.2056 6.75875 11.0562 6.75875 10.8321C6.75875 10.6079 6.60822 10.4585 6.38324 10.4585C6.15767 10.4585 6.00781 10.6079 6.00781 10.8321C6.00781 11.0562 6.15767 11.2056 6.38324 11.2056Z" fill="#081120"/>
<path d="M5.33147 40.0399C5.7049 40.0399 6.00766 40.3409 6.00766 40.7122C6.00766 41.0835 5.7049 41.3845 5.33147 41.3845C4.95864 41.3845 4.65625 41.0835 4.65625 40.7122C4.65625 40.3409 4.95864 40.0399 5.33147 40.0399Z" fill="#081120"/>
<path d="M3.00402 20.4686C3.37744 20.4686 3.67983 20.7696 3.67983 21.1409C3.67983 21.5122 3.37744 21.8132 3.00402 21.8132C2.63052 21.8132 2.32812 21.5122 2.32812 21.1409C2.32812 20.7696 2.63052 20.4686 3.00402 20.4686Z" fill="#081120"/>
<path d="M17.3466 40.0407V36.3056H22.9778V40.0407H17.3466ZM29.06 41.9083C29.06 42.4312 28.6094 42.8795 28.0839 42.8795H14.4932C13.9675 42.8795 13.517 42.4312 13.517 41.9083C13.517 41.3854 13.9675 40.9372 14.4932 40.9372H28.0839C28.6094 40.9372 29.06 41.3854 29.06 41.9083ZM13.5921 33.4669C13.5921 32.4211 14.4179 31.5993 15.4694 31.5993H28.1589V35.3345C25.0051 35.3345 17.7968 35.3345 15.4694 35.3345C14.4179 35.3345 13.5921 34.5127 13.5921 33.4669ZM19.2233 28.8353H24.8544V30.7029H19.2233V28.8353ZM39.3461 23.6808C39.3461 21.5891 38.5207 19.5722 37.0191 18.0781C35.5168 16.584 33.4897 15.7623 31.3877 15.7623H26.2068V12.0272H31.3877C37.8445 12.0272 43.1011 17.2564 43.1011 23.6808C43.1011 26.8183 41.8994 29.7317 39.6467 31.8981C37.5446 33.9898 34.7664 35.1851 31.8382 35.3345V31.5993C36.0423 31.3752 39.3461 27.8642 39.3461 23.6808ZM25.3057 20.3939C23.9537 20.3939 22.3773 20.3939 21.1007 20.3939V10.6078C21.1007 10.3837 20.8754 10.1596 20.6501 10.1596C20.4248 10.1596 20.1247 10.3837 20.1247 10.6078V20.3939C19.2987 20.3939 18.6229 20.3939 17.7968 20.3939V7.32088C20.2749 7.32088 22.8275 7.32088 25.3057 7.32088V20.3939ZM23.4283 24.652H19.6739V21.365H23.4283V24.652ZM19.6739 2.46519C19.6739 1.56876 20.4248 0.821732 21.326 0.821732C22.2268 0.821732 22.9778 1.56876 22.9778 2.46519V6.42445H19.6739V2.46519ZM30.9371 35.3345H29.06V31.5993H30.9371V35.3345ZM31.3877 36.3056C34.7664 36.3056 37.9202 34.961 40.3221 32.6452C42.7255 30.2547 44.0014 27.1171 44.0014 23.7555C44.0014 16.8081 38.295 11.1307 31.312 11.1307H26.1311V6.94737C26.1311 6.72326 25.9062 6.49915 25.6805 6.49915H23.8786V2.5399C23.8786 1.12054 22.7527 0 21.326 0C19.8991 0 18.7727 1.12054 18.7727 2.5399V6.49915H17.3466C17.1212 6.49915 16.8959 6.72326 16.8959 6.94737V20.9915C16.8959 21.2156 17.1212 21.4397 17.3466 21.4397H18.7727V25.1749C18.7727 25.399 18.9983 25.6231 19.2233 25.6231H23.8786C24.1042 25.6231 24.3292 25.399 24.3292 25.1749V21.4397H25.7562C25.9811 21.4397 26.2068 21.2156 26.2068 20.9915V16.8081H31.3877C35.2919 16.8081 38.4457 19.9457 38.4457 23.8302C38.4457 27.7148 35.2919 30.8523 31.3877 30.8523H25.7562V28.9847H28.0839C28.3088 28.9847 28.5345 28.7606 28.5345 28.5365C28.5345 28.3124 28.3088 28.0883 28.0839 28.0883H15.92C15.6945 28.0883 15.4694 28.3124 15.4694 28.5365C15.4694 28.7606 15.6945 28.9847 15.92 28.9847H18.2473V30.8523H15.3944C13.8174 30.8523 12.541 32.1222 12.541 33.691C12.541 35.2598 13.8174 36.5297 15.3944 36.5297H16.3703V40.2649H14.4932C13.4419 40.2649 12.6158 41.0866 12.6158 42.1324C12.6158 43.1783 13.4419 44 14.4932 44H28.0839C29.1349 44 29.9603 43.1783 29.9603 42.1324C29.9603 41.0866 29.1349 40.2649 28.0839 40.2649H23.8786V36.5297H31.3877V36.3056Z" fill="#081120"/>
<path d="M3.82928 12.0257C3.82928 10.0834 5.40566 8.43997 7.43319 8.43997C9.38567 8.43997 11.0375 10.0087 11.0375 12.0257C11.0375 13.968 9.46049 15.6114 7.43319 15.6114C5.48108 15.6114 3.82928 13.968 3.82928 12.0257ZM7.88381 17.2549V16.5079C8.33406 16.4332 8.86002 16.3585 9.23522 16.1344L9.61065 16.8067C9.76118 17.0308 10.0613 17.1055 10.2865 16.9561C10.5115 16.8067 10.5866 16.5079 10.4364 16.2838L10.0613 15.6114C10.4364 15.3126 10.8122 15.0138 11.0375 14.6403L11.713 15.0138C11.9386 15.1632 12.2387 15.0885 12.3889 14.8644C12.539 14.6403 12.464 14.3415 12.2387 14.1921L11.5631 13.8186C11.7881 13.3704 11.8632 12.9221 11.9386 12.4739H12.689C12.9145 12.4739 13.1395 12.2498 13.1395 12.0257C13.1395 11.8016 12.9145 11.5775 12.689 11.5775H11.9386C11.8632 11.1293 11.7881 10.6064 11.5631 10.2328L12.2387 9.85932C12.464 9.70992 12.539 9.4111 12.3889 9.187C12.2387 8.96289 11.9386 8.88818 11.713 9.03759L11.1126 9.3364C10.8122 8.96289 10.5115 8.58937 10.1363 8.36526L10.5115 7.69294C10.662 7.46883 10.5866 7.17002 10.3616 7.02061C10.1363 6.87121 9.83592 6.94591 9.68577 7.17002L9.31056 7.84234C8.86002 7.61823 8.40917 7.54353 7.95885 7.46883V6.7218C7.95885 6.49769 7.73358 6.27358 7.50801 6.27358C7.28303 6.27358 7.05776 6.49769 7.05776 6.7218V7.46883C6.60714 7.54353 6.08149 7.61823 5.70635 7.84234L5.25573 7.24472C5.10557 7.02061 4.80519 6.94591 4.58021 7.09531C4.35464 7.24472 4.27982 7.54353 4.42968 7.76764L4.80519 8.43997C4.42968 8.73878 4.05426 9.03759 3.82928 9.4111L3.15309 9.03759C2.92811 8.88818 2.62773 8.96289 2.47787 9.187C2.32734 9.4111 2.40275 9.70992 2.62773 9.85932L3.30362 10.2328C3.07827 10.6811 3.00323 11.1293 2.92812 11.5775H2.17718C1.95191 11.5775 1.72656 11.8016 1.72656 12.0257C1.72656 12.2498 1.95191 12.4739 2.17718 12.4739H2.92812C3.00323 12.9221 3.07827 13.4451 3.30362 13.8186L2.62773 14.1921C2.40275 14.3415 2.32734 14.6403 2.47787 14.8644C2.62773 15.0885 2.92811 15.1632 3.15309 15.0138L3.82928 14.6403C4.12937 15.0138 4.42968 15.3873 4.80519 15.6114L4.42968 16.2838C4.27982 16.5079 4.35464 16.8067 4.58021 16.9561C4.80519 17.1055 5.10557 17.0308 5.25573 16.8067L5.63124 16.1344C6.08148 16.3585 6.5321 16.4332 6.98265 16.5079V17.2549C6.98265 17.479 7.20792 17.7031 7.43319 17.7031C7.73358 17.7031 7.88381 17.479 7.88381 17.2549Z" fill="#081120"/>
<path d="M8.71079 11.5794C8.48574 11.5794 8.26017 11.3553 8.26017 11.1312C8.26017 10.9071 8.48574 10.683 8.71079 10.683C8.93636 10.683 9.16133 10.9071 9.16133 11.1312C9.16133 11.3553 9.0111 11.5794 8.71079 11.5794ZM8.71079 9.71182C7.96008 9.71182 7.35938 10.3094 7.35938 11.0565C7.35938 11.8035 7.96008 12.4011 8.71079 12.4011C9.46172 12.4011 10.0625 11.8035 10.0625 11.0565C10.1375 10.3094 9.46172 9.71182 8.71079 9.71182Z" fill="#081120"/>
<path d="M0.901086 12.0263C0.901086 8.44056 3.82955 5.45244 7.50828 5.45244C11.1876 5.45244 14.1161 8.36586 14.1161 12.0263C14.1161 13.9686 13.2152 15.8361 11.7133 17.1061C11.4883 17.3302 11.4883 17.7037 11.7133 17.8531L12.7644 18.6002H7.58399C3.82955 18.5254 0.901086 15.612 0.901086 12.0263ZM14.1911 19.4966C14.4162 19.4966 14.6417 19.2725 14.6417 19.0484C14.6417 18.899 14.5666 18.7496 14.4162 18.6749L12.6893 17.4796C14.1911 16.0603 15.0172 14.118 15.0172 12.101C15.0172 7.99234 11.6382 4.63071 7.50828 4.63071C3.37893 4.63071 0 7.99234 0 12.101C0 16.2097 3.37893 19.5713 7.50828 19.5713C8.10936 19.4966 13.4402 19.4966 14.1911 19.4966Z" fill="#081120"/>
<path d="M37.9925 3.58444C38.7429 3.58444 39.4184 4.18206 39.4184 5.00379C39.4184 5.82552 38.8179 6.42315 37.9925 6.42315C37.2413 6.42315 36.5659 5.82552 36.5659 5.00379C36.5659 4.18206 37.1664 3.58444 37.9925 3.58444ZM37.9925 7.31958C39.2684 7.31958 40.3195 6.27374 40.3195 5.00379C40.3195 3.73384 39.2684 2.688 37.9925 2.688C36.7158 2.688 35.6641 3.73384 35.6641 5.00379C35.6641 6.27374 36.6409 7.31958 37.9925 7.31958Z" fill="#081120"/>
<path d="M6.08282 35.3355C4.80652 35.3355 3.7555 34.2897 3.7555 33.0197C3.7555 31.7498 4.80652 30.7039 6.08282 30.7039C7.35949 30.7039 8.41051 31.7498 8.41051 33.0197C8.41051 34.2897 7.35949 35.3355 6.08282 35.3355ZM6.08282 29.7328C4.28116 29.7328 2.7793 31.2268 2.7793 33.0197C2.7793 34.8126 4.28116 36.3066 6.08282 36.3066C7.88515 36.3066 9.38702 34.8126 9.38702 33.0197C9.38702 31.2268 7.88515 29.7328 6.08282 29.7328Z" fill="#081120"/>
</svg>
