<svg width="48" height="42" viewBox="0 0 48 42" fill="none" xmlns="http://www.w3.org/2000/svg">
<path d="M37.744 16.443L44.2072 25.4736H4.39453L10.3407 16.443H37.744Z" fill="#2A428C"/>
<path d="M44.2072 38.2516H4.39453C4.39453 37.4848 4.39453 26.1539 4.39453 25.4724H44.2941C44.2072 26.2391 44.2072 37.57 44.2072 38.2516Z" fill="#1C2E7A"/>
<path d="M43.6891 2.55402C45.783 2.55402 47.4808 4.23235 47.4808 6.30258C47.4808 8.37196 45.783 10.0511 43.6891 10.0511C41.5951 10.0511 39.8965 8.37196 39.8965 6.30258C39.8965 4.23235 41.5951 2.55402 43.6891 2.55402Z" fill="#FFDD40"/>
<path d="M3.27305 12.6952C4.74851 12.6952 5.94456 13.8777 5.94456 15.3363C5.94456 16.7948 4.74851 17.9773 3.27305 17.9773C1.79759 17.9773 0.601562 16.7948 0.601562 15.3363C0.601562 13.8777 1.79759 12.6952 3.27305 12.6952Z" fill="#FFDD40"/>
<path d="M24.3013 28.1137C30.25 28.1137 35.0725 29.792 35.0725 31.8623C35.0725 33.9325 30.25 35.6108 24.3013 35.6108C18.3518 35.6108 13.5293 33.9325 13.5293 31.8623C13.5293 29.792 18.3518 28.1137 24.3013 28.1137Z" fill="#70F2A4"/>
<path d="M4.39453 38.2526H44.2941V41.49H4.39453V38.2526Z" fill="#2A428C"/>
<path d="M15.166 21.2157C15.166 18.5747 15.166 10.0552 15.166 7.32897H32.9184C32.9184 9.97001 32.9184 18.4895 32.9184 21.2157C31.2802 21.2157 17.4065 21.2157 15.166 21.2157Z" fill="#E9EFFF"/>
<path d="M46.9647 36.7181C47.3932 36.7181 47.7407 37.0606 47.7407 37.4848C47.7407 37.9074 47.3932 38.2516 46.9647 38.2516C46.5362 38.2516 46.1895 37.9074 46.1895 37.4848C46.1895 37.0606 46.5362 36.7181 46.9647 36.7181Z" fill="#081120"/>
<path d="M46.1042 15.9321C46.5327 15.9321 46.8803 16.2754 46.8803 16.6988C46.8803 17.1222 46.5327 17.4656 46.1042 17.4656C45.6757 17.4656 45.3281 17.1222 45.3281 16.6988C45.3281 16.2754 45.6757 15.9321 46.1042 15.9321Z" fill="#081120"/>
<path d="M35.3318 0.00165272C35.7603 0.00165272 36.1071 0.344987 36.1071 0.768404C36.1071 1.19182 35.7603 1.53516 35.3318 1.53516C34.9033 1.53516 34.5566 1.19182 34.5566 0.768404C34.5566 0.344987 34.9033 0.00165272 35.3318 0.00165272Z" fill="#081120"/>
<path d="M4.13655 3.66205C4.56505 3.66205 4.91262 4.00539 4.91262 4.4288C4.91262 4.85222 4.56505 5.19556 4.13655 5.19556C3.7089 5.19556 3.36133 4.85222 3.36133 4.4288C3.36133 4.00539 3.7089 3.66205 4.13655 3.66205Z" fill="#081120"/>
<path d="M1.46355 37.7415C1.8912 37.7415 2.23877 38.0849 2.23877 38.5083C2.23877 38.9317 1.8912 39.275 1.46355 39.275C1.03506 39.275 0.6875 38.9317 0.6875 38.5083C0.6875 38.0849 1.03506 37.7415 1.46355 37.7415Z" fill="#081120"/>
<path d="M43.69 40.8941H4.91062V38.7641H43.69V40.8941ZM10.5978 16.9525H14.6485V20.7013H14.1314C13.8733 20.7013 13.6143 20.9569 13.6143 21.2125C13.6143 21.4682 13.8733 21.7238 14.1314 21.7238C14.8206 21.7238 33.2621 21.7238 34.0381 21.7238C34.2963 21.7238 34.5552 21.4682 34.5552 21.2125C34.5552 20.9569 34.2963 20.7013 34.0381 20.7013H33.521V16.9525H37.5709L43.2589 24.9614H5.3408L10.5978 16.9525ZM15.6827 7.92112H32.4008V20.7013H28.6082V13.2036C28.6082 12.948 28.3501 12.6924 28.092 12.6924C27.833 12.6924 27.5749 12.948 27.5749 13.2036V20.7013H15.6827V7.92112ZM4.91062 34.504H9.21942C9.47754 34.504 9.73652 34.2484 9.73652 33.9928C9.73652 33.7372 9.47754 33.4816 9.21942 33.4816H4.91062V25.9838H43.69V28.6251H38.864C38.6051 28.6251 38.3461 28.8807 38.3461 29.1363C38.3461 29.3919 38.6051 29.6475 38.864 29.6475H43.69V37.6564H4.91062V34.504ZM44.7233 25.3022C44.7233 25.217 45.1543 25.8134 38.174 16.1857C38.088 16.0153 37.9159 15.9301 37.743 15.9301H33.435V7.40991C33.435 7.1543 33.176 6.8987 32.9179 6.8987H15.1656C14.9066 6.8987 14.6485 7.1543 14.6485 7.40991V15.9301H10.3397C10.1676 15.9301 9.99464 16.0153 9.9086 16.1857C3.70434 25.643 3.96246 25.217 3.96246 25.3022V25.3874V25.4726C3.96246 27.2619 3.96246 39.8717 3.96246 41.4905C3.96246 41.7461 4.22144 42.0017 4.47956 42.0017H44.3783C44.6372 42.0017 44.8962 41.7461 44.8962 41.4905C44.8962 41.4905 44.8962 25.5578 44.8962 25.4726C44.8093 25.4726 44.7233 25.3022 44.7233 25.3022Z" fill="#081120"/>
<path d="M31.7114 33.9927C27.5755 35.441 20.9402 35.441 16.8034 33.9927C15.0801 33.3963 14.0459 32.6296 14.0459 31.8628C14.0459 31.0961 15.0801 30.3293 16.8034 29.733C20.9402 28.2847 27.5755 28.2847 31.7114 29.733C33.4356 30.3293 34.4689 31.0961 34.4689 31.8628C34.4689 32.6296 33.5216 33.3963 31.7114 33.9927ZM24.3009 27.6031C18.7849 27.6031 13.0117 29.1366 13.0117 31.8628C13.0117 34.5891 18.8718 36.1226 24.3009 36.1226C29.7299 36.1226 35.59 34.5891 35.59 31.8628C35.59 29.1366 29.8151 27.6031 24.3009 27.6031Z" fill="#081120"/>
<path d="M18.355 16.442C18.6131 16.442 18.8721 16.1864 18.8721 15.9308V12.6935C18.8721 12.4379 18.6131 12.1823 18.355 12.1823C18.096 12.1823 17.8379 12.4379 17.8379 12.6935V15.9308C17.8379 16.1864 18.096 16.442 18.355 16.442Z" fill="#081120"/>
<path d="M43.6925 3.15093C45.5019 3.15093 46.9663 4.59924 46.9663 6.38833C46.9663 8.17742 45.5019 9.62573 43.6925 9.62573C41.8822 9.62573 40.4178 8.17742 40.4178 6.38833C40.4178 4.59924 41.8822 3.15093 43.6925 3.15093ZM43.6925 10.5629C46.105 10.5629 48.0004 8.68858 48.0004 6.30313C48.0004 3.91768 46.105 2.0434 43.6925 2.0434C41.2791 2.0434 39.3828 3.91768 39.3828 6.30313C39.3828 8.68858 41.3651 10.5629 43.6925 10.5629Z" fill="#081120"/>
<path d="M3.27463 17.4674C2.06836 17.4674 1.12024 16.5303 1.12024 15.3376C1.12024 14.1448 2.06836 13.2077 3.27463 13.2077C4.48089 13.2077 5.42904 14.1448 5.42904 15.3376C5.42904 16.5303 4.48089 17.4674 3.27463 17.4674ZM6.54928 15.3376C6.54928 13.5485 5.08402 12.1002 3.27463 12.1002C1.46523 12.1002 0 13.5485 0 15.3376C0 17.1266 1.46523 18.575 3.27463 18.575C5.08402 18.575 6.54928 17.1266 6.54928 15.3376Z" fill="#081120"/>
</svg>
