<svg width="35" height="36" viewBox="0 0 35 36" fill="none" xmlns="http://www.w3.org/2000/svg">
<path d="M24.0573 10.1616C26.0763 10.5723 28.3418 10.1862 30.4051 10.3106C30.3391 10.3273 30.2732 10.3449 30.2068 10.3597C29.2209 10.5773 26.8831 10.1617 26.2145 10.439L26.214 10.5454C27.6353 10.9507 29.3208 10.3322 30.7824 10.7453C29.2652 10.8904 24.6152 10.4489 23.6013 11.0448L23.5117 10.9022C23.74 10.763 23.987 10.6601 24.0824 10.3959L24.0248 10.2852L24.0573 10.1616Z" fill="#B1A6DA"/>
<path d="M25.788 0.0798817L30.7459 0.0695829C31.5513 0.064682 32.4776 0.119085 33.2736 -6.67572e-06C33.7828 0.210242 34.1902 0.373932 34.415 0.906659C34.998 2.29116 34.6133 6.06584 34.6679 7.75518C34.6866 8.45503 34.722 9.10977 34.1985 9.65818C33.4001 10.4933 31.479 10.2811 30.4035 10.3095C28.3403 10.185 26.0748 10.5712 24.0558 10.1605C23.9825 10.1252 23.9087 10.0904 23.8369 10.0517C23.341 9.78806 23.2465 9.50478 23.0817 8.98431C23.4699 7.45131 23.3631 2.88859 23.1555 1.22326L23.0605 1.10269C23.1511 0.939005 23.2391 0.777765 23.3577 0.632209C23.7213 0.185738 24.1025 0.124473 24.655 0.0769339L25.788 0.0798817Z" fill="#F06019"/>
<path d="M25.9687 2.36711C26.3012 2.6641 26.5443 2.82926 26.6353 3.2826C25.7251 4.69405 26.1399 5.1714 25.7989 6.59167C25.7478 5.61199 25.5539 3.17722 25.9687 2.36711Z" fill="#CF1358"/>
<path d="M33.1927 1.56915C33.3595 2.73556 33.4554 6.66509 32.8439 7.54824C32.684 7.77858 32.5074 7.89082 32.2363 7.93738C32.3844 6.20883 32.4031 4.35482 32.3027 2.62431C32.5246 2.62284 32.7411 2.60619 32.9615 2.58805C33.2011 2.3087 33.1607 1.93034 33.1927 1.56915Z" fill="#EF5974"/>
<path d="M23.1578 1.22326C23.4466 1.57515 23.4894 1.95399 23.5745 2.38722C23.4618 3.41592 23.1937 7.78556 23.8293 8.45601C24.6135 9.2823 31.5226 8.90149 33.0068 8.87796C33.5091 8.47168 34.0404 7.93014 34.6701 7.75518C34.6888 8.45503 34.7242 9.10977 34.2008 9.65818C33.4023 10.4933 31.4813 10.2811 30.4058 10.3095C28.3425 10.185 26.0771 10.5712 24.0581 10.1605C23.9848 10.1252 23.911 10.0904 23.8391 10.0517C23.3432 9.78806 23.2488 9.50478 23.084 8.98431C23.4721 7.45131 23.3654 2.88859 23.1578 1.22326Z" fill="#DC202B"/>
<path d="M25.7898 0.0809672L30.7478 0.0706677C31.5531 0.0657668 32.4795 0.120171 33.2755 0.00107884C33.1407 0.0829237 32.967 0.122617 32.9419 0.291208C32.8996 0.573009 33.0379 0.824436 33.0831 1.09693L33.1948 1.56936C33.1628 1.93056 33.2032 2.30892 32.9636 2.58827C32.7432 2.60641 32.5267 2.62306 32.3048 2.62453C32.0092 2.42899 31.6899 2.27999 31.3726 2.12317L30.4428 2.28294C29.7319 2.32215 28.9802 2.41429 28.2707 2.38243C28.2363 2.62111 28.225 2.74607 28.1168 2.96465C27.8767 2.79262 27.6155 2.5814 27.2986 2.62306C27.0694 2.65344 26.8569 2.82253 26.7536 3.0269C26.7029 3.12688 26.697 3.18126 26.6753 3.2832L26.634 3.28175C26.543 2.82842 26.3 2.66325 25.9674 2.36626L26.2065 1.95556C25.625 1.85705 25.0376 1.86636 24.4492 1.85754C24.859 1.44293 25.7524 0.826389 25.9276 0.287781L25.7898 0.0809672Z" fill="#F14C27"/>
<path d="M26.2059 1.95556C26.965 1.97761 27.5735 2.04133 28.2701 2.38243C28.2357 2.62111 28.2244 2.74607 28.1162 2.96465C27.8761 2.79262 27.6149 2.5814 27.298 2.62306C27.0688 2.65344 26.8563 2.82253 26.753 3.0269C26.7023 3.12688 26.6964 3.18126 26.6747 3.2832L26.6334 3.28175C26.5424 2.82842 26.2994 2.66325 25.9668 2.36626L26.2059 1.95556Z" fill="#D60C86"/>
<path d="M31.373 2.12363C31.4719 1.72666 31.5866 1.2797 31.9723 1.06357C32.3452 0.85528 32.7117 0.970952 33.0836 1.0974L33.1953 1.56983C33.1633 1.93103 33.2036 2.30939 32.9641 2.58874C32.7437 2.60687 32.5272 2.62353 32.3053 2.625C32.0096 2.42945 31.6904 2.28046 31.373 2.12363Z" fill="#EE8ACB"/>
<path d="M31.3751 2.12295C31.6924 2.27978 32.0117 2.42877 32.3074 2.62431C32.4078 4.35482 32.3891 6.20883 32.241 7.93738C31.9684 7.89964 31.6934 7.90404 31.4189 7.89767C30.4291 8.06577 29.5298 7.51687 28.6015 7.66193L27.4636 7.84916C26.9677 7.82123 26.3134 7.83837 25.967 7.41739C25.7663 7.17283 25.7929 6.88515 25.8002 6.59061C26.1412 5.17033 25.7264 4.69299 26.6366 3.28153L26.6779 3.28298C26.6996 3.18105 26.7055 3.12666 26.7561 3.02668C26.8594 2.82232 27.072 2.65322 27.3012 2.62284C27.618 2.58118 27.8793 2.79241 28.1194 2.96443C28.2276 2.74585 28.2389 2.62089 28.2733 2.38222C28.9827 2.41407 29.7344 2.32193 30.4453 2.28272L31.3751 2.12295Z" fill="white"/>
<path d="M28.2712 2.38171C28.9806 2.41356 29.7323 2.32142 30.4432 2.28221L30.421 2.75808C30.1672 3.36579 29.5188 3.82501 29.1409 4.37097C28.7872 3.96959 28.2948 3.46969 28.1172 2.96392C28.2254 2.74534 28.2367 2.62038 28.2712 2.38171Z" fill="#EF5974"/>
<path d="M27.701 7.42526C27.728 7.40271 27.7556 7.37968 27.7827 7.35664C28.2417 6.95918 28.652 6.24562 29.1597 5.97754C29.6964 6.33089 29.9217 6.98565 30.4678 7.37919C30.4811 7.38802 30.4934 7.39781 30.5061 7.40713C30.7639 7.51789 30.8786 7.60758 31.0567 7.8242L31.4182 7.89722C30.4284 8.06532 29.5291 7.51641 28.6008 7.66147L27.4629 7.8487L27.701 7.42526Z" fill="#D60C86"/>
<path d="M26.6366 3.28186L26.6779 3.28331C27.0351 4.06108 27.6884 4.48746 28.3953 4.92903C27.929 5.32748 26.9829 5.9548 26.916 6.58751C26.8983 6.75561 26.9706 6.92027 27.0754 7.05259C27.2235 7.24079 27.4867 7.34076 27.7017 7.42604L27.4636 7.84949C26.9677 7.82155 26.3134 7.8387 25.967 7.41771C25.7663 7.17316 25.7929 6.88548 25.8002 6.59093C26.1412 5.17066 25.7264 4.69331 26.6366 3.28186Z" fill="#D60C86"/>
<path d="M31.3756 2.12295C31.6929 2.27978 32.0122 2.42877 32.3079 2.62431C32.4082 4.35482 32.3895 6.20883 32.2415 7.93738C31.9689 7.89964 31.6939 7.90404 31.4194 7.89767L31.0578 7.82466C30.8797 7.60804 30.7651 7.51834 30.5073 7.40758C30.6642 7.38798 30.8419 7.37377 30.9914 7.32182C31.2364 7.23654 31.3299 7.10619 31.445 6.88859C31.3727 6.19707 30.4788 5.54868 29.9863 5.08358C30.5024 4.54253 31.3018 4.07154 31.5124 3.32709C31.4406 3.06833 31.414 3.01001 31.1784 2.84975C30.8999 2.6596 30.7375 2.69684 30.4237 2.75859L30.4458 2.28272L31.3756 2.12295Z" fill="#EC1796"/>
<path d="M23.6028 11.0444C24.6167 10.4485 29.2667 10.89 30.7839 10.7449C31.4485 11.1782 32.2519 11.0081 33.0081 11.0748C33.8149 11.2453 34.2016 11.4982 34.6788 12.1721C34.7521 13.7036 34.7216 15.2425 34.7309 16.7755C34.7358 17.6238 34.8293 18.533 34.7319 19.3744C34.6827 19.8008 34.5523 20.3992 34.2424 20.7212C33.4828 21.5098 31.7531 21.3186 30.7431 21.3137L27.9192 21.2853C27.471 21.1971 26.9742 21.2314 26.5167 21.2245C25.6621 21.2221 24.5798 21.3353 23.773 21.0383C23.3159 20.8697 23.1093 20.5761 22.918 20.1488L22.9288 19.8003C23.1384 17.37 23.0178 14.8029 22.9854 12.3622L22.9371 12.1706C23.1418 11.7829 23.3711 11.4154 23.6028 11.0444Z" fill="#F2BE2A"/>
<path d="M25.6981 13.5308C26.1724 13.5651 26.6476 13.6244 27.1204 13.6715C26.9305 13.9964 26.8124 14.188 26.8336 14.5703C26.6299 15.2711 26.7627 16.5615 26.8665 17.2903C26.7603 17.5559 26.7017 17.7711 26.8104 18.0543C26.8852 18.2494 27.0446 18.3523 27.2389 18.4052C27.4962 18.4743 27.8652 18.3797 28.0689 18.22C28.2273 18.0955 28.3704 17.9465 28.5116 17.8034L28.6213 17.9955C28.3404 18.3072 28.0885 18.641 27.8317 18.9718C27.1656 18.9987 26.3303 19.1237 25.7301 18.7934C25.3469 17.673 25.7478 14.9143 25.6981 13.5308Z" fill="#F28E15"/>
<path d="M27.1218 13.6707C27.4957 13.6276 27.7456 13.6021 28.0673 13.8428C28.5505 14.2035 28.8648 14.8749 29.2235 15.3562C29.6692 14.894 30.478 13.7595 31.1003 13.7379C31.2631 13.732 31.3881 13.7835 31.5362 13.8428C31.641 14.0011 31.6626 13.9658 31.6375 14.1334C31.5293 14.8475 30.5788 15.6041 30.0657 16.081C30.5847 16.474 31.3468 16.8828 31.4427 17.5748C31.3522 17.9821 31.2149 18.1904 30.8878 18.4648C30.1296 18.8275 29.4438 17.859 28.6228 17.9948L28.5131 17.8027C28.3719 17.9458 28.2287 18.0948 28.0703 18.2193C27.8666 18.379 27.4977 18.4736 27.2404 18.4045C27.046 18.3516 26.8866 18.2487 26.8119 18.0536C26.7031 17.7703 26.7617 17.5552 26.8679 17.2896C26.7641 16.5608 26.6313 15.2704 26.835 14.5696C26.8138 14.1873 26.9319 13.9957 27.1218 13.6707Z" fill="white"/>
<path d="M28.5156 17.8027L29.2457 16.8142C29.7381 17.4802 30.174 18.0174 30.8903 18.4648C30.1322 18.8275 29.4464 17.859 28.6253 17.9948L28.5156 17.8027Z" fill="#F3A815"/>
<path d="M26.8679 17.2908C26.7641 16.562 26.6313 15.2716 26.835 14.5708C27.3693 15.129 27.8755 15.5828 28.55 15.9759C28.0118 16.4488 27.447 16.8693 26.8679 17.2908Z" fill="#F2BE2A"/>
<path d="M33.0081 11.0748C33.8149 11.2453 34.2016 11.4982 34.6788 12.1721C34.7521 13.7036 34.7216 15.2425 34.7309 16.7755C34.7358 17.6238 34.8293 18.533 34.7319 19.3744C34.6827 19.8008 34.5523 20.3992 34.2424 20.7212C33.4828 21.5098 31.7531 21.3186 30.7431 21.3137L27.9192 21.2853C27.471 21.1971 26.9742 21.2314 26.5167 21.2245C25.6621 21.2221 24.5798 21.3353 23.773 21.0383C23.3159 20.8697 23.1093 20.5761 22.918 20.1488L22.9288 19.8003C23.1384 17.37 23.0178 14.8029 22.9854 12.3622C23.4025 12.867 23.0941 16.7912 23.1246 17.6675C23.1595 18.7035 23.3455 19.2304 24.108 19.9376C27.2182 19.8822 30.4381 20.5521 33.4966 19.7043C33.468 18.2575 33.8793 13.2101 33.5158 12.2216C33.3436 11.7536 32.6804 11.5761 32.2711 11.3747L32.4197 11.2527L32.2632 11.3321C32.5102 11.2331 32.7532 11.1512 33.0081 11.0748Z" fill="#F3A815"/>
<path d="M10.5078 0.278339C11.4528 -0.0176735 21.4809 -0.0245361 22.2194 0.369007C22.5623 0.551811 22.8107 0.814503 23.0631 1.10316L23.158 1.22374C23.3656 2.88906 23.4724 7.45178 23.0842 8.98478C23.249 9.50525 23.3435 9.78853 23.8394 10.0522C23.9112 10.0909 23.985 10.1257 24.0583 10.161L24.0258 10.2845L24.0834 10.3953C23.988 10.6594 23.741 10.7623 23.5127 10.9015L23.6023 11.0441C23.3706 11.4151 23.1413 11.7827 22.9366 12.1704L22.9849 12.362C23.0173 14.8026 23.1379 17.3697 22.9283 19.8001L22.9175 20.1485C23.1088 20.5759 23.3154 20.8695 23.7725 21.038C24.5793 21.335 25.6616 21.2218 26.5161 21.2243C26.9737 21.2311 27.4705 21.1968 27.9187 21.285C28.0427 21.5732 28.0894 21.6835 28.3861 21.8119C28.7068 21.9511 29.2121 22.0613 29.5604 22.0672C29.9225 22.2348 30.2831 22.3892 30.6068 22.6259C31.2232 22.6299 31.8583 22.6049 32.4723 22.6495C32.7763 22.6617 33.0902 22.6553 33.3888 22.7205C33.6156 22.7793 33.8257 22.8313 34.0407 22.9259C34.7461 23.5615 34.8608 24.2653 34.9011 25.1812C34.9572 26.4628 35.2386 31.8582 34.4967 32.7173C33.9413 33.3599 32.2824 33.2074 31.5007 33.2104C30.6973 34.1538 30.0213 35.2153 28.9395 35.8627C28.5346 35.8931 28.1308 35.9186 27.7249 35.9323C22.855 36.0975 17.9319 35.9054 13.0561 35.9113L7.02615 35.9191C5.7874 35.9201 4.49207 35.9965 3.26758 35.8142C2.49422 35.6986 2.00817 35.4819 1.43947 34.9326C0.370436 33.899 0.124456 32.9276 0.101334 31.5103C0.0339355 27.4019 0.0482062 23.288 0.0437786 19.1786C0.0413188 16.8355 -0.0713554 14.4297 0.0747567 12.0949C0.10575 11.5979 0.139219 10.9491 0.375852 10.5109C0.992769 9.36657 2.38598 8.30747 3.30693 7.39444C5.41744 5.30176 7.57862 3.24731 9.65076 1.11787C9.86082 0.748341 10.1688 0.521915 10.5078 0.278339Z" fill="#CB7CC5"/>
<path d="M26.5176 21.2252C26.9751 21.2321 27.472 21.1978 27.9201 21.286C28.0441 21.5742 28.0909 21.6844 28.3875 21.8128C28.7083 21.952 29.2135 22.0623 29.5618 22.0682C29.9239 22.2358 30.2845 22.3902 30.6082 22.6269C29.9711 22.6332 29.3459 22.6225 28.7102 22.5754V22.5705L28.91 22.5945L28.9651 22.5436L29.0123 22.5979L29.0664 22.5382L30.1266 22.5357C29.1564 21.9839 27.9925 22.0927 26.9662 21.7339C26.6661 21.6295 26.6288 21.5055 26.5176 21.2252Z" fill="#CA9FD5"/>
<path d="M23.0836 8.98622C23.2485 9.5067 23.3429 9.78997 23.8388 10.0536C23.9106 10.0924 23.9844 10.1272 24.0577 10.1624L24.0252 10.286C22.783 10.0978 21.4189 10.306 20.1565 10.3173C17.5147 10.3413 14.8669 10.3315 12.2246 10.2845C12.5129 10.1291 15.6929 10.2066 16.3113 10.1414L16.4328 10.1272C17.7055 10.1154 18.9773 10.1051 20.25 10.1223C20.8615 10.1526 21.4641 10.1213 22.0746 10.0899C22.4697 9.73902 22.7747 9.41701 23.0836 8.98622Z" fill="#B1A6DA"/>
<path d="M10.5057 0.278402C10.7674 0.630777 11.0041 0.972863 11.132 1.39728C11.5816 2.89352 11.2781 6.3021 11.3907 8.06887C13.33 9.09708 16.3763 8.7692 18.5222 8.77803C19.0914 9.22989 19.6537 9.70331 20.2485 10.1209C18.9758 10.1037 17.7041 10.114 16.4314 10.1258C14.7503 10.0611 12.7968 10.413 11.1679 10.0268C10.4585 9.85819 10.1289 9.55042 9.7476 8.94418C9.49916 6.38297 9.72397 3.7007 9.6487 1.11793C9.85877 0.748403 10.1668 0.521977 10.5057 0.278402Z" fill="#D60C86"/>
<path d="M22.9143 20.1485L22.8424 20.2235C22.8026 20.2647 22.7613 20.3049 22.7219 20.3465C22.1906 20.9028 21.7434 21.1008 20.9715 21.21C19.902 21.3615 18.7203 21.2306 17.6385 21.237C15.7897 21.2483 13.7889 21.4389 11.9608 21.2243C11.5038 21.1709 10.9395 21.0915 10.5779 20.7847C9.98506 20.2823 9.7745 19.2845 9.72382 18.5528C9.64117 17.3481 9.45129 12.5472 10.1784 11.7901C10.5607 11.3911 11.0718 11.323 11.5967 11.2906C11.5977 12.9516 11.6061 14.6135 11.581 16.2739C11.5677 17.1595 11.4304 18.1896 11.5593 19.0556C11.6031 19.3502 11.7079 19.6486 11.9313 19.8574C12.1625 20.0735 12.4813 20.1622 12.7873 20.2034C13.4677 20.2951 19.6496 20.2475 20.3738 20.1515C21.0645 20.0598 21.7975 19.8569 22.4617 19.6462L22.9251 19.8001L22.9143 20.1485Z" fill="#2B8D65"/>
<path d="M11.6 11.2917C13.9634 11.3378 16.3272 11.3108 18.6906 11.303C19.7527 11.2996 20.9654 11.178 22.0089 11.3461C22.2204 11.38 22.3911 11.4545 22.5471 11.6064C22.7006 11.7563 22.8285 11.9857 22.9367 12.1714L22.9849 12.3631C23.0174 14.8037 23.1379 17.3708 22.9283 19.8012L22.4649 19.6473C21.8008 19.858 21.0677 20.0609 20.377 20.1525C19.6529 20.2486 13.4709 20.2961 12.7905 20.2045C12.4845 20.1633 12.1657 20.0746 11.9345 19.8585C11.7112 19.6497 11.6064 19.3513 11.5626 19.0567C11.4337 18.1907 11.5709 17.1606 11.5842 16.275C11.6093 14.6145 11.601 12.9526 11.6 11.2917Z" fill="#4BC196"/>
<path d="M19.2592 16.6672L19.6016 16.8264C19.7865 17.0631 19.8972 17.2239 19.8992 17.5434C19.9012 17.8733 19.7649 18.0389 19.5622 18.2771C19.2695 18.1286 18.9256 17.9571 18.8484 17.6032C18.7677 17.2332 19.0432 16.9289 19.2592 16.6672Z" fill="white"/>
<path d="M16.9823 13.1807C17.4511 13.3992 17.8373 13.6169 18.0253 14.1251C18.1532 14.4721 18.1271 14.8671 18.1163 15.2302C17.6204 14.5627 17.184 14.1466 16.4746 13.7296C16.5051 13.6894 16.5297 13.6433 16.5661 13.608C16.7521 13.4291 16.8495 13.4233 16.9823 13.1807Z" fill="#3DBB7C"/>
<path d="M19.1961 13.6005C19.4558 13.6941 19.7426 13.8484 19.8528 14.1195C20.0058 14.4959 19.784 14.8468 19.5975 15.158C19.417 15.1442 19.1739 15.1276 19.0155 15.0354C18.7681 14.8928 18.7592 14.7487 18.7031 14.4968C18.7877 14.1018 18.9378 13.9068 19.1961 13.6005Z" fill="white"/>
<path d="M13.4046 13.6089C14.5799 13.0923 15.7227 12.8904 16.9831 13.1801C16.8503 13.4227 16.7529 13.4285 16.5669 13.6074C16.5305 13.6427 16.5059 13.6888 16.4754 13.729L16.3027 13.7447C15.1825 13.8397 14.1499 13.6177 13.3087 14.5709C13.0774 14.8326 12.8639 15.1145 12.6524 15.3923C12.6475 14.6386 12.982 14.1926 13.4046 13.6089Z" fill="#2B8D65"/>
<path d="M12.6532 15.3931C12.8648 15.1152 13.0783 14.8334 13.3095 14.5717C14.1508 13.6185 15.1834 13.8405 16.3036 13.7454L16.4763 13.7297C17.1857 14.1468 17.622 14.5629 18.1179 15.2304C18.3049 16.2664 18.2173 16.9844 17.7519 17.9273L17.6678 18.1023C16.7272 18.6787 15.7988 19.1976 14.6491 18.9359C13.9589 18.7786 13.3553 18.3522 13.0025 17.7362C12.5986 17.031 12.5071 16.1831 12.6532 15.3931Z" fill="#2D7C74"/>
<path d="M15.3192 14.2093C15.6178 14.2382 15.9332 14.2568 16.2131 14.3735C16.6918 14.5734 17.1114 14.967 17.3023 15.4512C17.5025 15.9609 17.4652 16.5343 17.229 17.0249C16.8974 17.7125 16.3209 18.0492 15.6218 18.2927C15.1156 18.2927 14.7141 18.2457 14.2802 17.9639C13.8276 17.6688 13.5054 17.1905 13.4089 16.6598C13.3076 16.102 13.435 15.534 13.7666 15.0743C14.1611 14.5264 14.6753 14.3289 15.3192 14.2093Z" fill="white"/>
<path d="M10.5059 0.277858C11.4509 -0.0181561 21.479 -0.0250168 22.2174 0.368525C22.5603 0.551328 22.8088 0.814019 23.0612 1.10268L23.1561 1.22325C23.3637 2.88858 23.4705 7.4513 23.0823 8.98429C22.7734 9.41508 22.4683 9.73709 22.0733 10.088C21.4628 10.1194 20.8601 10.1507 20.2486 10.1203C19.6538 9.70277 19.0915 9.22934 18.5223 8.77748C16.3764 8.76866 13.3302 9.09653 11.3909 8.06833C11.2782 6.30155 11.5818 2.89298 11.1321 1.39674C11.0042 0.972319 10.7676 0.630232 10.5059 0.277858Z" fill="#E133A2"/>
<path d="M19.1381 6.16327C19.1765 6.17062 19.2154 6.17651 19.2533 6.1868C19.5898 6.27502 19.7049 6.39901 19.8613 6.68669C19.848 7.03318 19.7654 7.13757 19.5642 7.40222C19.2306 7.30861 19.0638 7.23901 18.8626 6.94937C18.8479 6.60238 18.9591 6.44213 19.1381 6.16327Z" fill="white"/>
<path d="M18.8053 2.01873C18.9799 2.02755 19.2283 2.02215 19.3907 2.09077C19.6544 2.20153 19.6952 2.35934 19.7808 2.60046C19.7439 2.95872 19.6578 3.1327 19.4527 3.42773C19.2776 3.40519 19.0965 3.38802 18.9322 3.31647C18.7187 3.22335 18.5583 3.00038 18.5189 2.77592C18.4668 2.4799 18.6469 2.24564 18.8053 2.01873Z" fill="white"/>
<path d="M12.8043 6.03503C12.3084 5.35381 12.3532 4.47557 12.3551 3.663C12.3561 3.20722 12.2966 2.38191 12.6282 2.05061C13.187 2.35103 12.9396 2.86759 13.1526 3.3665C13.1683 3.40423 13.1915 3.43952 13.2111 3.47579C12.851 4.36481 12.7763 5.08475 12.8043 6.03503Z" fill="#EC1796"/>
<path d="M13.211 3.47448C13.7428 2.85158 14.3032 2.46686 15.1449 2.40952C15.9252 2.35659 16.8156 2.57566 17.4148 3.09369C17.9014 3.51419 18.1867 4.12041 18.2265 4.75802C18.2757 5.56177 17.9471 6.35573 17.3986 6.93746C16.8914 7.47558 16.2066 7.82158 15.4603 7.84413C14.7292 7.86667 14.0247 7.62701 13.5013 7.11487C13.1864 6.80661 12.9591 6.44344 12.8042 6.03373C12.7761 5.08344 12.8509 4.36351 13.211 3.47448Z" fill="#D60C86"/>
<path d="M14.8426 3.08966C15.1978 3.07299 15.6002 3.02987 15.9475 3.11661C16.4675 3.24649 16.96 3.62093 17.2295 4.08063C17.5026 4.54622 17.572 5.10883 17.4081 5.62392C17.1779 6.3468 16.6599 6.72564 16.0011 7.04027C15.6543 7.11036 15.2893 7.12456 14.9444 7.03488C14.3777 6.88687 13.8887 6.50559 13.622 5.98463C13.3647 5.48278 13.3224 4.88683 13.5118 4.35606C13.7553 3.67238 14.2104 3.3842 14.8426 3.08966Z" fill="white"/>
<path d="M32.472 22.6507C32.776 22.6629 33.0899 22.6566 33.3885 22.7218C33.6153 22.7806 33.8254 22.8325 34.0403 22.9271C34.7458 23.5627 34.8604 24.2665 34.9008 25.1825C34.9569 26.4641 35.2383 31.8595 34.4964 32.7186C33.941 33.3611 32.2821 33.2087 31.5004 33.2116C29.4882 33.0871 25.3238 33.4606 23.692 33.0004C23.2733 32.8823 22.9683 32.6348 22.6387 32.3623C22.71 32.0658 22.708 31.8531 22.6874 31.5536L22.834 31.3008L22.833 24.0469C23.0199 23.7813 23.1808 23.4917 23.381 23.2359C23.5468 23.0241 23.7643 22.8987 24.0235 22.8369C24.8515 22.6394 25.7577 22.709 26.6044 22.7134C28.4782 22.7227 30.4805 22.8786 32.3382 22.6673C32.3829 22.6624 32.4272 22.6561 32.472 22.6507Z" fill="#7F53AF"/>
<path d="M33.3873 22.7207C33.6141 22.7795 33.8242 22.8315 34.0392 22.926C33.9167 23.2201 33.7897 23.4941 33.7514 23.8141C33.4685 23.4833 32.7212 23.201 32.5918 22.8765C32.8383 22.7148 33.1025 22.733 33.3873 22.7207Z" fill="#58359A"/>
<path d="M25.5989 26.8932C25.9733 27.2088 26.4042 27.3127 26.8052 27.5715C26.388 27.9533 25.9492 28.3252 25.5664 28.7418C25.6097 28.1307 25.594 27.5063 25.5989 26.8932Z" fill="#75349C"/>
<path d="M26.6621 24.2595C28.0854 24.408 29.4929 24.5217 30.923 24.5785C31.473 24.9961 31.7574 25.2358 31.9247 25.914C31.9635 26.3987 32.0186 26.8869 32.0309 27.373L32.0216 27.9479C32.0117 28.4733 32.0147 28.9884 31.9064 29.5049C31.9123 29.9235 31.9857 30.4518 31.6944 30.7929C31.4898 31.0335 31.1414 31.1359 30.8335 31.1114C30.0734 31.0502 29.6119 30.6444 29.1131 30.1254C28.6674 30.565 28.0362 31.3428 27.3602 31.3702C27.2043 31.3761 26.9829 31.3153 26.8333 31.2658C27.9324 31.1732 28.3776 30.6037 29.1023 29.8475C29.3669 30.1283 29.6601 30.49 30.0001 30.6792C30.4365 30.9232 30.7941 30.8458 31.2457 30.7105C31.3004 30.4577 31.2354 30.4449 31.1173 30.2263C31.2423 30.0229 31.4204 29.8485 31.5788 29.6701C31.1341 28.9232 30.5171 28.4032 29.8392 27.8764C30.4999 27.3005 31.1321 26.6894 31.6373 25.9709C31.3855 25.7028 31.3072 25.569 30.9476 25.4641C30.1669 25.6219 29.6021 26.5492 29.1156 27.1378C28.6575 26.5325 28.1892 25.7278 27.4473 25.4504C27.1772 25.4867 27.1064 25.4906 26.9416 25.7352C26.8038 25.94 26.792 26.1865 26.8929 26.4066C26.9632 26.5585 27.1074 26.7158 27.2102 26.8496C27.0375 27.0937 26.915 27.2951 26.8053 27.5725C26.4044 27.3137 25.9734 27.2098 25.599 26.8942C25.5469 26.3713 25.568 25.8601 25.5887 25.3362C25.8917 24.8496 26.1849 24.582 26.6621 24.2595Z" fill="#842394"/>
<path d="M32.0213 27.9469C31.6081 27.9072 31.1973 27.8739 30.8691 27.5975L30.8809 27.4362C31.2248 27.2431 31.6509 27.3372 32.0306 27.372L32.0213 27.9469Z" fill="#75349C"/>
<path d="M29.1189 27.1371C29.6055 26.5485 30.1702 25.6213 30.951 25.4635C31.3106 25.5683 31.3888 25.7021 31.6407 25.9702C31.1355 26.6887 30.5033 27.2998 29.8426 27.8757C30.5205 28.4025 31.1374 28.9225 31.5822 29.6694C31.4238 29.8478 31.2457 30.0223 31.1207 30.2256C31.2388 30.4442 31.3037 30.457 31.2491 30.7099C30.7975 30.8451 30.4398 30.9226 30.0035 30.6785C29.6635 30.4893 29.3703 30.1276 29.1056 29.8468C28.381 30.603 27.9358 31.1725 26.8367 31.2651C26.3133 31.0255 25.841 30.7255 25.566 30.2016C25.3205 29.7356 25.4223 29.22 25.5699 28.7422C25.9527 28.3256 26.3915 27.9536 26.8087 27.5718C26.9184 27.2944 27.0409 27.093 27.2136 26.8489C27.1108 26.7151 26.9666 26.5578 26.8963 26.4059C26.7954 26.1859 26.8072 25.9393 26.945 25.7345C27.1098 25.4899 27.1806 25.486 27.4507 25.4497C28.1926 25.7271 28.6609 26.5319 29.1189 27.1371Z" fill="white"/>
<path d="M27.2136 26.8489C27.618 27.1935 28.0164 27.5233 28.4587 27.8203C27.8329 28.3354 26.8613 28.97 26.7787 29.8571C26.7629 30.0252 26.7693 29.987 26.8402 30.1394C27.2062 30.2462 27.4571 30.1595 27.7857 29.9777C28.3643 29.6567 28.7805 29.1014 29.2109 28.6123C29.6232 29.1058 30.1968 30.1316 30.8565 30.2183C30.9633 30.232 31.0184 30.2276 31.1207 30.2256C31.2388 30.4442 31.3037 30.457 31.2491 30.7099C30.7975 30.8451 30.4398 30.9226 30.0035 30.6785C29.6635 30.4893 29.3703 30.1276 29.1056 29.8468C28.381 30.603 27.9358 31.1725 26.8367 31.2651C26.3133 31.0255 25.841 30.7255 25.566 30.2016C25.3205 29.7356 25.4223 29.22 25.5699 28.7422C25.9527 28.3256 26.3915 27.9536 26.8087 27.5718C26.9184 27.2944 27.0409 27.093 27.2136 26.8489Z" fill="#58359A"/>
<path d="M34.0403 22.9271C34.7458 23.5627 34.8604 24.2665 34.9008 25.1825C34.9569 26.4641 35.2383 31.8595 34.4964 32.7186C33.941 33.3611 32.2821 33.2087 31.5004 33.2116C29.4882 33.0871 25.3238 33.4606 23.692 33.0004C23.2733 32.8823 22.9683 32.6348 22.6387 32.3623C22.71 32.0658 22.708 31.8531 22.6874 31.5536L22.834 31.3008C22.9176 31.3973 23.0013 31.4919 23.0928 31.5816C23.2841 31.7678 23.4479 31.8452 23.7087 31.8771C24.7334 32.0026 25.8915 31.8874 26.931 31.8707C28.6175 31.8433 30.3118 31.859 31.9963 31.7889C32.5005 31.7678 33.419 31.7129 33.7678 31.3365C34.0817 30.2907 34.0403 24.8502 33.7525 23.8151C33.7909 23.4951 33.9178 23.2211 34.0403 22.9271Z" fill="#452B90"/>
<path d="M21.6906 33.1053C19.8601 33.1665 12.2076 33.3249 10.9054 32.9911C10.5123 32.8902 10.0956 32.4839 9.91558 32.1276C9.6391 31.5806 9.60123 24.5155 9.86 23.9534C10.0361 23.5701 10.5236 23.2834 10.9123 23.1663C11.6414 22.9467 20.4322 22.9751 21.4914 23.0977C21.7595 23.129 21.9804 23.2305 22.2146 23.3579C22.4261 23.5814 22.6475 23.7985 22.83 24.0465L22.831 31.3003L22.6844 31.5532C22.7051 31.8526 22.707 32.0653 22.6357 32.3618C22.343 32.6588 22.0375 32.8749 21.6906 33.1053Z" fill="#2D2F87"/>
<path d="M14.0424 23.9655C15.4558 23.962 16.8716 23.9704 18.2836 23.9223C19.0879 23.8944 20.0015 23.7376 20.793 23.8361C21.0646 23.8699 21.3372 23.9605 21.5167 24.1791C22.1154 24.9094 21.7957 29.6583 21.7361 30.789C21.0144 31.5432 20.3513 31.6947 19.3108 31.7211C17.2859 31.7731 14.9092 31.4874 12.9433 31.7397C12.9094 31.6785 12.8745 31.6172 12.8425 31.5545C12.1626 30.2263 12.2812 25.5323 12.7648 24.0846C13.1957 24.0689 13.6154 24.0199 14.0424 23.9655Z" fill="#452B90"/>
<path d="M19.1953 28.5906L19.5874 28.6734C19.7773 28.8852 19.8565 28.9577 19.8787 29.2561C19.9038 29.5933 19.6991 29.8678 19.49 30.105C19.372 30.055 19.216 29.9996 19.1092 29.9246C18.8775 29.7619 18.7998 29.6355 18.7363 29.3669C18.7895 28.9954 18.9366 28.8538 19.1953 28.5906Z" fill="white"/>
<path d="M19.0101 25.846C19.1917 25.8548 19.4406 25.8715 19.599 25.9631C19.8002 26.0798 19.9193 26.2699 19.9276 26.4998C19.9385 26.7988 19.7437 27.031 19.5715 27.2516C19.4032 27.2339 19.1666 27.2227 19.0146 27.1443C18.8094 27.0384 18.6766 26.8497 18.6599 26.6208C18.6377 26.319 18.8409 26.0724 19.0101 25.846Z" fill="white"/>
<path d="M15.1147 25.3047C15.6799 25.2596 16.1842 25.2239 16.6954 25.5106C17.2828 25.8404 17.6517 26.4133 17.8283 27.0499C18.0699 27.9184 18.002 28.9294 17.5086 29.7008C17.0707 30.385 16.4843 30.6835 15.708 30.853C15.3843 30.8408 15.0463 30.8378 14.727 30.779C13.8597 30.6193 13.3933 30.062 12.9107 29.3867C12.7794 28.4751 12.7489 27.6547 13.1764 26.8073C13.5857 25.9948 14.2764 25.5797 15.1147 25.3047Z" fill="#2D2F87"/>
<path d="M14.8391 26.3111C15.1781 26.2827 15.5367 26.2543 15.8698 26.3405C16.3164 26.4557 16.7262 26.8047 16.9511 27.2002C17.2231 27.68 17.2566 28.2651 17.0765 28.7822C16.8453 29.4453 16.4001 29.7898 15.7886 30.0907C15.5047 30.1363 15.2612 30.1579 14.9768 30.0961C14.507 29.9947 14.0943 29.6913 13.8453 29.2835C13.5398 28.7827 13.4832 28.1647 13.6451 27.6064C13.8409 26.9336 14.2419 26.6268 14.8391 26.3111Z" fill="white"/>
</svg>
