<svg width="12" height="24" viewBox="0 0 12 24" fill="none" xmlns="http://www.w3.org/2000/svg">
<path d="M6.38345 10.4784C5.34887 10.2281 4.4399 9.55493 3.84123 8.5956C3.74515 8.44372 3.6782 8.27198 3.64445 8.09083C3.61071 7.90967 3.61087 7.72287 3.64494 7.54179C3.94044 6.37088 5.60894 5.71869 7.22303 6.14958C7.97581 6.33174 8.65819 6.76679 9.1753 7.39425C9.31111 7.57142 9.47749 7.71736 9.66487 7.82369C9.85226 7.93002 10.0569 7.99464 10.2672 8.01382C10.4774 8.03301 10.689 8.00639 10.8898 7.93549C11.0906 7.86459 11.2767 7.75082 11.4373 7.60071C11.5979 7.4506 11.7299 7.26712 11.8256 7.06082C11.9214 6.85452 11.979 6.62948 11.9953 6.39864C12.0115 6.1678 11.986 5.93571 11.9202 5.71573C11.8544 5.49575 11.7496 5.29222 11.6119 5.11685C10.6586 3.9278 9.39036 3.09585 7.98474 2.73757C7.89939 2.71415 7.81618 2.71181 7.73083 2.69308V1.75635C7.73083 1.29054 7.56224 0.843805 7.26214 0.514424C6.96204 0.185044 6.55502 0 6.13061 0C5.70621 0 5.29919 0.185044 4.99909 0.514424C4.69899 0.843805 4.53039 1.29054 4.53039 1.75635V2.72118C3.61092 2.9154 2.75646 3.37908 2.0576 4.06305C1.35873 4.74703 0.841518 5.62581 0.560777 6.60623C0.411696 7.24019 0.380964 7.90069 0.47043 8.54801C0.559896 9.19534 0.767713 9.81612 1.08138 10.373C2.11359 12.1568 3.74707 13.4197 5.62494 13.8857C6.65995 14.1364 7.56903 14.8105 8.16716 15.7709C8.26337 15.9227 8.33048 16.0944 8.3644 16.2756C8.39833 16.4567 8.39837 16.6435 8.36452 16.8247C8.06688 17.9956 6.39732 18.6455 4.78536 18.2169C4.02492 18.0348 3.3366 17.5929 2.81922 16.9547C2.54564 16.6016 2.156 16.3815 1.73521 16.3424C1.31443 16.3033 0.896619 16.4484 0.572854 16.746C0.249089 17.0435 0.0456159 17.4695 0.00678432 17.931C-0.0320473 18.3926 0.0969106 18.8522 0.36555 19.2098C1.32254 20.422 2.60519 21.2698 4.02899 21.6313C4.19541 21.6758 4.36077 21.698 4.52719 21.7308V22.2436C4.52719 22.7095 4.69579 23.1562 4.99589 23.4856C5.29599 23.815 5.70301 24 6.12741 24C6.55182 24 6.95884 23.815 7.25894 23.4856C7.55904 23.1562 7.72763 22.7095 7.72763 22.2436V21.5938C8.59768 21.3652 9.39847 20.8918 10.0511 20.2202C10.7038 19.5486 11.1858 18.702 11.4497 17.7638C11.5985 17.1297 11.6289 16.4692 11.5393 15.8219C11.4497 15.1746 11.2418 14.5539 10.9281 13.997C9.8963 12.2111 8.26241 10.9461 6.38345 10.4784V10.4784Z" fill="#1A56DB"/>
</svg>
