<svg width="44" height="44" viewBox="0 0 44 44" fill="none" xmlns="http://www.w3.org/2000/svg">
<path d="M41.7382 12.5743V35.4723C41.7382 36.6696 40.9137 37.6424 39.8641 37.9417H26.2272V39.8125H17.8344V37.9417H4.27198C3.22251 37.6424 2.39844 36.6696 2.39844 35.4723V12.5743C2.39844 11.1525 3.52258 10.03 4.94619 10.03H39.1152C40.5389 10.03 41.7382 11.1525 41.7382 12.5743Z" fill="#464D58"/>
<path d="M39.3398 0.598804C40.6227 0.598804 41.6627 1.63745 41.6627 2.91854C41.6627 4.19964 40.6227 5.23828 39.3398 5.23828C38.0568 5.23828 37.0176 4.19964 37.0176 2.91854C37.0176 1.63745 38.0568 0.598804 39.3398 0.598804Z" fill="#70F2A4"/>
<path d="M4.72283 1.49649C6.2954 1.49649 7.56969 2.76936 7.56969 4.34004C7.56969 5.90998 6.2954 7.18359 4.72283 7.18359C3.14988 7.18359 1.875 5.90998 1.875 4.34004C1.875 2.76936 3.14988 1.49649 4.72283 1.49649Z" fill="#70F2A4"/>
<path d="M6.14453 31.4299H37.9911V34.2734H6.14453V31.4299Z" fill="#D3DCFB"/>
<path d="M43.6117 38.0127C43.6117 41.0808 41.0636 43.625 37.9917 43.625H6.14512C3.07315 43.625 0.525391 41.0808 0.525391 38.0127C3.9721 38.0127 14.3129 38.0127 17.8346 38.0127V39.8835H26.3022V38.0127C29.8237 38.0127 40.0895 38.0127 43.6117 38.0127Z" fill="#464D58"/>
<path d="M37.9911 13.6949V31.4297H6.14453V13.6949C6.14453 13.6949 37.9163 13.6949 37.9911 13.6949Z" fill="#E9EFFF"/>
<path d="M31.8454 26.2656H12.2129C12.2129 25.667 12.2129 5.98662 12.2129 4.26552H31.9202C31.8454 5.46281 31.8454 25.1432 31.8454 26.2656Z" fill="#BEC8F7"/>
<path d="M22.0304 8.08473C26.1512 8.08473 29.5231 11.4521 29.5231 15.5678C29.5231 19.6834 26.1512 23.0508 22.0304 23.0508C17.9089 23.0508 14.5371 19.6834 14.5371 15.5678C14.5371 11.4521 17.9089 8.08473 22.0304 8.08473Z" fill="#2A428C"/>
<path d="M22.3222 13.0004C23.6052 13.0004 24.6451 14.0391 24.6451 15.3202C24.6451 16.6012 23.6052 17.6399 22.3222 17.6399C21.0392 17.6399 20 16.6012 20 15.3202C20 14.0391 21.0392 13.0004 22.3222 13.0004Z" fill="#70F2A4"/>
<path d="M24.5881 16.2585C24.9607 16.2585 25.2622 16.5601 25.2622 16.932C25.2622 17.3039 24.9607 17.6055 24.5881 17.6055C24.2155 17.6055 23.9141 17.3039 23.9141 16.932C23.9141 16.5601 24.2155 16.2585 24.5881 16.2585Z" fill="#081120"/>
<path d="M24.5881 12.4343C24.9607 12.4343 25.2622 12.7359 25.2622 13.1078C25.2622 13.4797 24.9607 13.7812 24.5881 13.7812C24.2155 13.7812 23.9141 13.4797 23.9141 13.1078C23.9141 12.7359 24.2155 12.4343 24.5881 12.4343Z" fill="#081120"/>
<path d="M20.762 19.1296C21.1345 19.1296 21.436 19.4312 21.436 19.8031C21.436 20.175 21.1345 20.4766 20.762 20.4766C20.3894 20.4766 20.0879 20.175 20.0879 19.8031C20.0879 19.4312 20.3894 19.1296 20.762 19.1296Z" fill="#081120"/>
<path d="M20.5326 13.695C21.0575 13.695 21.5068 14.144 21.5068 14.6678C21.5068 15.1916 21.0575 15.6406 20.5326 15.6406C20.008 15.6406 19.5586 15.1916 19.5586 14.6678C19.5586 14.144 20.008 13.695 20.5326 13.695Z" fill="#FFDD40"/>
<path d="M41.4385 7.11009C41.8111 7.11009 42.1125 7.41165 42.1125 7.78356C42.1125 8.15547 41.8111 8.45703 41.4385 8.45703C41.0659 8.45703 40.7637 8.15547 40.7637 7.78356C40.7637 7.41165 41.0659 7.11009 41.4385 7.11009Z" fill="#081120"/>
<path d="M33.9436 1.04759C34.3162 1.04759 34.6177 1.34915 34.6177 1.72106C34.6177 2.09297 34.3162 2.39453 33.9436 2.39453C33.571 2.39453 33.2695 2.09297 33.2695 1.72106C33.2695 1.34915 33.571 1.04759 33.9436 1.04759Z" fill="#081120"/>
<path d="M14.7623 0.153055C15.1348 0.153055 15.4368 0.454621 15.4368 0.826527C15.4368 1.19843 15.1348 1.5 14.7623 1.5C14.3897 1.5 14.0879 1.19843 14.0879 0.826527C14.0879 0.454621 14.3897 0.153055 14.7623 0.153055Z" fill="#081120"/>
<path d="M9.14123 6.21165C9.5139 6.21165 9.81604 6.51321 9.81604 6.88512C9.81604 7.25703 9.5139 7.55859 9.14123 7.55859C8.76887 7.55859 8.4668 7.25703 8.4668 6.88512C8.4668 6.51321 8.76887 6.21165 9.14123 6.21165Z" fill="#081120"/>
<path d="M1.1999 8.53196C1.57227 8.53196 1.87405 8.83353 1.87405 9.20543C1.87405 9.57734 1.57227 9.87891 1.1999 9.87891C0.827463 9.87891 0.525391 9.57734 0.525391 9.20543C0.525391 8.83353 0.827463 8.53196 1.1999 8.53196Z" fill="#081120"/>
<path d="M37.9909 43.1019H6.14431C3.447 43.1019 1.27399 41.0067 1.04888 38.3876H17.3844V39.8094C17.3844 40.0339 17.6093 40.2584 17.8338 40.2584H26.3014C26.5258 40.2584 26.751 40.0339 26.751 39.8094V38.3876H43.0864C42.8613 41.0815 40.6131 43.1019 37.9909 43.1019ZM2.84753 35.4692V12.5712C2.84753 11.3739 3.82174 10.4759 4.94559 10.4759H11.7643V13.1698H6.14431C5.9198 13.1698 5.69499 13.3943 5.69499 13.6188V34.1971C5.69499 34.4216 5.9198 34.6461 6.14431 34.6461H37.9909C38.2154 34.6461 38.4406 34.4216 38.4406 34.1971V13.6936C38.4406 13.4691 38.2154 13.2446 37.9909 13.2446H32.371V10.4759H39.1894C40.3879 10.4759 41.2872 11.4487 41.2872 12.5712V35.4692C41.2872 36.3672 40.6879 37.1903 39.7887 37.4896H26.3014C26.0762 37.4896 25.8518 37.7141 25.8518 37.9386V39.3604H18.3584V37.9386C18.3584 37.7141 18.1338 37.4896 17.9087 37.4896H4.421C3.44701 37.2652 2.84753 36.442 2.84753 35.4692ZM12.6634 4.78881H31.3969V25.8161H12.6634V4.78881ZM37.4665 30.9794H6.59402V14.1426H11.7643V26.3399C11.7643 26.5644 11.9895 26.7889 12.214 26.7889H31.9214C32.1458 26.7889 32.371 26.5644 32.371 26.3399V14.1426H37.5413V30.9794H37.4665ZM6.59402 31.8774H37.5413V33.7481H6.59402V31.8774ZM43.6109 37.4896H41.4376C41.8872 36.9658 42.1864 36.2175 42.1864 35.4692V12.5712C42.1864 10.9249 40.8376 9.50312 39.1146 9.50312H32.2962V4.265C32.2962 4.04051 32.071 3.81602 31.8465 3.81602H12.214C11.9895 3.81602 11.7643 4.04051 11.7643 4.265V9.50312H4.94559C3.29686 9.50312 1.87324 10.8501 1.87324 12.5712V35.4692C1.87324 36.2175 2.17331 36.9658 2.62264 37.4896H0.449626C0.224813 37.4896 0 37.7141 0 37.9386C0 41.306 2.69761 43.9999 6.06973 43.9999H37.9161C41.2872 43.9999 43.9849 41.306 43.9849 37.9386C44.0598 37.7141 43.8353 37.4896 43.6109 37.4896Z" fill="#081120"/>
<path d="M20.531 14.1443C20.8308 14.1443 21.0559 14.3687 21.0559 14.6681C21.0559 14.9674 20.8308 15.1919 20.531 15.1919C20.2316 15.1919 20.0065 14.9674 20.0065 14.6681C20.0065 14.3687 20.2316 14.1443 20.531 14.1443ZM20.531 16.0898C21.3554 16.0898 21.955 15.4164 21.955 14.6681C21.955 13.9198 21.2804 13.2463 20.531 13.2463C19.7067 13.2463 19.1074 13.9198 19.1074 14.6681C19.1074 15.4164 19.7067 16.0898 20.531 16.0898Z" fill="#081120"/>
<path d="M22.0308 8.53394C25.9272 8.53394 29.0746 11.6768 29.0746 15.568C29.0746 19.4592 25.9272 22.602 22.0308 22.602C18.1344 22.602 14.9869 19.4592 14.9869 15.568C14.9869 11.6768 18.1344 8.53394 22.0308 8.53394ZM22.0308 23.5C26.4516 23.5 29.9731 19.9081 29.9731 15.568C29.9731 11.2278 26.3768 7.63598 22.0308 7.63598C17.6847 7.63598 14.0879 11.2278 14.0879 15.568C14.0879 19.9081 17.6099 23.5 22.0308 23.5Z" fill="#081120"/>
<path d="M39.3396 1.04802C40.3885 1.04802 41.2129 1.87116 41.2129 2.91878C41.2129 3.9664 40.3885 4.78954 39.3396 4.78954C38.2907 4.78954 37.467 3.9664 37.467 2.91878C37.467 1.87116 38.2907 1.04802 39.3396 1.04802ZM39.3396 5.6875C40.9136 5.6875 42.187 4.41539 42.187 2.84395C42.187 1.27251 40.9136 0.000398636 39.3396 0.000398636C37.7663 0.000398636 36.4922 1.27251 36.4922 2.84395C36.4922 4.41539 37.8411 5.6875 39.3396 5.6875Z" fill="#081120"/>
<path d="M4.72098 1.94632C5.99467 1.94632 7.04356 2.99395 7.04356 4.26606C7.04356 5.53818 5.99467 6.5858 4.72098 6.5858C3.44692 6.5858 2.39774 5.53818 2.39774 4.26606C2.39774 2.99395 3.44692 1.94632 4.72098 1.94632ZM4.72098 7.55859C6.51926 7.55859 8.01777 6.06199 8.01777 4.26606C8.01777 2.47013 6.51926 0.973528 4.72098 0.973528C2.92233 0.973528 1.42383 2.47013 1.42383 4.26606C1.42383 6.06199 2.92233 7.55859 4.72098 7.55859Z" fill="#081120"/>
</svg>
