<svg width="35" height="36" viewBox="0 0 35 36" fill="none" xmlns="http://www.w3.org/2000/svg">
<path d="M28.3906 16.7565C29.1232 17.0134 29.8567 17.4283 30.5072 17.8472C32.7303 19.28 34.2502 21.3489 34.7863 23.9393C35.3287 26.5632 34.8381 29.4759 33.3197 31.7081C32.0598 33.5603 29.7839 35.2719 27.5403 35.6883C24.873 36.1832 19.8623 35.9341 16.9878 35.935C14.2447 35.936 10.4367 36.1696 7.81387 35.7629C6.5408 35.5661 5.42949 35.1716 4.36363 34.4493C2.15666 32.9534 0.666104 30.6354 0.171049 28.0348C-0.299082 25.5651 0.201845 22.916 1.64987 20.8423C2.94981 18.98 5.38747 16.9485 7.68827 16.5389L7.69805 16.6276C7.68094 17.0498 7.69364 17.4962 7.63255 17.9136C5.23302 18.6184 3.39454 19.8913 2.18549 22.1094C1.44902 23.4604 1.01114 25.1725 1.21492 26.7115C1.17143 28.7711 2.05158 30.7697 3.48153 32.2515C5.26284 34.0979 7.46443 34.8051 9.98907 34.8449C13.1006 34.8938 16.219 34.809 19.3321 34.8109C21.6207 34.8129 25.3719 35.1289 27.5203 34.585C28.9351 34.2268 30.216 33.4382 31.2544 32.4304C32.115 31.5952 32.7821 30.5981 33.2488 29.4982C34.0972 27.8545 34.2194 25.7309 33.762 23.9592C33.0025 21.0197 30.9172 19.2388 28.4004 17.7366L28.289 17.2761C28.3496 17.105 28.3643 16.9363 28.3906 16.7565Z" fill="#3DBB7C"/>
<path d="M7.76404 8.36131C9.13973 9.53776 10.7544 10.2329 12.5176 10.6386L12.5352 10.6895L12.4541 11.0608L12.7268 11.18C13.6954 11.3686 14.6601 11.5795 15.6473 11.6459C15.7656 11.6585 15.8828 11.6701 16.0016 11.6783C19.9987 11.9459 25.2029 11.6565 28.3609 8.91051C28.6248 9.88919 28.4425 12.2067 28.4395 13.3361C28.1165 13.6488 27.8072 13.9745 27.4299 14.2232L27.6102 14.3953L27.9254 14.3681C24.6726 16.9159 19.6419 17.2892 15.6732 16.8194C14.6694 16.7007 13.6666 16.5068 12.696 16.2252C10.8062 15.754 9.18176 14.9978 7.64528 13.816L7.7401 13.3226L7.68829 13.0826C7.36624 12.2935 7.54852 9.24014 7.76404 8.36131Z" fill="#DC202B"/>
<path d="M7.76404 8.3623C9.13973 9.53876 10.7544 10.2339 12.5176 10.6396L12.5352 10.6905L12.4541 11.0618C11.4151 10.9532 10.3278 10.4525 9.37628 10.0531C8.77224 9.72052 8.2371 9.38073 7.71273 8.93089C7.69367 10.3037 7.77626 11.7186 7.68829 13.0836C7.36624 12.2945 7.54852 9.24113 7.76404 8.3623Z" fill="#EBADBA"/>
<path d="M7.73935 13.3226C10.6378 15.9198 15.6632 16.7046 19.4286 16.5053C22.1907 16.3594 25.098 15.7744 27.4291 14.2232L27.6095 14.3953L27.9247 14.3681C24.6719 16.9159 19.6412 17.2892 15.6724 16.8194C14.6687 16.7007 13.6658 16.5068 12.6953 16.2252C10.8055 15.754 9.18101 14.9978 7.64453 13.816L7.73935 13.3226Z" fill="#EAC1D5"/>
<path d="M9.375 10.0508C10.3265 10.4502 11.4138 10.9509 12.4528 11.0595L12.7255 11.1788C12.7402 12.3063 12.7769 13.3615 13.0623 14.4565C12.1782 14.3664 10.8509 14.0644 10.1867 13.4502C9.32661 12.6548 9.44928 11.1293 9.375 10.0508Z" fill="#E53022"/>
<path d="M28.3606 8.9097C28.6245 9.88838 28.4422 12.2059 28.4393 13.3353C28.1163 13.648 27.8069 13.9737 27.4296 14.2224C27.4585 14.1691 27.4863 14.1153 27.5156 14.0624C27.6046 13.901 27.7023 13.7886 27.827 13.6538C28.1129 13.3436 28.3377 12.917 28.3606 12.4929L28.2731 12.2747C28.0938 12.3722 28.1886 12.2985 28.0479 12.4817C26.8036 14.0998 22.7811 14.8802 20.8644 15.0794C18.5035 15.3247 15.2937 15.4032 13.0633 14.457C12.7779 13.362 12.7412 12.3067 12.7266 11.1792C13.6952 11.3678 14.6599 11.5787 15.6471 11.6451C15.7653 11.6577 15.8826 11.6693 16.0014 11.6775C19.9985 11.9451 25.2026 11.6557 28.3606 8.9097Z" fill="#F14C27"/>
<mask id="mask0_12498_4674" style="mask-type:luminance" maskUnits="userSpaceOnUse" x="7" y="-1" width="22" height="13">
<path d="M7.70893 3.73304C7.7231 3.16009 7.90001 2.74177 8.31736 2.33847C10.6421 0.0922079 16.5637 -0.0871363 19.7134 0.024353C22.1437 0.110151 26.0973 0.489205 27.8659 2.39906C28.2564 2.82029 28.4577 3.25316 28.4455 3.8237C28.4616 5.27838 28.6317 6.9798 28.3517 8.4054L27.9583 8.7641C24.618 11.0942 19.8189 11.6303 15.8448 11.2712L15.6464 11.6429C14.6592 11.5765 13.6945 11.3657 12.7259 11.1771L12.4532 11.0579L12.5344 10.6866L12.5168 10.6357C10.7535 10.2299 9.13886 9.53484 7.76316 8.35839C7.61411 7.60802 7.66053 6.80966 7.70793 6.05057C7.5926 5.31668 7.68938 4.47905 7.70893 3.73304Z" fill="white"/>
</mask>
<g mask="url(#mask0_12498_4674)">
<path d="M7.70893 3.73304C7.7231 3.16009 7.90001 2.74177 8.31736 2.33847C10.6421 0.0922079 16.5637 -0.0871363 19.7134 0.024353C22.1437 0.110151 26.0973 0.489205 27.8659 2.39906C28.2564 2.82029 28.4577 3.25316 28.4455 3.8237C28.4616 5.27838 28.6317 6.9798 28.3517 8.4054L27.9583 8.7641C24.618 11.0942 19.8189 11.6303 15.8448 11.2712L15.6464 11.6429C14.6592 11.5765 13.6945 11.3657 12.7259 11.1771L12.4532 11.0579L12.5344 10.6866L12.5168 10.6357C10.7535 10.2299 9.13886 9.53484 7.76316 8.35839C7.61411 7.60802 7.66053 6.80966 7.70793 6.05057C7.5926 5.31668 7.68938 4.47905 7.70893 3.73304Z" fill="url(#paint0_linear_12498_4674)"/>
</g>
<path d="M12.864 1.85913C13.5409 1.83053 14.4357 1.66572 15.0212 2.0603C15.1717 2.3395 15.1365 2.44856 15.1174 2.75879C14.4029 2.76703 13.5296 2.98516 12.8772 2.65942C12.7037 2.34095 12.7946 2.20669 12.864 1.85913Z" fill="white"/>
<path d="M17.9182 1.83479C18.6576 1.79214 19.6086 1.59678 20.2586 2.00057C20.4091 2.28608 20.3788 2.40289 20.3646 2.71894C19.593 2.75433 18.7343 2.94192 18.0067 2.63799C17.8112 2.33891 17.886 2.18332 17.9182 1.83479Z" fill="white"/>
<path d="M23.0505 1.87697C23.5279 1.84886 24.0196 1.80427 24.4965 1.84111C24.8855 1.87068 25.0888 1.93515 25.3479 2.2289C25.387 2.49453 25.3791 2.60312 25.2623 2.84597C24.6656 2.8639 23.9399 2.95746 23.3559 2.84839C23.092 2.79943 22.9933 2.74852 22.8398 2.53475C22.8496 2.24731 22.8975 2.12031 23.0505 1.87697Z" fill="white"/>
<path d="M23.1472 3.28213C23.6618 3.26322 24.3191 3.18034 24.8122 3.33545C25.0785 3.41931 25.1298 3.49735 25.2491 3.73875C25.2017 4.06691 25.1098 4.18179 24.908 4.43046C24.4506 4.46778 23.8695 4.56376 23.4287 4.41737C23.1506 4.32527 23.0871 4.22832 22.9532 3.97965C22.9512 3.67863 23.0143 3.54292 23.1472 3.28213Z" fill="white"/>
<path d="M12.7961 3.27969C13.3313 3.26127 13.9651 3.18905 14.4895 3.28745C14.7837 3.34271 14.8863 3.42172 15.0608 3.65343C15.0476 3.95639 14.9699 4.04316 14.8135 4.29716C14.4093 4.46148 13.8801 4.53855 13.4466 4.48086C13.1675 4.44402 13.0092 4.32333 12.8313 4.11296C12.7189 3.79691 12.739 3.60688 12.7961 3.27969Z" fill="white"/>
<path d="M17.8764 3.2556C18.5615 3.25123 19.7188 2.99383 20.2735 3.44269C20.3873 3.75438 20.337 3.8649 20.274 4.18385C20.1611 4.24251 20.0716 4.28953 19.947 4.3191C19.2609 4.48391 18.6456 4.5348 18.0181 4.19355C17.8207 3.8552 17.872 3.64145 17.8764 3.2556Z" fill="white"/>
<path d="M7.70893 3.73569C8.91113 5.42935 10.7633 5.85204 12.681 6.39203C12.6516 7.32902 12.6585 8.26069 12.6751 9.19768L12.6126 9.17877C12.6189 9.64993 12.6893 10.1948 12.5168 10.6383C10.7535 10.2326 9.13886 9.53748 7.76316 8.36103C7.61411 7.61066 7.66053 6.8123 7.70793 6.05321C7.5926 5.31932 7.68938 4.48169 7.70893 3.73569Z" fill="#F14C27"/>
<path d="M7.7082 6.05321C8.17443 6.28443 8.23454 6.71342 8.56343 7.08085C9.62489 8.26602 11.1433 8.71682 12.6128 9.17877C12.6192 9.64993 12.6895 10.1948 12.517 10.6383C10.7538 10.2326 9.13913 9.53748 7.76343 8.36103C7.61438 7.61066 7.6608 6.8123 7.7082 6.05321Z" fill="#DC202B"/>
<path d="M12.6809 6.39256C15.423 6.96843 18.0854 7.2234 20.8852 6.93402C23.4636 6.66741 26.731 5.91704 28.4454 3.82687C28.4615 5.28156 28.6316 6.98297 28.3516 8.40857L27.9582 8.76728C24.6179 11.0974 19.8188 11.6335 15.8447 11.2743L15.6463 11.6461C14.6591 11.5797 13.6944 11.3689 12.7258 11.1803L12.4531 11.061L12.5343 10.6897L12.5167 10.6388C12.6892 10.1953 12.6188 9.65046 12.6124 9.1793L12.675 9.19821C12.6584 8.26122 12.6515 7.32955 12.6809 6.39256Z" fill="#F06019"/>
<path d="M12.675 9.19821C16.7967 10.6185 21.8284 10.1575 25.8641 8.70524C26.2375 8.57097 26.6739 8.45123 27.0096 8.24425C27.3776 8.01691 27.7241 7.54818 28.1541 7.47644C28.3501 7.75904 28.3227 8.07168 28.3516 8.40858L27.9582 8.76728C24.6179 11.0974 19.8188 11.6335 15.8447 11.2743L15.6463 11.6461C14.6591 11.5797 13.6944 11.3689 12.7258 11.1803L12.4531 11.061L12.5343 10.6897L12.5167 10.6388C12.6892 10.1953 12.6188 9.65046 12.6124 9.1793L12.675 9.19821Z" fill="#E53022"/>
<path d="M12.5343 10.6897C13.6319 10.9214 14.7285 11.1464 15.8447 11.2743L15.6463 11.6461C14.6591 11.5797 13.6944 11.3689 12.7258 11.1803L12.4531 11.061L12.5343 10.6897Z" fill="#EAC1D5"/>
<path d="M7.64635 13.8163C9.18283 14.9981 10.8073 15.7543 12.6971 16.2254C13.6676 16.5071 14.6705 16.701 15.6743 16.8197C19.643 17.2894 24.6737 16.9162 27.9265 14.3684L28.2573 14.0708C28.4142 14.1503 28.3737 14.0936 28.4245 14.269C28.6351 14.9995 28.3419 15.9874 28.3937 16.7557C28.3673 16.9356 28.3526 17.1043 28.2921 17.2754L28.4035 17.7359C30.9203 19.2381 33.0056 21.019 33.765 23.9584C34.2224 25.7301 34.1003 27.8537 33.2519 29.4974C32.7852 30.5973 32.1181 31.5944 31.2575 32.4296C30.219 33.4374 28.9381 34.226 27.5233 34.5843C25.375 35.1281 21.6237 34.8121 19.3351 34.8101C16.2221 34.8082 13.1037 34.893 9.99212 34.8441C7.46749 34.8043 5.2659 34.0971 3.48458 32.2507C2.05464 30.7689 1.17448 28.7704 1.21798 26.7107C1.01419 25.1717 1.45207 23.4596 2.18855 22.1086C3.3976 19.8905 5.23608 18.6176 7.63561 17.9128C7.69669 17.4954 7.684 17.049 7.7011 16.6268L7.69133 16.5381C7.64588 15.6287 7.59406 14.7271 7.64635 13.8163Z" fill="white"/>
<path d="M16.5458 30.3532C16.8463 30.4123 17.2099 30.4991 17.423 30.7376C17.6048 30.9407 17.6971 31.1341 17.6669 31.4118C17.6165 31.8748 17.312 32.1225 16.9665 32.3934C16.5702 32.3503 16.2501 32.2786 16.0018 31.9402C15.8391 31.7187 15.7785 31.4463 15.8308 31.1777C15.9163 30.7386 16.1861 30.5626 16.5458 30.3532Z" fill="#34988D"/>
<path d="M22.457 31.0636C22.6388 30.8217 22.8827 30.5464 23.1813 30.4475C23.5977 30.3094 23.9544 30.5062 24.32 30.6807C24.4485 31.0907 24.5516 31.4286 24.3346 31.8372C24.2149 32.0626 24.0067 32.2396 23.7516 32.2924C23.4286 32.3588 23.0811 32.225 22.8524 31.9977C22.5978 31.7442 22.5357 31.399 22.457 31.0636Z" fill="#34988D"/>
<path d="M19.8998 30.3475C20.236 30.396 20.6128 30.49 20.8469 30.7571C21.0336 30.9699 21.1289 31.1851 21.0971 31.4726C21.0477 31.9204 20.7584 32.1458 20.4305 32.4091C20.4007 32.4086 20.3704 32.4086 20.3406 32.4066C19.9403 32.3814 19.6486 32.3087 19.3945 31.9883C19.2029 31.7464 19.1315 31.4391 19.2029 31.1386C19.3011 30.7265 19.5592 30.5516 19.8998 30.3475Z" fill="#34988D"/>
<path d="M7.63561 17.9122C8.1893 19.3324 10.0381 19.7677 11.2564 20.4483L11.1166 20.5452C10.8733 20.441 10.843 20.379 10.5751 20.44L10.8864 20.6281L10.8493 20.728C9.69793 20.3111 8.6223 19.7226 7.67031 18.9534C7.68351 19.6591 7.79688 20.5709 7.62633 21.2491C7.53592 20.5336 7.43818 19.6514 7.5887 18.9451L7.72407 18.7934C7.90831 18.8869 7.94936 18.901 8.1551 18.8957L8.07985 18.9461C7.84478 18.6727 7.6102 18.4342 7.33213 18.2035C5.08948 18.9635 3.26124 20.3252 2.21346 22.4788C1.93637 23.0484 1.71891 23.6577 1.585 24.2762C1.50094 24.6669 1.39782 26.5283 1.21798 26.7101C1.01419 25.1711 1.45207 23.459 2.18855 22.108C3.3976 19.8899 5.23608 18.617 7.63561 17.9122Z" fill="#EAC1D5"/>
<path d="M7.66703 18.9536C8.61902 19.7228 9.69465 20.3113 10.846 20.7282C11.433 21.0462 12.0868 21.2299 12.7182 21.4403C12.7402 22.5842 12.7197 23.7442 12.9479 24.8702C10.7424 24.2663 9.15805 23.5304 7.67142 21.7796L7.62305 21.2493C7.7936 20.5711 7.68022 19.6593 7.66703 18.9536Z" fill="#DC202B"/>
<path d="M7.67307 21.7803C9.1597 23.5312 10.7441 24.267 12.9496 24.871C14.7519 25.3484 16.6022 25.681 18.4705 25.7309C21.6959 25.8172 25.7912 25.1119 28.1976 22.8055L28.2943 22.711L28.4541 22.79C28.4214 23.6868 28.1687 24.2355 27.5021 24.8555C25.5366 26.6824 21.6651 27.3436 19.0711 27.3722C16.0284 27.3683 10.7827 27.0203 8.47796 24.7716C7.57777 23.8933 7.67796 22.9456 7.67307 21.7803Z" fill="#A41A29"/>
<path d="M28.1505 19.2898L28.2741 19.2603C28.3171 20.4033 28.1642 21.6801 28.453 22.7896L28.2932 22.7106L28.1964 22.8051C25.7901 25.1115 21.6947 25.8168 18.4693 25.7305C16.601 25.6806 14.7508 25.348 12.9484 24.8706C12.7202 23.7445 12.7407 22.5846 12.7188 21.4406C13.3379 21.5889 13.9591 21.7392 14.5856 21.8555C19.2615 22.7213 24.2013 21.9709 28.1505 19.2898Z" fill="#F14C27"/>
<path d="M7.64498 13.8172C9.18146 14.9989 10.8059 15.7551 12.6957 16.2263C13.6663 16.5079 14.6691 16.7018 15.6729 16.8206C19.6416 17.2903 24.6723 16.917 27.9251 14.3693L28.256 14.0716C28.4128 14.1511 28.3723 14.0944 28.4231 14.2699C28.6338 15.0004 28.3405 15.9883 28.3923 16.7566C28.3659 16.9364 28.3513 17.1051 28.2907 17.2762L28.4021 17.7367C28.2443 18.3208 28.0972 18.6272 27.6456 19.0271C27.8166 19.1255 27.9691 19.2171 28.1519 19.2908C24.2027 21.9719 19.2629 22.7222 14.587 21.8565C13.9605 21.7401 13.3393 21.5899 12.7201 21.4415C12.0887 21.2312 11.4349 21.0475 10.8479 20.7295L10.8851 20.6296L10.5738 20.4415C10.8416 20.3805 10.8719 20.4425 11.1153 20.5467L11.255 20.4498C10.0367 19.7692 8.18793 19.3339 7.63424 17.9137C7.69532 17.4963 7.68263 17.0499 7.69973 16.6277L7.68996 16.5389C7.64451 15.6296 7.59269 14.728 7.64498 13.8172Z" fill="#F14C27"/>
<path d="M7.64498 13.8172C9.18146 14.9989 10.8059 15.7551 12.6957 16.2263C12.7011 17.2927 12.664 18.3775 12.8111 19.4357C14.2879 19.9122 15.7486 20.2283 17.3017 20.3281C21.1204 20.5734 25.357 19.8507 28.2907 17.2762L28.4021 17.7367C28.2443 18.3208 28.0972 18.6272 27.6456 19.0271C27.8166 19.1255 27.9691 19.2171 28.1519 19.2908C24.2027 21.9719 19.2629 22.7222 14.587 21.8565C13.9605 21.7401 13.3393 21.5899 12.7201 21.4415C12.0887 21.2312 11.4349 21.0475 10.8479 20.7295L10.8851 20.6296L10.5738 20.4415C10.8416 20.3805 10.8719 20.4425 11.1153 20.5467L11.255 20.4498C10.0367 19.7692 8.18793 19.3339 7.63424 17.9137C7.69532 17.4963 7.68263 17.0499 7.69973 16.6277L7.68996 16.5389C7.64451 15.6296 7.59269 14.728 7.64498 13.8172Z" fill="#DC202B"/>
<path d="M11.2555 20.4498C12.3472 20.8065 13.44 21.1454 14.5723 21.3558C18.9652 22.173 23.9163 21.5778 27.646 19.0271C27.8171 19.1255 27.9696 19.2171 28.1523 19.2908C24.2031 21.9719 19.2633 22.7222 14.5874 21.8565C13.9609 21.7401 13.3398 21.5899 12.7206 21.4415C12.0892 21.2312 11.4353 21.0475 10.8484 20.7295L10.8855 20.6296L10.5742 20.4415C10.842 20.3805 10.8723 20.4425 11.1157 20.5467L11.2555 20.4498Z" fill="#EBADBA"/>
<path d="M7.64498 13.8164C9.18146 14.9982 10.8059 15.7543 12.6957 16.2255C12.7011 17.2919 12.664 18.3768 12.8111 19.4349C11.7745 19.241 10.7243 18.8082 9.83584 18.2454C9.29631 17.9037 8.15765 16.7068 7.69973 16.6269L7.68996 16.5382C7.64451 15.6288 7.59269 14.7272 7.64498 13.8164Z" fill="#E53022"/>
<defs>
<linearGradient id="paint0_linear_12498_4674" x1="18.5102" y1="0.0306541" x2="17.9996" y2="6.91236" gradientUnits="userSpaceOnUse">
<stop stop-color="#F19813"/>
<stop offset="1" stop-color="#F1BA27"/>
</linearGradient>
</defs>
</svg>
