<svg width="121" height="120" viewBox="0 0 121 120" fill="none" xmlns="http://www.w3.org/2000/svg">
<path d="M95.9256 120H0.668463C0.29932 120 0 119.702 0 119.333V86.0892C0 85.7195 0.29932 85.4217 0.668463 85.4217H95.9256C96.2947 85.4217 96.5941 85.7195 96.5941 86.0892V119.333C96.5941 119.702 96.2947 120 95.9256 120Z" fill="#FCFDFD"/>
<path d="M19.387 112.502H8.47166C7.93437 112.502 7.49951 112.068 7.49951 111.529C7.49951 110.993 7.93437 110.559 8.47166 110.559H19.387C19.9243 110.559 20.3595 110.993 20.3595 111.529C20.3595 112.068 19.9243 112.502 19.387 112.502Z" fill="#090B0E"/>
<path d="M41.007 112.502H24.5932C24.0557 112.502 23.6211 112.068 23.6211 111.529C23.6211 110.993 24.0557 110.559 24.5932 110.559H41.007C41.5446 110.559 41.9794 110.993 41.9794 111.529C41.9794 112.068 41.5446 112.502 41.007 112.502Z" fill="#090B0E"/>
<path d="M74.8859 112.502H47.7134C47.1761 112.502 46.7412 112.068 46.7412 111.529C46.7412 110.993 47.1761 110.559 47.7134 110.559H74.8859C75.4235 110.559 75.8581 110.993 75.8581 111.529C75.8581 112.068 75.4235 112.502 74.8859 112.502Z" fill="#090B0E"/>
<path d="M88.1225 112.502H81.5046C80.9671 112.502 80.5322 112.068 80.5322 111.529C80.5322 110.993 80.9671 110.559 81.5046 110.559H88.1225C88.6598 110.559 89.0947 110.993 89.0947 111.529C89.0947 112.068 88.6598 112.502 88.1225 112.502Z" fill="#090B0E"/>
<path d="M88.1227 94.8633H55.7441C55.2068 94.8633 54.772 94.4295 54.772 93.8929C54.772 93.3539 55.2068 92.92 55.7441 92.92H88.1227C88.66 92.92 89.0948 93.3539 89.0948 93.8929C89.0948 94.4295 88.66 94.8633 88.1227 94.8633Z" fill="#090B0E"/>
<path d="M50.8016 94.8633H46.6543C46.117 94.8633 45.6821 94.4295 45.6821 93.8929C45.6821 93.3539 46.117 92.92 46.6543 92.92H50.8016C51.3392 92.92 51.774 93.3539 51.774 93.8929C51.774 94.4295 51.3392 94.8633 50.8016 94.8633Z" fill="#090B0E"/>
<path d="M88.1227 103.684H64.3039C63.7664 103.684 63.3315 103.247 63.3315 102.711C63.3315 102.174 63.7664 101.738 64.3039 101.738H88.1227C88.6599 101.738 89.0948 102.174 89.0948 102.711C89.0948 103.247 88.6599 103.684 88.1227 103.684Z" fill="#090B0E"/>
<path d="M57.861 103.684H46.6543C46.117 103.684 45.6821 103.247 45.6821 102.711C45.6821 102.174 46.117 101.738 46.6543 101.738H57.861C58.3986 101.738 58.8334 102.174 58.8334 102.711C58.8334 103.247 58.3986 103.684 57.861 103.684Z" fill="#090B0E"/>
<path d="M39.4183 95.3947V101.918C39.4183 102.744 38.7406 103.422 37.9148 103.422H9.98058C9.13319 103.422 8.47705 102.744 8.47705 101.918V95.3947C8.47705 94.5707 9.13319 93.893 9.98058 93.893H37.9148C38.7406 93.893 39.4183 94.5707 39.4183 95.3947Z" fill="#FB3189"/>
<path d="M95.9256 77.292H0.668463C0.29932 77.292 0 76.9916 0 76.622V43.3786C0 43.0115 0.29932 42.7111 0.668463 42.7111H95.9256C96.2947 42.7111 96.5941 43.0115 96.5941 43.3786V76.622C96.5941 76.9916 96.2947 77.292 95.9256 77.292Z" fill="#FB3189"/>
<path d="M74.8858 69.791H60.4145C59.8772 69.791 59.4424 69.3572 59.4424 68.8207C59.4424 68.2842 59.8772 67.8477 60.4145 67.8477H74.8858C75.4233 67.8477 75.858 68.2842 75.858 68.8207C75.858 69.3572 75.4233 69.791 74.8858 69.791Z" fill="#090B0E"/>
<path d="M88.1225 69.791H81.5046C80.9671 69.791 80.5322 69.3572 80.5322 68.8207C80.5322 68.2842 80.9671 67.8477 81.5046 67.8477H88.1225C88.6598 67.8477 89.0947 68.2842 89.0947 68.8207C89.0947 69.3572 88.6598 69.791 88.1225 69.791Z" fill="#090B0E"/>
<path d="M88.1225 52.1553H78.3723C77.8348 52.1553 77.3999 51.7189 77.3999 51.1823C77.3999 50.6458 77.8348 50.2094 78.3723 50.2094H88.1225C88.6598 50.2094 89.0947 50.6458 89.0947 51.1823C89.0947 51.7189 88.6598 52.1553 88.1225 52.1553Z" fill="#090B0E"/>
<path d="M72.2387 52.1553H60.4145C59.8772 52.1553 59.4424 51.7189 59.4424 51.1823C59.4424 50.6458 59.8772 50.2094 60.4145 50.2094H72.2387C72.7759 50.2094 73.2108 50.6458 73.2108 51.1823C73.2108 51.7189 72.7759 52.1553 72.2387 52.1553Z" fill="#090B0E"/>
<path d="M88.1223 60.9727H68.6206C68.0833 60.9727 67.6484 60.5388 67.6484 59.9997C67.6484 59.4632 68.0833 59.0294 68.6206 59.0294H88.1223C88.6596 59.0294 89.0944 59.4632 89.0944 59.9997C89.0944 60.5388 88.6596 60.9727 88.1223 60.9727Z" fill="#090B0E"/>
<path d="M63.0619 60.9727H60.4145C59.8772 60.9727 59.4424 60.5388 59.4424 59.9997C59.4424 59.4632 59.8772 59.0294 60.4145 59.0294H63.0619C63.5992 59.0294 64.0341 59.4632 64.0341 59.9997C64.0341 60.5388 63.5992 60.9727 63.0619 60.9727Z" fill="#090B0E"/>
<path d="M52.6061 52.6863V67.316C52.6061 68.1426 51.9284 68.8203 51.1025 68.8203H9.98058C9.13319 68.8203 8.47705 68.1426 8.47705 67.316V52.6863C8.47705 51.8598 9.13319 51.182 9.98058 51.182H51.1025C51.9284 51.182 52.6061 51.8598 52.6061 52.6863Z" fill="#FCFDFD"/>
<path d="M119.789 34.5811H24.5317C24.1626 34.5811 23.8633 34.2807 23.8633 33.9136V0.670208C23.8633 0.300552 24.1626 0.000190735 24.5317 0.000190735H119.789C120.158 0.000190735 120.457 0.300552 120.457 0.670208V33.9136C120.457 34.2807 120.158 34.5811 119.789 34.5811Z" fill="#FCFDFD"/>
<path d="M95.3527 27.083H58.8791C58.3416 27.083 57.9067 26.6466 57.9067 26.1101C57.9067 25.5736 58.3416 25.1372 58.8791 25.1372H95.3527C95.89 25.1372 96.3248 25.5736 96.3248 26.1101C96.3248 26.6466 95.89 27.083 95.3527 27.083Z" fill="#090B0E"/>
<path d="M111.986 27.083H103.669C103.132 27.083 102.697 26.6466 102.697 26.1101C102.697 25.5736 103.132 25.1372 103.669 25.1372H111.986C112.523 25.1372 112.958 25.5736 112.958 26.1101C112.958 26.6466 112.523 27.083 111.986 27.083Z" fill="#090B0E"/>
<path d="M111.986 9.44434H70.3003C69.763 9.44434 69.3281 9.00793 69.3281 8.47141C69.3281 7.9349 69.763 7.50107 70.3003 7.50107H111.986C112.523 7.50107 112.958 7.9349 112.958 8.47141C112.958 9.00793 112.523 9.44434 111.986 9.44434Z" fill="#090B0E"/>
<path d="M64.0908 9.44434H58.8791C58.3416 9.44434 57.9067 9.00793 57.9067 8.47141C57.9067 7.9349 58.3416 7.50107 58.8791 7.50107H64.0908C64.6281 7.50107 65.0632 7.9349 65.0632 8.47141C65.0632 9.00793 64.6281 9.44434 64.0908 9.44434Z" fill="#090B0E"/>
<path d="M111.986 18.2617H81.0564C80.5191 18.2617 80.084 17.8279 80.084 17.2914C80.084 16.7549 80.5191 16.3185 81.0564 16.3185H111.986C112.523 16.3185 112.958 16.7549 112.958 17.2914C112.958 17.8279 112.523 18.2617 111.986 18.2617Z" fill="#090B0E"/>
<path d="M72.9618 18.2617H58.8791C58.3416 18.2617 57.9067 17.8279 57.9067 17.2914C57.9067 16.7549 58.3416 16.3185 58.8791 16.3185H72.9618C73.4993 16.3185 73.9342 16.7549 73.9342 17.2914C73.9342 17.8279 73.4993 18.2617 72.9618 18.2617Z" fill="#090B0E"/>
<path d="M46.0929 19.4457C45.8688 19.669 45.763 19.9873 45.8159 20.2902L46.6204 24.9828C46.7521 25.7606 45.9348 26.369 45.2227 25.9993L41.0166 23.784C40.7396 23.6377 40.3969 23.6377 40.1201 23.784L35.9138 25.9993C35.2017 26.369 34.3843 25.7606 34.5163 24.9828L35.3205 20.2902C35.3731 19.9873 35.2676 19.669 35.0435 19.4457L31.6417 16.1239C31.0749 15.5694 31.3914 14.5939 32.1689 14.4887L36.8761 13.8033C37.1927 13.7494 37.4568 13.5517 37.6016 13.2745L39.7112 9.0157C40.0539 8.29179 41.0828 8.29179 41.4252 9.0157L43.5348 13.2745C43.6799 13.5517 43.9438 13.7494 44.26 13.8033L48.9675 14.4887C49.7453 14.5939 50.0616 15.5694 49.4948 16.1239L46.0929 19.4457Z" fill="#FB3189"/>
<path d="M110.815 91.8164C110.278 91.8164 109.843 91.38 109.843 90.8435V67.5885C109.843 67.052 110.278 66.6182 110.815 66.6182C111.353 66.6182 111.788 67.052 111.788 67.5885V90.8435C111.788 91.38 111.353 91.8164 110.815 91.8164Z" fill="#090B0E"/>
<path d="M115.714 73.2285C115.465 73.2285 115.216 73.1335 115.027 72.9436L110.815 68.7336L106.604 72.9436C106.225 73.3235 105.609 73.3235 105.23 72.9436C104.85 72.5636 104.85 71.9501 105.23 71.5702L110.128 66.6722C110.508 66.2923 111.123 66.2923 111.503 66.6722L116.401 71.5702C116.781 71.9501 116.781 72.5636 116.401 72.9436C116.211 73.1335 115.963 73.2285 115.714 73.2285Z" fill="#090B0E"/>
<path d="M11.238 32.6963C10.7005 32.6963 10.2656 32.2625 10.2656 31.7259V8.47095C10.2656 7.93443 10.7005 7.5006 11.238 7.5006C11.7753 7.5006 12.2102 7.93443 12.2102 8.47095V31.7259C12.2102 32.2625 11.7753 32.6963 11.238 32.6963Z" fill="#090B0E"/>
<path d="M11.2379 32.9307C10.9794 32.9307 10.7327 32.828 10.5504 32.6457L5.65194 27.7452C5.27227 27.3653 5.27227 26.7518 5.65194 26.3718C6.03186 25.9919 6.64693 25.9919 7.02685 26.3718L11.2379 30.5818L15.4489 26.3718C15.8285 25.9919 16.4439 25.9919 16.8235 26.3718C17.2034 26.7518 17.2034 27.3653 16.8235 27.7452L11.9253 32.6457C11.7428 32.828 11.4961 32.9307 11.2379 32.9307Z" fill="#090B0E"/>
</svg>
