<svg width="128" height="120" viewBox="0 0 128 120" fill="none" xmlns="http://www.w3.org/2000/svg">
<path d="M105.649 10.0027V109.987C105.649 115.514 101.175 119.99 95.6485 119.99H18.7633C13.2397 119.99 8.7627 115.514 8.7627 109.987V10.0027C8.7627 4.50155 13.2397 9.91821e-05 18.7633 9.91821e-05H95.6485C101.175 9.91821e-05 105.649 4.50155 105.649 10.0027Z" fill="#FCFDFD"/>
<path d="M29.915 0.0134506H18.771C13.2474 0.0134506 8.77051 4.49135 8.77051 10.0161V109.998C8.77051 115.523 13.2474 120 18.771 120H29.915V0.0134506Z" fill="#FB3189"/>
<path d="M94.6307 56.9575H40.9335C40.4913 56.9575 40.1328 56.599 40.1328 56.1567V17.7138C40.1328 17.2715 40.4913 16.913 40.9335 16.913H94.6307C95.0729 16.913 95.4314 17.2715 95.4314 17.7138V56.1567C95.4314 56.599 95.0729 56.9575 94.6307 56.9575Z" fill="white"/>
<path d="M95.222 86.1018H52.4096C51.8627 86.1018 51.418 85.6569 51.418 85.1099C51.418 84.5629 51.8627 84.118 52.4096 84.118H95.222C95.7688 84.118 96.211 84.5629 96.211 85.1099C96.211 85.6569 95.7688 86.1018 95.222 86.1018Z" fill="#090B0E"/>
<path d="M46.3189 86.1018H40.3452C39.7957 86.1018 39.3535 85.6569 39.3535 85.1099C39.3535 84.5629 39.7957 84.118 40.3452 84.118H46.3189C46.8657 84.118 47.3079 84.5629 47.3079 85.1099C47.3079 85.6569 46.8657 86.1018 46.3189 86.1018Z" fill="#090B0E"/>
<path d="M90.5646 96.1616H66.2775C65.7307 96.1616 65.2859 95.7167 65.2859 95.1697C65.2859 94.6202 65.7307 94.1779 66.2775 94.1779H90.5646C91.114 94.1779 91.5563 94.6202 91.5563 95.1697C91.5563 95.7167 91.114 96.1616 90.5646 96.1616Z" fill="#090B0E"/>
<path d="M61.6102 96.1616H45.0002C44.4534 96.1616 44.0085 95.7167 44.0085 95.1697C44.0085 94.6202 44.4534 94.1779 45.0002 94.1779H61.6102C62.1597 94.1779 62.6019 94.6202 62.6019 95.1697C62.6019 95.7167 62.1597 96.1616 61.6102 96.1616Z" fill="#090B0E"/>
<path d="M83.4899 106.219H77.634C77.0845 106.219 76.6423 105.777 76.6423 105.227C76.6423 104.68 77.0845 104.235 77.634 104.235H83.4899C84.0367 104.235 84.479 104.68 84.479 105.227C84.479 105.777 84.0367 106.219 83.4899 106.219Z" fill="#090B0E"/>
<path d="M73.1957 106.219H52.0774C51.5279 106.219 51.0857 105.777 51.0857 105.227C51.0857 104.68 51.5279 104.235 52.0774 104.235H73.1957C73.7452 104.235 74.1874 104.68 74.1874 105.227C74.1874 105.777 73.7452 106.219 73.1957 106.219Z" fill="#090B0E"/>
<path d="M20.4958 21.5483H1.01544C0.730238 21.5483 0.5 21.3154 0.5 21.0302V14.2335C0.5 13.9482 0.730238 13.7179 1.01544 13.7179H20.4958C20.781 13.7179 21.0112 13.9482 21.0112 14.2335V21.0302C21.0112 21.3154 20.781 21.5483 20.4958 21.5483Z" fill="#47586E"/>
<path d="M20.4958 42.7368H1.01544C0.730238 42.7368 0.5 42.5039 0.5 42.2186V35.422C0.5 35.1367 0.730238 34.9064 1.01544 34.9064H20.4958C20.781 34.9064 21.0112 35.1367 21.0112 35.422V42.2186C21.0112 42.5039 20.781 42.7368 20.4958 42.7368Z" fill="#47586E"/>
<path d="M20.4958 63.9214H1.01544C0.730238 63.9214 0.5 63.6911 0.5 63.4058V56.6091C0.5 56.3239 0.730238 56.0936 1.01544 56.0936H20.4958C20.781 56.0936 21.0112 56.3239 21.0112 56.6091V63.4058C21.0112 63.6911 20.781 63.9214 20.4958 63.9214Z" fill="#47586E"/>
<path d="M20.4958 85.1099H1.01544C0.730238 85.1099 0.5 84.8796 0.5 84.5943V77.7976C0.5 77.5124 0.730238 77.2794 1.01544 77.2794H20.4958C20.781 77.2794 21.0112 77.5124 21.0112 77.7976V84.5943C21.0112 84.8796 20.781 85.1099 20.4958 85.1099Z" fill="#47586E"/>
<path d="M20.4958 106.297H1.01544C0.730238 106.297 0.5 106.067 0.5 105.782V98.9851C0.5 98.6999 0.730238 98.467 1.01544 98.467H20.4958C20.781 98.467 21.0112 98.6999 21.0112 98.9851V105.782C21.0112 106.067 20.781 106.297 20.4958 106.297Z" fill="#47586E"/>
<path d="M55.67 36.4183C54.9609 36.1409 54.0189 35.8609 52.8624 35.5808C52.0094 35.3845 51.3291 35.1987 50.8424 35.0286C50.4028 34.8742 50.0339 34.657 49.7461 34.3822C49.508 34.1519 49.3928 33.8561 49.3928 33.474C49.3928 32.8695 49.6571 32.4272 50.2223 32.0844C50.8529 31.7023 51.698 31.5086 52.7316 31.5086C53.8619 31.5086 54.974 31.697 56.0128 32.0529C56.2142 32.1341 56.3843 32.176 56.5335 32.176C56.9338 32.176 57.2792 32.0189 57.5278 31.7232C57.7606 31.451 57.8783 31.1343 57.8783 30.7889C57.8783 30.1529 57.5513 29.6844 56.9625 29.4725C55.6385 28.9831 54.1419 28.7371 52.517 28.7371C51.2742 28.7371 50.1909 28.9517 49.2934 29.373C48.3776 29.8022 47.6685 30.3963 47.1896 31.137C46.7108 31.8802 46.4675 32.7177 46.4675 33.6258C46.4675 34.6779 46.771 35.5416 47.3702 36.188C47.9354 36.8004 48.6157 37.2636 49.3954 37.5672C50.1281 37.8551 51.0936 38.1508 52.2658 38.457C53.124 38.6821 53.7887 38.8758 54.2492 39.0354C54.66 39.1794 55.0054 39.3756 55.2775 39.6164C55.4973 39.8127 55.5993 40.0378 55.5993 40.3309C55.5993 41.1815 55.2592 42.3173 52.3234 42.3173C50.8947 42.3173 49.5367 42.0346 48.286 41.4772C47.7418 41.239 47.0902 41.349 46.6899 41.7755C46.4466 42.0451 46.3184 42.3775 46.3184 42.7386C46.3184 43.0213 46.4047 43.2909 46.5748 43.5421C46.7422 43.7803 46.9568 43.9556 47.2132 44.0629C48.8564 44.7747 50.6409 45.1333 52.517 45.1333C53.6657 45.1333 54.6966 44.9396 55.5888 44.5575C56.4968 44.165 57.2164 43.6075 57.724 42.9009C58.2395 42.1838 58.5011 41.362 58.5011 40.4591C58.5011 39.3704 58.2133 38.4832 57.6428 37.8211C57.096 37.1903 56.434 36.7166 55.67 36.4183Z" fill="#090B0E"/>
<path d="M70.6079 31.7449C70.9926 31.7449 71.3275 31.614 71.5996 31.3523C71.8717 31.0906 72.0156 30.7477 72.0156 30.3604C72.0156 29.9731 71.8744 29.6276 71.6049 29.3607C71.3354 29.0937 70.9899 28.9524 70.6079 28.9524H61.9916C61.5886 28.9524 61.2328 29.1016 60.9554 29.3895C60.6859 29.6695 60.542 30.028 60.542 30.4232V43.4696C60.542 43.8674 60.6859 44.2233 60.9606 44.4981C61.238 44.7729 61.5939 44.9194 61.9916 44.9194H70.6079C70.9926 44.9194 71.3275 44.7886 71.597 44.5269C71.8717 44.2678 72.0156 43.9223 72.0156 43.5324C72.0156 43.1476 71.8744 42.8022 71.6049 42.5326C71.3354 42.2657 70.9899 42.1244 70.6079 42.1244H63.4621V38.3217H69.8334C70.2181 38.3217 70.553 38.1908 70.8251 37.9291C71.0972 37.6674 71.2438 37.3246 71.2438 36.9346C71.2438 36.5499 71.1025 36.2044 70.833 35.9375C70.5635 35.6679 70.2181 35.5266 69.8334 35.5266H63.4621V31.7449H70.6079Z" fill="#090B0E"/>
<path d="M81.223 42.3382C80.1606 42.3382 79.237 42.1027 78.4782 41.6368C77.722 41.171 77.1333 40.5272 76.7329 39.729C76.3248 38.9098 76.1207 37.9676 76.1207 36.9339C76.1207 35.8975 76.3248 34.9579 76.7329 34.1414C77.1333 33.3406 77.722 32.6968 78.4782 32.2309C79.2344 31.7651 80.158 31.5295 81.223 31.5295C82.2722 31.5295 83.1933 31.765 83.9547 32.2335C84.7187 32.6994 85.3101 33.3406 85.7104 34.1414C86.1186 34.9579 86.3253 35.8975 86.3253 36.9339C86.3253 37.9676 86.1186 38.9098 85.7104 39.7263C85.3022 40.5403 84.7292 41.1631 83.9547 41.6342C83.1906 42.1027 82.2722 42.3382 81.223 42.3382ZM88.2144 32.7203C87.5498 31.4772 86.6053 30.4905 85.4095 29.7891C84.2137 29.0878 82.8034 28.7371 81.223 28.7371C79.6373 28.7371 78.227 29.0878 77.0234 29.7891C75.8171 30.4905 74.8752 31.4746 74.221 32.7098C73.5695 33.9346 73.2267 35.3531 73.1953 36.9443C73.2267 38.5172 73.5695 39.9357 74.221 41.1579C74.8752 42.3958 75.8198 43.3772 77.0234 44.0786C78.2244 44.78 79.6373 45.1333 81.223 45.1333C82.806 45.1333 84.2137 44.78 85.4095 44.0786C86.6053 43.3772 87.5498 42.3906 88.2144 41.15C88.8712 39.9174 89.2166 38.5041 89.248 36.926C89.2166 35.3662 88.8712 33.953 88.2144 32.7203Z" fill="#090B0E"/>
<path d="M127.158 40.8698L104.574 94.772L86.4333 87.2818L109.017 33.3796C109.969 31.0739 112.625 29.9695 114.93 30.9221L124.701 34.9525C127.006 35.9051 128.11 38.5615 127.158 40.8698Z" fill="#3275C6"/>
<path d="M104.574 94.7717L95.2224 103.717L91.0595 107.682C89.5131 109.158 86.9645 108.106 86.9095 105.97L86.7552 100.223L86.4333 87.2815L104.574 94.7717Z" fill="#A3ADBB"/>
<path d="M95.2218 103.717L91.0589 107.682C89.5125 109.158 86.9639 108.106 86.909 105.97L86.7546 100.223C88.3036 99.9012 89.9547 100.016 91.5351 100.671C93.0972 101.314 94.3688 102.406 95.2218 103.717Z" fill="#47586E"/>
<path d="M98.278 92.1724L92.7283 89.8798L111.984 44.0436L117.536 46.3335L98.278 92.1724Z" fill="#FB3189"/>
<path d="M122.872 51.2603L127.158 40.8703C128.11 38.562 127.006 35.9056 124.701 34.953L114.931 30.9226C112.625 29.97 109.97 31.0744 109.017 33.3801L104.731 43.7727L122.872 51.2603Z" fill="white"/>
<path d="M127.157 40.8703L124.723 46.7693L106.583 39.2817L109.016 33.3801C109.969 31.0744 112.624 29.97 114.93 30.9226L124.7 34.953C127.005 35.9056 128.109 38.562 127.157 40.8703Z" fill="#47586E"/>
</svg>
