<svg width="44" height="44" viewBox="0 0 44 44" fill="none" xmlns="http://www.w3.org/2000/svg">
<path d="M15.1172 34.4971C17.5185 34.4971 19.7692 35.0957 21.7944 36.0684C20.5196 40.4833 18.0435 43.4016 15.1928 43.4764H15.1172V34.4971Z" fill="#079CFF"/>
<path d="M8.43984 36.1388C9.71464 40.5536 12.1908 43.4719 15.0415 43.5468C10.9145 43.5468 7.1643 41.8257 4.53906 39.0571L4.61322 38.9822C5.66331 37.8598 6.93886 36.887 8.43984 36.1388Z" fill="#079CFF"/>
<path d="M15.1159 28.9615V34.4988C12.7161 34.4988 10.4654 35.0974 8.44007 36.0702C7.83938 33.975 7.46484 31.5057 7.46484 28.8867L15.1159 28.9615Z" fill="#079CFF"/>
<path d="M22.7682 28.9606H29.7451C29.7451 32.8516 28.1692 36.4434 25.6937 39.0624C24.5688 37.8651 23.2183 36.8924 21.793 36.1441C22.3929 33.9741 22.7682 31.5796 22.7682 28.9606Z" fill="#079CFF"/>
<path d="M15.1914 14.3692C19.3176 14.3692 23.0686 16.0903 25.6938 18.8589C24.5688 20.0562 23.2184 21.0289 21.793 21.7772C20.4426 17.4372 18.0421 14.4441 15.1914 14.3692Z" fill="#079CFF"/>
<path d="M22.7697 28.9647H15.1172V23.4274C17.5185 23.4274 19.7692 22.8288 21.7944 21.856C22.3944 23.9512 22.7697 26.3457 22.7697 28.9647Z" fill="#079CFF"/>
<path d="M8.44036 21.7812C7.83967 23.8764 7.46514 26.3457 7.46514 28.9647H0.488281C0.488281 25.0737 2.06341 21.4819 4.53959 18.8629C5.58968 20.0602 6.93938 21.0329 8.44036 21.7812Z" fill="#079CFF"/>
<path d="M15.1153 14.3675V23.4218C12.7155 23.4218 10.4647 22.8231 8.43945 21.8504C9.71425 17.4355 12.1904 14.5172 15.0411 14.4424C15.0411 14.3675 15.0411 14.3675 15.1153 14.3675Z" fill="#079CFF"/>
<path d="M25.6938 39.0571C23.0686 41.8257 19.3176 43.5468 15.1914 43.5468C18.0421 43.4719 20.4426 40.4788 21.793 36.1388C23.2184 36.887 24.5688 37.8598 25.6938 39.0571Z" fill="#5CBEFF"/>
<path d="M15.1153 34.4925V43.5468H15.0411C12.1904 43.4719 9.78989 40.4788 8.43945 36.1388C10.3891 35.0912 12.6406 34.4925 15.1153 34.4925Z" fill="#5CBEFF"/>
<path d="M15.1172 28.957H22.7697C22.7697 31.576 22.3944 33.9705 21.7944 36.1405C19.7692 35.0929 17.5185 34.5691 15.1172 34.5691V28.957Z" fill="#5CBEFF"/>
<path d="M7.39162 28.9606C7.39162 31.5796 7.76612 33.9741 8.36681 36.1441C6.94073 36.8924 5.59104 37.8651 4.46531 38.9875L4.39039 39.0624C1.91496 36.4434 0.339844 32.9265 0.339844 28.9606H7.39162Z" fill="#5CBEFF"/>
<path d="M35.5973 0.448793C40.0224 0.448793 43.5487 4.04055 43.5487 8.38059C43.5487 12.7955 39.9483 16.3124 35.5973 16.3124H28.0198L30.5701 14.5165C28.7702 13.0948 27.6445 10.8499 27.6445 8.38059C27.6445 4.04055 31.2449 0.448793 35.5973 0.448793Z" fill="#2A428C"/>
<path d="M30.2959 7.60495C30.2508 7.83654 30.2282 7.95237 30.3004 8.04013C30.3726 8.12793 30.498 8.12793 30.7488 8.12793H32.523C32.7402 8.12793 32.8488 8.12793 32.9181 8.06366C32.9873 7.99938 32.9957 7.88781 33.0126 7.66471C33.0895 6.64951 33.2882 5.72851 33.578 5.00084C33.7599 4.54429 33.9993 4.08929 34.354 3.74231C34.5055 3.59409 34.5812 3.51999 34.5639 3.48798C34.5465 3.45597 34.4502 3.47757 34.2576 3.52077C32.2568 3.96945 30.6914 5.57678 30.2959 7.60495Z" fill="white"/>
<path d="M30.7488 9.09766C30.498 9.09766 30.3726 9.09766 30.3004 9.18546C30.2282 9.27322 30.2508 9.38905 30.2959 9.62066C30.6914 11.6488 32.2568 13.2561 34.2575 13.7047C34.4501 13.7479 34.5464 13.7695 34.5637 13.7375C34.5811 13.7055 34.5054 13.6314 34.3539 13.4833C33.9993 13.1363 33.7598 12.6813 33.578 12.2248C33.2881 11.4971 33.0895 10.5761 33.0126 9.56093C32.9957 9.33778 32.9873 9.22621 32.918 9.16193C32.8488 9.09766 32.7402 9.09766 32.523 9.09766H30.7488Z" fill="white"/>
<path d="M36.433 13.4838C36.2815 13.6319 36.2058 13.706 36.2231 13.738C36.2405 13.77 36.3367 13.7484 36.5293 13.7054C38.5314 13.2576 40.0981 11.6497 40.4938 9.62066C40.5389 9.38905 40.5615 9.27322 40.4893 9.18546C40.4171 9.09766 40.2917 9.09766 40.0409 9.09766H38.2645C38.0473 9.09766 37.9387 9.09766 37.8695 9.16193C37.8002 9.22621 37.7918 9.33778 37.7749 9.56093C37.698 10.5761 37.4994 11.4971 37.2095 12.2248C37.0276 12.6815 36.7879 13.1368 36.433 13.4838Z" fill="white"/>
<path d="M40.0411 8.12842C40.2919 8.12842 40.4173 8.12842 40.4895 8.04062C40.5616 7.95286 40.5391 7.83703 40.4939 7.60544C40.0983 5.57629 38.5315 3.96838 36.5293 3.5206C36.3368 3.47753 36.2404 3.45599 36.2231 3.488C36.2058 3.52002 36.2816 3.59408 36.4331 3.74221C36.7881 4.08925 37.0277 4.54453 37.2096 5.00133C37.4995 5.729 37.6982 6.65 37.775 7.6652C37.792 7.8883 37.8004 7.99987 37.8696 8.06415C37.9388 8.12842 38.0474 8.12842 38.2646 8.12842H40.0411Z" fill="white"/>
<g opacity="0.4">
<path d="M36.3218 5.4087C36.5607 5.99484 36.7385 6.76337 36.8156 7.637C36.8358 7.86527 36.8459 7.97942 36.7739 8.05695C36.702 8.13452 36.5824 8.13452 36.3433 8.13452H34.448C34.2089 8.13452 34.0894 8.13452 34.0174 8.05695C33.9455 7.97942 33.9555 7.86527 33.9757 7.637C34.0528 6.76337 34.2306 5.99484 34.4695 5.4087C34.6324 5.00933 34.8141 4.71822 34.9909 4.53478C35.1667 4.35235 35.3037 4.30859 35.3957 4.30859C35.4876 4.30859 35.6246 4.35235 35.8004 4.53478C35.9772 4.71822 36.1589 5.00933 36.3218 5.4087Z" fill="white"/>
<path d="M34.4695 11.8157C34.2306 11.2295 34.0528 10.461 33.9757 9.58736C33.9555 9.35909 33.9455 9.24494 34.0174 9.16741C34.0894 9.08984 34.2089 9.08984 34.448 9.08984H36.3433C36.5824 9.08984 36.702 9.08984 36.7739 9.16741C36.8459 9.24494 36.8358 9.35909 36.8156 9.58736C36.7385 10.461 36.5607 11.2295 36.3218 11.8157C36.1589 12.215 35.9772 12.5062 35.8004 12.6896C35.6246 12.872 35.4876 12.9158 35.3957 12.9158C35.3037 12.9158 35.1667 12.872 34.9909 12.6896C34.8141 12.5062 34.6324 12.215 34.4695 11.8157Z" fill="white"/>
</g>
<path d="M37.4737 29.4887C39.0481 29.4887 40.3251 30.7615 40.3251 32.3322C40.3251 33.9021 39.0481 35.1757 37.4737 35.1757C35.8993 35.1757 34.623 33.9021 34.623 32.3322C34.623 30.7615 35.8993 29.4887 37.4737 29.4887Z" fill="#70F2A4"/>
<path d="M29.7451 28.9647H22.7682C22.7682 26.3457 22.3929 23.9512 21.793 21.7812C23.2183 21.0329 24.5688 20.0602 25.6937 18.8629C28.1692 21.4819 29.7451 25.0737 29.7451 28.9647Z" fill="#5CBEFF"/>
<path d="M21.7944 21.78C19.7692 22.8276 17.5185 23.3514 15.1172 23.3514V14.3721H15.1928C18.0435 14.4469 20.444 17.44 21.7944 21.78Z" fill="#5CBEFF"/>
<path d="M15.1165 23.4274V28.9647H7.39062C7.39062 26.3457 7.76512 23.9512 8.36581 21.7812C10.3904 22.8288 12.6418 23.4274 15.1165 23.4274Z" fill="#5CBEFF"/>
<path d="M14.9653 14.3692C12.1154 14.4441 9.71409 17.4372 8.36439 21.7772C6.93831 21.0289 5.58863 20.0562 4.46289 18.8589C7.16377 16.0903 10.8398 14.3692 14.9653 14.3692Z" fill="#5CBEFF"/>
<path d="M7.46468 2.84821C9.03833 2.84821 10.3154 4.12104 10.3154 5.69168C10.3154 7.26233 9.03833 8.53516 7.46468 8.53516C5.89028 8.53516 4.61328 7.26233 4.61328 5.69168C4.61328 4.12104 5.89028 2.84821 7.46468 2.84821Z" fill="#70F2A4"/>
<path d="M39.1248 21.1061C39.4971 21.1061 39.7997 21.4077 39.7997 21.7795C39.7997 22.1514 39.4971 22.453 39.1248 22.453C38.7518 22.453 38.4492 22.1514 38.4492 21.7795C38.4492 21.4077 38.7518 21.1061 39.1248 21.1061Z" fill="#081120"/>
<path d="M32.0733 38.4694C32.4463 38.4694 32.7481 38.7709 32.7481 39.1428C32.7481 39.514 32.4463 39.8163 32.0733 39.8163C31.7003 39.8163 31.3984 39.514 31.3984 39.1428C31.3984 38.7709 31.7003 38.4694 32.0733 38.4694Z" fill="#081120"/>
<path d="M22.2452 9.87965C22.6182 9.87965 22.92 10.1812 22.92 10.5531C22.92 10.925 22.6182 11.2266 22.2452 11.2266C21.8721 11.2266 21.5703 10.925 21.5703 10.5531C21.5703 10.1812 21.8721 9.87965 22.2452 9.87965Z" fill="#081120"/>
<path d="M16.1659 2.39919C16.5381 2.39919 16.8414 2.70074 16.8414 3.07264C16.8414 3.44454 16.5381 3.74609 16.1659 3.74609C15.7936 3.74609 15.4902 3.44454 15.4902 3.07264C15.4902 2.70074 15.7936 2.39919 16.1659 2.39919Z" fill="#081120"/>
<path d="M1.61312 14.5946C1.98614 14.5946 2.2887 14.8962 2.2887 15.2681C2.2887 15.64 1.98614 15.9415 1.61312 15.9415C1.24084 15.9415 0.9375 15.64 0.9375 15.2681C0.9375 14.8962 1.24084 14.5946 1.61312 14.5946Z" fill="#081120"/>
<path d="M23.2189 28.5106C23.2189 26.2658 22.8436 24.0209 22.3186 22.0754C23.5193 21.402 24.6443 20.5789 25.6944 19.6061C27.9452 22.0754 29.1452 25.2182 29.2957 28.5106H23.2189ZM22.0182 36.8164C23.0691 37.4151 24.1192 38.1633 25.0195 39.0613C23.144 40.8571 20.9681 42.1292 18.4926 42.7278C20.2176 41.2313 21.3434 38.9116 22.0182 36.8164ZM8.13961 36.8164C8.81448 38.9116 10.0152 41.2313 11.7409 42.7278C9.26538 42.1292 7.0146 40.8571 5.21395 39.0613C6.03863 38.1633 7.01457 37.4151 8.13961 36.8164ZM8.13961 21.1027C7.08948 20.5041 6.03863 19.7558 5.1383 18.8579C7.01459 17.062 9.26538 15.7899 11.6653 15.1913C9.94025 16.6879 8.81448 19.0075 8.13961 21.1027ZM22.0182 21.1027C21.3434 19.0075 20.1434 16.6879 18.4177 15.1913C20.894 15.7899 23.144 17.062 24.9439 18.8579C24.1192 19.7558 23.144 20.5041 22.0182 21.1027ZM15.5669 28.5106V23.8713C17.6672 23.7965 19.6184 23.3475 21.4932 22.4496C22.0182 24.3203 22.2437 26.3406 22.3186 28.5106H15.5669ZM21.4932 35.4695C19.6184 34.5716 17.6672 34.1227 15.5669 34.0478V29.4085H22.3186C22.2437 31.5037 21.9441 33.5989 21.4932 35.4695ZM15.5669 43.0271V35.0206C17.5173 35.0954 19.4678 35.5444 21.1935 36.3675C19.9936 40.2585 17.8177 42.7278 15.5669 43.0271ZM14.5909 35.0206V43.1019C12.266 42.8026 10.1657 40.3333 8.96502 36.4423C10.7649 35.5444 12.6412 35.0206 14.5909 35.0206ZM14.5909 29.4085V34.0478C12.4907 34.1227 10.541 34.5716 8.66468 35.4695C8.13961 33.5989 7.91491 31.5785 7.83927 29.4085H14.5909ZM8.7396 22.4496C10.6151 23.3475 12.5656 23.7965 14.6666 23.8713V28.5106H7.91491C7.91491 26.4154 8.21453 24.3203 8.7396 22.4496ZM14.5909 14.892V22.9734C12.6412 22.8985 10.6908 22.4496 8.96502 21.6265C10.2399 17.6606 12.3409 15.1913 14.5909 14.892ZM15.5669 14.892C17.8926 15.1913 19.9936 17.6606 21.1935 21.5516C19.3929 22.3747 17.5173 22.8237 15.5669 22.8985V14.892ZM4.53907 19.5313C5.51356 20.5041 6.63933 21.3272 7.91491 22.0006C7.38985 24.0209 7.08948 26.1909 7.01458 28.4358H1.01266C1.01266 25.1434 2.28826 22.0006 4.53907 19.5313ZM0.937014 29.4085H6.93893C6.93893 31.6533 7.3142 33.8982 7.83927 35.8437C6.63933 36.5171 5.51355 37.3402 4.46342 38.313C2.28826 35.9185 1.01266 32.7758 0.937014 29.4085ZM25.6203 38.3878C24.6443 37.4151 23.5193 36.592 22.2437 35.9185C22.7688 33.8982 23.0691 31.7282 23.144 29.4833H29.1452C29.1452 32.7758 27.8703 35.9185 25.6203 38.3878ZM15.116 13.9192C10.765 13.9192 6.93894 15.7151 4.16381 18.5585C-1.38794 24.3951 -1.38794 33.524 4.16381 39.3606C7.01458 42.3537 10.9148 43.9999 15.116 43.9999C19.2431 43.9999 23.144 42.3537 26.0697 39.3606C31.6207 33.524 31.6207 24.3951 26.0697 18.5585C23.0691 15.4906 19.0933 13.9192 15.116 13.9192Z" fill="#081120"/>
<path d="M35.599 15.863H29.5216L30.8728 14.8903C31.0968 14.7406 31.1724 14.3665 30.8728 14.142C29.1464 12.7203 28.0963 10.6251 28.0963 8.3054C28.0963 4.18984 31.472 0.822575 35.599 0.822575C39.7244 0.822575 43.1001 4.18984 43.1001 8.3054C43.1001 12.4209 39.7244 15.863 35.599 15.863ZM35.599 -0.000535965C30.9469 -0.000535965 27.1211 3.74088 27.1211 8.45505C27.1211 10.7747 28.0963 13.0196 29.7471 14.591L27.6461 16.0127C27.4963 16.1624 27.4214 16.312 27.4963 16.5365C27.5712 16.761 27.7218 16.8358 27.9465 16.8358H35.5233C40.1746 16.8358 44.0004 13.0944 44.0004 8.38023C44.0004 3.66605 40.2495 -0.000535965 35.599 -0.000535965Z" fill="#081120"/>
<path d="M7.46487 3.36835C8.73966 3.36835 9.79052 4.41595 9.79052 5.68803C9.79052 6.96011 8.73966 8.0077 7.46487 8.0077C6.18933 8.0077 5.13852 6.96011 5.13852 5.68803C5.13852 4.41595 6.18933 3.36835 7.46487 3.36835ZM7.46487 8.98047C9.26545 8.98047 10.7649 7.4839 10.7649 5.68803C10.7649 3.89215 9.26545 2.39558 7.46487 2.39558C5.66354 2.39558 4.16406 3.89215 4.16406 5.68803C4.16406 7.4839 5.66354 8.98047 7.46487 8.98047Z" fill="#081120"/>
<path d="M37.4727 34.6443C36.1972 34.6443 35.1471 33.5967 35.1471 32.3246C35.1471 31.0525 36.1972 30.0049 37.4727 30.0049C38.7483 30.0049 39.7983 31.0525 39.7983 32.3246C39.8732 33.5967 38.7483 34.6443 37.4727 34.6443ZM37.4727 29.0322C35.6721 29.0322 34.1719 30.5287 34.1719 32.3246C34.1719 34.1205 35.6721 35.6171 37.4727 35.6171C39.2733 35.6171 40.7735 34.1205 40.7735 32.3246C40.7735 30.5287 39.2733 29.0322 37.4727 29.0322Z" fill="#081120"/>
</svg>
