<svg width="119" height="120" viewBox="0 0 119 120" fill="none" xmlns="http://www.w3.org/2000/svg">
<path d="M71.7326 96.6805L75.751 114.023H42.7908L46.8092 96.6805H71.7326Z" fill="#FCFDFD"/>
<path d="M83.9034 119.069V118.017C83.9034 114.91 81.3829 112.389 78.2761 112.389H40.2652C37.1584 112.389 34.6379 114.91 34.6379 118.017V119.069H83.9034Z" fill="#47586E"/>
<path d="M96.6955 120H21.8464C21.3314 120 20.915 119.584 20.915 119.069C20.915 118.551 21.3314 118.135 21.8464 118.135H96.6955C97.2104 118.135 97.6268 118.551 97.6268 119.069C97.6268 119.584 97.2104 120 96.6955 120Z" fill="#090B0E"/>
<path d="M118.541 12.4296V85.6008C118.541 92.4649 112.976 98.0305 106.112 98.0305H12.4297C5.56566 98.0305 0 92.4649 0 85.6008V12.4296C0 5.56557 5.56566 -7.62939e-05 12.4297 -7.62939e-05H106.112C112.976 -7.62939e-05 118.541 5.56557 118.541 12.4296Z" fill="#FB3189"/>
<path d="M109.798 13.6444V73.0605C109.798 75.3493 107.942 77.2046 105.656 77.2046H12.8855C10.5991 77.2046 8.7439 75.3493 8.7439 73.0605V13.6444C8.7439 11.3556 10.5991 9.50041 12.8855 9.50041H105.656C107.942 9.50041 109.798 11.3556 109.798 13.6444Z" fill="white"/>
<path d="M63.3509 87.6163C63.3509 89.8583 61.5129 91.6987 59.2709 91.6987C57.0141 91.6987 55.1909 89.8583 55.1909 87.6163C55.1909 85.3595 57.0141 83.5363 59.2709 83.5363C61.5129 83.5363 63.3509 85.3595 63.3509 87.6163Z" fill="#47586E"/>
<path d="M22.5064 17.3547H16.6278C16.1104 17.3547 15.6941 16.9359 15.6941 16.421C15.6941 15.9061 16.1104 15.4872 16.6278 15.4872H22.5064C23.0213 15.4872 23.4401 15.9061 23.4401 16.421C23.4401 16.9359 23.0213 17.3547 22.5064 17.3547Z" fill="#090B0E"/>
<path d="M46.3386 17.3547H27.8505C27.3331 17.3547 26.9167 16.9359 26.9167 16.421C26.9167 15.9061 27.3331 15.4872 27.8505 15.4872H46.3386C46.8535 15.4872 47.2723 15.9061 47.2723 16.421C47.2723 16.9359 46.8535 17.3547 46.3386 17.3547Z" fill="#090B0E"/>
<path d="M36.6141 25.1057H23.2531C22.7382 25.1057 22.3193 24.6869 22.3193 24.1719C22.3193 23.657 22.7382 23.2382 23.2531 23.2382H36.6141C37.129 23.2382 37.5479 23.657 37.5479 24.1719C37.5479 24.6869 37.129 25.1057 36.6141 25.1057Z" fill="#090B0E"/>
<path d="M42.8351 25.1057H40.2014C39.684 25.1057 39.2676 24.6869 39.2676 24.1719C39.2676 23.657 39.684 23.2382 40.2014 23.2382H42.8351C43.3525 23.2382 43.7689 23.657 43.7689 24.1719C43.7689 24.6869 43.3525 25.1057 42.8351 25.1057Z" fill="#090B0E"/>
<path d="M63.9863 25.1057H47.0873C46.5699 25.1057 46.1536 24.6869 46.1536 24.1719C46.1536 23.657 46.5699 23.2382 47.0873 23.2382H63.9863C64.5012 23.2382 64.9201 23.657 64.9201 24.1719C64.9201 24.6869 64.5012 25.1057 63.9863 25.1057Z" fill="#090B0E"/>
<path d="M41.8495 31.1101H22.5065C21.9916 31.1101 21.5728 30.6937 21.5728 30.1763C21.5728 29.6614 21.9916 29.2451 22.5065 29.2451H41.8495C42.3644 29.2451 42.7833 29.6614 42.7833 30.1763C42.7833 30.6937 42.3644 31.1101 41.8495 31.1101Z" fill="#090B0E"/>
<path d="M65.684 31.1101H46.3386C45.8236 31.1101 45.4048 30.6937 45.4048 30.1763C45.4048 29.6614 45.8236 29.2451 46.3386 29.2451H65.684C66.199 29.2451 66.6178 29.6614 66.6178 30.1763C66.6178 30.6937 66.199 31.1101 65.684 31.1101Z" fill="#090B0E"/>
<path d="M80.6465 31.1101H70.1459C69.6285 31.1101 69.2122 30.6937 69.2122 30.1763C69.2122 29.6614 69.6285 29.2451 70.1459 29.2451H80.6465C81.1614 29.2451 81.5802 29.6614 81.5802 30.1763C81.5802 30.6937 81.1614 31.1101 80.6465 31.1101Z" fill="#090B0E"/>
<path d="M94.648 31.1101H88.3408C87.8258 31.1101 87.407 30.6937 87.407 30.1763C87.407 29.6614 87.8258 29.2451 88.3408 29.2451H94.648C95.1629 29.2451 95.5793 29.6614 95.5793 30.1763C95.5793 30.6937 95.1629 31.1101 94.648 31.1101Z" fill="#090B0E"/>
<path d="M101.914 31.1101H98.3878C97.8729 31.1101 97.4541 30.6937 97.4541 30.1763C97.4541 29.6614 97.8729 29.2451 98.3878 29.2451H101.914C102.431 29.2451 102.847 29.6614 102.847 30.1763C102.847 30.6937 102.431 31.1101 101.914 31.1101Z" fill="#090B0E"/>
<path d="M32.1768 37.1165H22.5065C21.9916 37.1165 21.5728 36.6976 21.5728 36.1827C21.5728 35.6678 21.9916 35.2514 22.5065 35.2514H32.1768C32.6942 35.2514 33.1105 35.6678 33.1105 36.1827C33.1105 36.6976 32.6942 37.1165 32.1768 37.1165Z" fill="#090B0E"/>
<path d="M60.7662 37.1165H36.614C36.0966 37.1165 35.6802 36.6976 35.6802 36.1827C35.6802 35.6678 36.0966 35.2514 36.614 35.2514H60.7662C61.2836 35.2514 61.7 35.6678 61.7 36.1827C61.7 36.6976 61.2836 37.1165 60.7662 37.1165Z" fill="#090B0E"/>
<path d="M80.6463 37.1165H64.4003C63.8854 37.1165 63.4666 36.6976 63.4666 36.1827C63.4666 35.6678 63.8854 35.2514 64.4003 35.2514H80.6463C81.1613 35.2514 81.5801 35.6678 81.5801 36.1827C81.5801 36.6976 81.1613 37.1165 80.6463 37.1165Z" fill="#090B0E"/>
<path d="M94.6478 37.1165H85.9902C85.4728 37.1165 85.0564 36.6976 85.0564 36.1827C85.0564 35.6678 85.4728 35.2514 85.9902 35.2514H94.6478C95.1628 35.2514 95.5791 35.6678 95.5791 36.1827C95.5791 36.6976 95.1628 37.1165 94.6478 37.1165Z" fill="#090B0E"/>
<path d="M26.5669 44.6729H23.2531C22.7382 44.6729 22.3193 44.2565 22.3193 43.7391C22.3193 43.2241 22.7382 42.8053 23.2531 42.8053H26.5669C27.0818 42.8053 27.5006 43.2241 27.5006 43.7391C27.5006 44.2565 27.0818 44.6729 26.5669 44.6729Z" fill="#090B0E"/>
<path d="M51.7884 44.6729H30.1467C29.6317 44.6729 29.2129 44.2565 29.2129 43.7391C29.2129 43.2241 29.6317 42.8053 30.1467 42.8053H51.7884C52.3058 42.8053 52.7221 43.2241 52.7221 43.7391C52.7221 44.2565 52.3058 44.6729 51.7884 44.6729Z" fill="#090B0E"/>
<path d="M57.4551 44.6729H54.5675C54.0526 44.6729 53.6362 44.2565 53.6362 43.7391C53.6362 43.2241 54.0526 42.8053 54.5675 42.8053H57.4551C57.97 42.8053 58.3863 43.2241 58.3863 43.7391C58.3863 44.2565 57.97 44.6729 57.4551 44.6729Z" fill="#090B0E"/>
<path d="M69.424 44.6729H61.7297C61.2123 44.6729 60.7959 44.2565 60.7959 43.7391C60.7959 43.2241 61.2123 42.8053 61.7297 42.8053H69.424C69.9414 42.8053 70.3577 43.2241 70.3577 43.7391C70.3577 44.2565 69.9414 44.6729 69.424 44.6729Z" fill="#090B0E"/>
<path d="M29.7229 51.5837H26.8378C26.3229 51.5837 25.9041 51.1649 25.9041 50.65C25.9041 50.135 26.3229 49.7162 26.8378 49.7162H29.7229C30.2403 49.7162 30.6567 50.135 30.6567 50.65C30.6567 51.1649 30.2403 51.5837 29.7229 51.5837Z" fill="#090B0E"/>
<path d="M39.642 51.5837H34.4213C33.9064 51.5837 33.49 51.1649 33.49 50.65C33.49 50.135 33.9064 49.7162 34.4213 49.7162H39.642C40.157 49.7162 40.5733 50.135 40.5733 50.65C40.5733 51.1649 40.157 51.5837 39.642 51.5837Z" fill="#090B0E"/>
<path d="M59.0218 51.5837H45.4662C44.9488 51.5837 44.5325 51.1649 44.5325 50.65C44.5325 50.135 44.9488 49.7162 45.4662 49.7162H59.0218C59.5368 49.7162 59.9531 50.135 59.9531 50.65C59.9531 51.1649 59.5368 51.5837 59.0218 51.5837Z" fill="#090B0E"/>
<path d="M41.8497 58.0413H33.0344C32.517 58.0413 32.1006 57.6224 32.1006 57.1075C32.1006 56.5926 32.517 56.1762 33.0344 56.1762H41.8497C42.3646 56.1762 42.7835 56.5926 42.7835 57.1075C42.7835 57.6224 42.3646 58.0413 41.8497 58.0413Z" fill="#090B0E"/>
<path d="M58.209 58.0413H46.2794C45.762 58.0413 45.3457 57.6224 45.3457 57.1075C45.3457 56.5926 45.762 56.1762 46.2794 56.1762H58.209C58.7239 56.1762 59.1428 56.5926 59.1428 57.1075C59.1428 57.6224 58.7239 58.0413 58.209 58.0413Z" fill="#090B0E"/>
<path d="M68.4731 58.0413H63.0356C62.5206 58.0413 62.1042 57.6224 62.1042 57.1075C62.1042 56.5926 62.5206 56.1762 63.0356 56.1762H68.4731C68.988 56.1762 69.4068 56.5926 69.4068 57.1075C69.4068 57.6224 68.988 58.0413 68.4731 58.0413Z" fill="#090B0E"/>
<path d="M75.6227 58.0413H72.1315C71.6166 58.0413 71.1978 57.6224 71.1978 57.1075C71.1978 56.5926 71.6166 56.1762 72.1315 56.1762H75.6227C76.1376 56.1762 76.5564 56.5926 76.5564 57.1075C76.5564 57.6224 76.1376 58.0413 75.6227 58.0413Z" fill="#090B0E"/>
<path d="M36.6142 65.2107H28.7055C28.1881 65.2107 27.7717 64.7918 27.7717 64.2769C27.7717 63.762 28.1881 63.3432 28.7055 63.3432H36.6142C37.1291 63.3432 37.548 63.762 37.548 64.2769C37.548 64.7918 37.1291 65.2107 36.6142 65.2107Z" fill="#090B0E"/>
<path d="M42.3841 71.2175H33.6205C33.1056 71.2175 32.6868 70.7987 32.6868 70.2838C32.6868 69.7688 33.1056 69.35 33.6205 69.35H42.3841C42.9015 69.35 43.3179 69.7688 43.3179 70.2838C43.3179 70.7987 42.9015 71.2175 42.3841 71.2175Z" fill="#090B0E"/>
<path d="M51.0417 71.2175H45.4662C44.9488 71.2175 44.5325 70.7987 44.5325 70.2838C44.5325 69.7688 44.9488 69.35 45.4662 69.35H51.0417C51.5566 69.35 51.973 69.7688 51.973 70.2838C51.973 70.7987 51.5566 71.2175 51.0417 71.2175Z" fill="#090B0E"/>
</svg>
