<svg width="24" height="24" viewBox="0 0 24 24" fill="none" xmlns="http://www.w3.org/2000/svg">
<path d="M13.3692 5.25831L0.5448 17.8688C0.0755999 18.3302 0.0755999 19.0759 0.5448 19.5373L3.9384 22.8743C4.1724 23.1044 4.4796 23.22 4.7868 23.22C5.094 23.22 5.4012 23.1044 5.6352 22.8743L18.4596 10.2638L13.3692 5.25831Z" fill="#1A56DB"/>
<path d="M23.4552 5.35152C23.9244 4.89015 23.9244 4.1444 23.4552 3.68303L20.0616 0.34603C19.5924 -0.115343 18.834 -0.115343 18.3648 0.34603L15.066 3.58981L20.1564 8.5953L23.4552 5.35152Z" fill="#1A56DB"/>
<path d="M19.2 19.2801H18V18.1001C18 17.4475 17.4636 16.9201 16.8 16.9201C16.1364 16.9201 15.6 17.4475 15.6 18.1001V19.2801H14.4C13.7364 19.2801 13.2 19.8075 13.2 20.46C13.2 21.1126 13.7364 21.64 14.4 21.64H15.6V22.82C15.6 23.4725 16.1364 24 16.8 24C17.4636 24 18 23.4725 18 22.82V21.64H19.2C19.8636 21.64 20.4 21.1126 20.4 20.46C20.4 19.8075 19.8636 19.2801 19.2 19.2801Z" fill="#1A56DB"/>
<path d="M1.2 9.84019H2.4V11.0202C2.4 11.6727 2.9364 12.2002 3.6 12.2002C4.2636 12.2002 4.8 11.6727 4.8 11.0202V9.84019H6C6.6636 9.84019 7.2 9.31273 7.2 8.6602C7.2 8.00767 6.6636 7.48022 6 7.48022H4.8V6.30023C4.8 5.6477 4.2636 5.12025 3.6 5.12025C2.9364 5.12025 2.4 5.6477 2.4 6.30023V7.48022H1.2C0.5364 7.48022 0 8.00767 0 8.6602C0 9.31273 0.5364 9.84019 1.2 9.84019Z" fill="#1A56DB"/>
<path d="M20.4 13.3801H18V15.7401H20.4V13.3801Z" fill="#1A56DB"/>
<path d="M13.2 0.40031H10.8V2.76028H13.2V0.40031Z" fill="#1A56DB"/>
<path d="M9.6 2.76028H7.2V5.12025H9.6V2.76028Z" fill="#1A56DB"/>
<path d="M6 0.40031H3.6V2.76028H6V0.40031Z" fill="#1A56DB"/>
<path d="M24 9.84018H21.6V12.2002H24V9.84018Z" fill="#1A56DB"/>
<path d="M24 15.7401H21.6V18.1001H24V15.7401Z" fill="#1A56DB"/>
</svg>
