<svg width="52" height="32" viewBox="0 0 52 32" fill="none" xmlns="http://www.w3.org/2000/svg">
<path d="M4.8753 25.6494H46.7792V2.56472C46.7792 1.61838 46.0097 0.848909 45.064 0.848909H6.59111C5.64477 0.848909 4.8753 1.61838 4.8753 2.56472V25.6494ZM47.2034 26.4985H4.45108C4.21678 26.4985 4.02686 26.3086 4.02686 26.0743V2.56472C4.02686 1.15043 5.17747 0.000467584 6.59111 0.000467584H45.064C46.4776 0.000467584 47.6283 1.15043 47.6283 2.56472V26.0743C47.6283 26.3086 47.4383 26.4985 47.2034 26.4985Z" fill="#FB3189"/>
<path d="M7.01454 23.5119H44.639V2.99002H7.01454V23.5119ZM45.0639 24.3611H6.59097C6.35667 24.3611 6.16675 24.1711 6.16675 23.9361V2.56515C6.16675 2.33085 6.35667 2.14093 6.59097 2.14093H45.0639C45.2982 2.14093 45.4881 2.33085 45.4881 2.56515V23.9361C45.4881 24.1711 45.2982 24.3611 45.0639 24.3611Z" fill="#FB3189"/>
<path d="M0.848441 26.4976V28.8217C0.848441 30.106 1.89398 31.151 3.17904 31.151H48.4773C49.7624 31.151 50.8073 30.106 50.8073 28.8217V26.4976H0.848441ZM48.4773 32H3.17904C1.42603 32 0 30.5741 0 28.8217V26.0734C0 25.8384 0.18992 25.6484 0.424221 25.6484H51.2315C51.4658 25.6484 51.6557 25.8384 51.6557 26.0734V28.8217C51.6557 30.5741 50.2303 32 48.4773 32Z" fill="#FB3189"/>
<path d="M25.8245 28.1802C25.4702 28.1802 25.1823 28.4713 25.1823 28.829C25.1823 29.1821 25.4702 29.4699 25.8245 29.4699C26.1815 29.4699 26.472 29.1821 26.472 28.829C26.472 28.4713 26.1815 28.1802 25.8245 28.1802ZM25.8245 30.3188C25.0029 30.3188 24.3333 29.6499 24.3333 28.829C24.3333 28.0033 25.0029 27.3317 25.8245 27.3317C26.6495 27.3317 27.3211 28.0033 27.3211 28.829C27.3211 29.6499 26.6495 30.3188 25.8245 30.3188Z" fill="#FB3189"/>
<path d="M32.4278 17.954H36.5956C36.8391 17.1038 37.3801 16.2449 38.1463 15.5042C39.389 14.3235 39.992 12.6691 39.8027 10.9624C39.5247 8.44513 37.495 6.41539 34.9771 6.13736C34.9229 6.13867 34.8256 6.13149 34.731 6.12236C34.6442 6.11518 34.5529 6.1093 34.4641 6.10995C34.3277 6.10995 34.2096 6.11126 34.0673 6.1341C31.5317 6.41604 29.502 8.44577 29.2181 10.963C29.036 12.6677 29.6391 14.3229 30.8739 15.5029C31.646 16.2424 32.1883 17.1018 32.4278 17.954ZM36.9304 18.8032H32.0917C31.8868 18.8032 31.7112 18.6572 31.674 18.4555C31.5298 17.6644 31.037 16.8336 30.2871 16.1157C28.8611 14.7523 28.1641 12.8407 28.3749 10.871C28.7025 7.96021 31.0481 5.6159 33.9524 5.29349C34.25 5.24389 34.528 5.25107 34.8067 5.27783C34.8772 5.28435 34.9477 5.29088 35.0234 5.29088C37.9792 5.61525 40.3249 7.96021 40.6466 10.8697C40.8646 12.8414 40.1676 14.7543 38.7344 16.1164C37.9916 16.8348 37.4982 17.6678 37.3475 18.4586C37.309 18.6584 37.1341 18.8032 36.9304 18.8032Z" fill="#FB3189"/>
<path d="M37.5121 19.8281H31.5116C31.2773 19.8281 31.0874 19.6382 31.0874 19.4039C31.0874 19.1696 31.2773 18.9797 31.5116 18.9797H37.5121C37.747 18.9797 37.9369 19.1696 37.9369 19.4039C37.9369 19.6382 37.747 19.8281 37.5121 19.8281Z" fill="#FB3189"/>
<path d="M37.5121 20.8704H31.5116C31.2773 20.8704 31.0874 20.6804 31.0874 20.4461C31.0874 20.2111 31.2773 20.0211 31.5116 20.0211H37.5121C37.747 20.0211 37.9369 20.2111 37.9369 20.4461C37.9369 20.6804 37.747 20.8704 37.5121 20.8704Z" fill="#FB3189"/>
<path d="M37.5121 21.9062H31.5116C31.2773 21.9062 31.0874 21.7166 31.0874 21.4823C31.0874 21.2472 31.2773 21.0573 31.5116 21.0573H37.5121C37.747 21.0573 37.9369 21.2472 37.9369 21.4823C37.9369 21.7166 37.747 21.9062 37.5121 21.9062Z" fill="#FB3189"/>
<path d="M34.5078 18.8096C34.4536 18.8096 34.3988 18.7983 34.3453 18.7769C34.22 18.7247 34.1325 18.6189 34.0986 18.4968L31.7543 13.8735C31.6486 13.6647 31.7321 13.4095 31.9409 13.3031C32.1498 13.1974 32.405 13.2822 32.5114 13.4898L34.3956 17.2065L35.2995 13.5785C35.3569 13.3527 35.5821 13.217 35.8144 13.2705C36.0415 13.3273 36.1799 13.5576 36.1231 13.7854L34.9262 18.4799C34.9072 18.5556 34.8681 18.626 34.8113 18.6824C34.7317 18.7632 34.6214 18.8096 34.5078 18.8096Z" fill="#FB3189"/>
<path d="M33.7707 13.5564C33.4914 13.5564 33.1794 13.4513 32.8492 13.1426C32.5209 12.8385 32.207 12.9279 31.6666 13.2281C31.4695 13.3378 31.3128 13.4252 31.1327 13.4252C30.8984 13.4252 30.7085 13.2353 30.7085 13.0003C30.7085 12.7837 30.871 12.6055 31.0798 12.58C31.1268 12.5611 31.1849 12.5252 31.2541 12.4867C31.6868 12.2446 32.5875 11.7433 33.4281 12.522C33.7316 12.8059 33.8699 12.7393 34.2582 12.4906C34.4664 12.3575 34.702 12.2074 34.9833 12.1904C35.6053 12.1747 36.5751 12.6316 36.7664 12.7275C36.9752 12.832 37.0607 13.0865 36.9556 13.296C36.8519 13.5055 36.5954 13.5916 36.3872 13.4859C35.9949 13.2901 35.3312 13.0245 35.031 13.0382C34.9722 13.0415 34.8176 13.14 34.7151 13.2053C34.4958 13.3456 34.1669 13.5564 33.7707 13.5564Z" fill="#FB3189"/>
<path d="M32.5163 18.8028V20.4286C32.5163 21.3214 33.2453 22.0478 34.1414 22.0478H34.8874C35.7802 22.0478 36.5066 21.3214 36.5066 20.4286V18.8028H32.5163ZM34.8874 22.897H34.1414C32.778 22.897 31.6672 21.7895 31.6672 20.4286V18.3786C31.6672 18.1436 31.8572 17.9536 32.0921 17.9536H36.9308C37.1651 17.9536 37.3551 18.1436 37.3551 18.3786V20.4286C37.3551 21.7895 36.2482 22.897 34.8874 22.897Z" fill="#FB3189"/>
<path d="M34.5147 5.32812C34.2798 5.32812 34.0898 5.1382 34.0898 4.90325V3.89557C34.0898 3.66127 34.2798 3.47135 34.5147 3.47135C34.749 3.47135 34.9389 3.66127 34.9389 3.89557V4.90325C34.9389 5.1382 34.749 5.32812 34.5147 5.32812Z" fill="#FB3189"/>
<path d="M38.1218 6.29224C38.05 6.29224 37.9769 6.27396 37.9104 6.2348C37.7074 6.11798 37.6382 5.85823 37.7557 5.65591L38.2589 4.78528C38.3757 4.5823 38.6355 4.51247 38.8385 4.62995C39.0408 4.74742 39.1106 5.00652 38.9931 5.2095L38.4899 6.08013C38.411 6.21588 38.2687 6.29224 38.1218 6.29224Z" fill="#FB3189"/>
<path d="M40.7592 8.93457C40.6123 8.93457 40.4694 8.85821 40.3911 8.72181C40.2742 8.51818 40.3441 8.25908 40.5471 8.14226L41.4242 7.63841C41.6291 7.52094 41.8876 7.59208 42.0031 7.7944C42.1199 7.99737 42.0501 8.25712 41.8471 8.37395L40.97 8.87779C40.9034 8.9163 40.8303 8.93457 40.7592 8.93457Z" fill="#FB3189"/>
<path d="M42.7373 12.5422H41.7296C41.4953 12.5422 41.3054 12.3523 41.3054 12.118C41.3054 11.8837 41.4953 11.6938 41.7296 11.6938H42.7373C42.9723 11.6938 43.1622 11.8837 43.1622 12.118C43.1622 12.3523 42.9723 12.5422 42.7373 12.5422Z" fill="#FB3189"/>
<path d="M41.635 16.6516C41.5639 16.6516 41.4908 16.6333 41.4248 16.5948L40.5477 16.0923C40.3441 15.976 40.2742 15.717 40.391 15.5134C40.5072 15.3104 40.767 15.2406 40.9693 15.3568L41.8465 15.8592C42.0501 15.9755 42.1199 16.2353 42.0031 16.4382C41.9248 16.5751 41.7818 16.6516 41.635 16.6516Z" fill="#FB3189"/>
<path d="M27.3948 16.6516C27.2473 16.6516 27.1051 16.5751 27.0261 16.4395C26.9093 16.2358 26.9791 15.9768 27.1814 15.8592L28.0534 15.3568C28.259 15.2406 28.5161 15.3111 28.6336 15.5121C28.7504 15.7157 28.6806 15.9748 28.4782 16.0923L27.6063 16.5948C27.5391 16.6333 27.466 16.6516 27.3948 16.6516Z" fill="#FB3189"/>
<path d="M27.2996 12.5422H26.2919C26.0576 12.5422 25.8677 12.3523 25.8677 12.118C25.8677 11.8837 26.0576 11.6938 26.2919 11.6938H27.2996C27.5339 11.6938 27.7238 11.8837 27.7238 12.118C27.7238 12.3523 27.5339 12.5422 27.2996 12.5422Z" fill="#FB3189"/>
<path d="M28.2658 8.93457C28.1933 8.93457 28.1209 8.9163 28.0537 8.87714L27.1817 8.3733C26.9794 8.25582 26.9096 7.99672 27.027 7.79374C27.1439 7.59142 27.403 7.52094 27.6066 7.63907L28.4785 8.14291C28.6809 8.26039 28.7507 8.51949 28.6332 8.72246C28.5549 8.85821 28.412 8.93457 28.2658 8.93457Z" fill="#FB3189"/>
<path d="M30.9073 6.29224C30.7611 6.29224 30.6182 6.21653 30.5399 6.08013L30.036 5.2095C29.9192 5.00652 29.9884 4.74742 30.1913 4.62995C30.3937 4.51247 30.6541 4.58165 30.7702 4.78528L31.2741 5.65591C31.3916 5.85823 31.3217 6.11798 31.1194 6.2348C31.0522 6.27396 30.9797 6.29224 30.9073 6.29224Z" fill="#FB3189"/>
<path d="M12.1704 18.0592C12.1689 18.0628 12.1671 18.0663 12.1654 18.0699C12.1077 18.1759 12.0718 18.2964 12.0614 18.4182L11.8262 21.3228C11.8253 21.3336 11.8313 21.3387 11.8363 21.3415L11.8595 21.3528C11.8611 21.3528 11.8632 21.3525 11.8666 21.3502L14.3457 19.8126C14.4497 19.7487 14.5383 19.6647 14.6094 19.5625C14.6113 19.5595 14.6135 19.5565 14.616 19.5539L20.0979 10.5756L17.6524 9.08318L12.1704 18.0592ZM11.8595 21.5955C11.806 21.5955 11.7541 21.579 11.7091 21.548C11.6281 21.5047 11.5748 21.4053 11.5844 21.3017L11.8195 18.3982C11.8301 18.2719 11.8624 18.1472 11.9134 18.0323C11.9157 18.0176 11.9207 18.0032 11.9286 17.9894L11.9413 17.9684L17.5084 8.85309C17.5433 8.79612 17.6179 8.77782 17.6752 8.81274L20.3282 10.4318C20.3854 10.4668 20.4035 10.5415 20.3686 10.5988L14.7893 19.7354C14.7805 19.7502 14.7687 19.7623 14.7555 19.7717C14.6753 19.8701 14.5807 19.953 14.4734 20.0191L11.9969 21.5551C11.9571 21.5811 11.909 21.5955 11.8595 21.5955Z" fill="#FB3189"/>
<path d="M18.2617 8.10613L20.6917 9.59L21.1338 8.86721C21.3286 8.54802 21.2273 8.12817 20.9078 7.93132L19.6378 7.15736C19.5305 7.0918 19.4082 7.05706 19.2838 7.05706C19.045 7.05706 18.8277 7.1792 18.7026 7.38371L18.2617 8.10613ZM20.7318 9.87817C20.7104 9.87817 20.6883 9.87239 20.6687 9.86044L18.0316 8.25013C17.9742 8.2152 17.9563 8.14069 17.9912 8.08335L18.4953 7.25728C18.6649 6.97974 18.9598 6.81427 19.2838 6.81427C19.4528 6.81427 19.6191 6.86133 19.7644 6.95023L21.0346 7.72438C21.4681 7.99127 21.6055 8.56073 21.3411 8.99384L20.8357 9.82009C20.8125 9.85745 20.7727 9.87817 20.7318 9.87817Z" fill="#FB3189"/>
<path d="M17.781 8.87543L20.2245 10.3679L20.5724 9.79899L18.1278 8.30653L17.781 8.87543ZM20.265 10.6562C20.243 10.6562 20.2209 10.6501 20.2017 10.6383L17.5509 9.01924C17.4936 8.98431 17.4755 8.9096 17.5106 8.85245L17.9839 8.07644C18.0005 8.0488 18.0276 8.02919 18.0587 8.02153C18.0903 8.01387 18.1234 8.01909 18.1508 8.0359L20.8029 9.65518C20.8304 9.67199 20.8502 9.69907 20.8576 9.73045C20.8651 9.76164 20.8599 9.79469 20.8431 9.82215L20.3687 10.598C20.3519 10.6256 20.3248 10.6452 20.2936 10.6529C20.2841 10.6551 20.2746 10.6562 20.265 10.6562Z" fill="#FB3189"/>
<path d="M12.6588 18.6377C12.6373 18.6377 12.6155 18.6319 12.5957 18.6199C12.5385 18.585 12.5204 18.5101 12.5555 18.453L18.1731 9.25863C18.2078 9.20148 18.2829 9.18336 18.3399 9.21828C18.3972 9.25321 18.4153 9.32792 18.3802 9.38526L12.7626 18.5796C12.7399 18.6172 12.6999 18.6377 12.6588 18.6377Z" fill="#FB3189"/>
</svg>
