<svg width="26" height="32" viewBox="0 0 26 32" fill="none" xmlns="http://www.w3.org/2000/svg">
<path d="M1.62941 28.7456C1.69748 29.4913 3.46229 30.5087 6.24549 30.5087C9.02895 30.5087 10.7938 29.4913 10.8619 28.7456C9.70779 29.4234 8.07844 29.8302 6.24549 29.8302C4.41254 29.8302 2.71559 29.4234 1.62941 28.7456ZM6.17735 31.9995C2.64752 31.9995 -6.81115e-10 30.576 -1.58938e-09 28.6777C-1.88119e-09 28.0678 0.271478 27.5251 0.74697 27.0504C1.01838 26.7794 1.49367 26.7794 1.83295 27.0504C2.44391 27.6609 4.00546 28.2709 6.17735 28.2709C8.28198 28.2709 9.91133 27.6609 10.5221 27.0504C10.7938 26.7794 11.269 26.7794 11.6083 27.0504C12.0833 27.5251 12.355 28.0678 12.355 28.6777C12.355 30.576 9.70779 31.9995 6.17735 31.9995Z" fill="#055346"/>
<path d="M1.62941 26.5085C1.69748 27.2542 3.46229 28.2709 6.24549 28.2709C9.02895 28.2709 10.7938 27.2542 10.8619 26.5085C9.70779 27.1863 8.07844 27.5931 6.24549 27.5931C4.41254 27.5931 2.71559 27.1863 1.62941 26.5085ZM6.17735 29.8303C2.64752 29.8303 -6.81115e-10 28.4068 -1.58938e-09 26.5085C-1.88119e-09 25.8986 0.271478 25.3559 0.74697 24.8812C1.01838 24.6102 1.49367 24.6102 1.83295 24.8812C2.44391 25.4917 4.00546 26.1016 6.17735 26.1016C8.28198 26.1016 9.91133 25.4917 10.5221 24.8812C10.7938 24.6102 11.269 24.6102 11.6083 24.8812C12.0833 25.3559 12.355 25.8986 12.355 26.5085C12.355 28.4068 9.70779 29.8303 6.17735 29.8303Z" fill="#055346"/>
<path d="M1.62941 24.3391C1.69748 25.0848 3.46229 26.1015 6.24549 26.1015C9.02895 26.1015 10.7938 25.0848 10.8619 24.3391C9.70779 25.0169 8.07844 25.4237 6.24549 25.4237C4.41254 25.4237 2.71559 25.0169 1.62941 24.3391ZM6.17735 27.593C2.64752 27.593 -6.81115e-10 26.1695 -1.58938e-09 24.2712C-1.88152e-09 23.6606 0.271478 23.1186 0.74697 22.6439C1.01838 22.3729 1.49367 22.3729 1.83295 22.6439C2.44391 23.2538 4.00546 23.8643 6.17735 23.8643C8.28198 23.8643 9.91133 23.2538 10.5221 22.6439C10.7938 22.3729 11.269 22.3729 11.6083 22.6439C12.0833 23.1186 12.355 23.6606 12.355 24.2712C12.355 26.1695 9.70779 27.593 6.17735 27.593Z" fill="#055346"/>
<path d="M1.62941 22.1692C1.69748 22.9156 3.46229 23.9324 6.24549 23.9324C9.02895 23.9324 10.7938 22.9156 10.8619 22.1692C9.70779 22.847 8.07844 23.2539 6.24549 23.2539C4.41254 23.2539 2.71559 22.847 1.62941 22.1692ZM6.17735 25.4238C2.64752 25.4238 -6.81437e-10 23.9996 -1.58938e-09 22.102C-1.88152e-09 21.4914 0.271478 20.9494 0.74697 20.4747C1.01838 20.203 1.49367 20.203 1.83295 20.4747C2.44391 21.0846 4.00546 21.6952 6.17735 21.6952C8.28198 21.6952 9.91133 21.0846 10.5221 20.4747C10.7938 20.203 11.269 20.203 11.6083 20.4747C12.0833 20.9494 12.355 21.4914 12.355 22.102C12.355 23.9996 9.70779 25.4238 6.17735 25.4238Z" fill="#055346"/>
<path d="M1.62941 19.9318C1.69748 20.6776 3.46229 21.695 6.24549 21.695C9.02895 21.695 10.7938 20.6776 10.8619 19.9318C9.70779 20.6096 8.07844 21.0165 6.24549 21.0165C4.41254 21.0165 2.71559 20.6096 1.62941 19.9318ZM6.17735 23.2537C2.64752 23.2537 -6.81115e-10 21.8301 -1.58938e-09 19.9318C-1.88119e-09 19.3219 0.271478 18.7793 0.74697 18.3052C1.01838 18.0335 1.49367 18.0335 1.83295 18.3052C2.44391 18.9151 4.00546 19.525 6.17735 19.525C8.28198 19.525 9.91133 18.9151 10.5221 18.3052C10.7938 18.0335 11.269 18.0335 11.6083 18.3052C12.0833 18.7793 12.355 19.3219 12.355 19.9318C12.355 21.8301 9.70779 23.2537 6.17735 23.2537Z" fill="#055346"/>
<path d="M6.17735 15.9323C3.39416 15.9323 1.56127 17.017 1.56127 17.7627C1.56127 18.5084 3.32662 19.5252 6.17735 19.5252C9.02895 19.5252 10.7938 18.4405 10.7938 17.7627C10.8619 17.017 9.02895 15.9323 6.17735 15.9323ZM6.17735 21.0166C2.64752 21.0166 -6.81115e-10 19.5931 -1.58938e-09 17.6948C-2.49764e-09 15.7965 2.64752 14.3729 6.17735 14.3729C9.70779 14.3729 12.355 15.7965 12.355 17.6948C12.355 19.5931 9.70779 21.0166 6.17735 21.0166Z" fill="#055346"/>
<path d="M15.2059 26.9155C15.2739 27.6612 17.0387 28.6779 19.8222 28.6779C22.5376 28.6779 24.3704 27.6612 24.4384 26.9155C23.2843 27.5933 21.6549 28.0001 19.8222 28.0001C18.0574 28.0001 16.36 27.5933 15.2059 26.9155ZM19.8222 30.2373C16.292 30.2373 13.6445 28.8138 13.6445 26.9155C13.6445 26.3728 13.9159 25.7629 14.3912 25.2882C14.5272 25.1523 14.7306 25.0851 14.9346 25.0851C15.1379 25.0851 15.3419 25.1523 15.478 25.2882C16.0886 25.8987 17.6501 26.5087 19.8222 26.5087C21.9262 26.5087 23.5557 25.8987 24.1663 25.2882C24.3024 25.1523 24.5064 25.0851 24.7097 25.0851C24.9137 25.0851 25.1171 25.1523 25.2531 25.2882C25.7284 25.7629 25.9998 26.3728 25.9998 26.9155C25.9998 28.8138 23.3523 30.2373 19.8222 30.2373Z" fill="#055346"/>
<path d="M15.2059 24.7461C15.2739 25.4918 17.0387 26.5086 19.8222 26.5086C22.5376 26.5086 24.3704 25.4918 24.4384 24.7461C23.2843 25.4239 21.6549 25.8307 19.8222 25.8307C18.0574 25.8307 16.36 25.4239 15.2059 24.7461ZM19.8222 28C16.292 28 13.6445 26.5765 13.6445 24.6782C13.6445 24.1355 13.9159 23.5256 14.3912 23.0508C14.5272 22.9157 14.7306 22.8471 14.9346 22.8471C15.1379 22.8471 15.3419 22.9157 15.478 23.0508C16.0886 23.6607 17.6501 24.2713 19.8222 24.2713C21.9262 24.2713 23.5557 23.6607 24.1663 23.0508C24.3024 22.9157 24.5064 22.8471 24.7097 22.8471C24.9137 22.8471 25.1171 22.9157 25.2531 23.0508C25.7284 23.5256 25.9998 24.1355 25.9998 24.6782C25.9998 26.5765 23.3523 28 19.8222 28Z" fill="#055346"/>
<path d="M15.2059 22.576C15.2739 23.3224 17.0387 24.3391 19.8222 24.3391C22.5376 24.3391 24.3704 23.3224 24.4384 22.576C23.2843 23.2538 21.6549 23.6606 19.8222 23.6606C18.0574 23.6606 16.36 23.2538 15.2059 22.576ZM19.8222 25.8306C16.292 25.8306 13.6445 24.4063 13.6445 22.5087C13.6445 21.9661 13.9159 21.3555 14.3912 20.8814C14.5272 20.7456 14.7306 20.6776 14.9346 20.6776C15.1379 20.6776 15.3419 20.7456 15.478 20.8814C16.0886 21.4913 17.6501 22.1019 19.8222 22.1019C21.9262 22.1019 23.4883 21.4913 24.1663 20.8814C24.3024 20.7456 24.5064 20.6776 24.7097 20.6776C24.9137 20.6776 25.1171 20.7456 25.2531 20.8814C25.7284 21.3555 25.9998 21.9661 25.9998 22.5087C25.9998 24.4063 23.3523 25.8306 19.8222 25.8306Z" fill="#055346"/>
<path d="M19.8222 18.5084C16.9707 18.5084 15.2059 19.5931 15.2059 20.2709C15.2059 20.9494 16.9707 22.034 19.8222 22.034C22.6736 22.034 24.4384 20.9494 24.4384 20.2709C24.4384 19.5931 22.6736 18.5084 19.8222 18.5084ZM19.8222 23.6606C16.292 23.6606 13.6445 22.2371 13.6445 20.3388C13.6445 18.4405 16.292 17.0169 19.8222 17.0169C23.3523 17.0169 25.9998 18.4405 25.9998 20.3388C25.9998 22.2371 23.3523 23.6606 19.8222 23.6606Z" fill="#055346"/>
<path d="M9.70845 10.8475L13.0345 14.6441L16.3609 10.8475L15.2068 10.8475C14.7995 10.8475 14.4601 10.5086 14.4601 10.1018L14.4601 1.55915L11.6771 1.55915L11.6771 10.1018C11.6771 10.5086 11.3375 10.8475 10.9302 10.8475L9.70845 10.8475ZM13.0345 16.6104C12.8312 16.6104 12.6274 16.5424 12.4914 16.3394L7.46814 10.5766C7.26426 10.3728 7.19666 10.0339 7.3324 9.7629C7.46814 9.49191 7.73955 9.28816 8.01096 9.28816L10.1156 9.28816L10.1156 0.746185C10.1156 0.339359 10.4551 -0.000226976 10.8626 -0.000226976L15.1388 -0.000226978C15.5462 -0.000226978 15.8862 0.339359 15.8862 0.746185L15.8862 9.28816L17.9903 9.28816C18.2616 9.28816 18.533 9.49191 18.669 9.7629C18.805 10.0339 18.737 10.3728 18.533 10.5766L13.5774 16.3394C13.4421 16.4745 13.2381 16.6104 13.0345 16.6104Z" fill="#055346"/>
<path d="M6.38117 18.6441C6.44877 18.6441 6.58444 18.5761 6.58444 18.5082C6.65258 18.4403 6.65258 18.3724 6.65258 18.2373C6.65258 18.1693 6.65258 18.1014 6.58444 18.0335C6.51684 17.9656 6.44878 17.8983 6.31304 17.8983L6.31304 18.6441L6.38117 18.6441ZM6.04135 16.6099C5.97375 16.6099 5.90561 16.6779 5.83775 16.7458C5.76994 16.813 5.76994 16.8809 5.76994 16.9488C5.76994 17.0168 5.76994 17.0847 5.83775 17.1526C5.90561 17.2198 5.90561 17.2878 6.04135 17.2878L6.04135 16.6099ZM6.04135 18.5761L6.04135 17.7625C5.76994 17.6946 5.56633 17.5588 5.49846 17.4236C5.36279 17.2878 5.29492 17.0847 5.29492 16.8809C5.29492 16.6778 5.36279 16.4741 5.49846 16.339C5.63447 16.2031 5.83774 16.1352 6.04135 16.0673L6.04135 15.8642L6.31304 15.8642L6.31304 16.0673C6.51685 16.0673 6.65258 16.1352 6.78832 16.271C6.92399 16.4062 6.99187 16.542 6.99187 16.7458L6.58444 16.9488C6.58444 16.813 6.44877 16.6778 6.38117 16.6778L6.38117 17.4236C6.72045 17.4915 6.924 17.6267 7.06001 17.7625C7.19568 17.8983 7.26328 18.0335 7.26328 18.2373C7.26328 18.4403 7.19568 18.6441 7.06001 18.8471C6.924 18.983 6.72046 19.1181 6.44877 19.1181L6.44877 19.457L6.17703 19.457L6.17703 19.0502C5.97375 19.0502 5.76994 18.915 5.63447 18.7792C5.49847 18.644 5.43059 18.4403 5.36279 18.2373L5.83775 18.1693C5.83775 18.3052 5.90562 18.3724 5.97376 18.4403C5.90562 18.5082 5.97375 18.5761 6.04135 18.5761Z" fill="#055346"/>
<path d="M20.0262 21.2201C20.0935 21.2201 20.2295 21.1522 20.2975 21.0843C20.3648 21.0163 20.3648 20.9491 20.3648 20.8133C20.3648 20.7453 20.3648 20.6774 20.2975 20.6095C20.2295 20.5423 20.1615 20.4744 20.0262 20.4744L20.0262 21.2201ZM19.6868 19.2539C19.6188 19.2539 19.5508 19.3218 19.4828 19.389C19.4828 19.389 19.4828 19.457 19.4828 19.5249C19.4828 19.5928 19.4828 19.6607 19.5508 19.7286C19.6188 19.7959 19.6868 19.8638 19.7542 19.8638L19.7542 19.2539L19.6868 19.2539ZM19.6868 21.2201L19.6868 20.4064C19.4148 20.3385 19.2115 20.2027 19.1435 20.0675C19.0075 19.9317 18.9395 19.7286 18.9395 19.5249C18.9395 19.3218 19.0075 19.1181 19.1435 18.9829C19.2795 18.8471 19.4828 18.7791 19.6868 18.7119L19.6868 18.5081L19.9582 18.5081L19.9582 18.7119C20.1615 18.7119 20.3648 18.7791 20.4329 18.915C20.5689 19.0501 20.6369 19.186 20.7049 19.389L20.2295 19.4569C20.2295 19.3218 20.0935 19.186 20.0262 19.186L20.0262 19.9317C20.3649 19.9996 20.5689 20.1354 20.7049 20.2706C20.8402 20.4064 20.9082 20.5423 20.9082 20.7454C20.9082 20.9491 20.8402 21.1522 20.7049 21.3552C20.5689 21.4911 20.3649 21.6269 20.0935 21.6269L20.0935 21.9658L19.8222 21.9658L19.8222 21.6269C19.6188 21.6269 19.4148 21.4911 19.2795 21.3552C19.1435 21.2201 19.0755 21.0163 19.0075 20.7454L19.5508 20.6774C19.5508 20.7453 19.6188 20.8812 19.6868 20.9491C19.5508 21.1522 19.6188 21.1522 19.6868 21.2201Z" fill="#055346"/>
<path d="M4.41211 2.91532L5.83764 2.91532L5.83764 4.33887L4.41211 4.33887L4.41211 2.91532Z" fill="#055346"/>
<path d="M4.41211 5.08459L5.83764 5.08459L5.83764 6.50879L4.41211 6.50879L4.41211 5.08459Z" fill="#055346"/>
<path d="M4.41211 7.25468L5.83764 7.25468L5.83764 8.67822L4.41211 8.67822L4.41211 7.25468Z" fill="#055346"/>
<path d="M4.41211 9.35575L5.83764 9.35575L5.83764 10.7793L4.41211 10.7793L4.41211 9.35575Z" fill="#055346"/>
<path d="M20.2305 7.25468L21.6559 7.25468L21.6559 8.67822L20.2305 8.67822L20.2305 7.25468Z" fill="#055346"/>
<path d="M20.2305 9.35575L21.6559 9.35575L21.6559 10.7793L20.2305 10.7793L20.2305 9.35575Z" fill="#055346"/>
<path d="M20.2305 11.5252L21.6559 11.5252L21.6559 12.9487L20.2305 12.9487L20.2305 11.5252Z" fill="#055346"/>
<path d="M20.2305 13.6951L21.6559 13.6951L21.6559 15.1187L20.2305 15.1187L20.2305 13.6951Z" fill="#055346"/>
</svg>
