<svg width="39" height="36" viewBox="0 0 39 36" fill="none" xmlns="http://www.w3.org/2000/svg">
<path d="M26.8297 35.0463C27.1752 35.2726 27.5086 35.4958 27.8266 35.7591L27.7985 35.9146L27.6846 35.9796C27.021 35.8934 26.569 35.7253 26.0215 35.3361L26.8297 35.0463Z" fill="#F14C27"/>
<path d="M27.2758 29.7146C27.4385 28.4682 27.0188 25.3239 27.4126 24.4175L27.7284 24.3741C27.7899 26.0224 27.4931 28.3762 27.8249 29.9061C27.7841 30.1884 27.8106 30.4486 27.5652 30.639C27.5064 30.685 27.3988 30.7273 27.3288 30.7574C27.093 30.4624 27.0368 30.4042 26.9785 30.0155C27.1396 29.9198 27.1736 29.8653 27.2758 29.7146Z" fill="#452B90"/>
<path d="M26.0184 35.3351C25.8795 35.1659 25.7385 34.9929 25.6219 34.8068C25.1349 34.0294 24.9939 33.0136 25.2393 32.1326C25.5091 31.1654 26.1164 30.497 26.9803 30.0147C27.0386 30.4034 27.0948 30.4615 27.3306 30.7566C26.7672 31.075 26.3607 31.737 26.1896 32.3468C26.0433 32.8666 26.0194 33.5149 26.303 33.9961C26.3231 34.0294 26.3485 34.0591 26.3713 34.0903L26.8266 35.0453L26.0184 35.3351Z" fill="#E53022"/>
<path d="M18.4032 35.9283C17.7885 35.8659 17.1885 35.7782 16.6872 35.3858C16.0104 34.8559 15.6304 34.0431 15.562 33.1981C15.4952 32.3789 15.6754 31.4646 16.2515 30.848C16.5833 30.4937 17.0014 30.151 17.5028 30.1373L17.6157 30.5429C16.9569 31.095 16.5123 31.8697 16.4322 32.7338C16.3644 33.4604 16.5806 34.1177 17.0709 34.6608C17.1981 34.802 17.3443 34.9268 17.4896 35.0489C17.8648 35.2795 18.2835 35.4741 18.4032 35.9283Z" fill="#F37316"/>
<path d="M8.08899 30.0774C8.17427 30.336 8.18174 30.4285 8.37894 30.6242C7.69893 31.0414 7.13901 31.6294 6.95547 32.4264C6.85165 32.8774 6.90788 33.3439 7.12867 33.75C7.40696 34.4205 8.23924 35.2222 8.2862 35.8859C7.81245 35.7441 7.35958 35.5279 6.98325 35.2032C6.35077 34.6574 5.9784 33.8367 5.95461 33.0065C5.93102 32.1821 6.18817 31.2508 6.80008 30.6696C7.15512 30.3328 7.59076 30.079 8.08899 30.0774Z" fill="#E53022"/>
<path d="M19.4731 30.3144C20.2474 31.1061 20.815 31.9649 20.8134 33.1193C20.8118 33.8839 20.5351 34.6285 19.959 35.1468C19.5059 35.5539 18.986 35.7792 18.402 35.9283C18.2822 35.4741 17.8635 35.2795 17.4883 35.0489C18.0098 34.6058 18.5625 34.1843 18.9648 33.6259C18.9876 32.5408 18.8466 31.2467 19.4731 30.3144Z" fill="#F2BE2A"/>
<path d="M18.734 30.0775C18.9799 30.1547 19.229 30.2267 19.4722 30.315C18.8458 31.2473 18.9868 32.5413 18.964 33.6264C18.5617 34.1848 18.0089 34.6063 17.4874 35.0494C17.3422 34.9273 17.196 34.8025 17.0688 34.6613C16.5785 34.1182 16.3623 33.4609 16.4301 32.7343C16.5102 31.8702 16.9548 31.0955 17.6136 30.5434C17.9008 30.5476 18.2231 30.5852 18.488 30.4588C18.6465 30.3827 18.6666 30.2272 18.734 30.0775Z" fill="#F2BE2A"/>
<path d="M9.26985 30.1563L9.36817 30.1499C10.0823 30.4281 10.5526 30.9029 10.8532 31.61C11.2178 32.4677 11.2357 33.4793 10.8571 34.335C10.5872 34.9452 10.1451 35.4666 9.5094 35.7062C9.14912 35.8421 8.67008 35.9764 8.28929 35.8854C8.24233 35.2218 7.41005 34.4201 7.13176 33.7495C6.91097 33.3434 6.85474 32.877 6.95856 32.4259C7.14209 31.629 7.70202 31.041 8.38203 30.6237C8.71592 30.5074 9.0321 30.4339 9.26985 30.1563Z" fill="#F37316"/>
<path d="M9.26985 30.1559L9.36817 30.1496C9.35979 30.1797 9.3503 30.2093 9.34304 30.2395C9.06735 31.359 9.96004 33.3145 8.67977 34.0633C8.41574 34.2177 8.22934 34.2399 7.93451 34.1617C7.67403 34.0924 7.43167 33.8608 7.22784 33.6932L7.13176 33.7492C6.91097 33.3431 6.85474 32.8767 6.95856 32.4256C7.14209 31.6287 7.70202 31.0406 8.38203 30.6234C8.71592 30.5071 9.0321 30.4335 9.26985 30.1559Z" fill="#F14C27"/>
<path d="M27.8312 29.9059C28.0814 29.9879 28.3262 30.0635 28.5658 30.1719C29.3141 30.5516 29.8203 31.1746 30.0736 31.9725C30.3709 32.9075 30.276 33.8837 29.8075 34.7451C29.4631 35.3781 28.9564 35.771 28.2536 35.9418C28.0724 35.9857 27.8673 36.0259 27.686 35.9794L27.8 35.9143L27.8281 35.7589C27.5101 35.4955 27.1767 35.2723 26.8312 35.046L26.3759 34.091C26.3531 34.0598 26.3277 34.0302 26.3076 33.9969C26.024 33.5156 26.0479 32.8673 26.1941 32.3475C26.3653 31.7378 26.7718 31.0757 27.3352 30.7573C27.4051 30.7272 27.5127 30.6849 27.5716 30.6389C27.8169 30.4485 27.7904 30.1883 27.8312 29.9059Z" fill="#F37316"/>
<path d="M27.8312 29.9054C28.0814 29.9874 28.3262 30.063 28.5658 30.1714C28.3225 30.5045 28.1423 30.6442 28.2028 31.0778C28.3162 31.8985 28.7884 32.9281 28.3252 33.725C28.1312 34.0587 27.6405 34.2226 27.2695 34.2369C26.9573 34.2486 26.7411 34.1571 26.4703 34.027L26.3759 34.0904C26.3531 34.0592 26.3277 34.0296 26.3076 33.9963C26.024 33.5151 26.0479 32.8668 26.1941 32.3469C26.3653 31.7372 26.7718 31.0751 27.3352 30.7568C27.4051 30.7266 27.5127 30.6843 27.5716 30.6383C27.8169 30.448 27.7904 30.1878 27.8312 29.9054Z" fill="#F14C27"/>
<path d="M37.2426 18.6933C37.4376 18.2697 37.5112 17.9593 37.8202 17.5796C37.941 17.4315 37.9564 17.1745 37.9617 16.982C37.9633 16.9371 37.958 16.8921 37.9564 16.8472L38.0142 16.8514C38.0073 17.0159 38.0105 17.1787 38.0126 17.3437L38.1986 17.4336C38.4005 19.1528 38.037 20.8053 36.9585 22.1982C36.0062 23.4272 34.6102 24.2103 33.0622 24.3817C31.4321 24.5625 29.369 24.5371 27.7335 24.3737L27.4177 24.4171C27.0239 25.3235 27.4436 28.4678 27.2809 29.7142L27.2475 24.4108C24.3079 24.4229 21.3634 24.4039 18.4243 24.4726C18.4179 25.3684 18.2298 29.4604 18.5308 29.9876L18.7353 30.078C18.668 30.2277 18.6479 30.3832 18.4894 30.4593C18.2245 30.5857 17.9022 30.5481 17.615 30.5439L17.5021 30.1383L17.7941 29.9411C18.1996 28.6703 17.9282 25.8618 17.9065 24.4266L15.4199 24.4013L15.4422 24.177C15.8545 23.8629 16.2864 23.58 16.7173 23.2923C19.6188 23.5525 22.6814 23.3627 25.6041 23.3558C28.008 23.35 30.6356 23.5456 33.0145 23.2437C33.7379 23.1522 34.4136 22.9766 35.0157 22.5483C36.3098 21.6271 36.9553 20.2035 37.2426 18.6933Z" fill="#4561B6"/>
<path d="M11.5805 6.28921C12.0554 5.53353 12.5384 4.78368 13.113 4.09834C15.0775 1.75411 17.8757 0.277138 20.9303 0.0354691C23.9462 -0.203026 27.0634 0.774216 29.358 2.74986C31.9638 4.99309 33.179 7.78946 33.4333 11.1601C34.3247 11.6001 35.1657 12.1543 35.8934 12.8327C37.1716 14.0242 38.1308 15.6571 38.196 17.4339L38.01 17.344C38.0079 17.1791 38.0047 17.0162 38.0116 16.8517L37.9538 16.8475C37.9554 16.8925 37.9607 16.9374 37.9591 16.9823C37.9538 17.1748 37.9384 17.4318 37.8176 17.5799C37.5086 17.9596 37.435 18.27 37.24 18.6936C37.2527 16.5122 36.4768 14.0897 34.5378 12.8428C34.0412 12.5234 33.1133 12.1696 32.799 11.6709C32.5038 11.2029 32.5028 10.3404 32.418 9.79788C32.0905 7.70272 31.1032 5.8889 29.6771 4.34476C29.3824 4.02589 28.959 3.48808 28.5271 3.47063C28.2573 3.29982 27.9929 3.12321 27.7253 2.94817C25.0119 1.174 22.2864 1.05871 19.1846 1.69382C17.9652 1.57854 16.4321 2.54521 15.5227 3.29454C14.1167 4.45264 12.7118 6.33151 12.4093 8.16544C10.9285 7.24002 9.53397 6.54039 7.71768 6.9608C6.7475 7.18554 5.95757 7.83282 5.46773 8.69056C5.41728 8.77887 5.3734 8.87087 5.32846 8.96236C4.72999 9.9909 4.76836 11.1797 4.80715 12.3272C3.39383 13.0226 1.94411 13.7724 1.41353 15.3737C0.932441 16.8253 1.25216 18.8491 1.96134 20.1854C2.69659 21.5709 3.97312 22.5513 5.48448 22.9616C7.48387 23.5042 14.6451 22.9495 15.4316 23.3794L15.44 24.1774L15.4178 24.4016C13.1509 24.372 10.8843 24.3783 8.61732 24.381C8.60036 25.8082 8.35908 28.6385 8.68102 29.8775C8.87381 30.0081 9.04944 30.08 9.2691 30.1567C9.03137 30.4343 8.7152 30.5078 8.38134 30.6241C8.18414 30.4285 8.17667 30.3359 8.0914 30.0774C8.39543 28.3894 8.16411 26.1123 8.15155 24.3619C7.01237 24.3556 5.80245 24.4233 4.70864 24.0579C2.91344 23.4582 1.51692 22.0119 0.723695 20.3266C-0.0758903 18.6275 -0.263175 16.6291 0.416377 14.857C0.990258 13.3605 2.04957 12.2553 3.50136 11.5784C3.48091 10.8439 3.48705 10.1733 3.69882 9.45839C4.10842 8.07395 5.0416 6.93278 6.32201 6.25854C8.15288 5.29504 9.73206 5.7128 11.5805 6.28921Z" fill="#4E83CC"/>
<path d="M12.4094 8.16506C12.712 6.33113 14.117 4.45226 15.5231 3.29415C16.4325 2.54482 17.9657 1.57815 19.1852 1.69343C18.3076 2.10167 17.458 2.66645 16.6699 3.22646L18.0834 3.29204C18.1221 3.30737 18.1602 3.32482 18.2 3.33751C18.6033 3.4639 19.0988 3.34545 19.4216 3.64C19.4237 3.80975 19.4274 3.87691 19.358 4.03661L19.552 4.29361C19.4481 4.86632 19.2414 5.40623 19.0469 5.9525C18.9886 7.24227 18.5731 8.62142 18.288 9.88158C17.7723 12.165 17.2222 14.4421 16.8083 16.7472C17.0828 16.9783 17.3939 17.2035 17.4681 17.5779C17.4893 17.6832 17.4739 17.7371 17.4596 17.8349C17.2725 18.0126 17.1877 18.0777 16.909 18.0808C16.8125 18.0819 16.6747 18.0475 16.5782 18.0264L16.2979 19.3362C16.1198 20.2559 15.9274 22.6778 15.4319 23.379C14.6454 22.9491 7.48375 23.5038 5.48425 22.9613C3.9728 22.5509 2.69618 21.5705 1.96089 20.185C1.25167 18.8487 0.931936 16.8249 1.41305 15.3733C1.94367 13.7721 3.39347 13.0222 4.80688 12.3268C4.76808 11.1793 4.72971 9.99052 5.32822 8.96197C5.37316 8.87049 5.41704 8.77848 5.4675 8.69017C5.95736 7.83244 6.74734 7.18516 7.71757 6.96041C9.53397 6.54001 10.9286 7.23963 12.4094 8.16506Z" fill="#58B1E7"/>
<path d="M15.1238 16.8892C15.6304 17.2499 16.1201 17.6016 16.5759 18.0262L16.2956 19.3361C16.2357 19.28 16.1376 19.1933 16.0814 19.1251C15.6596 18.6169 15.0469 17.5286 15.1238 16.8892Z" fill="#4E83CC"/>
<path d="M5.33008 8.96131C5.37502 8.86983 5.4189 8.77782 5.46936 8.68951C5.95922 7.83178 6.7492 7.1845 7.71944 6.95975C9.53583 6.53935 10.9305 7.23897 12.4113 8.1644C12.6339 8.45154 12.5929 8.56894 12.6037 8.92324C12.4613 9.17179 12.4201 9.21938 12.1218 9.30135C10.1343 9.84814 9.0535 7.04542 5.48939 9.01631L5.33008 8.96131Z" fill="#91DBF4"/>
<path d="M19.3604 4.03644L19.5544 4.29344C19.4505 4.86614 19.2438 5.40606 19.0493 5.95232C17.7382 7.00413 13.3006 11.9538 12.3683 13.4107C13.6223 14.6407 15.3193 15.8121 16.8107 16.747C17.0852 16.9781 17.3963 17.2034 17.4705 17.5778C17.4917 17.683 17.4764 17.7369 17.4621 17.8348C17.275 18.0124 17.1902 18.0775 16.9114 18.0807C16.815 18.0817 16.6772 18.0474 16.5807 18.0262C16.1249 17.6016 15.6352 17.2499 15.1286 16.8893C13.6203 15.5302 11.9509 14.3145 10.4102 12.9829C11.5256 11.6191 12.8226 10.3748 14.0551 9.11569C15.7545 7.3796 17.4642 5.55783 19.3604 4.03644Z" fill="#F14C27"/>
<path d="M19.0483 5.953C18.99 7.24278 18.5745 8.62192 18.2893 9.88209C17.7737 12.1655 17.2235 14.4426 16.8096 16.7477C15.3183 15.8127 13.6212 14.6414 12.3672 13.4114C13.2995 11.9545 17.7371 7.00481 19.0483 5.953Z" fill="#F3A815"/>
<path d="M19.1868 1.69391C22.2886 1.0588 25.0142 1.17409 27.7276 2.94825C27.9952 3.12329 28.2596 3.29991 28.5294 3.47071C28.9613 3.48816 29.3847 4.02597 29.6794 4.34484C31.1055 5.88897 32.0928 7.70279 32.4204 9.79793C32.5051 10.3405 32.5062 11.203 32.8014 11.671C33.1157 12.1697 34.0436 12.5234 34.5402 12.8428C36.4793 14.0898 37.2552 16.5123 37.2424 18.6936C36.9552 20.2039 36.3097 21.6274 35.0156 22.5486C34.4135 22.977 33.7378 23.1525 33.0144 23.244C30.6355 23.546 28.0079 23.3503 25.604 23.3561C22.6813 23.363 19.6187 23.5528 16.7171 23.2927C16.2863 23.5803 15.8544 23.8633 15.4421 24.1774L15.4336 23.3794C15.9291 22.6782 16.1215 20.2562 16.2995 19.3366L16.5799 18.0268C16.6763 18.0479 16.8141 18.0823 16.9106 18.0812C17.1893 18.0781 17.2741 18.013 17.4612 17.8353C17.4755 17.7375 17.4909 17.6836 17.4697 17.5783C17.3955 17.2039 17.0844 16.9787 16.8099 16.7476C17.2238 14.4425 17.7739 12.1654 18.2895 9.88202C18.5747 8.62186 18.9901 7.24272 19.0484 5.95295C19.2429 5.40669 19.4496 4.86678 19.5535 4.29408L19.3595 4.03708C19.4289 3.87737 19.4252 3.81021 19.4231 3.64047C19.1004 3.34592 18.6049 3.46437 18.2016 3.33798C18.1618 3.32529 18.1237 3.30784 18.085 3.29251L16.6716 3.22693C17.4596 2.66692 18.3091 2.10215 19.1868 1.69391Z" fill="#91DBF4"/>
<path d="M19.1852 1.694C22.2872 1.05889 25.0129 1.17418 27.7263 2.94835C27.994 3.12339 28.2584 3.30001 28.5282 3.47081C28.5526 3.50572 28.5754 3.54168 28.6019 3.575C28.923 3.98271 29.3809 4.29101 29.7249 4.69027C31.0986 6.28358 31.8835 8.07891 32.3335 10.1185C32.334 10.439 32.3711 10.6622 32.2084 10.9482C31.8422 10.6738 31.5878 9.84673 31.3753 9.42632C30.1786 7.05829 28.5637 5.00755 26.1247 3.83041C24.0642 2.83624 21.0921 2.12499 18.8704 2.99066C18.6992 3.05729 18.6229 3.1144 18.4279 3.12603C18.2291 3.13767 18.2365 3.16939 18.0834 3.29261L16.6699 3.22703C17.458 2.66702 18.3076 2.10224 19.1852 1.694Z" fill="#C1EAEC"/>
<path d="M28.529 3.47016C28.961 3.48761 29.3844 4.02541 29.6791 4.34429C31.1052 5.88841 32.0925 7.70223 32.42 9.79738C32.5048 10.3399 32.5059 11.2024 32.801 11.6704C33.1153 12.1691 34.0433 12.5229 34.5398 12.8423C36.479 14.0892 37.2548 16.5117 37.2421 18.693C36.9549 20.2033 36.3094 21.6269 35.0152 22.5481C34.4132 22.9764 33.7375 23.152 33.0141 23.2435C30.6351 23.5454 28.0076 23.3498 25.6037 23.3556C22.681 23.3624 19.6183 23.5523 16.7168 23.2921C19.382 21.2863 21.921 19.1224 24.4849 16.9903C25.0732 17.6174 25.84 18.1685 26.5958 18.5778C28.5614 19.6423 31.0644 20.0383 33.2239 19.3625C34.375 19.0024 35.6623 18.2377 36.215 17.122C36.4943 16.5572 36.5213 15.9533 36.3173 15.3599C35.7243 13.6366 33.9267 12.6091 32.3983 11.8418C32.3999 11.2617 32.3898 10.6964 32.3341 10.1178C31.8842 8.07823 31.0993 6.28291 29.7257 4.6896C29.3817 4.29035 28.9239 3.98205 28.6027 3.57434C28.5762 3.54102 28.5534 3.50506 28.529 3.47016Z" fill="#58B1E7"/>
<path d="M19.5536 4.29397C20.8738 5.33362 22.0191 6.8693 23.1448 8.11941C24.8227 9.98401 26.5356 11.8185 28.2395 13.6593C27.0311 14.8168 25.7581 15.9051 24.4856 16.9908C21.9216 19.123 19.3825 21.2869 16.7172 23.2927C16.2863 23.5803 15.8544 23.8633 15.4421 24.1774L15.4336 23.3794C15.9291 22.6782 16.1215 20.2562 16.2996 19.3366L16.5799 18.0267C16.6764 18.0479 16.8142 18.0823 16.9106 18.0812C17.1894 18.078 17.2742 18.013 17.4613 17.8353C17.4756 17.7375 17.491 17.6835 17.4698 17.5783C17.3956 17.2039 17.0845 16.9786 16.8099 16.7475C17.2239 14.4424 17.774 12.1654 18.2896 9.88194C18.5748 8.62178 18.9903 7.24263 19.0486 5.95286C19.2431 5.40659 19.4498 4.86668 19.5536 4.29397Z" fill="#F2BE2A"/>
</svg>
