<svg width="119" height="120" viewBox="0 0 119 120" fill="none" xmlns="http://www.w3.org/2000/svg">
<path d="M71.7329 96.6804L75.7512 114.023H42.791L46.8094 96.6804H71.7329Z" fill="#FCFDFD"/>
<path d="M83.9031 119.069V118.017C83.9031 114.91 81.3827 112.389 78.2759 112.389H40.2649C37.1581 112.389 34.6377 114.91 34.6377 118.017V119.069H83.9031Z" fill="#3D4C5E"/>
<path d="M96.6955 120H21.8464C21.3314 120 20.915 119.584 20.915 119.069C20.915 118.551 21.3314 118.135 21.8464 118.135H96.6955C97.2104 118.135 97.6268 118.551 97.6268 119.069C97.6268 119.584 97.2104 120 96.6955 120Z" fill="#090B0E"/>
<path d="M118.541 12.4296V85.6008C118.541 92.4649 112.976 98.0305 106.112 98.0305H12.4297C5.56566 98.0305 0 92.4649 0 85.6008V12.4296C0 5.56557 5.56566 -7.62939e-05 12.4297 -7.62939e-05H106.112C112.976 -7.62939e-05 118.541 5.56557 118.541 12.4296Z" fill="#1B6CFC"/>
<path d="M109.798 13.6443V73.0604C109.798 75.3492 107.943 77.2045 105.656 77.2045H12.8858C10.5994 77.2045 8.74414 75.3492 8.74414 73.0604V13.6443C8.74414 11.3555 10.5994 9.50029 12.8858 9.50029H105.656C107.943 9.50029 109.798 11.3555 109.798 13.6443Z" fill="white"/>
<path d="M63.3504 87.6163C63.3504 89.8583 61.5124 91.6987 59.2704 91.6987C57.0136 91.6987 55.1904 89.8583 55.1904 87.6163C55.1904 85.3595 57.0136 83.5363 59.2704 83.5363C61.5124 83.5363 63.3504 85.3595 63.3504 87.6163Z" fill="#3D4C5E"/>
<path d="M22.5066 17.3547H16.6281C16.1107 17.3547 15.6943 16.9359 15.6943 16.421C15.6943 15.9061 16.1107 15.4872 16.6281 15.4872H22.5066C23.0216 15.4872 23.4404 15.9061 23.4404 16.421C23.4404 16.9359 23.0216 17.3547 22.5066 17.3547Z" fill="#090B0E"/>
<path d="M46.3388 17.3547H27.8507C27.3333 17.3547 26.917 16.9359 26.917 16.421C26.917 15.9061 27.3333 15.4872 27.8507 15.4872H46.3388C46.8537 15.4872 47.2726 15.9061 47.2726 16.421C47.2726 16.9359 46.8537 17.3547 46.3388 17.3547Z" fill="#090B0E"/>
<path d="M36.6141 25.1057H23.2531C22.7382 25.1057 22.3193 24.6869 22.3193 24.1719C22.3193 23.657 22.7382 23.2382 23.2531 23.2382H36.6141C37.129 23.2382 37.5479 23.657 37.5479 24.1719C37.5479 24.6869 37.129 25.1057 36.6141 25.1057Z" fill="#090B0E"/>
<path d="M42.8351 25.1057H40.2014C39.684 25.1057 39.2676 24.6869 39.2676 24.1719C39.2676 23.657 39.684 23.2382 40.2014 23.2382H42.8351C43.3525 23.2382 43.7689 23.657 43.7689 24.1719C43.7689 24.6869 43.3525 25.1057 42.8351 25.1057Z" fill="#090B0E"/>
<path d="M63.9861 25.1057H47.0871C46.5697 25.1057 46.1533 24.6869 46.1533 24.1719C46.1533 23.657 46.5697 23.2382 47.0871 23.2382H63.9861C64.501 23.2382 64.9198 23.657 64.9198 24.1719C64.9198 24.6869 64.501 25.1057 63.9861 25.1057Z" fill="#090B0E"/>
<path d="M41.85 31.11H22.507C21.9921 31.11 21.5732 30.6936 21.5732 30.1762C21.5732 29.6613 21.9921 29.2449 22.507 29.2449H41.85C42.3649 29.2449 42.7838 29.6613 42.7838 30.1762C42.7838 30.6936 42.3649 31.11 41.85 31.11Z" fill="#090B0E"/>
<path d="M65.6845 31.11H46.339C45.8241 31.11 45.4053 30.6936 45.4053 30.1762C45.4053 29.6613 45.8241 29.2449 46.339 29.2449H65.6845C66.1995 29.2449 66.6183 29.6613 66.6183 30.1762C66.6183 30.6936 66.1995 31.11 65.6845 31.11Z" fill="#090B0E"/>
<path d="M80.6462 31.11H70.1457C69.6283 31.11 69.2119 30.6936 69.2119 30.1762C69.2119 29.6613 69.6283 29.2449 70.1457 29.2449H80.6462C81.1612 29.2449 81.58 29.6613 81.58 30.1762C81.58 30.6936 81.1612 31.11 80.6462 31.11Z" fill="#090B0E"/>
<path d="M94.6482 31.11H88.341C87.8261 31.11 87.4072 30.6936 87.4072 30.1762C87.4072 29.6613 87.8261 29.2449 88.341 29.2449H94.6482C95.1632 29.2449 95.5795 29.6613 95.5795 30.1762C95.5795 30.6936 95.1632 31.11 94.6482 31.11Z" fill="#090B0E"/>
<path d="M101.914 31.11H98.3878C97.8729 31.11 97.4541 30.6936 97.4541 30.1762C97.4541 29.6613 97.8729 29.2449 98.3878 29.2449H101.914C102.431 29.2449 102.847 29.6613 102.847 30.1762C102.847 30.6936 102.431 31.11 101.914 31.11Z" fill="#090B0E"/>
<path d="M32.1773 37.1165H22.507C21.9921 37.1165 21.5732 36.6976 21.5732 36.1827C21.5732 35.6678 21.9921 35.2514 22.507 35.2514H32.1773C32.6947 35.2514 33.111 35.6678 33.111 36.1827C33.111 36.6976 32.6947 37.1165 32.1773 37.1165Z" fill="#090B0E"/>
<path d="M60.7667 37.1165H36.6144C36.097 37.1165 35.6807 36.6976 35.6807 36.1827C35.6807 35.6678 36.097 35.2514 36.6144 35.2514H60.7667C61.2841 35.2514 61.7004 35.6678 61.7004 36.1827C61.7004 36.6976 61.2841 37.1165 60.7667 37.1165Z" fill="#090B0E"/>
<path d="M80.6466 37.1165H64.4005C63.8856 37.1165 63.4668 36.6976 63.4668 36.1827C63.4668 35.6678 63.8856 35.2514 64.4005 35.2514H80.6466C81.1615 35.2514 81.5804 35.6678 81.5804 36.1827C81.5804 36.6976 81.1615 37.1165 80.6466 37.1165Z" fill="#090B0E"/>
<path d="M94.6481 37.1165H85.9904C85.473 37.1165 85.0566 36.6976 85.0566 36.1827C85.0566 35.6678 85.473 35.2514 85.9904 35.2514H94.6481C95.163 35.2514 95.5794 35.6678 95.5794 36.1827C95.5794 36.6976 95.163 37.1165 94.6481 37.1165Z" fill="#090B0E"/>
<path d="M26.5669 44.6729H23.2531C22.7382 44.6729 22.3193 44.2565 22.3193 43.7391C22.3193 43.2241 22.7382 42.8053 23.2531 42.8053H26.5669C27.0818 42.8053 27.5006 43.2241 27.5006 43.7391C27.5006 44.2565 27.0818 44.6729 26.5669 44.6729Z" fill="#090B0E"/>
<path d="M51.7884 44.6729H30.1467C29.6317 44.6729 29.2129 44.2565 29.2129 43.7391C29.2129 43.2241 29.6317 42.8053 30.1467 42.8053H51.7884C52.3058 42.8053 52.7221 43.2241 52.7221 43.7391C52.7221 44.2565 52.3058 44.6729 51.7884 44.6729Z" fill="#090B0E"/>
<path d="M57.4555 44.6729H54.568C54.0531 44.6729 53.6367 44.2565 53.6367 43.7391C53.6367 43.2241 54.0531 42.8053 54.568 42.8053H57.4555C57.9705 42.8053 58.3868 43.2241 58.3868 43.7391C58.3868 44.2565 57.9705 44.6729 57.4555 44.6729Z" fill="#090B0E"/>
<path d="M69.424 44.6729H61.7297C61.2123 44.6729 60.7959 44.2565 60.7959 43.7391C60.7959 43.2241 61.2123 42.8053 61.7297 42.8053H69.424C69.9414 42.8053 70.3577 43.2241 70.3577 43.7391C70.3577 44.2565 69.9414 44.6729 69.424 44.6729Z" fill="#090B0E"/>
<path d="M29.7231 51.5836H26.8381C26.3231 51.5836 25.9043 51.1648 25.9043 50.6498C25.9043 50.1349 26.3231 49.7161 26.8381 49.7161H29.7231C30.2405 49.7161 30.6569 50.1349 30.6569 50.6498C30.6569 51.1648 30.2405 51.5836 29.7231 51.5836Z" fill="#090B0E"/>
<path d="M39.6423 51.5836H34.4216C33.9066 51.5836 33.4902 51.1648 33.4902 50.6498C33.4902 50.1349 33.9066 49.7161 34.4216 49.7161H39.6423C40.1572 49.7161 40.5736 50.1349 40.5736 50.6498C40.5736 51.1648 40.1572 51.5836 39.6423 51.5836Z" fill="#090B0E"/>
<path d="M59.0216 51.5836H45.466C44.9486 51.5836 44.5322 51.1648 44.5322 50.6498C44.5322 50.1349 44.9486 49.7161 45.466 49.7161H59.0216C59.5365 49.7161 59.9529 50.1349 59.9529 50.6498C59.9529 51.1648 59.5365 51.5836 59.0216 51.5836Z" fill="#090B0E"/>
<path d="M41.8497 58.0413H33.0344C32.517 58.0413 32.1006 57.6224 32.1006 57.1075C32.1006 56.5926 32.517 56.1762 33.0344 56.1762H41.8497C42.3646 56.1762 42.7835 56.5926 42.7835 57.1075C42.7835 57.6224 42.3646 58.0413 41.8497 58.0413Z" fill="#090B0E"/>
<path d="M58.209 58.0413H46.2794C45.762 58.0413 45.3457 57.6224 45.3457 57.1075C45.3457 56.5926 45.762 56.1762 46.2794 56.1762H58.209C58.7239 56.1762 59.1428 56.5926 59.1428 57.1075C59.1428 57.6224 58.7239 58.0413 58.209 58.0413Z" fill="#090B0E"/>
<path d="M68.4733 58.0413H63.0358C62.5209 58.0413 62.1045 57.6224 62.1045 57.1075C62.1045 56.5926 62.5209 56.1762 63.0358 56.1762H68.4733C68.9882 56.1762 69.4071 56.5926 69.4071 57.1075C69.4071 57.6224 68.9882 58.0413 68.4733 58.0413Z" fill="#090B0E"/>
<path d="M75.6231 58.0413H72.132C71.6171 58.0413 71.1982 57.6224 71.1982 57.1075C71.1982 56.5926 71.6171 56.1762 72.132 56.1762H75.6231C76.1381 56.1762 76.5569 56.5926 76.5569 57.1075C76.5569 57.6224 76.1381 58.0413 75.6231 58.0413Z" fill="#090B0E"/>
<path d="M36.6139 65.2108H28.7053C28.1879 65.2108 27.7715 64.792 27.7715 64.277C27.7715 63.7621 28.1879 63.3433 28.7053 63.3433H36.6139C37.1289 63.3433 37.5477 63.7621 37.5477 64.277C37.5477 64.792 37.1289 65.2108 36.6139 65.2108Z" fill="#090B0E"/>
<path d="M42.3839 71.2174H33.6203C33.1054 71.2174 32.6865 70.7986 32.6865 70.2836C32.6865 69.7687 33.1054 69.3499 33.6203 69.3499H42.3839C42.9013 69.3499 43.3177 69.7687 43.3177 70.2836C43.3177 70.7986 42.9013 71.2174 42.3839 71.2174Z" fill="#090B0E"/>
<path d="M51.0415 71.2174H45.466C44.9486 71.2174 44.5322 70.7986 44.5322 70.2836C44.5322 69.7687 44.9486 69.3499 45.466 69.3499H51.0415C51.5564 69.3499 51.9728 69.7687 51.9728 70.2836C51.9728 70.7986 51.5564 71.2174 51.0415 71.2174Z" fill="#090B0E"/>
</svg>
