<svg width="121" height="120" viewBox="0 0 121 120" fill="none" xmlns="http://www.w3.org/2000/svg">
<path d="M120.111 12.8214V107.156C120.111 114.245 114.357 120 107.288 120H13.3435C6.25472 120 0.5 114.245 0.5 107.156V12.8214C0.5 5.73259 6.25472 0.000160217 13.3435 0.000160217H107.288C114.357 0.000160217 120.111 5.73259 120.111 12.8214Z" fill="#FCFDFD"/>
<path d="M120.111 24.249V12.8213C120.111 5.7325 114.357 7.05719e-05 107.288 7.05719e-05H13.3435C6.25472 7.05719e-05 0.5 5.7325 0.5 12.8213V24.249H120.111Z" fill="#FB3189"/>
<path d="M18.4176 12.6009C18.4176 14.7048 16.7122 16.4102 14.6083 16.4102C12.5069 16.4102 10.8015 14.7048 10.8015 12.6009C10.8015 10.497 12.5069 8.79165 14.6083 8.79165C16.7122 8.79165 18.4176 10.497 18.4176 12.6009Z" fill="#47586E"/>
<path d="M31.6298 12.6009C31.6298 14.7048 29.9244 16.4102 27.8206 16.4102C25.7167 16.4102 24.0114 14.7048 24.0114 12.6009C24.0114 10.497 25.7167 8.79165 27.8206 8.79165C29.9244 8.79165 31.6298 10.497 31.6298 12.6009Z" fill="#47586E"/>
<path d="M44.8423 12.6009C44.8423 14.7048 43.1369 16.4102 41.033 16.4102C38.9291 16.4102 37.2238 14.7048 37.2238 12.6009C37.2238 10.497 38.9291 8.79165 41.033 8.79165C43.1369 8.79165 44.8423 10.497 44.8423 12.6009Z" fill="#47586E"/>
<path d="M109.815 12.1951C109.815 14.0639 108.285 15.5762 106.414 15.5762H70.0218C68.1332 15.5762 66.621 14.0639 66.621 12.1951C66.621 10.3041 68.1332 8.79428 70.0218 8.79428H106.414C108.285 8.79428 109.815 10.3041 109.815 12.1951Z" fill="white"/>
<path d="M27.7463 35.3847V50.0846C27.7463 52.2033 26.0013 53.9458 23.8653 53.9458H11.8658C9.72724 53.9458 8.00208 52.2206 8.00208 50.0846V35.3649C8.00208 33.2288 9.72724 31.5037 11.8658 31.5037H23.8653C26.0013 31.5037 27.7463 33.2462 27.7463 35.3847Z" fill="#47586E"/>
<path d="M55.3813 36.2808H43.3125C42.7952 36.2808 42.3744 35.86 42.3744 35.3427C42.3744 34.8254 42.7952 34.4046 43.3125 34.4046H55.3813C55.901 34.4046 56.3194 34.8254 56.3194 35.3427C56.3194 35.86 55.901 36.2808 55.3813 36.2808Z" fill="#090B0E"/>
<path d="M38.5083 36.2808H34.5233C34.006 36.2808 33.5852 35.86 33.5852 35.3427C33.5852 34.8254 34.006 34.4046 34.5233 34.4046H38.5083C39.0256 34.4046 39.4464 34.8254 39.4464 35.3427C39.4464 35.86 39.0256 36.2808 38.5083 36.2808Z" fill="#090B0E"/>
<path d="M55.3813 43.6616H50.5771C50.0597 43.6616 49.6415 43.2433 49.6415 42.726C49.6415 42.2062 50.0597 41.7879 50.5771 41.7879H55.3813C55.9011 41.7879 56.3194 42.2062 56.3194 42.726C56.3194 43.2433 55.9011 43.6616 55.3813 43.6616Z" fill="#090B0E"/>
<path d="M46.946 43.6616H34.5233C34.006 43.6616 33.5852 43.2433 33.5852 42.726C33.5852 42.2062 34.006 41.7879 34.5233 41.7879H46.946C47.4633 41.7879 47.8816 42.2062 47.8816 42.726C47.8816 43.2433 47.4633 43.6616 46.946 43.6616Z" fill="#090B0E"/>
<path d="M46.946 51.0452H34.5233C34.006 51.0452 33.5852 50.6269 33.5852 50.1071C33.5852 49.5898 34.006 49.169 34.5233 49.169H46.946C47.4633 49.169 47.8816 49.5898 47.8816 50.1071C47.8816 50.6269 47.4633 51.0452 46.946 51.0452Z" fill="#090B0E"/>
<path d="M27.7463 64.6609V79.3607C27.7463 81.4794 26.0013 83.2219 23.8653 83.2219H11.8658C9.72724 83.2219 8.00208 81.4992 8.00208 79.3607V64.6435C8.00208 62.505 9.72724 60.7798 11.8658 60.7798H23.8653C26.0013 60.7798 27.7463 62.5248 27.7463 64.6609Z" fill="#FB3189"/>
<path d="M55.3813 65.5569H43.3125C42.7952 65.5569 42.3744 65.1361 42.3744 64.6188C42.3744 64.1015 42.7952 63.6807 43.3125 63.6807H55.3813C55.901 63.6807 56.3194 64.1015 56.3194 64.6188C56.3194 65.1361 55.901 65.5569 55.3813 65.5569Z" fill="#090B0E"/>
<path d="M38.5083 65.5569H34.5233C34.006 65.5569 33.5852 65.1361 33.5852 64.6188C33.5852 64.1015 34.006 63.6807 34.5233 63.6807H38.5083C39.0256 63.6807 39.4464 64.1015 39.4464 64.6188C39.4464 65.1361 39.0256 65.5569 38.5083 65.5569Z" fill="#090B0E"/>
<path d="M55.3813 72.9375H50.5771C50.0597 72.9375 49.6415 72.5192 49.6415 72.0019C49.6415 71.4821 50.0597 71.0638 50.5771 71.0638H55.3813C55.9011 71.0638 56.3194 71.4821 56.3194 72.0019C56.3194 72.5192 55.9011 72.9375 55.3813 72.9375Z" fill="#090B0E"/>
<path d="M46.946 72.9375H34.5233C34.006 72.9375 33.5852 72.5192 33.5852 72.0019C33.5852 71.4821 34.006 71.0638 34.5233 71.0638H46.946C47.4633 71.0638 47.8816 71.4821 47.8816 72.0019C47.8816 72.5192 47.4633 72.9375 46.946 72.9375Z" fill="#090B0E"/>
<path d="M46.946 80.321H34.5233C34.006 80.321 33.5852 79.9027 33.5852 79.383C33.5852 78.8657 34.006 78.4474 34.5233 78.4474H46.946C47.4633 78.4474 47.8816 78.8657 47.8816 79.383C47.8816 79.9027 47.4633 80.321 46.946 80.321Z" fill="#090B0E"/>
<path d="M27.7463 93.9391V108.637C27.7463 110.755 26.0013 112.5 23.8653 112.5H11.8658C9.72724 112.5 8.00208 110.775 8.00208 108.637V93.9194C8.00208 91.7808 9.72724 90.0581 11.8658 90.0581H23.8653C26.0013 90.0581 27.7463 91.8006 27.7463 93.9391Z" fill="#A3ADBB"/>
<path d="M55.3813 94.8328H43.3125C42.7952 94.8328 42.3744 94.4144 42.3744 93.8971C42.3744 93.3774 42.7952 92.9591 43.3125 92.9591H55.3813C55.901 92.9591 56.3194 93.3774 56.3194 93.8971C56.3194 94.4144 55.901 94.8328 55.3813 94.8328Z" fill="#090B0E"/>
<path d="M38.5083 94.8328H34.5233C34.006 94.8328 33.5852 94.4144 33.5852 93.8971C33.5852 93.3774 34.006 92.9591 34.5233 92.9591H38.5083C39.0256 92.9591 39.4464 93.3774 39.4464 93.8971C39.4464 94.4144 39.0256 94.8328 38.5083 94.8328Z" fill="#090B0E"/>
<path d="M55.3813 102.216H50.5771C50.0597 102.216 49.6415 101.798 49.6415 101.278C49.6415 100.761 50.0597 100.342 50.5771 100.342H55.3813C55.9011 100.342 56.3194 100.761 56.3194 101.278C56.3194 101.798 55.9011 102.216 55.3813 102.216Z" fill="#090B0E"/>
<path d="M46.946 102.216H34.5233C34.006 102.216 33.5852 101.798 33.5852 101.278C33.5852 100.761 34.006 100.342 34.5233 100.342H46.946C47.4633 100.342 47.8816 100.761 47.8816 101.278C47.8816 101.798 47.4633 102.216 46.946 102.216Z" fill="#090B0E"/>
<path d="M46.946 109.599H34.5233C34.006 109.599 33.5852 109.179 33.5852 108.661C33.5852 108.144 34.006 107.723 34.5233 107.723H46.946C47.4633 107.723 47.8816 108.144 47.8816 108.661C47.8816 109.179 47.4633 109.599 46.946 109.599Z" fill="#090B0E"/>
<path d="M84.9667 35.3847V50.0846C84.9667 52.2033 83.2217 53.9458 81.0857 53.9458H69.0862C66.9477 53.9458 65.2225 52.2206 65.2225 50.0846V35.3649C65.2225 33.2288 66.9477 31.5037 69.0862 31.5037H81.0857C83.2217 31.5037 84.9667 33.2462 84.9667 35.3847Z" fill="#3275C6"/>
<path d="M112.602 36.2808H100.533C100.013 36.2808 99.5948 35.86 99.5948 35.3427C99.5948 34.8254 100.013 34.4046 100.533 34.4046H112.602C113.122 34.4046 113.54 34.8254 113.54 35.3427C113.54 35.86 113.122 36.2808 112.602 36.2808Z" fill="#090B0E"/>
<path d="M95.7287 36.2808H91.7438C91.2264 36.2808 90.8057 35.86 90.8057 35.3427C90.8057 34.8254 91.2264 34.4046 91.7438 34.4046H95.7287C96.246 34.4046 96.6643 34.8254 96.6643 35.3427C96.6643 35.86 96.246 36.2808 95.7287 36.2808Z" fill="#090B0E"/>
<path d="M112.602 43.6616H107.797C107.28 43.6616 106.859 43.2433 106.859 42.726C106.859 42.2062 107.28 41.7879 107.797 41.7879H112.602C113.121 41.7879 113.54 42.2062 113.54 42.726C113.54 43.2433 113.121 43.6616 112.602 43.6616Z" fill="#090B0E"/>
<path d="M104.164 43.6616H91.7438C91.2264 43.6616 90.8057 43.2433 90.8057 42.726C90.8057 42.2062 91.2264 41.7879 91.7438 41.7879H104.164C104.684 41.7879 105.102 42.2062 105.102 42.726C105.102 43.2433 104.684 43.6616 104.164 43.6616Z" fill="#090B0E"/>
<path d="M104.164 51.0452H91.7438C91.2264 51.0452 90.8057 50.6269 90.8057 50.1071C90.8057 49.5898 91.2264 49.169 91.7438 49.169H104.164C104.684 49.169 105.102 49.5898 105.102 50.1071C105.102 50.6269 104.684 51.0452 104.164 51.0452Z" fill="#090B0E"/>
<path d="M84.9667 64.6609V79.3607C84.9667 81.4794 83.2217 83.2219 81.0857 83.2219H69.0862C66.9477 83.2219 65.2225 81.4992 65.2225 79.3607V64.6435C65.2225 62.505 66.9477 60.7798 69.0862 60.7798H81.0857C83.2217 60.7798 84.9667 62.5248 84.9667 64.6609Z" fill="#47586E"/>
<path d="M112.602 65.5569H100.533C100.013 65.5569 99.5948 65.1361 99.5948 64.6188C99.5948 64.1015 100.013 63.6807 100.533 63.6807H112.602C113.122 63.6807 113.54 64.1015 113.54 64.6188C113.54 65.1361 113.122 65.5569 112.602 65.5569Z" fill="#090B0E"/>
<path d="M95.7287 65.5569H91.7438C91.2264 65.5569 90.8057 65.1361 90.8057 64.6188C90.8057 64.1015 91.2264 63.6807 91.7438 63.6807H95.7287C96.246 63.6807 96.6643 64.1015 96.6643 64.6188C96.6643 65.1361 96.246 65.5569 95.7287 65.5569Z" fill="#090B0E"/>
<path d="M112.602 72.9375H107.797C107.28 72.9375 106.859 72.5192 106.859 72.0019C106.859 71.4821 107.28 71.0638 107.797 71.0638H112.602C113.121 71.0638 113.54 71.4821 113.54 72.0019C113.54 72.5192 113.121 72.9375 112.602 72.9375Z" fill="#090B0E"/>
<path d="M104.164 72.9375H91.7438C91.2264 72.9375 90.8057 72.5192 90.8057 72.0019C90.8057 71.4821 91.2264 71.0638 91.7438 71.0638H104.164C104.684 71.0638 105.102 71.4821 105.102 72.0019C105.102 72.5192 104.684 72.9375 104.164 72.9375Z" fill="#090B0E"/>
<path d="M104.164 80.321H91.7438C91.2264 80.321 90.8057 79.9027 90.8057 79.383C90.8057 78.8657 91.2264 78.4474 91.7438 78.4474H104.164C104.684 78.4474 105.102 78.8657 105.102 79.383C105.102 79.9027 104.684 80.321 104.164 80.321Z" fill="#090B0E"/>
<path d="M84.9667 93.9391V108.637C84.9667 110.755 83.2217 112.5 81.0857 112.5H69.0862C66.9477 112.5 65.2225 110.775 65.2225 108.637V93.9194C65.2225 91.7808 66.9477 90.0581 69.0862 90.0581H81.0857C83.2217 90.0581 84.9667 91.8006 84.9667 93.9391Z" fill="#FB3189"/>
<path d="M112.602 94.8328H100.533C100.013 94.8328 99.5948 94.4144 99.5948 93.8971C99.5948 93.3774 100.013 92.9591 100.533 92.9591H112.602C113.122 92.9591 113.54 93.3774 113.54 93.8971C113.54 94.4144 113.122 94.8328 112.602 94.8328Z" fill="#090B0E"/>
<path d="M95.7287 94.8328H91.7438C91.2264 94.8328 90.8057 94.4144 90.8057 93.8971C90.8057 93.3774 91.2264 92.9591 91.7438 92.9591H95.7287C96.246 92.9591 96.6643 93.3774 96.6643 93.8971C96.6643 94.4144 96.246 94.8328 95.7287 94.8328Z" fill="#090B0E"/>
<path d="M112.602 102.216H107.797C107.28 102.216 106.859 101.798 106.859 101.278C106.859 100.761 107.28 100.342 107.797 100.342H112.602C113.121 100.342 113.54 100.761 113.54 101.278C113.54 101.798 113.121 102.216 112.602 102.216Z" fill="#090B0E"/>
<path d="M104.164 102.216H91.7438C91.2264 102.216 90.8057 101.798 90.8057 101.278C90.8057 100.761 91.2264 100.342 91.7438 100.342H104.164C104.684 100.342 105.102 100.761 105.102 101.278C105.102 101.798 104.684 102.216 104.164 102.216Z" fill="#090B0E"/>
<path d="M104.164 109.599H91.7438C91.2264 109.599 90.8057 109.179 90.8057 108.661C90.8057 108.144 91.2264 107.723 91.7438 107.723H104.164C104.684 107.723 105.102 108.144 105.102 108.661C105.102 109.179 104.684 109.599 104.164 109.599Z" fill="#090B0E"/>
</svg>
