<svg width="32" height="32" viewBox="0 0 32 32" fill="none" xmlns="http://www.w3.org/2000/svg">
<path d="M1.35717 26.6232V23.9608H30.6423V26.6232C29.9116 26.6232 2.55799 26.6232 1.35717 26.6232ZM17.2785 30.5905H14.6689V27.9282H17.2785V30.5905ZM6.00307 6.00326V19.3148C6.00307 19.6803 6.3163 19.9935 6.68165 19.9935H25.3178C25.6832 19.9935 25.9964 19.6803 25.9964 19.3148V6.00326H30.6423V22.6558H1.35717V6.00326H6.00307ZM11.3275 1.35726V10.6493C11.3275 11.1191 11.8498 11.4845 12.2673 11.2235L14.6163 10.0228L16.9658 11.2235C17.3832 11.4323 17.905 11.1191 17.905 10.6493V1.35726H24.535V15.9739H15.9734C15.6081 15.9739 15.2953 16.2871 15.2953 16.6525C15.2953 17.0179 15.6081 17.3312 15.9734 17.3312H24.6393V18.6362H7.30813V14.6688H15.9734C16.3388 14.6688 16.6525 14.3556 16.6525 13.9902C16.6525 13.6248 16.3388 13.3116 15.9734 13.3116H7.30813V1.35726H11.3275ZM16.6525 1.35726V9.60522L14.93 8.76998C14.7205 8.66558 14.512 8.66558 14.3551 8.76998L12.6326 9.60522V1.35726H16.6525ZM31.2688 4.646H25.9438V0.678629C25.9438 0.313213 25.6311 0 25.2657 0C24.6392 0 7.36077 0 6.62955 0C6.26419 0 5.95094 0.313213 5.95094 0.678629V4.646H0.67808C0.312726 4.646 0 4.95922 0 5.32463V27.3018C0 27.6672 0.312726 27.9804 0.67808 27.9804H13.3112V30.6427H12.0066C11.6413 30.6427 11.3275 30.956 11.3275 31.3214C11.3275 31.6868 11.6413 32 12.0066 32C12.998 32 19.001 32 19.9934 32C20.3587 32 20.6719 31.6868 20.6719 31.3214C20.6719 30.956 20.3587 30.6427 19.9934 30.6427H18.6883V27.9804H31.3209C31.6863 27.9804 32 27.6672 32 27.3018V5.32463C31.9474 4.95922 31.6341 4.646 31.2688 4.646Z" fill="url(#paint0_linear_12498_3551)"/>
<path d="M15.2949 24.6393H16.5995V25.9443H15.2949V24.6393Z" fill="url(#paint1_linear_12498_3551)"/>
<path d="M21.9766 2.66174H23.2811V3.9668H21.9766V2.66174Z" fill="url(#paint2_linear_12498_3551)"/>
<path d="M19.3145 2.66174H20.6195V3.9668H19.3145V2.66174Z" fill="url(#paint3_linear_12498_3551)"/>
<defs>
<linearGradient id="paint0_linear_12498_3551" x1="-1.68944e-07" y1="7.66667" x2="32.0379" y2="7.33582" gradientUnits="userSpaceOnUse">
<stop stop-color="#FF0A54"/>
<stop offset="1" stop-color="#FF6F00"/>
</linearGradient>
<linearGradient id="paint1_linear_12498_3551" x1="15.2949" y1="24.9519" x2="16.601" y2="24.9385" gradientUnits="userSpaceOnUse">
<stop stop-color="#FF0A54"/>
<stop offset="1" stop-color="#FF6F00"/>
</linearGradient>
<linearGradient id="paint2_linear_12498_3551" x1="21.9766" y1="2.97441" x2="23.2827" y2="2.96093" gradientUnits="userSpaceOnUse">
<stop stop-color="#FF0A54"/>
<stop offset="1" stop-color="#FF6F00"/>
</linearGradient>
<linearGradient id="paint3_linear_12498_3551" x1="19.3145" y1="2.97441" x2="20.6211" y2="2.96092" gradientUnits="userSpaceOnUse">
<stop stop-color="#FF0A54"/>
<stop offset="1" stop-color="#FF6F00"/>
</linearGradient>
</defs>
</svg>
