<svg width="24" height="24" viewBox="0 0 24 24" fill="none" xmlns="http://www.w3.org/2000/svg">
<path d="M22 3.6C22 1.6152 20.2585 0 18.1185 0C15.9785 0 14.237 1.6152 14.237 3.6C14.237 4.9368 15.0353 6.0924 16.2049 6.7128C16.0717 8.3232 14.6316 9.6 12.8617 9.6H10.5457C9.2946 9.6 8.13533 9.9636 7.17531 10.5768V6.9792C8.67745 6.4824 9.76297 5.1624 9.76297 3.6C9.76297 1.6152 8.02148 0 5.88149 0C3.74149 0 2 1.6152 2 3.6C2 5.1624 3.08552 6.4824 4.58766 6.9792V17.022C3.08552 17.5176 2 18.8376 2 20.4C2 22.3848 3.74149 24 5.88149 24C8.02148 24 9.76297 22.3848 9.76297 20.4C9.76297 18.8376 8.67745 17.5176 7.17531 17.0208V15.1248C7.17531 13.4016 8.6865 12 10.5457 12H12.8617C15.9009 12 18.3876 9.8712 18.7473 7.1412C20.5884 6.8604 22 5.3856 22 3.6Z" fill="#1A56DB"/>
</svg>
