<svg width="32" height="32" viewBox="0 0 32 32" fill="none" xmlns="http://www.w3.org/2000/svg">
<path d="M16.062 11.1387C13.7853 11.1387 11.9395 13.046 11.9395 15.3849C11.9395 17.7232 13.7853 19.6306 16.062 19.6306C18.3393 19.6306 20.185 17.7232 20.185 15.3849C20.185 13.046 18.3393 11.1387 16.062 11.1387ZM16.062 21.046C13.0467 21.046 10.5234 18.5228 10.5234 15.3849C10.5234 12.2459 12.9851 9.72263 16.062 9.72263C19.1388 9.72263 21.6005 12.2459 21.6005 15.3849C21.6005 18.5228 19.0778 21.046 16.062 21.046Z" fill="#055346"/>
<path d="M31.2614 16.3691C30.8921 16.3691 30.5845 16.0609 30.5845 15.6923C30.5845 7.69167 24.3074 1.41533 16.3079 1.41533C8.06119 1.41533 1.35381 7.81496 1.35381 15.6923C1.35381 16.0609 1.04618 16.3691 0.676297 16.3691C0.307632 16.3691 0 16.0609 0 15.6923C0 11.446 1.72246 7.50794 4.8616 4.5538C6.3387 3.13837 8.12346 2.03057 10.0309 1.23039C11.9999 0.430822 14.1533 -8.58307e-05 16.3079 -8.58307e-05C25.1076 -8.58307e-05 32 6.8921 32 15.6306C32 16.0609 31.6923 16.3691 31.2614 16.3691Z" fill="#055346"/>
<path d="M13.1074 27.9997H18.8918V22.7073C18.8918 22.4613 19.0768 22.2148 19.2611 22.0921C21.7838 20.8616 23.4459 18.2767 23.4459 15.4459C23.4459 11.3845 20.123 8.06174 16.061 8.06174C11.9995 8.06174 8.67668 11.3845 8.67668 15.4459C8.67668 18.2157 10.2148 20.7383 12.7381 22.031C12.9841 22.1537 13.1074 22.3997 13.1074 22.6457V27.9997ZM19.5688 29.4152H12.4298C12.0612 29.4152 11.7536 29.1075 11.7536 28.7383V23.0766C8.98431 21.5385 7.32227 18.6466 7.32227 15.4459C7.32227 10.646 11.261 6.70796 16.061 6.70796C20.8609 6.70796 24.7996 10.646 24.7996 15.4459C24.7996 17.1073 24.3071 18.7693 23.4459 20.1841C22.6457 21.4152 21.5378 22.4613 20.2457 23.1382V28.7383C20.2457 29.0459 19.938 29.4152 19.5688 29.4152Z" fill="#055346"/>
<path d="M15.0776 30.584H16.9239V29.3541H15.0776V30.584ZM17.6008 32H14.339C13.9703 32 13.6621 31.6924 13.6621 31.3225V28.7382C13.6621 28.369 13.9703 28.0607 14.339 28.0607H17.6008C17.9695 28.0607 18.2771 28.369 18.2771 28.7382V31.3225C18.3394 31.6924 18.0311 32 17.6008 32Z" fill="#055346"/>
<path d="M15.0154 29.4152C14.6455 29.4152 14.3379 29.1075 14.3379 28.7383V15.015C14.3379 14.6463 14.6455 14.3381 15.0154 14.3381C15.3841 14.3381 15.6917 14.6463 15.6917 15.015V28.6766C15.6917 29.0459 15.3841 29.4152 15.0154 29.4152Z" fill="#055346"/>
<path d="M16.9849 29.4152C16.6162 29.4152 16.3086 29.1075 16.3086 28.7383V15.015C16.3086 14.6463 16.6162 14.3381 16.9849 14.3381C17.3548 14.3381 17.6618 14.6463 17.6618 15.015V28.6766C17.6618 29.0459 17.3548 29.4152 16.9849 29.4152Z" fill="#055346"/>
<path d="M15.6919 5.9696C15.3226 5.9696 15.0156 5.66137 15.0156 5.29271V2.70783C15.0156 2.33857 15.3226 2.03095 15.6919 2.03095C16.0612 2.03095 16.3688 2.33857 16.3688 2.70783V5.29271C16.3688 5.66137 16.0612 5.9696 15.6919 5.9696Z" fill="#055346"/>
<path d="M22.708 8.1228C22.5847 8.1228 22.462 8.06177 22.3387 8.00012C22.0311 7.81518 21.9084 7.38426 22.1544 7.0156L23.5692 4.86164C23.7542 4.55402 24.1851 4.43134 24.5538 4.67731C24.9236 4.92329 24.9853 5.29256 24.7387 5.66122L23.3233 7.81518C23.2006 8.00012 22.954 8.1228 22.708 8.1228Z" fill="#055346"/>
<path d="M19.6306 6.58459C19.569 6.58459 19.5073 6.58459 19.4457 6.58459C19.077 6.46191 18.831 6.09204 18.9537 5.72339L19.569 3.20016C19.6923 2.83089 20.0609 2.5843 20.4308 2.70759C20.7995 2.76924 21.0455 3.20016 20.9228 3.56881L20.3069 6.09205C20.2459 6.39967 19.9383 6.58459 19.6306 6.58459Z" fill="#055346"/>
<path d="M25.3542 11.1387C25.1699 11.1387 24.9239 11.0154 24.8006 10.8927C24.554 10.5851 24.6157 10.1542 24.9239 9.90758L26.954 8.30782C27.2622 8.06184 27.6925 8.12288 27.9385 8.4305C28.1851 8.73873 28.1235 9.16904 27.8158 9.41563L25.7851 11.0154C25.6618 11.1387 25.4775 11.1387 25.3542 11.1387Z" fill="#055346"/>
<path d="M9.29313 8.1228C9.04654 8.1228 8.86221 8.00012 8.67787 7.81518L7.2618 5.66122C7.07747 5.3536 7.13913 4.92329 7.44676 4.67731C7.75439 4.43134 8.1853 4.55402 8.43128 4.86164L9.84673 7.07725C10.0317 7.38426 9.97002 7.81518 9.6624 8.06177C9.5391 8.1228 9.41643 8.1228 9.29313 8.1228Z" fill="#055346"/>
<path d="M12.3695 6.58459C12.0619 6.58459 11.7542 6.39967 11.6926 6.03101L11.0767 3.50778C10.954 3.13851 11.2006 2.76924 11.5693 2.64655C11.9392 2.5843 12.3078 2.76924 12.4305 3.13851L13.0464 5.66113C13.1691 6.03101 12.9231 6.39966 12.5538 6.52295C12.4928 6.58459 12.4305 6.58459 12.3695 6.58459Z" fill="#055346"/>
<path d="M6.64684 11.1387C6.46189 11.1387 6.33921 11.077 6.21591 10.9537L4.18461 9.35398C3.87759 9.10801 3.81593 8.67709 4.06191 8.36946C4.30789 8.06184 4.7388 8.0002 5.04643 8.24678L7.07714 9.84655C7.38537 10.0925 7.44641 10.5234 7.20043 10.831C7.07714 11.077 6.83056 11.1387 6.64684 11.1387Z" fill="#055346"/>
<path d="M29.3531 28.7382H24.1216C23.7529 28.7382 23.4453 28.4305 23.4453 28.0607C23.4453 27.692 23.7529 27.3844 24.1216 27.3844H29.3531C29.7217 27.3844 30.03 27.692 30.03 28.0607C30.03 28.4305 29.7217 28.7382 29.3531 28.7382Z" fill="#055346"/>
<path d="M31.2614 32H21.5382C21.1696 32 20.8613 31.6924 20.8613 31.3225C20.8613 30.9538 21.1696 30.6462 21.5382 30.6462H31.3231C31.6924 30.6462 32 30.9538 32 31.3225C32 31.6924 31.6924 32 31.2614 32Z" fill="#055346"/>
<path d="M29.3531 28.7382H24.1216C23.7529 28.7382 23.4453 28.4305 23.4453 28.0607C23.4453 27.692 23.7529 27.3844 24.1216 27.3844H29.3531C29.7217 27.3844 30.03 27.692 30.03 28.0607C30.03 28.4305 29.7217 28.7382 29.3531 28.7382Z" fill="#055346"/>
<path d="M31.2614 32H21.5382C21.1696 32 20.8613 31.6924 20.8613 31.3225C20.8613 30.9538 21.1696 30.6462 21.5382 30.6462H31.3231C31.6924 30.6462 32 30.9538 32 31.3225C32 31.6924 31.6924 32 31.2614 32Z" fill="#055346"/>
<path d="M8.49177 28.7382H3.26088C2.8916 28.7382 2.58398 28.4305 2.58398 28.0607C2.58398 27.692 2.8916 27.3844 3.26088 27.3844H8.49177C8.86105 27.3844 9.16867 27.692 9.16867 28.0607C9.16867 28.4305 8.9227 28.7382 8.49177 28.7382Z" fill="#055346"/>
<path d="M10.4618 32H0.676297C0.307632 32 0 31.6924 0 31.3225C0 30.9538 0.307632 30.6462 0.676297 30.6462H10.4618C10.8304 30.6462 11.1381 30.9538 11.1381 31.3225C11.1381 31.6924 10.8304 32 10.4618 32Z" fill="#055346"/>
</svg>
