<svg width="41" height="40" viewBox="0 0 41 40" fill="none" xmlns="http://www.w3.org/2000/svg">
<path d="M17.0052 40C7.62844 40 0 32.3736 0 22.9999C0 13.6226 7.62844 5.99368 17.0052 5.99368C21.1658 5.99368 25.1758 7.51847 28.2961 10.2868C28.4322 10.4072 28.4443 10.6155 28.3239 10.7511C28.2031 10.8866 27.9952 10.8988 27.8597 10.7789C24.8597 8.11725 21.005 6.65163 17.0052 6.65163C7.99105 6.65163 0.657943 13.9852 0.657943 22.9999C0.657943 32.011 7.99105 39.3421 17.0052 39.3421C26.0163 39.3421 33.3474 32.011 33.3474 22.9999C33.3474 19.0648 31.9338 15.2718 29.3632 12.3001C29.3025 12.2819 29.2464 12.247 29.2024 12.1954C29.0861 12.0559 29.1038 11.849 29.2428 11.7322L29.2828 11.6983C29.4199 11.5845 29.6216 11.5992 29.741 11.7327C32.4907 14.844 34.0053 18.8453 34.0053 22.9999C34.0053 32.3736 26.3789 40 17.0052 40Z" fill="#FB3189"/>
<path d="M31.7213 8.30112L34.5195 8.97931C34.6859 9.02685 34.8417 9.04909 34.9964 9.04909C35.4293 9.04909 35.844 8.8726 36.1637 8.55248L39.0554 5.66122L35.4951 4.77315C35.3767 4.74332 35.2847 4.65177 35.2554 4.53343L34.3673 0.972076L31.4755 3.86333C31.0315 4.30686 30.8747 4.9016 31.0442 5.49431L31.7213 8.30112ZM34.9964 9.70654C34.781 9.70654 34.564 9.67569 34.3516 9.615L31.3709 8.89283C31.2515 8.864 31.1574 8.77044 31.1291 8.65058L30.4084 5.66171C30.1783 4.8576 30.4024 4.00647 31.0103 3.39808L34.3132 0.0966537C34.3971 0.0132082 34.5185 -0.0206837 34.6333 0.0126945C34.7476 0.0440498 34.8361 0.134584 34.8645 0.249385L35.8456 4.18295L39.7781 5.16356C39.8934 5.19239 39.9834 5.28091 40.0153 5.3947C40.0466 5.50899 40.0148 5.63137 39.9314 5.71532L36.6289 9.01724C36.1849 9.46127 35.6048 9.70654 34.9964 9.70654Z" fill="#FB3189"/>
<path d="M17.0052 36.9138C9.32924 36.9138 3.08447 30.6721 3.08447 22.9997C3.08447 15.3237 9.32924 9.07892 17.0052 9.07892C20.3344 9.07892 23.5534 10.272 26.0694 12.438C26.207 12.5558 26.2227 12.7642 26.1038 12.9012C25.986 13.0393 25.7771 13.0555 25.6406 12.9356C23.2439 10.8728 20.1767 9.73689 17.0052 9.73689C9.69185 9.73689 3.74192 15.6863 3.74192 22.9997C3.74192 30.3095 9.69185 36.2564 17.0052 36.2564C24.3161 36.2564 30.2635 30.3095 30.2635 22.9997C30.2635 19.852 29.1448 16.8029 27.1133 14.4134C26.9959 14.2753 27.0126 14.068 27.1507 13.9501C27.2887 13.8328 27.4956 13.849 27.6139 13.9875C29.7466 16.4955 30.9214 19.6962 30.9214 22.9997C30.9214 30.6721 24.6787 36.9138 17.0052 36.9138Z" fill="#FB3189"/>
<path d="M17.0052 33.5378C11.1944 33.5378 6.4668 28.8103 6.4668 22.9999C6.4668 17.1891 11.1944 12.461 17.0052 12.461C19.4681 12.461 21.8622 13.3284 23.7471 14.9027C23.8862 15.0195 23.9049 15.2268 23.7886 15.3659C23.6722 15.505 23.4644 15.5237 23.3253 15.4074C21.5588 13.9312 19.3144 13.119 17.0052 13.119C11.557 13.119 7.12474 17.5512 7.12474 22.9999C7.12474 28.4477 11.557 32.8799 17.0052 32.8799C22.4534 32.8799 26.8862 28.4477 26.8862 22.9999C26.8862 20.6887 26.0719 18.4398 24.5922 16.6687C24.4753 16.5296 24.4946 16.3223 24.6336 16.2054C24.7727 16.0896 24.9801 16.1078 25.0969 16.2469C26.6748 18.1368 27.5441 20.535 27.5441 22.9999C27.5441 28.8103 22.816 33.5378 17.0052 33.5378Z" fill="#FB3189"/>
<path d="M17.0051 30.0752C13.1003 30.0752 9.92334 26.9012 9.92334 22.9995C9.92334 19.0943 13.1003 15.9167 17.0051 15.9167C18.589 15.9167 20.1426 16.4554 21.3796 17.4334C21.5223 17.5462 21.546 17.7526 21.4337 17.8952C21.3215 18.0378 21.1136 18.0621 20.972 17.9488C19.8508 17.0627 18.4419 16.5747 17.0051 16.5747C13.4629 16.5747 10.5813 19.4569 10.5813 22.9995C10.5813 26.5386 13.4629 29.4172 17.0051 29.4172C20.5447 29.4172 23.4238 26.5386 23.4238 22.9995C23.4238 21.5203 22.9358 20.129 22.0108 18.9774C21.8975 18.8353 21.9203 18.6285 22.0614 18.5152C22.203 18.4014 22.4103 18.4247 22.5236 18.5653C23.5432 19.8357 24.0818 21.3685 24.0818 22.9995C24.0818 26.9012 20.9073 30.0752 17.0051 30.0752Z" fill="#FB3189"/>
<path d="M35.8456 4.18267L36.6264 4.37637L38.1229 2.8794C38.4046 2.5967 38.4046 2.18655 38.1229 1.90385C37.8493 1.63025 37.4225 1.63025 37.1489 1.90385L35.6519 3.40182L35.8456 4.18267ZM36.7276 5.0692C36.7013 5.0692 36.675 5.06568 36.6487 5.0591L35.4951 4.77337C35.3768 4.74404 35.2842 4.652 35.2554 4.53315L34.9687 3.37958C34.9414 3.26781 34.9737 3.14946 35.0552 3.06804L36.6836 1.43908C37.205 0.917674 38.0663 0.917157 38.5882 1.43958C39.1298 1.98172 39.1298 2.8005 38.5882 3.34416L36.9602 4.97263C36.8975 5.03483 36.8136 5.0692 36.7276 5.0692ZM30.9865 8.06111C23.0941 15.9707 19.4073 20.1531 18.013 22.0041C19.9581 20.538 24.4085 16.5827 31.9692 9.03919L31.3704 8.89305C31.251 8.86372 31.1575 8.77015 31.1291 8.6508L30.9865 8.06111ZM17.0051 23.3286C16.9141 23.3286 16.8261 23.2907 16.7634 23.2224C16.685 23.1374 16.6567 23.0176 16.69 22.9063C16.9899 21.8923 20.8896 17.229 30.936 7.18115C31.0199 7.0972 31.1433 7.06634 31.2576 7.09719C31.3719 7.12955 31.4599 7.22161 31.4882 7.33692L31.7214 8.30185L32.6924 8.53953C32.8082 8.56836 32.8992 8.65637 32.9311 8.77067C32.9634 8.88496 32.9311 9.00783 32.8471 9.09179C24.4515 17.4879 18.2588 23.0732 17.0724 23.322C17.0501 23.3261 17.0274 23.3286 17.0051 23.3286Z" fill="#FB3189"/>
<path d="M17.0052 20.3913C15.5669 20.3913 14.3977 21.5611 14.3977 22.9999C14.3977 24.4346 15.5669 25.6013 17.0052 25.6013C18.4435 25.6013 19.6128 24.4346 19.6128 22.9999C19.6128 22.5761 19.5137 22.1674 19.323 21.8018C17.5863 23.2143 17.2161 23.2917 17.0725 23.322C16.9597 23.3443 16.8429 23.3078 16.7645 23.2234C16.6861 23.1394 16.6573 23.0206 16.6892 22.9098C16.7564 22.6731 16.9916 22.1866 18.2155 20.6876C17.8448 20.4929 17.4326 20.3913 17.0052 20.3913ZM17.0052 26.2593C15.2043 26.2593 13.7397 24.7972 13.7397 22.9999C13.7397 21.1984 15.2043 19.7334 17.0052 19.7334C17.69 19.7334 18.3449 19.9427 18.8992 20.3382C18.9736 20.3918 19.0221 20.4732 19.0342 20.5632C19.0459 20.6543 19.0191 20.7458 18.9609 20.8156C18.5644 21.2945 18.263 21.6759 18.0339 21.9788C18.3353 21.7522 18.7161 21.4523 19.1961 21.0553C19.2669 20.9972 19.3574 20.9704 19.4484 20.983C19.539 20.9946 19.6204 21.0437 19.673 21.118C20.0639 21.6668 20.2707 22.3171 20.2707 22.9999C20.2707 24.7972 18.8061 26.2593 17.0052 26.2593Z" fill="#FB3189"/>
</svg>
