<svg width="143" height="120" viewBox="0 0 143 120" fill="none" xmlns="http://www.w3.org/2000/svg">
<path d="M119.606 12.8252V107.157C119.606 114.246 113.852 120 106.784 120H12.8439C5.75523 120 0 114.246 0 107.157V12.8252C0 5.73913 5.75523 0.00585938 12.8439 0.00585938H106.784C113.852 0.00585938 119.606 5.73913 119.606 12.8252Z" fill="#FCFDFD"/>
<path d="M119.606 12.8226V24.2598H49.0181C48.7751 24.2598 48.5349 24.1836 48.3358 24.0431L43.2673 20.4473C43.0682 20.3038 42.831 20.2277 42.588 20.2277H17.422C16.7719 20.2277 16.2449 20.7548 16.2449 21.4049V23.0826C16.2449 23.7327 15.7181 24.2598 15.0681 24.2598H0.00878906V12.8226C0.00878906 5.74238 5.75051 0.000335693 12.8333 0.000335693H106.784C113.849 0.000335693 119.606 5.73652 119.606 12.8226Z" fill="#FB3189"/>
<path d="M17.9173 11.7706C17.9173 13.8759 16.2123 15.5801 14.1087 15.5801C12.0051 15.5801 10.2998 13.8759 10.2998 11.7706C10.2998 9.66823 12.0051 7.96406 14.1087 7.96406C16.2123 7.96406 17.9173 9.66823 17.9173 11.7706Z" fill="#47586E"/>
<path d="M31.1287 11.7706C31.1287 13.8759 29.4234 15.5801 27.3201 15.5801C25.2166 15.5801 23.5112 13.8759 23.5112 11.7706C23.5112 9.66823 25.2166 7.96406 27.3201 7.96406C29.4234 7.96406 31.1287 9.66823 31.1287 11.7706Z" fill="#47586E"/>
<path d="M44.3392 11.7706C44.3392 13.8759 42.635 15.5801 40.5326 15.5801C38.4273 15.5801 36.7231 13.8759 36.7231 11.7706C36.7231 9.66823 38.4273 7.96406 40.5326 7.96406C42.635 7.96406 44.3392 9.66823 44.3392 11.7706Z" fill="#47586E"/>
<path d="M109.311 11.3641C109.311 13.2352 107.782 14.7461 105.911 14.7461H69.5206C67.629 14.7461 66.1182 13.2352 66.1182 11.3641C66.1182 9.47549 67.629 7.96459 69.5206 7.96459H105.911C107.782 7.96459 109.311 9.47549 109.311 11.3641Z" fill="white"/>
<path d="M59.8022 34.8823V80.069C59.8022 81.7175 58.4699 83.0498 56.8214 83.0498H10.4831C8.8328 83.0498 7.50195 81.7175 7.50195 80.069V34.8823C7.50195 33.2309 8.8328 31.884 10.4831 31.884H56.8214C58.4699 31.884 59.8022 33.2309 59.8022 34.8823Z" fill="#47586E"/>
<path d="M112.102 93.8284V109.503C112.102 111.151 110.772 112.501 109.121 112.501H87.8421C86.1907 112.501 84.8613 111.151 84.8613 109.503V93.8284C84.8613 92.1799 86.1907 90.8476 87.8421 90.8476H109.121C110.772 90.8476 112.102 92.1799 112.102 93.8284Z" fill="#47586E"/>
<path d="M73.4239 93.8284V109.503C73.4239 111.151 72.0915 112.501 70.443 112.501H49.1644C47.513 112.501 46.1807 111.151 46.1807 109.503V93.8284C46.1807 92.1799 47.513 90.8476 49.1644 90.8476H70.443C72.0915 90.8476 73.4239 92.1799 73.4239 93.8284Z" fill="#A3ADBB"/>
<path d="M34.7465 93.8284V109.503C34.7465 111.151 33.4142 112.501 31.7645 112.501H10.485C8.83472 112.501 7.50391 111.151 7.50391 109.503V93.8284C7.50391 92.1799 8.83472 90.8476 10.485 90.8476H31.7645C33.4142 90.8476 34.7465 92.1799 34.7465 93.8284Z" fill="#FB3189"/>
<path d="M112.105 33.5967H86.8759C86.2639 33.5967 85.7661 33.0989 85.7661 32.4869C85.7661 31.872 86.2639 31.3771 86.8759 31.3771H112.105C112.716 31.3771 113.211 31.872 113.211 32.4869C113.211 33.0989 112.716 33.5967 112.105 33.5967Z" fill="#090B0E"/>
<path d="M78.1879 33.5967H70.8646C70.2497 33.5967 69.7549 33.0989 69.7549 32.4869C69.7549 31.872 70.2497 31.3771 70.8646 31.3771H78.1879C78.8028 31.3771 79.2976 31.872 79.2976 32.4869C79.2976 33.0989 78.8028 33.5967 78.1879 33.5967Z" fill="#090B0E"/>
<path d="M112.104 43.5879H100.925C100.31 43.5879 99.8149 43.093 99.8149 42.4781C99.8149 41.8661 100.31 41.3713 100.925 41.3713H112.104C112.716 41.3713 113.211 41.8661 113.211 42.4781C113.211 43.093 112.716 43.5879 112.104 43.5879Z" fill="#090B0E"/>
<path d="M96.3012 43.5879H70.8646C70.2497 43.5879 69.7549 43.093 69.7549 42.4781C69.7549 41.8661 70.2497 41.3713 70.8646 41.3713H96.3012C96.9161 41.3713 97.4109 41.8661 97.4109 42.4781C97.4109 43.093 96.9161 43.5879 96.3012 43.5879Z" fill="#090B0E"/>
<path d="M112.105 53.5791H91.4818C90.8698 53.5791 90.375 53.0843 90.375 52.4694C90.375 51.8574 90.8698 51.3625 91.4818 51.3625H112.105C112.717 51.3625 113.211 51.8574 113.211 52.4694C113.211 53.0843 112.717 53.5791 112.105 53.5791Z" fill="#090B0E"/>
<path d="M84.861 53.5791H70.8646C70.2497 53.5791 69.7549 53.0843 69.7549 52.4694C69.7549 51.8574 70.2497 51.3625 70.8646 51.3625H84.861C85.473 51.3625 85.9708 51.8574 85.9708 52.4694C85.9708 53.0843 85.473 53.5791 84.861 53.5791Z" fill="#090B0E"/>
<path d="M112.105 63.5723H104.251C103.639 63.5723 103.142 63.0745 103.142 62.4625C103.142 61.8476 103.639 61.3527 104.251 61.3527H112.105C112.717 61.3527 113.211 61.8476 113.211 62.4625C113.211 63.0745 112.717 63.5723 112.105 63.5723Z" fill="#090B0E"/>
<path d="M99.4899 63.5723H70.8646C70.2497 63.5723 69.7549 63.0745 69.7549 62.4625C69.7549 61.8476 70.2497 61.3527 70.8646 61.3527H99.4899C100.102 61.3527 100.6 61.8476 100.6 62.4625C100.6 63.0745 100.102 63.5723 99.4899 63.5723Z" fill="#090B0E"/>
<path d="M112.104 73.5635H90.2021C89.5901 73.5635 89.0923 73.0687 89.0923 72.4538C89.0923 71.8418 89.5901 71.3469 90.2021 71.3469H112.104C112.716 71.3469 113.211 71.8418 113.211 72.4538C113.211 73.0687 112.716 73.5635 112.104 73.5635Z" fill="#090B0E"/>
<path d="M84.861 73.5635H70.8646C70.2497 73.5635 69.7549 73.0687 69.7549 72.4538C69.7549 71.8418 70.2497 71.3469 70.8646 71.3469H84.861C85.473 71.3469 85.9708 71.8418 85.9708 72.4538C85.9708 73.0687 85.473 73.5635 84.861 73.5635Z" fill="#090B0E"/>
<path d="M112.104 83.5537H70.8646C70.2497 83.5537 69.7549 83.0588 69.7549 82.4439C69.7549 81.832 70.2497 81.3371 70.8646 81.3371H112.104C112.716 81.3371 113.211 81.832 113.211 82.4439C113.211 83.0588 112.716 83.5537 112.104 83.5537Z" fill="#090B0E"/>
<path d="M141.447 13.3232L109.92 69.4639L91.0044 58.9754L122.534 2.83462C123.87 0.430634 126.915 -0.444824 129.319 0.890396L139.503 6.53577C141.91 7.87099 142.782 10.9162 141.447 13.3232Z" fill="#3275C6"/>
<path d="M109.92 69.4639L98.5502 78.0726L93.4934 81.8879C91.6165 83.3081 88.9577 81.8352 89.1685 79.4898L89.7249 73.1797L91.0045 58.9754L109.92 69.4639Z" fill="#A3ADBB"/>
<path d="M98.5502 78.0726L93.4934 81.8879C91.6165 83.3081 88.9577 81.8352 89.1685 79.4898L89.7249 73.1797C91.4583 73.0245 93.2503 73.3583 94.8989 74.2748C96.5298 75.1767 97.7831 76.5324 98.5502 78.0726Z" fill="#47586E"/>
<path d="M103.355 65.8242L97.5693 62.615L124.438 14.8809L130.224 18.0871L103.355 65.8242Z" fill="#FB3189"/>
<path d="M135.442 24.1514L141.447 13.3232C142.782 10.9163 141.91 7.87106 139.503 6.53584L129.319 0.890467C126.915 -0.444754 123.87 0.430708 122.534 2.83469L116.529 13.6658L135.442 24.1514Z" fill="white"/>
<path d="M141.447 13.3226L138.039 19.4717L119.126 8.98314L122.534 2.8341C123.87 0.430115 126.915 -0.445347 129.319 0.889874L139.503 6.53524C141.91 7.87047 142.782 10.9157 141.447 13.3226Z" fill="#47586E"/>
<path d="M22.6878 56.9984C22.0474 56.7495 21.193 56.4918 20.1462 56.24C19.3747 56.0643 18.7598 55.8945 18.3176 55.7393C17.9197 55.6017 17.5862 55.4025 17.3265 55.1566C17.1109 54.9487 17.0055 54.6793 17.0055 54.3338C17.0055 53.7862 17.2451 53.388 17.7572 53.0747C18.3276 52.7292 19.0921 52.5564 20.0294 52.5564C21.0519 52.5564 22.0577 52.7233 22.9976 53.0483C23.18 53.1215 23.3355 53.1596 23.4711 53.1596C23.8333 53.1596 24.1443 53.0161 24.3697 52.7497C24.5806 52.5037 24.6874 52.2168 24.6874 51.9034C24.6874 51.3295 24.3908 50.905 23.8576 50.7146C22.6594 50.2696 21.3058 50.047 19.8338 50.047C18.71 50.047 17.7285 50.2403 16.9156 50.6239C16.087 51.0104 15.4466 51.5492 15.0129 52.2197C14.5793 52.8932 14.3597 53.6486 14.3597 54.4714C14.3597 55.423 14.6335 56.2049 15.1755 56.7905C15.6861 57.3439 16.3022 57.7626 17.0096 58.0378C17.6728 58.2984 18.546 58.5678 19.6072 58.8431C20.3831 59.0451 20.9863 59.2237 21.4015 59.3672C21.7751 59.4961 22.0876 59.6747 22.3341 59.8943C22.5326 60.07 22.6252 60.2749 22.6252 60.5385C22.6252 61.3086 22.3171 62.3363 19.6599 62.3363C18.3648 62.3363 17.1367 62.0816 16.0041 61.5779C15.5122 61.3613 14.9216 61.4608 14.5608 61.8473C14.3398 62.0903 14.2227 62.392 14.2227 62.717C14.2227 62.9747 14.3011 63.2177 14.4566 63.4461C14.608 63.6627 14.8018 63.8209 15.0329 63.9175C16.5221 64.5617 18.1364 64.8867 19.8338 64.8867C20.8736 64.8867 21.8079 64.711 22.6152 64.3626C23.4369 64.0112 24.0872 63.5046 24.5466 62.8663C25.0142 62.2163 25.2511 61.4725 25.2511 60.6556C25.2511 59.6717 24.9899 58.8665 24.4737 58.2663C23.98 57.6982 23.3797 57.2678 22.6878 56.9984Z" fill="white"/>
<path d="M36.2107 52.7701C36.5562 52.7701 36.8608 52.6501 37.1067 52.4129C37.3527 52.1757 37.4845 51.8653 37.4845 51.5139C37.4845 51.1655 37.3556 50.8522 37.1126 50.6121C36.8695 50.3691 36.5562 50.2402 36.2107 50.2402H28.4102C28.0465 50.2402 27.7227 50.3778 27.4732 50.6355C27.2278 50.8902 27.0981 51.2152 27.0981 51.5725V63.3787C27.0981 63.7388 27.2293 64.0609 27.4773 64.3098C27.7271 64.5587 28.0495 64.6904 28.4102 64.6904H36.2107C36.5562 64.6904 36.8608 64.5704 37.1038 64.3361C37.3527 64.1019 37.4845 63.7886 37.4845 63.4372C37.4845 63.0859 37.3556 62.7755 37.1126 62.5324C36.8695 62.2894 36.5562 62.1606 36.2107 62.1606H29.7425V58.72H35.508C35.8564 58.72 36.158 58.6 36.4069 58.3657C36.6529 58.1285 36.7846 57.8182 36.7846 57.4668C36.7846 57.1183 36.6558 56.805 36.4128 56.562C36.1668 56.319 35.8564 56.1901 35.508 56.1901H29.7425V52.7701H36.2107Z" fill="white"/>
<path d="M45.8179 62.3568C44.8545 62.3568 44.02 62.1431 43.3348 61.7214C42.6496 61.2998 42.1167 60.7171 41.7536 59.9939C41.3847 59.253 41.1973 58.4009 41.1973 57.4669C41.1973 56.5269 41.3847 55.6778 41.7536 54.937C42.1167 54.2137 42.6496 53.631 43.3348 53.2094C44.0171 52.7877 44.8545 52.574 45.8179 52.574C46.7695 52.574 47.6011 52.7877 48.2921 53.2123C48.9832 53.631 49.5161 54.2137 49.8792 54.937C50.2481 55.6778 50.4355 56.5269 50.4355 57.4669C50.4355 58.4009 50.2481 59.253 49.8792 59.9909C49.5102 60.7288 48.9919 61.2939 48.2921 61.7185C47.6011 62.1401 46.7666 62.3568 45.8179 62.3568ZM52.1455 53.6515C51.5423 52.5271 50.6903 51.634 49.6069 51.0016C48.5235 50.3662 47.2497 50.047 45.8179 50.047C44.3831 50.047 43.1064 50.3662 42.0172 50.9986C40.925 51.634 40.0729 52.5242 39.4814 53.6428C38.89 54.7496 38.5796 56.035 38.5532 57.4757C38.5796 58.8987 38.89 60.1812 39.4814 61.2881C40.0729 62.4066 40.925 63.2938 42.0172 63.9322C43.1035 64.5646 44.3831 64.8867 45.8179 64.8867C47.2497 64.8867 48.5264 64.5646 49.6069 63.9292C50.6903 63.2967 51.5423 62.4036 52.1455 61.2792C52.7399 60.1636 53.0533 58.884 53.0825 57.4581C53.0533 56.0467 52.7399 54.7671 52.1455 53.6515Z" fill="white"/>
</svg>
