<svg width="44" height="40" viewBox="0 0 44 40" fill="none" xmlns="http://www.w3.org/2000/svg">
<path d="M14.6932 33.8328H28.5417L28.0801 32.5539H15.1548L14.6932 33.8328ZM29.0573 34.5435C29.0546 34.5435 29.0508 34.5435 29.047 34.5435H14.1884C14.0726 34.5435 13.9639 34.4872 13.8973 34.3927C13.8312 34.2976 13.8148 34.1764 13.8541 34.0677L14.5713 32.0781C14.6222 31.9372 14.7555 31.8432 14.9051 31.8432H28.3297C28.4799 31.8432 28.6132 31.9372 28.664 32.0781L29.3534 33.9912C29.3911 34.048 29.413 34.1157 29.413 34.1884C29.413 34.3845 29.254 34.5435 29.0573 34.5435Z" fill="#FF0A54"/>
<path d="M31.2655 39.2893H32.5749L28.7313 28.5775H27.3973L31.2655 39.2893ZM33.0796 40H31.0164C30.8672 40 30.7334 39.9061 30.6826 39.7651L26.5577 28.3431C26.5184 28.2339 26.5348 28.1132 26.6009 28.0187C26.6675 27.9236 26.7762 27.8673 26.8915 27.8673H28.981C29.1306 27.8673 29.2645 27.9613 29.3147 28.1022L33.4134 39.5242C33.4527 39.6335 33.4363 39.7542 33.3697 39.8487C33.3036 39.9432 33.1954 40 33.0796 40Z" fill="#FF0A54"/>
<path d="M10.6659 39.2893H11.9704L15.8391 28.5775H14.5045L10.6659 39.2893ZM12.2195 40H10.1617C10.0459 40 9.93717 39.9432 9.87107 39.8487C9.80442 39.7542 9.78803 39.6335 9.82682 39.5242L13.9195 28.1022C13.9703 27.9613 14.1041 27.8673 14.2543 27.8673H16.3449C16.4607 27.8673 16.5689 27.9236 16.6355 28.0187C16.7016 28.1132 16.718 28.2339 16.6787 28.3431L12.5532 39.7651C12.503 39.9061 12.3691 40 12.2195 40Z" fill="#FF0A54"/>
<path d="M2.0725 4.69313V25.2312C2.0725 26.7335 3.20218 27.867 4.7006 27.867H38.5338C40.0334 27.867 41.1636 26.7335 41.1636 25.2312V4.69313H2.0725ZM38.5338 28.5771H4.7006C2.82908 28.5771 1.36182 27.1077 1.36182 25.2312V4.33751C1.36182 4.1414 1.52077 3.98243 1.71743 3.98243H41.5192C41.7153 3.98243 41.8743 4.1414 41.8743 4.33751V25.2312C41.8743 27.1077 40.407 28.5771 38.5338 28.5771Z" fill="#FF0A54"/>
<path d="M0.710684 3.98291H42.526V2.70245H0.710684V3.98291ZM42.8811 4.6936H0.355076C0.158965 4.6936 0 4.53464 0 4.33798V2.34738C0 2.15072 0.158965 1.99175 0.355076 1.99175H42.8811C43.0772 1.99175 43.2362 2.15072 43.2362 2.34738V4.33798C43.2362 4.53464 43.0772 4.6936 42.8811 4.6936Z" fill="#FF0A54"/>
<path d="M20.9802 1.99121H22.2547V1.34879C22.2547 0.948923 22.017 0.710739 21.6183 0.710739C21.2189 0.710739 20.9802 0.948923 20.9802 1.34879V1.99121ZM22.6103 2.7019H20.6252C20.4285 2.7019 20.2695 2.54294 20.2695 2.34683V1.34879C20.2695 0.554516 20.8245 4.12464e-05 21.6183 4.12464e-05C22.4109 4.12464e-05 22.9654 0.554516 22.9654 1.34879V2.34683C22.9654 2.54294 22.8064 2.7019 22.6103 2.7019Z" fill="#FF0A54"/>
<path d="M41.3861 25.2883C41.3851 25.2883 41.3845 25.2883 41.3834 25.2883L40.6716 25.2829C40.0811 25.2752 39.602 24.7923 39.602 24.2045L39.6113 23.0442C38.8509 22.8623 38.1266 22.575 37.4519 22.1855L36.6658 22.9623C36.4643 23.1639 36.2163 23.2797 35.9049 23.2731C35.617 23.2715 35.3482 23.1579 35.1489 22.9536L33.7531 21.542C33.5515 21.3393 33.4407 21.0684 33.4429 20.7805C33.445 20.4932 33.5581 20.2239 33.7613 20.0217L34.4966 19.2936C34.076 18.596 33.7651 17.852 33.5696 17.0746L32.559 17.0697C31.969 17.0697 31.4883 16.5862 31.4883 15.9924L31.5047 13.998C31.5047 13.413 31.9892 12.9344 32.5836 12.9344L33.5974 12.9393C33.8083 12.1571 34.1284 11.4169 34.5512 10.734L33.8203 9.99822C33.6187 9.79337 33.5106 9.52242 33.5139 9.23509C33.5166 8.94775 33.6308 8.67953 33.8356 8.48014L35.245 7.08169C35.4498 6.88121 35.7181 6.77142 36.0027 6.77142C36.0038 6.77142 36.0054 6.77142 36.0065 6.77142C36.2949 6.77251 36.5642 6.88503 36.7642 7.08933L37.5404 7.87979C38.2249 7.49631 38.9525 7.21663 39.7096 7.044L39.7184 5.89028C39.7184 5.30194 40.2024 4.82067 40.7967 4.82067L41.5162 4.82614C41.7123 4.82778 41.8696 4.98784 41.8685 5.18395C41.8674 5.38006 41.6975 5.55159 41.5107 5.53684L40.794 5.53137C40.5941 5.53137 40.4291 5.69362 40.4291 5.89301L40.4182 7.33625C40.4165 7.50559 40.2958 7.65091 40.1292 7.68204C39.2601 7.84702 38.4308 8.16604 37.6633 8.62928C37.5218 8.71341 37.3416 8.69046 37.2263 8.57356L36.2572 7.58699C36.1911 7.51926 36.101 7.48211 36.0038 7.48157C36.0038 7.48157 36.0032 7.48157 36.0027 7.48157C35.9049 7.48157 35.8137 7.51871 35.7443 7.58699L34.3338 8.98653C34.2633 9.05536 34.2245 9.14551 34.2234 9.24329C34.2224 9.33998 34.259 9.43065 34.3256 9.49894L35.2559 10.4358C35.3756 10.556 35.393 10.7433 35.2991 10.8837C34.7927 11.6409 34.4294 12.4799 34.2196 13.3769C34.1819 13.5375 34.0388 13.6511 33.8738 13.6511C33.8733 13.6511 33.8728 13.6511 33.8722 13.6511L32.5819 13.6446C32.3803 13.6446 32.2154 13.8041 32.2154 14.0013L32.1984 15.9957C32.1984 16.1913 32.364 16.359 32.5601 16.359L33.8536 16.3656C34.0203 16.3666 34.1645 16.4835 34.1989 16.6463C34.3884 17.5329 34.7408 18.3758 35.2461 19.1521C35.3378 19.2936 35.3182 19.4798 35.1985 19.5984L34.2612 20.5259C34.1923 20.5948 34.153 20.6865 34.1524 20.7854C34.1524 20.8827 34.189 20.9739 34.2573 21.0416L35.6547 22.4559C35.723 22.5253 35.8126 22.563 35.9087 22.5635C35.9092 22.5635 35.9098 22.5635 35.9109 22.5635C36.007 22.5635 36.0972 22.5258 36.1649 22.4581L37.1487 21.4868C37.2662 21.371 37.4481 21.3519 37.5863 21.4382C38.339 21.9075 39.1639 22.2352 40.0385 22.4117C40.2057 22.445 40.3248 22.5919 40.3237 22.7624L40.3127 24.2073C40.3127 24.4056 40.4772 24.57 40.6787 24.5722L41.3889 24.5776C41.585 24.5793 41.7423 24.7393 41.7412 24.9354C41.7396 25.131 41.5806 25.2883 41.3861 25.2883Z" fill="#FF0A54"/>
<path d="M41.4529 19.3877C41.4436 19.3877 41.4349 19.3871 41.4261 19.3866C39.1482 19.2173 37.3733 17.3042 37.3848 15.0306C37.4034 12.7582 39.2022 10.8692 41.4802 10.7299C41.6703 10.7162 41.8451 10.8664 41.856 11.0625C41.8681 11.2581 41.7195 11.4269 41.5239 11.4384C39.6158 11.5553 38.1108 13.1356 38.0955 15.0356C38.0857 16.936 39.571 18.5361 41.4786 18.6781C41.6741 18.6928 41.8211 18.8633 41.8063 19.0588C41.7927 19.2451 41.637 19.3877 41.4529 19.3877Z" fill="#FF0A54"/>
<path d="M41.3862 25.9397H1.87172C1.67507 25.9397 1.51611 25.7807 1.51611 25.5846C1.51611 25.388 1.67507 25.229 1.87172 25.229H41.3862C41.5823 25.229 41.7412 25.388 41.7412 25.5846C41.7412 25.7807 41.5823 25.9397 41.3862 25.9397Z" fill="#FF0A54"/>
<path d="M14.7547 21.0524C14.7514 21.0595 14.7481 21.0655 14.7448 21.0726C14.6804 21.1949 14.6438 21.3173 14.6361 21.4364L14.3586 24.8266L17.2451 23.0386C17.3445 22.9774 17.433 22.8944 17.5171 22.784L24.4226 11.4773L21.6415 9.77789L14.7547 21.0524ZM14.1751 25.682C14.0762 25.682 13.9779 25.6547 13.8915 25.6033C13.7195 25.511 13.6091 25.3089 13.6239 25.0959L13.9282 21.3856C13.9385 21.2173 13.98 21.0453 14.0527 20.8759C14.0593 20.8404 14.0734 20.8054 14.0942 20.771L21.2209 9.10544C21.3225 8.93883 21.5415 8.88529 21.7081 8.98744L25.0961 11.0562C25.2633 11.1589 25.3162 11.3768 25.2136 11.5445L18.1421 23.1205C18.1328 23.1408 18.1219 23.1604 18.1082 23.179C18.0962 23.1987 18.0814 23.2167 18.0656 23.2331C17.9208 23.4161 17.7755 23.5461 17.6176 23.6433L14.458 25.6001C14.3794 25.652 14.2788 25.682 14.1751 25.682Z" fill="#FF0A54"/>
<path d="M22.6251 8.18635L25.3893 9.87377L25.8492 9.12156C26.0388 8.80636 25.9393 8.39339 25.6263 8.20438L24.0039 7.21617C23.6953 7.02498 23.2708 7.13587 23.084 7.43741L22.6251 8.18635ZM25.5056 10.7167C25.4428 10.7167 25.3789 10.6997 25.321 10.6642L21.9521 8.60752C21.8713 8.55836 21.8139 8.47915 21.7921 8.38737C21.7702 8.2956 21.785 8.19946 21.8341 8.11916L22.4787 7.06485C22.7349 6.65187 23.1758 6.40605 23.6581 6.40605C23.9111 6.40605 24.1602 6.47706 24.3759 6.6109L25.9945 7.59747C26.6413 7.98696 26.8489 8.83696 26.4572 9.48975L25.8088 10.5468C25.7422 10.6566 25.6252 10.7167 25.5056 10.7167Z" fill="#FF0A54"/>
<path d="M22.013 9.17323L24.7935 10.8716L25.029 10.4848L22.249 8.78811L22.013 9.17323ZM24.9104 11.7145C24.847 11.7145 24.7831 11.6975 24.7258 11.662L21.3384 9.59331C21.2581 9.54469 21.2007 9.46493 21.1783 9.37316C21.1559 9.28138 21.1723 9.18415 21.2215 9.1044L21.8256 8.1151C21.8748 8.03425 21.9535 7.9758 22.0452 7.9534C22.1365 7.93319 22.2337 7.94685 22.3151 7.99601L25.702 10.0637C25.8686 10.1653 25.9216 10.3838 25.8205 10.5504L25.213 11.5451C25.1464 11.6544 25.0295 11.7145 24.9104 11.7145Z" fill="#FF0A54"/>
<path d="M15.9695 24.601C15.9067 24.601 15.8434 24.584 15.7855 24.5485L13.9533 23.4325C13.7856 23.3309 13.7325 23.1124 13.8347 22.9452C13.9369 22.778 14.1554 22.7245 14.3225 22.8267L16.1547 23.9427C16.3224 24.0443 16.3754 24.2628 16.2733 24.4305C16.2066 24.5403 16.0897 24.601 15.9695 24.601Z" fill="#FF0A54"/>
<path d="M17.7004 23.4359C17.6376 23.4359 17.5737 23.419 17.5158 23.384L14.207 21.359C14.0393 21.2568 13.9863 21.0383 14.089 20.8712C14.1912 20.7029 14.4108 20.651 14.5774 20.7532L17.8861 22.7777C18.0538 22.8804 18.1063 23.0989 18.0041 23.266C17.9369 23.3758 17.82 23.4359 17.7004 23.4359Z" fill="#FF0A54"/>
<path d="M15.1968 21.9075C15.1339 21.9075 15.07 21.8905 15.0121 21.8556C14.845 21.7529 14.792 21.5349 14.8947 21.3672L22.0694 9.62405C22.1715 9.45744 22.3906 9.40389 22.5578 9.50605C22.7255 9.60874 22.7779 9.82672 22.6758 9.99442L15.5005 21.7376C15.4339 21.8468 15.3169 21.9075 15.1968 21.9075Z" fill="#FF0A54"/>
<path d="M18.0719 23.0437C17.8774 23.0437 17.719 22.8869 17.7168 22.6919C17.7152 22.4963 17.8725 22.3357 18.0686 22.3336L35.2221 22.1746C35.2221 22.1746 35.2237 22.1746 35.2248 22.1746C35.4198 22.1746 35.5782 22.3314 35.5804 22.5264C35.5821 22.7225 35.4247 22.8831 35.2281 22.8847L18.0752 23.0437C18.0741 23.0437 18.073 23.0437 18.0719 23.0437ZM14.1382 23.0437H1.87172C1.67507 23.0437 1.51611 22.8847 1.51611 22.6886C1.51611 22.4925 1.67507 22.3336 1.87172 22.3336H14.1382C14.3343 22.3336 14.4933 22.4925 14.4933 22.6886C14.4933 22.8847 14.3343 23.0437 14.1382 23.0437Z" fill="#FF0A54"/>
<path d="M15.0978 20.1534H1.71743C1.52077 20.1534 1.36182 19.9945 1.36182 19.7984C1.36182 19.6023 1.52077 19.4433 1.71743 19.4433H15.0978C15.2939 19.4433 15.4528 19.6023 15.4528 19.7984C15.4528 19.9945 15.2939 20.1534 15.0978 20.1534ZM34.3762 20.1534H19.841C19.6449 20.1534 19.486 19.9945 19.486 19.7984C19.486 19.6023 19.6449 19.4433 19.841 19.4433H34.3762C34.5723 19.4433 34.7313 19.6023 34.7313 19.7984C34.7313 19.9945 34.5723 20.1534 34.3762 20.1534Z" fill="#FF0A54"/>
<path d="M16.8412 17.2583H1.87172C1.67507 17.2583 1.51611 17.0993 1.51611 16.9027C1.51611 16.7066 1.67507 16.5476 1.87172 16.5476H16.8412C17.0373 16.5476 17.1963 16.7066 17.1963 16.9027C17.1963 17.0993 17.0373 17.2583 16.8412 17.2583ZM33.863 17.2583H21.6505C21.4539 17.2583 21.2949 17.0993 21.2949 16.9027C21.2949 16.7066 21.4539 16.5476 21.6505 16.5476H33.863C34.0596 16.5476 34.2186 16.7066 34.2186 16.9027C34.2186 17.0993 34.0596 17.2583 33.863 17.2583Z" fill="#FF0A54"/>
<path d="M18.5679 14.368H1.87172C1.67507 14.368 1.51611 14.2091 1.51611 14.0124C1.51611 13.8163 1.67507 13.6573 1.87172 13.6573H18.5679C18.7646 13.6573 18.9236 13.8163 18.9236 14.0124C18.9236 14.2091 18.7646 14.368 18.5679 14.368ZM31.6948 14.368H23.2839C23.0878 14.368 22.9288 14.2091 22.9288 14.0124C22.9288 13.8163 23.0878 13.6573 23.2839 13.6573H31.6948C31.8915 13.6573 32.0504 13.8163 32.0504 14.0124C32.0504 14.2091 31.8915 14.368 31.6948 14.368Z" fill="#FF0A54"/>
<path d="M20.3493 11.472H1.87172C1.67507 11.472 1.51611 11.3131 1.51611 11.1164C1.51611 10.9203 1.67507 10.7613 1.87172 10.7613H20.3493C20.5454 10.7613 20.7044 10.9203 20.7044 11.1164C20.7044 11.3131 20.5454 11.472 20.3493 11.472ZM34.619 11.472H25.0429C24.8462 11.472 24.6872 11.3131 24.6872 11.1164C24.6872 10.9203 24.8462 10.7613 25.0429 10.7613H34.619C34.8151 10.7613 34.9741 10.9203 34.9741 11.1164C34.9741 11.3131 34.8151 11.472 34.619 11.472Z" fill="#FF0A54"/>
<path d="M34.619 8.52649H26.119C25.9229 8.52649 25.7639 8.36752 25.7639 8.17141C25.7639 7.97476 25.9229 7.81579 26.119 7.81579H34.619C34.8151 7.81579 34.9741 7.97476 34.9741 8.17141C34.9741 8.36752 34.8151 8.52649 34.619 8.52649ZM1.87172 8.52649C1.67561 8.52649 1.51666 8.36752 1.51611 8.17141C1.51611 7.9753 1.67507 7.81634 1.87172 7.81579L22.1575 7.80487C22.3536 7.80487 22.5126 7.96383 22.5131 8.15994C22.5131 8.35606 22.3541 8.51502 22.1575 8.51557L1.87172 8.52649Z" fill="#FF0A54"/>
</svg>
