<svg width="121" height="120" viewBox="0 0 121 120" fill="none" xmlns="http://www.w3.org/2000/svg">
<path d="M120.111 12.8215V107.157C120.111 114.245 114.357 120 107.288 120H13.3435C6.25472 120 0.5 114.245 0.5 107.157V12.8215C0.5 5.73271 6.25472 0.000282288 13.3435 0.000282288H107.288C114.357 0.000282288 120.111 5.73271 120.111 12.8215Z" fill="#FCFDFD"/>
<path d="M120.111 24.249V12.8213C120.111 5.7325 114.357 7.05719e-05 107.288 7.05719e-05H13.3435C6.25472 7.05719e-05 0.5 5.7325 0.5 12.8213V24.249H120.111Z" fill="#1B6CFC"/>
<path d="M18.4178 12.601C18.4178 14.7049 16.7124 16.4103 14.6085 16.4103C12.5072 16.4103 10.8018 14.7049 10.8018 12.601C10.8018 10.4972 12.5072 8.79177 14.6085 8.79177C16.7124 8.79177 18.4178 10.4972 18.4178 12.601Z" fill="#3D4C5E"/>
<path d="M31.6302 12.601C31.6302 14.7049 29.9248 16.4103 27.8209 16.4103C25.7171 16.4103 24.0117 14.7049 24.0117 12.601C24.0117 10.4972 25.7171 8.79177 27.8209 8.79177C29.9248 8.79177 31.6302 10.4972 31.6302 12.601Z" fill="#3D4C5E"/>
<path d="M44.8421 12.601C44.8421 14.7049 43.1368 16.4103 41.0329 16.4103C38.929 16.4103 37.2236 14.7049 37.2236 12.601C37.2236 10.4972 38.929 8.79177 41.0329 8.79177C43.1368 8.79177 44.8421 10.4972 44.8421 12.601Z" fill="#3D4C5E"/>
<path d="M109.815 12.1951C109.815 14.0639 108.285 15.5762 106.414 15.5762H70.0219C68.1334 15.5762 66.6211 14.0639 66.6211 12.1951C66.6211 10.3041 68.1334 8.79428 70.0219 8.79428H106.414C108.285 8.79428 109.815 10.3041 109.815 12.1951Z" fill="white"/>
<path d="M27.7461 35.3847V50.0846C27.7461 52.2033 26.0012 53.9458 23.8652 53.9458H11.8656C9.72712 53.9458 8.00195 52.2206 8.00195 50.0846V35.3649C8.00195 33.2288 9.72712 31.5037 11.8656 31.5037H23.8652C26.0012 31.5037 27.7461 33.2462 27.7461 35.3847Z" fill="#3D4C5E"/>
<path d="M55.3809 36.2808H43.3121C42.7948 36.2808 42.374 35.86 42.374 35.3427C42.374 34.8254 42.7948 34.4046 43.3121 34.4046H55.3809C55.9007 34.4046 56.319 34.8254 56.319 35.3427C56.319 35.86 55.9007 36.2808 55.3809 36.2808Z" fill="#090B0E"/>
<path d="M38.508 36.2808H34.523C34.0057 36.2808 33.585 35.86 33.585 35.3427C33.585 34.8254 34.0057 34.4046 34.523 34.4046H38.508C39.0253 34.4046 39.4461 34.8254 39.4461 35.3427C39.4461 35.86 39.0253 36.2808 38.508 36.2808Z" fill="#090B0E"/>
<path d="M55.3814 43.6617H50.5772C50.0599 43.6617 49.6416 43.2434 49.6416 42.7261C49.6416 42.2063 50.0599 41.788 50.5772 41.788H55.3814C55.9012 41.788 56.3195 42.2063 56.3195 42.7261C56.3195 43.2434 55.9012 43.6617 55.3814 43.6617Z" fill="#090B0E"/>
<path d="M46.9458 43.6617H34.523C34.0057 43.6617 33.585 43.2434 33.585 42.7261C33.585 42.2063 34.0057 41.788 34.523 41.788H46.9458C47.4631 41.788 47.8814 42.2063 47.8814 42.7261C47.8814 43.2434 47.4631 43.6617 46.9458 43.6617Z" fill="#090B0E"/>
<path d="M46.9458 51.0452H34.523C34.0057 51.0452 33.585 50.6269 33.585 50.1071C33.585 49.5898 34.0057 49.169 34.523 49.169H46.9458C47.4631 49.169 47.8814 49.5898 47.8814 50.1071C47.8814 50.6269 47.4631 51.0452 46.9458 51.0452Z" fill="#090B0E"/>
<path d="M27.7461 64.6609V79.3607C27.7461 81.4794 26.0012 83.2219 23.8652 83.2219H11.8656C9.72712 83.2219 8.00195 81.4992 8.00195 79.3607V64.6435C8.00195 62.505 9.72712 60.7798 11.8656 60.7798H23.8652C26.0012 60.7798 27.7461 62.5248 27.7461 64.6609Z" fill="#1B6CFC"/>
<path d="M55.3809 65.5568H43.3121C42.7948 65.5568 42.374 65.136 42.374 64.6187C42.374 64.1014 42.7948 63.6806 43.3121 63.6806H55.3809C55.9007 63.6806 56.319 64.1014 56.319 64.6187C56.319 65.136 55.9007 65.5568 55.3809 65.5568Z" fill="#090B0E"/>
<path d="M38.508 65.5568H34.523C34.0057 65.5568 33.585 65.136 33.585 64.6187C33.585 64.1014 34.0057 63.6806 34.523 63.6806H38.508C39.0253 63.6806 39.4461 64.1014 39.4461 64.6187C39.4461 65.136 39.0253 65.5568 38.508 65.5568Z" fill="#090B0E"/>
<path d="M55.3814 72.9376H50.5772C50.0599 72.9376 49.6416 72.5194 49.6416 72.002C49.6416 71.4823 50.0599 71.064 50.5772 71.064H55.3814C55.9012 71.064 56.3195 71.4823 56.3195 72.002C56.3195 72.5194 55.9012 72.9376 55.3814 72.9376Z" fill="#090B0E"/>
<path d="M46.9458 72.9376H34.523C34.0057 72.9376 33.585 72.5194 33.585 72.002C33.585 71.4823 34.0057 71.064 34.523 71.064H46.9458C47.4631 71.064 47.8814 71.4823 47.8814 72.002C47.8814 72.5194 47.4631 72.9376 46.9458 72.9376Z" fill="#090B0E"/>
<path d="M46.9458 80.3209H34.523C34.0057 80.3209 33.585 79.9026 33.585 79.3828C33.585 78.8655 34.0057 78.4473 34.523 78.4473H46.9458C47.4631 78.4473 47.8814 78.8655 47.8814 79.3828C47.8814 79.9026 47.4631 80.3209 46.9458 80.3209Z" fill="#090B0E"/>
<path d="M27.7461 93.9393V108.637C27.7461 110.755 26.0012 112.5 23.8652 112.5H11.8656C9.72712 112.5 8.00195 110.775 8.00195 108.637V93.9195C8.00195 91.781 9.72712 90.0583 11.8656 90.0583H23.8652C26.0012 90.0583 27.7461 91.8007 27.7461 93.9393Z" fill="#A3ADBB"/>
<path d="M55.3809 94.8329H43.3121C42.7948 94.8329 42.374 94.4146 42.374 93.8973C42.374 93.3775 42.7948 92.9592 43.3121 92.9592H55.3809C55.9007 92.9592 56.319 93.3775 56.319 93.8973C56.319 94.4146 55.9007 94.8329 55.3809 94.8329Z" fill="#090B0E"/>
<path d="M38.508 94.8329H34.523C34.0057 94.8329 33.585 94.4146 33.585 93.8973C33.585 93.3775 34.0057 92.9592 34.523 92.9592H38.508C39.0253 92.9592 39.4461 93.3775 39.4461 93.8973C39.4461 94.4146 39.0253 94.8329 38.508 94.8329Z" fill="#090B0E"/>
<path d="M55.3814 102.216H50.5772C50.0599 102.216 49.6416 101.798 49.6416 101.278C49.6416 100.761 50.0599 100.342 50.5772 100.342H55.3814C55.9012 100.342 56.3195 100.761 56.3195 101.278C56.3195 101.798 55.9012 102.216 55.3814 102.216Z" fill="#090B0E"/>
<path d="M46.9458 102.216H34.523C34.0057 102.216 33.585 101.798 33.585 101.278C33.585 100.761 34.0057 100.342 34.523 100.342H46.9458C47.4631 100.342 47.8814 100.761 47.8814 101.278C47.8814 101.798 47.4631 102.216 46.9458 102.216Z" fill="#090B0E"/>
<path d="M46.9458 109.599H34.523C34.0057 109.599 33.585 109.179 33.585 108.661C33.585 108.144 34.0057 107.723 34.523 107.723H46.9458C47.4631 107.723 47.8814 108.144 47.8814 108.661C47.8814 109.179 47.4631 109.599 46.9458 109.599Z" fill="#090B0E"/>
<path d="M84.9669 35.3847V50.0846C84.9669 52.2033 83.2219 53.9458 81.0858 53.9458H69.0863C66.9478 53.9458 65.2227 52.2206 65.2227 50.0846V35.3649C65.2227 33.2288 66.9478 31.5037 69.0863 31.5037H81.0858C83.2219 31.5037 84.9669 33.2462 84.9669 35.3847Z" fill="#3275C6"/>
<path d="M112.602 36.2808H100.533C100.013 36.2808 99.5947 35.86 99.5947 35.3427C99.5947 34.8254 100.013 34.4046 100.533 34.4046H112.602C113.121 34.4046 113.54 34.8254 113.54 35.3427C113.54 35.86 113.121 36.2808 112.602 36.2808Z" fill="#090B0E"/>
<path d="M95.7287 36.2808H91.7438C91.2264 36.2808 90.8057 35.86 90.8057 35.3427C90.8057 34.8254 91.2264 34.4046 91.7438 34.4046H95.7287C96.246 34.4046 96.6643 34.8254 96.6643 35.3427C96.6643 35.86 96.246 36.2808 95.7287 36.2808Z" fill="#090B0E"/>
<path d="M112.602 43.6617H107.797C107.28 43.6617 106.859 43.2434 106.859 42.7261C106.859 42.2063 107.28 41.788 107.797 41.788H112.602C113.121 41.788 113.54 42.2063 113.54 42.7261C113.54 43.2434 113.121 43.6617 112.602 43.6617Z" fill="#090B0E"/>
<path d="M104.164 43.6617H91.7438C91.2264 43.6617 90.8057 43.2434 90.8057 42.7261C90.8057 42.2063 91.2264 41.788 91.7438 41.788H104.164C104.684 41.788 105.102 42.2063 105.102 42.7261C105.102 43.2434 104.684 43.6617 104.164 43.6617Z" fill="#090B0E"/>
<path d="M104.164 51.0452H91.7438C91.2264 51.0452 90.8057 50.6269 90.8057 50.1071C90.8057 49.5898 91.2264 49.169 91.7438 49.169H104.164C104.684 49.169 105.102 49.5898 105.102 50.1071C105.102 50.6269 104.684 51.0452 104.164 51.0452Z" fill="#090B0E"/>
<path d="M84.9669 64.6609V79.3607C84.9669 81.4794 83.2219 83.2219 81.0858 83.2219H69.0863C66.9478 83.2219 65.2227 81.4992 65.2227 79.3607V64.6435C65.2227 62.505 66.9478 60.7798 69.0863 60.7798H81.0858C83.2219 60.7798 84.9669 62.5248 84.9669 64.6609Z" fill="#3D4C5E"/>
<path d="M112.602 65.5568H100.533C100.013 65.5568 99.5947 65.136 99.5947 64.6187C99.5947 64.1014 100.013 63.6806 100.533 63.6806H112.602C113.121 63.6806 113.54 64.1014 113.54 64.6187C113.54 65.136 113.121 65.5568 112.602 65.5568Z" fill="#090B0E"/>
<path d="M95.7287 65.5568H91.7438C91.2264 65.5568 90.8057 65.136 90.8057 64.6187C90.8057 64.1014 91.2264 63.6806 91.7438 63.6806H95.7287C96.246 63.6806 96.6643 64.1014 96.6643 64.6187C96.6643 65.136 96.246 65.5568 95.7287 65.5568Z" fill="#090B0E"/>
<path d="M112.602 72.9376H107.797C107.28 72.9376 106.859 72.5194 106.859 72.002C106.859 71.4823 107.28 71.064 107.797 71.064H112.602C113.121 71.064 113.54 71.4823 113.54 72.002C113.54 72.5194 113.121 72.9376 112.602 72.9376Z" fill="#090B0E"/>
<path d="M104.164 72.9376H91.7438C91.2264 72.9376 90.8057 72.5194 90.8057 72.002C90.8057 71.4823 91.2264 71.064 91.7438 71.064H104.164C104.684 71.064 105.102 71.4823 105.102 72.002C105.102 72.5194 104.684 72.9376 104.164 72.9376Z" fill="#090B0E"/>
<path d="M104.164 80.3209H91.7438C91.2264 80.3209 90.8057 79.9026 90.8057 79.3828C90.8057 78.8655 91.2264 78.4473 91.7438 78.4473H104.164C104.684 78.4473 105.102 78.8655 105.102 79.3828C105.102 79.9026 104.684 80.3209 104.164 80.3209Z" fill="#090B0E"/>
<path d="M84.9669 93.9393V108.637C84.9669 110.755 83.2219 112.5 81.0858 112.5H69.0863C66.9478 112.5 65.2227 110.775 65.2227 108.637V93.9195C65.2227 91.781 66.9478 90.0583 69.0863 90.0583H81.0858C83.2219 90.0583 84.9669 91.8007 84.9669 93.9393Z" fill="#1B6CFC"/>
<path d="M112.602 94.8329H100.533C100.013 94.8329 99.5947 94.4146 99.5947 93.8973C99.5947 93.3775 100.013 92.9592 100.533 92.9592H112.602C113.121 92.9592 113.54 93.3775 113.54 93.8973C113.54 94.4146 113.121 94.8329 112.602 94.8329Z" fill="#090B0E"/>
<path d="M95.7287 94.8329H91.7438C91.2264 94.8329 90.8057 94.4146 90.8057 93.8973C90.8057 93.3775 91.2264 92.9592 91.7438 92.9592H95.7287C96.246 92.9592 96.6643 93.3775 96.6643 93.8973C96.6643 94.4146 96.246 94.8329 95.7287 94.8329Z" fill="#090B0E"/>
<path d="M112.602 102.216H107.797C107.28 102.216 106.859 101.798 106.859 101.278C106.859 100.761 107.28 100.342 107.797 100.342H112.602C113.121 100.342 113.54 100.761 113.54 101.278C113.54 101.798 113.121 102.216 112.602 102.216Z" fill="#090B0E"/>
<path d="M104.164 102.216H91.7438C91.2264 102.216 90.8057 101.798 90.8057 101.278C90.8057 100.761 91.2264 100.342 91.7438 100.342H104.164C104.684 100.342 105.102 100.761 105.102 101.278C105.102 101.798 104.684 102.216 104.164 102.216Z" fill="#090B0E"/>
<path d="M104.164 109.599H91.7438C91.2264 109.599 90.8057 109.179 90.8057 108.661C90.8057 108.144 91.2264 107.723 91.7438 107.723H104.164C104.684 107.723 105.102 108.144 105.102 108.661C105.102 109.179 104.684 109.599 104.164 109.599Z" fill="#090B0E"/>
</svg>
