<svg width="24" height="24" viewBox="0 0 24 24" fill="none" xmlns="http://www.w3.org/2000/svg">
<path d="M18.6774 0.931809L16.7617 2.95526L21.1719 7.61343L23.0864 5.58997C23.3761 5.28414 23.6058 4.92104 23.7626 4.52141C23.9193 4.12179 24 3.69346 24 3.26089C24 2.82832 23.9193 2.39999 23.7626 2.00037C23.6058 1.60074 23.3761 1.23764 23.0864 0.931809C22.4922 0.333662 21.7028 0 20.8819 0C20.0611 0 19.2717 0.333662 18.6774 0.931809Z" fill="#1A56DB"/>
<path d="M19.4083 9.47617L14.9981 4.818L9.10486 11.0372C8.93051 11.221 8.81159 11.4553 8.76312 11.7104L8.10707 15.204C8.06671 15.4168 8.07671 15.6367 8.1362 15.8444C8.19569 16.052 8.30282 16.241 8.44806 16.3944C8.59331 16.5478 8.77219 16.6609 8.9688 16.7238C9.16541 16.7866 9.37367 16.7972 9.57507 16.7545L12.8828 16.0563C13.1238 16.0049 13.3452 15.8793 13.5188 15.6954L19.4083 9.47617Z" fill="#1A56DB"/>
<path d="M9.10486 11.0372C8.93051 11.221 8.81159 11.4553 8.76312 11.7104L8.10707 15.204C8.06671 15.4168 8.07671 15.6367 8.1362 15.8444C8.19569 16.052 8.30282 16.241 8.44806 16.3944C8.59331 16.5478 8.77219 16.6609 8.9688 16.7238C9.16541 16.7866 9.37367 16.7972 9.57507 16.7545L12.8828 16.0563C13.1238 16.0049 13.3452 15.8793 13.5188 15.6954L19.4083 9.47617L14.9981 4.818L9.10486 11.0372Z" fill="#1A56DB"/>
<path d="M14.7087 17.2341C14.3602 17.6015 13.9168 17.8522 13.434 17.9547L9.02379 18.886C8.62119 18.971 8.20496 18.9496 7.81203 18.8239C7.41911 18.6982 7.06164 18.472 6.77133 18.1654C6.48102 17.8588 6.26686 17.4812 6.14784 17.0662C6.02881 16.6512 6.00862 16.2115 6.08903 15.7863L6.97083 11.1281C7.06785 10.6182 7.30517 10.1499 7.65307 9.7818L13.7895 3.30042C13.7554 3.1776 13.7377 3.05033 13.7371 2.92234H2.70277C1.98615 2.92303 1.29908 3.22402 0.792353 3.75923C0.285628 4.29444 0.000660477 5.02014 0 5.77704V21.1453C0.000660477 21.9022 0.285628 22.6279 0.792353 23.1631C1.29908 23.6983 1.98615 23.9993 2.70277 24H17.2531C17.9697 23.9993 18.6568 23.6983 19.1635 23.1631C19.6702 22.6279 19.9552 21.9022 19.9559 21.1453V11.692L14.7087 17.2341Z" fill="#1A56DB"/>
</svg>
