<svg width="44" height="40" viewBox="0 0 44 40" fill="none" xmlns="http://www.w3.org/2000/svg">
<path d="M14.6937 33.8332H28.5445L28.0829 32.5527H15.1553L14.6937 33.8332ZM29.0603 34.5439C29.0575 34.5439 29.0537 34.5439 29.0499 34.5439H14.1889C14.0731 34.5439 13.9644 34.4877 13.8978 34.3932C13.8316 34.2981 13.8153 34.1768 13.8546 34.0687L14.5719 32.0774C14.6227 31.9359 14.756 31.842 14.9057 31.842H28.3326C28.4828 31.842 28.6161 31.9359 28.6669 32.0774L29.3563 33.9916C29.394 34.0485 29.4159 34.1162 29.4159 34.1889C29.4159 34.385 29.2569 34.5439 29.0603 34.5439Z" fill="#FB3189"/>
<path d="M31.2674 39.2893H32.5708L28.732 28.5714H27.3974L31.2674 39.2893ZM33.075 40H31.0182C30.8691 40 30.7353 39.906 30.6845 39.7651L26.5577 28.3365C26.5184 28.2278 26.5348 28.1066 26.6009 28.012C26.6675 27.917 26.7762 27.8607 26.892 27.8607H28.9822C29.1319 27.8607 29.2657 27.9552 29.3165 28.0962L33.4094 39.5247C33.4482 39.6334 33.4318 39.7542 33.3651 39.8487C33.299 39.9432 33.1909 40 33.075 40Z" fill="#FB3189"/>
<path d="M10.6659 39.2893H11.971L15.8399 28.5714H14.5058L10.6659 39.2893ZM12.2201 40H10.1622C10.0464 40 9.93766 39.9432 9.87156 39.8487C9.80491 39.7542 9.78852 39.6334 9.82731 39.5247L13.9207 28.0962C13.9715 27.9552 14.1054 27.8607 14.2556 27.8607H16.3457C16.4615 27.8607 16.5697 27.917 16.6364 28.012C16.7025 28.1066 16.7189 28.2278 16.6795 28.3365L12.5539 39.7651C12.5036 39.906 12.3698 40 12.2201 40Z" fill="#FB3189"/>
<path d="M2.07255 4.6884V25.2324C2.07255 26.7315 3.2023 27.8618 4.70079 27.8618H38.5363C40.0348 27.8618 41.1645 26.7315 41.1645 25.2324V4.6884H2.07255ZM38.5363 28.5725H4.70079C2.79749 28.5725 1.36182 27.1368 1.36182 25.2324V4.33274C1.36182 4.13662 1.52079 3.97765 1.71746 3.97765H41.5196C41.7157 3.97765 41.8747 4.13662 41.8747 4.33274V25.2324C41.8747 27.1368 40.439 28.5725 38.5363 28.5725Z" fill="#FB3189"/>
<path d="M0.710734 3.97773H42.5282V2.69612H0.710734V3.97773ZM42.8833 4.68848H0.355093C0.158973 4.68848 0 4.52949 0 4.33282V2.34102C0 2.1449 0.158973 1.98593 0.355093 1.98593H42.8833C43.0794 1.98593 43.2384 2.1449 43.2384 2.34102V4.33282C43.2384 4.52949 43.0794 4.68848 42.8833 4.68848Z" fill="#FB3189"/>
<path d="M20.9756 1.98586H22.2583L22.2626 1.34615C22.2626 0.948987 22.0217 0.710808 21.6191 0.710808C21.2165 0.710808 20.9756 0.948977 20.9756 1.34887V1.98586ZM22.6112 2.69604H20.6205C20.4244 2.69604 20.2654 2.53707 20.2654 2.34095V1.34887C20.2654 0.55455 20.8221 6.10352e-05 21.6191 6.10352e-05C22.4162 6.10352e-05 22.9734 0.55455 22.9734 1.34887L22.9663 2.34367C22.9646 2.53815 22.8062 2.69604 22.6112 2.69604Z" fill="#FB3189"/>
<path d="M41.3881 25.29C41.387 25.29 41.3865 25.29 41.3854 25.29L40.6681 25.2846C40.0803 25.2764 39.6039 24.7913 39.6039 24.2029L39.6132 23.0464C38.8609 22.8656 38.1371 22.5777 37.4548 22.1876L36.6676 22.965C36.4649 23.1638 36.1972 23.2731 35.9115 23.2731C35.9082 23.2731 35.9055 23.2731 35.9017 23.2731C35.6154 23.2709 35.3488 23.1578 35.1505 22.9557L33.7492 21.5397C33.5487 21.3349 33.44 21.0644 33.4417 20.7782C33.4428 20.4897 33.5553 20.2209 33.7596 20.021L34.4982 19.2944C34.0786 18.5973 33.7673 17.8538 33.5711 17.0759L32.5605 17.0715C31.9689 17.0633 31.4897 16.5799 31.4897 15.9937L31.5062 13.9992C31.5062 13.7151 31.6187 13.4463 31.823 13.2442C32.0284 13.0415 32.3114 12.941 32.5883 12.9355L33.5979 12.9404C33.8033 12.1625 34.1234 11.4223 34.5523 10.7339L33.8219 9.99918C33.4083 9.57907 33.4144 8.89728 33.8339 8.47717L35.2472 7.08139C35.4515 6.88199 35.7197 6.77218 36.0044 6.77218C36.0054 6.77218 36.0071 6.77218 36.0082 6.77218C36.2961 6.77327 36.5659 6.88583 36.7659 7.09014L37.5427 7.87681C38.2311 7.49604 38.9587 7.21688 39.7121 7.0448L39.7208 5.8861C39.7208 5.60312 39.8339 5.33432 40.0393 5.1311C40.2447 4.92842 40.5414 4.82902 40.8025 4.82191L41.5127 4.82792C41.7093 4.82956 41.8672 4.99016 41.8656 5.18573C41.8639 5.38076 41.705 5.53864 41.5099 5.53864C41.5088 5.53864 41.5078 5.53864 41.5072 5.53864L40.7959 5.53263C40.7227 5.5381 40.608 5.56814 40.5381 5.63643C40.4692 5.70471 40.4316 5.79431 40.4316 5.88882L40.4201 7.33707C40.4184 7.50642 40.2977 7.65172 40.1311 7.68285C39.2679 7.84674 38.4376 8.16414 37.664 8.62631C37.5236 8.70989 37.3444 8.68695 37.2292 8.57059L36.2595 7.58835C36.1928 7.52006 36.1027 7.48291 36.0054 7.48237C36.0054 7.48237 36.0049 7.48237 36.0044 7.48237C35.9066 7.48237 35.8153 7.51953 35.746 7.58781L34.3349 8.98141C34.1912 9.12453 34.1868 9.35782 34.3267 9.49985L35.2581 10.4367C35.3777 10.5569 35.3958 10.7454 35.3007 10.8858C34.7867 11.6484 34.4239 12.4859 34.2223 13.3753C34.1852 13.537 34.0415 13.6522 33.876 13.6522C33.8754 13.6522 33.8749 13.6522 33.8743 13.6522L32.5829 13.6457C32.4928 13.6446 32.3911 13.6818 32.3223 13.7495C32.254 13.8167 32.2169 13.9068 32.2169 14.0024L32.1999 15.997C32.1999 16.1936 32.3644 16.3581 32.5665 16.3608L33.8552 16.3668C34.0219 16.3679 34.1655 16.4848 34.2005 16.6476C34.3911 17.5348 34.7441 18.3777 35.2483 19.154C35.3406 19.2955 35.3198 19.4829 35.2002 19.6014L34.2567 20.5285C34.189 20.5946 34.1519 20.6836 34.1519 20.7814C34.1513 20.8803 34.1879 20.9721 34.2556 21.0415L35.6564 22.4575C35.7236 22.5252 35.8121 22.5624 35.9077 22.5635C35.9093 22.5635 35.9104 22.5635 35.9115 22.5635C36.0093 22.5635 36.1005 22.5263 36.1688 22.4591L37.1505 21.4894C37.2674 21.3747 37.4466 21.3545 37.5864 21.4397C38.3518 21.9117 39.1778 22.2395 40.041 22.4138C40.2076 22.4477 40.3267 22.5941 40.3256 22.7645L40.3146 24.2051C40.3146 24.405 40.4769 24.5711 40.6757 24.5739L41.3909 24.5793C41.587 24.5809 41.7443 24.741 41.7432 24.9371C41.7416 25.1327 41.5826 25.29 41.3881 25.29Z" fill="#FB3189"/>
<path d="M41.455 19.3875C41.4458 19.3875 41.437 19.3869 41.4277 19.3864C39.1491 19.2165 37.3742 17.3028 37.3868 15.0296C37.4059 12.7603 39.2038 10.8685 41.4802 10.7226C41.6714 10.7084 41.8451 10.8581 41.8571 11.0537C41.8703 11.2498 41.7217 11.4186 41.5261 11.4312C39.6184 11.5535 38.1128 13.1367 38.0975 15.0345C38.0866 16.9351 39.5725 18.5352 41.4813 18.6778C41.6763 18.6931 41.8233 18.863 41.8085 19.0586C41.7949 19.2449 41.6392 19.3875 41.455 19.3875Z" fill="#FB3189"/>
<path d="M10.4087 10.5881C7.12874 10.7733 4.51689 13.4994 4.51689 16.8247C4.51689 20.2702 7.31885 23.0732 10.7638 23.0732C14.0897 23.0732 16.8162 20.4608 17.0014 17.1798H10.7638C10.5677 17.1798 10.4087 17.0208 10.4087 16.8247V10.5881ZM10.7638 23.7839C6.9277 23.7839 3.80615 20.6619 3.80615 16.8247C3.80615 12.9886 6.9277 9.86757 10.7638 9.86757C10.9599 9.86757 11.1189 10.0265 11.1189 10.2232V16.469H17.3663C17.5625 16.469 17.7214 16.628 17.7214 16.8247C17.7214 20.6619 14.6005 23.7839 10.7638 23.7839Z" fill="#FB3189"/>
<path d="M12.2215 15.3733H18.104C17.9254 12.2107 15.384 9.66882 12.2215 9.49072V15.3733ZM18.4689 16.084H11.8664C11.6697 16.084 11.5107 15.925 11.5107 15.7289V9.12581C11.5107 8.92969 11.6697 8.77072 11.8664 8.77072C15.7025 8.77072 18.824 11.8917 18.824 15.7289C18.824 15.925 18.6651 16.084 18.4689 16.084Z" fill="#FB3189"/>
<path d="M29.1208 23.7727H10.5309C10.3348 23.7727 10.1758 23.6137 10.1758 23.4176C10.1758 23.2215 10.3348 23.0625 10.5309 23.0625H29.1208C29.317 23.0625 29.4759 23.2215 29.4759 23.4176C29.4759 23.6137 29.317 23.7727 29.1208 23.7727Z" fill="#FB3189"/>
<path d="M29.1211 20.9878H16.1361C15.94 20.9878 15.781 20.8288 15.781 20.6321C15.781 20.436 15.94 20.277 16.1361 20.277H29.1211C29.3172 20.277 29.4761 20.436 29.4761 20.6321C29.4761 20.8288 29.3172 20.9878 29.1211 20.9878Z" fill="#FB3189"/>
<path d="M29.1209 18.5889H17.3607C17.1646 18.5889 17.0056 18.4299 17.0056 18.2338C17.0056 18.0371 17.1646 17.8781 17.3607 17.8781H29.1209C29.317 17.8781 29.4759 18.0371 29.4759 18.2338C29.4759 18.4299 29.317 18.5889 29.1209 18.5889Z" fill="#FB3189"/>
<path d="M29.1209 16.084H17.3607C17.1646 16.084 17.0056 15.925 17.0056 15.7289C17.0056 15.5322 17.1646 15.3733 17.3607 15.3733H29.1209C29.317 15.3733 29.4759 15.5322 29.4759 15.7289C29.4759 15.925 29.317 16.084 29.1209 16.084Z" fill="#FB3189"/>
<path d="M29.121 13.6448H17.9781C17.782 13.6448 17.623 13.4858 17.623 13.2897C17.623 13.0936 17.782 12.9346 17.9781 12.9346H29.121C29.3171 12.9346 29.4761 13.0936 29.4761 13.2897C29.4761 13.4858 29.3171 13.6448 29.121 13.6448Z" fill="#FB3189"/>
<path d="M29.1209 11.1018H16.1305C15.9344 11.1018 15.7754 10.9428 15.7754 10.7467C15.7754 10.55 15.9344 10.3911 16.1305 10.3911H29.1209C29.317 10.3911 29.476 10.55 29.476 10.7467C29.476 10.9428 29.317 11.1018 29.1209 11.1018Z" fill="#FB3189"/>
</svg>
