<svg width="24" height="24" viewBox="0 0 24 24" fill="none" xmlns="http://www.w3.org/2000/svg">
<path d="M22.6667 9.33333H21.6573L20.7147 7.05733L21.428 6.34267C21.678 6.09263 21.8184 5.75355 21.8184 5.4C21.8184 5.04645 21.678 4.70737 21.428 4.45733L19.5427 2.572C19.2926 2.32204 18.9536 2.18162 18.6 2.18162C18.2464 2.18162 17.9074 2.32204 17.6573 2.572L16.9427 3.28533L14.6667 2.34267V1.33333C14.6667 0.979711 14.5262 0.640573 14.2761 0.390524C14.0261 0.140476 13.687 0 13.3333 0H10.6667C10.313 0 9.97391 0.140476 9.72386 0.390524C9.47381 0.640573 9.33333 0.979711 9.33333 1.33333V2.34267L7.05733 3.28533L6.34267 2.572C6.09263 2.32204 5.75355 2.18162 5.4 2.18162C5.04645 2.18162 4.70737 2.32204 4.45733 2.572L2.572 4.45733C2.32204 4.70737 2.18162 5.04645 2.18162 5.4C2.18162 5.75355 2.32204 6.09263 2.572 6.34267L3.28667 7.05733L2.34267 9.33333H1.33333C0.979711 9.33333 0.640573 9.47381 0.390524 9.72386C0.140476 9.97391 0 10.313 0 10.6667V13.3333C0 13.687 0.140476 14.0261 0.390524 14.2761C0.640573 14.5262 0.979711 14.6667 1.33333 14.6667H2.34267C2.79733 15.764 2.832 15.8453 3.28533 16.9427L2.572 17.6573C2.32204 17.9074 2.18162 18.2464 2.18162 18.6C2.18162 18.9536 2.32204 19.2926 2.572 19.5427L4.45733 21.428C4.70737 21.678 5.04645 21.8184 5.4 21.8184C5.75355 21.8184 6.09263 21.678 6.34267 21.428L7.05733 20.7147L9.33333 21.6573V22.6667C9.33333 23.0203 9.47381 23.3594 9.72386 23.6095C9.97391 23.8595 10.313 24 10.6667 24H13.3333C13.687 24 14.0261 23.8595 14.2761 23.6095C14.5262 23.3594 14.6667 23.0203 14.6667 22.6667V21.6573L16.9427 20.7133L17.6573 21.428C17.9074 21.678 18.2464 21.8184 18.6 21.8184C18.9536 21.8184 19.2926 21.678 19.5427 21.428L21.428 19.5427C21.678 19.2926 21.8184 18.9536 21.8184 18.6C21.8184 18.2464 21.678 17.9074 21.428 17.6573L20.7147 16.9427L21.6573 14.6667H22.6667C23.0203 14.6667 23.3594 14.5262 23.6095 14.2761C23.8595 14.0261 24 13.687 24 13.3333V10.6667C24 10.313 23.8595 9.97391 23.6095 9.72386C23.3594 9.47381 23.0203 9.33333 22.6667 9.33333ZM12 17.3333C10.9452 17.3333 9.91402 17.0205 9.03696 16.4345C8.1599 15.8485 7.47631 15.0155 7.07264 14.041C6.66897 13.0664 6.56336 11.9941 6.76914 10.9595C6.97493 9.92495 7.48288 8.97464 8.22876 8.22876C8.97464 7.48288 9.92495 6.97493 10.9595 6.76914C11.9941 6.56336 13.0664 6.66897 14.041 7.07264C15.0155 7.47631 15.8485 8.1599 16.4345 9.03696C17.0205 9.91402 17.3333 10.9452 17.3333 12C17.3333 13.4145 16.7714 14.771 15.7712 15.7712C14.771 16.7714 13.4145 17.3333 12 17.3333Z" fill="#1A56DB"/>
</svg>
