<svg width="44" height="44" viewBox="0 0 44 44" fill="none" xmlns="http://www.w3.org/2000/svg">
<path d="M40.9637 29.598C42.3317 29.598 43.44 30.7023 43.44 32.0645C43.44 33.4266 42.3317 34.531 40.9637 34.531C39.5973 34.531 38.4883 33.4266 38.4883 32.0645C38.4883 30.7023 39.5973 29.598 40.9637 29.598Z" fill="#70F2A4"/>
<path d="M4.47113 7.63869C6.67661 7.63869 8.46373 9.41936 8.46373 11.617C8.46373 13.8145 6.67661 15.5952 4.47113 15.5952C2.26643 15.5952 0.478516 13.8145 0.478516 11.617C0.478516 9.41936 2.26643 7.63869 4.47113 7.63869Z" fill="#70F2A4"/>
<path d="M35.2147 2.70518C36.173 2.70518 36.9718 3.50084 36.9718 4.45562C36.9718 5.4104 36.173 6.20605 35.2147 6.20605H33.9375V2.70518H35.2147Z" fill="#E9EFFF"/>
<path d="M32.1809 0.714472C33.1392 0.714472 33.9381 1.51012 33.9381 2.46491C33.9381 3.26056 33.9381 5.64752 33.9381 6.44317C33.9381 7.39795 33.1392 8.1936 32.1809 8.1936C28.748 8.1936 19.484 8.1936 15.6516 8.1936C14.6933 8.1936 13.8945 7.39795 13.8945 6.44317V4.61317C13.8945 4.05621 14.215 3.49926 14.6933 3.18099L17.9668 1.03273C18.2873 0.873603 18.6062 0.714472 18.9251 0.714472C20.0437 0.714472 30.5035 0.714472 32.1809 0.714472Z" fill="#BEC8F7"/>
<path d="M25.9533 8.19431V17.583H18.4473V8.19431C20.2036 8.19431 24.3556 8.19431 25.9533 8.19431Z" fill="#A8B7EF"/>
<path d="M29.9449 8.1947V15.6738C29.9449 15.6738 26.1923 13.6847 25.9531 8.1947H29.9449Z" fill="#FF4155"/>
<path d="M30.4245 22.5949C31.5423 22.5949 32.4208 23.4701 32.4208 24.584C32.4208 25.6979 31.5423 26.5731 30.4245 26.5731V28.5622C31.5423 28.5622 32.4208 29.4375 32.4208 30.5514C32.4208 31.6653 31.5423 32.5405 30.4245 32.5405V34.5296C31.5423 34.5296 32.4208 35.4049 32.4208 36.5188C32.4208 37.6327 31.5423 38.5079 30.4245 38.5079V39.3831C30.4245 41.6905 28.5877 43.5205 26.2717 43.5205H11.1001C8.78489 43.5205 6.94727 41.6905 6.94727 39.3831V28.6418C6.94727 27.6075 7.3467 26.6527 7.98608 25.857L14.2149 18.9349C15.013 18.0596 16.1307 17.5822 17.329 17.5822H18.4467C20.9222 17.5822 24.0362 17.5822 26.2717 17.5822C28.5877 17.5822 30.4245 19.4122 30.4245 21.7196V22.5949Z" fill="#464D58"/>
<path d="M25.9529 36.4412C25.9529 37.8734 24.7546 39.0669 23.318 39.0669H14.0548C12.6174 39.0669 11.4199 37.8734 11.4199 36.4412V29.7578C11.4199 29.1212 11.6591 28.4847 12.0585 28.0073L16.61 22.9152C17.0891 22.3582 17.8075 22.0399 18.5258 22.0399H23.2375C24.6749 22.0399 25.8724 23.2334 25.8724 24.6656C25.9529 25.143 25.9529 35.9639 25.9529 36.4412Z" fill="#9BD8F9"/>
<path d="M42.641 6.20479C43.0372 6.20479 43.3593 6.52544 43.3593 6.92088C43.3593 7.31631 43.0372 7.63696 42.641 7.63696C42.2439 7.63696 41.9219 7.31631 41.9219 6.92088C41.9219 6.52544 42.2439 6.20479 42.641 6.20479Z" fill="#081120"/>
<path d="M40.6441 23.0742C41.0412 23.0742 41.3624 23.3948 41.3624 23.7903C41.3624 24.1857 41.0412 24.5063 40.6441 24.5063C40.2471 24.5063 39.9258 24.1857 39.9258 23.7903C39.9258 23.3948 40.2471 23.0742 40.6441 23.0742Z" fill="#081120"/>
<path d="M35.6937 40.0222C36.09 40.0222 36.4128 40.3428 36.4128 40.7383C36.4128 41.1337 36.09 41.4543 35.6937 41.4543C35.2975 41.4543 34.9746 41.1337 34.9746 40.7383C34.9746 40.3428 35.2975 40.0222 35.6937 40.0222Z" fill="#081120"/>
<path d="M35.2144 13.6848C35.6114 13.6848 35.9327 14.0054 35.9327 14.4009C35.9327 14.7963 35.6114 15.1169 35.2144 15.1169C34.8173 15.1169 34.4961 14.7963 34.4961 14.4009C34.4961 14.0054 34.8173 13.6848 35.2144 13.6848Z" fill="#081120"/>
<path d="M13.734 12.6499C14.131 12.6499 14.4531 12.9705 14.4531 13.3659C14.4531 13.7614 14.131 14.082 13.734 14.082C13.3369 14.082 13.0156 13.7614 13.0156 13.3659C13.0156 12.9705 13.3369 12.6499 13.734 12.6499Z" fill="#081120"/>
<path d="M4.71247 -0.00126588C5.10952 -0.00126588 5.43157 0.319382 5.43157 0.714821C5.43157 1.11026 5.10952 1.43091 4.71247 1.43091C4.31621 1.43091 3.99414 1.11026 3.99414 0.714821C3.99414 0.319382 4.31621 -0.00126588 4.71247 -0.00126588Z" fill="#081120"/>
<path d="M1.27769 21.0827C1.67474 21.0827 1.99602 21.4034 1.99602 21.7988C1.99602 22.1942 1.67474 22.5149 1.27769 22.5149C0.880643 22.5149 0.558594 22.1942 0.558594 21.7988C0.558594 21.4034 0.880643 21.0827 1.27769 21.0827Z" fill="#081120"/>
<path d="M1.27769 38.509C1.67474 38.509 1.99602 38.8296 1.99602 39.2251C1.99602 39.6205 1.67474 39.9412 1.27769 39.9412C0.880643 39.9412 0.558594 39.6205 0.558594 39.2251C0.558594 38.8296 0.880643 38.509 1.27769 38.509Z" fill="#081120"/>
<path d="M23.396 38.5108H14.0538C12.9353 38.5108 11.9778 37.556 11.9778 36.4421V29.7586C11.9778 29.2813 12.1381 28.7243 12.5375 28.3265L17.0882 23.2343C17.4876 22.7569 18.0465 22.5182 18.6858 22.5182H23.396C24.5137 22.5182 25.472 23.473 25.472 24.5869V26.0191H21.001C20.7611 26.0191 20.5219 26.2578 20.5219 26.4965C20.5219 26.7352 20.7611 26.9739 21.001 26.9739H25.472V28.963H21.001C20.7611 28.963 20.5219 29.2017 20.5219 29.4404C20.5219 29.6791 20.7611 29.9178 21.001 29.9178H25.472V31.9069H21.001C20.7611 31.9069 20.5219 32.1456 20.5219 32.3843C20.5219 32.623 20.7611 32.8617 21.001 32.8617H25.472V36.283C25.472 37.556 24.5137 38.5108 23.396 38.5108ZM23.396 21.5634H18.6858C17.8065 21.5634 16.9287 21.9613 16.3698 22.5978L11.8176 27.6899C11.3392 28.2469 11.0195 28.963 11.0195 29.7586V36.4421C11.0195 38.113 12.3764 39.5452 14.1335 39.5452H23.396C25.0734 39.5452 26.5108 38.1926 26.5108 36.4421V24.6665C26.4311 22.9956 25.0734 21.5634 23.396 21.5634Z" fill="#081120"/>
<path d="M35.2148 5.64936H34.4965V3.1829H35.2148C35.9331 3.1829 36.4928 3.73985 36.4928 4.45591C36.4131 5.09242 35.8542 5.64936 35.2148 5.64936ZM33.4577 6.44499C33.4577 7.0815 32.8989 7.63844 32.2603 7.63844H15.7311C15.0925 7.63844 14.5336 7.0815 14.5336 6.44499V4.61504C14.5336 4.21722 14.7736 3.81941 15.0925 3.58072L18.366 1.43251C18.606 1.27339 18.7654 1.19382 19.0851 1.19382H22.0397V4.21722C22.0397 4.45591 22.2788 4.6946 22.5188 4.6946C22.758 4.6946 22.9972 4.45591 22.9972 4.21722V1.19382H25.4726V4.21722C25.4726 4.45591 25.7125 4.6946 25.9525 4.6946C26.1917 4.6946 26.4316 4.45591 26.4316 4.21722V1.19382H28.9071V4.21722C28.9071 4.45591 29.1463 4.6946 29.3854 4.6946C29.6254 4.6946 29.8653 4.45591 29.8653 4.21722V1.19382H32.1008C32.7394 1.19382 33.2983 1.75077 33.2983 2.38727C33.4577 3.26247 33.4577 5.64936 33.4577 6.44499ZM29.466 14.64C28.5077 13.8444 26.8303 12.0144 26.5114 8.59319H29.466V14.64ZM29.9443 21.7211V22.5963C29.9443 22.835 30.1843 23.0737 30.4242 23.0737C31.2223 23.0737 31.9414 23.7102 31.9414 24.5854C31.9414 25.4606 31.302 26.0971 30.4242 26.0971C30.1843 26.0971 29.9443 26.3358 29.9443 26.5745V28.5635C29.9443 28.8022 30.1843 29.0409 30.4242 29.0409C31.2223 29.0409 31.9414 29.6774 31.9414 30.5526C31.9414 31.4278 31.302 32.0643 30.4242 32.0643C30.1843 32.0643 29.9443 32.303 29.9443 32.5417V34.5308C29.9443 34.7695 30.1843 35.0081 30.4242 35.0081C31.2223 35.0081 31.9414 35.6447 31.9414 36.5198C31.9414 37.3155 31.302 38.0315 30.4242 38.0315C30.1843 38.0315 29.9443 38.2702 29.9443 38.5089V39.3841C29.9443 41.3732 28.3482 43.044 26.2714 43.044H11.0999C9.10362 43.044 7.42704 41.4528 7.42704 39.3841V28.6431C7.42704 27.7679 7.74595 26.8927 8.38534 26.2562L14.6134 19.3342C15.3325 18.5386 16.29 18.1408 17.3288 18.1408H26.2714C28.3482 18.1408 29.9443 19.732 29.9443 21.7211ZM19.0054 8.67276H20.5225V14.64C20.5225 14.8787 20.7617 15.1174 21.0016 15.1174C21.2408 15.1174 21.4808 14.8787 21.4808 14.64V8.67276H25.4726V17.1064H19.0054V8.67276ZM35.2148 2.22815H34.416C34.3371 1.11426 33.3788 0.239067 32.1805 0.239067H19.0054C18.5254 0.239067 18.1268 0.398193 17.8071 0.636883L14.5336 2.78509C13.8942 3.1829 13.5754 3.89897 13.5754 4.61504V6.44499C13.5754 7.63844 14.6134 8.67276 15.8108 8.67276H18.0471V17.1064H17.4077C16.0508 17.1064 14.8526 17.6634 13.9748 18.6181L7.66701 25.5401C6.86818 26.4153 6.46875 27.4497 6.46875 28.6431V39.3841C6.46875 41.9301 8.54476 43.9988 11.0999 43.9988H26.2714C28.8266 43.9988 30.9026 41.9301 30.9026 39.3841V38.9863C32.0211 38.7476 32.8989 37.7133 32.8989 36.5198C32.8989 35.3264 32.0211 34.2921 30.9026 34.0534V32.9395C32.0211 32.7008 32.8989 31.6665 32.8989 30.4731C32.8989 29.2796 32.0211 28.2453 30.9026 28.0066V26.8927C32.0211 26.654 32.8989 25.6197 32.8989 24.4263C32.8989 23.2328 32.0211 22.1985 30.9026 21.9598V21.562C30.9026 19.0955 28.9071 17.0269 26.4316 16.9473V12.1735C27.6291 14.7991 29.5449 15.8334 29.7059 15.913C30.0248 16.0721 30.4242 15.8334 30.4242 15.4356V8.43407H32.1805C33.2983 8.43407 34.2566 7.55888 34.416 6.44499H35.2148C36.4928 6.44499 37.4503 5.41067 37.4503 4.21722C37.4503 3.1829 36.4131 2.22815 35.2148 2.22815Z" fill="#081120"/>
<path d="M4.47174 15.115C2.55516 15.115 0.958299 13.5237 0.958299 11.6142C0.958299 9.70461 2.55516 8.1133 4.47174 8.1133C6.38753 8.1133 7.98522 9.70461 7.98522 11.6142C7.98522 13.5237 6.38753 15.115 4.47174 15.115ZM9.02323 11.6142C9.02323 9.14765 7.02693 7.15852 4.55149 7.15852C2.07683 7.15852 0 9.14765 0 11.6142C0 14.0807 1.99629 16.0698 4.47174 16.0698C6.9464 16.0698 9.02323 14.0807 9.02323 11.6142Z" fill="#081120"/>
<path d="M40.964 34.0533C39.8463 34.0533 38.9685 33.1781 38.9685 32.0642C38.9685 30.9503 39.8463 30.075 40.964 30.075C42.0825 30.075 42.9611 30.9503 42.9611 32.0642C42.9611 33.1781 42.0028 34.0533 40.964 34.0533ZM40.964 29.0407C39.2874 29.0407 37.9297 30.3933 37.9297 32.0642C37.9297 33.735 39.2874 35.0876 40.964 35.0876C42.6414 35.0876 43.9991 33.735 43.9991 32.0642C43.9991 30.3933 42.5617 29.0407 40.964 29.0407Z" fill="#081120"/>
</svg>
