<svg width="116" height="120" viewBox="0 0 116 120" fill="none" xmlns="http://www.w3.org/2000/svg">
<path d="M115.662 18.0371V97.6649C115.662 101.744 112.362 105.044 108.283 105.044H7.37889C3.30022 105.044 0 101.744 0 97.6649V18.0371H115.662Z" fill="#FCFDFD"/>
<path d="M31.1621 26.4725H26.2735C25.7552 26.4725 25.3359 26.0542 25.3359 25.5369C25.3359 25.0171 25.7552 24.5988 26.2735 24.5988H31.1621C31.6794 24.5988 32.1002 25.0171 32.1002 25.5369C32.1002 26.0542 31.6794 26.4725 31.1621 26.4725Z" fill="#090B0E"/>
<path d="M21.0922 26.4725H7.48937C6.97106 26.4725 6.55176 26.0542 6.55176 25.5369C6.55176 25.0171 6.97106 24.5988 7.48937 24.5988H21.0922C21.6103 24.5988 22.0295 25.0171 22.0295 25.5369C22.0295 26.0542 21.6103 26.4725 21.0922 26.4725Z" fill="#090B0E"/>
<path d="M31.1628 33.9601H19.3253C18.807 33.9601 18.3877 33.5418 18.3877 33.0245C18.3877 32.5047 18.807 32.0864 19.3253 32.0864H31.1628C31.6801 32.0864 32.1009 32.5047 32.1009 33.0245C32.1009 33.5418 31.6801 33.9601 31.1628 33.9601Z" fill="#090B0E"/>
<path d="M14.0554 33.9601H7.48937C6.97106 33.9601 6.55176 33.5418 6.55176 33.0245C6.55176 32.5047 6.97106 32.0864 7.48937 32.0864H14.0554C14.5737 32.0864 14.993 32.5047 14.993 33.0245C14.993 33.5418 14.5737 33.9601 14.0554 33.9601Z" fill="#090B0E"/>
<path d="M20.6234 41.4475H7.48937C6.97106 41.4475 6.55176 41.0292 6.55176 40.5094C6.55176 39.9921 6.97106 39.5738 7.48937 39.5738H20.6234C21.1414 39.5738 21.5608 39.9921 21.5608 40.5094C21.5608 41.0292 21.1414 41.4475 20.6234 41.4475Z" fill="#090B0E"/>
<path d="M115.662 18.0295V7.39847C115.662 3.32178 112.362 0.0198479 108.283 0.0198479L7.37889 2.67029e-05C3.30022 2.67029e-05 0 3.32179 0 7.37867V18.0295H115.662Z" fill="#3D4C5E"/>
<path d="M26.274 9.01476C26.274 10.792 24.8505 12.2152 23.0728 12.2152C21.2941 12.2152 19.8721 10.792 19.8721 9.01476C19.8721 7.23755 21.2941 5.8143 23.0728 5.8143C24.8505 5.8143 26.274 7.23755 26.274 9.01476Z" fill="white"/>
<path d="M14.983 9.01476C14.983 10.792 13.5387 12.2152 11.7826 12.2152C10.0046 12.2152 8.55957 10.792 8.55957 9.01476C8.55957 7.23755 10.0046 5.8143 11.7826 5.8143C13.5387 5.8143 14.983 7.23755 14.983 9.01476Z" fill="white"/>
<path d="M37.5853 9.01476C37.5853 10.792 36.1398 12.2152 34.3626 12.2152C32.6076 12.2152 31.1621 10.792 31.1621 9.01476C31.1621 7.23755 32.6076 5.8143 34.3626 5.8143C36.1398 5.8143 37.5853 7.23755 37.5853 9.01476Z" fill="white"/>
<path d="M64.7659 6.70796C63.501 6.70796 62.459 7.7327 62.459 9.01487C62.459 10.297 63.501 11.3218 64.7659 11.3218H104.78C106.06 11.3218 107.102 10.297 107.102 9.01487C107.102 7.7327 106.06 6.70796 104.78 6.70796H64.7659Z" fill="white"/>
<path d="M77.5823 75.9398L88.9262 87.2813L83.2629 92.9446L71.9189 81.6031L77.5823 75.9398Z" fill="#3275C6"/>
<path d="M79.5211 39.4302C91.7016 51.6108 91.7016 71.3482 79.5211 83.5288C67.3405 95.7093 47.5907 95.7192 35.4127 83.5411C23.2212 71.3482 23.2328 51.5984 35.4127 39.4203C47.5932 27.2398 67.3306 27.2398 79.5211 39.4302Z" fill="#1B6CFC"/>
<path d="M74.9936 43.9574C84.6717 53.6355 84.6717 69.3235 74.9936 79.0016C65.313 88.6822 49.6177 88.6921 39.9371 79.0115C30.2491 69.3235 30.259 53.6281 39.9371 43.9475C49.6177 34.2694 65.3056 34.2694 74.9936 43.9574Z" fill="white"/>
<path d="M92.6916 84.2318L114.612 106.152C116.436 107.979 116.436 110.917 114.61 112.744L108.724 118.63C106.897 120.457 103.961 120.457 102.135 118.63L80.214 96.7094C78.3997 94.8951 78.3873 91.9471 80.214 90.1204L86.1001 84.2343C87.9268 82.4076 90.8748 82.4175 92.6916 84.2318Z" fill="#3D4C5E"/>
<path d="M44.066 54.5786C43.8432 54.8088 43.7318 55.0885 43.7318 55.4128V63.9399C43.7318 64.982 43.5412 65.6874 43.1625 66.0389C42.7739 66.3978 42.2714 66.5735 41.6304 66.5735C41.0561 66.5735 40.4819 66.4374 39.9225 66.1701C39.5264 65.9696 38.9843 66.0537 38.6873 66.4077C38.5066 66.623 38.415 66.873 38.415 67.1502C38.415 67.5661 38.613 67.9002 38.9868 68.123H38.9918C39.8185 68.5933 40.7442 68.8309 41.7492 68.8309C42.9843 68.8309 44.0264 68.4423 44.8457 67.6824C45.6674 66.9126 46.0858 65.6156 46.0858 63.8211V55.4128C46.0858 55.0885 45.9694 54.8063 45.7392 54.5737C45.2714 54.1083 44.514 54.1133 44.066 54.5786Z" fill="#090B0E"/>
<path d="M60.452 61.4795C60.452 62.4548 60.2564 63.3384 59.8703 64.1107C59.4891 64.8731 58.9297 65.4844 58.2045 65.925C57.4767 66.3681 56.6055 66.5933 55.6129 66.5933C54.608 66.5933 53.7317 66.3681 53.0139 65.925C52.2936 65.4844 51.7342 64.8731 51.3531 64.1107C50.9694 63.3384 50.7738 62.4548 50.7738 61.4795C50.7738 60.5043 50.9694 59.6181 51.3531 58.8484C51.7367 58.0835 52.2936 57.4746 53.0139 57.0316C53.7317 56.5885 54.608 56.3632 55.6129 56.3632C56.6055 56.3632 57.4767 56.5885 58.2045 57.0316C58.9272 57.4746 59.4891 58.0835 59.8703 58.8459C60.2564 59.6182 60.452 60.5043 60.452 61.4795ZM59.3678 55.0712C58.2985 54.4449 57.0337 54.1281 55.6129 54.1281C54.1897 54.1281 52.9223 54.4449 51.8481 55.0712C50.7689 55.6974 49.9248 56.5761 49.3382 57.685C48.7541 58.779 48.4471 60.0563 48.4199 61.4845C48.4471 62.9028 48.7541 64.1775 49.3382 65.274C49.9248 66.3805 50.7689 67.2592 51.8456 67.8854L51.8481 67.8879C52.9223 68.5116 54.1897 68.8309 55.6129 68.8309C57.0337 68.8309 58.2985 68.5116 59.3678 67.8854C60.4396 67.2567 61.2836 66.3755 61.8777 65.2641C62.4668 64.1602 62.7787 62.8879 62.8059 61.4746C62.7787 60.0686 62.4668 58.7964 61.8777 57.6924C61.2836 56.5811 60.4396 55.6999 59.3678 55.0712Z" fill="#090B0E"/>
<path d="M67.5932 60.2716V56.5613H70.9149C71.7293 56.5613 72.3728 56.7296 72.8258 57.0588C73.259 57.3731 73.4694 57.7816 73.4694 58.3088C73.4694 58.935 73.2713 59.4053 72.8629 59.7469C72.4446 60.0959 71.6773 60.2716 70.5808 60.2716H67.5932ZM74.2194 64.4127C74.2194 65.0463 73.9941 65.5191 73.5337 65.8607C73.0535 66.2171 72.1996 66.3978 70.9941 66.3978H67.5932V62.4498H71.0139C74.2194 62.4498 74.2194 63.9275 74.2194 64.4127ZM75.6822 62.2147C75.2763 61.7716 74.7787 61.4177 74.202 61.1578C74.5684 60.9127 74.8877 60.6033 75.1525 60.2345C75.5461 59.6825 75.7466 58.987 75.7466 58.1702C75.7466 56.9994 75.3233 56.0514 74.4916 55.3534C73.6748 54.6702 72.5164 54.3237 71.0535 54.3237H66.4051C66.0759 54.3237 65.7962 54.4425 65.5734 54.6776C65.3506 54.9053 65.2393 55.1875 65.2393 55.5118V67.4646C65.2393 67.7914 65.3506 68.0711 65.5759 68.2938C65.7986 68.5191 66.0783 68.6329 66.4051 68.6329H71.1699C72.9768 68.6329 74.3307 68.2666 75.1921 67.5413C76.0683 66.8087 76.5139 65.7815 76.5139 64.4919C76.5139 63.5835 76.2342 62.8186 75.6822 62.2147Z" fill="#090B0E"/>
</svg>
