<svg width="24" height="24" viewBox="0 0 24 24" fill="none" xmlns="http://www.w3.org/2000/svg">
<path d="M23.6484 7.36341L16.6368 0.351896C16.1676 -0.117299 15.4092 -0.117299 14.94 0.351896L13.2072 2.08467C12.9816 2.31027 12.8556 2.61387 12.8556 2.93306C12.8556 3.25226 12.9816 3.55706 13.2072 3.78145L20.2188 10.793C20.4528 11.027 20.76 11.1446 21.0672 11.1446C21.3744 11.1446 21.6816 11.027 21.9156 10.793L23.6484 9.06019C23.874 8.83459 24 8.53099 24 8.2118C24 7.8926 23.8728 7.5878 23.6484 7.36341Z" fill="#1A56DB"/>
<path d="M18.6024 10.8758L13.1244 5.39903C12.8112 5.08584 12.3528 4.96944 11.928 5.09904L5.37966 7.08021C5.01487 7.19061 4.72327 7.47021 4.59727 7.829L0.0684826 20.6472C-0.0851169 21.0828 0.0240828 21.5688 0.351682 21.8952L0.379282 21.9228L8.30645 13.9957C8.15045 13.6201 8.06885 13.2133 8.06885 12.7945C8.06885 11.9558 8.39525 11.1686 8.98805 10.5758C9.58085 9.98297 10.3668 9.65658 11.2056 9.65538C12.0432 9.65538 12.8304 9.98177 13.4244 10.5758C14.016 11.1674 14.3424 11.9546 14.3424 12.7945C14.3424 13.6321 14.016 14.4193 13.4232 15.0121C12.8112 15.6241 12.0084 15.9301 11.2056 15.9301C10.7976 15.9301 10.3896 15.8485 10.0056 15.6913L2.07488 23.6208L2.10248 23.6484C2.33287 23.8764 2.64007 24 2.95207 24C3.08647 24 3.22087 23.9772 3.35167 23.9316L16.17 19.4041C16.53 19.2769 16.8084 18.9853 16.9188 18.6205L18.9024 12.0721C19.0308 11.6474 18.9156 11.1878 18.6024 10.8758Z" fill="#1A56DB"/>
<path d="M11.7264 13.3153C11.8656 13.1761 11.9424 12.9901 11.9424 12.7945C11.9424 12.5977 11.8668 12.4129 11.7264 12.2725C11.586 12.1321 11.4012 12.0553 11.2044 12.0553C11.0076 12.0565 10.824 12.1321 10.6848 12.2725C10.5456 12.4117 10.4688 12.5977 10.4688 12.7945C10.4688 12.9901 10.5444 13.1749 10.6848 13.3153C10.9716 13.6009 11.4396 13.6009 11.7264 13.3153Z" fill="#1A56DB"/>
</svg>
