<svg width="32" height="32" viewBox="0 0 32 32" fill="none" xmlns="http://www.w3.org/2000/svg">
<path d="M22.3273 30.5927L22.6314 30.5927L22.8746 29.0021C22.9356 28.6956 23.1787 28.4511 23.4225 28.3898C24.2739 28.2678 25.004 27.9613 25.7341 27.4722C25.9773 27.2889 26.2814 27.2889 26.5246 27.4722L27.8026 28.513L28.0457 28.2678L27.1334 26.983C26.9505 26.7385 26.9505 26.432 27.1334 26.1874C27.6197 25.5144 27.9848 24.7194 28.1067 23.8625C28.1676 23.5567 28.4108 23.3115 28.7149 23.3115L30.2964 23.067L30.2964 22.7611L28.7758 22.5165C28.4717 22.4552 28.2286 22.2713 28.1676 21.9661C28.0457 21.1086 27.6807 20.3136 27.1943 19.6406C27.0115 19.396 27.0115 19.0896 27.1943 18.845L28.1676 17.5603L27.9238 17.3151L26.5855 18.2946C26.3423 18.4778 26.0382 18.4778 25.7944 18.2946C25.1259 17.8048 24.3348 17.499 23.4828 17.3151C23.1787 17.2544 22.9356 17.0098 22.9356 16.704L22.6924 15.1134L22.3877 15.1134L22.1445 16.704C22.0835 17.0098 21.9013 17.2544 21.5972 17.3151C20.7452 17.4383 20.0151 17.7441 19.3459 18.2333C19.1028 18.4172 18.7987 18.4172 18.5555 18.2333L17.2172 17.2544L16.9734 17.499L17.9473 18.7837C18.1295 19.0289 18.1295 19.3347 17.9473 19.5793C17.4603 20.2523 17.1562 21.0479 16.9734 21.8429C16.913 22.1488 16.6693 22.3939 16.3651 22.3939L14.7227 22.6385L14.7227 23.0057L16.3651 23.2508C16.6693 23.3115 16.913 23.4954 16.9734 23.8013C17.0953 24.5962 17.3994 25.3918 17.8863 26.0649C18.0685 26.31 18.0685 26.6159 17.8863 26.8605L16.913 28.2065L17.1562 28.4511L18.4336 27.4722C18.6768 27.2889 18.9809 27.2889 19.2247 27.4722C19.8938 27.9613 20.6849 28.2678 21.4753 28.4511C21.78 28.513 21.9623 28.7575 22.0232 29.0021L22.3273 30.5927ZM23.2397 32L21.7191 32C21.354 32 21.1103 31.7548 21.0499 31.3883L20.8062 29.6751C20.137 29.4912 19.4678 29.2473 18.9205 28.8795L17.5213 29.9197C17.2781 30.1035 16.8521 30.1035 16.6083 29.8584L15.5741 28.8188C15.3309 28.5736 15.3309 28.2065 15.5138 27.9006L16.548 26.4933C16.1829 25.8816 15.9391 25.2699 15.7569 24.5963L14.0535 24.3517C13.6885 24.291 13.4453 23.9851 13.4453 23.6793L13.4453 22.1488C13.4453 21.7822 13.6885 21.537 14.0535 21.4764L15.8179 21.2318C16.0001 20.5582 16.2439 19.9465 16.6083 19.3347L15.5741 17.9274C15.3919 17.6828 15.3919 17.2544 15.635 17.0098L16.6693 15.9697C16.913 15.7245 17.2781 15.7245 17.5822 15.9084L18.9809 16.9485C19.5897 16.5808 20.1979 16.3362 20.8671 16.1529L21.1103 14.4398C21.1712 14.0732 21.4753 13.8281 21.78 13.8281L23.3006 13.8281C23.6657 13.8281 23.9088 14.0732 23.9698 14.4398L24.2129 16.1529C24.8821 16.3362 25.5513 16.5808 26.1595 16.9485L27.4984 15.9084C27.7416 15.7245 28.1676 15.7245 28.4108 15.9697L29.445 17.0098C29.6882 17.2544 29.6882 17.6216 29.5059 17.9274L28.4717 19.2734C28.8368 19.8858 29.1409 20.5582 29.2622 21.2318L30.9052 21.4764C31.2703 21.537 31.5134 21.8429 31.5134 22.1488L31.5134 23.6793C31.5134 24.0458 31.2703 24.291 30.9052 24.3517L29.2012 24.5963C29.019 25.2699 28.7758 25.9423 28.3498 26.5546L29.3841 27.9006C29.5663 28.1452 29.5663 28.5736 29.3231 28.8188L28.2889 29.8584C28.0457 30.1035 27.6807 30.1035 27.3765 29.9197L26.0382 28.8795C25.43 29.2473 24.7608 29.4912 24.0917 29.6751L23.8479 31.3883C23.8479 31.7548 23.5438 32 23.2397 32Z" fill="#055346"/>
<path d="M22.5086 19.8859C20.8661 19.8859 19.5278 21.232 19.5278 22.8832C19.5278 24.5357 20.8661 25.8817 22.5086 25.8817C24.151 25.8817 25.4894 24.5357 25.4894 22.8832C25.4894 21.232 24.151 19.8859 22.5086 19.8859ZM22.5086 27.2891C20.136 27.2891 18.1895 25.3307 18.1895 22.9451C18.1895 20.5583 20.136 18.6012 22.5086 18.6012C24.8811 18.6012 26.8283 20.5583 26.8283 22.9451C26.8283 25.3307 24.8811 27.2891 22.5086 27.2891Z" fill="#055346"/>
<path d="M22.5091 22.2711C22.2049 22.2711 21.9008 22.5163 21.9008 22.8828C21.9008 23.2506 22.144 23.4951 22.5091 23.4951C22.8741 23.4951 23.1173 23.2506 23.1173 22.8828C23.1173 22.5163 22.8132 22.2711 22.5091 22.2711ZM22.5091 24.9019C21.4145 24.9019 20.5625 23.9849 20.5625 22.9447C20.5625 21.8427 21.4748 20.9864 22.5091 20.9864C23.5433 20.9864 24.4562 21.9039 24.4562 22.9447C24.4562 23.9849 23.6042 24.9019 22.5091 24.9019Z" fill="#055346"/>
<path d="M7.90874 15.1133L8.03002 15.1133L8.21284 13.7667C8.27378 13.4608 8.51695 13.2163 8.76012 13.155C9.49024 13.0324 10.1594 12.7878 10.7682 12.3594C11.0114 12.1761 11.3155 12.1761 11.5587 12.3594L12.6539 13.155L12.7757 13.0324L11.9847 12.0541C11.8018 11.8089 11.8018 11.5025 11.9847 11.2579C12.4107 10.6462 12.7148 9.97318 12.8361 9.23887C12.897 8.93302 13.1408 8.68844 13.4449 8.68844L14.7832 8.50517L14.7832 8.32129L13.5059 8.13742C13.2011 8.07674 12.958 7.89285 12.897 7.58699C12.7757 6.85269 12.4716 6.17967 12.0456 5.56795C11.8634 5.32339 11.8634 5.01752 12.0456 4.77235L12.8361 3.73279L12.7148 3.6096L11.6806 4.4052C11.4368 4.58908 11.1333 4.58908 10.8895 4.4052C10.2813 3.97737 9.61212 3.67089 8.88201 3.54891C8.5779 3.48762 8.33473 3.24305 8.33473 2.93719L8.15191 1.59056L8.03002 1.59056L7.84779 2.93719C7.78685 3.24305 7.60462 3.48762 7.30051 3.54891C6.5704 3.67089 5.90123 3.97737 5.293 4.34391C5.04983 4.52779 4.74511 4.52779 4.50194 4.34391L3.40678 3.48762L3.2855 3.6096L4.1369 4.71166C4.31973 4.95623 4.31973 5.26209 4.1369 5.50666C3.7109 6.11838 3.46772 6.792 3.34584 7.46501C3.2855 7.77087 3.04172 8.01544 2.73761 8.01544L1.33833 8.19872L1.33833 8.32129L2.67666 8.50517C2.98078 8.56586 3.22455 8.74974 3.2855 9.0556C3.40678 9.78991 3.64996 10.4623 4.07595 11.014C4.25818 11.2579 4.25818 11.5644 4.07595 11.809L3.22455 12.9104L3.34584 13.0324L4.44101 12.2368C4.68479 12.0541 4.98829 12.0541 5.23206 12.2368C5.84028 12.6652 6.50945 12.9711 7.17862 13.0937C7.48273 13.155 7.66496 13.3995 7.72651 13.7054L7.90874 15.1133ZM8.63884 16.4587L7.30051 16.4587C6.93545 16.4587 6.69228 16.2142 6.63133 15.8476L6.4485 14.379C5.90122 14.2558 5.35334 14.0113 4.867 13.7054L3.7109 14.6236C3.46773 14.8069 3.04172 14.8069 2.79855 14.5623L1.88562 13.6447C1.64305 13.3995 1.64305 13.0324 1.82528 12.7265L2.73761 11.5025C2.4335 11.0133 2.25068 10.4623 2.06845 9.91189L0.608222 9.72801C0.243167 9.66733 -3.39579e-09 9.36146 -3.54213e-09 9.0556L-4.18644e-09 7.70897C-4.36182e-09 7.34243 0.243167 7.09785 0.608222 7.03656L2.12939 6.79199C2.25068 6.24096 2.49444 5.68993 2.79855 5.2014L1.88562 3.97736C1.70339 3.7328 1.70339 3.30434 1.94656 3.05917L2.8595 2.1416C3.10266 1.89703 3.46773 1.89703 3.77184 2.0803L4.98828 2.99848C5.47523 2.69262 6.02251 2.44746 6.63133 2.32487L6.81356 0.856263C6.87451 0.489717 7.17862 0.245146 7.48274 0.245146L8.82107 0.245146C9.18612 0.245146 9.4293 0.489717 9.49024 0.856263L9.67307 2.32487C10.2204 2.44746 10.8286 2.69262 11.3155 2.99848L12.4716 2.1416C12.7148 1.95832 13.1408 1.95833 13.384 2.20289L14.2963 3.12046C14.5401 3.36503 14.5401 3.7328 14.3572 4.03866L13.5059 5.2014C13.81 5.75183 14.0531 6.30225 14.175 6.85268L15.5737 7.03656C15.9388 7.09785 16.1825 7.40311 16.1825 7.70897L16.1825 9.0556C16.1825 9.42275 15.9388 9.66733 15.5737 9.72801L14.175 9.91189C13.9922 10.5242 13.81 11.0746 13.4449 11.5644L14.2963 12.7265C14.4785 12.9711 14.4785 13.3995 14.2354 13.6447L13.323 14.5623C13.0799 14.8069 12.7148 14.8069 12.4107 14.6236L11.2546 13.7667C10.7682 14.0732 10.1594 14.3171 9.61213 14.4397L9.4293 15.9083C9.30801 16.2142 9.0039 16.4587 8.63884 16.4587Z" fill="#055346"/>
<path d="M8.02984 5.75198C6.63117 5.75198 5.47505 6.91412 5.47505 8.32144C5.47505 9.72815 6.63117 10.8915 8.02984 10.8915C9.42912 10.8915 10.5852 9.72815 10.5852 8.32144C10.5852 6.91412 9.42912 5.75198 8.02984 5.75198ZM8.02984 12.2988C5.84011 12.2988 4.13672 10.5244 4.13672 8.38273C4.13672 6.17981 5.90105 4.46725 8.02984 4.46725C10.2202 4.46725 11.9236 6.2411 11.9236 8.38273C11.9236 10.5244 10.1592 12.2988 8.02984 12.2988Z" fill="#055346"/>
<path d="M16.1221 31.7549C11.9243 31.7549 7.9093 30.1036 4.92852 27.1051C1.94713 24.1072 0.304687 20.1298 0.304687 15.8477C0.304687 15.48 0.608798 15.1741 0.973853 15.1741C1.33891 15.1741 1.64362 15.48 1.64362 15.8477C1.70396 23.8626 8.15247 30.3482 16.1221 30.3482C16.4872 30.3482 16.7913 30.654 16.7913 31.0212C16.7913 31.449 16.4872 31.7549 16.1221 31.7549Z" fill="#055346"/>
<path d="M31.2702 16.52C30.9051 16.52 30.6004 16.2142 30.6004 15.8476C30.6004 7.83153 24.1519 1.34597 16.1828 1.34597C15.8178 1.34597 15.5137 1.04013 15.5137 0.673579C15.5137 0.305819 15.8178 -4.57765e-05 16.1828 -4.57767e-05C20.3801 -4.57787e-05 24.3957 1.65244 27.3765 4.64974C30.3572 7.64826 32.0003 11.625 32.0003 15.9083C31.9388 16.2142 31.6352 16.52 31.2702 16.52Z" fill="#055346"/>
<path d="M11.5586 19.0287L12.836 19.0287L12.836 20.3135L11.5586 20.3135L11.5586 19.0287Z" fill="#055346"/>
<path d="M9.61133 19.0287L10.8887 19.0287L10.8887 20.3135L9.61133 20.3135L9.61133 19.0287Z" fill="#055346"/>
<path d="M7.72656 19.0287L9.00395 19.0287L9.00395 20.3135L7.72656 20.3135L7.72656 19.0287Z" fill="#055346"/>
<path d="M5.7793 19.0287L7.05729 19.0287L7.05729 20.3135L5.7793 20.3135L5.7793 19.0287Z" fill="#055346"/>
<path d="M24.457 8.01508L25.7344 8.01508L25.7344 9.2998L24.457 9.2998L24.457 8.01508Z" fill="#055346"/>
<path d="M22.5098 8.01508L23.7872 8.01508L23.7872 9.2998L22.5098 9.2998L22.5098 8.01508Z" fill="#055346"/>
<path d="M20.5625 8.01508L21.8399 8.01508L21.8399 9.2998L20.5625 9.2998L20.5625 8.01508Z" fill="#055346"/>
<path d="M18.6152 8.01508L19.8932 8.01508L19.8932 9.2998L18.6152 9.2998L18.6152 8.01508Z" fill="#055346"/>
</svg>
