<svg width="38" height="36" viewBox="0 0 38 36" fill="none" xmlns="http://www.w3.org/2000/svg">
<path d="M6.97896 29.6296C10.0279 31.6232 12.1915 32.2974 15.8864 32.5961C16.4856 32.6445 17.6945 32.4743 18.1766 32.6275C18.2648 32.6554 18.2632 32.6657 18.3226 32.7235L17.7507 32.756C17.5364 33.0164 17.5033 33.2707 17.5265 33.6096C17.5816 34.4081 17.9555 35.2128 18.1403 35.9922C15.0725 35.8385 12.0266 35.4227 9.27436 33.998C8.29812 33.4931 7.3077 32.8081 6.97266 31.7264C7.02517 31.0383 6.98211 30.3213 6.97896 29.6296Z" fill="#DC202B"/>
<path d="M31.4498 28.9888C31.4493 30.0452 31.4992 31.1264 31.4362 32.1802C30.3413 33.9721 28.4686 34.6999 26.4893 35.1956C23.7927 35.8708 20.9165 36.0333 18.1417 35.9921C17.9568 35.2127 17.5829 34.408 17.5278 33.6095C17.5047 33.2706 17.5378 33.0163 17.752 32.7558L18.3239 32.7233C22.0792 32.8115 26.8344 32.5284 30.0503 30.4759C30.5655 30.1468 31.3122 29.6032 31.4498 28.9888Z" fill="#EF5974"/>
<path d="M13.1077 4.22619C14.7162 2.03707 16.9313 0.565958 19.6757 0.125452C22.2426 -0.286686 24.7317 0.317343 26.8181 1.83333C29.1193 3.50508 30.6202 5.89125 31.0224 8.68078C31.118 9.34618 31.1611 10.0214 31.1894 10.6919C33.1298 10.6043 34.7688 10.9669 36.2224 12.2941C37.3593 13.3319 37.947 14.7906 37.9968 16.2994C38.052 17.9753 37.3809 19.5433 36.194 20.7354C34.9179 22.0162 33.2832 22.6403 31.4751 22.7012L31.4767 21.5241C32.4198 21.4678 33.2874 21.3435 34.1418 20.9211C35.4426 20.2784 36.276 19.1998 36.6866 17.8448C37.0742 16.5671 36.9219 15.1522 36.2497 13.9916C35.3932 12.5133 34.0189 11.786 32.33 11.7963C31.7188 11.7999 31.0723 11.8897 30.48 11.7215C29.9275 11.2403 30.0425 9.77946 29.9979 9.08208C29.8177 7.67906 29.394 6.38178 28.602 5.19334C27.1899 3.0754 25.1555 1.73583 22.6496 1.2097C20.6871 0.773323 18.2646 1.26438 16.5679 2.30117C15.1574 3.1631 14.1769 4.36185 13.2485 5.69008C11.7366 4.98754 10.5776 4.62852 8.92496 5.21913C8.50852 5.3682 8.09261 5.55133 7.69823 5.74837C8.96592 7.84103 10.2415 9.92957 11.474 12.0429C10.0635 12.5159 7.96448 13.0807 7.2361 14.4822C6.91629 15.098 6.96198 15.7062 6.99454 16.3726C6.97879 18.4044 7.01974 20.4527 6.92311 22.482C5.52991 22.7105 3.91563 22.2096 2.77765 21.4209C1.31512 20.4084 0.389289 18.8671 0.0936343 17.1469C-0.194144 15.4777 0.182909 13.8348 1.20431 12.4648C2.07815 11.2934 3.23504 10.5176 4.57941 9.94762C4.69494 8.23666 5.42173 6.59946 6.73616 5.443C8.01278 4.31904 9.70007 3.82179 11.3937 3.94353C11.975 3.98531 12.5395 4.10342 13.1077 4.22619Z" fill="#58B1E7"/>
<path d="M13.2475 5.68749C14.1759 4.35926 15.1564 3.16051 16.5669 2.29858C18.2637 1.26179 20.6861 0.770733 22.6486 1.20711C25.1546 1.73325 27.189 3.07281 28.6011 5.19075C29.393 6.37919 29.8168 7.67647 29.9969 9.07949C30.0415 9.77687 29.9265 11.2377 30.479 11.7189C31.0714 11.8871 31.7178 11.7973 32.3291 11.7937C34.0179 11.7834 35.3922 12.5107 36.2487 13.989C36.9209 15.1496 37.0732 16.5645 36.6857 17.8422C36.275 19.1972 35.4416 20.2758 34.1408 20.9185C33.2864 21.341 32.4189 21.4653 31.4757 21.5215L31.4432 15.7712C31.4411 15.5153 31.439 15.2683 31.3738 15.0191C31.1522 14.1732 30.3362 13.5217 29.5947 13.1137C25.0753 10.6269 16.3873 10.7136 11.473 12.0403C10.2405 9.92698 8.96496 7.83844 7.69727 5.74578C8.09165 5.54874 8.50756 5.36561 8.924 5.21654C10.5766 4.62593 11.7356 4.98495 13.2475 5.68749Z" fill="#91DBF4"/>
<path d="M22.6484 1.20831C25.1544 1.73444 27.1888 3.07401 28.6009 5.19195C29.3928 6.38039 29.8166 7.67767 29.9968 9.08069C29.9684 9.21944 29.9175 9.33808 29.8655 9.46961L29.6827 9.54492C29.5735 9.50005 29.5777 9.50675 29.4606 9.43144C28.6088 8.88519 28.1918 7.26295 27.7108 6.38297C27.3527 5.7284 26.9368 5.1022 26.4478 4.53428C25.8466 3.83587 25.1255 3.18285 24.3604 2.66187C23.9083 2.35341 23.3437 2.1017 22.9425 1.73289C22.7435 1.54926 22.7141 1.45745 22.6484 1.20831Z" fill="#C1EAEC"/>
<path d="M11.4727 12.0408C16.387 10.7141 25.075 10.6274 29.5943 13.1142C30.3358 13.5222 31.1519 14.1737 31.3735 15.0196C31.4386 15.2687 31.4407 15.5158 31.4428 15.7717L31.4754 21.522L31.4738 22.6991C31.4418 24.7113 31.4455 26.7224 31.4528 28.7346L31.4476 28.9879C31.31 29.6022 30.5632 30.1459 30.0481 30.475C26.8321 32.5274 22.0769 32.8106 18.3216 32.7224C18.2623 32.6646 18.2639 32.6543 18.1756 32.6265C17.6936 32.4733 16.4847 32.6435 15.8855 32.595C12.1906 32.2963 10.027 31.6222 6.97803 29.6285C6.98118 30.3203 7.02424 31.0372 6.97172 31.7253C6.66871 30.2996 6.92131 28.5412 6.95282 27.0845C6.98695 25.549 6.95807 24.0149 6.92183 22.4799C7.01846 20.4506 6.97751 18.4023 6.99326 16.3705C6.9607 15.7041 6.91501 15.0959 7.23483 14.4801C7.9632 13.0786 10.0622 12.5138 11.4727 12.0408Z" fill="#EE8ACB"/>
<path d="M7.00883 28.0615C8.29438 30.0505 10.9763 30.9155 13.2108 31.3988C14.6029 31.7006 15.9972 31.8027 17.3998 32.0059C22.3771 32.3061 27.3733 31.7305 31.4553 28.7346L31.45 28.9879C31.3124 29.6022 30.5657 30.1459 30.0505 30.475C26.8345 32.5274 22.0794 32.8106 18.3241 32.7224C18.2647 32.6646 18.2663 32.6543 18.1781 32.6265C17.696 32.4733 16.4871 32.6435 15.8879 32.595C12.193 32.2963 10.0294 31.6222 6.98047 29.6285L7.00883 28.0615Z" fill="#CF1358"/>
<path d="M6.99326 16.3724C9.21776 18.2845 11.9548 18.9479 14.8331 19.3007C15.552 19.3889 16.313 19.3987 17.0193 19.5271C17.0324 23.617 16.7394 27.9674 17.3974 32.0078C15.9947 31.8046 14.6005 31.7025 13.2083 31.4007C10.9738 30.9174 8.29194 30.0524 7.00639 28.0634L6.97803 29.6304C6.98118 30.3221 7.02424 31.0391 6.97172 31.7272C6.66871 30.3015 6.92131 28.5431 6.95282 27.0864C6.98695 25.5508 6.95807 24.0168 6.92183 22.4817C7.01846 20.4525 6.97751 18.4042 6.99326 16.3724Z" fill="#EF5974"/>
<path d="M11.4731 12.0404C16.3874 10.7137 25.0753 10.627 29.5947 13.1138C30.3362 13.5218 31.1523 14.1733 31.3739 15.0192C31.439 15.2683 31.4411 15.5154 31.4432 15.7713C28.5512 18.7774 23.8528 19.4284 19.827 19.5537C18.8986 19.5826 17.946 19.5935 17.0196 19.5249C16.3133 19.3964 15.5524 19.3866 14.8335 19.2984C11.9552 18.9456 9.21812 18.2823 6.99362 16.3701C6.96106 15.7037 6.91537 15.0955 7.23518 14.4797C7.96356 13.0782 10.0626 12.5134 11.4731 12.0404Z" fill="#D60C86"/>
<path d="M18.1285 11.7911C21.2127 11.7117 26.681 12.1821 29.219 13.9451C29.6438 14.2402 30.0555 14.673 30.0818 15.2125C30.1017 15.6283 29.8796 16.0167 29.5892 16.3029C27.6309 18.23 22.5203 18.6716 19.8357 18.7257C16.6985 18.7608 11.5175 18.4864 8.87443 16.6217C8.47165 16.3375 8.07201 15.9367 8.0111 15.4291C7.96698 15.066 8.13082 14.7359 8.36661 14.4677C10.0859 12.5107 15.6078 11.9128 18.1285 11.7911Z" fill="white"/>
<path d="M17.8881 12.9665C19.5979 12.805 21.8266 12.9541 23.4304 13.6061C24.0369 13.8527 24.9712 14.3288 25.1886 14.9983C25.2705 15.25 25.2458 15.5332 25.0888 15.7534C24.3935 16.7257 21.9022 17.0621 20.7826 17.1993C18.6085 17.2725 15.6047 17.3597 13.7084 16.1496C13.3277 15.9066 12.9291 15.5739 12.8409 15.1138C12.7879 14.8389 12.863 14.6336 13.0415 14.4159C13.9111 13.3533 16.6009 13.0444 17.8881 12.9665Z" fill="#E133A2"/>
<path d="M17.8147 13.498C19.4537 13.3175 21.518 13.4743 23.0351 14.1598C23.4883 14.3646 23.8864 14.592 24.0565 15.0743C24.0245 15.2585 24.034 15.3446 23.9132 15.4978C23.2237 16.367 21.1336 16.5511 20.097 16.6538C18.8072 16.678 17.4613 16.6687 16.2025 16.3541C15.398 16.1534 14.4968 15.8058 14.0484 15.081C14.051 14.9165 14.0158 14.8046 14.124 14.6668C14.7568 13.8616 16.8426 13.6053 17.8147 13.498Z" fill="white"/>
</svg>
