<svg width="120" height="120" viewBox="0 0 120 120" fill="none" xmlns="http://www.w3.org/2000/svg">
<path d="M119.611 12.8213V107.156C119.611 114.245 113.857 120 106.788 120H12.8435C5.75472 120 0 114.245 0 107.156V12.8213C0 5.73244 5.75472 -7.62939e-06 12.8435 -7.62939e-06H106.788C113.857 -7.62939e-06 119.611 5.73244 119.611 12.8213Z" fill="#FCFDFD"/>
<path d="M97.5578 37.3647V73.6255C97.5578 76.6626 95.0826 79.1377 92.0456 79.1377H27.5483C24.5113 79.1377 22.0361 76.6626 22.0361 73.6255V37.3647C22.0361 34.3277 24.5113 31.8698 27.5483 31.8698H92.0456C95.0826 31.8698 97.5578 34.3277 97.5578 37.3647Z" fill="#FB3189"/>
<path d="M38.8893 72.5762H29.5357C29.0184 72.5762 28.5977 72.1554 28.5977 71.6381C28.5977 71.1208 29.0184 70.7 29.5357 70.7H38.8893C39.4066 70.7 39.8274 71.1208 39.8274 71.6381C39.8274 72.1554 39.4066 72.5762 38.8893 72.5762Z" fill="#090B0E"/>
<path d="M39.8447 67.832H29.5357C29.0184 67.832 28.5977 67.4137 28.5977 66.894C28.5977 66.3766 29.0184 65.9583 29.5357 65.9583H39.8447C40.3645 65.9583 40.7828 66.3766 40.7828 66.894C40.7828 67.4137 40.3645 67.832 39.8447 67.832Z" fill="#090B0E"/>
<path d="M48.9284 67.832H43.8296C43.3123 67.832 42.8916 67.4137 42.8916 66.894C42.8916 66.3766 43.3123 65.9583 43.8296 65.9583H48.9284C49.4457 65.9583 49.8641 66.3766 49.8641 66.894C49.8641 67.4137 49.4457 67.832 48.9284 67.832Z" fill="#090B0E"/>
<path d="M33.8697 63.0889H29.5357C29.0184 63.0889 28.5977 62.6681 28.5977 62.1508C28.5977 61.631 29.0184 61.2127 29.5357 61.2127H33.8697C34.387 61.2127 34.8078 61.631 34.8078 62.1508C34.8078 62.6681 34.387 63.0889 33.8697 63.0889Z" fill="#090B0E"/>
<path d="M48.9289 63.0889H38.0309C37.5111 63.0889 37.0928 62.6681 37.0928 62.1508C37.0928 61.631 37.5111 61.2127 38.0309 61.2127H48.9289C49.4462 61.2127 49.8645 61.631 49.8645 62.1508C49.8645 62.6681 49.4462 63.0889 48.9289 63.0889Z" fill="#090B0E"/>
<path d="M89.8328 71.6387H71.3014C71.1752 71.6387 71.0762 71.5372 71.0762 71.4134V62.3767C71.0762 62.2529 71.1752 62.1514 71.3014 62.1514H89.8328C89.9566 62.1514 90.0581 62.2529 90.0581 62.3767V71.4134C90.0581 71.5372 89.9566 71.6387 89.8328 71.6387Z" fill="white"/>
<path d="M119.611 24.2471V12.8218C119.611 5.73299 113.857 0.000555038 106.788 0.000555038H12.8435C5.75472 0.000555038 0 5.73299 0 12.8218V24.2471H119.611Z" fill="#FB3189"/>
<path d="M17.9178 12.6009C17.9178 14.7048 16.2124 16.4102 14.1086 16.4102C12.0072 16.4102 10.3018 14.7048 10.3018 12.6009C10.3018 10.497 12.0072 8.79165 14.1086 8.79165C16.2124 8.79165 17.9178 10.497 17.9178 12.6009Z" fill="#47586E"/>
<path d="M31.1297 12.6009C31.1297 14.7048 29.4243 16.4102 27.3204 16.4102C25.2166 16.4102 23.5112 14.7048 23.5112 12.6009C23.5112 10.497 25.2166 8.79165 27.3204 8.79165C29.4243 8.79165 31.1297 10.497 31.1297 12.6009Z" fill="#47586E"/>
<path d="M44.3422 12.6009C44.3422 14.7048 42.6368 16.4102 40.5329 16.4102C38.429 16.4102 36.7236 14.7048 36.7236 12.6009C36.7236 10.497 38.429 8.79165 40.5329 8.79165C42.6368 8.79165 44.3422 10.497 44.3422 12.6009Z" fill="#47586E"/>
<path d="M109.315 12.1951C109.315 14.0639 107.785 15.5762 105.914 15.5762H69.5219C67.6334 15.5762 66.1211 14.0639 66.1211 12.1951C66.1211 10.3041 67.6334 8.7918 69.5219 8.7918H105.914C107.785 8.7918 109.315 10.3041 109.315 12.1951Z" fill="white"/>
<path d="M97.5578 49.7852H22.0361V41.3499H97.5578V49.7852Z" fill="#47586E"/>
<path d="M76.9352 99.2363V109.605C76.9352 111.199 75.6407 112.493 74.0467 112.493H45.1345C43.543 112.493 42.2485 111.199 42.2485 109.605V99.2363C42.2485 97.6423 43.543 96.3503 45.1345 96.3503H74.0467C75.6407 96.3503 76.9352 97.6423 76.9352 99.2363Z" fill="#47586E"/>
</svg>
