<svg width="24" height="24" viewBox="0 0 24 24" fill="none" xmlns="http://www.w3.org/2000/svg">
<path d="M12.009 14.403C13.3352 14.403 14.4103 13.3282 14.4103 12.0025C14.4103 10.6768 13.3352 9.60204 12.009 9.60204C10.6828 9.60204 9.60771 10.6768 9.60771 12.0025C9.60771 13.3282 10.6828 14.403 12.009 14.403Z" fill="#1A56DB"/>
<path d="M21.4367 12.0025C24.2928 7.43911 24.8161 3.36996 22.7304 1.2838C20.5859 -0.861136 16.4384 -0.236129 12.009 2.54581C7.57961 -0.234929 3.4334 -0.858737 1.2877 1.2838C-0.860412 3.43114 -0.23038 7.58666 2.56336 12.0229C1.4605 13.7899 0.663664 15.5342 0.280845 17.1033C-0.465592 20.1672 0.416452 21.8491 1.2877 22.72C2.14694 23.5789 3.3386 24 4.76307 24C6.80317 24 9.31969 23.1255 12.009 21.4412C14.6972 23.1219 17.2173 23.9952 19.2574 23.9952C20.6819 23.9952 21.8747 23.5753 22.7304 22.72C24.8173 20.635 24.294 16.5659 21.4367 12.0025ZM2.98578 21.0237C2.15414 20.1912 2.39655 18.5681 2.61376 17.672C2.87537 16.5983 3.3782 15.407 4.07063 14.1702C4.86747 15.1983 5.76392 16.2276 6.77317 17.2365C7.00718 17.4704 7.31439 17.588 7.62161 17.588C7.92882 17.588 8.23604 17.4704 8.47005 17.2365C8.93927 16.7674 8.93927 16.0081 8.47005 15.539C5.94873 13.0186 4.02263 10.233 3.04578 7.69343C2.21534 5.53409 2.19254 3.77304 2.98578 2.98008C4.04063 1.9268 6.70956 2.33348 9.83212 4.07054C8.80487 4.8683 7.77882 5.76082 6.77197 6.76731C6.30274 7.23637 6.30274 7.99573 6.77197 8.46479C7.24119 8.93384 8.00083 8.93384 8.47005 8.46479C9.63891 7.29635 10.8354 6.29946 12.009 5.46092C13.1827 6.29826 14.3791 7.29635 15.548 8.46479C16.0172 8.93384 16.7769 8.93384 17.2461 8.46479C17.7153 7.99573 17.7153 7.23637 17.2461 6.76731C16.2392 5.76082 15.212 4.8671 14.1859 4.07174C17.3085 2.33348 19.9786 1.9268 21.0335 2.98128C22.3007 4.24929 21.4787 7.68503 19.0342 11.3355C19.033 11.3379 19.0294 11.3415 19.0294 11.3415L19.027 11.3451C18.589 11.9965 18.1017 12.6539 17.5761 13.2993C16.9509 14.0671 16.2692 14.8216 15.5492 15.5402C14.9312 16.1568 14.2891 16.7458 13.6411 17.2917C12.8971 17.9167 12.1386 18.4889 11.3862 18.9939C7.71401 21.464 4.26144 22.2965 2.98578 21.0237ZM21.0335 21.0237C19.945 22.113 17.2329 21.6499 14.1691 19.9381C14.5088 19.6765 14.8496 19.4102 15.1844 19.1295C15.8852 18.5405 16.5789 17.9035 17.2461 17.2377C18.0225 16.4615 18.7606 15.647 19.4374 14.8156C19.6126 14.5997 19.777 14.3814 19.945 14.163C21.6587 17.2257 22.1255 19.9309 21.0335 21.0237Z" fill="#1A56DB"/>
</svg>
