<svg width="38" height="42" viewBox="0 0 38 42" fill="none" xmlns="http://www.w3.org/2000/svg">
<path d="M14.9519 3.63309C20.623 4.19008 24.8046 9.28469 24.2522 14.9522C23.6993 20.6182 18.6058 24.8049 12.9388 24.2479C7.26765 23.695 3.08612 18.6004 3.63745 12.9395C4.19496 7.2674 9.2844 3.08638 14.9519 3.63309Z" stroke="#FB3189" stroke-width="0.506593" stroke-miterlimit="10" stroke-linecap="round" stroke-linejoin="round"/>
<path d="M12.6886 26.8262C5.55562 26.1289 0.365946 19.8104 1.0627 12.6821C1.76047 5.55475 8.07491 0.364565 15.2022 1.06234C22.3295 1.76012 27.5248 8.07454 26.8265 15.1962C26.1339 22.3286 19.8154 27.5188 12.6886 26.8262ZM3.63751 12.9384C3.08617 18.5993 7.2677 23.6939 12.9388 24.2468C18.6058 24.8038 23.6994 20.6171 24.2523 14.9511C24.8046 9.28358 20.6231 4.18897 14.952 3.63198C9.28446 3.08527 4.19501 7.26629 3.63751 12.9384Z" stroke="#FB3189" stroke-width="0.506593" stroke-miterlimit="10" stroke-linecap="round" stroke-linejoin="round"/>
<path d="M12.9388 24.2479C7.26765 23.695 3.08612 18.6004 3.63745 12.9395C4.19496 7.2674 9.2844 3.08638 14.9519 3.63309C20.623 4.19008 24.8046 9.28469 24.2522 14.9522C23.6993 20.6182 18.6058 24.8049 12.9388 24.2479Z" stroke="#FB3189" stroke-miterlimit="10" stroke-linecap="round" stroke-linejoin="round"/>
<path d="M15.2022 1.06234C8.07491 0.364565 1.76047 5.55475 1.0627 12.6821C0.365946 19.8104 5.55562 26.1289 12.6886 26.8262C19.8154 27.5188 26.1339 22.3286 26.8265 15.1962C27.5248 8.07454 22.3295 1.76012 15.2022 1.06234Z" stroke="#FB3189" stroke-miterlimit="10" stroke-linecap="round" stroke-linejoin="round"/>
<path d="M7.34435 19.5926C7.32071 19.5926 7.29606 19.5963 7.27242 19.6019C7.19586 19.6214 7.1306 19.6708 7.08847 19.7412C7.04839 19.8095 7.03657 19.8891 7.05507 19.9652C7.09001 20.0988 7.20767 20.1918 7.34435 20.1918C7.36901 20.1918 7.3942 20.1882 7.41784 20.1815C7.49697 20.162 7.56223 20.1131 7.60282 20.0458C7.64444 19.977 7.65521 19.8963 7.63569 19.8193C7.6028 19.6887 7.48 19.5926 7.34435 19.5926ZM7.34435 20.9944C6.83977 20.9944 6.40096 20.6527 6.27713 20.1635C6.20417 19.8794 6.24682 19.5829 6.39994 19.3285C6.54998 19.0762 6.78993 18.8964 7.07459 18.8245C7.65265 18.6775 8.26566 19.0429 8.41416 19.6194C8.48763 19.9051 8.44447 20.2021 8.29443 20.4554C8.14285 20.7092 7.9029 20.8875 7.61567 20.9599C7.52883 20.9831 7.43581 20.9944 7.34435 20.9944Z" stroke="#FB3189" stroke-width="0.2" stroke-miterlimit="10"/>
<path d="M10.7865 21.6419C10.7618 21.6419 10.7361 21.645 10.7099 21.6517C10.5532 21.6923 10.454 21.8582 10.4931 22.0144C10.5337 22.1701 10.7007 22.2693 10.8574 22.2323C10.9355 22.2122 11.0008 22.1645 11.0408 22.0951C11.0819 22.0257 11.0933 21.9456 11.0737 21.869C11.0398 21.7334 10.9237 21.6419 10.7865 21.6419ZM10.7854 23.0452C10.2809 23.0452 9.84104 22.7024 9.71567 22.2128C9.56563 21.627 9.92222 21.0258 10.5116 20.8737C11.105 20.7211 11.7052 21.0921 11.8532 21.6712C11.9246 21.9553 11.8825 22.2513 11.7324 22.5046C11.5814 22.7579 11.3409 22.9373 11.0557 23.0107C10.9668 23.0328 10.8754 23.0452 10.7854 23.0452Z" stroke="#FB3189" stroke-width="0.2" stroke-miterlimit="10"/>
<path d="M16.106 12.7055C16.0798 12.7055 16.0536 12.7085 16.0284 12.7147C15.9503 12.7342 15.8876 12.7805 15.8476 12.8488C15.807 12.9177 15.7936 12.9988 15.8137 13.0775C15.8527 13.2301 16.0171 13.3318 16.18 13.2902C16.3408 13.2491 16.4333 13.0893 16.3927 12.9269C16.3588 12.7964 16.2417 12.7055 16.106 12.7055ZM16.1029 14.1021C15.5973 14.1021 15.157 13.7603 15.0347 13.2712C14.9643 12.9829 15.0085 12.6885 15.157 12.4378C15.3086 12.1824 15.5501 12.0051 15.8357 11.9357C15.9216 11.9131 16.013 11.9018 16.106 11.9018C16.608 11.9018 17.0463 12.242 17.1702 12.7286C17.3202 13.3184 16.9641 13.9186 16.3783 14.0676C16.2884 14.0912 16.1959 14.1021 16.1029 14.1021Z" stroke="#FB3189" stroke-width="0.2" stroke-miterlimit="10"/>
<path d="M13.2424 17.5136C13.2188 17.5136 13.1936 17.5167 13.1704 17.5223C13.0076 17.564 12.9094 17.7274 12.9485 17.8892C12.988 18.0408 13.1535 18.1441 13.3148 18.1014C13.4731 18.0624 13.5707 17.8969 13.5317 17.7356C13.4993 17.6092 13.376 17.5136 13.2424 17.5136ZM13.2408 18.9143C12.7342 18.9143 12.2949 18.5741 12.1695 18.084C12.0246 17.4905 12.3848 16.8924 12.9716 16.7444C13.0595 16.7223 13.1509 16.7095 13.2424 16.7095C13.7454 16.7095 14.1853 17.0522 14.3106 17.5403C14.454 18.1333 14.0969 18.7314 13.5132 18.8814C13.4233 18.903 13.3318 18.9143 13.2408 18.9143Z" stroke="#FB3189" stroke-width="0.2" stroke-miterlimit="10"/>
<path d="M16.7768 13.1484C16.6134 13.1484 16.4608 13.0487 16.4007 12.8869C16.3226 12.6788 16.4295 12.4486 16.6371 12.3715L21.3299 10.6296C21.5359 10.552 21.7682 10.6584 21.8452 10.8665C21.9218 11.0741 21.8165 11.3058 21.6089 11.3824L16.9161 13.1237C16.8704 13.1412 16.8236 13.1484 16.7768 13.1484ZM13.6014 17.611C13.5305 17.611 13.4601 17.5935 13.3959 17.555C13.2057 17.442 13.1431 17.1948 13.2566 17.0052L15.4131 13.375C15.5267 13.1839 15.7733 13.1222 15.964 13.2347C16.1546 13.3473 16.2173 13.5954 16.1032 13.7845L13.9456 17.4152C13.8711 17.5416 13.7381 17.611 13.6014 17.611ZM11.152 21.7237C11.0821 21.7237 11.0117 21.7057 10.9475 21.6677C10.7574 21.5541 10.6947 21.3085 10.8062 21.1189L12.5285 18.2199C12.6426 18.0298 12.8887 17.9661 13.0793 18.0791C13.2694 18.1922 13.3321 18.4388 13.2201 18.6299L11.4978 21.5279C11.4228 21.6538 11.2892 21.7237 11.152 21.7237ZM10.1659 21.9734C10.0971 21.9734 10.0267 21.9544 9.96142 21.9169L7.70419 20.5717C7.51356 20.4581 7.45086 20.2125 7.56442 20.0224C7.67849 19.8318 7.92462 19.7691 8.11525 19.8832L10.3725 21.2268C10.5626 21.3404 10.6253 21.586 10.5117 21.7771C10.4377 21.9025 10.3031 21.9734 10.1659 21.9734Z" stroke="#FB3189" stroke-width="0.2" stroke-miterlimit="10"/>
<path d="M22.1414 10.4706C22.1152 10.4706 22.089 10.4742 22.0649 10.4803C21.9862 10.4999 21.922 10.5471 21.8819 10.615C21.8413 10.6833 21.83 10.7624 21.848 10.8379C21.8886 10.9962 22.0515 11.0969 22.2108 11.0563C22.3752 11.0152 22.4692 10.8544 22.4286 10.692C22.3958 10.562 22.2776 10.4706 22.1414 10.4706ZM22.1373 11.8682C21.6327 11.8682 21.1944 11.5265 21.0706 11.0368C20.9971 10.7527 21.0403 10.4562 21.1929 10.2023C21.3445 9.94954 21.586 9.77125 21.8716 9.70085C21.958 9.67979 22.0499 9.66796 22.1414 9.66796C22.6439 9.66796 23.0822 10.0071 23.2071 10.4937C23.3561 11.083 22.9985 11.6847 22.4101 11.8337C22.3218 11.8564 22.2287 11.8682 22.1373 11.8682Z" stroke="#FB3189" stroke-width="0.2" stroke-miterlimit="10"/>
<path d="M21.1956 24.6712C21.8676 24.22 22.4899 23.7072 23.0679 23.1358L24.9398 25.4188L23.0731 26.9541L21.1956 24.6712Z" stroke="#FB3189" stroke-width="0.506593" stroke-miterlimit="10" stroke-linecap="round" stroke-linejoin="round"/>
<path d="M31.2692 39.8267L22.6765 28.408C22.3651 28.0323 22.4155 27.5149 22.7962 27.203L25.2415 25.1914C25.6223 24.8795 26.1392 24.9299 26.4511 25.307L35.9774 36.0378C36.5241 36.6097 36.7852 37.5032 36.7107 38.276C36.5488 39.9074 35.0433 41.1468 33.4129 40.9859C32.5487 40.9063 31.8154 40.4844 31.2692 39.8267Z" stroke="#FB3189" stroke-width="0.506593" stroke-miterlimit="10" stroke-linecap="round" stroke-linejoin="round"/>
<path d="M36.7107 38.276C36.5488 39.9074 35.0433 41.1468 33.4129 40.9859C32.5487 40.9063 31.8154 40.4844 31.2692 39.8267L22.6765 28.408C22.3651 28.0323 22.4155 27.5149 22.7962 27.203L25.2415 25.1914C25.6223 24.8795 26.1392 24.9299 26.4511 25.307L35.9774 36.0378C36.5241 36.6097 36.7852 37.5032 36.7107 38.276Z" stroke="#FB3189" stroke-miterlimit="2.61313" stroke-linecap="round" stroke-linejoin="round"/>
<path d="M21.1956 24.6712L23.0731 26.9541L24.9398 25.4188L23.0679 23.1358C22.4899 23.7072 21.8676 24.22 21.1956 24.6712Z" stroke="#FB3189" stroke-miterlimit="2.61313" stroke-linecap="round" stroke-linejoin="round"/>
</svg>
