<svg width="44" height="40" viewBox="0 0 44 40" fill="none" xmlns="http://www.w3.org/2000/svg">
<path d="M14.6929 33.8328H28.5414L28.0798 32.5539H15.1545L14.6929 33.8328ZM29.0571 34.5435C29.0544 34.5435 29.0506 34.5435 29.0467 34.5435H14.1882C14.0724 34.5435 13.9637 34.4872 13.897 34.3927C13.8309 34.2976 13.8145 34.1764 13.8539 34.0677L14.5711 32.0781C14.6219 31.9372 14.7552 31.8432 14.9049 31.8432H28.3295C28.4797 31.8432 28.613 31.9372 28.6638 32.0781L29.3532 33.9912C29.3909 34.048 29.4127 34.1157 29.4127 34.1884C29.4127 34.3845 29.2538 34.5435 29.0571 34.5435Z" fill="#FB3189"/>
<path d="M31.2652 39.2893H32.5746L28.7311 28.5775H27.3971L31.2652 39.2893ZM33.0794 40H31.0161C30.867 40 30.7331 39.9061 30.6823 39.7651L26.5575 28.3431C26.5181 28.2339 26.5345 28.1132 26.6006 28.0187C26.6673 27.9236 26.776 27.8673 26.8912 27.8673H28.9807C29.1304 27.8673 29.2642 27.9613 29.3145 28.1022L33.4132 39.5242C33.4525 39.6335 33.4361 39.7542 33.3694 39.8487C33.3033 39.9432 33.1952 40 33.0794 40Z" fill="#FB3189"/>
<path d="M10.6659 39.2893H11.9704L15.8391 28.5775H14.5045L10.6659 39.2893ZM12.2195 40H10.1617C10.0459 40 9.93717 39.9432 9.87107 39.8487C9.80442 39.7542 9.78803 39.6335 9.82682 39.5242L13.9195 28.1022C13.9703 27.9613 14.1041 27.8673 14.2543 27.8673H16.3449C16.4607 27.8673 16.5689 27.9236 16.6355 28.0187C16.7016 28.1132 16.718 28.2339 16.6787 28.3431L12.5532 39.7651C12.503 39.9061 12.3691 40 12.2195 40Z" fill="#FB3189"/>
<path d="M2.07275 4.69313V25.2312C2.07275 26.7335 3.20242 27.867 4.70084 27.867H38.5341C40.0336 27.867 41.1638 26.7335 41.1638 25.2312V4.69313H2.07275ZM38.5341 28.5771H4.70084C2.82932 28.5771 1.36206 27.1077 1.36206 25.2312V4.33751C1.36206 4.1414 1.52101 3.98243 1.71767 3.98243H41.5194C41.7156 3.98243 41.8745 4.1414 41.8745 4.33751V25.2312C41.8745 27.1077 40.4072 28.5771 38.5341 28.5771Z" fill="#FB3189"/>
<path d="M0.710684 3.98291H42.526V2.70245H0.710684V3.98291ZM42.8811 4.6936H0.355076C0.158965 4.6936 0 4.53464 0 4.33798V2.34738C0 2.15072 0.158965 1.99175 0.355076 1.99175H42.8811C43.0772 1.99175 43.2362 2.15072 43.2362 2.34738V4.33798C43.2362 4.53464 43.0772 4.6936 42.8811 4.6936Z" fill="#FB3189"/>
<path d="M20.9802 1.99121H22.2547V1.34879C22.2547 0.948923 22.017 0.710739 21.6183 0.710739C21.2189 0.710739 20.9802 0.948923 20.9802 1.34879V1.99121ZM22.6103 2.7019H20.6252C20.4285 2.7019 20.2695 2.54294 20.2695 2.34683V1.34879C20.2695 0.554516 20.8245 4.1242e-05 21.6183 4.1242e-05C22.4109 4.1242e-05 22.9654 0.554516 22.9654 1.34879V2.34683C22.9654 2.54294 22.8064 2.7019 22.6103 2.7019Z" fill="#FB3189"/>
<path d="M41.3859 25.2883C41.3848 25.2883 41.3843 25.2883 41.3832 25.2883L40.6714 25.2829C40.0809 25.2752 39.6018 24.7923 39.6018 24.2045L39.6111 23.0442C38.8507 22.8623 38.1263 22.575 37.4517 22.1855L36.6656 22.9623C36.464 23.1639 36.216 23.2797 35.9046 23.2731C35.6168 23.2715 35.348 23.1579 35.1486 22.9536L33.7529 21.542C33.5513 21.3393 33.4404 21.0684 33.4426 20.7805C33.4448 20.4932 33.5578 20.2239 33.7611 20.0217L34.4963 19.2936C34.0757 18.596 33.7649 17.8519 33.5693 17.0746L32.5587 17.0697C31.9688 17.0697 31.488 16.5862 31.488 15.9924L31.5044 13.998C31.5044 13.413 31.989 12.9344 32.5833 12.9344L33.5972 12.9393C33.808 12.1571 34.1282 11.4169 34.551 10.734L33.8201 9.99822C33.6185 9.79337 33.5103 9.52242 33.5136 9.23509C33.5163 8.94775 33.6305 8.67953 33.8354 8.48014L35.2447 7.08169C35.4496 6.88121 35.7178 6.77142 36.0024 6.77142C36.0035 6.77142 36.0051 6.77142 36.0062 6.77142C36.2947 6.77251 36.564 6.88503 36.7639 7.08934L37.5402 7.87979C38.2246 7.4963 38.9523 7.21663 39.7094 7.044L39.7182 5.89028C39.7182 5.30194 40.2021 4.82067 40.7965 4.82067L41.5159 4.82614C41.712 4.82778 41.8694 4.98784 41.8683 5.18395C41.8672 5.38006 41.6973 5.55159 41.5105 5.53684L40.7938 5.53137C40.5938 5.53137 40.4288 5.69362 40.4288 5.89301L40.4179 7.33625C40.4163 7.50559 40.2956 7.65091 40.1289 7.68204C39.2598 7.84702 38.4306 8.16604 37.6631 8.62928C37.5216 8.71341 37.3413 8.69046 37.2261 8.57356L36.257 7.58699C36.1909 7.51926 36.1008 7.48211 36.0035 7.48157C36.0035 7.48157 36.003 7.48157 36.0024 7.48157C35.9046 7.48157 35.8134 7.51871 35.744 7.58699L34.3335 8.98653C34.2631 9.05536 34.2243 9.14551 34.2232 9.24329C34.2221 9.33998 34.2587 9.43065 34.3254 9.49894L35.2557 10.4358C35.3753 10.556 35.3928 10.7433 35.2988 10.8837C34.7924 11.6409 34.4292 12.4799 34.2194 13.3769C34.1817 13.5375 34.0386 13.6511 33.8736 13.6511C33.873 13.6511 33.8725 13.6511 33.872 13.6511L32.5817 13.6446C32.3801 13.6446 32.2151 13.8041 32.2151 14.0013L32.1982 15.9957C32.1982 16.1913 32.3637 16.359 32.5598 16.359L33.8534 16.3656C34.02 16.3666 34.1642 16.4835 34.1986 16.6463C34.3882 17.5329 34.7405 18.3758 35.2458 19.1521C35.3376 19.2936 35.3179 19.4798 35.1983 19.5984L34.2609 20.5259C34.1921 20.5948 34.1527 20.6865 34.1522 20.7854C34.1522 20.8827 34.1888 20.9739 34.2571 21.0416L35.6544 22.4559C35.7227 22.5253 35.8123 22.563 35.9085 22.5635C35.909 22.5635 35.9095 22.5635 35.9106 22.5635C36.0068 22.5635 36.0969 22.5258 36.1646 22.4581L37.1485 21.4868C37.2659 21.371 37.4478 21.3519 37.586 21.4382C38.3388 21.9075 39.1637 22.2352 40.0383 22.4117C40.2054 22.445 40.3245 22.5919 40.3234 22.7624L40.3125 24.2073C40.3125 24.4056 40.4769 24.57 40.6785 24.5722L41.3886 24.5776C41.5848 24.5793 41.7421 24.7393 41.741 24.9354C41.7393 25.131 41.5804 25.2883 41.3859 25.2883Z" fill="#FB3189"/>
<path d="M41.4531 19.3877C41.4438 19.3877 41.4351 19.3871 41.4264 19.3866C39.1484 19.2173 37.3736 17.3042 37.3851 15.0306C37.4036 12.7582 39.2025 10.8692 41.4804 10.7299C41.6705 10.7162 41.8454 10.8664 41.8563 11.0625C41.8683 11.2581 41.7197 11.4269 41.5242 11.4384C39.616 11.5553 38.111 13.1356 38.0957 15.0356C38.0859 16.936 39.5712 18.5361 41.4788 18.6781C41.6744 18.6928 41.8213 18.8633 41.8066 19.0588C41.7929 19.2451 41.6372 19.3877 41.4531 19.3877Z" fill="#FB3189"/>
<path d="M41.3859 25.9397H1.87148C1.67482 25.9397 1.51587 25.7807 1.51587 25.5846C1.51587 25.388 1.67482 25.229 1.87148 25.229H41.3859C41.582 25.229 41.741 25.388 41.741 25.5846C41.741 25.7807 41.582 25.9397 41.3859 25.9397Z" fill="#FB3189"/>
<path d="M14.7547 21.0525C14.7514 21.0596 14.7481 21.0656 14.7448 21.0727C14.6804 21.1951 14.6438 21.3174 14.6361 21.4365L14.3586 24.8267L17.2451 23.0387C17.3445 22.9775 17.433 22.8945 17.5171 22.7842L24.4226 11.4775L21.6415 9.77801L14.7547 21.0525ZM14.1751 25.6821C14.0762 25.6821 13.9779 25.6548 13.8915 25.6035C13.7195 25.5111 13.6091 25.309 13.6239 25.096L13.9282 21.3857C13.9385 21.2175 13.98 21.0454 14.0527 20.876C14.0593 20.8405 14.0734 20.8056 14.0942 20.7712L21.2209 9.10557C21.3225 8.93895 21.5415 8.88541 21.7081 8.98756L25.0961 11.0563C25.2633 11.159 25.3162 11.377 25.2136 11.5447L18.1421 23.1207C18.1328 23.1409 18.1219 23.1605 18.1082 23.1791C18.0962 23.1988 18.0814 23.2168 18.0656 23.2332C17.9208 23.4162 17.7755 23.5462 17.6176 23.6434L14.458 25.6002C14.3794 25.6521 14.2788 25.6821 14.1751 25.6821Z" fill="#FB3189"/>
<path d="M22.6249 8.18623L25.389 9.87365L25.849 9.12143C26.0385 8.80624 25.9391 8.39327 25.6261 8.20426L24.0037 7.21605C23.695 7.02486 23.2706 7.13575 23.0837 7.43729L22.6249 8.18623ZM25.5054 10.7166C25.4425 10.7166 25.3786 10.6996 25.3207 10.6641L21.9519 8.6074C21.871 8.55823 21.8137 8.47902 21.7918 8.38725C21.77 8.29548 21.7847 8.19934 21.8339 8.11904L22.4785 7.06473C22.7347 6.65175 23.1755 6.40593 23.6579 6.40593C23.9108 6.40593 24.1599 6.47694 24.3757 6.61078L25.9943 7.59735C26.6411 7.98684 26.8486 8.83684 26.457 9.48963L25.8086 10.5467C25.7419 10.6565 25.625 10.7166 25.5054 10.7166Z" fill="#FB3189"/>
<path d="M22.013 9.17335L24.7935 10.8717L25.029 10.4849L22.249 8.78823L22.013 9.17335ZM24.9104 11.7146C24.847 11.7146 24.7831 11.6977 24.7258 11.6621L21.3384 9.59343C21.2581 9.54481 21.2007 9.46505 21.1783 9.37328C21.1559 9.28151 21.1723 9.18428 21.2215 9.10452L21.8256 8.11522C21.8748 8.03437 21.9535 7.97592 22.0452 7.95352C22.1365 7.93331 22.2337 7.94697 22.3151 7.99614L25.702 10.0638C25.8686 10.1654 25.9216 10.3839 25.8205 10.5505L25.213 11.5453C25.1464 11.6545 25.0295 11.7146 24.9104 11.7146Z" fill="#FB3189"/>
<path d="M15.9698 24.6008C15.907 24.6008 15.8436 24.5839 15.7857 24.5484L13.9535 23.4324C13.7858 23.3308 13.7328 23.1122 13.8349 22.9451C13.9371 22.7779 14.1556 22.7244 14.3228 22.8265L16.155 23.9426C16.3227 24.0442 16.3757 24.2627 16.2735 24.4304C16.2069 24.5402 16.09 24.6008 15.9698 24.6008Z" fill="#FB3189"/>
<path d="M17.7004 23.4358C17.6376 23.4358 17.5737 23.4189 17.5158 23.3839L14.207 21.3589C14.0393 21.2567 13.9863 21.0382 14.089 20.8711C14.1912 20.7028 14.4108 20.6509 14.5774 20.7531L17.8861 22.7775C18.0538 22.8802 18.1063 23.0987 18.0041 23.2659C17.9369 23.3757 17.82 23.4358 17.7004 23.4358Z" fill="#FB3189"/>
<path d="M15.1965 21.9075C15.1337 21.9075 15.0698 21.8905 15.0119 21.8556C14.8447 21.7529 14.7918 21.5349 14.8944 21.3672L22.0692 9.62405C22.1713 9.45744 22.3904 9.40389 22.5575 9.50605C22.7252 9.60874 22.7777 9.82672 22.6755 9.99442L15.5003 21.7376C15.4336 21.8468 15.3167 21.9075 15.1965 21.9075Z" fill="#FB3189"/>
<path d="M18.0717 23.0437C17.8772 23.0437 17.7188 22.8869 17.7166 22.6919C17.715 22.4963 17.8723 22.3357 18.0684 22.3336L35.2218 22.1746C35.2218 22.1746 35.2235 22.1746 35.2245 22.1746C35.4196 22.1746 35.578 22.3314 35.5802 22.5264C35.5818 22.7225 35.4245 22.8831 35.2278 22.8847L18.0749 23.0437C18.0739 23.0437 18.0728 23.0437 18.0717 23.0437ZM14.138 23.0437H1.87148C1.67482 23.0437 1.51587 22.8847 1.51587 22.6886C1.51587 22.4925 1.67482 22.3336 1.87148 22.3336H14.138C14.3341 22.3336 14.4931 22.4925 14.4931 22.6886C14.4931 22.8847 14.3341 23.0437 14.138 23.0437Z" fill="#FB3189"/>
<path d="M15.098 20.1533H1.71767C1.52101 20.1533 1.36206 19.9944 1.36206 19.7982C1.36206 19.6021 1.52101 19.4432 1.71767 19.4432H15.098C15.2941 19.4432 15.4531 19.6021 15.4531 19.7982C15.4531 19.9944 15.2941 20.1533 15.098 20.1533ZM34.3764 20.1533H19.8413C19.6452 20.1533 19.4862 19.9944 19.4862 19.7982C19.4862 19.6021 19.6452 19.4432 19.8413 19.4432H34.3764C34.5725 19.4432 34.7315 19.6021 34.7315 19.7982C34.7315 19.9944 34.5725 20.1533 34.3764 20.1533Z" fill="#FB3189"/>
<path d="M16.8409 17.2583H1.87148C1.67482 17.2583 1.51587 17.0993 1.51587 16.9027C1.51587 16.7066 1.67482 16.5476 1.87148 16.5476H16.8409C17.037 16.5476 17.196 16.7066 17.196 16.9027C17.196 17.0993 17.037 17.2583 16.8409 17.2583ZM33.8627 17.2583H21.6503C21.4536 17.2583 21.2947 17.0993 21.2947 16.9027C21.2947 16.7066 21.4536 16.5476 21.6503 16.5476H33.8627C34.0594 16.5476 34.2183 16.7066 34.2183 16.9027C34.2183 17.0993 34.0594 17.2583 33.8627 17.2583Z" fill="#FB3189"/>
<path d="M18.5677 14.3679H1.87148C1.67482 14.3679 1.51587 14.209 1.51587 14.0123C1.51587 13.8162 1.67482 13.6572 1.87148 13.6572H18.5677C18.7643 13.6572 18.9233 13.8162 18.9233 14.0123C18.9233 14.209 18.7643 14.3679 18.5677 14.3679ZM31.6946 14.3679H23.2836C23.0875 14.3679 22.9286 14.209 22.9286 14.0123C22.9286 13.8162 23.0875 13.6572 23.2836 13.6572H31.6946C31.8912 13.6572 32.0502 13.8162 32.0502 14.0123C32.0502 14.209 31.8912 14.3679 31.6946 14.3679Z" fill="#FB3189"/>
<path d="M20.3491 11.4722H1.87148C1.67482 11.4722 1.51587 11.3132 1.51587 11.1165C1.51587 10.9204 1.67482 10.7615 1.87148 10.7615H20.3491C20.5452 10.7615 20.7041 10.9204 20.7041 11.1165C20.7041 11.3132 20.5452 11.4722 20.3491 11.4722ZM34.6187 11.4722H25.0426C24.846 11.4722 24.687 11.3132 24.687 11.1165C24.687 10.9204 24.846 10.7615 25.0426 10.7615H34.6187C34.8149 10.7615 34.9738 10.9204 34.9738 11.1165C34.9738 11.3132 34.8149 11.4722 34.6187 11.4722Z" fill="#FB3189"/>
<path d="M34.6187 8.52661H26.1188C25.9227 8.52661 25.7637 8.36765 25.7637 8.17154C25.7637 7.97488 25.9227 7.81591 26.1188 7.81591H34.6187C34.8149 7.81591 34.9738 7.97488 34.9738 8.17154C34.9738 8.36765 34.8149 8.52661 34.6187 8.52661ZM1.87148 8.52661C1.67537 8.52661 1.51642 8.36765 1.51587 8.17154C1.51587 7.97542 1.67482 7.81646 1.87148 7.81591L22.1572 7.80499C22.3533 7.80499 22.5123 7.96396 22.5129 8.16007C22.5129 8.35618 22.3539 8.51514 22.1572 8.51569L1.87148 8.52661Z" fill="#FB3189"/>
</svg>
