<svg width="35" height="36" viewBox="0 0 35 36" fill="none" xmlns="http://www.w3.org/2000/svg">
<path d="M17.2544 0.0611343C17.3488 0.0486031 17.4433 0.0360641 17.5383 0.0256233C18.3571 -0.0647202 19.1885 0.0726318 19.8372 0.617813C20.5777 1.23976 20.7484 2.01052 20.8261 2.92124C22.8547 3.41525 24.6708 4.14738 26.333 5.42469C26.8215 4.9688 27.2197 4.64713 27.8835 4.49883C28.5484 4.35 29.23 4.47114 29.7931 4.85862C30.7706 5.53174 30.9893 6.47379 31.1756 7.56624C30.9877 8.14746 30.7628 8.62476 30.4037 9.12085C31.3473 10.854 32.0883 12.5105 32.5612 14.4379C32.9954 14.5424 33.4859 14.6614 33.8398 14.9476C34.4551 15.4447 34.9138 16.168 34.9884 16.9643C35.0594 17.7252 34.8 18.4485 34.3006 19.0192C33.8064 19.5858 33.2788 19.8234 32.5419 19.8923C32.0163 22.0517 31.2528 23.882 30.1803 25.8188C30.5551 26.2126 30.876 26.6444 31.0289 27.1729C31.2372 27.8946 31.174 28.6507 30.8066 29.3103C30.4491 29.9531 29.8375 30.4236 29.1288 30.6137C28.1904 30.8649 27.3752 30.6356 26.5501 30.1782C24.7199 31.4231 22.9857 32.1553 20.8595 32.7506C20.8658 33.0555 20.8663 33.3563 20.7964 33.6555C20.608 34.4582 20.0845 35.2524 19.3602 35.6624C18.5706 36.1094 17.8394 36.0566 16.996 35.8258C16.7033 35.6827 16.4147 35.5021 16.1647 35.2921C15.4095 34.6571 15.243 33.8733 15.1914 32.9323C13.0751 32.1955 11.1536 31.3766 9.23357 30.2137C8.67411 30.5933 8.07551 30.9228 7.39446 31.0001C6.60798 31.0894 5.84342 30.8837 5.23021 30.3766C4.65718 29.9019 4.29083 29.198 4.23916 28.4549C4.17288 27.4993 4.56638 26.833 5.16863 26.1363C4.31483 24.2501 3.43389 22.4182 2.91305 20.4041C2.27635 20.2762 1.67149 20.13 1.14387 19.7289C0.516568 19.2516 0.103238 18.5827 0.0166051 17.7941C-0.0663741 17.0333 0.163784 16.263 0.65905 15.6782C1.26809 14.9591 2.11144 14.6311 3.02995 14.558C3.58106 12.5721 4.29709 10.7961 5.22813 8.96314C4.71251 8.37409 4.34719 7.90829 4.27099 7.09157C4.20211 6.35996 4.45 5.62992 4.92699 5.07377C5.42539 4.49308 6.16334 4.12127 6.92998 4.08837C8.02907 4.04085 8.7049 4.57507 9.46685 5.27221C11.3665 4.24869 13.1581 3.5458 15.2629 3.05597C15.3333 2.63456 15.3928 2.18703 15.5327 1.78233C15.8474 0.869514 16.4084 0.458534 17.2544 0.0611343Z" fill="#452B90"/>
<path d="M28.1051 5.4607C28.4161 5.46331 28.7011 5.48054 29.0001 5.57663C29.4192 5.71083 29.7902 6.01006 29.9917 6.40328C30.2067 6.82365 30.2218 7.29415 30.0491 7.73333C29.8116 8.33699 29.4014 8.61637 28.8326 8.87695C28.5779 8.8733 28.3159 8.87017 28.0675 8.80751C27.5858 8.68635 27.1323 8.30827 26.9084 7.86701C26.709 7.47483 26.6866 7.03671 26.8322 6.62208C27.0509 6.00066 27.5409 5.72702 28.1051 5.4607Z" fill="#EE8ACB"/>
<path d="M27.8935 26.3107C28.2197 26.2867 28.5694 26.247 28.8914 26.3233C29.3632 26.435 29.8 26.776 30.0244 27.2053C30.2159 27.5734 30.2462 28.0027 30.1141 28.3954C29.9075 29.01 29.4957 29.3118 28.9436 29.6022C28.5996 29.6403 28.263 29.6643 27.9233 29.5776C27.4943 29.4685 27.0872 29.1896 26.8633 28.8032C26.6462 28.4277 26.6201 27.9886 26.7355 27.5755C26.9134 26.9389 27.3544 26.6371 27.8935 26.3107Z" fill="#EE8ACB"/>
<path d="M17.7999 0.903467C18.0374 0.925399 18.2853 0.943142 18.5144 1.01364C19.0269 1.17134 19.4512 1.57346 19.6719 2.05911C19.8661 2.4847 19.8838 2.99541 19.7012 3.42832C19.4538 4.01162 19.0493 4.27638 18.4789 4.49936C18.1929 4.50145 17.9064 4.50353 17.6308 4.41685C17.1497 4.26541 16.7207 3.90927 16.5083 3.44921C16.3209 3.04398 16.31 2.57399 16.465 2.15623C16.7102 1.49512 17.1836 1.17971 17.7999 0.903467Z" fill="#EE8ACB"/>
<path d="M17.6944 31.3998C17.8672 31.3988 18.0451 31.3977 18.2153 31.4265C18.7325 31.5137 19.2924 31.8526 19.569 32.3032C19.8175 32.7085 19.8775 33.2051 19.7329 33.6589C19.5252 34.3132 19.043 34.6902 18.4611 34.9999C18.2455 35.0004 18.0253 35.0004 17.8145 34.9498C17.2754 34.8208 16.754 34.4459 16.4936 33.9524C16.2634 33.5169 16.2306 33.0307 16.409 32.569C16.6413 31.968 17.1392 31.662 17.6944 31.3998Z" fill="#7F53AF"/>
<path d="M31.8986 15.3353C32.1334 15.3327 32.3813 15.3244 32.612 15.3756C33.1135 15.4863 33.5874 15.844 33.8368 16.2915C34.0738 16.7171 34.1072 17.2043 33.961 17.6665C33.7611 18.2994 33.317 18.6143 32.757 18.914C32.4758 18.9281 32.0854 18.984 31.8192 18.8785C31.3662 18.6989 30.9722 18.3636 30.7556 17.9239C30.5344 17.4743 30.5156 16.9516 30.6873 16.4821C30.908 15.88 31.3464 15.6022 31.8986 15.3353Z" fill="#EE8ACB"/>
<path d="M7.00516 26.427C7.26923 26.4259 7.54687 26.4505 7.79581 26.5465C8.28638 26.7371 8.76389 27.1706 8.94603 27.6693C9.10677 28.1074 9.07754 28.5842 8.85418 28.9952C8.53531 29.5816 7.92575 29.8208 7.3162 29.98C6.90704 29.9858 6.56259 29.9367 6.20093 29.7372C5.76568 29.497 5.42176 29.1221 5.29494 28.6343C5.18274 28.2014 5.25215 27.7544 5.47812 27.369C5.81473 26.7956 6.39508 26.5878 7.00516 26.427Z" fill="#7F53AF"/>
<path d="M6.51246 5.02711C6.76035 5.01406 7.01608 4.99526 7.26345 5.01615C7.78638 5.06001 8.3667 5.42556 8.66313 5.85325C8.93034 6.23863 9.03106 6.70861 8.92616 7.16763C8.77064 7.85119 8.29103 8.2324 7.72375 8.5828C7.43671 8.611 7.12932 8.6533 6.84125 8.62145C6.35955 8.56766 5.86637 8.25277 5.58664 7.86164C5.29752 7.45798 5.2135 6.953 5.31422 6.47101C5.46348 5.75663 5.92378 5.39788 6.51246 5.02711Z" fill="#CB7CC5"/>
<path d="M2.50872 15.4361C2.72739 15.446 2.95597 15.456 3.17047 15.5009C3.64068 15.599 4.07958 15.9432 4.3353 16.3427C4.64113 16.8226 4.70689 17.4022 4.55815 17.9469C4.35879 18.6764 3.90475 19.0049 3.26806 19.3453C3.01755 19.3453 2.7514 19.3526 2.50507 19.302C2.03485 19.2059 1.55681 18.8268 1.31414 18.4205C1.03023 17.9458 0.986915 17.3604 1.15548 16.8382C1.38772 16.1213 1.86732 15.7714 2.50872 15.4361Z" fill="#7F53AF"/>
<path d="M15.4876 3.99585C15.508 4.02196 15.5283 4.04754 15.5492 4.07313L15.6536 4.19951C15.9244 4.53267 16.1775 4.82511 16.5376 5.06637C17.1535 5.47891 17.8966 5.70345 18.633 5.53426C19.552 5.32277 20.0635 4.67837 20.5326 3.92013C22.4662 4.47732 24.1477 5.07628 25.835 6.19798C25.8042 6.58441 25.7645 6.9839 25.7963 7.37137C25.8569 8.10455 26.1883 8.85652 26.7801 9.31136C27.6323 9.96621 28.6035 9.89518 29.5998 9.76359C30.4275 11.2487 31.0632 12.7511 31.5083 14.3929C30.4254 15.0363 29.8942 15.5099 29.5607 16.7595L28.6385 16.769C28.162 16.7757 27.8479 16.8353 27.5112 17.1883L27.5535 17.381C28.1918 17.8567 28.805 17.7559 29.5612 17.7408C30.0158 18.7941 30.3685 19.2724 31.4436 19.7612C31.1409 21.6902 30.2824 23.5482 29.2924 25.213C28.769 25.2683 28.2226 25.2861 27.7163 25.4386C26.9398 25.6725 26.1914 26.1315 25.8308 26.8835C25.4425 27.694 25.5777 28.5201 25.8459 29.3379C24.155 30.5113 22.3665 31.2267 20.4533 31.9416C19.9038 31.3478 19.1465 31.0533 18.6408 30.4789C18.4002 30.2053 18.4816 29.7535 18.4947 29.4115C18.5098 29.0595 18.5897 28.5953 18.4028 28.2903C18.0944 28.1201 17.6706 28.2146 17.3283 28.2459L17.3659 30.4178C17.2474 30.5332 17.2996 30.4987 17.1702 30.5697C16.4687 30.9551 15.9448 31.3625 15.4349 31.9766C13.4674 31.3097 11.6398 30.3572 9.83771 29.3373C9.95253 28.9128 10.0454 28.4862 9.99063 28.0438C9.8899 27.2256 9.44108 26.4981 8.76628 26.0308C7.91301 25.4396 7.03886 25.4281 6.0619 25.589C5.21697 23.8506 4.23166 22.0933 3.96289 20.1554C4.22279 19.9607 4.49729 19.7633 4.7217 19.5277C5.29942 18.9215 5.63813 18.0792 5.57185 17.2395C5.49148 16.2232 4.87774 15.5261 4.14972 14.888C4.37413 12.9579 5.22845 11.2305 6.15374 9.55053C6.42982 9.58708 6.70694 9.62102 6.98563 9.63199C7.70948 9.65966 8.46934 9.43825 8.99539 8.92336C9.74064 8.19436 9.89095 7.25649 9.88938 6.26953C11.6267 5.1917 13.5305 4.54521 15.4876 3.99585Z" fill="white"/>
<path d="M7.6875 17.6005C7.71098 17.3337 7.7376 17.0673 7.77309 16.8015C8.1311 14.1017 9.67118 11.6516 11.838 10.0197C13.9986 8.39196 16.7912 7.81127 19.4445 8.18934C18.8266 8.83113 17.4733 8.55228 16.6305 8.70215C15.3592 8.92879 14.4991 9.73246 13.3557 10.1805C11.3798 11.191 9.94881 13.2041 9.26149 15.2788C9.09501 15.7806 8.96141 16.3169 8.87008 16.8381C8.73231 16.9326 8.68221 16.9227 8.64202 17.0987C8.58879 17.3336 8.61332 17.5331 8.63107 17.7713L8.87113 17.8C8.88 18.5185 9.21766 19.7217 8.80485 20.2846C8.5914 20.3144 8.38474 20.3306 8.1692 20.3379C7.95262 19.4225 7.79866 18.5352 7.6875 17.6005Z" fill="#F14C27"/>
<path d="M8.87276 16.8401C8.96409 16.3189 9.09769 15.7826 9.26417 15.2808C9.95149 13.2061 11.3825 11.193 13.3583 10.1825C13.3599 10.9554 13.5311 11.4431 13.9011 12.1126C14.1965 12.4045 14.4658 12.6426 14.8191 12.8624C15.2141 12.8557 15.5716 12.8708 15.962 12.934C15.5461 15.2912 14.8608 17.8672 16.3226 20.0245C16.8883 20.859 17.8136 21.5081 18.8209 21.6574C19.1455 21.7055 19.4659 21.6835 19.7905 21.6558C20.0864 21.7201 20.3437 21.7389 20.5859 21.9305C20.3489 22.1143 20.099 22.2658 19.8432 22.4203C19.9038 22.612 19.8563 22.5326 19.9727 22.6658C21.2737 23.5368 22.2752 24.859 23.5909 25.6888C21.9897 26.9912 19.2895 28.0956 17.2072 27.8789C17.1054 27.8685 17.0042 27.8523 16.903 27.8351C15.3133 27.7437 13.7644 27.2669 12.4414 26.3698C12.0484 26.1034 11.681 25.7567 11.2677 25.5285C11.0334 25.399 10.8784 25.306 10.6774 25.1301C9.77353 23.5201 8.82057 22.0872 8.17188 20.3399C8.38741 20.3326 8.59407 20.3164 8.80752 20.2866C9.22033 19.7237 8.88268 18.5205 8.87381 17.802L8.63374 17.7733C8.616 17.5351 8.59147 17.3356 8.6447 17.1006C8.68488 16.9247 8.73498 16.9346 8.87276 16.8401Z" fill="#F37316"/>
<path d="M17.3835 22.9544C17.7833 22.9126 18.2759 22.8192 18.6465 23.0108C18.8166 23.0991 18.7905 23.1544 18.8448 23.322C18.7394 23.7153 18.4993 23.9315 18.2243 24.2202C17.908 24.3085 17.801 24.368 17.491 24.2114C17.2645 24.0975 17.0949 23.827 17.0615 23.5811C17.0182 23.2646 17.1873 23.1612 17.3835 22.9544Z" fill="#E53022"/>
<path d="M13.901 12.1109C14.1964 12.4028 14.4657 12.6409 14.819 12.8607C14.7908 13.1782 14.88 13.5208 14.6624 13.7934C14.5006 13.9955 14.1922 14.1772 13.9307 14.1934C13.6385 14.2117 13.5419 14.0968 13.3473 13.9166C13.0822 13.1871 13.6197 12.938 13.8378 12.3051C13.8598 12.2404 13.8801 12.1751 13.901 12.1109Z" fill="#E53022"/>
<path d="M14.5676 21.184C14.9178 21.2707 15.1396 21.3391 15.4193 21.5704C15.4757 21.7365 15.5362 21.7814 15.4543 21.9527C15.2278 22.4263 14.6861 22.5772 14.2326 22.7558C14.1016 22.7966 13.9675 22.8018 13.8318 22.8164C13.7535 22.7496 13.6481 22.6665 13.5881 22.5845C13.4122 22.3449 13.3986 22.2362 13.4283 21.9616C13.695 21.5699 14.1574 21.3971 14.5676 21.184Z" fill="#E53022"/>
<path d="M10.6777 25.129C10.815 24.7253 11.1881 24.0679 11.5858 23.8626C11.615 23.8475 11.6479 23.8402 11.6787 23.8292L11.841 23.9383C11.8462 23.977 11.8509 24.0161 11.8567 24.0548C11.9715 24.8219 12.2966 25.2898 12.9218 25.7462C14.1681 26.6564 15.763 26.8193 16.6428 27.423C16.8265 27.5489 16.8464 27.6282 16.9033 27.834C15.3136 27.7426 13.7647 27.2658 12.4417 26.3687C12.0487 26.1023 11.6813 25.7556 11.268 25.5274C11.0337 25.3979 10.8787 25.305 10.6777 25.129Z" fill="#F14C27"/>
<path d="M8.87367 16.8385C9.93674 16.8677 12.9151 16.5063 13.6364 17.2693C13.7908 17.4327 13.8603 17.6113 13.8425 17.8411C13.8237 18.0829 13.7475 18.3596 13.5748 18.5367C13.3718 18.745 13.221 18.7351 12.9527 18.7539C12.6171 18.6056 12.4767 18.4385 12.3478 18.1053C12.3071 18.0019 12.2748 17.8949 12.2398 17.7889C12.1944 17.7936 12.149 17.7988 12.1031 17.803C11.0468 17.8991 9.93414 17.8578 8.87472 17.8004L8.63465 17.7716C8.61691 17.5335 8.59238 17.334 8.64561 17.099C8.6858 16.9231 8.73589 16.933 8.87367 16.8385Z" fill="#E53022"/>
<path d="M19.4501 8.19001C21.0904 8.28453 22.9081 9.24122 24.073 10.3713L24.7107 11.0157C26.1662 12.4669 27.2387 14.6664 27.2502 16.7458C27.2507 16.7782 27.2502 16.8106 27.2497 16.8429L27.2575 17.5286C27.5993 19.5882 26.7847 21.7741 25.6052 23.4347C25.1058 24.1381 24.5327 24.7951 23.9571 25.4368L23.5939 25.6875C22.2782 24.8577 21.2767 23.5355 19.9757 22.6645C19.8593 22.5313 19.9068 22.6107 19.8462 22.419C20.102 22.2645 20.3519 22.113 20.5889 21.9292C20.3467 21.7375 20.0894 21.7187 19.7935 21.6545C19.4689 21.6822 19.1485 21.7041 18.8239 21.6561C17.8166 21.5067 16.8913 20.8576 16.3256 20.0232C14.8638 17.8659 15.5491 15.2899 15.965 12.9327C15.5746 12.8695 15.2171 12.8543 14.8221 12.8611C14.4688 12.6413 14.1995 12.4032 13.9041 12.1112C13.5341 11.4418 13.3629 10.954 13.3613 10.1812C14.5048 9.73313 15.3648 8.92946 16.6361 8.70283C17.479 8.55295 18.8322 8.8318 19.4501 8.19001Z" fill="#F3A815"/>
<path d="M20.1317 16.8771C20.9798 16.8311 21.83 16.7303 22.6785 16.7256L22.6728 17.2092C21.8138 17.2055 20.9266 17.2698 20.0801 17.1079L20.1317 16.8771Z" fill="#F14C27"/>
<path d="M17.412 11.0286C17.6051 11.0751 17.8822 11.1576 18.0341 11.2955C18.2428 11.4861 18.3331 11.6809 18.3211 11.967C18.3081 12.2845 18.0675 12.5112 17.8608 12.7227C17.7001 12.708 17.4506 12.6877 17.3055 12.6057C17.1615 12.5237 17.0242 12.4245 16.9793 12.2595C16.8536 11.7968 17.1761 11.3952 17.412 11.0286Z" fill="#E53022"/>
<path d="M21.0089 13.5365C20.7578 13.5511 20.8486 13.5354 20.6185 13.5856C20.5668 13.5971 20.5162 13.6096 20.4651 13.6211L20.1968 13.4336C20.13 13.266 20.0601 13.1741 20.0919 12.9882C20.1509 12.6373 20.4254 12.2315 20.7531 12.0733C21.0292 11.9401 21.1472 11.9939 21.406 12.0947C21.6007 12.4508 21.5459 12.6352 21.5266 13.0347C21.3695 13.2331 21.2421 13.4227 21.0089 13.5365Z" fill="#F14C27"/>
<path d="M19.7891 21.6541C20.814 21.4865 20.6069 22.0181 21.1835 21.957C21.2869 21.7486 21.2749 21.8322 21.277 21.615C21.2801 21.2975 21.2305 21.0635 21.4064 20.7805C21.8735 20.6416 22.3562 20.8463 22.7878 21.0458C22.3072 21.5492 21.8354 22.1325 21.1841 22.416C20.9638 22.2943 20.9122 22.2447 20.6523 22.3064C20.4096 22.3643 20.1805 22.5325 19.9712 22.6641C19.8548 22.5309 19.9023 22.6103 19.8418 22.4186C20.0975 22.2641 20.3475 22.1126 20.5844 21.9288C20.3423 21.7371 20.085 21.7183 19.7891 21.6541Z" fill="#E53022"/>
<path d="M19.1188 15.7604L19.897 16.1975L20.1302 16.8759L20.0786 17.1067C20.0567 17.1349 20.0358 17.1646 20.0123 17.1918C19.8046 17.4273 19.5259 17.621 19.1976 17.5881C18.9529 17.5636 18.7227 17.3594 18.6011 17.1573C18.455 16.9145 18.4331 16.5991 18.5035 16.3281C18.5823 16.0236 18.8662 15.8972 19.1188 15.7604Z" fill="#842394"/>
<path d="M22.7873 21.0458C23.1934 22.0379 23.0968 23.4077 23.329 24.498C22.5593 23.8636 21.8386 23.168 21.1836 22.416C21.8349 22.1325 22.3067 21.5492 22.7873 21.0458Z" fill="#F37316"/>
<path d="M19.9688 22.6645C20.178 22.5329 20.4071 22.3647 20.6498 22.3068C20.9097 22.2451 20.9614 22.2947 21.1816 22.4164C21.8366 23.1684 22.5573 23.864 23.3271 24.4984C23.5348 24.8102 23.7529 25.1188 23.9502 25.4368L23.587 25.6875C22.2713 24.8577 21.2698 23.5355 19.9688 22.6645Z" fill="#E53022"/>
<path d="M24.0711 10.371L24.7089 11.0154C23.5764 12.3016 20.6507 14.9393 19.8992 16.1973L19.1211 15.7602C19.8324 15.1111 20.3658 14.2599 21.0082 13.5372C21.2415 13.4233 21.3688 13.2338 21.5259 13.0353C22.3677 12.1319 23.3108 11.3538 24.0711 10.371Z" fill="#F14C27"/>
<path d="M24.7061 11.0163C26.1617 12.4675 27.2341 14.667 27.2456 16.7464C27.2461 16.7788 27.2456 16.8112 27.2451 16.8436L27.2529 17.5292C26.3986 17.6629 23.5648 18.0603 22.8905 17.678C22.7329 17.5887 22.722 17.371 22.6708 17.2086L22.6765 16.725C21.828 16.7297 20.9778 16.8305 20.1298 16.8765L19.8965 16.1981C20.648 14.9401 23.5737 12.3025 24.7061 11.0163Z" fill="#F3A815"/>
<path d="M22.6776 16.725C22.7679 16.3856 22.831 16.1412 23.1494 15.9386C23.3712 15.7976 23.5434 15.7981 23.7897 15.8409C24.0142 16.125 23.9844 16.4138 23.9698 16.7668C24.845 17.1276 26.2755 16.7804 27.2462 16.8436L27.254 17.5292C26.3997 17.6629 23.5659 18.0603 22.8916 17.678C22.734 17.5887 22.723 17.371 22.6719 17.2086L22.6776 16.725Z" fill="#F14C27"/>
</svg>
