<svg width="38" height="42" viewBox="0 0 38 42" fill="none" xmlns="http://www.w3.org/2000/svg">
<path d="M14.9517 3.63322C20.6228 4.19021 24.8043 9.28481 24.252 14.9523C23.6991 20.6183 18.6055 24.805 12.9385 24.248C7.2674 23.6951 3.08587 18.6005 3.63721 12.9397C4.19471 7.26753 9.28416 3.0865 14.9517 3.63322Z" stroke="#FF0A54" stroke-width="0.506593" stroke-miterlimit="10" stroke-linecap="round" stroke-linejoin="round"/>
<path d="M12.6886 26.8262C5.55562 26.1289 0.365946 19.8104 1.0627 12.6821C1.76047 5.55475 8.07491 0.364565 15.2022 1.06234C22.3295 1.76012 27.5248 8.07454 26.8265 15.1962C26.1339 22.3286 19.8154 27.5188 12.6886 26.8262ZM3.63751 12.9384C3.08617 18.5993 7.2677 23.6939 12.9388 24.2468C18.6058 24.8038 23.6994 20.6171 24.2523 14.9511C24.8046 9.28358 20.6231 4.18897 14.952 3.63198C9.28446 3.08527 4.19501 7.26629 3.63751 12.9384Z" stroke="#FF0A54" stroke-width="0.506593" stroke-miterlimit="10" stroke-linecap="round" stroke-linejoin="round"/>
<path d="M12.9385 24.248C7.2674 23.6951 3.08587 18.6005 3.63721 12.9397C4.19471 7.26753 9.28416 3.0865 14.9517 3.63322C20.6228 4.19021 24.8043 9.28481 24.252 14.9523C23.6991 20.6183 18.6055 24.805 12.9385 24.248Z" stroke="#FF0A54" stroke-miterlimit="10" stroke-linecap="round" stroke-linejoin="round"/>
<path d="M15.2022 1.06234C8.07491 0.364565 1.76047 5.55475 1.0627 12.6821C0.365946 19.8104 5.55562 26.1289 12.6886 26.8262C19.8154 27.5188 26.1339 22.3286 26.8265 15.1962C27.5248 8.07454 22.3295 1.76012 15.2022 1.06234Z" stroke="#FF0A54" stroke-miterlimit="10" stroke-linecap="round" stroke-linejoin="round"/>
<path d="M7.34459 19.5926C7.32096 19.5926 7.2963 19.5963 7.27266 19.6019C7.1961 19.6214 7.13084 19.6708 7.08871 19.7412C7.04863 19.8095 7.03682 19.8891 7.05532 19.9652C7.09026 20.0988 7.20792 20.1918 7.34459 20.1918C7.36926 20.1918 7.39445 20.1882 7.41808 20.1815C7.49721 20.162 7.56247 20.1131 7.60306 20.0458C7.64468 19.977 7.65546 19.8963 7.63593 19.8193C7.60305 19.6887 7.48025 19.5926 7.34459 19.5926ZM7.34459 20.9944C6.84002 20.9944 6.40121 20.6527 6.27737 20.1635C6.20441 19.8794 6.24706 19.5829 6.40019 19.3285C6.55022 19.0762 6.79017 18.8964 7.07484 18.8245C7.65289 18.6775 8.2659 19.0429 8.4144 19.6194C8.48788 19.9051 8.44471 20.2021 8.29467 20.4554C8.1431 20.7092 7.90314 20.8875 7.61591 20.9599C7.52907 20.9831 7.43606 20.9944 7.34459 20.9944Z" stroke="#FF0A54" stroke-width="0.2" stroke-miterlimit="10"/>
<path d="M10.7862 21.642C10.7616 21.642 10.7359 21.6451 10.7097 21.6518C10.553 21.6924 10.4538 21.8583 10.4928 22.0145C10.5334 22.1702 10.7004 22.2694 10.8572 22.2324C10.9353 22.2124 11.0005 22.1646 11.0406 22.0952C11.0817 22.0258 11.093 21.9457 11.0735 21.8691C11.0396 21.7335 10.9234 21.642 10.7862 21.642ZM10.7852 23.0453C10.2806 23.0453 9.8408 22.7026 9.71543 22.2129C9.56539 21.6271 9.92197 21.0259 10.5113 20.8738C11.1048 20.7212 11.705 21.0922 11.853 21.6713C11.9244 21.9554 11.8822 22.2514 11.7322 22.5047C11.5811 22.7581 11.3407 22.9374 11.0555 23.0109C10.9666 23.033 10.8751 23.0453 10.7852 23.0453Z" stroke="#FF0A54" stroke-width="0.2" stroke-miterlimit="10"/>
<path d="M16.106 12.7055C16.0798 12.7055 16.0536 12.7085 16.0284 12.7147C15.9503 12.7342 15.8876 12.7805 15.8476 12.8488C15.807 12.9177 15.7936 12.9988 15.8137 13.0775C15.8527 13.2301 16.0171 13.3318 16.18 13.2902C16.3408 13.2491 16.4333 13.0893 16.3927 12.9269C16.3588 12.7964 16.2417 12.7055 16.106 12.7055ZM16.1029 14.1021C15.5973 14.1021 15.157 13.7603 15.0347 13.2712C14.9643 12.9829 15.0085 12.6885 15.157 12.4378C15.3086 12.1824 15.5501 12.0051 15.8357 11.9357C15.9216 11.9131 16.013 11.9018 16.106 11.9018C16.608 11.9018 17.0463 12.242 17.1702 12.7286C17.3202 13.3184 16.9641 13.9186 16.3783 14.0676C16.2884 14.0912 16.1959 14.1021 16.1029 14.1021Z" stroke="#FF0A54" stroke-width="0.2" stroke-miterlimit="10"/>
<path d="M13.2426 17.5135C13.219 17.5135 13.1938 17.5166 13.1707 17.5222C13.0078 17.5638 12.9097 17.7272 12.9487 17.8891C12.9883 18.0407 13.1537 18.1439 13.3151 18.1013C13.4733 18.0622 13.571 17.8968 13.5319 17.7354C13.4995 17.609 13.3762 17.5135 13.2426 17.5135ZM13.2411 18.9142C12.7344 18.9142 12.2951 18.574 12.1697 18.0838C12.0248 17.4904 12.3851 16.8923 12.9718 16.7443C13.0597 16.7222 13.1512 16.7093 13.2426 16.7093C13.7457 16.7093 14.1855 17.0521 14.3109 17.5402C14.4542 18.1332 14.0971 18.7313 13.5134 18.8813C13.4235 18.9029 13.332 18.9142 13.2411 18.9142Z" stroke="#FF0A54" stroke-width="0.2" stroke-miterlimit="10"/>
<path d="M16.7768 13.1484C16.6134 13.1484 16.4608 13.0487 16.4007 12.8869C16.3226 12.6788 16.4295 12.4486 16.6371 12.3715L21.3299 10.6296C21.5359 10.552 21.7682 10.6584 21.8452 10.8665C21.9218 11.0741 21.8165 11.3058 21.6089 11.3824L16.9161 13.1237C16.8704 13.1412 16.8236 13.1484 16.7768 13.1484ZM13.6014 17.611C13.5305 17.611 13.4601 17.5935 13.3959 17.555C13.2057 17.442 13.1431 17.1948 13.2566 17.0052L15.4131 13.375C15.5267 13.1839 15.7733 13.1222 15.964 13.2347C16.1546 13.3473 16.2173 13.5954 16.1032 13.7845L13.9456 17.4152C13.8711 17.5416 13.7381 17.611 13.6014 17.611ZM11.152 21.7237C11.0821 21.7237 11.0117 21.7057 10.9475 21.6677C10.7574 21.5541 10.6947 21.3085 10.8062 21.1189L12.5285 18.2199C12.6426 18.0298 12.8887 17.9661 13.0793 18.0791C13.2694 18.1922 13.3321 18.4388 13.2201 18.6299L11.4978 21.5279C11.4228 21.6538 11.2892 21.7237 11.152 21.7237ZM10.1659 21.9734C10.0971 21.9734 10.0267 21.9544 9.96142 21.9169L7.70419 20.5717C7.51356 20.4581 7.45086 20.2125 7.56442 20.0224C7.67849 19.8318 7.92462 19.7691 8.11525 19.8832L10.3725 21.2268C10.5626 21.3404 10.6253 21.586 10.5117 21.7771C10.4377 21.9025 10.3031 21.9734 10.1659 21.9734Z" stroke="#FF0A54" stroke-width="0.2" stroke-miterlimit="10"/>
<path d="M22.1414 10.4704C22.1152 10.4704 22.089 10.474 22.0649 10.4802C21.9862 10.4997 21.922 10.547 21.8819 10.6148C21.8413 10.6832 21.83 10.7623 21.848 10.8378C21.8886 10.9961 22.0515 11.0968 22.2108 11.0562C22.3752 11.0151 22.4692 10.8543 22.4286 10.6919C22.3958 10.5619 22.2776 10.4704 22.1414 10.4704ZM22.1373 11.868C21.6327 11.868 21.1944 11.5264 21.0706 11.0367C20.9971 10.7525 21.0403 10.456 21.1929 10.2022C21.3445 9.94941 21.586 9.77113 21.8716 9.70073C21.958 9.67967 22.0499 9.66784 22.1414 9.66784C22.6439 9.66784 23.0822 10.007 23.2071 10.4936C23.3561 11.0829 22.9985 11.6846 22.4101 11.8336C22.3218 11.8562 22.2287 11.868 22.1373 11.868Z" stroke="#FF0A54" stroke-width="0.2" stroke-miterlimit="10"/>
<path d="M21.1953 24.6712C21.8674 24.22 22.4896 23.7072 23.0677 23.1358L24.9396 25.4188L23.0728 26.9541L21.1953 24.6712Z" stroke="#FF0A54" stroke-width="0.506593" stroke-miterlimit="10" stroke-linecap="round" stroke-linejoin="round"/>
<path d="M31.2695 39.8267L22.6767 28.408C22.3654 28.0323 22.4157 27.5149 22.7965 27.203L25.2418 25.1914C25.6225 24.8795 26.1394 24.9299 26.4513 25.307L35.9777 36.0378C36.5244 36.6097 36.7854 37.5032 36.7109 38.276C36.5491 39.9074 35.0436 41.1468 33.4132 40.9859C32.5489 40.9063 31.8157 40.4844 31.2695 39.8267Z" stroke="#FF0A54" stroke-width="0.506593" stroke-miterlimit="10" stroke-linecap="round" stroke-linejoin="round"/>
<path d="M36.7109 38.276C36.5491 39.9074 35.0436 41.1468 33.4132 40.9859C32.5489 40.9063 31.8157 40.4844 31.2695 39.8267L22.6767 28.408C22.3654 28.0323 22.4157 27.5149 22.7965 27.203L25.2418 25.1914C25.6225 24.8795 26.1394 24.9299 26.4513 25.307L35.9777 36.0378C36.5244 36.6097 36.7854 37.5032 36.7109 38.276Z" stroke="#FF0A54" stroke-miterlimit="2.61313" stroke-linecap="round" stroke-linejoin="round"/>
<path d="M21.1953 24.6712L23.0728 26.9541L24.9396 25.4188L23.0677 23.1358C22.4896 23.7072 21.8674 24.22 21.1953 24.6712Z" stroke="#FF0A54" stroke-miterlimit="2.61313" stroke-linecap="round" stroke-linejoin="round"/>
</svg>
