<svg width="30" height="32" viewBox="0 0 30 32" fill="none" xmlns="http://www.w3.org/2000/svg">
<path d="M14.9994 30.8569C22.9994 30.8569 28.7137 28.0271 28.7137 21.7277C28.7137 14.882 25.2852 10.3174 18.428 6.89344L21.1252 3.42372C21.2625 3.19613 21.3371 2.93619 21.3413 2.67038C21.3455 2.40458 21.2792 2.14241 21.1491 1.91058C21.019 1.67875 20.8298 1.48553 20.6008 1.35063C20.3717 1.21572 20.111 1.14393 19.8452 1.14258H10.1537C9.88846 1.14534 9.6286 1.218 9.40038 1.35323C9.17215 1.48847 8.98362 1.6815 8.8538 1.91285C8.72399 2.1442 8.65747 2.4057 8.66097 2.67096C8.66447 2.93622 8.73786 3.19587 8.87373 3.42372L11.5709 6.91629C4.71373 10.3632 1.28516 14.9277 1.28516 21.7734C1.28516 28.0272 6.99944 30.8569 14.9994 30.8569Z" stroke="url(#paint0_linear_12498_3613)" stroke-width="2" stroke-linecap="round" stroke-linejoin="round"/>
<path d="M18.1614 15.5557C17.9919 15.0718 17.6759 14.6526 17.2573 14.3565C16.8386 14.0603 16.3382 13.9019 15.8254 13.9032H13.91C13.3642 13.9021 12.8373 14.103 12.4308 14.4671C12.0243 14.8313 11.7669 15.3329 11.7082 15.8755C11.6494 16.4181 11.7935 16.9633 12.1127 17.406C12.4318 17.8487 12.9035 18.1577 13.4368 18.2734L16.3557 18.9134C16.9505 19.0461 17.4755 19.3933 17.8304 19.8886C18.1853 20.384 18.3453 20.9927 18.2797 21.5986C18.214 22.2044 17.9275 22.7648 17.4747 23.1727C17.022 23.5805 16.4348 23.8072 15.8254 23.8094H14.1774C13.0985 23.8094 12.182 23.1192 11.8414 22.1592M15.0003 13.9032V11.4277M15.0003 26.2849V23.8094" stroke="url(#paint1_linear_12498_3613)" stroke-width="2" stroke-linecap="round" stroke-linejoin="round"/>
<defs>
<linearGradient id="paint0_linear_12498_3613" x1="1.28516" y1="23.7378" x2="28.7466" y2="23.9996" gradientUnits="userSpaceOnUse">
<stop stop-color="#FF0A54"/>
<stop offset="1" stop-color="#FF6F00"/>
</linearGradient>
<linearGradient id="paint1_linear_12498_3613" x1="11.6953" y1="22.7254" x2="18.3025" y2="22.7557" gradientUnits="userSpaceOnUse">
<stop stop-color="#FF0A54"/>
<stop offset="1" stop-color="#FF6F00"/>
</linearGradient>
</defs>
</svg>
