<svg width="116" height="120" viewBox="0 0 116 120" fill="none" xmlns="http://www.w3.org/2000/svg">
<path d="M115.662 18.037V97.6648C115.662 101.744 112.362 105.043 108.283 105.043H7.37889C3.30022 105.043 0 101.744 0 97.6648V18.037H115.662Z" fill="#FCFDFD"/>
<path d="M31.1624 26.4727H26.2738C25.7555 26.4727 25.3362 26.0543 25.3362 25.537C25.3362 25.0172 25.7555 24.5989 26.2738 24.5989H31.1624C31.6797 24.5989 32.1005 25.0172 32.1005 25.537C32.1005 26.0543 31.6797 26.4727 31.1624 26.4727Z" fill="#090B0E"/>
<path d="M21.0922 26.4727H7.48937C6.97106 26.4727 6.55176 26.0543 6.55176 25.537C6.55176 25.0172 6.97106 24.5989 7.48937 24.5989H21.0922C21.6103 24.5989 22.0295 25.0172 22.0295 25.537C22.0295 26.0543 21.6103 26.4727 21.0922 26.4727Z" fill="#090B0E"/>
<path d="M31.1626 33.96H19.3251C18.8068 33.96 18.3875 33.5417 18.3875 33.0243C18.3875 32.5045 18.8068 32.0862 19.3251 32.0862H31.1626C31.6799 32.0862 32.1007 32.5045 32.1007 33.0243C32.1007 33.5417 31.6799 33.96 31.1626 33.96Z" fill="#090B0E"/>
<path d="M14.0554 33.96H7.48937C6.97106 33.96 6.55176 33.5417 6.55176 33.0243C6.55176 32.5045 6.97106 32.0862 7.48937 32.0862H14.0554C14.5737 32.0862 14.993 32.5045 14.993 33.0243C14.993 33.5417 14.5737 33.96 14.0554 33.96Z" fill="#090B0E"/>
<path d="M20.6234 41.4475H7.48937C6.97106 41.4475 6.55176 41.0292 6.55176 40.5094C6.55176 39.9921 6.97106 39.5738 7.48937 39.5738H20.6234C21.1414 39.5738 21.5608 39.9921 21.5608 40.5094C21.5608 41.0292 21.1414 41.4475 20.6234 41.4475Z" fill="#090B0E"/>
<path d="M115.662 18.0295V7.39847C115.662 3.32178 112.362 0.0198479 108.283 0.0198479L7.37889 2.67029e-05C3.30022 2.67029e-05 0 3.32179 0 7.37867V18.0295H115.662Z" fill="#47586E"/>
<path d="M26.274 9.01463C26.274 10.7918 24.8505 12.2151 23.0728 12.2151C21.2941 12.2151 19.8721 10.7918 19.8721 9.01463C19.8721 7.23743 21.2941 5.81418 23.0728 5.81418C24.8505 5.81418 26.274 7.23743 26.274 9.01463Z" fill="white"/>
<path d="M14.9825 9.01463C14.9825 10.7918 13.5382 12.2151 11.7821 12.2151C10.0041 12.2151 8.55908 10.7918 8.55908 9.01463C8.55908 7.23743 10.0041 5.81418 11.7821 5.81418C13.5382 5.81418 14.9825 7.23743 14.9825 9.01463Z" fill="white"/>
<path d="M37.5858 9.01463C37.5858 10.7918 36.1403 12.2151 34.3631 12.2151C32.6081 12.2151 31.1626 10.7918 31.1626 9.01463C31.1626 7.23743 32.6081 5.81418 34.3631 5.81418C36.1403 5.81418 37.5858 7.23743 37.5858 9.01463Z" fill="white"/>
<path d="M64.7661 6.70796C63.5013 6.70796 62.4592 7.7327 62.4592 9.01487C62.4592 10.297 63.5013 11.3218 64.7661 11.3218H104.781C106.06 11.3218 107.102 10.297 107.102 9.01487C107.102 7.7327 106.06 6.70796 104.781 6.70796H64.7661Z" fill="white"/>
<path d="M77.5828 75.9398L88.9267 87.2813L83.2634 92.9446L71.9194 81.6031L77.5828 75.9398Z" fill="#3275C6"/>
<path d="M79.5208 39.4302C91.7014 51.6108 91.7014 71.3482 79.5208 83.5288C67.3403 95.7093 47.5905 95.7192 35.4124 83.5411C23.221 71.3482 23.2326 51.5984 35.4124 39.4203C47.593 27.2398 67.3304 27.2398 79.5208 39.4302Z" fill="#FB3189"/>
<path d="M74.9936 43.9573C84.6717 53.6354 84.6717 69.3233 74.9936 79.0014C65.313 88.682 49.6177 88.6919 39.9371 79.0114C30.2491 69.3233 30.259 53.628 39.9371 43.9474C49.6177 34.2693 65.3056 34.2693 74.9936 43.9573Z" fill="white"/>
<path d="M92.6916 84.2318L114.612 106.152C116.436 107.979 116.436 110.917 114.61 112.744L108.724 118.63C106.897 120.457 103.961 120.457 102.135 118.63L80.214 96.7094C78.3997 94.8951 78.3873 91.9471 80.214 90.1204L86.1001 84.2343C87.9268 82.4076 90.8748 82.4175 92.6916 84.2318Z" fill="#47586E"/>
<path d="M44.066 54.5787C43.8432 54.8089 43.7318 55.0886 43.7318 55.4129V63.94C43.7318 64.9821 43.5412 65.6875 43.1625 66.039C42.7739 66.3979 42.2714 66.5736 41.6304 66.5736C41.0561 66.5736 40.4819 66.4375 39.9225 66.1702C39.5264 65.9697 38.9843 66.0538 38.6873 66.4078C38.5066 66.6231 38.415 66.8731 38.415 67.1504C38.415 67.5662 38.613 67.9004 38.9868 68.1231H38.9918C39.8185 68.5934 40.7442 68.8311 41.7492 68.8311C42.9843 68.8311 44.0264 68.4424 44.8457 67.6825C45.6674 66.9127 46.0858 65.6157 46.0858 63.8212V55.4129C46.0858 55.0886 45.9694 54.8065 45.7392 54.5738C45.2714 54.1084 44.514 54.1134 44.066 54.5787Z" fill="#090B0E"/>
<path d="M60.452 61.4797C60.452 62.4549 60.2564 63.3385 59.8703 64.1108C59.4891 64.8732 58.9297 65.4845 58.2045 65.9251C57.4767 66.3682 56.6055 66.5934 55.6129 66.5934C54.608 66.5934 53.7317 66.3682 53.0139 65.9251C52.2936 65.4845 51.7342 64.8732 51.3531 64.1108C50.9694 63.3385 50.7738 62.4549 50.7738 61.4797C50.7738 60.5044 50.9694 59.6183 51.3531 58.8485C51.7367 58.0836 52.2936 57.4747 53.0139 57.0317C53.7317 56.5886 54.608 56.3634 55.6129 56.3634C56.6055 56.3634 57.4767 56.5886 58.2045 57.0317C58.9272 57.4747 59.4891 58.0836 59.8703 58.846C60.2564 59.6183 60.452 60.5044 60.452 61.4797ZM59.3678 55.0713C58.2985 54.4451 57.0337 54.1282 55.6129 54.1282C54.1897 54.1282 52.9223 54.4451 51.8481 55.0713C50.7689 55.6975 49.9248 56.5762 49.3382 57.6851C48.7541 58.7792 48.4471 60.0564 48.4199 61.4846C48.4471 62.9029 48.7541 64.1776 49.3382 65.2742C49.9248 66.3806 50.7689 67.2593 51.8456 67.8855L51.8481 67.888C52.9223 68.5117 54.1897 68.8311 55.6129 68.8311C57.0337 68.8311 58.2985 68.5117 59.3678 67.8855C60.4396 67.2568 61.2836 66.3756 61.8777 65.2642C62.4668 64.1603 62.7787 62.888 62.8059 61.4747C62.7787 60.0688 62.4668 58.7965 61.8777 57.6926C61.2836 56.5812 60.4396 55.7 59.3678 55.0713Z" fill="#090B0E"/>
<path d="M67.5927 60.2717V56.5614H70.9144C71.7288 56.5614 72.3724 56.7297 72.8253 57.0589C73.2585 57.3733 73.4689 57.7817 73.4689 58.3089C73.4689 58.9351 73.2709 59.4054 72.8624 59.747C72.4441 60.096 71.6768 60.2717 70.5803 60.2717H67.5927ZM74.2189 64.4128C74.2189 65.0465 73.9936 65.5192 73.5332 65.8608C73.053 66.2172 72.1991 66.3979 70.9937 66.3979H67.5927V62.4499H71.0135C74.2189 62.4499 74.2189 63.9277 74.2189 64.4128ZM75.6817 62.2148C75.2758 61.7717 74.7783 61.4178 74.2015 61.1579C74.5679 60.9128 74.8872 60.6034 75.152 60.2346C75.5456 59.6826 75.7461 58.9871 75.7461 58.1703C75.7461 56.9995 75.3228 56.0515 74.4911 55.3535C73.6743 54.6703 72.5159 54.3238 71.053 54.3238H66.4046C66.0754 54.3238 65.7957 54.4426 65.5729 54.6777C65.3502 54.9055 65.2388 55.1876 65.2388 55.5119V67.4647C65.2388 67.7915 65.3501 68.0712 65.5754 68.2939C65.7982 68.5192 66.0779 68.6331 66.4046 68.6331H71.1694C72.9763 68.6331 74.3302 68.2667 75.1916 67.5415C76.0678 66.8088 76.5134 65.7816 76.5134 64.492C76.5134 63.5836 76.2337 62.8187 75.6817 62.2148Z" fill="#090B0E"/>
</svg>
