<svg width="28" height="32" viewBox="0 0 28 32" fill="none" xmlns="http://www.w3.org/2000/svg">
<path d="M14.0625 4.10718C11.5449 4.10718 9.51892 6.1301 9.51892 8.64308C9.51892 11.1567 11.5449 13.1796 14.0625 13.1796C16.58 13.1796 18.6055 11.1567 18.6055 8.64308C18.6055 6.19151 16.58 4.10718 14.0625 4.10718ZM14.0625 14.5896C10.8082 14.5896 8.16797 11.9538 8.16797 8.70449C8.16797 5.4558 10.8082 2.81938 14.0625 2.81938C17.3163 2.81938 19.9568 5.4558 19.9568 8.70449C19.9568 11.8924 17.3163 14.5896 14.0625 14.5896Z" fill="#055346"/>
<path d="M13.4485 6.55946C13.4485 6.31381 13.8169 6.13018 14.2465 6.13018C14.6764 6.13018 14.9833 6.31381 14.9833 6.55946C14.9833 6.74308 14.6764 6.92732 14.1849 6.92732C13.8169 6.92732 13.4485 6.74308 13.4485 6.55946ZM12.6504 11.0959L12.6504 10.9117C13.6326 10.8503 13.6939 10.7889 13.6939 10.2988L13.6939 8.70458C13.6939 8.21451 13.6326 8.21451 12.7115 8.09168L12.7115 7.90745C13.5096 7.84665 14.1849 7.72382 14.8603 7.60161L14.8603 10.2374C14.8603 10.7889 14.9833 10.7889 15.9656 10.8503L15.9656 11.0345L12.6504 11.0959Z" fill="#055346"/>
<path d="M14.0633 1.40943C10.0723 1.40943 6.75671 4.65873 6.75671 8.70455C6.75671 12.7504 10.0109 15.9997 14.0633 15.9997C18.0539 15.9997 21.3692 12.7504 21.3692 8.70455C21.3692 4.65873 18.0539 1.40943 14.0633 1.40943ZM14.0633 17.2869C9.27421 17.2869 5.40625 13.4253 5.40625 8.64314C5.40625 3.86221 9.27421 9.53489e-06 14.0633 9.5326e-06C18.8523 9.53031e-06 22.7205 3.86221 22.7205 8.64314C22.7205 13.4253 18.8523 17.2869 14.0633 17.2869Z" fill="#055346"/>
<path d="M13.8166 18.3904L14.3076 18.3904L14.3076 17.3482C14.1231 17.3482 14.0005 17.3482 13.8166 17.3482L13.8166 18.3904ZM14.983 19.739L13.0797 19.739C12.8956 19.739 12.7112 19.6776 12.5885 19.5554C12.4657 19.4326 12.4043 19.2489 12.4043 19.0647L12.4043 16.5517C12.4043 16.3675 12.4657 16.1839 12.6501 16.0611C12.7728 15.9382 13.0181 15.8768 13.2024 15.8768C13.5093 15.9382 13.755 15.9382 14.0622 15.9382C14.3692 15.9382 14.6146 15.9382 14.9215 15.8768C15.106 15.8768 15.2899 15.9382 15.4744 16.0611C15.5968 16.1839 15.7199 16.3675 15.7199 16.5517L15.7199 19.0647C15.6584 19.4326 15.3514 19.739 14.983 19.739Z" fill="#055346"/>
<path d="M11.7909 19.7389L11.7909 28.5054C11.7909 29.6698 12.7734 30.5897 14.0011 30.5897C15.229 30.5897 16.2119 29.6698 16.2119 28.5054L16.2119 19.7389L11.7909 19.7389ZM14.0011 31.9998C12.0367 31.9998 10.3789 30.4669 10.3789 28.5054L10.3789 19.0646C10.3789 18.6967 10.6858 18.3903 11.0543 18.3903L16.8873 18.3903C17.2551 18.3903 17.562 18.6967 17.562 19.0646L17.562 28.5054C17.6235 30.4055 15.9659 31.9998 14.0011 31.9998Z" fill="#055346"/>
<path d="M14.0019 26.6047C14.5448 26.6047 14.9844 27.0443 14.9844 27.5854C14.9844 28.1278 14.5448 28.5662 14.0019 28.5662C13.4596 28.5662 13.0195 28.1278 13.0195 27.5854C13.0195 27.0443 13.4596 26.6047 14.0019 26.6047Z" fill="#055346"/>
<path d="M25.3606 26.0535C25.1761 26.0535 24.9922 25.9921 24.8692 25.8692C24.6238 25.6242 24.6238 25.1341 24.8692 24.8891L25.6061 24.1534L19.4664 24.1534C19.0979 24.1534 18.791 23.8463 18.791 23.4785C18.791 23.1112 19.0979 22.8042 19.4664 22.8042L27.2643 22.8042C27.5706 22.8042 27.8166 22.9884 27.8775 23.2334C28.0005 23.4785 27.939 23.7849 27.7551 23.9692L25.7906 25.9313C25.7291 25.9313 25.5445 26.0535 25.3606 26.0535Z" fill="#055346"/>
<path d="M27.3236 24.092C27.1397 24.092 26.9552 24.0306 26.8328 23.9078L24.8677 21.9463C24.6222 21.7007 24.6222 21.2106 24.8677 20.9656C25.1137 20.7199 25.6045 20.7199 25.8505 20.9656L27.8151 22.9271C28.0605 23.1721 28.0605 23.6628 27.8151 23.9078C27.6921 24.0306 27.5082 24.092 27.3236 24.092Z" fill="#055346"/>
<path d="M2.64284 29.2412C2.45826 29.2412 2.27435 29.1798 2.15133 29.057L0.186722 27.0955C0.00256779 26.9119 -0.058999 26.6048 0.063953 26.3598C0.186722 26.1141 0.4322 25.9311 0.677678 25.9311L8.47541 25.9311C8.8439 25.9311 9.15077 26.2369 9.15077 26.6048C9.15077 26.9727 8.8439 27.2791 8.47541 27.2791L2.33549 27.2791L3.07241 28.0148C3.31795 28.2605 3.31795 28.7505 3.07241 28.9962C3.01108 29.1798 2.82669 29.2412 2.64284 29.2412Z" fill="#055346"/>
<path d="M0.6772 27.3411C0.493351 27.3411 0.309196 27.2797 0.186244 27.1574C-0.0594772 26.9124 -0.0594772 26.4217 0.186244 26.1767L2.15086 24.2146C2.39664 23.9695 2.88784 23.9695 3.13331 24.2146C3.37904 24.4602 3.37904 24.9503 3.13331 25.1959L1.1687 27.1574C1.04569 27.2797 0.861841 27.3411 0.6772 27.3411Z" fill="#055346"/>
</svg>
