<svg width="43" height="40" viewBox="0 0 43 40" fill="none" xmlns="http://www.w3.org/2000/svg">
<path d="M4.33233 27.2512C4.48175 27.6071 4.62851 27.939 4.77846 28.2576C5.65788 28.2405 6.71603 28.1194 7.92789 27.8974C9.04477 27.6999 10.4146 27.3851 12 26.9614C17.4141 25.4854 24.1693 22.9272 31.0216 19.7569C31.9389 19.3354 32.8317 18.9127 33.6801 18.4992L32.4074 15.9677C32.2319 15.6149 32.25 15.2067 32.4554 14.8737C32.6993 14.4788 33.1433 14.2681 33.6156 14.3513L40.9481 15.6934C40.9892 15.7014 41.0292 15.711 41.0681 15.7227C39.1167 7.12817 31.4117 0.693711 22.2312 0.693711C11.5859 0.693711 2.92571 9.35445 2.92571 19.9992C2.92571 21.163 3.0303 22.3274 3.23788 23.4688C3.9428 22.8285 4.77417 22.1454 5.71869 21.4331C5.81474 21.3599 5.94229 21.3423 6.05489 21.3872C6.16748 21.4314 6.2486 21.5307 6.26941 21.6497C6.44444 22.6508 6.67548 23.6327 6.9551 24.5681C6.99565 24.7036 6.9503 24.8499 6.84037 24.9379C5.8046 25.7688 4.96254 26.5462 4.33233 27.2512ZM6.77635 31.5655C10.4189 36.4236 16.1516 39.3058 22.2312 39.3058C32.8813 39.3058 41.5457 30.645 41.5457 19.9992C41.5457 19.3066 41.5089 18.623 41.4374 17.9485L38.471 23.9875C38.2773 24.3771 37.8878 24.6183 37.4544 24.6183C37.0259 24.6183 36.6417 24.3808 36.4512 23.9982L35.2303 21.5787C34.321 22.0174 33.3984 22.456 32.4629 22.8872C25.0242 26.3317 17.7541 29.0447 11.9925 30.5271C11.0288 30.7752 10.1942 30.9695 9.44127 31.121C8.48181 31.3195 7.588 31.4684 6.77635 31.5655ZM22.2312 40C15.7279 40 9.60776 36.8159 5.85957 31.4839C5.7886 31.382 5.77632 31.2507 5.82862 31.1386C5.88092 31.026 5.98872 30.9503 6.11146 30.9385C7.0501 30.8521 8.12373 30.685 9.30198 30.4417C10.0448 30.2918 10.8676 30.1002 11.8196 29.8547C17.5417 28.3835 24.7696 25.685 32.1716 22.258C33.2095 21.7788 34.2308 21.2922 35.2351 20.806C35.4043 20.7249 35.6108 20.7922 35.6961 20.9619L37.0713 23.6871C37.2223 23.9902 37.6994 23.9811 37.8493 23.6801L41.1343 16.9933C41.1952 16.8711 41.1951 16.7323 41.1359 16.6123C41.0745 16.4879 40.9593 16.4015 40.8211 16.3754L33.4934 15.0343C33.3269 15.0029 33.1422 15.0824 33.0456 15.2382C32.9656 15.3673 32.9592 15.5199 33.0275 15.6571L34.4576 18.5008C34.4992 18.5835 34.5062 18.6795 34.4768 18.7671C34.4469 18.8546 34.384 18.9266 34.3007 18.9677C33.3535 19.4336 32.3477 19.9106 31.3119 20.3871C24.4271 23.5724 17.6324 26.145 12.1809 27.6311C10.5747 28.0607 9.18566 28.3792 8.05064 28.5799C6.6979 28.8275 5.52287 28.9534 4.56074 28.9534C4.42787 28.9534 4.3062 28.8771 4.24856 28.7571C4.03191 28.3083 3.8222 27.8376 3.60821 27.3168C3.55859 27.1962 3.581 27.058 3.66585 26.9587C4.3014 26.2207 5.16158 25.4091 6.22457 24.5435C6.01752 23.8258 5.83823 23.0835 5.68935 22.3279C4.74537 23.0601 3.92892 23.7543 3.25922 24.3979C3.1685 24.4854 3.03829 24.5169 2.91716 24.4795C2.79709 24.4427 2.70586 24.344 2.67971 24.2207C2.38248 22.8386 2.23145 21.4181 2.23145 19.9992C2.23145 8.97184 11.2033 -1.00698e-06 22.2312 -1.00698e-06C33.2639 -1.00698e-06 42.2395 8.97184 42.2395 19.9992C42.2395 31.0276 33.2639 40 22.2312 40Z" fill="#FB3189"/>
<path d="M22.2308 0.693711C16.4511 0.693711 11.7499 9.35445 11.7499 19.9992C11.7499 22.3584 11.9788 24.6572 12.4319 26.8397C17.8012 25.3344 24.3845 22.8269 31.0212 19.7569L31.6525 19.4602C32.0036 19.2959 32.3537 19.1315 32.7011 18.9672C32.6808 18.06 32.6179 17.1235 32.5149 16.1774L32.4087 15.9698C32.263 15.6699 32.2507 15.3327 32.3665 15.0408C31.1451 6.58814 26.9849 0.693711 22.2308 0.693711ZM12.1699 27.6188C12.1074 27.6188 12.045 27.6018 11.9906 27.5692C11.9095 27.5201 11.8513 27.4395 11.831 27.3467C11.3166 25.0099 11.0557 22.5377 11.0557 19.9992C11.0557 8.97184 16.0685 -1.00698e-06 22.2308 -1.00698e-06C27.3595 -1.00698e-06 31.8153 6.18631 33.0682 15.044C33.0784 15.1171 33.065 15.1912 33.0309 15.2569C32.9647 15.3791 32.9647 15.5258 33.0293 15.6603L33.1611 15.9175C33.1803 15.9549 33.1926 15.9954 33.1974 16.037C33.3158 17.1037 33.3841 18.1614 33.3996 19.1795C33.4012 19.3156 33.3238 19.44 33.2011 19.4981C32.7859 19.695 32.367 19.8914 31.9471 20.0883L31.3142 20.3855C24.4961 23.5398 17.7308 26.1044 12.2617 27.6066C12.2312 27.6151 12.2003 27.6188 12.1699 27.6188ZM13.3326 30.1706C15.2446 35.8158 18.6342 39.3058 22.2308 39.3058C27.4518 39.3058 31.8585 32.2598 32.6093 22.8205L32.462 22.8877C25.63 26.0473 18.8546 28.6258 13.3326 30.1706ZM22.2308 40C18.2505 40 14.5445 36.183 12.5589 30.0404C12.5301 29.9502 12.5386 29.8521 12.5834 29.7688C12.6288 29.6856 12.7062 29.6237 12.7974 29.5986C18.3461 28.0767 25.2266 25.4694 32.1717 22.258L32.4183 22.1454C32.5629 22.0798 32.7086 22.0136 32.8505 21.9469C32.9604 21.8946 33.0912 21.9048 33.1926 21.9741C33.294 22.043 33.3511 22.1604 33.3431 22.2826C32.7075 32.383 27.93 40 22.2308 40Z" fill="#FB3189"/>
<path d="M5.99832 25.642C6.87827 26.3854 7.92418 27.0652 9.11417 27.6666C10.0181 27.4692 10.9882 27.2322 12 26.9612C17.4141 25.4851 24.1693 22.927 31.0216 19.7567C31.9389 19.3351 32.8317 18.9125 33.6801 18.4989L32.4074 15.9674C32.2319 15.6147 32.25 15.2065 32.4554 14.8735C32.6993 14.4786 33.1433 14.2678 33.6156 14.3511L39.6114 15.4461C36.3867 11.8291 29.7121 9.53297 22.2312 9.53297C11.5859 9.53297 2.92571 14.2278 2.92571 19.999C2.92571 21.023 3.20265 22.0379 3.75069 23.0214C4.40438 22.459 5.05166 21.9366 5.71869 21.4328C5.81474 21.3597 5.94229 21.3421 6.05489 21.3869C6.16748 21.4312 6.2486 21.5305 6.26941 21.6495C6.44444 22.6505 6.67494 23.6324 6.9551 24.5679C6.99565 24.7023 6.95083 24.8475 6.84144 24.9361C6.53727 25.1842 6.25606 25.4206 5.99832 25.642ZM9.06826 28.3785C9.01543 28.3785 8.96207 28.3662 8.91351 28.3422C7.485 27.6309 6.24806 26.8096 5.23897 25.9003C5.16533 25.8336 5.12372 25.7392 5.12425 25.6404C5.12478 25.5417 5.16746 25.4473 5.24163 25.3822C5.53353 25.1244 5.86171 24.8432 6.22511 24.5444C6.01753 23.8272 5.83875 23.0844 5.68987 22.3288C5.08634 22.7983 4.4951 23.2888 3.89371 23.8165C3.81687 23.8832 3.7144 23.911 3.61514 23.8998C3.51429 23.8848 3.42518 23.8267 3.37129 23.7407C2.61514 22.5363 2.23145 21.2781 2.23145 19.999C2.23145 13.8452 11.2033 8.83872 22.2312 8.83872C30.4068 8.83872 37.6759 11.5517 40.7496 15.7502C40.8339 15.865 40.8392 16.0186 40.764 16.1392C40.6882 16.2598 40.5463 16.3201 40.4075 16.2967L33.4934 15.0341C33.3269 15.0026 33.1422 15.0821 33.0456 15.238C32.9656 15.3671 32.9592 15.5197 33.0275 15.6568L34.4576 18.5005C34.4992 18.5832 34.5062 18.6793 34.4768 18.7668C34.4469 18.8543 34.384 18.9264 34.3007 18.9675C33.3535 19.4328 32.3482 19.9104 31.3119 20.3869C24.4271 23.5721 17.6324 26.1447 12.1809 27.6309C11.1115 27.9169 10.0896 28.1655 9.14189 28.371C9.11734 28.3758 9.0928 28.3785 9.06826 28.3785ZM14.9669 29.6949C17.2701 30.2067 19.7082 30.4649 22.2312 30.4649C32.8813 30.4649 41.5457 25.7706 41.5457 19.999C41.5457 19.4226 41.4561 18.8458 41.2773 18.2769L38.471 23.9878C38.2773 24.3768 37.8878 24.618 37.4544 24.618C37.0259 24.618 36.6417 24.3805 36.4512 23.9979L35.2303 21.5785C34.321 22.0171 33.3984 22.4558 32.4629 22.8869C26.2915 25.7413 20.1362 28.1341 14.9669 29.6949ZM22.2312 31.1592C19.1879 31.1592 16.2647 30.7894 13.5422 30.0605C13.3917 30.0199 13.2866 29.8844 13.285 29.728C13.2839 29.5722 13.3869 29.4345 13.5368 29.3918C18.912 27.8625 25.5301 25.3288 32.1721 22.2578C33.2095 21.7786 34.2308 21.2919 35.2351 20.8058C35.4043 20.7247 35.6108 20.7919 35.6961 20.9616L37.0713 23.6868C37.2223 23.9899 37.6994 23.9809 37.8493 23.6799L41.0057 17.2572C41.0649 17.1361 41.1717 17.0608 41.3227 17.0629C41.4566 17.0656 41.5778 17.1451 41.6333 17.2673C42.0356 18.1585 42.2395 19.0779 42.2395 19.999C42.2395 26.1527 33.2639 31.1592 22.2312 31.1592Z" fill="#FB3189"/>
<path d="M31.3268 20.3462H2.5783C2.38673 20.3462 2.23145 20.1909 2.23145 19.9988C2.23145 19.8072 2.38673 19.6519 2.5783 19.6519H31.3268C31.5189 19.6519 31.6742 19.8072 31.6742 19.9988C31.6742 20.1909 31.5189 20.3462 31.3268 20.3462ZM41.8926 20.3462H40.0457C39.8542 20.3462 39.6989 20.1909 39.6989 19.9988C39.6989 19.8072 39.8542 19.6519 40.0457 19.6519H41.8926C42.0842 19.6519 42.2395 19.8072 42.2395 19.9988C42.2395 20.1909 42.0842 20.3462 41.8926 20.3462Z" fill="#FB3189"/>
<path d="M22.2311 24.2314C22.0396 24.2314 21.8843 24.0761 21.8843 23.884V0.346855C21.8843 0.155284 22.0396 -1.00698e-06 22.2311 -1.00698e-06C22.4232 -1.00698e-06 22.5785 0.155284 22.5785 0.346855V23.884C22.5785 24.0761 22.4232 24.2314 22.2311 24.2314ZM22.2311 40C22.0396 40 21.8843 39.8447 21.8843 39.6526V26.8328C21.8843 26.6407 22.0396 26.4854 22.2311 26.4854C22.4232 26.4854 22.5785 26.6407 22.5785 26.8328V39.6526C22.5785 39.8447 22.4232 40 22.2311 40Z" fill="#FB3189"/>
<path d="M5.68959 22.3297C4.25414 23.4466 3.12447 24.4648 2.32617 25.3612C1.7824 25.9642 0.131365 27.7951 0.896583 29.4536C1.37364 30.492 2.59617 31.0182 4.52896 31.0182H4.93931C6.11276 30.9873 7.54022 30.7989 9.30331 30.4419C10.0445 30.2919 10.8674 30.1004 11.8194 29.8549C17.5414 28.3837 24.7694 25.6852 32.1713 22.2582C33.2092 21.779 34.2305 21.2924 35.2348 20.8062C35.404 20.7251 35.6105 20.7923 35.6959 20.962L37.071 23.6873C37.222 23.9904 37.6991 23.9813 37.849 23.6803L41.134 16.9935C41.1949 16.8713 41.1949 16.7325 41.1356 16.6125C41.0743 16.4881 40.959 16.4017 40.8208 16.3755L33.4931 15.0345C33.3266 15.003 33.1419 15.0826 33.0454 15.2384C32.9653 15.3675 32.9589 15.5201 33.0272 15.6573L34.4573 18.501C34.4989 18.5837 34.5059 18.6797 34.4765 18.7672C34.4466 18.8547 34.3837 18.9268 34.3004 18.9679C33.3533 19.4337 32.3474 19.9108 31.3116 20.3873C24.4268 23.5725 17.6321 26.1451 12.1806 27.6313C10.5744 28.0609 9.18538 28.3794 8.05036 28.5801C6.66347 28.8282 5.48415 28.9536 4.5455 28.9536C4.2931 28.9536 4.07431 28.9445 3.8854 28.9291C3.55242 28.897 3.27708 28.7017 3.1426 28.4056C3.01133 28.1148 3.04496 27.786 3.23333 27.5251C3.6106 26.9739 4.43879 26.0075 6.22483 24.5443C6.01725 23.8271 5.83848 23.0848 5.68959 22.3297ZM4.94413 31.7119H4.52896C2.30161 31.7119 0.86671 31.0497 0.265848 29.7439C-0.689874 27.6697 1.19168 25.5838 1.81016 24.8981C2.71678 23.8794 4.03217 22.7129 5.71789 21.4338C5.81448 21.3601 5.94254 21.3441 6.05406 21.3868C6.16666 21.4311 6.24832 21.5309 6.26913 21.6499C6.44416 22.651 6.6752 23.6328 6.95482 24.5683C6.99537 24.7033 6.95057 24.849 6.84064 24.937C4.99536 26.4301 4.1693 27.3853 3.80057 27.9242C3.73867 28.0102 3.75789 28.0833 3.77443 28.1195C3.78937 28.1521 3.83525 28.2273 3.94731 28.238C4.11487 28.2519 4.31498 28.2604 4.5455 28.2604C5.44306 28.2604 6.58183 28.1382 7.92923 27.8976C9.04451 27.7001 10.4143 27.3853 11.9997 26.9616C17.4139 25.4856 24.169 22.9274 31.0213 19.7571C31.9386 19.3355 32.8314 18.9129 33.6798 18.4994L32.4071 15.9678C32.2316 15.6151 32.2497 15.2069 32.4552 14.8739C32.699 14.479 33.143 14.2682 33.6153 14.3515L40.9478 15.6936C41.3037 15.7613 41.5978 15.9839 41.7573 16.304C41.9142 16.621 41.9137 16.9844 41.7557 17.3014L38.4707 23.9877C38.277 24.3772 37.8875 24.6184 37.4542 24.6184C37.0257 24.6184 36.6414 24.381 36.4509 23.9984L35.23 21.5789C34.3207 22.0176 33.3981 22.4562 32.4626 22.8874C25.0239 26.3319 17.7538 29.0449 11.9923 30.5273C11.0285 30.7754 10.1939 30.9696 9.44099 31.1212C7.63627 31.4873 6.16825 31.6799 4.95265 31.7114C4.94999 31.7119 4.94734 31.7119 4.94413 31.7119Z" fill="#FB3189"/>
</svg>
