<svg width="24" height="24" viewBox="0 0 24 24" fill="none" xmlns="http://www.w3.org/2000/svg">
<path d="M6 0H1.2C0.5364 0 0 0.5364 0 1.2V6C0 6.6636 0.5364 7.2 1.2 7.2H6C6.6636 7.2 7.2 6.6636 7.2 6V1.2C7.2 0.5364 6.6636 0 6 0Z" fill="#1A56DB"/>
<path d="M22.8 0H18C17.3364 0 16.8 0.5364 16.8 1.2V6C16.8 6.6636 17.3364 7.2 18 7.2H22.8C23.4636 7.2 24 6.6636 24 6V1.2C24 0.5364 23.4636 0 22.8 0Z" fill="#1A56DB"/>
<path d="M6 16.8H1.2C0.5364 16.8 0 17.3364 0 18V22.8C0 23.4636 0.5364 24 1.2 24H6C6.6636 24 7.2 23.4636 7.2 22.8V18C7.2 17.3364 6.6636 16.8 6 16.8Z" fill="#1A56DB"/>
<path d="M22.8 16.8H18C17.3364 16.8 16.8 17.3364 16.8 18V22.8C16.8 23.4636 17.3364 24 18 24H22.8C23.4636 24 24 23.4636 24 22.8V18C24 17.3364 23.4636 16.8 22.8 16.8Z" fill="#1A56DB"/>
<path d="M14.4 2.4H9.6C8.9364 2.4 8.4 2.9364 8.4 3.6C8.4 4.2636 8.9364 4.8 9.6 4.8H14.4C15.0636 4.8 15.6 4.2636 15.6 3.6C15.6 2.9364 15.0636 2.4 14.4 2.4Z" fill="#1A56DB"/>
<path d="M14.4 19.2H9.6C8.9364 19.2 8.4 19.7364 8.4 20.4C8.4 21.0636 8.9364 21.6 9.6 21.6H14.4C15.0636 21.6 15.6 21.0636 15.6 20.4C15.6 19.7364 15.0636 19.2 14.4 19.2Z" fill="#1A56DB"/>
<path d="M4.8 14.4V9.6C4.8 8.9364 4.2636 8.4 3.6 8.4C2.9364 8.4 2.4 8.9364 2.4 9.6V14.4C2.4 15.0636 2.9364 15.6 3.6 15.6C4.2636 15.6 4.8 15.0636 4.8 14.4Z" fill="#1A56DB"/>
<path d="M21.6 14.4V9.6C21.6 8.9364 21.0636 8.4 20.4 8.4C19.7364 8.4 19.2 8.9364 19.2 9.6V14.4C19.2 15.0636 19.7364 15.6 20.4 15.6C21.0636 15.6 21.6 15.0636 21.6 14.4Z" fill="#1A56DB"/>
</svg>
