<svg width="32" height="41" viewBox="0 0 32 41" fill="none" xmlns="http://www.w3.org/2000/svg">
<path d="M15.8993 19.3966C14.8944 18.8581 13.269 17.8924 13.9212 17.4446C14.3433 17.1547 15.1026 17.9662 15.3143 18.2289C15.5934 18.5754 15.7874 18.9735 15.8993 19.3966ZM17.0027 19.1148C17.1053 18.4584 17.2834 17.8176 17.5563 17.2031C17.722 16.8297 17.9492 16.2737 18.283 16.0189C19.3305 15.2189 19.5925 16.4801 19.2935 17.099C18.8692 17.9771 17.8705 18.5219 17.0027 19.1148ZM19.2469 6.10958C23.4776 7.51996 25.9372 11.7833 25.5542 16.1452C25.1324 20.9499 22.7322 25.3265 22.1336 30.1036C21.5989 30.2556 20.9962 30.4242 20.4022 30.5902L20.3879 30.5943C19.0784 27.2072 17.9622 23.7566 17.0412 20.2416C17.9557 19.4329 19.1431 18.9094 19.8744 17.9133C20.4585 17.1181 20.6043 15.9441 19.8207 15.2076C19.0091 14.4449 17.9597 14.8852 17.3611 15.6636C16.8442 16.3353 16.5017 17.144 16.2822 17.9871C16.1398 17.7648 15.976 17.554 15.788 17.3595C15.2102 16.7609 14.2739 16.2018 13.4378 16.6265C12.7409 16.9805 12.6999 18.131 13.1755 18.6867C13.9215 19.5586 15.1281 20.0305 16.11 20.5624L16.1681 20.5871C17.0841 24.0693 18.1916 27.4889 19.4893 30.8457C18.9964 30.9843 18.5357 31.1144 18.1385 31.2291C15.7811 28.2526 12.6415 26.0739 10.1045 23.2706C6.95176 19.7865 5.63509 15.111 7.89419 10.736C9.96586 6.72345 14.9755 4.68575 19.2469 6.10958ZM23.9842 30.5324C24.172 30.4695 24.4054 30.3913 24.5577 30.4201C24.7131 30.4495 24.798 30.5089 24.9061 30.9258C25.1184 31.7435 25.0824 32.2408 24.793 32.4906C24.5838 32.6711 24.2394 32.7683 23.9354 32.854L17.5793 34.6459C17.371 34.7047 16.9831 34.8142 16.7985 34.7291C16.6782 34.6738 16.6139 34.4914 16.5492 34.2153C16.4578 33.8228 16.363 33.4169 16.4749 33.0607C16.5651 32.774 16.8805 32.4678 17.2075 32.4678H17.2094C17.2616 32.4659 17.3101 32.4603 17.358 32.4441C17.887 32.2674 19.2926 31.8743 20.6518 31.494C22.0826 31.094 23.4341 30.7159 23.9842 30.5324ZM24.9714 35.0544C24.7849 35.1938 24.4856 35.2786 24.2214 35.3533L18.7269 36.9076C18.5593 36.9554 18.2106 37.0545 18.0645 37.0029C18.0409 36.9948 18.012 36.9689 17.9663 36.7631C17.8976 36.4541 17.8587 36.2365 17.942 36.0379C18.0225 35.8459 18.3038 35.6232 18.578 35.6107C18.6196 35.6088 18.6607 35.6013 18.7004 35.5885C19.1589 35.439 20.3733 35.0978 21.5476 34.7679C22.785 34.4201 23.9541 34.0915 24.4306 33.9364C24.572 33.8904 24.7607 33.8291 24.8906 33.8291L24.9285 33.831C25.0286 33.8422 25.0469 33.8444 25.1029 34.064C25.2707 34.7244 25.1306 34.9355 24.9714 35.0544ZM23.821 38.0065C24.0063 39.0885 23.4732 39.5147 22.5199 39.8215C21.5116 40.1455 20.7246 40.0889 20.4035 38.934C20.268 38.4471 20.1952 37.9765 20.0466 37.5089L23.5139 36.5279C23.591 37.0276 23.7352 37.5045 23.821 38.0065ZM6.98346 20.457C9.27551 25.0241 13.9625 27.6788 17.1709 31.519L17.1308 31.5318C16.3686 31.5712 15.7703 32.1917 15.5859 32.778C15.3967 33.38 15.5325 33.962 15.6416 34.4299C15.7146 34.7429 15.8505 35.3252 16.4115 35.5825C16.5955 35.6673 16.791 35.6979 16.9822 35.6979C17.0142 35.6979 17.0447 35.6936 17.0764 35.692C16.8812 36.1752 16.9816 36.633 17.0562 36.9682C17.1053 37.1878 17.2197 37.7019 17.7596 37.8895C17.8929 37.9361 18.0309 37.9549 18.1708 37.9549C18.4387 37.9549 18.7141 37.8858 18.9796 37.8107L19.1636 37.7588C19.4946 38.6723 19.4346 39.754 20.1822 40.472C20.898 41.1594 21.9116 41.0014 22.7679 40.7259C23.5043 40.4892 24.286 40.1812 24.6233 39.4225C25.0852 38.3842 24.5111 37.3185 24.4097 36.2746L24.4738 36.2565C24.7986 36.1645 25.203 36.0504 25.5278 35.8074C26.3518 35.191 26.0916 34.1678 26.0062 33.8316C25.9636 33.664 25.8663 33.2975 25.5309 33.0742C26.2293 32.3155 25.9269 31.1453 25.8085 30.6887C25.7277 30.3782 25.539 29.6517 24.7302 29.4982C24.3404 29.4247 23.9653 29.5501 23.6905 29.6417C23.5512 29.6883 23.3498 29.7502 23.1055 29.8228C23.8064 24.8617 26.4482 20.2797 26.5371 15.2139C26.6101 11.0713 24.1054 7.15158 20.3077 5.51665C16.3235 3.80168 11.3674 4.97376 8.49627 8.22453C5.56329 11.5453 5.00504 16.5152 6.98346 20.457Z" fill="url(#paint0_linear_12498_3671)"/>
<path d="M3.62622 24.5022C4.37127 23.8889 5.11664 23.2754 5.86201 22.6618C6.3267 22.2793 5.6637 21.6189 5.20274 21.9985C4.45737 22.6118 3.71201 23.2253 2.96664 23.8389C2.50195 24.2214 3.16526 24.8818 3.62622 24.5022Z" fill="url(#paint1_linear_12498_3671)"/>
<path d="M0.450274 17.4834C1.39892 17.4834 2.34757 17.4834 3.29591 17.4834C3.89612 17.4834 3.89705 16.5452 3.29591 16.5452C2.34757 16.5452 1.39892 16.5452 0.450274 16.5452C-0.149625 16.5452 -0.150557 17.4834 0.450274 17.4834Z" fill="url(#paint2_linear_12498_3671)"/>
<path d="M1.23099 9.44382C2.17963 9.85286 3.12797 10.2619 4.07662 10.6709C4.62212 10.9061 5.09769 10.098 4.54721 9.86067C3.59888 9.45194 2.65023 9.0429 1.70158 8.63385C1.15608 8.39837 0.680509 9.20646 1.23099 9.44382Z" fill="url(#paint3_linear_12498_3671)"/>
<path d="M7.86924 5.25063C8.31434 5.6531 8.9761 4.99169 8.5285 4.58734C7.85028 3.9744 7.17205 3.36178 6.49382 2.74884C6.04841 2.34636 5.38696 3.00777 5.83456 3.41212C6.51278 4.02506 7.19101 4.63769 7.86924 5.25063Z" fill="url(#paint4_linear_12498_3671)"/>
<path d="M13.4 2.28821C13.4653 2.88176 14.3987 2.88833 14.3325 2.28821C14.2648 1.67465 14.197 1.06107 14.1292 0.447507C14.0637 -0.14573 13.1302 -0.15261 13.1968 0.447507C13.2645 1.06107 13.3323 1.67465 13.4 2.28821Z" fill="url(#paint5_linear_12498_3671)"/>
<path d="M21.5342 3.54814C21.8926 2.76539 22.2429 1.97889 22.6012 1.19614C22.8508 0.65169 22.0473 0.174469 21.7962 0.722675C21.4378 1.50542 21.0875 2.29191 20.7291 3.07435C20.4795 3.61911 21.283 4.09634 21.5342 3.54814Z" fill="url(#paint6_linear_12498_3671)"/>
<path d="M28.5011 16.6659C29.5175 16.6659 30.5339 16.6659 31.5503 16.6659C32.1502 16.6659 32.1511 15.7277 31.5503 15.7277C30.5339 15.7277 29.5175 15.7277 28.5011 15.7277C27.9012 15.7277 27.9002 16.6659 28.5011 16.6659Z" fill="url(#paint7_linear_12498_3671)"/>
<path d="M28.3386 11.7134C29.0871 11.3794 29.8353 11.0454 30.5837 10.7115C31.1311 10.4672 30.6574 9.65851 30.1131 9.9015C29.3647 10.2355 28.6165 10.5695 27.868 10.9035C27.3207 11.1477 27.7944 11.9564 28.3386 11.7134Z" fill="url(#paint8_linear_12498_3671)"/>
<path d="M25.9078 6.88656C26.4956 6.45156 27.0833 6.01655 27.6711 5.58124C28.1492 5.22724 27.6848 4.41259 27.2002 4.77129C26.6127 5.20629 26.025 5.64159 25.4372 6.07659C24.9588 6.43059 25.4235 7.24525 25.9078 6.88656Z" fill="url(#paint9_linear_12498_3671)"/>
<defs>
<linearGradient id="paint0_linear_12498_3671" x1="5.81641" y1="13.4103" x2="26.5646" y2="13.2878" gradientUnits="userSpaceOnUse">
<stop stop-color="#FF0A54"/>
<stop offset="1" stop-color="#FF6F00"/>
</linearGradient>
<linearGradient id="paint1_linear_12498_3671" x1="2.80859" y1="22.5391" x2="6.02377" y2="22.5001" gradientUnits="userSpaceOnUse">
<stop stop-color="#FF0A54"/>
<stop offset="1" stop-color="#FF6F00"/>
</linearGradient>
<linearGradient id="paint2_linear_12498_3671" x1="-1.97792e-08" y1="16.77" x2="3.74488" y2="16.6156" gradientUnits="userSpaceOnUse">
<stop stop-color="#FF0A54"/>
<stop offset="1" stop-color="#FF6F00"/>
</linearGradient>
<linearGradient id="paint3_linear_12498_3671" x1="0.986328" y1="9.09972" x2="4.79548" y2="9.02918" gradientUnits="userSpaceOnUse">
<stop stop-color="#FF0A54"/>
<stop offset="1" stop-color="#FF6F00"/>
</linearGradient>
<linearGradient id="paint4_linear_12498_3671" x1="5.68555" y1="3.283" x2="8.68096" y2="3.24938" gradientUnits="userSpaceOnUse">
<stop stop-color="#FF0A54"/>
<stop offset="1" stop-color="#FF6F00"/>
</linearGradient>
<linearGradient id="paint5_linear_12498_3671" x1="13.1934" y1="0.655458" x2="14.3373" y2="0.650525" gradientUnits="userSpaceOnUse">
<stop stop-color="#FF0A54"/>
<stop offset="1" stop-color="#FF6F00"/>
</linearGradient>
<linearGradient id="paint6_linear_12498_3671" x1="20.6816" y1="1.27316" x2="22.6512" y2="1.26108" gradientUnits="userSpaceOnUse">
<stop stop-color="#FF0A54"/>
<stop offset="1" stop-color="#FF6F00"/>
</linearGradient>
<linearGradient id="paint7_linear_12498_3671" x1="28.0508" y1="15.9525" x2="31.9982" y2="15.7809" gradientUnits="userSpaceOnUse">
<stop stop-color="#FF0A54"/>
<stop offset="1" stop-color="#FF6F00"/>
</linearGradient>
<linearGradient id="paint8_linear_12498_3671" x1="27.625" y1="10.3122" x2="30.8299" y2="10.2565" gradientUnits="userSpaceOnUse">
<stop stop-color="#FF0A54"/>
<stop offset="1" stop-color="#FF6F00"/>
</linearGradient>
<linearGradient id="paint9_linear_12498_3671" x1="25.2363" y1="5.23157" x2="27.8749" y2="5.20027" gradientUnits="userSpaceOnUse">
<stop stop-color="#FF0A54"/>
<stop offset="1" stop-color="#FF6F00"/>
</linearGradient>
</defs>
</svg>
