<svg width="128" height="120" viewBox="0 0 128 120" fill="none" xmlns="http://www.w3.org/2000/svg">
<path d="M105.649 10.0022V109.987C105.649 115.514 101.175 119.989 95.6485 119.989H18.7633C13.2397 119.989 8.7627 115.514 8.7627 109.987V10.0022C8.7627 4.50106 13.2397 -0.000389099 18.7633 -0.000389099H95.6485C101.175 -0.000389099 105.649 4.50106 105.649 10.0022Z" fill="#FCFDFD"/>
<path d="M29.915 0.0129623H18.771C13.2474 0.0129623 8.77051 4.49086 8.77051 10.0156V109.997C8.77051 115.522 13.2474 120 18.771 120H29.915V0.0129623Z" fill="#FB3189"/>
<path d="M94.6307 56.957H40.9335C40.4913 56.957 40.1328 56.5985 40.1328 56.1562V17.7133C40.1328 17.271 40.4913 16.9125 40.9335 16.9125H94.6307C95.0729 16.9125 95.4314 17.271 95.4314 17.7133V56.1562C95.4314 56.5985 95.0729 56.957 94.6307 56.957Z" fill="white"/>
<path d="M95.222 86.1016H52.4096C51.8627 86.1016 51.418 85.6566 51.418 85.1097C51.418 84.5627 51.8627 84.1178 52.4096 84.1178H95.222C95.7688 84.1178 96.211 84.5627 96.211 85.1097C96.211 85.6566 95.7688 86.1016 95.222 86.1016Z" fill="#090B0E"/>
<path d="M46.3189 86.1016H40.3452C39.7957 86.1016 39.3535 85.6566 39.3535 85.1097C39.3535 84.5627 39.7957 84.1178 40.3452 84.1178H46.3189C46.8657 84.1178 47.3079 84.5627 47.3079 85.1097C47.3079 85.6566 46.8657 86.1016 46.3189 86.1016Z" fill="#090B0E"/>
<path d="M90.5648 96.1611H66.2778C65.7309 96.1611 65.2861 95.7162 65.2861 95.1693C65.2861 94.6197 65.7309 94.1774 66.2778 94.1774H90.5648C91.1143 94.1774 91.5565 94.6197 91.5565 95.1693C91.5565 95.7162 91.1143 96.1611 90.5648 96.1611Z" fill="#090B0E"/>
<path d="M61.6105 96.1611H45.0005C44.4536 96.1611 44.0088 95.7162 44.0088 95.1693C44.0088 94.6197 44.4536 94.1774 45.0005 94.1774H61.6105C62.16 94.1774 62.6021 94.6197 62.6021 95.1693C62.6021 95.7162 62.16 96.1611 61.6105 96.1611Z" fill="#090B0E"/>
<path d="M83.4901 106.219H77.6342C77.0847 106.219 76.6426 105.776 76.6426 105.227C76.6426 104.68 77.0847 104.235 77.6342 104.235H83.4901C84.037 104.235 84.4792 104.68 84.4792 105.227C84.4792 105.776 84.037 106.219 83.4901 106.219Z" fill="#090B0E"/>
<path d="M73.1959 106.219H52.0776C51.5281 106.219 51.0859 105.776 51.0859 105.227C51.0859 104.68 51.5281 104.235 52.0776 104.235H73.1959C73.7454 104.235 74.1876 104.68 74.1876 105.227C74.1876 105.776 73.7454 106.219 73.1959 106.219Z" fill="#090B0E"/>
<path d="M20.4958 21.5488H1.01544C0.730238 21.5488 0.5 21.3159 0.5 21.0306V14.234C0.5 13.9487 0.730238 13.7184 1.01544 13.7184H20.4958C20.781 13.7184 21.0112 13.9487 21.0112 14.234V21.0306C21.0112 21.3159 20.781 21.5488 20.4958 21.5488Z" fill="#47586E"/>
<path d="M20.4958 42.7363H1.01544C0.730238 42.7363 0.5 42.5034 0.5 42.2181V35.4215C0.5 35.1362 0.730238 34.9059 1.01544 34.9059H20.4958C20.781 34.9059 21.0112 35.1362 21.0112 35.4215V42.2181C21.0112 42.5034 20.781 42.7363 20.4958 42.7363Z" fill="#47586E"/>
<path d="M20.4958 63.9209H1.01544C0.730238 63.9209 0.5 63.6906 0.5 63.4053V56.6087C0.5 56.3234 0.730238 56.0931 1.01544 56.0931H20.4958C20.781 56.0931 21.0112 56.3234 21.0112 56.6087V63.4053C21.0112 63.6906 20.781 63.9209 20.4958 63.9209Z" fill="#47586E"/>
<path d="M20.4958 85.1104H1.01544C0.730238 85.1104 0.5 84.88 0.5 84.5948V77.7981C0.5 77.5128 0.730238 77.2799 1.01544 77.2799H20.4958C20.781 77.2799 21.0112 77.5128 21.0112 77.7981V84.5948C21.0112 84.88 20.781 85.1104 20.4958 85.1104Z" fill="#47586E"/>
<path d="M20.4958 106.297H1.01544C0.730238 106.297 0.5 106.067 0.5 105.781V98.9847C0.5 98.6994 0.730238 98.4665 1.01544 98.4665H20.4958C20.781 98.4665 21.0112 98.6994 21.0112 98.9847V105.781C21.0112 106.067 20.781 106.297 20.4958 106.297Z" fill="#47586E"/>
<path d="M55.67 36.4178C54.9609 36.1404 54.0189 35.8604 52.8624 35.5803C52.0094 35.384 51.3291 35.1982 50.8424 35.0281C50.4028 34.8737 50.0339 34.6565 49.7461 34.3817C49.508 34.1514 49.3928 33.8556 49.3928 33.4735C49.3928 32.869 49.6571 32.4267 50.2223 32.0839C50.8529 31.7018 51.698 31.5081 52.7316 31.5081C53.8619 31.5081 54.974 31.6965 56.0128 32.0525C56.2142 32.1336 56.3843 32.1755 56.5335 32.1755C56.9338 32.1755 57.2792 32.0184 57.5278 31.7227C57.7606 31.4505 57.8783 31.1339 57.8783 30.7884C57.8783 30.1524 57.5513 29.684 56.9625 29.472C55.6385 28.9826 54.1419 28.7366 52.517 28.7366C51.2742 28.7366 50.1909 28.9512 49.2934 29.3725C48.3776 29.8017 47.6685 30.3958 47.1896 31.1365C46.7108 31.8797 46.4675 32.7172 46.4675 33.6253C46.4675 34.6774 46.771 35.5411 47.3702 36.1875C47.9354 36.7999 48.6157 37.2631 49.3954 37.5667C50.1281 37.8546 51.0936 38.1504 52.2658 38.4566C53.124 38.6816 53.7887 38.8753 54.2492 39.0349C54.66 39.1789 55.0054 39.3752 55.2775 39.6159C55.4973 39.8122 55.5993 40.0373 55.5993 40.3304C55.5993 41.181 55.2592 42.3168 52.3234 42.3168C50.8947 42.3168 49.5367 42.0341 48.286 41.4767C47.7418 41.2385 47.0902 41.3485 46.6899 41.7751C46.4466 42.0446 46.3184 42.377 46.3184 42.7381C46.3184 43.0208 46.4047 43.2904 46.5748 43.5416C46.7422 43.7798 46.9568 43.9551 47.2132 44.0624C48.8564 44.7743 50.6409 45.1328 52.517 45.1328C53.6657 45.1328 54.6966 44.9391 55.5888 44.557C56.4968 44.1645 57.2164 43.607 57.724 42.9004C58.2395 42.1833 58.5011 41.3616 58.5011 40.4586C58.5011 39.3699 58.2133 38.4827 57.6428 37.8206C57.096 37.1898 56.434 36.7162 55.67 36.4178Z" fill="#090B0E"/>
<path d="M70.6079 31.7444C70.9926 31.7444 71.3275 31.6135 71.5996 31.3518C71.8717 31.0901 72.0156 30.7473 72.0156 30.3599C72.0156 29.9726 71.8744 29.6271 71.6049 29.3602C71.3354 29.0932 70.9899 28.9519 70.6079 28.9519H61.9916C61.5886 28.9519 61.2328 29.1011 60.9554 29.389C60.6859 29.669 60.542 30.0276 60.542 30.4227V43.4691C60.542 43.8669 60.6859 44.2228 60.9606 44.4976C61.238 44.7724 61.5939 44.9189 61.9916 44.9189H70.6079C70.9926 44.9189 71.3275 44.7881 71.597 44.5264C71.8717 44.2673 72.0156 43.9218 72.0156 43.5319C72.0156 43.1472 71.8744 42.8017 71.6049 42.5321C71.3354 42.2652 70.9899 42.1239 70.6079 42.1239H63.4621V38.3212H69.8334C70.2181 38.3212 70.553 38.1903 70.8251 37.9286C71.0972 37.6669 71.2438 37.3241 71.2438 36.9341C71.2438 36.5494 71.1025 36.2039 70.833 35.937C70.5635 35.6674 70.2181 35.5261 69.8334 35.5261H63.4621V31.7444H70.6079Z" fill="#090B0E"/>
<path d="M81.223 42.3377C80.1606 42.3377 79.237 42.1022 78.4782 41.6364C77.722 41.1705 77.1333 40.5267 76.7329 39.7285C76.3248 38.9093 76.1207 37.9671 76.1207 36.9334C76.1207 35.897 76.3248 34.9575 76.7329 34.1409C77.1333 33.3401 77.722 32.6963 78.4782 32.2304C79.2344 31.7646 80.158 31.529 81.223 31.529C82.2722 31.529 83.1933 31.7646 83.9547 32.233C84.7187 32.6989 85.3101 33.3401 85.7104 34.1409C86.1186 34.9575 86.3253 35.897 86.3253 36.9334C86.3253 37.9671 86.1186 38.9093 85.7104 39.7259C85.3022 40.5398 84.7292 41.1626 83.9547 41.6337C83.1906 42.1022 82.2722 42.3377 81.223 42.3377ZM88.2144 32.7198C87.5498 31.4767 86.6053 30.49 85.4095 29.7887C84.2137 29.0873 82.8034 28.7366 81.223 28.7366C79.6373 28.7366 78.227 29.0873 77.0234 29.7887C75.8171 30.49 74.8752 31.4741 74.221 32.7093C73.5695 33.9342 73.2267 35.3526 73.1953 36.9438C73.2267 38.5167 73.5695 39.9352 74.221 41.1574C74.8752 42.3953 75.8198 43.3767 77.0234 44.0781C78.2244 44.7795 79.6373 45.1328 81.223 45.1328C82.806 45.1328 84.2137 44.7795 85.4095 44.0781C86.6053 43.3767 87.5498 42.3901 88.2144 41.1496C88.8712 39.9169 89.2166 38.5037 89.248 36.9255C89.2166 35.3657 88.8712 33.9525 88.2144 32.7198Z" fill="#090B0E"/>
<path d="M127.158 40.8693L104.574 94.7715L86.4336 87.2813L109.017 33.3791C109.97 31.0734 112.625 29.969 114.931 30.9216L124.701 34.952C127.006 35.9046 128.11 38.561 127.158 40.8693Z" fill="#3275C6"/>
<path d="M104.574 94.7712L95.2227 103.716L91.0597 107.681C89.5133 109.157 86.9647 108.105 86.9098 105.97L86.7555 100.223L86.4336 87.281L104.574 94.7712Z" fill="#A3ADBB"/>
<path d="M95.2216 103.716L91.0587 107.681C89.5123 109.157 86.9637 108.105 86.9087 105.97L86.7544 100.223C88.3034 99.9007 89.9544 100.016 91.5348 100.67C93.0969 101.314 94.3686 102.405 95.2216 103.716Z" fill="#47586E"/>
<path d="M98.2778 92.1719L92.728 89.8793L111.983 44.0431L117.536 46.333L98.2778 92.1719Z" fill="#FB3189"/>
<path d="M122.872 51.2607L127.158 40.8708C128.11 38.5625 127.006 35.9061 124.701 34.9535L114.93 30.9231C112.625 29.9705 109.969 31.0749 109.017 33.3806L104.731 43.7732L122.872 51.2607Z" fill="white"/>
<path d="M127.157 40.8705L124.723 46.7695L106.583 39.282L109.016 33.3804C109.968 31.0747 112.624 29.9702 114.929 30.9229L124.7 34.9532C127.005 35.9059 128.109 38.5622 127.157 40.8705Z" fill="#47586E"/>
</svg>
