<svg width="32" height="32" viewBox="0 0 32 32" fill="none" xmlns="http://www.w3.org/2000/svg">
<path d="M30.593 17.3029H26.4239C26.1112 17.3029 25.8505 17.5114 25.7459 17.8241C25.4852 19.1792 24.9643 20.43 24.1828 21.5765C24.0261 21.8371 24.0261 22.202 24.2868 22.4104L27.2575 25.3811L25.3811 27.2573L22.4105 24.2866C22.2018 24.0782 21.837 24.0261 21.5763 24.1824C20.43 24.9642 19.1791 25.4853 17.8241 25.7459C17.5116 25.798 17.3029 26.0586 17.3029 26.4235V30.5928H14.6972V26.4235C14.6972 26.1107 14.4887 25.8502 14.176 25.7459C12.8208 25.4853 11.57 24.9642 10.4235 24.1824C10.1629 24.0261 9.79794 24.0261 9.58949 24.2866L6.61896 27.2573L4.74248 25.3811L7.71342 22.4104C7.92187 22.202 7.9738 21.8371 7.81764 21.5765C7.03577 20.43 6.51453 19.1792 6.25409 17.8241C6.20201 17.5114 5.94116 17.3029 5.5765 17.3029H1.40693V14.6971H5.5765C5.88923 14.6971 6.14987 14.4886 6.25409 14.1759C6.51453 12.8208 7.03577 11.57 7.81764 10.4235C7.9738 10.1629 7.9738 9.79805 7.71342 9.58958L4.74248 6.61889L6.61896 4.74267L9.58949 7.71336C9.79794 7.92183 10.1629 7.97394 10.4235 7.81759C11.57 7.03583 12.8208 6.51466 14.176 6.25407C14.4887 6.20196 14.6972 5.94137 14.6972 5.57655V1.40717H17.3029V5.57655C17.3029 5.88925 17.5116 6.14984 17.8241 6.25407C19.1791 6.51466 20.43 7.03583 21.5763 7.81759C21.837 7.97394 22.2023 7.97394 22.4105 7.71336L25.3811 4.74267L27.2575 6.61889L24.2868 9.58958C24.0782 9.79805 24.0261 10.1629 24.1828 10.4235C24.9643 11.57 25.4852 12.8208 25.7459 14.1759C25.7985 14.4886 26.0586 14.6971 26.4239 14.6971H30.593V17.3029ZM31.2705 13.342H26.9448C26.6846 12.1954 26.2153 11.101 25.5898 10.1108L28.6125 7.08795C28.8732 6.82736 28.8732 6.41043 28.6125 6.14984L25.7985 3.33551C25.5378 3.07492 25.1204 3.07492 24.8603 3.33551L21.8891 6.35831C20.8994 5.7329 19.8045 5.31596 18.6582 5.00326V0.677525C18.6582 0.312704 18.3455 1.90735e-06 17.9802 1.90735e-06H14.0196C13.6548 1.90735e-06 13.342 0.312704 13.342 0.677525V5.00326C12.1955 5.26385 11.1009 5.7329 10.1107 6.35831L7.08791 3.33551C6.82726 3.07492 6.41046 3.07492 6.14987 3.33551L3.33555 6.14984C3.07491 6.41043 3.07491 6.82736 3.33555 7.08795L6.35837 10.1108C5.73286 11.101 5.31585 12.1954 5.00312 13.342H0.677394C0.312731 13.342 0 13.6547 0 14.0195V17.9805C0 18.3453 0.312731 18.658 0.677394 18.658H5.00312C5.26376 19.8046 5.73286 20.899 6.35837 21.8893L3.33555 24.9121C3.07491 25.1726 3.07491 25.5896 3.33555 25.8502L6.14987 28.6645C6.41046 28.9251 6.82726 28.9251 7.08791 28.6645L10.1107 25.6417C11.1009 26.2671 12.1955 26.684 13.342 26.9967V31.3225C13.342 31.6873 13.6548 32 14.0196 32H17.9802C18.3455 32 18.6582 31.6873 18.6582 31.3225V26.9967C19.8045 26.7362 20.8994 26.2671 21.8891 25.6417L24.9123 28.6645C25.1725 28.9251 25.5898 28.9251 25.8505 28.6645L28.6646 25.8502C28.9252 25.5896 28.9252 25.1726 28.6646 24.9121L25.6418 21.8893C26.2673 20.899 26.6846 19.8046 26.9968 18.658H31.3225C31.6873 18.658 32 18.3453 32 17.9805V14.0195C31.948 13.6547 31.6352 13.342 31.2705 13.342Z" fill="url(#paint0_linear_12498_3632)"/>
<path d="M15.9993 23.2963C11.9861 23.2963 8.70286 20.0129 8.70286 15.9999C8.70286 11.9869 11.9861 8.70348 15.9993 8.70348C20.0123 8.70348 23.2957 11.9869 23.2957 15.9999C23.2957 20.0129 20.0123 23.2963 15.9993 23.2963ZM15.9993 7.34844C11.2566 7.34844 7.34766 11.2051 7.34766 15.9999C7.34766 20.7426 11.2044 24.6514 15.9993 24.6514C20.7939 24.6514 24.6507 20.7947 24.6507 15.9999C24.6507 11.2572 20.7418 7.34844 15.9993 7.34844Z" fill="url(#paint1_linear_12498_3632)"/>
<path d="M19.9605 12.0393H18.6575C18.3448 12.0393 18.0321 12.2999 17.9795 12.6126L17.4067 17.3032H12.6639C12.2993 17.3032 11.9863 17.6159 11.9863 17.9807C11.9863 18.3455 12.2993 18.6582 12.6639 18.6582H17.9795C18.2928 18.6582 18.6055 18.3976 18.6575 18.0849L19.231 13.3422H19.9605C20.3253 13.3422 20.638 13.0295 20.638 12.6647C20.638 12.2999 20.3253 12.0393 19.9605 12.0393Z" fill="url(#paint2_linear_12498_3632)"/>
<path d="M16.6774 19.3354C16.3128 19.3354 16 19.6481 16 20.0129C16 20.3777 16.3128 20.6904 16.6774 20.6904C17.0423 20.6904 17.3548 20.3777 17.3548 20.0129C17.3548 19.6481 17.0423 19.3354 16.6774 19.3354Z" fill="url(#paint3_linear_12498_3632)"/>
<path d="M14.0194 19.3354C13.6545 19.3354 13.3418 19.6481 13.3418 20.0129C13.3418 20.3777 13.6545 20.6904 14.0194 20.6904C14.3841 20.6904 14.697 20.3777 14.697 20.0129C14.697 19.6481 14.3841 19.3354 14.0194 19.3354Z" fill="url(#paint4_linear_12498_3632)"/>
<path d="M13.3415 16.6777H15.9996C16.3643 16.6777 16.6771 16.365 16.6771 16.0002C16.6771 15.6354 16.3643 15.3227 15.9996 15.3227H13.3415C12.9768 15.3227 12.6641 15.6354 12.6641 16.0002C12.6641 16.365 12.9768 16.6777 13.3415 16.6777Z" fill="url(#paint5_linear_12498_3632)"/>
<path d="M13.3415 14.6973H15.9996C16.3643 14.6973 16.6771 14.3846 16.6771 14.0197C16.6771 13.6549 16.3643 13.3422 15.9996 13.3422H13.3415C12.9768 13.3422 12.6641 13.6549 12.6641 14.0197C12.6641 14.3846 12.9768 14.6973 13.3415 14.6973Z" fill="url(#paint6_linear_12498_3632)"/>
<path d="M2.0332 27.3094H3.33631V28.6123H2.0332V27.3094Z" fill="url(#paint7_linear_12498_3632)"/>
<path d="M2.0332 29.9676H3.33631V31.2705H2.0332V29.9676Z" fill="url(#paint8_linear_12498_3632)"/>
<path d="M3.38672 28.6121H4.68962V29.915H3.38672V28.6121Z" fill="url(#paint9_linear_12498_3632)"/>
<path d="M0.728516 28.6121H2.03142V29.915H0.728516V28.6121Z" fill="url(#paint10_linear_12498_3632)"/>
<path d="M2.0332 0.729295H3.33631V2.03223H2.0332V0.729295Z" fill="url(#paint11_linear_12498_3632)"/>
<path d="M2.0332 3.3875H3.33631V4.69043H2.0332V3.3875Z" fill="url(#paint12_linear_12498_3632)"/>
<path d="M3.38672 2.03203H4.68962V3.33496H3.38672V2.03203Z" fill="url(#paint13_linear_12498_3632)"/>
<path d="M0.728516 2.03203H2.03142V3.33496H0.728516V2.03203Z" fill="url(#paint14_linear_12498_3632)"/>
<path d="M28.6133 0.729295H29.9162V2.03223H28.6133V0.729295Z" fill="url(#paint15_linear_12498_3632)"/>
<path d="M28.6133 3.3875H29.9162V4.69043H28.6133V3.3875Z" fill="url(#paint16_linear_12498_3632)"/>
<path d="M29.9668 2.03203H31.2698V3.33496H29.9668V2.03203Z" fill="url(#paint17_linear_12498_3632)"/>
<path d="M27.3086 2.03203H28.6116V3.33496H27.3086V2.03203Z" fill="url(#paint18_linear_12498_3632)"/>
<path d="M28.6133 27.3094H29.9162V28.6123H28.6133V27.3094Z" fill="url(#paint19_linear_12498_3632)"/>
<path d="M28.6133 29.9676H29.9162V31.2705H28.6133V29.9676Z" fill="url(#paint20_linear_12498_3632)"/>
<path d="M29.9668 28.6121H31.2698V29.915H29.9668V28.6121Z" fill="url(#paint21_linear_12498_3632)"/>
<path d="M27.3086 28.6121H28.6116V29.915H27.3086V28.6121Z" fill="url(#paint22_linear_12498_3632)"/>
<defs>
<linearGradient id="paint0_linear_12498_3632" x1="-1.68944e-07" y1="7.66667" x2="32.0379" y2="7.33582" gradientUnits="userSpaceOnUse">
<stop stop-color="#FF0A54"/>
<stop offset="1" stop-color="#FF6F00"/>
</linearGradient>
<linearGradient id="paint1_linear_12498_3632" x1="7.34766" y1="11.4939" x2="24.6712" y2="11.315" gradientUnits="userSpaceOnUse">
<stop stop-color="#FF0A54"/>
<stop offset="1" stop-color="#FF6F00"/>
</linearGradient>
<linearGradient id="paint2_linear_12498_3632" x1="11.9863" y1="13.6251" x2="20.6476" y2="13.5082" gradientUnits="userSpaceOnUse">
<stop stop-color="#FF0A54"/>
<stop offset="1" stop-color="#FF6F00"/>
</linearGradient>
<linearGradient id="paint3_linear_12498_3632" x1="16" y1="19.66" x2="17.3564" y2="19.646" gradientUnits="userSpaceOnUse">
<stop stop-color="#FF0A54"/>
<stop offset="1" stop-color="#FF6F00"/>
</linearGradient>
<linearGradient id="paint4_linear_12498_3632" x1="13.3418" y1="19.66" x2="14.6986" y2="19.646" gradientUnits="userSpaceOnUse">
<stop stop-color="#FF0A54"/>
<stop offset="1" stop-color="#FF6F00"/>
</linearGradient>
<linearGradient id="paint5_linear_12498_3632" x1="12.6641" y1="15.6473" x2="16.6785" y2="15.5246" gradientUnits="userSpaceOnUse">
<stop stop-color="#FF0A54"/>
<stop offset="1" stop-color="#FF6F00"/>
</linearGradient>
<linearGradient id="paint6_linear_12498_3632" x1="12.6641" y1="13.6669" x2="16.6785" y2="13.5441" gradientUnits="userSpaceOnUse">
<stop stop-color="#FF0A54"/>
<stop offset="1" stop-color="#FF6F00"/>
</linearGradient>
<linearGradient id="paint7_linear_12498_3632" x1="2.0332" y1="27.6215" x2="3.33786" y2="27.6081" gradientUnits="userSpaceOnUse">
<stop stop-color="#FF0A54"/>
<stop offset="1" stop-color="#FF6F00"/>
</linearGradient>
<linearGradient id="paint8_linear_12498_3632" x1="2.0332" y1="30.2797" x2="3.33786" y2="30.2663" gradientUnits="userSpaceOnUse">
<stop stop-color="#FF0A54"/>
<stop offset="1" stop-color="#FF6F00"/>
</linearGradient>
<linearGradient id="paint9_linear_12498_3632" x1="3.38672" y1="28.9243" x2="4.69117" y2="28.9108" gradientUnits="userSpaceOnUse">
<stop stop-color="#FF0A54"/>
<stop offset="1" stop-color="#FF6F00"/>
</linearGradient>
<linearGradient id="paint10_linear_12498_3632" x1="0.728516" y1="28.9243" x2="2.03296" y2="28.9108" gradientUnits="userSpaceOnUse">
<stop stop-color="#FF0A54"/>
<stop offset="1" stop-color="#FF6F00"/>
</linearGradient>
<linearGradient id="paint11_linear_12498_3632" x1="2.0332" y1="1.04146" x2="3.33786" y2="1.02798" gradientUnits="userSpaceOnUse">
<stop stop-color="#FF0A54"/>
<stop offset="1" stop-color="#FF6F00"/>
</linearGradient>
<linearGradient id="paint12_linear_12498_3632" x1="2.0332" y1="3.69966" x2="3.33786" y2="3.68618" gradientUnits="userSpaceOnUse">
<stop stop-color="#FF0A54"/>
<stop offset="1" stop-color="#FF6F00"/>
</linearGradient>
<linearGradient id="paint13_linear_12498_3632" x1="3.38672" y1="2.34419" x2="4.69117" y2="2.33072" gradientUnits="userSpaceOnUse">
<stop stop-color="#FF0A54"/>
<stop offset="1" stop-color="#FF6F00"/>
</linearGradient>
<linearGradient id="paint14_linear_12498_3632" x1="0.728516" y1="2.34419" x2="2.03296" y2="2.33072" gradientUnits="userSpaceOnUse">
<stop stop-color="#FF0A54"/>
<stop offset="1" stop-color="#FF6F00"/>
</linearGradient>
<linearGradient id="paint15_linear_12498_3632" x1="28.6133" y1="1.04146" x2="29.9178" y2="1.02798" gradientUnits="userSpaceOnUse">
<stop stop-color="#FF0A54"/>
<stop offset="1" stop-color="#FF6F00"/>
</linearGradient>
<linearGradient id="paint16_linear_12498_3632" x1="28.6133" y1="3.69966" x2="29.9178" y2="3.68619" gradientUnits="userSpaceOnUse">
<stop stop-color="#FF0A54"/>
<stop offset="1" stop-color="#FF6F00"/>
</linearGradient>
<linearGradient id="paint17_linear_12498_3632" x1="29.9668" y1="2.34419" x2="31.2713" y2="2.33072" gradientUnits="userSpaceOnUse">
<stop stop-color="#FF0A54"/>
<stop offset="1" stop-color="#FF6F00"/>
</linearGradient>
<linearGradient id="paint18_linear_12498_3632" x1="27.3086" y1="2.34419" x2="28.6131" y2="2.33072" gradientUnits="userSpaceOnUse">
<stop stop-color="#FF0A54"/>
<stop offset="1" stop-color="#FF6F00"/>
</linearGradient>
<linearGradient id="paint19_linear_12498_3632" x1="28.6133" y1="27.6215" x2="29.9178" y2="27.6081" gradientUnits="userSpaceOnUse">
<stop stop-color="#FF0A54"/>
<stop offset="1" stop-color="#FF6F00"/>
</linearGradient>
<linearGradient id="paint20_linear_12498_3632" x1="28.6133" y1="30.2797" x2="29.9178" y2="30.2663" gradientUnits="userSpaceOnUse">
<stop stop-color="#FF0A54"/>
<stop offset="1" stop-color="#FF6F00"/>
</linearGradient>
<linearGradient id="paint21_linear_12498_3632" x1="29.9668" y1="28.9243" x2="31.2713" y2="28.9108" gradientUnits="userSpaceOnUse">
<stop stop-color="#FF0A54"/>
<stop offset="1" stop-color="#FF6F00"/>
</linearGradient>
<linearGradient id="paint22_linear_12498_3632" x1="27.3086" y1="28.9243" x2="28.6131" y2="28.9108" gradientUnits="userSpaceOnUse">
<stop stop-color="#FF0A54"/>
<stop offset="1" stop-color="#FF6F00"/>
</linearGradient>
</defs>
</svg>
