<svg width="139" height="126" viewBox="0 0 139 126" fill="none" xmlns="http://www.w3.org/2000/svg">
<path d="M58.4468 52.3501C66.356 37.102 86.6982 28.2783 108.26 42.5912C122.615 52.7567 131.358 73.6874 131.358 90.074C131.358 113.455 111.839 125.206 90.368 125.856C52.6216 126.497 43.4723 80.3152 58.4468 52.3501Z" fill="#C8BFF4"/>
<g clip-path="url(#clip0_9354_1740)">
<path fill-rule="evenodd" clip-rule="evenodd" d="M77.3957 30.3086C78.0786 35.2829 77.4407 41.8938 75.1407 48.8734C72.8409 55.8527 69.4233 61.5489 65.9164 65.1444C62.2459 68.9078 59.3275 69.6108 57.6218 69.0494C55.9161 68.488 53.9868 66.1895 53.2721 60.9828C52.5892 56.0084 53.2271 49.3974 55.527 42.418C57.8269 35.4385 61.2445 29.7424 64.7513 26.147C68.4218 22.3838 71.3403 21.6805 73.046 22.2419C74.7517 22.8033 76.6809 25.102 77.3957 30.3086ZM84.2287 29.2427C83.401 23.2111 80.7654 17.3705 75.2494 15.5551C69.7335 13.7397 64.141 16.8721 59.8891 21.232C55.4732 25.7594 51.5569 32.4737 48.9891 40.2662C46.4212 48.0589 45.5791 55.7848 46.439 62.0487C47.2667 68.0801 49.9023 73.9209 55.4183 75.7364C60.9342 77.5518 66.5268 74.4191 70.7786 70.0594C75.1945 65.532 79.1108 58.8178 81.6787 51.0252C84.2465 43.2326 85.0886 35.5066 84.2287 29.2427Z" fill="#4E2FDA"/>
<path d="M96.4318 27.8957C88.8745 22.4457 81.0364 17.4601 75.25 15.5557C73.8248 15.0866 72.2888 15.861 71.8194 17.2855C71.35 18.7099 72.125 20.2449 73.5502 20.714C75.8468 21.4699 77.9857 24.3107 78.7891 29.7897C79.5663 35.0891 78.9178 42.0435 76.5177 49.3269C74.1177 56.6103 70.5044 62.589 66.7285 66.3897C62.8246 70.3195 59.4152 71.3344 57.1187 70.5785C55.6934 70.1094 54.1574 70.8839 53.688 72.3083C53.2186 73.7327 53.9936 75.2678 55.4189 75.7369C61.2053 77.6414 70.4739 78.2858 79.7926 78.3903C89.2261 78.4958 99.1025 78.0454 106.325 77.5973C114.06 77.1174 120.572 71.8987 122.971 64.616C125.371 57.3334 123.237 49.2689 117.301 44.2897C111.758 39.64 104.082 33.4126 96.4318 27.8957Z" fill="#4E2FDA"/>
<path fill-rule="evenodd" clip-rule="evenodd" d="M101.789 71.9688C99.8264 71.5816 97.9211 72.8578 97.5336 74.8195C96.1118 82.0177 90.4691 87.6117 83.339 88.9457L75.4403 90.4233C73.4733 90.7914 72.1776 92.6829 72.5457 94.6483C72.9141 96.6137 74.8067 97.909 76.7733 97.5408L84.6724 96.063C94.7427 94.1791 102.651 86.2997 104.642 76.2221C105.029 74.2604 103.752 72.3561 101.789 71.9688Z" fill="#4E2FDA"/>
</g>
<path fill-rule="evenodd" clip-rule="evenodd" d="M29.1934 44.516C25.3297 45.1245 21.5236 46.2823 17.8433 47.4316C17.0518 47.6817 16.5947 48.5193 16.8767 49.2751C17.1054 50.0559 17.9476 50.48 18.6856 50.2544C22.2513 49.1375 25.9374 48.0017 29.6241 47.431C30.4114 47.3128 30.9713 46.5569 30.8596 45.749C30.7481 44.9416 29.9809 44.3984 29.1934 44.516Z" fill="#4E2FDA"/>
<path fill-rule="evenodd" clip-rule="evenodd" d="M33.4831 31.8791C25.3963 28.7847 16.9459 26.7321 8.89691 23.4379C8.16833 23.1197 7.29928 23.4829 6.99516 24.231C6.69128 24.9797 7.02644 25.8508 7.8085 26.1446C15.8651 29.4553 24.3228 31.5239 32.4172 34.6349C33.1934 34.9158 34.0525 34.5313 34.35 33.7688C34.5942 33.0313 34.2593 32.16 33.4831 31.8791Z" fill="#4E2FDA"/>
<path fill-rule="evenodd" clip-rule="evenodd" d="M29.8307 15.9947C32.1957 18.633 34.5604 21.2715 36.9257 23.9103C37.436 24.54 38.379 24.5819 38.9944 24.0332C39.6094 23.484 39.632 22.5781 39.1214 21.9479C36.7527 19.305 34.3847 16.6624 32.0164 14.02C31.4604 13.4272 30.5202 13.3884 29.9077 13.9407C29.3411 14.4561 29.2751 15.4024 29.8307 15.9947Z" fill="#4E2FDA"/>
<defs>
<clipPath id="clip0_9354_1740">
<rect width="86.9422" height="86.8998" fill="white" transform="matrix(-0.949876 -0.312628 -0.31297 0.949763 138.604 31.6426)"/>
</clipPath>
</defs>
</svg>
