<svg width="162" height="131" viewBox="0 0 162 131" fill="none" xmlns="http://www.w3.org/2000/svg">
<path d="M76.5436 40.3387C81.4212 39.154 86.7454 40.8756 89.8786 45.0118C93.1886 49.3815 93.3156 54.8563 90.9426 59.3474L104.173 76.8132C106.933 80.4567 103.987 85.6468 99.4366 85.135L89.6062 84.0108C80.7914 83.0151 71.8139 84.714 64.086 88.5475L62.4949 86.447C70.8809 82.1353 80.4144 80.3622 89.903 81.4393L99.6199 82.6291C102.012 82.7966 103.483 80.2129 102.098 78.3847L61.1505 24.3278C59.8569 22.6201 56.9694 23.334 56.4829 25.682L54.9997 35.3619C53.463 44.7824 49.1744 53.4796 42.7527 60.3845L41.1616 58.284C46.9447 51.8831 51.0133 43.7036 52.4361 34.9408L54.0227 25.1821C54.7616 20.6619 60.5502 19.225 63.3135 22.873L76.5436 40.3387ZM89.1845 57.0265C90.5807 53.7242 90.2202 49.7731 87.804 46.5834C85.5646 43.627 81.8588 42.21 78.3018 42.6597L89.1845 57.0265ZM71.2615 106.641C73.4321 109.506 72.8693 113.585 70.0037 115.756L63.7798 120.471C60.9155 122.64 56.8351 122.078 54.6645 119.213L42.8782 103.653C38.2945 107.125 31.7608 106.218 28.2052 101.524L18.7762 89.0763C15.3974 84.6159 16.205 77.9639 20.7886 74.4918L34.896 63.8055C35.7259 63.1769 36.6245 62.6391 37.4052 61.9456L71.2615 106.641ZM57.4005 92.6526C57.2579 92.7607 57.1282 92.8589 56.9856 92.9669L44.9528 102.082L56.7391 117.641C58.0454 119.366 60.4903 119.697 62.2083 118.396L68.4322 113.681C70.1567 112.375 70.4932 109.937 69.1868 108.212L57.4005 92.6526ZM55.4141 90.8923C55.5567 90.7843 55.6864 90.686 55.829 90.578L36.8825 65.5658C36.7398 65.6739 36.6102 65.7721 36.4676 65.8801L22.3601 76.5664C18.9227 79.1702 18.3364 84.1854 20.8508 87.5048L30.2799 99.9525C32.9711 103.505 37.8693 104.182 41.3067 101.579L55.4141 90.8923Z" fill="#FF0A54"/>
<path fill-rule="evenodd" clip-rule="evenodd" d="M97.6689 25.2168C99.9453 18.9715 101.357 12.359 102.678 5.94067C102.957 4.5579 102.088 3.18818 100.731 2.98469C99.3814 2.68142 98.0571 3.58415 97.785 4.8672C96.5104 11.0884 95.1648 17.5043 92.9781 23.4555C92.5055 24.7233 93.169 26.1784 94.4629 26.678C95.7557 27.1775 97.1954 26.4846 97.6689 25.2168Z" fill="#FF0A54"/>
<path fill-rule="evenodd" clip-rule="evenodd" d="M112.935 42.0058C124.197 32.5328 134.209 21.661 145.737 12.4088C146.81 11.5879 146.985 9.99658 146.123 8.92807C145.259 7.85949 143.687 7.64001 142.607 8.56066C131.048 17.8105 121.006 28.68 109.713 38.1506C108.656 39.0731 108.521 40.667 109.41 41.7376C110.306 42.7084 111.878 42.9282 112.935 42.0058Z" fill="#FF0A54"/>
<path fill-rule="evenodd" clip-rule="evenodd" d="M139.574 49.6641C133.701 51.0062 127.829 52.3478 121.956 53.6902C120.599 53.9299 119.76 55.2973 120.07 56.6643C120.381 58.0311 121.71 58.8112 123.068 58.5713C128.949 57.2274 134.83 55.8842 140.711 54.5405C142.051 54.2022 142.883 52.8364 142.566 51.4708C142.265 50.2037 140.912 49.326 139.574 49.6641Z" fill="#FF0A54"/>
</svg>
