<svg width="138" height="125" viewBox="0 0 138 125" fill="none" xmlns="http://www.w3.org/2000/svg">
<path opacity="0.4" d="M57.511 51.399C65.4202 36.1508 85.7624 27.3271 107.324 41.6401C121.679 51.8055 130.422 72.7362 130.422 89.1229C130.422 112.503 110.903 124.255 89.4322 124.905C51.6858 125.546 42.5365 79.3641 57.511 51.399Z" fill="#82BF15"/>
<g clip-path="url(#clip0_9435_5598)">
<path fill-rule="evenodd" clip-rule="evenodd" d="M76.4596 29.3584C77.1425 34.3327 76.5046 40.9436 74.2047 47.9232C71.9048 54.9025 68.4872 60.5987 64.9804 64.1942C61.3098 67.9576 58.3915 68.6606 56.6857 68.0992C54.98 67.5378 53.0507 65.2393 52.336 60.0326C51.6531 55.0582 52.2911 48.4472 54.5909 41.4678C56.8909 34.4883 60.3084 28.7922 63.8153 25.1968C67.4858 21.4336 70.4042 20.7303 72.1099 21.2917C73.8157 21.8531 75.7449 24.1518 76.4596 29.3584ZM83.2927 28.2925C82.465 22.2609 79.8293 16.4203 74.3134 14.6049C68.7975 12.7895 63.205 15.9219 58.953 20.2818C54.5372 24.8093 50.6209 31.5235 48.053 39.316C45.4852 47.1087 44.6431 54.8346 45.503 61.0985C46.3307 67.1299 48.9663 72.9707 54.4822 74.7862C59.9982 76.6016 65.5907 73.4689 69.8426 69.1093C74.2585 64.5818 78.1747 57.8676 80.7426 50.075C83.3105 42.2824 84.1526 34.5564 83.2927 28.2925Z" fill="#ADFF1C"/>
<path d="M95.496 26.9445C87.9387 21.4945 80.1007 16.5089 74.3143 14.6045C72.889 14.1354 71.353 14.9098 70.8836 16.3343C70.4142 17.7587 71.1892 19.2938 72.6144 19.7629C74.911 20.5187 77.0499 23.3595 77.8533 28.8385C78.6305 34.138 77.982 41.0923 75.582 48.3758C73.1819 55.6591 69.5686 61.6378 65.7927 65.4386C61.8888 69.3684 58.4794 70.3832 56.1829 69.6274C54.7576 69.1583 53.2216 69.9328 52.7522 71.3572C52.2828 72.7816 53.0578 74.3167 54.4831 74.7857C60.2695 76.6902 69.5381 77.3346 78.8568 77.4391C88.2903 77.5447 98.1667 77.0943 105.389 76.6461C113.124 76.1662 119.636 70.9475 122.036 63.6648C124.435 56.3822 122.301 48.3177 116.365 43.3385C110.822 38.6888 103.146 32.4615 95.496 26.9445Z" fill="#ADFF1C"/>
<path fill-rule="evenodd" clip-rule="evenodd" d="M100.854 71.0177C98.8907 70.6304 96.9853 71.9066 96.5978 73.8684C95.176 81.0665 89.5333 86.6605 82.4032 87.9946L74.5045 89.4721C72.5375 89.8402 71.2418 91.7317 71.6099 93.6971C71.9783 95.6625 73.8709 96.9578 75.8375 96.5896L83.7366 95.1118C93.8069 93.2279 101.716 85.3486 103.706 75.271C104.094 73.3092 102.817 71.4049 100.854 71.0177Z" fill="#ADFF1C"/>
</g>
<path fill-rule="evenodd" clip-rule="evenodd" d="M28.2578 43.5629C24.3942 44.1714 20.588 45.3292 16.9078 46.4785C16.1163 46.7286 15.6591 47.5662 15.9411 48.322C16.1699 49.1028 17.0121 49.5269 17.7501 49.3013C21.3158 48.1844 25.0018 47.0486 28.6886 46.4779C29.4759 46.3597 30.0357 45.6038 29.924 44.7959C29.8125 43.9885 29.0454 43.4453 28.2578 43.5629Z" fill="#ADFF1C"/>
<path fill-rule="evenodd" clip-rule="evenodd" d="M32.5473 30.928C24.4605 27.8335 16.0101 25.781 7.96112 22.4868C7.23254 22.1685 6.36349 22.5318 6.05937 23.2799C5.75549 24.0285 6.09065 24.8996 6.87271 25.1934C14.9293 28.5041 23.387 30.5727 31.4814 33.6837C32.2576 33.9647 33.1167 33.5801 33.4142 32.8176C33.6584 32.0801 33.3235 31.2089 32.5473 30.928Z" fill="#ADFF1C"/>
<path fill-rule="evenodd" clip-rule="evenodd" d="M28.8949 15.0421C31.2599 17.6803 33.6246 20.3189 35.9899 22.9576C36.5002 23.5874 37.4432 23.6293 38.0586 23.0806C38.6736 22.5314 38.6962 21.6255 38.1856 20.9952C35.8169 18.3524 33.4489 15.7097 31.0806 13.0673C30.5246 12.4746 29.5844 12.4357 28.972 12.9881C28.4053 13.5035 28.3393 14.4498 28.8949 15.0421Z" fill="#ADFF1C"/>
<defs>
<clipPath id="clip0_9435_5598">
<rect width="86.9422" height="86.8998" fill="white" transform="matrix(-0.949876 -0.312628 -0.31297 0.949763 137.668 30.6914)"/>
</clipPath>
</defs>
</svg>
