<svg width="14" height="12" viewBox="0 0 14 12" fill="none" xmlns="http://www.w3.org/2000/svg">
<path fill-rule="evenodd" clip-rule="evenodd" d="M5.99199 4.44576C4.73965 3.45728 3.72489 2.28011 2.96234 0.908626C2.80983 0.635455 2.45496 0.531254 2.16754 0.677696C1.88305 0.824138 1.77451 1.1649 1.92702 1.44089C2.76583 2.94192 3.87447 4.23174 5.24706 5.31598C5.49635 5.51311 5.86881 5.47931 6.07411 5.23993C6.27942 4.99774 6.24128 4.6429 5.99199 4.44576Z" fill="#FF0A54"/>
<path fill-rule="evenodd" clip-rule="evenodd" d="M5.32247 0.594871C5.38699 1.73261 5.44567 2.87035 5.51899 4.0081C5.53952 4.31788 5.81814 4.55444 6.14076 4.53472C6.46337 4.51501 6.70973 4.24747 6.6892 3.93769C6.61588 2.80277 6.55721 1.66785 6.49269 0.530104C6.47509 0.221168 6.19647 -0.0168019 5.87385 0.000658518C5.55124 0.0181189 5.30194 0.284245 5.32247 0.594871Z" fill="#FF0A54"/>
<path fill-rule="evenodd" clip-rule="evenodd" d="M9.67776 0.826584C8.92695 1.91363 8.07645 2.91619 7.22005 3.93002C7.01475 4.17221 7.05285 4.52707 7.30508 4.72138C7.5573 4.91852 7.92686 4.8819 8.12923 4.6397C9.00909 3.60053 9.88309 2.56698 10.6574 1.44895C10.8363 1.18986 10.76 0.840665 10.4902 0.668878C10.2233 0.49709 9.85667 0.567494 9.67776 0.826584Z" fill="#FF0A54"/>
<path fill-rule="evenodd" clip-rule="evenodd" d="M12.5858 4.86669C10.5504 4.95399 8.38885 4.9568 6.35343 4.83289C6.03082 4.816 5.75219 5.04974 5.73166 5.36234C5.71113 5.67212 5.95749 5.93966 6.28011 5.95937C8.35659 6.08328 10.5621 6.08046 12.6386 5.99316C12.9612 5.97908 13.2134 5.71437 13.1988 5.40459C13.1841 5.09481 12.9084 4.8526 12.5858 4.86669Z" fill="#FF0A54"/>
<path fill-rule="evenodd" clip-rule="evenodd" d="M5.24465 5.22658C6.49992 6.70226 7.7992 8.1498 8.96355 9.69307C9.15419 9.94371 9.52081 10 9.78477 9.81697C10.0458 9.63392 10.1044 9.28188 9.9138 9.03124C8.73479 7.47107 7.42087 6.00665 6.15094 4.51407C5.94563 4.2747 5.57608 4.23809 5.32678 4.43523C5.07455 4.63236 5.03935 4.9872 5.24465 5.22658Z" fill="#FF0A54"/>
<path fill-rule="evenodd" clip-rule="evenodd" d="M5.62514 5.65181C5.95362 7.18945 6.04454 8.65951 6.06801 10.2169C6.07094 10.5266 6.33784 10.7745 6.66045 10.7716C6.986 10.766 7.24409 10.5126 7.23822 10.2C7.21476 8.56938 7.11799 7.03456 6.77484 5.4237C6.70738 5.11955 6.39943 4.9224 6.07975 4.98718C5.763 5.04913 5.55768 5.34766 5.62514 5.65181Z" fill="#FF0A54"/>
<path fill-rule="evenodd" clip-rule="evenodd" d="M5.67844 5.53011C4.72819 7.35501 4.2384 9.38267 3.22069 11.1681C3.06525 11.4385 3.17081 11.7821 3.4553 11.9313C3.73979 12.0806 4.09469 11.9792 4.25013 11.7088C5.27371 9.91209 5.76935 7.87318 6.7284 6.03421C6.87211 5.7554 6.75479 5.41746 6.46737 5.27665C6.17702 5.13866 5.82509 5.25131 5.67844 5.53011Z" fill="#FF0A54"/>
<path fill-rule="evenodd" clip-rule="evenodd" d="M6.20132 5.11623C4.30961 5.43727 2.42084 5.58371 0.517404 5.80056C0.194787 5.83717 -0.033977 6.11598 0.00415044 6.42576C0.0422778 6.73555 0.33266 6.95521 0.655276 6.9186C2.57924 6.70175 4.49147 6.54967 6.40664 6.22581C6.72339 6.16949 6.93749 5.8766 6.88177 5.57245C6.82311 5.26549 6.521 5.0599 6.20132 5.11623Z" fill="#FF0A54"/>
<path fill-rule="evenodd" clip-rule="evenodd" d="M7.51798 4.25849C7.12791 4.24159 6.75836 4.21624 6.37709 4.16273C6.05447 4.11767 5.75824 4.3317 5.71132 4.63867C5.66439 4.94563 5.88727 5.23289 6.20696 5.27795C6.62929 5.33709 7.03697 5.36525 7.46517 5.38215C7.78779 5.39623 8.06347 5.15684 8.0752 4.84424C8.08986 4.53446 7.8406 4.27257 7.51798 4.25849Z" fill="#FF0A54"/>
</svg>
