<svg width="36" height="38" viewBox="0 0 36 38" fill="none" xmlns="http://www.w3.org/2000/svg">
<path d="M28.2122 34.7617C28.2122 34.7617 9.4264 34.7617 8.57617 34.7617C8.57617 33.3375 8.57617 8.34945 8.57617 7.24894C12.8305 7.24894 24.416 7.24894 28.2122 7.24894C28.2122 10.421 28.2122 31.5249 28.2122 34.7617Z" fill="#464D58"/>
<path d="M33.5778 4.0132C34.4817 4.0132 35.2149 4.7376 35.2149 5.6316C35.2149 6.5256 34.4817 7.25 33.5778 7.25C32.6745 7.25 31.9414 6.5256 31.9414 5.6316C31.9414 4.7376 32.6745 4.0132 33.5778 4.0132Z" fill="#FFDD40"/>
<path d="M2.48554 4.01372C3.60688 4.01372 4.51468 4.91225 4.51468 6.02053C4.51468 7.12881 3.60688 8.02734 2.48554 8.02734C1.3655 8.02734 0.457031 7.12881 0.457031 6.02053C0.457031 4.91225 1.3655 4.01372 2.48554 4.01372Z" fill="#FFDD40"/>
<path d="M21.6641 23.0445H24.9375V26.2812H21.6641V23.0445Z" fill="#73C3F9"/>
<path d="M15.1191 23.0445H18.3919V26.2812H15.1191V23.0445Z" fill="#73C3F9"/>
<path d="M35.6074 34.7649V37.6133H28.2109V34.7649H31.9418H35.6074Z" fill="#464D58"/>
<path d="M31.9414 21.4261H35.607V34.7617H31.9414V21.4261Z" fill="#9BD8F9"/>
<path d="M35.6074 18.189V21.4258H28.2109V18.189H35.6074Z" fill="#464D58"/>
<path d="M28.2109 21.4261H31.8765V34.7617H28.2109V21.4261Z" fill="#73C3F9"/>
<path d="M21.6641 34.7649H28.2096V37.6133H21.6641V34.7649Z" fill="#33383F"/>
<path d="M21.6641 19.8101H24.9375V23.0469H21.6641V19.8101Z" fill="#9BD8F9"/>
<path d="M21.6641 16.5718H24.9375V19.8086H21.6641V16.5718Z" fill="#73C3F9"/>
<path d="M21.6641 13.3374H24.9375V16.5742H21.6641V13.3374Z" fill="#9BD8F9"/>
<path d="M21.6641 10.0991H24.9375V13.3359H21.6641V10.0991Z" fill="#73C3F9"/>
<path d="M12.6992 0.38799V7.25C14.1389 7.25 22.4516 7.25 24.1533 7.25V0.38799C22.6483 0.38799 14.401 0.38799 12.6992 0.38799Z" fill="#464D58"/>
<path d="M21.8621 2.58901V4.98424H19.6363V7.25H17.2144V4.98424H14.9238V2.58901H17.2144V0.38799H19.6363V2.58901H21.8621Z" fill="#FF4155"/>
<path d="M21.664 34.7649V37.6133H15.1191V29.0681H21.664V34.7649Z" fill="#9BD8F9"/>
<path d="M18.3926 23.0445H21.6647V26.2812H18.3926V23.0445Z" fill="#9BD8F9"/>
<path d="M18.3926 19.8101H21.6647V23.0469H18.3926V19.8101Z" fill="#73C3F9"/>
<path d="M18.3926 16.5718H21.6647V19.8086H18.3926V16.5718Z" fill="#9BD8F9"/>
<path d="M18.3926 13.3374H21.6647V16.5742H18.3926V13.3374Z" fill="#73C3F9"/>
<path d="M18.3926 10.0991H21.6647V13.3359H18.3926V10.0991Z" fill="#9BD8F9"/>
<path d="M15.1191 19.8101H18.3919V23.0469H15.1191V19.8101Z" fill="#9BD8F9"/>
<path d="M15.1191 16.5718H18.3919V19.8086H15.1191V16.5718Z" fill="#73C3F9"/>
<path d="M15.1191 13.3374H18.3919V16.5742H15.1191V13.3374Z" fill="#9BD8F9"/>
<path d="M15.1191 10.0991H18.3919V13.3359H15.1191V10.0991Z" fill="#73C3F9"/>
<path d="M8.57617 34.7649H15.1217V37.6133H8.57617V34.7649Z" fill="#33383F"/>
<path d="M11.8477 23.0445H15.1211V26.2812H11.8477V23.0445Z" fill="#9BD8F9"/>
<path d="M11.8477 19.8101H15.1211V23.0469H11.8477V19.8101Z" fill="#73C3F9"/>
<path d="M11.8477 16.5718H15.1211V19.8086H11.8477V16.5718Z" fill="#9BD8F9"/>
<path d="M11.8477 13.3374H15.1211V16.5742H11.8477V13.3374Z" fill="#73C3F9"/>
<path d="M11.8477 10.0991H15.1211V13.3359H11.8477V10.0991Z" fill="#9BD8F9"/>
<path d="M8.57325 34.7649V37.6133H1.24219V34.7649H4.90772H8.57325Z" fill="#464D58"/>
<path d="M4.9082 21.4261H8.57373V34.7617H4.9082V21.4261Z" fill="#73C3F9"/>
<path d="M8.57417 18.189V21.4258C7.65794 21.4258 2.09396 21.4258 1.17773 21.4258V18.189H8.57417Z" fill="#464D58"/>
<path d="M1.24219 21.4261H4.90772V34.7617H1.24219V21.4261Z" fill="#9BD8F9"/>
<path d="M34.1669 12.9441C34.4924 12.9441 34.7571 13.205 34.7571 13.5268C34.7571 13.8485 34.4924 14.1094 34.1669 14.1094C33.8421 14.1094 33.5781 13.8485 33.5781 13.5268C33.5781 13.205 33.8421 12.9441 34.1669 12.9441Z" fill="#081120"/>
<path d="M31.6806 1.16288C32.0061 1.16288 32.2694 1.42376 32.2694 1.7455C32.2694 2.06724 32.0061 2.32812 31.6806 2.32812C31.3552 2.32812 31.0918 2.06724 31.0918 1.7455C31.0918 1.42376 31.3552 1.16288 31.6806 1.16288Z" fill="#081120"/>
<path d="M5.49703 10.1004C5.82249 10.1004 6.08648 10.3613 6.08648 10.683C6.08648 11.0047 5.82249 11.2656 5.49703 11.2656C5.17156 11.2656 4.9082 11.0047 4.9082 10.683C4.9082 10.3613 5.17156 10.1004 5.49703 10.1004Z" fill="#081120"/>
<path d="M2.22554 14.116C2.55101 14.116 2.81436 14.3769 2.81436 14.6986C2.81436 15.0204 2.55101 15.2812 2.22554 15.2812C1.90007 15.2812 1.63672 15.0204 1.63672 14.6986C1.63672 14.3769 1.90007 14.116 2.22554 14.116Z" fill="#081120"/>
<path d="M14.7292 10.4879V12.9479H12.2425V10.4879H14.7292ZM24.5475 12.8831H22.0609V10.4232H24.5475V12.8831ZM24.5475 25.8303H22.0609V23.3703H24.5475V25.8303ZM18.8535 23.4351H21.3401V25.895H18.8535V23.4351ZM15.5807 23.4351H18.0679V25.895H15.5807V23.4351ZM12.3072 23.4351H14.7952V25.895H12.3072V23.4351ZM14.7292 16.1199H12.2425V13.6599H14.7292V16.1199ZM18.0019 12.8831H15.5147V10.4232H18.0019V12.8831ZM21.2754 12.8831H18.7875V10.4232H21.2754V12.8831ZM24.5475 16.1199H22.0609V13.6599H24.5475V16.1199ZM22.1256 20.1983H24.6135V22.6582H22.1256V20.1983ZM18.8535 20.1983H21.3401V22.6582H18.8535V20.1983ZM15.5807 20.1983H18.0679V22.6582H15.5807V20.1983ZM12.3072 20.1983H14.7952V22.6582H12.3072V20.1983ZM18.0019 16.1199H15.5147V13.6599H18.0019V16.1199ZM21.2754 16.1199H18.7875V13.6599H21.2754V16.1199ZM18.8535 16.9615H21.3401V19.4214H18.8535V16.9615ZM15.5807 16.9615H18.0679V19.4214H15.5807V16.9615ZM24.5475 19.3567H22.0609V16.8967H24.5475V19.3567ZM12.3072 16.9615H14.7952V19.4214H12.3072V16.9615ZM11.8491 26.6719C12.1118 26.6719 24.6782 26.6719 24.9409 26.6719C25.1363 26.6719 25.333 26.4777 25.333 26.2835C25.333 22.3346 25.333 13.4657 25.333 10.0995C25.333 9.90526 25.1363 9.71106 24.9409 9.71106C23.5659 9.71106 13.2241 9.71106 11.8491 9.71106C11.6537 9.71106 11.457 9.90526 11.457 10.0995C11.457 11.6531 11.457 24.6651 11.457 26.2835C11.457 26.4777 11.6537 26.6719 11.8491 26.6719Z" fill="#081120"/>
<path d="M33.5769 4.40383C34.2317 4.40383 34.8205 4.92172 34.8205 5.63381C34.8205 6.34591 34.2971 6.86379 33.5769 6.86379C32.9227 6.86379 32.3333 6.34591 32.3333 5.63381C32.3333 4.92172 32.8574 4.40383 33.5769 4.40383ZM31.4824 5.63381C31.4824 6.73432 32.3986 7.64062 33.5116 7.64062C34.6238 7.64062 35.5407 6.73432 35.5407 5.63381C35.5407 4.5333 34.6238 3.627 33.5116 3.627C32.3986 3.627 31.4824 4.5333 31.4824 5.63381Z" fill="#081120"/>
<path d="M0.850865 6.02441C0.850865 5.11811 1.5704 4.40601 2.48662 4.40601C3.40349 4.40601 4.12365 5.11811 4.12365 6.02441C4.12365 6.93071 3.33814 7.64281 2.48662 7.64281C1.6364 7.64281 0.850865 6.93071 0.850865 6.02441ZM4.90918 6.02441C4.90918 4.66495 3.79625 3.56444 2.42192 3.56444C1.04694 3.56444 0 4.66495 0 6.02441C0 7.38386 1.11229 8.48438 2.48662 8.48438C3.86161 8.48438 4.90918 7.38386 4.90918 6.02441Z" fill="#081120"/>
<path d="M28.6696 37.1584V35.1516H35.2158V37.1584H28.6696ZM15.5791 29.5196H21.3385V37.2232H15.5791V29.5196ZM1.63709 35.1516H8.182V37.1584H1.63709V35.1516ZM8.182 18.5792V21.0392H1.63709V18.5792H8.182ZM9.03352 35.1516H14.7936V37.1584H9.03352V35.1516ZM5.30262 21.816H8.182V34.3748H5.30262V21.816ZM1.63709 34.3748V21.816H4.51646V34.3748H1.63709ZM9.03352 7.63884C15.7098 7.63884 21.2078 7.63884 27.884 7.63884C27.884 9.06303 27.884 33.1448 27.884 34.3748H22.124V29.1312C22.124 28.937 21.9279 28.7428 21.7319 28.7428H15.1857C14.9896 28.7428 14.7936 28.937 14.7936 29.1312V34.3748H9.03352C9.03352 33.1448 9.03352 9.06303 9.03352 7.63884ZM13.0912 0.776829H16.7567V2.20102H14.9243C14.7276 2.20102 14.5315 2.39523 14.5315 2.58944V5.0494C14.5315 5.24361 14.7276 5.43782 14.9243 5.43782H16.7567V6.86201H13.0912V0.776829ZM17.6082 6.86201V5.0494C17.6082 4.85519 17.4115 4.66099 17.2148 4.66099H15.3824V3.04259H17.2148C17.4115 3.04259 17.6082 2.84838 17.6082 2.65417V0.841564H19.2446V2.65417C19.2446 2.84838 19.4407 3.04259 19.6367 3.04259H21.4692V4.66099H19.6367C19.4407 4.66099 19.2446 4.85519 19.2446 5.0494V6.86201H17.6082ZM23.7604 6.86201H20.0949V5.43782H21.928C22.124 5.43782 22.3207 5.24361 22.3207 5.0494V2.58944C22.3207 2.39523 22.124 2.20102 21.928 2.20102H20.0949V0.776829H23.7604V6.86201ZM35.2158 20.9744H28.6696V18.5145H35.2158V20.9744ZM32.3351 21.816H35.2158V34.3748H32.3351V21.816ZM22.124 35.1516H27.884V37.1584H22.124V35.1516ZM28.6696 34.3748V21.816H31.5502V34.3748H28.6696ZM35.6079 17.7376H28.6696V7.25042C28.6696 7.05622 28.4735 6.86201 28.2768 6.86201H24.6119V0.388412C24.6119 0.194206 24.4152 -3.8147e-06 24.2185 -3.8147e-06H12.6991C12.5024 -3.8147e-06 12.3056 0.194206 12.3056 0.388412V6.86201H8.64011C8.4447 6.86201 8.248 7.05622 8.248 7.25042V17.8024H1.24434C1.04764 17.8024 0.851562 17.9966 0.851562 18.1908V37.6116C0.851562 37.8058 1.04764 38 1.24434 38C4.58247 38 31.6809 38 35.6079 38C35.8046 38 36.0006 37.8058 36.0006 37.6116V18.1908C36.0006 17.9319 35.8046 17.7376 35.6079 17.7376Z" fill="#081120"/>
</svg>
