<svg width="43" height="38" viewBox="0 0 43 38" fill="none" xmlns="http://www.w3.org/2000/svg">
<path d="M33.8108 14.877L39.6007 23.0479H3.93555L9.26225 14.877H33.8108Z" fill="#2A428C"/>
<path d="M39.6007 34.6069H3.93555C3.93555 33.9132 3.93555 23.661 3.93555 23.0443H39.6786C39.6007 23.7381 39.6007 33.9903 39.6007 34.6069Z" fill="#1C2E7A"/>
<path d="M39.1377 2.31061C41.0135 2.31061 42.5344 3.82916 42.5344 5.7023C42.5344 7.57467 41.0135 9.09399 39.1377 9.09399C37.2619 9.09399 35.7402 7.57467 35.7402 5.7023C35.7402 3.82916 37.2619 2.31061 39.1377 2.31061Z" fill="#FFDD40"/>
<path d="M2.93225 11.4832C4.254 11.4832 5.32546 12.5532 5.32546 13.8729C5.32546 15.1925 4.254 16.2625 2.93225 16.2625C1.6105 16.2625 0.539062 15.1925 0.539062 13.8729C0.539062 12.5532 1.6105 11.4832 2.93225 11.4832Z" fill="#FFDD40"/>
<path d="M21.771 25.4327C27.0999 25.4327 31.4201 26.9512 31.4201 28.8244C31.4201 30.6975 27.0999 32.2161 21.771 32.2161C16.4412 32.2161 12.1211 30.6975 12.1211 28.8244C12.1211 26.9512 16.4412 25.4327 21.771 25.4327Z" fill="#70F2A4"/>
<path d="M3.93555 34.6074H39.6786V37.5366H3.93555V34.6074Z" fill="#2A428C"/>
<path d="M13.5879 19.1921C13.5879 16.8025 13.5879 9.09415 13.5879 6.62746H29.4909C29.4909 9.01706 29.4909 16.7255 29.4909 19.1921C28.0234 19.1921 15.5949 19.1921 13.5879 19.1921Z" fill="#E9EFFF"/>
<path d="M42.0714 33.2194C42.4553 33.2194 42.7666 33.5293 42.7666 33.9132C42.7666 34.2955 42.4553 34.6069 42.0714 34.6069C41.6876 34.6069 41.377 34.2955 41.377 33.9132C41.377 33.5293 41.6876 33.2194 42.0714 33.2194Z" fill="#081120"/>
<path d="M41.3007 14.414C41.6845 14.414 41.9959 14.7247 41.9959 15.1078C41.9959 15.4909 41.6845 15.8015 41.3007 15.8015C40.9168 15.8015 40.6055 15.4909 40.6055 15.1078C40.6055 14.7247 40.9168 14.414 41.3007 14.414Z" fill="#081120"/>
<path d="M31.6515 -0.00079143C32.0353 -0.00079143 32.3459 0.309857 32.3459 0.692964C32.3459 1.07607 32.0353 1.38672 31.6515 1.38672C31.2676 1.38672 30.957 1.07607 30.957 0.692964C30.957 0.309857 31.2676 -0.00079143 31.6515 -0.00079143Z" fill="#081120"/>
<path d="M3.70618 3.31195C4.09004 3.31195 4.40141 3.6226 4.40141 4.00571C4.40141 4.38881 4.09004 4.69946 3.70618 4.69946C3.32309 4.69946 3.01172 4.38881 3.01172 4.00571C3.01172 3.6226 3.32309 3.31195 3.70618 3.31195Z" fill="#081120"/>
<path d="M1.31239 34.1452C1.69549 34.1452 2.00686 34.4559 2.00686 34.839C2.00686 35.2221 1.69549 35.5327 1.31239 35.5327C0.928537 35.5327 0.617188 35.2221 0.617188 34.839C0.617188 34.4559 0.928537 34.1452 1.31239 34.1452Z" fill="#081120"/>
<path d="M39.1391 36.9993H4.39957V35.072H39.1391V36.9993ZM9.49426 15.337H13.123V18.7289H12.6598C12.4285 18.7289 12.1965 18.9602 12.1965 19.1915C12.1965 19.4228 12.4285 19.654 12.6598 19.654C13.2771 19.654 29.7975 19.654 30.4927 19.654C30.724 19.654 30.956 19.4228 30.956 19.1915C30.956 18.9602 30.724 18.7289 30.4927 18.7289H30.0295V15.337H33.6575L38.7529 22.5834H4.78494L9.49426 15.337ZM14.0494 7.16543H29.026V18.7289H25.6285V11.945C25.6285 11.7137 25.3973 11.4825 25.166 11.4825C24.934 11.4825 24.7028 11.7137 24.7028 11.945V18.7289H14.0494V7.16543ZM4.39957 31.2175H8.25951C8.49074 31.2175 8.72274 30.9863 8.72274 30.755C8.72274 30.5237 8.49074 30.2925 8.25951 30.2925H4.39957V23.5085H39.1391V25.8983H34.8159C34.5839 25.8983 34.3519 26.1296 34.3519 26.3609C34.3519 26.5921 34.5839 26.8234 34.8159 26.8234H39.1391V34.0699H4.39957V31.2175ZM40.0648 22.8918C40.0648 22.8147 40.4509 23.3543 34.1978 14.6432C34.1207 14.489 33.9665 14.4119 33.8116 14.4119H29.9524V6.70289C29.9524 6.47162 29.7204 6.24035 29.4892 6.24035H13.5862C13.3542 6.24035 13.123 6.47162 13.123 6.70289V14.4119H9.26304C9.10889 14.4119 8.95397 14.489 8.87689 14.6432C3.31897 23.2002 3.55019 22.8147 3.55019 22.8918V22.9689V23.046C3.55019 24.6649 3.55019 36.0742 3.55019 37.5389C3.55019 37.7702 3.78219 38.0015 4.01342 38.0015H39.7557C39.9877 38.0015 40.2197 37.7702 40.2197 37.5389C40.2197 37.5389 40.2197 23.1231 40.2197 23.046C40.1418 23.046 40.0648 22.8918 40.0648 22.8918Z" fill="#081120"/>
<path d="M28.4079 30.7538C24.7028 32.0642 18.7588 32.0642 15.053 30.7538C13.5091 30.2142 12.5827 29.5205 12.5827 28.8267C12.5827 28.133 13.5091 27.4392 15.053 26.8996C18.7588 25.5892 24.7028 25.5892 28.4079 26.8996C29.9525 27.4392 30.8782 28.133 30.8782 28.8267C30.8782 29.5205 30.0295 30.2142 28.4079 30.7538ZM21.7693 24.9725C16.828 24.9725 11.6562 26.36 11.6562 28.8267C11.6562 31.2934 16.9059 32.6809 21.7693 32.6809C26.6328 32.6809 31.8824 31.2934 31.8824 28.8267C31.8824 26.36 26.7091 24.9725 21.7693 24.9725Z" fill="#081120"/>
<path d="M16.4437 14.8755C16.6749 14.8755 16.9069 14.6442 16.9069 14.413V11.4838C16.9069 11.2525 16.6749 11.0213 16.4437 11.0213C16.2117 11.0213 15.9805 11.2525 15.9805 11.4838V14.413C15.9805 14.6442 16.2117 14.8755 16.4437 14.8755Z" fill="#081120"/>
<path d="M39.14 2.84888C40.7609 2.84888 42.0727 4.1593 42.0727 5.77806C42.0727 7.39683 40.7609 8.70725 39.14 8.70725C37.5183 8.70725 36.2065 7.39683 36.2065 5.77806C36.2065 4.1593 37.5183 2.84888 39.14 2.84888ZM39.14 9.55518C41.3012 9.55518 42.9992 7.85933 42.9992 5.70098C42.9992 3.54263 41.3012 1.84679 39.14 1.84679C36.978 1.84679 35.2793 3.54263 35.2793 5.70098C35.2793 7.85933 37.0551 9.55518 39.14 9.55518Z" fill="#081120"/>
<path d="M2.93349 15.8033C1.85289 15.8033 1.00354 14.9554 1.00354 13.8762C1.00354 12.7971 1.85289 11.9491 2.93349 11.9491C4.0141 11.9491 4.86347 12.7971 4.86347 13.8762C4.86347 14.9554 4.0141 15.8033 2.93349 15.8033ZM5.86701 13.8762C5.86701 12.2575 4.5544 10.947 2.93349 10.947C1.31259 10.947 0 12.2575 0 13.8762C0 15.495 1.31259 16.8054 2.93349 16.8054C4.5544 16.8054 5.86701 15.495 5.86701 13.8762Z" fill="#081120"/>
</svg>
