<svg width="40" height="40" viewBox="0 0 40 40" fill="none" xmlns="http://www.w3.org/2000/svg">
<g clip-path="url(#clip0_9588_5718)">
<path d="M20 12C18.64 12 12.24 13.02 12.02 19.76C15.46 18.96 18.14 16.22 18.82 12.74C19.88 15.04 22.74 18.34 27.68 17.94C26.78 14.52 23.7 12 20 12Z" fill="#4E2FDA"/>
<path d="M15 23C15.8284 23 16.5 22.3284 16.5 21.5C16.5 20.6716 15.8284 20 15 20C14.1716 20 13.5 20.6716 13.5 21.5C13.5 22.3284 14.1716 23 15 23Z" fill="#4E2FDA"/>
<path d="M25 23C25.8284 23 26.5 22.3284 26.5 21.5C26.5 20.6716 25.8284 20 25 20C24.1716 20 23.5 20.6716 23.5 21.5C23.5 22.3284 24.1716 23 25 23Z" fill="#4E2FDA"/>
<path d="M32 20C32 13.38 26.62 8 20 8C13.38 8 8 13.38 8 20C6.9 20 6 20.9 6 22V26C6 27.1 6.9 28 8 28H10V20C10 14.48 14.48 10 20 10C25.52 10 30 14.48 30 20V30H18V32H30C31.1 32 32 31.1 32 30V28C33.1 28 34 27.1 34 26V22C34 20.9 33.1 20 32 20Z" fill="#4E2FDA"/>
</g>
<defs>
<clipPath id="clip0_9588_5718">
<rect width="40" height="40" fill="white"/>
</clipPath>
</defs>
</svg>
