<svg width="38" height="38" viewBox="0 0 38 38" fill="none" xmlns="http://www.w3.org/2000/svg">
<path d="M36.0459 10.8587V30.6345C36.0459 31.6685 35.3339 32.5086 34.4274 32.7671H22.6499V34.3828H15.4015V32.7671H3.68839C2.78202 32.5086 2.07031 31.6685 2.07031 30.6345V10.8587C2.07031 9.63075 3.04117 8.66135 4.27067 8.66135H33.7806C35.0102 8.66135 36.0459 9.63075 36.0459 10.8587Z" fill="#464D58"/>
<path d="M33.9743 0.516575C35.0823 0.516575 35.9805 1.4136 35.9805 2.52001C35.9805 3.62642 35.0823 4.52344 33.9743 4.52344C32.8663 4.52344 31.9688 3.62642 31.9688 2.52001C31.9688 1.4136 32.8663 0.516575 33.9743 0.516575Z" fill="#70F2A4"/>
<path d="M4.0767 1.29149C5.43485 1.29149 6.53538 2.39079 6.53538 3.74731C6.53538 5.10318 5.43485 6.20312 4.0767 6.20312C2.71823 6.20312 1.61719 5.10318 1.61719 3.74731C1.61719 2.39079 2.71823 1.29149 4.0767 1.29149Z" fill="#70F2A4"/>
<path d="M5.30664 27.1457H32.8108V29.6016H5.30664V27.1457Z" fill="#D3DCFB"/>
<path d="M37.6644 32.8288C37.6644 35.4785 35.4637 37.6758 32.8107 37.6758H5.30658C2.65348 37.6758 0.453125 35.4785 0.453125 32.8288C3.42986 32.8288 12.3606 32.8288 15.4021 32.8288V34.4444H22.7151V32.8288C25.7564 32.8288 34.6225 32.8288 37.6644 32.8288Z" fill="#464D58"/>
<path d="M32.8108 11.828V27.1445H5.30664V11.828C5.30664 11.828 32.7462 11.828 32.8108 11.828Z" fill="#E9EFFF"/>
<path d="M27.5024 22.6838H10.5469C10.5469 22.1668 10.5469 5.16997 10.5469 3.68356H27.567C27.5024 4.71759 27.5024 21.7144 27.5024 22.6838Z" fill="#BEC8F7"/>
<path d="M19.0262 6.98089C22.5852 6.98089 25.4972 9.8891 25.4972 13.4436C25.4972 16.998 22.5852 19.9062 19.0262 19.9062C15.4667 19.9062 12.5547 16.998 12.5547 13.4436C12.5547 9.8891 15.4667 6.98089 19.0262 6.98089Z" fill="#2A428C"/>
<path d="M19.277 11.2275C20.3851 11.2275 21.2832 12.1245 21.2832 13.2309C21.2832 14.3374 20.3851 15.2344 19.277 15.2344C18.169 15.2344 17.2715 14.3374 17.2715 13.2309C17.2715 12.1245 18.169 11.2275 19.277 11.2275Z" fill="#70F2A4"/>
<path d="M21.2345 14.0398C21.5563 14.0398 21.8167 14.3003 21.8167 14.6215C21.8167 14.9427 21.5563 15.2031 21.2345 15.2031C20.9127 15.2031 20.6523 14.9427 20.6523 14.6215C20.6523 14.3003 20.9127 14.0398 21.2345 14.0398Z" fill="#081120"/>
<path d="M21.2345 10.7391C21.5563 10.7391 21.8167 10.9995 21.8167 11.3207C21.8167 11.6419 21.5563 11.9023 21.2345 11.9023C20.9127 11.9023 20.6523 11.6419 20.6523 11.3207C20.6523 10.9995 20.9127 10.7391 21.2345 10.7391Z" fill="#081120"/>
<path d="M17.9298 16.5203C18.2516 16.5203 18.512 16.7808 18.512 17.102C18.512 17.4231 18.2516 17.6836 17.9298 17.6836C17.608 17.6836 17.3477 17.4231 17.3477 17.102C17.3477 16.7808 17.608 16.5203 17.9298 16.5203Z" fill="#081120"/>
<path d="M17.7318 11.8273C18.1851 11.8273 18.5732 12.215 18.5732 12.6674C18.5732 13.1198 18.1851 13.5076 17.7318 13.5076C17.2788 13.5076 16.8906 13.1198 16.8906 12.6674C16.8906 12.215 17.2788 11.8273 17.7318 11.8273Z" fill="#FFDD40"/>
<path d="M35.7859 6.14141C36.1077 6.14141 36.3681 6.40185 36.3681 6.72305C36.3681 7.04424 36.1077 7.30469 35.7859 7.30469C35.4641 7.30469 35.2031 7.04424 35.2031 6.72305C35.2031 6.40185 35.4641 6.14141 35.7859 6.14141Z" fill="#081120"/>
<path d="M29.3146 0.903124C29.6364 0.903124 29.8967 1.16357 29.8967 1.48477C29.8967 1.80596 29.6364 2.06641 29.3146 2.06641C28.9928 2.06641 28.7324 1.80596 28.7324 1.48477C28.7324 1.16357 28.9928 0.903124 29.3146 0.903124Z" fill="#081120"/>
<path d="M12.7485 0.133593C13.0701 0.133593 13.331 0.394039 13.331 0.715234C13.331 1.03643 13.0701 1.29688 12.7485 1.29688C12.4266 1.29688 12.166 1.03643 12.166 0.715234C12.166 0.394039 12.4266 0.133593 12.7485 0.133593Z" fill="#081120"/>
<path d="M7.89497 5.36406C8.21682 5.36406 8.47777 5.62451 8.47777 5.9457C8.47777 6.2669 8.21682 6.52734 7.89497 6.52734C7.57338 6.52734 7.3125 6.2669 7.3125 5.9457C7.3125 5.62451 7.57338 5.36406 7.89497 5.36406Z" fill="#081120"/>
<path d="M1.03567 7.36797C1.35726 7.36797 1.61789 7.62841 1.61789 7.94961C1.61789 8.2708 1.35726 8.53125 1.03567 8.53125C0.714009 8.53125 0.453125 8.2708 0.453125 7.94961C0.453125 7.62841 0.714009 7.36797 1.03567 7.36797Z" fill="#081120"/>
<path d="M32.8107 37.2245H5.30651C2.97699 37.2245 1.10027 35.4149 0.905858 33.153H15.014V34.3809C15.014 34.5748 15.2081 34.7687 15.402 34.7687H22.7151C22.9089 34.7687 23.1034 34.5748 23.1034 34.3809V33.153H37.2114C37.0169 35.4796 35.0753 37.2245 32.8107 37.2245ZM2.45926 30.6325V10.8567C2.45926 9.82271 3.30063 9.04719 4.27123 9.04719H10.1602V11.3738H5.30651C5.1126 11.3738 4.91845 11.5676 4.91845 11.7615V29.5339C4.91845 29.7278 5.1126 29.9216 5.30651 29.9216H32.8107C33.0045 29.9216 33.199 29.7278 33.199 29.5339V11.8261C33.199 11.6323 33.0045 11.4384 32.8107 11.4384H27.957V9.04719H33.8458C34.8808 9.04719 35.6575 9.88734 35.6575 10.8567V30.6325C35.6575 31.4081 35.1399 32.119 34.3633 32.3775H22.7151C22.5206 32.3775 22.3268 32.5713 22.3268 32.7652V33.9931H15.8551V32.7652C15.8551 32.5713 15.6612 32.3775 15.4668 32.3775H3.81817C2.97699 32.1836 2.45926 31.4727 2.45926 30.6325ZM10.9367 4.13556H27.1158V22.2957H10.9367V4.13556ZM32.3577 26.7549H5.69489V12.2139H10.1602V22.7481C10.1602 22.942 10.3547 23.1358 10.5486 23.1358H27.5687C27.7626 23.1358 27.957 22.942 27.957 22.7481V12.2139H32.4224V26.7549H32.3577ZM5.69489 27.5305H32.4224V29.1461H5.69489V27.5305ZM37.6643 32.3775H35.7873C36.1757 31.9251 36.4341 31.2788 36.4341 30.6325V10.8567C36.4341 9.43495 35.2692 8.20704 33.7811 8.20704H27.8924V3.68317C27.8924 3.48928 27.6979 3.29541 27.5041 3.29541H10.5486C10.3547 3.29541 10.1602 3.48928 10.1602 3.68317V8.20704H4.27123C2.84732 8.20704 1.61782 9.37033 1.61782 10.8567V30.6325C1.61782 31.2788 1.87697 31.9251 2.26503 32.3775H0.388317C0.194159 32.3775 0 32.5713 0 32.7652C0 35.6734 2.32978 38 5.24209 38H32.7461C35.6575 38 37.9874 35.6734 37.9874 32.7652C38.052 32.5713 37.8582 32.3775 37.6643 32.3775Z" fill="#081120"/>
<path d="M17.7315 12.2142C17.9904 12.2142 18.1848 12.4081 18.1848 12.6666C18.1848 12.9251 17.9904 13.119 17.7315 13.119C17.4728 13.119 17.2784 12.9251 17.2784 12.6666C17.2784 12.4081 17.4728 12.2142 17.7315 12.2142ZM17.7315 13.8945C18.4434 13.8945 18.9612 13.3129 18.9612 12.6666C18.9612 12.0204 18.3787 11.4387 17.7315 11.4387C17.0195 11.4387 16.502 12.0204 16.502 12.6666C16.502 13.3129 17.0195 13.8945 17.7315 13.8945Z" fill="#081120"/>
<path d="M19.0259 7.37152C22.391 7.37152 25.1092 10.0858 25.1092 13.4464C25.1092 16.807 22.391 19.5214 19.0259 19.5214C15.6608 19.5214 12.9425 16.807 12.9425 13.4464C12.9425 10.0858 15.6608 7.37152 19.0259 7.37152ZM19.0259 20.2969C22.8439 20.2969 25.8852 17.1948 25.8852 13.4464C25.8852 9.69808 22.7793 6.59599 19.0259 6.59599C15.2724 6.59599 12.166 9.69808 12.166 13.4464C12.166 17.1948 15.2077 20.2969 19.0259 20.2969Z" fill="#081120"/>
<path d="M33.9748 0.903295C34.8806 0.903295 35.5926 1.61419 35.5926 2.51896C35.5926 3.42374 34.8806 4.13463 33.9748 4.13463C33.0689 4.13463 32.3575 3.42374 32.3575 2.51896C32.3575 1.61419 33.0689 0.903295 33.9748 0.903295ZM33.9748 4.91016C35.3342 4.91016 36.4339 3.8115 36.4339 2.45434C36.4339 1.09718 35.3342 -0.00148058 33.9748 -0.00148058C32.616 -0.00148058 31.5156 1.09718 31.5156 2.45434C31.5156 3.8115 32.6806 4.91016 33.9748 4.91016Z" fill="#081120"/>
<path d="M4.07609 1.68033C5.1761 1.68033 6.08197 2.58511 6.08197 3.68376C6.08197 4.78242 5.1761 5.6872 4.07609 5.6872C2.97575 5.6872 2.06963 4.78242 2.06963 3.68376C2.06963 2.58511 2.97575 1.68033 4.07609 1.68033ZM4.07609 6.52734C5.62916 6.52734 6.92334 5.23481 6.92334 3.68376C6.92334 2.13272 5.62916 0.840185 4.07609 0.840185C2.52269 0.840185 1.22852 2.13272 1.22852 3.68376C1.22852 5.23481 2.52269 6.52734 4.07609 6.52734Z" fill="#081120"/>
</svg>
