<svg width="21" height="34" viewBox="0 0 21 34" fill="none" xmlns="http://www.w3.org/2000/svg">
<path d="M10.2812 14.0723C10.2195 14.1591 10.1301 14.1998 10.0235 14.1998C9.95301 14.1998 9.89217 14.1789 9.83888 14.1428C9.78475 14.1054 9.74405 14.0525 9.71552 13.9829C9.68656 13.9132 9.6748 13.8306 9.6748 13.737C9.6748 13.6422 9.68656 13.5603 9.71552 13.4907C9.74405 13.4215 9.78475 13.3681 9.83888 13.3312C9.89217 13.2939 9.95301 13.2779 10.0235 13.2779C10.1301 13.2779 10.2195 13.3149 10.2812 13.3971C10.347 13.4789 10.3793 13.5889 10.3793 13.737C10.3793 13.8797 10.347 13.9955 10.2812 14.0723Z" stroke="#FF0A54" stroke-width="0.545497" stroke-miterlimit="10" stroke-linecap="round" stroke-linejoin="round"/>
<path d="M8.20605 22.5088H12.9065V23.5046C12.9065 23.5088 12.9065 23.5172 12.9065 23.5209H8.20605C8.20605 23.5172 8.20605 23.5088 8.20605 23.5046V22.5088Z" stroke="#FF0A54" stroke-width="0.545497" stroke-miterlimit="10" stroke-linecap="round" stroke-linejoin="round"/>
<path d="M20.3002 30.7744C20.3002 32.037 19.3371 33 18.0749 33H10.6528V31.2615C11.062 31.2615 11.3947 30.9305 11.3947 30.5205C11.3947 30.1106 11.062 29.7786 10.6528 29.7786V28.5286H20.3002V30.7744Z" stroke="#FF0A54" stroke-width="0.0681871" stroke-miterlimit="10"/>
<path d="M10.5584 21.5158H12.9065V22.5082H8.20605V21.5158H10.5555H10.5584Z" stroke="#FF0A54" stroke-width="0.545497" stroke-miterlimit="10" stroke-linecap="round" stroke-linejoin="round"/>
<path d="M10.1897 25.4951C9.47261 25.4951 8.84486 25.1098 8.49658 24.5358H12.6155C12.2672 25.1098 11.6366 25.4951 10.9194 25.4951H10.1897Z" stroke="#FF0A54" stroke-width="0.545497" stroke-miterlimit="10" stroke-linecap="round" stroke-linejoin="round"/>
<path d="M8.20605 23.5191H12.9065C12.9032 23.8921 12.8 24.2413 12.6158 24.5358H8.49683C8.31262 24.2413 8.21025 23.8921 8.20605 23.5191Z" stroke="#FF0A54" stroke-width="0.545497" stroke-miterlimit="10" stroke-linecap="round" stroke-linejoin="round"/>
<path d="M14.3836 19.0114C15.3827 18.0605 16.0306 16.7614 16.133 15.3024L17.5752 15.4208H18.5588H20.3006V28.5286H10.6533H1.00049V15.4208H2.5581H3.53831L4.97673 15.3024C5.07911 16.7614 5.73119 18.0605 6.73029 19.0114C7.43986 19.692 8.02565 20.5732 8.20609 21.5152V22.5076V23.5034C8.20609 23.5075 8.20609 23.5159 8.20609 23.5197C8.21028 23.8927 8.31266 24.2419 8.49687 24.5364C8.84515 25.1105 9.47289 25.4957 10.19 25.4957H10.9197C11.6368 25.4957 12.2675 25.1105 12.6158 24.5364C12.8 24.2419 12.9032 23.8927 12.9066 23.5197C12.9066 23.5159 12.9066 23.5075 12.9066 23.5034V22.5076V21.5152C13.0836 20.5732 13.6736 19.692 14.3836 19.0114Z" stroke="#FF0A54" stroke-width="0.545497" stroke-miterlimit="10" stroke-linecap="round" stroke-linejoin="round"/>
<path d="M1 28.5286H10.6528V29.7786C10.2428 29.7786 9.91048 30.1106 9.91048 30.5205C9.91048 30.9305 10.2428 31.2615 10.6528 31.2615V33H3.23024C1.96301 33 1 32.037 1 30.7744V28.5286Z" stroke="#FF0A54" stroke-width="0.0681871" stroke-miterlimit="10"/>
<path d="M18.0754 0.333788C19.3376 0.333788 20.3006 1.30142 20.3006 2.55942V4.47369H1.00049V2.55942C1.00049 1.30142 1.9635 0.333788 3.23073 0.333788H18.0754Z" stroke="#FF0A54" stroke-width="0.0681871" stroke-miterlimit="10"/>
<path d="M16.133 15.3034C16.1573 14.9585 16.1531 14.6069 16.1124 14.2498C15.8216 11.602 13.7026 9.48759 11.0548 9.19218C10.8782 9.19218 10.7351 9.16323 10.5584 9.16323C10.3784 9.16323 10.2345 9.16323 10.0545 9.19218C7.41091 9.48759 5.29229 11.6305 4.9973 14.2498C4.9566 14.6106 4.95113 14.9585 4.97673 15.3034L3.53831 15.4218H2.5581H1.00049V6.27796V5.11899V4.4749H20.3006V6.27796V15.4218H18.5588H17.5752L16.133 15.3034Z" stroke="#FF0A54" stroke-width="0.545497" stroke-miterlimit="10" stroke-linecap="round" stroke-linejoin="round"/>
<path d="M20.3001 4.47389V2.55961C20.3001 1.30161 19.3371 0.333985 18.0749 0.333985H3.23024C1.96301 0.333985 1 1.30161 1 2.55961V4.47389V5.11798V6.27696V15.4207V28.5286V30.7744C1 32.037 1.96301 33 3.23024 33H10.6528H18.0749C19.3371 33 20.3001 32.037 20.3001 30.7744V28.5286V15.4207V6.27696V4.47389Z" stroke="#FF0A54" stroke-width="0.545497" stroke-miterlimit="2.61313" stroke-linecap="round" stroke-linejoin="round"/>
<path d="M10.6529 31.2618C11.0621 31.2618 11.3948 30.9307 11.3948 30.5208C11.3948 30.1108 11.0621 29.7789 10.6529 29.7789C10.243 29.7789 9.91064 30.1108 9.91064 30.5208C9.91064 30.9307 10.243 31.2618 10.6529 31.2618Z" stroke="#FF0A54" stroke-width="0.545497" stroke-miterlimit="2.61313" stroke-linecap="round" stroke-linejoin="round"/>
<path d="M7.62842 2.56409L13.6776 2.55948" stroke="#FF0A54" stroke-width="0.545497" stroke-miterlimit="2.61313" stroke-linecap="round" stroke-linejoin="round"/>
<path d="M1.00049 4.47369H20.3006" stroke="#FF0A54" stroke-width="0.545497" stroke-miterlimit="2.61313" stroke-linecap="round" stroke-linejoin="round"/>
<path d="M1.00049 28.5286H20.3006" stroke="#FF0A54" stroke-width="0.545497" stroke-miterlimit="2.61313" stroke-linecap="round" stroke-linejoin="round"/>
<path d="M12.9063 21.5156C13.0834 20.5735 13.6734 19.6923 14.3834 19.0117C15.3825 18.0609 16.0303 16.7618 16.1327 15.3028C16.1571 14.9579 16.1529 14.6062 16.1122 14.2491C15.8214 11.6014 13.7023 9.48696 11.0546 9.19155C10.8779 9.19155 10.7348 9.1626 10.5582 9.1626C10.3782 9.1626 10.2342 9.1626 10.0542 9.19155C7.41066 9.48696 5.29204 11.6299 4.99705 14.2491C4.95635 14.61 4.95088 14.9579 4.97648 15.3028C5.07886 16.7618 5.73094 18.0609 6.73004 19.0117C7.43961 19.6923 8.0254 20.5735 8.20584 21.5156" stroke="#FF0A54" stroke-width="0.545497" stroke-miterlimit="2.61313" stroke-linecap="round" stroke-linejoin="round"/>
<path d="M7.63672 22.5082H13.4765" stroke="#FF0A54" stroke-width="0.545497" stroke-miterlimit="2.61313" stroke-linecap="round" stroke-linejoin="round"/>
<path d="M7.63672 23.5209H13.4765" stroke="#FF0A54" stroke-width="0.545497" stroke-miterlimit="2.61313" stroke-linecap="round" stroke-linejoin="round"/>
<path d="M7.63672 24.5358H13.4765" stroke="#FF0A54" stroke-width="0.545497" stroke-miterlimit="2.61313" stroke-linecap="round" stroke-linejoin="round"/>
<path d="M11.7184 16.9416L10.6114 21.3643L10.5552 21.5112" stroke="#FF0A54" stroke-width="0.545497" stroke-miterlimit="2.61313" stroke-linecap="round" stroke-linejoin="round"/>
<path d="M8.23828 16.9422L10.555 21.5118V21.5156" stroke="#FF0A54" stroke-width="0.545497" stroke-miterlimit="2.61313" stroke-linecap="round" stroke-linejoin="round"/>
<path d="M7.26709 16.2832C7.53312 16.2832 8.4143 15.3731 9.21786 16.1225C10.0168 16.8686 10.5292 15.9299 11.0377 15.9009C11.5459 15.8766 12.5622 16.3885 12.5622 16.3885" stroke="#FF0A54" stroke-width="0.545497" stroke-miterlimit="2.61313" stroke-linecap="round" stroke-linejoin="round"/>
<path d="M8.20605 21.5146H12.9065V23.5027C12.9065 23.5069 12.9065 23.5153 12.9065 23.5191C12.9032 23.8921 12.8 24.2412 12.6158 24.5358C12.2675 25.1098 11.6368 25.4951 10.9197 25.4951H10.19C9.47286 25.4951 8.84511 25.1098 8.49683 24.5358C8.31262 24.2412 8.21025 23.8921 8.20605 23.5191C8.20605 23.5153 8.20605 23.5069 8.20605 23.5027V22.507V21.5146Z" stroke="#FF0A54" stroke-width="0.545497" stroke-miterlimit="2.61313" stroke-linecap="round" stroke-linejoin="round"/>
<path d="M10.5581 7.4222V8.40198" stroke="#FF0A54" stroke-width="0.545497" stroke-miterlimit="2.61313" stroke-linecap="round" stroke-linejoin="round"/>
<path d="M14.5547 8.495L14.0625 9.34344" stroke="#FF0A54" stroke-width="0.545497" stroke-miterlimit="2.61313" stroke-linecap="round" stroke-linejoin="round"/>
<path d="M17.4843 11.4221L16.6367 11.9097" stroke="#FF0A54" stroke-width="0.545497" stroke-miterlimit="2.61313" stroke-linecap="round" stroke-linejoin="round"/>
<path d="M18.5583 15.4218H17.5747" stroke="#FF0A54" stroke-width="0.545497" stroke-miterlimit="2.61313" stroke-linecap="round" stroke-linejoin="round"/>
<path d="M17.4843 19.4213L16.6367 18.9295" stroke="#FF0A54" stroke-width="0.545497" stroke-miterlimit="2.61313" stroke-linecap="round" stroke-linejoin="round"/>
<path d="M3.62744 19.4213L4.47968 18.9295" stroke="#FF0A54" stroke-width="0.545497" stroke-miterlimit="2.61313" stroke-linecap="round" stroke-linejoin="round"/>
<path d="M2.55762 15.4218H3.53783" stroke="#FF0A54" stroke-width="0.545497" stroke-miterlimit="2.61313" stroke-linecap="round" stroke-linejoin="round"/>
<path d="M3.62744 11.4221L4.47968 11.9097" stroke="#FF0A54" stroke-width="0.545497" stroke-miterlimit="2.61313" stroke-linecap="round" stroke-linejoin="round"/>
<path d="M6.55811 8.495L7.04486 9.34344" stroke="#FF0A54" stroke-width="0.545497" stroke-miterlimit="2.61313" stroke-linecap="round" stroke-linejoin="round"/>
</svg>
