<svg width="32" height="32" viewBox="0 0 32 32" fill="none" xmlns="http://www.w3.org/2000/svg">
<path d="M14.6667 26.6667L14.3157 25.7303L13.6667 25.9736V26.6667H14.6667ZM29.3334 26.6667H30.3334V25.9737L29.6846 25.7304L29.3334 26.6667ZM14.6667 29.3333H13.6667C13.6667 29.8856 14.1145 30.3333 14.6667 30.3333V29.3333ZM29.3334 29.3333V30.3333C29.8857 30.3333 30.3334 29.8856 30.3334 29.3333H29.3334ZM19.6671 19.3333C19.6671 18.0447 20.7118 17 22.0005 17V15C19.6073 15 17.6671 16.9401 17.6671 19.3333H19.6671ZM22.0005 17C23.2891 17 24.3338 18.0447 24.3338 19.3333H26.3338C26.3338 16.9401 24.3938 15 22.0005 15V17ZM24.3338 19.3333C24.3338 19.4847 24.3195 19.6316 24.2926 19.7733L26.2573 20.1473C26.3077 19.8829 26.3338 19.6108 26.3338 19.3333H24.3338ZM23.3898 22.6221L23.0199 24.4705L24.9811 24.8628L25.3509 23.0145L23.3898 22.6221ZM19.7085 19.7733C19.6814 19.6316 19.6671 19.4847 19.6671 19.3333H17.6671C17.6671 19.6108 17.6934 19.8829 17.7437 20.1473L19.7085 19.7733ZM18.6502 23.0145L19.0199 24.8628L20.9811 24.4705L20.6113 22.6221L18.6502 23.0145ZM17.7437 20.1473C17.8559 20.7369 18.0663 21.2875 18.2401 21.7451C18.4245 22.2307 18.5715 22.6215 18.6502 23.0145L20.6113 22.6221C20.4943 22.0376 20.2822 21.4891 20.1098 21.0351C19.9267 20.5529 19.7826 20.1632 19.7085 19.7733L17.7437 20.1473ZM24.2926 19.7733C24.2183 20.1632 24.0743 20.5529 23.8911 21.0351C23.7187 21.4891 23.5067 22.0376 23.3898 22.6221L25.3509 23.0145C25.4295 22.6215 25.5765 22.2307 25.761 21.7451C25.9347 21.2875 26.1451 20.7369 26.2573 20.1473L24.2926 19.7733ZM24.0005 23.6667H20.0005V25.6667H24.0005V23.6667ZM19.6494 23.7303L14.3157 25.7303L15.0178 27.6031L20.3517 25.6031L19.6494 23.7303ZM29.6846 25.7304L24.3517 23.7304L23.6494 25.6029L28.9822 27.6029L29.6846 25.7304ZM14.6667 30.3333H29.3334V28.3333H14.6667V30.3333ZM13.6667 26.6667V29.3333H15.6667V26.6667H13.6667ZM30.3334 29.3333V26.6667H28.3334V29.3333H30.3334Z" fill="#4E2FDA"/>
<path d="M22.6667 12.0003V2.66699H2.66675V29.3337H10.6667" stroke="#4E2FDA" stroke-width="1.8" stroke-linejoin="round"/>
<path d="M8.66675 10.6667L11.0001 13.3333L16.0001 8" stroke="#4E2FDA" stroke-width="1.8"/>
<path d="M6.66675 18.667H13.3334M6.66675 22.667H13.3334" stroke="#4E2FDA" stroke-width="1.8"/>
</svg>
