<svg width="23" height="32" viewBox="0 0 23 32" fill="none" xmlns="http://www.w3.org/2000/svg">
<path d="M21.2828 32H1.66494C0.746756 32 0 31.2532 0 30.3355V5.10982C0 4.19123 0.746756 3.44407 1.66494 3.44407H5.77029C5.91544 3.44407 6.03309 3.56213 6.03309 3.70727C6.03309 3.85242 6.03309 4.56925 5.77029 4.56925H1.66494C1.03665 4.56925 1 4.48112 1 5.10982V17.7802V30.3355C1 30.9634 1.03665 31.4744 1.66494 31.4744H21.2828C21.9107 31.4744 22 30.9634 22 30.3355V17.5V5.10982C22 4.48112 21.9107 3.97008 21.2828 3.97008H16.9988C16.8536 3.97008 16.736 3.85242 16.736 3.70727C16.736 3.56213 16.8536 3.44407 16.9988 3.44407H21.2828C22.2002 3.44407 22.947 4.19123 22.947 5.10982V30.3355C22.947 31.2532 22.2002 32 21.2828 32Z" fill="#FF0A54"/>
<path d="M7.27514 9.43528C4.80481 9.57194 2.83624 11.6226 2.83624 14.1241C2.83624 16.4416 4.56668 18.4421 6.86072 18.7772C7.06813 18.8088 7.29536 18.8246 7.53835 18.8246C10.0398 18.8246 12.0909 16.8568 12.2271 14.3869H7.53835C7.39279 14.3869 7.27514 14.2692 7.27514 14.1241V9.43528ZM7.53835 19.3502C7.26948 19.3502 7.01558 19.3324 6.78391 19.2972C4.23434 18.9248 2.31104 16.7007 2.31104 14.1241C2.31104 11.2446 4.65562 8.90241 7.53835 8.90241C7.68349 8.90241 7.80115 9.02006 7.80115 9.16521V13.8609H12.4972C12.6428 13.8609 12.7604 13.9785 12.7604 14.1241C12.7604 17.0056 10.4178 19.3502 7.53835 19.3502Z" fill="#FF0A54"/>
<path d="M9 12.9994H12.5C13 10.4994 11 9.49939 9 8.99939V10.9994V12.9994ZM13.3248 13.5638H8.36477C8.21922 13.5638 8.10156 13.4462 8.10156 13.3006V8.33734C8.10156 8.19219 8.21922 8.07454 8.36477 8.07454C11.2447 8.07454 13.588 10.4187 13.588 13.3006C13.588 13.4462 13.4704 13.5638 13.3248 13.5638Z" fill="#FF0A54"/>
<path d="M6.06377 4.53592H16.6971V3.13338C16.6971 2.66357 16.4569 2.33608 16.2414 2.33608H14.1398C14.0424 2.33608 13.9522 2.2819 13.9074 2.19538C13.3587 1.14984 12.4151 0.52599 11.3829 0.52599C10.3503 0.52599 9.4066 1.14984 8.85755 2.19538C8.81227 2.2819 8.72251 2.33608 8.62507 2.33608H6.52388C6.30636 2.33608 6.06377 2.66357 6.06377 3.13338V4.53592ZM16.9603 5.06152H5.80097C5.65623 5.06152 5.53857 4.94387 5.53857 4.79872V3.13338C5.53857 2.39147 5.97119 1.81007 6.52388 1.81007H8.46981C9.12075 0.673563 10.1994 -1.66627e-05 11.3829 -1.66627e-05C12.5663 -1.66627e-05 13.6446 0.673563 14.2955 1.81007H16.2414C16.7917 1.81007 17.2231 2.39147 17.2231 3.13338V4.79872C17.2231 4.94387 17.1054 5.06152 16.9603 5.06152Z" fill="#FF0A54"/>
<path d="M11.3828 1.91219C11.1851 1.91219 11.0245 2.07351 11.0245 2.27121C11.0245 2.46892 11.1851 2.63024 11.3828 2.63024C11.5801 2.63024 11.7406 2.46892 11.7406 2.27121C11.7406 2.07351 11.5801 1.91219 11.3828 1.91219ZM11.3828 3.15625C10.8956 3.15625 10.4985 2.75881 10.4985 2.27121C10.4985 1.78362 10.8956 1.38659 11.3828 1.38659C11.87 1.38659 12.2666 1.78362 12.2666 2.27121C12.2666 2.75881 11.87 3.15625 11.3828 3.15625Z" fill="#FF0A54"/>
<path d="M1.77267 30.7598H20.6155V30.3195C20.6155 30.0773 20.4158 29.88 20.1707 29.88H18.7585C18.6327 29.88 18.5248 29.7914 18.5005 29.6677C18.3295 28.7997 18.0093 27.9793 17.548 27.2301C17.4841 27.1262 17.4995 26.9924 17.5856 26.9063L18.5446 25.9473C18.7136 25.7787 18.7136 25.4932 18.5446 25.3246L17.1659 23.9415C17.0018 23.7798 16.7066 23.7782 16.5388 23.9427L15.6267 24.8581C15.539 24.947 15.4007 24.9612 15.296 24.892C14.5379 24.3935 13.7038 24.0385 12.816 23.8376C12.6967 23.8105 12.6114 23.7042 12.6114 23.5813V22.315C12.6114 22.0728 12.4116 21.8751 12.1666 21.8751H10.2175C9.97488 21.8751 9.77799 22.0728 9.77799 22.315V23.5813C9.77799 23.7042 9.69267 23.8109 9.57259 23.8376C8.67948 24.0389 7.84499 24.3935 7.09136 24.8916C6.98705 24.9604 6.84917 24.9466 6.76062 24.8581L5.84487 23.9415C5.68153 23.7786 5.38557 23.7782 5.22182 23.9419L3.83909 25.3246C3.67049 25.4932 3.67049 25.7787 3.83909 25.9473L4.79811 26.9063C4.88382 26.9924 4.8996 27.1254 4.83653 27.2293C4.3744 27.987 4.05338 28.8074 3.88357 29.6681C3.85931 29.7914 3.75135 29.88 3.62561 29.88H2.21296C1.97037 29.88 1.77267 30.0773 1.77267 30.3195V30.7598ZM20.8783 31.2858H1.50987C1.36472 31.2858 1.24707 31.1681 1.24707 31.0226V30.3195C1.24707 29.7874 1.68049 29.354 2.21296 29.354H3.41254C3.58842 28.5765 3.88033 27.8314 4.28221 27.1335L3.46753 26.3192C3.09112 25.9424 3.09112 25.3291 3.46753 24.9527L4.85027 23.5699C5.21293 23.2085 5.85457 23.2085 6.21643 23.5699L6.98299 24.3369C7.68204 23.9011 8.44417 23.5776 9.25198 23.3738V22.315C9.25198 21.7825 9.68499 21.3495 10.2175 21.3495H12.1666C12.7015 21.3495 13.137 21.7825 13.137 22.315V23.3738C13.9403 23.578 14.7013 23.9011 15.4039 24.3373L16.1685 23.5703C16.5352 23.2073 17.1696 23.2077 17.5363 23.5683L18.9166 24.9531C19.2934 25.3291 19.2934 25.9424 18.9166 26.3192L18.1023 27.1331C18.5038 27.8253 18.7953 28.5704 18.9716 29.354H20.1707C20.7056 29.354 21.1411 29.7874 21.1411 30.3195V31.0226C21.1411 31.1681 21.0234 31.2858 20.8783 31.2858Z" fill="#FF0A54"/>
<path d="M7.58517 30.7598H14.7993C14.5389 28.995 13.0061 27.6502 11.1928 27.6502C9.3795 27.6502 7.84636 28.9945 7.58517 30.7598ZM15.0997 31.2858C15.0976 31.2858 15.0944 31.2858 15.0916 31.2858H7.29245C7.21968 31.2858 7.15014 31.2554 7.10041 31.2021C7.05068 31.1487 7.02521 31.0771 7.03046 31.0048C7.18127 28.8288 9.00955 27.1242 11.1928 27.1242C13.3547 27.1242 15.1672 28.7944 15.3487 30.9385C15.358 30.9652 15.3625 30.993 15.3625 31.0226C15.3625 31.1681 15.2448 31.2858 15.0997 31.2858Z" fill="#FF0A54"/>
<path d="M20.0782 19.3502H7.53811C7.39256 19.3502 7.2749 19.2325 7.2749 19.0874C7.2749 18.9422 7.39256 18.8246 7.53811 18.8246H20.0782C20.2237 18.8246 20.3414 18.9422 20.3414 19.0874C20.3414 19.2325 20.2237 19.3502 20.0782 19.3502Z" fill="#FF0A54"/>
<path d="M14.9522 19.3703C14.8066 19.3703 14.689 19.2526 14.689 19.1075V14.8117C14.689 14.6662 14.8544 14.4992 15 14.4992C15 14.4992 15.5 14.6662 15.5 14.8117V16.9992V17.9992V19.1075C15.5 19.2526 15.0973 19.3703 14.9522 19.3703Z" fill="#FF0A54"/>
<path d="M17.4918 19.4247C17.3467 19.4247 17.229 19.3071 17.229 19.1615V12.0154C17.229 11.8698 17.3467 11.7522 17.4918 11.7522C17.637 11.7522 17.7546 11.8698 17.7546 12.0154V19.1615C17.7546 19.3071 17.637 19.4247 17.4918 19.4247Z" fill="#FF0A54"/>
<path d="M19.5231 19.4052C19.3779 19.4052 19.2603 19.2876 19.2603 19.1424V13.157C19.2603 13.0119 19.3779 12.8942 19.5231 12.8942C19.6686 12.8942 19.7863 13.0119 19.7863 13.157V19.1424C19.7863 19.2876 19.6686 19.4052 19.5231 19.4052Z" fill="#FF0A54"/>
</svg>
