<svg width="29" height="32" viewBox="0 0 29 32" fill="none" xmlns="http://www.w3.org/2000/svg">
<path d="M10.3611 25.0689V28.2714C10.3611 30.0375 11.7976 31.4744 13.564 31.4744H14.8291C16.5951 31.4744 18.0321 30.0375 18.0321 28.2714V25.0689H10.3611ZM14.8291 32H13.564C11.5081 32 9.83545 30.3274 9.83545 28.2714V24.8057C9.83545 24.6605 9.9531 24.5429 10.0983 24.5429H18.2949C18.44 24.5429 18.5577 24.6605 18.5577 24.8057V28.2714C18.5577 30.3274 16.885 32 14.8291 32Z" fill="#FF0A54"/>
<path d="M10.3122 24.5428H18.0803C18.4126 23.0651 19.3264 21.5525 20.6723 20.26C22.8746 18.1648 23.9464 15.2202 23.6133 12.1806C23.1196 7.70894 19.5119 4.10167 15.0354 3.60397C14.9048 3.60599 14.754 3.59225 14.6056 3.5785C14.4734 3.56597 14.3408 3.55343 14.1965 3.55343C13.8932 3.55343 13.6535 3.55343 13.368 3.60155C8.88583 4.10087 5.27857 7.70813 4.77561 12.1814C4.44286 15.2186 5.5159 18.1628 7.7194 20.2592C9.06616 21.5526 9.9799 23.0651 10.3122 24.5428ZM18.2946 25.0688H10.098C9.97141 25.0688 9.86265 24.9783 9.83961 24.8542C9.57074 23.4156 8.68853 21.9189 7.35633 20.6392C5.03356 18.4297 3.9023 15.3253 4.25324 12.1236C4.78329 7.40772 8.58624 3.60518 13.2948 3.08119C13.609 3.02742 13.8815 3.02742 14.1965 3.02742C14.3582 3.02742 14.5062 3.04077 14.6545 3.05492C14.7872 3.06705 14.9194 3.07958 15.0645 3.07958C19.8123 3.60639 23.6149 7.40894 24.1356 12.1232C24.4866 15.3274 23.3565 18.4317 21.0354 20.64C19.7036 21.9189 18.8218 23.4156 18.5529 24.8542C18.5295 24.9783 18.4211 25.0688 18.2946 25.0688Z" fill="#FF0A54"/>
<path d="M19.2783 26.7988H9.11388C8.96873 26.7988 8.85107 26.6812 8.85107 26.536C8.85107 26.3905 8.96873 26.2728 9.11388 26.2728H19.2783C19.4234 26.2728 19.5411 26.3905 19.5411 26.536C19.5411 26.6812 19.4234 26.7988 19.2783 26.7988Z" fill="#FF0A54"/>
<path d="M19.2783 28.5649H9.11388C8.96873 28.5649 8.85107 28.4473 8.85107 28.3021C8.85107 28.157 8.96873 28.0393 9.11388 28.0393H19.2783C19.4234 28.0393 19.5411 28.157 19.5411 28.3021C19.5411 28.4473 19.4234 28.5649 19.2783 28.5649Z" fill="#FF0A54"/>
<path d="M19.2783 30.3275H9.11388C8.96873 30.3275 8.85107 30.2098 8.85107 30.0642C8.85107 29.9191 8.96873 29.8014 9.11388 29.8014H19.2783C19.4234 29.8014 19.5411 29.9191 19.5411 30.0642C19.5411 30.2098 19.4234 30.3275 19.2783 30.3275Z" fill="#FF0A54"/>
<path d="M11.5054 16.1077C11.5523 16.1077 11.5992 16.1202 11.6417 16.1461C12.1034 16.4259 12.6035 16.628 13.1279 16.7469C13.2476 16.7736 13.3325 16.8803 13.3325 17.0032V18.1042C13.3325 18.2174 13.4283 18.3124 13.5415 18.3124H14.8471C14.9627 18.3124 15.0565 18.219 15.0565 18.1042V17.0032C15.0565 16.8799 15.1418 16.7728 15.2627 16.7465C15.7758 16.6337 16.2767 16.4311 16.7518 16.1457C16.8553 16.083 16.9879 16.0992 17.0732 16.1849L17.8369 16.9523C17.9146 17.0283 18.0561 17.0307 18.1349 16.9519L19.0547 16.028C19.0972 15.9864 19.1186 15.935 19.1186 15.8804C19.119 15.8259 19.0972 15.7741 19.0575 15.7353L18.3177 14.9914C18.2295 14.9028 18.2158 14.7649 18.2849 14.661C18.5914 14.1997 18.8141 13.6919 18.9484 13.1522C18.9779 13.0349 19.083 12.9524 19.2035 12.9524H20.2106C20.3234 12.9524 20.4152 12.8594 20.4152 12.7442V11.4383C20.4152 11.321 20.3255 11.2292 20.2106 11.2292H19.2601C19.1344 11.2292 19.0264 11.1407 19.0022 11.0174C18.8894 10.4445 18.6791 9.90432 18.3771 9.41227C18.3136 9.30877 18.329 9.17575 18.4147 9.08963L19.0547 8.44596C19.0972 8.40473 19.1182 8.355 19.1186 8.30123C19.119 8.24503 19.0972 8.19165 19.0567 8.15203L18.1345 7.22576C18.0601 7.15298 17.915 7.15137 17.8333 7.2298L17.2268 7.8395C17.1387 7.92885 17 7.9426 16.8957 7.87387C16.3948 7.54314 15.8449 7.30985 15.2623 7.18087C15.1418 7.15379 15.0565 7.04746 15.0565 6.92414V6.07469C15.0565 5.95986 14.9627 5.86647 14.8471 5.86647H13.5415C13.4283 5.86647 13.3325 5.96188 13.3325 6.07469V6.92414C13.3325 7.04746 13.2472 7.15379 13.1271 7.18087C12.5461 7.31025 11.9979 7.54314 11.4965 7.87387C11.3926 7.9422 11.2547 7.92804 11.1662 7.84031L10.5521 7.22616C10.4777 7.15258 10.3345 7.15096 10.2553 7.22819L9.33387 8.15042C9.29424 8.19004 9.27241 8.24382 9.27281 8.30123C9.27322 8.35621 9.29384 8.40635 9.33103 8.44314L9.97753 9.08883C10.0632 9.17494 10.079 9.30877 10.0155 9.41227C9.70907 9.9116 9.49761 10.4514 9.38683 11.017C9.36257 11.1403 9.25421 11.2292 9.12888 11.2292H8.18198C8.06676 11.2292 7.97336 11.323 7.97336 11.4383V12.7442C7.97336 12.8574 8.06878 12.9524 8.18198 12.9524H9.18467C9.30475 12.9524 9.40947 13.0341 9.43939 13.1501C9.57767 13.6927 9.80246 14.2009 10.1077 14.661C10.1765 14.7649 10.1627 14.9036 10.0746 14.9922L9.33387 15.7333C9.29424 15.7725 9.27281 15.8251 9.27281 15.8804C9.27281 15.9362 9.29424 15.988 9.33306 16.0268L10.2577 16.9523C10.3353 17.0291 10.4732 17.0303 10.5521 16.9523L11.3194 16.1845C11.37 16.1339 11.4375 16.1077 11.5054 16.1077ZM14.8471 18.8384H13.5415C13.1364 18.8384 12.8073 18.5089 12.8073 18.1042V17.2086C12.3682 17.0918 11.9465 16.9211 11.5483 16.6996L10.9236 17.3238C10.6479 17.6 10.1631 17.6 9.88575 17.3238L8.9619 16.3988C8.82362 16.2621 8.74761 16.0777 8.74721 15.8813C8.74681 15.6844 8.82322 15.4996 8.9623 15.3613L9.55381 14.769C9.30961 14.3667 9.11877 13.9341 8.98454 13.4784H8.18198C7.77727 13.4784 7.44775 13.1489 7.44775 12.7442V11.4383C7.44775 11.0332 7.77727 10.7036 8.18198 10.7036H8.91702C9.03265 10.2197 9.215 9.75513 9.46203 9.31685L8.9619 8.81713C8.82564 8.68371 8.74842 8.50136 8.74721 8.30486C8.746 8.10594 8.822 7.91915 8.96149 7.77885L9.88575 6.8542C10.1667 6.58007 10.6459 6.58169 10.922 6.85258L11.3894 7.31956C11.8329 7.0511 12.3084 6.84934 12.8073 6.71754V6.07469C12.8073 5.66997 13.1364 5.34046 13.5415 5.34046H14.8471C15.2522 5.34046 15.5817 5.66997 15.5817 6.07469V6.71754C16.0818 6.84894 16.5585 7.05069 17.0024 7.31916L17.4646 6.85501C17.7524 6.57725 18.2283 6.5829 18.5044 6.85217L19.4271 7.77885C19.5678 7.91753 19.6458 8.10513 19.6446 8.30486C19.643 8.50216 19.5641 8.68532 19.4226 8.82076L18.9302 9.31645C19.174 9.75027 19.3555 10.2156 19.472 10.7036H20.2106C20.6133 10.7036 20.9408 11.0332 20.9408 11.4383V12.7442C20.9408 13.1489 20.6133 13.4784 20.2106 13.4784H19.4048C19.2734 13.9337 19.0834 14.3663 18.8384 14.7698L19.4275 15.3621C19.5666 15.498 19.6446 15.6835 19.6446 15.8813C19.6442 16.079 19.5658 16.2637 19.4243 16.4012L18.5073 17.323C18.2295 17.6 17.7472 17.6008 17.4666 17.3254L16.8435 16.6996C16.4376 16.9244 16.0147 17.0958 15.5817 17.2098V18.1042C15.5817 18.5089 15.2522 18.8384 14.8471 18.8384Z" fill="#FF0A54"/>
<path d="M14.1965 9.73613C12.8991 9.73613 11.843 10.7914 11.843 12.0888C11.843 13.3887 12.8991 14.4455 14.1965 14.4455C15.4939 14.4455 16.5492 13.3887 16.5492 12.0888C16.5492 10.7914 15.4939 9.73613 14.1965 9.73613ZM14.1965 14.9716C12.6092 14.9716 11.3174 13.6786 11.3174 12.0888C11.3174 10.5019 12.6092 9.21012 14.1965 9.21012C15.7838 9.21012 17.0748 10.5019 17.0748 12.0888C17.0748 13.6786 15.7838 14.9716 14.1965 14.9716Z" fill="#FF0A54"/>
<path d="M13.7617 25.073C13.7253 25.073 13.6881 25.0649 13.6525 25.0487C13.5919 25.0213 13.547 24.9735 13.5219 24.9169L11.0674 20.8548C10.9922 20.7307 11.0318 20.569 11.1563 20.4938C11.2804 20.419 11.4418 20.4586 11.517 20.5831L13.697 24.1904L14.7523 20.6442C14.7939 20.5051 14.9407 20.4258 15.0793 20.4671C15.2184 20.5087 15.2977 20.6551 15.256 20.7942L14.0775 24.7463L14.001 24.9198C13.9566 25.016 13.8612 25.073 13.7617 25.073Z" fill="#FF0A54"/>
<path d="M12.9918 20.5056C12.7436 20.5056 12.4678 20.4251 12.1707 20.1922C11.7025 19.8271 11.208 20.0066 10.701 20.2419C10.5146 20.3285 10.38 20.3915 10.2477 20.3915C10.103 20.3915 9.98535 20.2735 9.98535 20.1283C9.98535 19.986 10.0986 19.8696 10.2401 19.8659C10.2809 19.8578 10.3957 19.8045 10.4798 19.7657C10.9181 19.5623 11.7332 19.1831 12.4945 19.7786C12.9356 20.1227 13.232 19.9662 13.608 19.7661C13.815 19.6557 14.0293 19.5421 14.2678 19.5324C14.8516 19.5069 15.8923 19.9347 16.0088 19.984C16.1426 20.0398 16.2053 20.1942 16.1491 20.3277C16.0929 20.4615 15.9388 20.525 15.805 20.468C15.5179 20.3475 14.6887 20.0293 14.2917 20.0572C14.1704 20.062 14.0171 20.1437 13.8546 20.2302C13.6294 20.3499 13.3367 20.5056 12.9918 20.5056Z" fill="#FF0A54"/>
<path d="M14.1964 2.23218C14.0512 2.23218 13.9336 2.11452 13.9336 1.96938V0.26278C13.9336 0.117632 14.0512 -2.24113e-05 14.1964 -2.24113e-05C14.3415 -2.24113e-05 14.4592 0.117632 14.4592 0.26278V1.96938C14.4592 2.11452 14.3415 2.23218 14.1964 2.23218Z" fill="#FF0A54"/>
<path d="M20.3073 3.87097C20.2628 3.87097 20.2176 3.85965 20.1763 3.83539C20.0506 3.76342 20.0077 3.6021 20.0801 3.47677L20.9336 1.9982C21.0064 1.87286 21.1669 1.8292 21.2926 1.90238C21.4184 1.97476 21.4612 2.13567 21.3888 2.26141L20.5353 3.73957C20.4864 3.82367 20.3983 3.87097 20.3073 3.87097Z" fill="#FF0A54"/>
<path d="M24.7804 8.34424C24.6898 8.34424 24.6013 8.29653 24.5527 8.21243C24.4804 8.08669 24.5232 7.92578 24.649 7.85381L26.1271 7.00031C26.2525 6.92753 26.4134 6.9708 26.4862 7.09654C26.5585 7.22228 26.5157 7.38319 26.3899 7.45516L24.9114 8.30866C24.8701 8.33252 24.8252 8.34424 24.7804 8.34424Z" fill="#FF0A54"/>
<path d="M28.1261 14.4551H26.4195C26.2744 14.4551 26.1567 14.3374 26.1567 14.1919C26.1567 14.0467 26.2744 13.9291 26.4195 13.9291H28.1261C28.2713 13.9291 28.3889 14.0467 28.3889 14.1919C28.3889 14.3374 28.2713 14.4551 28.1261 14.4551Z" fill="#FF0A54"/>
<path d="M26.2585 21.4241C26.2137 21.4241 26.1684 21.4128 26.1271 21.389L24.649 20.5363C24.5232 20.4635 24.4804 20.303 24.5527 20.1768C24.6251 20.0519 24.786 20.0086 24.9114 20.0806L26.3899 20.9333C26.5157 21.0061 26.5585 21.1666 26.4862 21.2927C26.4376 21.3768 26.3491 21.4241 26.2585 21.4241Z" fill="#FF0A54"/>
<path d="M2.13047 21.4241C2.0399 21.4241 1.95136 21.3768 1.90284 21.2927C1.83047 21.1666 1.87333 21.0061 1.99907 20.9333L3.47723 20.0806C3.60257 20.0086 3.76389 20.0519 3.83626 20.1768C3.90863 20.303 3.86577 20.4635 3.74003 20.5363L2.26187 21.389C2.22023 21.4128 2.17535 21.4241 2.13047 21.4241Z" fill="#FF0A54"/>
<path d="M1.97304 14.4551H0.262802C0.117655 14.4551 0 14.3374 0 14.1919C0 14.0467 0.117655 13.9291 0.262802 13.9291H1.97304C2.11818 13.9291 2.23584 14.0467 2.23584 14.1919C2.23584 14.3374 2.11818 14.4551 1.97304 14.4551Z" fill="#FF0A54"/>
<path d="M3.60863 8.34424C3.56375 8.34424 3.51847 8.33252 3.47723 8.30866L1.99907 7.45516C1.87333 7.38319 1.83047 7.22228 1.90284 7.09654C1.97562 6.9708 2.13613 6.92753 2.26187 7.00031L3.74003 7.85381C3.86577 7.92578 3.90863 8.08669 3.83626 8.21243C3.78734 8.29653 3.6992 8.34424 3.60863 8.34424Z" fill="#FF0A54"/>
<path d="M8.08475 3.87097C7.99418 3.87097 7.90564 3.82367 7.85712 3.73957L7.00362 2.26141C6.93085 2.13567 6.97411 1.97476 7.09944 1.90238C7.22518 1.8292 7.3861 1.87286 7.45888 1.9982L8.31238 3.47677C8.38475 3.6021 8.34189 3.76342 8.21615 3.83539C8.17491 3.85965 8.12963 3.87097 8.08475 3.87097Z" fill="#FF0A54"/>
</svg>
