<svg width="32" height="32" viewBox="0 0 32 32" fill="none" xmlns="http://www.w3.org/2000/svg">
<path d="M28.0001 23.3337C28.0001 25.911 25.9107 28.0003 23.3334 28.0003C20.7561 28.0003 18.6667 25.911 18.6667 23.3337C18.6667 20.7563 20.7561 18.667 23.3334 18.667C25.9107 18.667 28.0001 20.7563 28.0001 23.3337Z" stroke="#4E2FDA" stroke-width="1.8"/>
<path d="M23.3333 18.667H8.66667C6.08933 18.667 4 20.7563 4 23.3337C4 25.911 6.08933 28.0003 8.66667 28.0003H23.3333C25.9107 28.0003 28 25.911 28 23.3337C28 20.7563 25.9107 18.667 23.3333 18.667Z" stroke="#4E2FDA" stroke-width="1.8"/>
<path d="M4 8.66667C4 11.244 6.08933 13.3333 8.66667 13.3333C11.244 13.3333 13.3333 11.244 13.3333 8.66667C13.3333 6.08933 11.244 4 8.66667 4C6.08933 4 4 6.08933 4 8.66667Z" stroke="#4E2FDA" stroke-width="1.8"/>
<path d="M8.66667 4H23.3333C25.9107 4 28 6.08933 28 8.66667C28 11.244 25.9107 13.3333 23.3333 13.3333H8.66667C6.08933 13.3333 4 11.244 4 8.66667C4 6.08933 6.08933 4 8.66667 4Z" stroke="#4E2FDA" stroke-width="1.8"/>
</svg>
