<svg width="20" height="20" viewBox="0 0 20 20" fill="none" xmlns="http://www.w3.org/2000/svg">
<path fill-rule="evenodd" clip-rule="evenodd" d="M5.58105 2.72385C6.96354 2.44203 8.45158 2.28906 10.0004 2.28906C11.5492 2.28906 13.0373 2.44203 14.4198 2.72385L14.5258 2.74545C16.1047 3.0668 17.1567 3.28093 18.0632 4.4465C18.9601 5.59955 18.9596 6.93673 18.9588 9.00773V10.9871C18.9596 13.0581 18.9601 14.3952 18.0632 15.5483C17.1567 16.7139 16.1047 16.928 14.5258 17.2493L14.4198 17.271C13.0373 17.5527 11.5492 17.7057 10.0004 17.7057C8.45158 17.7057 6.96354 17.5527 5.58105 17.271L5.47498 17.2493C3.89612 16.928 2.84412 16.7139 1.93758 15.5483C1.04076 14.3952 1.04126 13.0581 1.04204 10.9871V9.00773C1.04126 6.93673 1.04076 5.59955 1.93758 4.4465C2.84412 3.28093 3.89612 3.0668 5.47498 2.74545L5.58105 2.72385ZM9.41249 6.87426C9.84466 7.05561 10.3695 7.34875 11.0113 7.70717C11.0957 7.75435 11.1807 7.80121 11.2657 7.84813C11.6852 8.07971 12.1071 8.31265 12.4962 8.5924C12.8458 8.84381 13.1776 9.1554 13.2874 9.60981C13.3491 9.8649 13.3491 10.1299 13.2874 10.385C13.1776 10.8394 12.8458 11.151 12.4962 11.4024C12.1071 11.6821 11.6851 11.9151 11.2656 12.1467C11.1806 12.1936 11.0957 12.2405 11.0113 12.2876C10.3695 12.6461 9.84466 12.9391 9.41249 13.1206C8.70999 13.4153 7.96509 13.4392 7.35284 12.9376C6.96963 12.6236 6.83417 12.174 6.77474 11.721C6.63111 10.6261 6.63105 9.36923 6.77474 8.27383C6.83417 7.82078 6.96963 7.37121 7.35284 7.05724C7.96509 6.55559 8.70999 6.57944 9.41249 6.87426Z" fill="#1B6CFC"/>
</svg>
