<svg width="20" height="20" viewBox="0 0 20 20" fill="none" xmlns="http://www.w3.org/2000/svg">
<path fill-rule="evenodd" clip-rule="evenodd" d="M5.58105 2.72678C6.96354 2.44496 8.45158 2.29199 10.0004 2.29199C11.5492 2.29199 13.0373 2.44496 14.4198 2.72678L14.5258 2.74838C16.1047 3.06973 17.1567 3.28386 18.0632 4.44943C18.9601 5.60248 18.9596 6.93966 18.9588 9.01066V10.99C18.9596 13.061 18.9601 14.3982 18.0632 15.5512C17.1567 16.7168 16.1047 16.9309 14.5258 17.2522L14.4198 17.2739C13.0373 17.5557 11.5492 17.7087 10.0004 17.7087C8.45158 17.7087 6.96354 17.5557 5.58105 17.2739L5.47498 17.2522C3.89612 16.9309 2.84412 16.7168 1.93758 15.5512C1.04076 14.3982 1.04126 13.061 1.04204 10.99V9.01066C1.04126 6.93966 1.04076 5.60248 1.93758 4.44943C2.84412 3.28386 3.89612 3.06973 5.47498 2.74838L5.58105 2.72678ZM9.41249 6.87719C9.84466 7.05854 10.3695 7.35168 11.0113 7.7101C11.0957 7.75728 11.1807 7.80414 11.2657 7.85106C11.6852 8.08264 12.1071 8.31558 12.4962 8.59533C12.8458 8.84674 13.1776 9.15833 13.2874 9.61274C13.3491 9.86783 13.3491 10.1328 13.2874 10.3879C13.1776 10.8423 12.8458 11.1539 12.4962 11.4053C12.1071 11.6851 11.6851 11.9181 11.2656 12.1497C11.1806 12.1966 11.0957 12.2434 11.0113 12.2906C10.3695 12.649 9.84466 12.9421 9.41249 13.1235C8.70999 13.4182 7.96509 13.4422 7.35284 12.9405C6.96963 12.6265 6.83417 12.1769 6.77474 11.7239C6.63111 10.629 6.63105 9.37216 6.77474 8.27676C6.83417 7.82371 6.96963 7.37414 7.35284 7.06017C7.96509 6.55852 8.70999 6.58237 9.41249 6.87719Z" fill="#4E2FDA"/>
</svg>
