<svg width="20" height="20" viewBox="0 0 20 20" fill="none" xmlns="http://www.w3.org/2000/svg">
<path fill-rule="evenodd" clip-rule="evenodd" d="M5.58105 2.72775C6.96354 2.44594 8.45158 2.29297 10.0004 2.29297C11.5492 2.29297 13.0373 2.44594 14.4198 2.72775L14.5258 2.74935C16.1047 3.07071 17.1567 3.28484 18.0632 4.4504C18.9601 5.60345 18.9596 6.94064 18.9588 9.01164V10.991C18.9596 13.062 18.9601 14.3991 18.0632 15.5522C17.1567 16.7178 16.1047 16.9319 14.5258 17.2532L14.4198 17.2749C13.0373 17.5566 11.5492 17.7096 10.0004 17.7096C8.45158 17.7096 6.96354 17.5566 5.58105 17.2749L5.47498 17.2532C3.89612 16.9319 2.84412 16.7178 1.93758 15.5522C1.04076 14.3991 1.04126 13.062 1.04204 10.991V9.01164C1.04126 6.94064 1.04076 5.60345 1.93758 4.4504C2.84412 3.28484 3.89612 3.07071 5.47498 2.74935L5.58105 2.72775ZM9.41249 6.87817C9.84466 7.05952 10.3695 7.35266 11.0113 7.71108C11.0957 7.75825 11.1807 7.80512 11.2657 7.85204C11.6852 8.08362 12.1071 8.31655 12.4962 8.5963C12.8458 8.84772 13.1776 9.1593 13.2874 9.61372C13.3491 9.8688 13.3491 10.1338 13.2874 10.3889C13.1776 10.8433 12.8458 11.1549 12.4962 11.4063C12.1071 11.6861 11.6851 11.9191 11.2656 12.1506C11.1806 12.1976 11.0957 12.2444 11.0113 12.2916C10.3695 12.65 9.84466 12.9431 9.41249 13.1245C8.70999 13.4192 7.96509 13.4431 7.35284 12.9415C6.96963 12.6275 6.83417 12.1779 6.77474 11.7249C6.63111 10.63 6.63105 9.37314 6.77474 8.27774C6.83417 7.82469 6.96963 7.37512 7.35284 7.06114C7.96509 6.55949 8.70999 6.58334 9.41249 6.87817Z" fill="#090B0E"/>
</svg>
