<svg width="102" height="102" viewBox="0 0 102 102" fill="none" xmlns="http://www.w3.org/2000/svg">
<circle cx="50.9121" cy="5.65685" r="4" transform="rotate(45 50.9121 5.65685)" fill="#D9D9D9"/>
<circle cx="62.2256" cy="16.9706" r="4" transform="rotate(45 62.2256 16.9706)" fill="#D9D9D9"/>
<circle cx="73.5391" cy="28.2843" r="4" transform="rotate(45 73.5391 28.2843)" fill="#D9D9D9"/>
<circle cx="84.8535" cy="39.598" r="4" transform="rotate(45 84.8535 39.598)" fill="#D9D9D9"/>
<circle cx="96.167" cy="50.9117" r="4" transform="rotate(45 96.167 50.9117)" fill="#D9D9D9"/>
<circle cx="39.5986" cy="16.9706" r="4" transform="rotate(45 39.5986 16.9706)" fill="#D9D9D9"/>
<circle cx="50.9121" cy="28.2843" r="4" transform="rotate(45 50.9121 28.2843)" fill="#D9D9D9"/>
<circle cx="62.2256" cy="39.598" r="4" transform="rotate(45 62.2256 39.598)" fill="#D9D9D9"/>
<circle cx="73.54" cy="50.9117" r="4" transform="rotate(45 73.54 50.9117)" fill="#D9D9D9"/>
<circle cx="84.8535" cy="62.2254" r="4" transform="rotate(45 84.8535 62.2254)" fill="#D9D9D9"/>
<circle cx="28.2852" cy="28.2843" r="4" transform="rotate(45 28.2852 28.2843)" fill="#D9D9D9"/>
<circle cx="39.5986" cy="39.598" r="4" transform="rotate(45 39.5986 39.598)" fill="#D9D9D9"/>
<circle cx="50.9121" cy="50.9117" r="4" transform="rotate(45 50.9121 50.9117)" fill="#D9D9D9"/>
<circle cx="62.2266" cy="62.2254" r="4" transform="rotate(45 62.2266 62.2254)" fill="#D9D9D9"/>
<circle cx="73.54" cy="73.5391" r="4" transform="rotate(45 73.54 73.5391)" fill="#D9D9D9"/>
<circle cx="16.9707" cy="39.598" r="4" transform="rotate(45 16.9707 39.598)" fill="#D9D9D9"/>
<circle cx="28.2842" cy="50.9117" r="4" transform="rotate(45 28.2842 50.9117)" fill="#D9D9D9"/>
<circle cx="39.5977" cy="62.2254" r="4" transform="rotate(45 39.5977 62.2254)" fill="#D9D9D9"/>
<circle cx="50.9121" cy="73.5391" r="4" transform="rotate(45 50.9121 73.5391)" fill="#D9D9D9"/>
<circle cx="62.2256" cy="84.8528" r="4" transform="rotate(45 62.2256 84.8528)" fill="#D9D9D9"/>
<circle cx="5.65723" cy="50.9117" r="4" transform="rotate(45 5.65723 50.9117)" fill="#D9D9D9"/>
<circle cx="16.9707" cy="62.2254" r="4" transform="rotate(45 16.9707 62.2254)" fill="#D9D9D9"/>
<circle cx="28.2842" cy="73.5391" r="4" transform="rotate(45 28.2842 73.5391)" fill="#D9D9D9"/>
<circle cx="39.5986" cy="84.8528" r="4" transform="rotate(45 39.5986 84.8528)" fill="#D9D9D9"/>
<circle cx="50.9121" cy="96.1665" r="4" transform="rotate(45 50.9121 96.1665)" fill="#D9D9D9"/>
</svg>
