<svg width="2775" height="1131" viewBox="0 0 2775 1131" fill="none" xmlns="http://www.w3.org/2000/svg">
<g opacity="0.18" filter="url(#filter0_f_1386_251)">
<path d="M838.09 320.107C929.311 368.514 974.322 500.667 954.998 621.205C935.675 741.744 853.133 850.124 746.665 899.434C640.755 948.472 510.42 937.419 396.798 878.45C283.485 818.698 187.442 710.76 202.44 612.532C217.687 514.816 343.915 428.103 475.745 367.078C608.381 306.29 746.62 271.19 838.09 320.107Z" fill="#7C877F"/>
</g>
<g opacity="0.18" filter="url(#filter1_f_1386_251)">
<path d="M2472.33 222.472C2544.99 264.993 2583.87 375.355 2572.15 474.324C2560.43 573.292 2498.96 660.45 2417.13 698.171C2335.72 735.683 2233.55 722.902 2143.09 671.032C2052.85 618.525 1974.75 526.722 1983.72 446.051C1992.89 365.809 2089.12 297.764 2190.44 251.083C2292.4 204.621 2399.47 179.522 2472.33 222.472Z" fill="#7C877F"/>
</g>
<defs>
<filter id="filter0_f_1386_251" x="0.890625" y="97.0312" width="1158.52" height="1033.3" filterUnits="userSpaceOnUse" color-interpolation-filters="sRGB">
<feFlood flood-opacity="0" result="BackgroundImageFix"/>
<feBlend mode="normal" in="SourceGraphic" in2="BackgroundImageFix" result="shape"/>
<feGaussianBlur stdDeviation="100" result="effect1_foregroundBlur_1386_251"/>
</filter>
<filter id="filter1_f_1386_251" x="1783.02" y="0.367188" width="991.195" height="919.406" filterUnits="userSpaceOnUse" color-interpolation-filters="sRGB">
<feFlood flood-opacity="0" result="BackgroundImageFix"/>
<feBlend mode="normal" in="SourceGraphic" in2="BackgroundImageFix" result="shape"/>
<feGaussianBlur stdDeviation="100" result="effect1_foregroundBlur_1386_251"/>
</filter>
</defs>
</svg>
