<svg width="150" height="50" viewBox="0 0 150 50" fill="none" xmlns="http://www.w3.org/2000/svg">
<path d="M63.628 34V22.168H66.604V34H63.628ZM63.532 20.344V17.272H66.724V20.344H63.532ZM69.5348 34V22.168H72.5348V24.856L72.0548 24.904C72.2628 24.184 72.5668 23.608 72.9668 23.176C73.3668 22.744 73.8308 22.432 74.3588 22.24C74.8868 22.032 75.4308 21.928 75.9908 21.928C77.3348 21.928 78.3828 22.312 79.1348 23.08C79.9028 23.832 80.2868 24.896 80.2868 26.272V34H77.2868V27.376C77.2868 26.384 77.1108 25.664 76.7588 25.216C76.4068 24.752 75.8548 24.52 75.1028 24.52C74.5268 24.52 74.0468 24.656 73.6628 24.928C73.2948 25.184 73.0148 25.592 72.8228 26.152C72.6308 26.712 72.5348 27.44 72.5348 28.336V34H69.5348ZM87.1857 34.24C86.3057 34.24 85.5377 34.112 84.8817 33.856C84.2257 33.6 83.6657 33.28 83.2017 32.896C82.7537 32.512 82.3937 32.144 82.1217 31.792L84.1617 30.016C84.4337 30.464 84.8177 30.88 85.3137 31.264C85.8257 31.632 86.4577 31.816 87.2097 31.816C87.8017 31.816 88.2577 31.704 88.5777 31.48C88.9137 31.24 89.0817 30.944 89.0817 30.592C89.0817 30.304 88.9777 30.072 88.7697 29.896C88.5617 29.704 88.2817 29.552 87.9297 29.44C87.5777 29.312 87.1857 29.192 86.7537 29.08C86.3057 28.952 85.8417 28.808 85.3617 28.648C84.8817 28.488 84.4417 28.28 84.0417 28.024C83.6417 27.752 83.3137 27.408 83.0577 26.992C82.8177 26.576 82.6977 26.056 82.6977 25.432C82.6977 24.392 83.1057 23.552 83.9217 22.912C84.7377 22.256 85.8177 21.928 87.1617 21.928C88.1057 21.928 88.9617 22.12 89.7297 22.504C90.4977 22.872 91.1057 23.408 91.5537 24.112L89.7057 25.576C89.4177 25.112 89.0337 24.768 88.5537 24.544C88.0897 24.304 87.5937 24.184 87.0657 24.184C86.6017 24.184 86.2177 24.272 85.9137 24.448C85.6257 24.624 85.4817 24.864 85.4817 25.168C85.4817 25.376 85.5457 25.552 85.6737 25.696C85.8177 25.84 86.0417 25.968 86.3457 26.08C86.6657 26.176 87.0817 26.288 87.5937 26.416C88.0737 26.528 88.5697 26.664 89.0817 26.824C89.5937 26.984 90.0737 27.2 90.5217 27.472C90.9697 27.744 91.3297 28.104 91.6017 28.552C91.8737 29 92.0097 29.568 92.0097 30.256C92.0097 31.04 91.8097 31.736 91.4097 32.344C91.0097 32.936 90.4497 33.4 89.7297 33.736C89.0097 34.072 88.1617 34.24 87.1857 34.24ZM94.402 38.896V22.168H97.378V25.336L96.658 25.576C96.866 24.632 97.178 23.896 97.594 23.368C98.026 22.84 98.514 22.472 99.058 22.264C99.602 22.04 100.17 21.928 100.762 21.928C101.802 21.928 102.698 22.2 103.45 22.744C104.218 23.272 104.802 24 105.202 24.928C105.602 25.856 105.802 26.912 105.802 28.096C105.802 29.376 105.578 30.48 105.13 31.408C104.682 32.32 104.074 33.024 103.306 33.52C102.538 34 101.69 34.24 100.762 34.24C100.138 34.24 99.546 34.112 98.986 33.856C98.426 33.6 97.946 33.216 97.546 32.704C97.162 32.176 96.898 31.512 96.754 30.712L97.378 30.808V38.896H94.402ZM99.946 31.504C100.538 31.504 101.042 31.368 101.458 31.096C101.89 30.808 102.226 30.408 102.466 29.896C102.706 29.384 102.826 28.784 102.826 28.096C102.826 27.392 102.706 26.784 102.466 26.272C102.226 25.76 101.89 25.368 101.458 25.096C101.042 24.808 100.538 24.664 99.946 24.664C99.37 24.664 98.866 24.808 98.434 25.096C98.018 25.384 97.69 25.784 97.45 26.296C97.226 26.792 97.114 27.392 97.114 28.096C97.114 28.784 97.226 29.384 97.45 29.896C97.69 30.408 98.018 30.808 98.434 31.096C98.866 31.368 99.37 31.504 99.946 31.504ZM115.767 34L115.527 32.224V26.536C115.527 25.832 115.303 25.312 114.855 24.976C114.423 24.624 113.831 24.448 113.079 24.448C112.455 24.448 111.815 24.576 111.159 24.832C110.519 25.072 109.951 25.416 109.455 25.864L107.943 23.824C108.775 23.152 109.623 22.672 110.487 22.384C111.367 22.08 112.311 21.928 113.319 21.928C114.951 21.928 116.223 22.336 117.135 23.152C118.047 23.968 118.503 25.096 118.503 26.536V34H115.767ZM112.191 34.24C111.327 34.24 110.551 34.08 109.863 33.76C109.191 33.44 108.655 32.984 108.255 32.392C107.871 31.8 107.679 31.12 107.679 30.352C107.679 29.664 107.815 29.08 108.087 28.6C108.375 28.104 108.751 27.728 109.215 27.472C109.615 27.232 110.055 27.064 110.535 26.968C111.031 26.872 111.559 26.824 112.119 26.824H115.791V29.032H112.551C112.295 29.032 112.039 29.056 111.783 29.104C111.543 29.136 111.335 29.224 111.159 29.368C110.999 29.48 110.879 29.624 110.799 29.8C110.719 29.96 110.679 30.144 110.679 30.352C110.679 30.8 110.855 31.16 111.207 31.432C111.559 31.704 112.031 31.84 112.623 31.84C113.151 31.84 113.631 31.728 114.063 31.504C114.511 31.264 114.863 30.944 115.119 30.544C115.391 30.128 115.527 29.656 115.527 29.128L116.319 30.712C116.111 31.544 115.791 32.224 115.359 32.752C114.943 33.264 114.463 33.64 113.919 33.88C113.375 34.12 112.799 34.24 112.191 34.24ZM121.261 34V22.168H124.237V34H121.261ZM121.165 20.344V17.272H124.357V20.344H121.165ZM127.168 34V22.168H130.168V25.384L129.712 25.432C129.76 24.744 129.968 24.136 130.336 23.608C130.704 23.08 131.152 22.672 131.68 22.384C132.224 22.08 132.776 21.928 133.336 21.928C133.736 21.928 134.112 21.984 134.464 22.096C134.832 22.192 135.208 22.36 135.592 22.6L134.152 25.288C133.976 25.192 133.752 25.104 133.48 25.024C133.208 24.944 132.936 24.904 132.664 24.904C132.344 24.904 132.032 24.96 131.728 25.072C131.44 25.184 131.176 25.36 130.936 25.6C130.712 25.84 130.528 26.16 130.384 26.56C130.32 26.784 130.264 27.072 130.216 27.424C130.184 27.76 130.168 28.256 130.168 28.912V34H127.168ZM142.034 34.24C141.01 34.24 140.13 34.072 139.394 33.736C138.658 33.4 138.05 32.952 137.57 32.392C137.106 31.816 136.762 31.168 136.538 30.448C136.314 29.712 136.202 28.944 136.202 28.144C136.202 27.376 136.314 26.624 136.538 25.888C136.762 25.152 137.098 24.488 137.546 23.896C137.994 23.304 138.57 22.832 139.274 22.48C139.994 22.112 140.85 21.928 141.842 21.928C142.77 21.928 143.578 22.088 144.266 22.408C144.954 22.712 145.522 23.144 145.97 23.704C146.418 24.248 146.754 24.888 146.978 25.624C147.218 26.36 147.338 27.144 147.338 27.976C147.338 28.088 147.33 28.248 147.314 28.456C147.314 28.648 147.298 28.856 147.266 29.08H139.178C139.258 29.928 139.57 30.568 140.114 31C140.674 31.432 141.37 31.648 142.202 31.648C142.81 31.648 143.402 31.544 143.978 31.336C144.554 31.112 145.066 30.8 145.514 30.4L147.002 32.416C146.442 32.848 145.914 33.2 145.418 33.472C144.922 33.744 144.402 33.936 143.858 34.048C143.33 34.176 142.722 34.24 142.034 34.24ZM144.386 27.592C144.418 27.464 144.442 27.336 144.458 27.208C144.49 27.08 144.506 26.96 144.506 26.848C144.506 26.512 144.442 26.2 144.314 25.912C144.186 25.608 144.01 25.344 143.786 25.12C143.562 24.896 143.29 24.728 142.97 24.616C142.666 24.488 142.314 24.424 141.914 24.424C141.322 24.424 140.826 24.544 140.426 24.784C140.026 25.024 139.722 25.336 139.514 25.72C139.322 26.088 139.202 26.472 139.154 26.872H145.394L144.386 27.592Z" fill="white"/>
<path d="M2.20567 36.8606C4.6844 38.4633 9.67376 41.6893 14.0461 44.5163C22.5532 50.01 22.5638 50.0032 22.9716 49.9998C23.4539 49.9964 23.4504 50.0066 31.9539 44.5163C36.3262 41.6893 41.3156 38.4633 43.7943 36.8606C45.1738 35.9671 46 34.4803 46 32.8775V19.162V17.6445V17.1227C46 15.5234 45.1773 14.0332 43.7943 13.1397C41.3156 11.5369 36.3262 8.31095 31.9539 5.48395C23.7731 0.198239 23.461 0.000456508 23.0745 0.000456508C23.0603 0.000456508 23.0426 0.000456508 23.0284 0.000456508C22.539 -0.00636376 22.5496 -0.00636864 14.0461 5.48395C9.67376 8.31095 4.6844 11.5369 2.20567 13.1397C0.826241 14.0332 0 15.52 0 17.1227V18.1731V19.1586V32.8741C0 34.4769 0.822695 35.9671 2.20567 36.8606ZM23 3.04229C25.4291 4.60073 33.2766 9.67159 41.1667 14.7731L38.9184 16.2668C36.7305 14.8516 34.2589 13.2556 31.9574 11.7654C23.7766 6.47971 23.4645 6.28192 23.078 6.28192C23.0638 6.28192 23.0461 6.28192 23.0319 6.28192C22.5426 6.2751 22.5532 6.2751 14.0496 11.7654C11.7482 13.2522 9.28369 14.8448 7.09929 16.2566L4.89362 14.7356C12.7589 9.64772 20.5745 4.59731 23 3.04229ZM28.9433 22.7256C23.695 19.3393 23.4078 19.1859 23.0745 19.1859C23.0603 19.1859 23.0426 19.1859 23.0284 19.1859C22.6064 19.179 22.5426 19.1859 17.0567 22.7256C16.2695 22.2175 15.4255 21.6719 14.5496 21.1058C19.5887 17.8525 21.9574 16.3248 23 15.6564C24.0426 16.3248 26.422 17.8593 31.4504 21.1058C30.5745 21.6719 29.7305 22.2141 28.9433 22.7256ZM26.3617 24.3897C24.8723 25.3514 23.7057 26.1016 23 26.5552C22.2943 26.1016 21.1277 25.3514 19.6383 24.3897C21.3652 23.2746 22.4007 22.6096 23 22.2243C23.5957 22.6062 24.6418 23.2814 26.3617 24.3897ZM34.0284 19.4382C33.3298 18.9881 32.6348 18.5379 31.9539 18.098C23.7731 12.8123 23.461 12.6145 23.0745 12.6145C23.0603 12.6145 23.0426 12.6145 23.0284 12.6145C22.539 12.6077 22.5496 12.6077 14.0461 18.098C13.3688 18.5379 12.6667 18.9881 11.9716 19.4382C11.2128 18.9506 10.4397 18.4493 9.65248 17.9378C18.1738 12.4304 21.6631 10.1797 23 9.32376C24.3369 10.1797 27.844 12.4406 36.3475 17.9378C35.5603 18.4493 34.7872 18.9506 34.0284 19.4382ZM2.87589 17.9753V17.1227C2.87589 17.0511 2.89362 16.9795 2.90426 16.9079C5.54255 18.6164 10.0496 21.5286 14.0461 24.1101C22.5532 29.6038 22.5638 29.6004 22.9716 29.5936C23.4539 29.5868 23.4504 29.6004 31.9539 24.1101C35.9504 21.5286 40.4574 18.613 43.0957 16.9079C43.1028 16.9795 43.1241 17.0477 43.1241 17.1227V17.358V19.162C43.1241 19.8406 42.7766 20.4715 42.1915 20.85C29.3262 29.1673 24.6099 32.2092 23 33.2424C21.3901 32.2092 16.6738 29.1673 3.80851 20.85C3.2234 20.4715 2.87589 19.8406 2.87589 19.162V17.9753ZM2.87589 23.5781C5.51064 25.2832 10.0355 28.2057 14.0461 30.7974C22.5532 36.2911 22.5638 36.2843 22.9716 36.2809C23.4539 36.2774 23.4504 36.2877 31.9539 30.7974C35.9645 28.2057 40.4894 25.2832 43.1241 23.5781V26.1937C43.1241 26.8723 42.7766 27.5032 42.1915 27.8817C33.9681 33.2015 25.5355 38.6475 23 40.2741C20.4645 38.6475 12.0319 33.1981 3.80851 27.8817C3.2234 27.5032 2.87589 26.8723 2.87589 26.1937V23.5781ZM2.87589 30.6098C5.51064 32.3149 10.0355 35.2374 14.0461 37.8291C22.5532 43.3228 22.5638 43.3194 22.9716 43.3125C23.4539 43.3057 23.4504 43.3194 31.9539 37.8291C35.9645 35.2374 40.4894 32.3115 43.1241 30.6098V32.8775C43.1241 33.5562 42.7766 34.187 42.1915 34.5656C29.3262 42.8829 24.6099 45.9247 23 46.958C21.3901 45.9247 16.6738 42.8829 3.80851 34.5656C3.2234 34.187 2.87589 33.5562 2.87589 32.8775V30.6098Z" fill="url(#paint0_linear_151_117)"/>
<defs>
<linearGradient id="paint0_linear_151_117" x1="6.37018" y1="40.9923" x2="38.3301" y2="7.75816" gradientUnits="userSpaceOnUse">
<stop stop-color="#EAF0EC"/>
<stop offset="0.3826" stop-color="#7C877F"/>
<stop offset="1" stop-color="#7C877F"/>
</linearGradient>
</defs>
</svg>
