<svg width="24" height="24" viewBox="0 0 24 24" fill="none" xmlns="http://www.w3.org/2000/svg">
<g clip-path="url(#clip0_545_234)">
<path d="M1.99759 3.55049C2.05032 3.55024 2.05032 3.55024 2.10411 3.54999C2.222 3.54955 2.33988 3.54978 2.45777 3.55001C2.5431 3.54984 2.62844 3.54962 2.71377 3.54937C2.94837 3.54879 3.18296 3.54881 3.41756 3.54892C3.67054 3.54894 3.92352 3.54842 4.1765 3.54798C4.67219 3.5472 5.16788 3.54694 5.66357 3.54689C6.0665 3.54684 6.46943 3.54665 6.87235 3.54635C8.0146 3.54553 9.15685 3.54509 10.2991 3.54516C10.3607 3.54517 10.4223 3.54517 10.4857 3.54518C10.5782 3.54518 10.5782 3.54518 10.6726 3.54519C11.6719 3.54523 12.6713 3.54433 13.6706 3.54301C14.6965 3.54166 15.7225 3.54101 16.7485 3.54109C17.3246 3.54112 17.9006 3.54087 18.4767 3.53986C18.9671 3.539 19.4576 3.5388 19.9481 3.53944C20.1984 3.53974 20.4486 3.53975 20.6988 3.53894C20.928 3.5382 21.1572 3.53833 21.3864 3.53915C21.4692 3.53929 21.552 3.53912 21.6347 3.5386C22.3343 3.53448 22.852 3.6516 23.3909 4.12505C23.6122 4.36036 23.7843 4.62268 23.9065 4.92192C23.9225 4.95901 23.9385 4.9961 23.955 5.03431C24.0191 5.27364 24.0135 5.50285 24.0128 5.7496C24.013 5.80498 24.0132 5.86037 24.0134 5.91744C24.0139 6.0708 24.014 6.22415 24.0139 6.37751C24.0138 6.54307 24.0144 6.70862 24.0148 6.87418C24.0156 7.19842 24.0158 7.52266 24.0159 7.8469C24.0159 8.11056 24.0161 8.37422 24.0164 8.63788C24.0172 9.38585 24.0177 10.1338 24.0176 10.8818C24.0176 10.9423 24.0176 10.9423 24.0176 11.0039C24.0176 11.0443 24.0176 11.0847 24.0176 11.1262C24.0175 11.78 24.0184 12.4338 24.0198 13.0875C24.0211 13.7592 24.0218 14.431 24.0217 15.1027C24.0216 15.4796 24.0219 15.8566 24.0229 16.2335C24.0238 16.5545 24.024 16.8755 24.0233 17.1965C24.023 17.3602 24.023 17.5238 24.0238 17.6874C24.0246 17.8652 24.0241 18.043 24.0234 18.2207C24.0239 18.2719 24.0244 18.3231 24.0249 18.3759C24.0197 18.9507 23.8151 19.3987 23.4377 19.8282C23.0361 20.206 22.5601 20.4529 22.0029 20.4496C21.9677 20.4498 21.9326 20.4499 21.8963 20.4501C21.7785 20.4505 21.6606 20.4503 21.5427 20.4501C21.4573 20.4503 21.372 20.4505 21.2867 20.4507C21.0521 20.4513 20.8175 20.4513 20.5829 20.4512C20.3299 20.4512 20.0769 20.4517 19.824 20.4521C19.3283 20.4529 18.8326 20.4532 18.3369 20.4532C17.934 20.4533 17.531 20.4534 17.1281 20.4537C15.9858 20.4546 14.8436 20.455 13.7013 20.4549C13.6398 20.4549 13.5782 20.4549 13.5147 20.4549C13.453 20.4549 13.3914 20.4549 13.3278 20.4549C12.3285 20.4549 11.3292 20.4558 10.3299 20.4571C9.3039 20.4584 8.27793 20.4591 7.25195 20.459C6.6759 20.459 6.09985 20.4592 5.5238 20.4602C5.0333 20.4611 4.54281 20.4613 4.05231 20.4607C3.80209 20.4604 3.55187 20.4603 3.30165 20.4612C3.07244 20.4619 2.84324 20.4618 2.61403 20.4609C2.53126 20.4608 2.44848 20.461 2.36571 20.4615C1.66617 20.4656 1.14841 20.3485 0.609601 19.875C0.388249 19.6397 0.216103 19.3774 0.0939758 19.0782C0.0779687 19.0411 0.0619618 19.004 0.0454696 18.9658C-0.0186546 18.7265 -0.0130024 18.4972 -0.0123098 18.2505C-0.0125222 18.1951 -0.0127345 18.1397 -0.0129533 18.0827C-0.0134436 17.9293 -0.0135146 17.7759 -0.013404 17.6226C-0.0133848 17.457 -0.0139025 17.2915 -0.0143468 17.1259C-0.015125 16.8017 -0.0153832 16.4774 -0.0154355 16.1532C-0.01548 15.8895 -0.0156729 15.6259 -0.0159699 15.3622C-0.0167955 14.6142 -0.0172279 13.8663 -0.0171576 13.1183C-0.0171539 13.078 -0.0171502 13.0377 -0.0171463 12.9962C-0.0171425 12.9558 -0.0171387 12.9154 -0.0171347 12.8739C-0.0170966 12.2201 -0.0179933 11.5663 -0.0193155 10.9126C-0.0206633 10.2408 -0.0213096 9.56913 -0.0212287 8.89742C-0.0211976 8.52048 -0.0214535 8.14354 -0.0224641 7.7666C-0.0233193 7.44559 -0.0235203 7.1246 -0.022885 6.80359C-0.0225797 6.63995 -0.0225709 6.47632 -0.023387 6.31268C-0.0241118 6.13489 -0.0236746 5.95714 -0.0229528 5.77936C-0.023435 5.72816 -0.0239172 5.67696 -0.0244141 5.62421C-0.0192733 5.04942 0.185335 4.60141 0.562726 4.17192C0.964394 3.79409 1.4404 3.54717 1.99759 3.55049ZM2.4846 4.9688C2.66748 5.18216 2.84804 5.38591 3.04629 5.58331C3.08645 5.62358 3.08645 5.62358 3.12742 5.66467C3.21625 5.75368 3.30525 5.84253 3.39425 5.93138C3.45834 5.99554 3.52243 6.05971 3.58651 6.12389C3.75996 6.29755 3.93355 6.47107 4.10718 6.64455C4.28925 6.8265 4.4712 7.00856 4.65318 7.19061C4.95879 7.49631 5.2645 7.80191 5.57027 8.10745C5.92322 8.46014 6.27599 8.813 6.62868 9.16595C6.93203 9.46951 7.23546 9.77298 7.53898 10.0764C7.72002 10.2573 7.90103 10.4383 8.08195 10.6194C8.25213 10.7897 8.42243 10.9599 8.59282 11.1301C8.65514 11.1923 8.71742 11.2546 8.77966 11.3169C9.19414 11.7335 9.19414 11.7335 9.63145 12.1257C9.74261 12.2213 9.8421 12.3269 9.94249 12.4336C10.5623 13.0813 11.0902 13.614 12.0471 13.6407C12.8691 13.6154 13.4068 13.1245 13.9397 12.5625C14.0248 12.4743 14.1102 12.3863 14.1957 12.2984C14.2483 12.2443 14.3006 12.1899 14.3526 12.1352C14.4751 12.0073 14.5996 11.8867 14.7351 11.7726C15.037 11.5097 15.3156 11.2224 15.5983 10.9392C15.663 10.8746 15.7277 10.81 15.7925 10.7454C15.9673 10.5708 16.1419 10.3961 16.3165 10.2213C16.4994 10.0383 16.6824 9.85545 16.8653 9.67258C17.1721 9.36587 17.4788 9.05906 17.7854 8.75219C18.1404 8.39698 18.4955 8.04193 18.8507 7.68697C19.1558 7.38216 19.4607 7.07725 19.7656 6.77227C19.9477 6.59011 20.1298 6.40799 20.312 6.22595C20.4829 6.05515 20.6537 5.88424 20.8245 5.71323C20.8873 5.65032 20.9502 5.58745 21.0131 5.52462C21.0986 5.43927 21.1839 5.35377 21.2692 5.26824C21.2945 5.24307 21.3198 5.21789 21.3458 5.19196C21.4635 5.09657 21.4635 5.09657 21.5159 4.9688C15.2355 4.9688 8.95522 4.9688 2.4846 4.9688ZM1.40648 6.04692C1.40648 9.99145 1.40648 13.936 1.40648 18C1.6103 17.8253 1.80111 17.6581 1.98939 17.4697C2.01283 17.4462 2.03627 17.4228 2.06042 17.3987C2.1379 17.3213 2.2152 17.2438 2.29251 17.1662C2.34843 17.1103 2.40436 17.0544 2.4603 16.9984C2.61137 16.8474 2.76229 16.6962 2.91319 16.545C3.07119 16.3867 3.22933 16.2285 3.38745 16.0703C3.68653 15.7711 3.98548 15.4718 4.28439 15.1724C4.62483 14.8314 4.96541 14.4906 5.306 14.1498C6.00631 13.449 6.70645 12.748 7.40648 12.0469C7.33354 11.8727 7.22681 11.7617 7.09399 11.6288C7.07159 11.6062 7.04918 11.5837 7.0261 11.5604C6.95105 11.485 6.87567 11.4099 6.80028 11.3348C6.74636 11.2808 6.69246 11.2267 6.63858 11.1727C6.49216 11.0258 6.34544 10.8792 6.19865 10.7328C6.04491 10.5793 5.8914 10.4255 5.73785 10.2718C5.47975 10.0136 5.22146 9.75549 4.96305 9.49752C4.66482 9.1998 4.36692 8.90174 4.0692 8.60351C3.81332 8.3472 3.55725 8.09107 3.30103 7.8351C3.14813 7.68234 2.9953 7.52953 2.84262 7.37654C2.69886 7.23251 2.55487 7.08871 2.41071 6.94509C2.35802 6.89253 2.30542 6.83989 2.2529 6.78716C2.18079 6.71479 2.1084 6.64273 2.03593 6.57072C1.97545 6.51029 1.97545 6.51029 1.91374 6.44864C1.75428 6.3034 1.57903 6.17634 1.40648 6.04692ZM22.2449 6.32306C22.212 6.35402 22.179 6.38497 22.1451 6.41687C21.6437 6.89177 21.1581 7.38311 20.6704 7.872C20.5267 8.01604 20.3828 8.15993 20.2389 8.30385C19.9678 8.57516 19.6967 8.84659 19.4257 9.11807C19.1166 9.42765 18.8075 9.73709 18.4983 10.0465C17.8633 10.6819 17.2286 11.3175 16.594 11.9532C16.6684 12.134 16.7837 12.2484 16.9211 12.3857C16.9571 12.4218 16.9571 12.4218 16.9938 12.4587C17.0741 12.5393 17.1548 12.6195 17.2355 12.6998C17.2932 12.7576 17.3508 12.8153 17.4085 12.8731C17.5651 13.0299 17.7219 13.1864 17.8789 13.3429C18.0428 13.5064 18.2066 13.6702 18.3703 13.834C18.6453 14.1089 18.9204 14.3836 19.1956 14.6582C19.5143 14.9761 19.8327 15.2943 20.151 15.6126C20.4568 15.9184 20.7627 16.2241 21.0687 16.5297C21.1991 16.66 21.3295 16.7903 21.4599 16.9206C21.6132 17.0739 21.7666 17.227 21.9201 17.38C21.9766 17.4364 22.033 17.4928 22.0894 17.5492C22.166 17.6259 22.2428 17.7024 22.3197 17.7789C22.3627 17.8218 22.4057 17.8648 22.4501 17.9091C22.5306 18.0054 22.5306 18.0054 22.594 18C22.594 14.0555 22.594 10.111 22.594 6.04692C22.4775 6.04692 22.3304 6.24265 22.2449 6.32306ZM8.35972 13.1487C8.32939 13.1805 8.29906 13.2124 8.2678 13.2452C8.15043 13.3681 8.0298 13.4822 7.90053 13.5922C7.64496 13.8152 7.40694 14.0555 7.16752 14.2954C7.11622 14.3467 7.0649 14.3979 7.01357 14.4491C6.87529 14.5872 6.73715 14.7254 6.59904 14.8637C6.45429 15.0086 6.30941 15.1533 6.16456 15.2981C5.92176 15.5408 5.67906 15.7836 5.43642 16.0265C5.15559 16.3076 4.87459 16.5885 4.5935 16.8693C4.35197 17.1106 4.11053 17.3521 3.86916 17.5935C3.72507 17.7377 3.58094 17.8818 3.43674 18.0259C3.30151 18.161 3.16639 18.2962 3.03136 18.4315C2.98166 18.4813 2.93193 18.531 2.88215 18.5807C2.81453 18.6482 2.74706 18.7158 2.67961 18.7835C2.62278 18.8403 2.62278 18.8403 2.56481 18.8983C2.47928 18.9705 2.47928 18.9705 2.4846 19.0313C8.76491 19.0313 15.0452 19.0313 21.5159 19.0313C21.3474 18.8347 21.1872 18.6499 21.0058 18.4684C20.9621 18.4246 20.9185 18.3809 20.8736 18.3358C20.826 18.2884 20.7785 18.2409 20.731 18.1935C20.6803 18.1427 20.6296 18.092 20.5789 18.0412C20.442 17.904 20.3049 17.767 20.1678 17.63C20.0238 17.4862 19.8799 17.3422 19.7361 17.1983C19.4945 16.9566 19.2527 16.715 19.011 16.4734C18.7322 16.1949 18.4535 15.9161 18.1749 15.6373C17.9351 15.3973 17.6952 15.1573 17.4551 14.9174C17.3121 14.7744 17.1691 14.6314 17.0261 14.4883C16.8916 14.3537 16.757 14.2192 16.6224 14.0848C16.5732 14.0357 16.5241 13.9865 16.475 13.9373C16.0185 13.4462 16.0185 13.4462 15.469 13.0782C15.4423 13.1055 15.4157 13.1329 15.3883 13.1611C14.3897 14.1836 13.4669 15.0281 11.955 15.0482C10.6479 15.0306 9.76561 14.3235 8.89476 13.4415C8.86009 13.4057 8.82542 13.3699 8.7897 13.333C8.75742 13.2999 8.72514 13.2668 8.69188 13.2327C8.66316 13.2029 8.63444 13.1731 8.60486 13.1424C8.49931 13.05 8.4631 13.0552 8.35972 13.1487Z" fill="#7C877F"/>
</g>
<defs>
<clipPath id="clip0_545_234">
<rect width="24" height="24" fill="white"/>
</clipPath>
</defs>
</svg>
