<svg width="58" height="59" viewBox="0 0 58 59" fill="none" xmlns="http://www.w3.org/2000/svg">
<path d="M11.3589 43.5755C8.94219 40.9172 7.49219 38.0172 7.49219 33.1839C7.49219 24.7255 13.5339 17.2339 21.9922 13.3672L24.1672 16.5089C16.1922 20.8589 14.5005 26.4172 14.0172 30.0422C15.2255 29.3172 16.9172 29.0755 18.6089 29.3172C22.9589 29.8005 26.3422 33.1839 26.3422 37.7755C26.3422 39.9505 25.3755 42.1255 23.9255 43.8172C22.2339 45.5089 20.3005 46.2339 17.8839 46.2339C15.2255 46.2339 12.8089 45.0255 11.3589 43.5755ZM35.5255 43.5755C33.1089 40.9172 31.6589 38.0172 31.6589 33.1839C31.6589 24.7255 37.7005 17.2339 46.1589 13.3672L48.3339 16.5089C40.3589 20.8589 38.6672 26.4172 38.1839 30.0422C39.3922 29.3172 41.0839 29.0755 42.7755 29.3172C47.1255 29.8005 50.5089 33.1839 50.5089 37.7755C50.5089 39.9505 49.5422 42.1255 48.0922 43.8172C46.6422 45.5089 44.4672 46.2339 42.0505 46.2339C39.3922 46.2339 36.9755 45.0255 35.5255 43.5755Z" fill="#192324"/>
</svg>
