<svg width="60" height="60" viewBox="0 0 60 60" fill="none" xmlns="http://www.w3.org/2000/svg">
<path d="M58.7995 10.5467H1.20047C1.0133 10.5408 0.831378 10.6091 0.694328 10.7367C0.557278 10.8644 0.4762 11.041 0.46875 11.2281V15.5272C0.472963 15.7228 0.550526 15.9097 0.68606 16.0508C0.821594 16.1919 1.0052 16.2769 1.20047 16.2889H2.92969V48.7717C2.92916 48.8624 2.94686 48.9523 2.98174 49.0361C3.01663 49.1199 3.06799 49.1958 3.13277 49.2593C3.19755 49.3229 3.27443 49.3728 3.35886 49.406C3.44329 49.4393 3.53354 49.4553 3.62426 49.453H8.42508C8.5169 49.4557 8.60835 49.4401 8.69413 49.4072C8.77991 49.3744 8.85833 49.3248 8.92486 49.2615C8.99139 49.1981 9.04471 49.1222 9.08175 49.0382C9.11878 48.9541 9.13879 48.8635 9.14062 48.7717V16.2889H27.0703V25.4109C27.0721 25.6006 27.1478 25.7821 27.2813 25.9168C27.4148 26.0516 27.5955 26.129 27.7852 26.1327H50.8594V48.7717C50.8612 48.8635 50.8812 48.9541 50.9183 49.0382C50.9553 49.1222 51.0086 49.1981 51.0751 49.2615C51.1417 49.3248 51.2201 49.3744 51.3059 49.4072C51.3917 49.4401 51.4831 49.4557 51.5749 49.453H56.3757C56.4665 49.4553 56.5567 49.4393 56.6411 49.406C56.7256 49.3728 56.8025 49.3229 56.8672 49.2593C56.932 49.1958 56.9834 49.1199 57.0183 49.0361C57.0531 48.9523 57.0708 48.8624 57.0703 48.7717V16.2889H58.7995C58.9948 16.2769 59.1784 16.1919 59.3139 16.0508C59.4495 15.9097 59.527 15.7228 59.5312 15.5272V11.2281C59.5238 11.041 59.4427 10.8644 59.3057 10.7367C59.1686 10.6091 58.9867 10.5408 58.7995 10.5467ZM7.73438 48.0467H4.33594V16.2889H7.73438V48.0467ZM28.4766 24.7264V16.2889H50.8594V24.7264H28.4766ZM55.6641 48.0467H52.2656V16.2889H55.6641V48.0467ZM58.125 14.8827H1.875V11.953H58.125V14.8827Z" fill="#7C877F"/>
<path d="M43.8281 19.5703H36.2109C36.0245 19.5703 35.8456 19.6444 35.7138 19.7763C35.5819 19.9081 35.5078 20.087 35.5078 20.2734C35.5078 20.4599 35.5819 20.6388 35.7138 20.7706C35.8456 20.9025 36.0245 20.9766 36.2109 20.9766H43.8281C44.0146 20.9766 44.1934 20.9025 44.3253 20.7706C44.4572 20.6388 44.5312 20.4599 44.5312 20.2734C44.5312 20.087 44.4572 19.9081 44.3253 19.7763C44.1934 19.6444 44.0146 19.5703 43.8281 19.5703Z" fill="#7C877F"/>
</svg>
