<svg width="60" height="60" viewBox="0 0 60 60" fill="none" xmlns="http://www.w3.org/2000/svg">
<path d="M30 0.588867C21.4608 0.588867 14.5313 7.53609 14.5313 16.0752V45.2237C14.5291 45.3156 14.5451 45.4071 14.5784 45.4928C14.6117 45.5786 14.6616 45.6569 14.7253 45.7232C14.789 45.7895 14.8652 45.8426 14.9495 45.8794C15.0338 45.9162 15.1245 45.9359 15.2165 45.9375H29.2969V50.9269C28.2397 51.1033 27.2874 51.6707 26.6291 52.5166C25.9708 53.3624 25.6545 54.4248 25.743 55.493C25.8315 56.5611 26.3184 57.557 27.1069 58.2829C27.8955 59.0089 28.9282 59.4118 30 59.4118C31.0718 59.4118 32.1045 59.0089 32.8931 58.2829C33.6817 57.557 34.1685 56.5611 34.257 55.493C34.3455 54.4248 34.0293 53.3624 33.3709 52.5166C32.7126 51.6707 31.7604 51.1033 30.7031 50.9269V45.9375H44.7836C44.8755 45.9359 44.9663 45.9162 45.0505 45.8794C45.1348 45.8426 45.211 45.7895 45.2747 45.7232C45.3384 45.6569 45.3883 45.5786 45.4216 45.4928C45.4549 45.4071 45.471 45.3156 45.4688 45.2237V16.0752C45.4688 7.53609 38.5396 0.588867 30 0.588867ZM32.8657 55.1396C32.8657 55.7063 32.6976 56.2603 32.3828 56.7315C32.0679 57.2027 31.6204 57.5699 31.0969 57.7868C30.5733 58.0036 29.9972 58.0604 29.4414 57.9498C28.8856 57.8393 28.3751 57.5664 27.9743 57.1657C27.5736 56.765 27.3007 56.2545 27.1901 55.6987C27.0795 55.1429 27.1362 54.5668 27.353 54.0432C27.5699 53.5196 27.9371 53.0721 28.4082 52.7572C28.8794 52.4424 29.4333 52.2742 30 52.2742C30.7597 52.275 31.488 52.5772 32.0252 53.1144C32.5623 53.6515 32.8645 54.3799 32.8654 55.1395L32.8657 55.1396ZM15.9375 44.5312V39.6094H44.0625V44.5312H15.9375ZM44.0625 38.2031H15.9375V16.0752C15.9375 8.31141 22.2359 1.99512 30 1.99512C37.7642 1.99512 44.0625 8.31152 44.0625 16.0752V38.2031Z" fill="#7C877F"/>
<path d="M30 6.8418C28.0396 6.84182 26.1233 7.42316 24.4933 8.5123C22.8633 9.60144 21.5929 11.1495 20.8427 12.9606C20.0925 14.7718 19.8963 16.7647 20.2787 18.6874C20.6612 20.6101 21.6052 22.3762 22.9914 23.7624C24.3776 25.1486 26.1437 26.0926 28.0664 26.475C29.9891 26.8575 31.9821 26.6612 33.7932 25.911C35.6044 25.1608 37.1524 23.8903 38.2415 22.2603C39.3306 20.6304 39.9119 18.714 39.9119 16.7536C39.9089 14.1258 38.8637 11.6064 37.0055 9.74819C35.1473 7.89001 32.6279 6.84477 30 6.8418ZM36.8359 17.4607H38.4743C38.3177 19.2224 37.624 20.8936 36.4869 22.2482L35.331 21.0912C35.2663 21.0231 35.1888 20.9687 35.1028 20.9311C35.0168 20.8935 34.9241 20.8735 34.8303 20.8722C34.7365 20.871 34.6433 20.8886 34.5564 20.9239C34.4694 20.9592 34.3904 21.0116 34.324 21.0779C34.2576 21.1442 34.2052 21.2232 34.1698 21.3101C34.1344 21.397 34.1168 21.4902 34.1179 21.584C34.1191 21.6778 34.139 21.7705 34.1766 21.8565C34.2141 21.9425 34.2685 22.0202 34.3365 22.0848L35.4926 23.2408C34.1432 24.3878 32.4681 25.0827 30.7031 25.2279V23.5896C30.7031 23.4032 30.629 23.2243 30.4972 23.0925C30.3653 22.9606 30.1865 22.8865 30 22.8865C29.8135 22.8865 29.6347 22.9606 29.5028 23.0925C29.3709 23.2243 29.2969 23.4032 29.2969 23.5896V25.2279C27.5318 25.0827 25.8568 24.3877 24.5074 23.2407L25.664 22.0846C25.7293 22.0193 25.7811 21.9418 25.8165 21.8565C25.8518 21.7712 25.87 21.6797 25.87 21.5874C25.87 21.495 25.8518 21.4036 25.8165 21.3183C25.7811 21.233 25.7293 21.1555 25.664 21.0902C25.5987 21.0249 25.5212 20.9731 25.4359 20.9377C25.3506 20.9024 25.2592 20.8842 25.1668 20.8842C25.0745 20.8842 24.983 20.9024 24.8977 20.9377C24.8124 20.9731 24.7349 21.0249 24.6696 21.0902L23.5137 22.2482C22.3763 20.8936 21.6824 19.2225 21.5257 17.4607H23.1641C23.3506 17.4607 23.5294 17.3867 23.6613 17.2548C23.7931 17.1229 23.8672 16.9441 23.8672 16.7576C23.8672 16.5711 23.7931 16.3923 23.6613 16.2604C23.5294 16.1286 23.3506 16.0545 23.1641 16.0545H21.5257C21.6599 14.2862 22.3563 12.6072 23.5131 11.263L24.669 12.418C24.801 12.55 24.9799 12.6241 25.1666 12.6241C25.3532 12.6241 25.5322 12.55 25.6641 12.418C25.7961 12.286 25.8702 12.107 25.8702 11.9204C25.8702 11.7338 25.796 11.5548 25.664 11.4229L24.508 10.2667C25.8572 9.11978 27.532 8.42476 29.2969 8.27945V9.91773C29.2969 10.1042 29.3709 10.2831 29.5028 10.4149C29.6347 10.5468 29.8135 10.6209 30 10.6209C30.1865 10.6209 30.3653 10.5468 30.4972 10.4149C30.629 10.2831 30.7031 10.1042 30.7031 9.91773V8.27945C32.4682 8.42458 34.1432 9.11962 35.4926 10.2667L34.3365 11.4228C34.2046 11.5546 34.1306 11.7335 34.1306 11.92C34.1306 12.1065 34.2047 12.2853 34.3366 12.4172C34.4684 12.549 34.6473 12.6231 34.8338 12.6231C35.0203 12.6231 35.1991 12.549 35.331 12.4171L36.4869 11.263C37.6437 12.6072 38.3401 14.2862 38.4743 16.0545H36.8359C36.6494 16.0545 36.4706 16.1286 36.3387 16.2604C36.2068 16.3923 36.1328 16.5711 36.1328 16.7576C36.1328 16.9441 36.2068 17.1229 36.3387 17.2548C36.4706 17.3867 36.6494 17.4607 36.8359 17.4607Z" fill="#7C877F"/>
<path d="M30.7031 16.3851V12.7427C30.7031 12.5562 30.629 12.3774 30.4972 12.2455C30.3653 12.1136 30.1865 12.0396 30 12.0396C29.8135 12.0396 29.6347 12.1136 29.5028 12.2455C29.371 12.3774 29.2969 12.5562 29.2969 12.7427V16.6407C29.2968 16.8059 29.3549 16.9658 29.4609 17.0924L32.3987 20.5952C32.4578 20.6668 32.5304 20.7261 32.6125 20.7695C32.6945 20.8129 32.7844 20.8397 32.8769 20.8482C32.9693 20.8567 33.0625 20.8468 33.1512 20.8191C33.2398 20.7914 33.322 20.7464 33.3932 20.6868C33.4643 20.6271 33.5229 20.5539 33.5656 20.4715C33.6084 20.3891 33.6343 20.299 33.642 20.2064C33.6498 20.1139 33.6391 20.0208 33.6106 19.9324C33.5821 19.844 33.5364 19.7622 33.4761 19.6915L30.7031 16.3851Z" fill="#7C877F"/>
<path d="M30 4.34033C27.5448 4.34033 25.1447 5.06838 23.1033 6.43241C21.0619 7.79645 19.4708 9.7352 18.5312 12.0035C17.5917 14.2718 17.3459 16.7678 17.8248 19.1758C18.3038 21.5838 19.4861 23.7957 21.2222 25.5318C22.9583 27.2679 25.1702 28.4502 27.5782 28.9292C29.9862 29.4081 32.4822 29.1623 34.7505 28.2227C37.0188 27.2832 38.9575 25.6921 40.3216 23.6507C41.6856 21.6093 42.4137 19.2092 42.4137 16.754C42.4099 13.4628 41.1009 10.3075 38.7737 7.98032C36.4465 5.65311 33.2912 4.34405 30 4.34033ZM30 27.7614C27.8229 27.7614 25.6947 27.1159 23.8846 25.9063C22.0744 24.6968 20.6636 22.9777 19.8305 20.9664C18.9973 18.955 18.7793 16.7418 19.2041 14.6066C19.6288 12.4713 20.6771 10.51 22.2166 8.97058C23.756 7.43117 25.7173 6.38281 27.8525 5.95809C29.9878 5.53336 32.201 5.75135 34.2123 6.58447C36.2237 7.4176 37.9428 8.82845 39.1523 10.6386C40.3618 12.4488 41.0074 14.5769 41.0074 16.754C41.0042 19.6724 39.8435 22.4704 37.7799 24.5341C35.7163 26.5977 32.9184 27.7586 30 27.7619V27.7614Z" fill="#7C877F"/>
</svg>
