<svg width="25" height="24" viewBox="0 0 25 24" fill="none" xmlns="http://www.w3.org/2000/svg">
<path d="M3.8567 0.000190336C3.78407 0.000737839 3.78407 0.000737839 3.70996 0.0012964C2.8459 0.020342 2.09736 0.374478 1.49752 0.996875C0.979585 1.60314 0.702613 2.32594 0.711128 3.1209C0.711677 3.19338 0.711677 3.19338 0.712237 3.26733C0.732966 4.2037 1.15702 4.94201 1.81846 5.59023C1.8978 5.66577 1.97742 5.74101 2.05728 5.81599C2.14793 5.90214 2.23855 5.98832 2.32915 6.07452C2.3527 6.09685 2.37624 6.11917 2.40051 6.14218C2.57425 6.30694 2.74688 6.47282 2.91891 6.63936C2.94406 6.66371 2.96921 6.68806 2.99513 6.71315C3.09856 6.81332 3.20195 6.91353 3.30532 7.01376C3.59723 7.29676 3.89011 7.57857 4.18624 7.85718C4.42271 8.07968 4.65675 8.30443 4.88827 8.53206C5.0105 8.65206 5.13359 8.77066 5.25972 8.88658C5.79073 9.33801 5.79073 9.33801 6.06105 9.94709C6.03947 10.2331 5.95173 10.4847 5.84473 10.7489C5.78163 10.9287 5.77012 11.1041 5.76458 11.2932C5.76009 11.4393 5.76009 11.4393 5.75552 11.5884C5.50049 11.5884 5.24547 11.5884 4.98271 11.5884C4.97773 11.7067 4.97275 11.825 4.96762 11.9469C4.9417 12.4782 4.9417 12.4782 4.66574 12.9138C4.43283 13.0568 4.23965 13.0749 3.9684 13.0343C3.64476 12.8785 3.39252 12.5662 3.14729 12.3113C2.91385 12.5054 2.69418 12.7087 2.48033 12.924C2.45079 12.9535 2.42125 12.983 2.39081 13.0135C2.29771 13.1067 2.20477 13.2 2.11185 13.2933C2.04824 13.357 1.98463 13.4207 1.921 13.4844C1.76613 13.6395 1.61141 13.7947 1.45677 13.95C1.50274 14.0037 1.54873 14.0573 1.59472 14.1109C1.62033 14.1408 1.64594 14.1707 1.67233 14.2014C1.79717 14.346 1.92572 14.4871 2.05392 14.6287C2.20443 14.8047 2.19746 14.9524 2.19486 15.1769C2.17491 15.357 2.1084 15.4556 1.98808 15.5887C1.62208 15.8603 1.17789 15.8019 0.73226 15.8297C0.73226 16.5931 0.73226 17.3565 0.73226 18.1431C0.987287 18.159 1.24231 18.1749 1.50507 18.1913C1.82158 18.2634 1.82158 18.2634 2.06053 18.4594C2.20385 18.6918 2.22202 18.8846 2.18128 19.1552C2.02512 19.4782 1.71222 19.7298 1.45677 19.9746C1.6513 20.2075 1.85495 20.4267 2.07071 20.6401C2.10032 20.6696 2.12993 20.699 2.16044 20.7294C2.25381 20.8223 2.34735 20.915 2.44089 21.0078C2.50474 21.0712 2.56857 21.1347 2.6324 21.1982C2.7878 21.3527 2.94335 21.5071 3.09899 21.6614C3.15275 21.6156 3.2065 21.5697 3.26025 21.5238C3.29018 21.4982 3.32011 21.4727 3.35095 21.4463C3.4958 21.3218 3.63729 21.1935 3.77916 21.0656C3.95553 20.9154 4.10353 20.9223 4.32858 20.9249C4.50897 20.9448 4.60787 21.0112 4.74121 21.1313C5.01336 21.4965 4.95486 21.9397 4.98271 22.3844C5.74779 22.3844 6.51287 22.3844 7.30114 22.3844C7.31708 22.1299 7.33302 21.8754 7.34944 21.6132C7.42173 21.2974 7.42173 21.2974 7.61811 21.059C7.85102 20.916 8.0442 20.8978 8.31545 20.9385C8.63909 21.0943 8.89133 21.4065 9.13656 21.6614C9.19094 21.6153 9.24527 21.5691 9.29958 21.5229C9.32984 21.4971 9.36009 21.4714 9.39127 21.4449C9.45333 21.3908 9.513 21.334 9.57127 21.2759C9.57836 21.3178 9.57836 21.3178 9.58561 21.3606C9.66476 21.7732 9.85208 22.0489 10.1992 22.288C10.2402 22.3021 10.2812 22.3162 10.3235 22.3307C10.4724 22.3989 10.4933 22.4554 10.5554 22.6043C10.8391 23.2116 11.2973 23.6136 11.9288 23.8451C12.5041 24.0263 13.2331 24.0035 13.7734 23.7339C13.9262 23.6464 14.0685 23.5517 14.2081 23.4447C14.2479 23.4152 14.2877 23.3857 14.3287 23.3553C14.5786 23.1417 14.8037 22.8455 14.9085 22.532C14.9999 22.3458 15.0805 22.3258 15.2643 22.2473C15.5257 22.1059 15.7151 21.845 15.802 21.565C15.8338 21.2562 15.8562 20.9473 15.6994 20.6704C15.5911 20.5159 15.5911 20.5159 15.639 20.3752C15.6609 20.3384 15.6829 20.3016 15.7054 20.2637C15.7799 20.1063 15.8115 19.9694 15.829 19.7976C15.8331 19.7585 15.8372 19.7195 15.8414 19.6792C15.8443 19.6494 15.8473 19.6197 15.8503 19.589C15.8763 19.6176 15.9023 19.6462 15.929 19.6756C18.2548 22.2243 18.2548 22.2243 19.8412 22.6253C20.2781 22.7364 20.6901 22.9049 21.1074 23.0737C21.3143 23.1569 21.5223 23.2372 21.7302 23.3178C22 23.4228 22.2692 23.5294 22.5377 23.6379C23.6356 24.0756 23.6356 24.0756 24.1792 23.8544C24.4253 23.7092 24.5998 23.4718 24.6893 23.2037C24.7903 22.5903 24.5168 22.0522 24.2939 21.4957C24.2527 21.3908 24.2115 21.2858 24.1704 21.1808C24.0835 20.9588 23.996 20.737 23.9083 20.5153C23.7797 20.1894 23.6549 19.862 23.531 19.5343C23.4524 19.3268 23.3732 19.1195 23.294 18.9122C23.2504 18.7978 23.2071 18.6833 23.164 18.5686C23.1035 18.4078 23.0418 18.2474 22.98 18.087C22.9537 18.0161 22.9537 18.0161 22.9268 17.9437C22.8042 17.6301 22.6562 17.4167 22.4192 17.1792C22.3694 17.1285 22.3196 17.0777 22.2699 17.027C22.0845 16.839 21.8973 16.6529 21.71 16.4668C21.6412 16.3982 21.5723 16.3296 21.5035 16.2609C21.3235 16.0815 21.1433 15.9021 20.963 15.7228C20.7787 15.5394 20.5945 15.3558 20.4103 15.1722C20.0497 14.8129 19.6889 14.4537 19.328 14.0946C19.3447 14.0423 19.3614 13.9899 19.3786 13.936C19.4007 13.8663 19.4227 13.7966 19.4448 13.727C19.4558 13.6926 19.4668 13.6582 19.4781 13.6228C19.6444 13.0963 19.6808 12.5894 19.676 12.0405C19.6751 11.9341 19.675 11.8278 19.6751 11.7214C19.674 11.4152 19.6634 11.1207 19.6178 10.8173C19.657 10.8177 19.6963 10.8181 19.7367 10.8186C20.109 10.8224 20.4813 10.8254 20.8536 10.8272C21.0449 10.8282 21.2362 10.8296 21.4276 10.8318C21.6127 10.8339 21.7977 10.835 21.9828 10.8355C22.053 10.8359 22.1232 10.8366 22.1933 10.8376C22.966 10.8487 23.5283 10.6546 24.0977 10.1274C24.5803 9.61856 24.7142 9.06203 24.7096 8.38188C24.6896 7.69575 24.404 7.16776 23.9077 6.69797C23.6582 6.48813 23.4129 6.35938 23.0954 6.2868C23.1032 6.25265 23.1109 6.2185 23.1189 6.18332C23.3116 5.11783 23.0786 4.05057 22.4707 3.16213C22.3919 3.06012 22.3105 2.96221 22.226 2.86486C22.1972 2.82665 22.1684 2.78844 22.1387 2.74908C21.7426 2.2806 21.1991 1.97104 20.6321 1.75634C20.5784 1.73547 20.5248 1.71459 20.4695 1.69309C19.5036 1.37838 18.423 1.50343 17.5228 1.94009C17.2293 2.09068 16.9643 2.25638 16.7198 2.47929C16.6802 2.51489 16.6407 2.55049 16.5999 2.58717C16.2948 2.87603 16.0702 3.18289 15.8503 3.53961C15.8131 3.5319 15.7759 3.5242 15.7375 3.51626C14.8159 3.38685 13.974 3.50822 13.1938 4.02157C12.9652 4.19483 12.739 4.37115 12.594 4.6222C12.4403 4.88416 12.4403 4.88416 12.1883 5.04005C12.028 5.07107 11.8712 5.08957 11.7086 5.10298C11.6001 5.11466 11.4917 5.12664 11.3833 5.13894C11.3356 5.14319 11.2879 5.14744 11.2388 5.15182C11.0847 5.17578 10.9423 5.21066 10.7923 5.25223C10.7445 5.26541 10.6967 5.27859 10.6475 5.29217C10.5929 5.30737 10.5929 5.30737 10.5373 5.32287C10.5141 5.29959 10.4909 5.2763 10.467 5.25231C9.90089 4.68426 9.33441 4.11661 8.76748 3.54941C8.49332 3.2751 8.2193 3.00065 7.9456 2.72588C7.70689 2.48624 7.46792 2.24685 7.22864 2.00777C7.1021 1.88131 6.97568 1.75473 6.84957 1.62784C6.70837 1.48577 6.5666 1.34428 6.42477 1.20283C6.3836 1.16123 6.34243 1.11963 6.30001 1.07676C5.62102 0.402667 4.82758 -0.0101648 3.8567 0.000190336ZM5.81005 1.80736C5.83987 1.83824 5.86969 1.86912 5.90042 1.90093C5.82043 2.10794 5.66397 2.24609 5.50909 2.39876C5.47892 2.42887 5.44876 2.45898 5.41768 2.49001C5.31807 2.58934 5.21813 2.68831 5.11818 2.78729C5.04899 2.85615 4.97982 2.92503 4.91067 2.99394C4.72873 3.17512 4.5465 3.35601 4.36421 3.53684C4.1782 3.72146 3.99246 3.90636 3.80671 4.09123C3.44227 4.45385 3.07752 4.81616 2.71258 5.17828C2.31083 4.99162 1.93412 4.56549 1.74657 4.16616C1.72777 4.12652 1.70897 4.08688 1.68959 4.04605C1.48613 3.54058 1.45584 2.89943 1.63186 2.37988C1.66751 2.29937 1.70576 2.21995 1.74657 2.14191C1.76818 2.09998 1.78978 2.05804 1.81204 2.01483C2.13955 1.4287 2.62409 1.08863 3.25785 0.876949C4.30279 0.586981 5.10639 1.09026 5.81005 1.80736ZM21.4789 3.27208C21.9581 3.77978 22.3281 4.4222 22.329 5.13611C22.3291 5.18209 22.3292 5.22806 22.3292 5.27543C22.3289 5.34663 22.3289 5.34663 22.3287 5.41926C22.3288 5.46673 22.329 5.5142 22.3292 5.5631C22.3291 5.63206 22.3291 5.63206 22.329 5.70242C22.329 5.74404 22.3289 5.78567 22.3289 5.82856C22.3224 5.95327 22.3018 6.06873 22.2743 6.19041C22.2043 6.20187 22.2043 6.20187 22.1328 6.21356C21.4126 6.33888 20.8625 6.60738 20.4208 7.21759C20.1755 7.61551 20.0797 8.04247 20.0525 8.50383C20.3235 8.50383 20.5944 8.50383 20.8736 8.50383C20.8736 8.3925 20.8736 8.28116 20.8736 8.16645C20.9865 7.72127 21.2177 7.42379 21.6041 7.18445C21.9842 6.96355 22.419 6.94411 22.8471 7.041C23.2791 7.19761 23.5646 7.46925 23.776 7.87182C23.9376 8.24633 23.9304 8.7241 23.7898 9.10327C23.6015 9.50179 23.313 9.78019 22.9022 9.94972C22.4011 10.0899 21.875 10.0597 21.3598 10.0586C21.2576 10.0587 21.1555 10.0589 21.0533 10.0591C20.7771 10.0595 20.5009 10.0594 20.2247 10.0591C19.935 10.0588 19.6454 10.059 19.3558 10.0592C18.8696 10.0594 18.3835 10.0591 17.8973 10.0587C17.3357 10.0582 16.7742 10.0583 16.2127 10.0589C15.7298 10.0593 15.2469 10.0594 14.7641 10.0591C14.476 10.059 14.1879 10.0589 13.8999 10.0592C13.6291 10.0595 13.3583 10.0593 13.0875 10.0588C12.9883 10.0587 12.8891 10.0587 12.7899 10.0589C12.6542 10.0592 12.5185 10.0588 12.3828 10.0584C12.3438 10.0586 12.3048 10.0588 12.2647 10.059C11.8315 10.0561 11.4515 9.9961 11.1348 9.67786C10.8685 9.38335 10.8036 9.14064 10.8124 8.74481C10.8493 8.38166 11.0347 8.1778 11.3054 7.94694C11.6052 7.74082 11.9233 7.73996 12.2761 7.78088C12.6068 7.90049 12.8553 8.17882 13.0187 8.48274C13.0609 8.62669 13.0609 8.62669 13.0489 8.8894C13.3199 8.8894 13.5908 8.8894 13.87 8.8894C13.8039 8.32561 13.6761 7.83701 13.2421 7.44351C13.1294 7.36416 13.0155 7.29034 12.897 7.21985C12.7927 7.15685 12.7927 7.15685 12.7591 7.00974C12.7083 6.19966 12.8356 5.62026 13.3704 4.98719C13.7844 4.54198 14.3072 4.31384 14.909 4.29135C15.6385 4.28059 16.1716 4.50431 16.7077 5.00056C17.0501 5.36316 17.2043 5.75459 17.2994 6.2386C17.2673 6.2532 17.2352 6.2678 17.2022 6.28284C16.7746 6.4853 16.4608 6.75897 16.273 7.19952C16.2301 7.37429 16.2108 7.55414 16.1884 7.73269C16.4594 7.73269 16.7304 7.73269 17.0096 7.73269C17.0255 7.62135 17.0414 7.51002 17.0579 7.39531C17.1573 7.21343 17.3 7.08668 17.4926 7.00974C17.7297 6.97616 17.9217 6.98388 18.1386 7.08806C18.2779 7.21387 18.3704 7.32594 18.4586 7.49171C18.4586 7.57123 18.4586 7.65075 18.4586 7.73269C18.7295 7.73269 19.0005 7.73269 19.2797 7.73269C19.1859 7.10903 19.0171 6.76735 18.504 6.38865C18.4103 6.33499 18.4103 6.33499 18.2603 6.30148C18.2141 6.28073 18.168 6.25998 18.1205 6.2386C18.0747 6.11587 18.0503 6.01929 18.0299 5.89219C17.8616 5.07811 17.4097 4.44095 16.7135 3.98204C16.6837 3.96327 16.6539 3.94451 16.6232 3.92518C16.9731 3.22685 17.6153 2.73971 18.3452 2.4823C19.5004 2.13829 20.6238 2.44647 21.4789 3.27208ZM6.69172 2.68111C6.75728 2.74821 6.75728 2.74821 6.82417 2.81666C6.86813 2.8614 6.91209 2.90613 6.95737 2.95222C6.99112 2.98701 7.02487 3.0218 7.05964 3.05764C6.97965 3.26465 6.82318 3.4028 6.6683 3.55547C6.62306 3.60064 6.62306 3.60064 6.57689 3.64672C6.47729 3.74605 6.37734 3.84503 6.27739 3.94401C6.2082 4.01287 6.13904 4.08175 6.06989 4.15065C5.88795 4.33183 5.70571 4.51272 5.52342 4.69355C5.33741 4.87818 5.15168 5.06307 4.96592 5.24794C4.60148 5.61056 4.23673 5.97287 3.8718 6.33499C3.70706 6.25762 3.60045 6.17088 3.47332 6.03979C3.42214 5.98742 3.42214 5.98742 3.36992 5.93399C3.34427 5.90727 3.31862 5.88056 3.29219 5.85303C3.37224 5.64653 3.52777 5.50803 3.68199 5.35521C3.712 5.32509 3.74201 5.29498 3.77293 5.26395C3.87206 5.16462 3.97153 5.06563 4.07104 4.96667C4.13999 4.8978 4.20893 4.82892 4.27785 4.76003C4.42224 4.61581 4.5668 4.47176 4.71149 4.32783C4.89732 4.14296 5.0827 3.95766 5.26796 3.77222C5.41015 3.62999 5.55258 3.48798 5.69507 3.34605C5.76355 3.27778 5.83195 3.20945 5.90028 3.14104C5.99557 3.04572 6.09115 2.95071 6.18683 2.85578C6.21524 2.82724 6.24364 2.7987 6.27291 2.76929C6.46875 2.55045 6.46875 2.55045 6.69172 2.68111ZM7.82081 3.80558C7.87197 3.85695 7.87197 3.85695 7.92416 3.90936C7.96284 3.94796 8.00151 3.98656 8.04136 4.02632C8.08312 4.06849 8.12488 4.11066 8.16791 4.15411C8.21065 4.1969 8.2534 4.23969 8.29744 4.28378C8.41117 4.39771 8.52468 4.51184 8.63809 4.62607C8.75382 4.74254 8.86983 4.85874 8.98581 4.97495C9.21342 5.20313 9.44075 5.43159 9.66787 5.66025C9.52757 5.80833 9.36691 5.9004 9.1909 6.00063C8.89864 6.17013 8.63072 6.35674 8.36981 6.57119C8.21844 6.69711 8.21844 6.69711 8.02565 6.72057C7.94142 6.65759 7.94142 6.65759 7.85845 6.57014C7.82558 6.53733 7.79271 6.50453 7.75885 6.47072C7.72368 6.43488 7.6885 6.39904 7.65226 6.36211C7.59789 6.30755 7.59789 6.30755 7.54243 6.25189C7.42644 6.13533 7.31096 6.01829 7.19548 5.90123C7.11706 5.82225 7.0386 5.7433 6.96011 5.66439C6.7675 5.4706 6.57531 5.2764 6.38343 5.08189C6.47104 4.89329 6.59307 4.76234 6.73964 4.61725C6.76501 4.59185 6.79037 4.56644 6.81651 4.54027C6.86998 4.48685 6.92357 4.43355 6.97728 4.38036C7.05969 4.29865 7.14157 4.21643 7.22341 4.13415C7.27545 4.08229 7.32752 4.03045 7.37963 3.97865C7.40418 3.95395 7.42874 3.92925 7.45404 3.90381C7.62193 3.71648 7.62193 3.71648 7.82081 3.80558ZM5.87962 5.72429C5.90943 5.75425 5.93925 5.78422 5.96997 5.8151C6.00381 5.84887 6.03765 5.88264 6.07251 5.91744C6.10899 5.95433 6.14547 5.99123 6.18306 6.02925C6.22044 6.06669 6.25783 6.10413 6.29635 6.14271C6.41617 6.26281 6.53564 6.38324 6.65512 6.50368C6.7361 6.58497 6.8171 6.66624 6.89813 6.74749C7.09712 6.94711 7.29583 7.14701 7.49434 7.34712C7.46512 7.38576 7.46512 7.38576 7.4353 7.42517C7.40952 7.45935 7.38374 7.49352 7.35718 7.52872C7.33171 7.56244 7.30625 7.59615 7.28002 7.63088C7.1694 7.78008 7.06565 7.93339 6.96304 8.08814C6.9424 8.11911 6.92177 8.15009 6.90051 8.182C6.73669 8.42943 6.58063 8.68091 6.43173 8.9376C6.17522 8.72389 5.93673 8.49828 5.70137 8.26172C5.64741 8.20777 5.64741 8.20777 5.59236 8.15274C5.47859 8.03894 5.36498 7.92498 5.25138 7.81101C5.17382 7.73337 5.09624 7.65574 5.01865 7.57812C4.82944 7.38879 4.64037 7.19932 4.4514 7.00974C4.53902 6.82114 4.66105 6.69019 4.80762 6.5451C4.83299 6.5197 4.85835 6.4943 4.88448 6.46813C4.93796 6.4147 4.99155 6.3614 5.04526 6.30821C5.12766 6.2265 5.20954 6.14429 5.29138 6.06201C5.34343 6.01014 5.3955 5.9583 5.4476 5.9065C5.47216 5.8818 5.49671 5.85711 5.52201 5.83166C5.68403 5.64836 5.68403 5.64836 5.87962 5.72429ZM11.9863 5.90123C11.9704 6.25113 11.9544 6.60104 11.938 6.96155C11.8444 6.97248 11.7507 6.98342 11.6542 6.99468C11.169 7.07039 10.7718 7.26977 10.4407 7.6363C10.0579 8.16339 9.99758 8.69045 10.0543 9.32317C10.1618 9.86596 10.4884 10.2409 10.9324 10.5518C11.3027 10.7494 11.6476 10.7911 12.0635 10.7937C12.1413 10.795 12.1413 10.795 12.2208 10.7963C12.3851 10.7989 12.5495 10.8006 12.7138 10.8022C12.8259 10.8038 12.9379 10.8055 13.0499 10.8072C13.3233 10.8113 13.5967 10.8146 13.87 10.8173C13.8742 11.004 13.8768 11.1907 13.8791 11.3775C13.8809 11.4567 13.8809 11.4567 13.8828 11.5374C13.8915 11.9235 13.8915 11.9235 13.7251 12.2631C13.5308 12.3638 13.3644 12.3716 13.1475 12.3718C13.1147 12.372 13.0818 12.3722 13.0479 12.3724C12.9769 12.3727 12.9058 12.3728 12.8348 12.3728C12.7221 12.3727 12.6093 12.3733 12.4966 12.3742C12.1762 12.3764 11.8558 12.3776 11.5353 12.3779C11.339 12.3781 11.1427 12.3793 10.9463 12.381C10.8718 12.3815 10.7973 12.3816 10.7228 12.3814C10.2776 12.3799 9.92272 12.3811 9.57013 12.6847C9.54859 12.7116 9.52705 12.7385 9.50485 12.7662C9.48256 12.793 9.46027 12.8197 9.43731 12.8473C9.23295 13.1597 9.24909 13.4925 9.28146 13.8536C9.3603 14.1527 9.55648 14.3614 9.81277 14.5284C10.0263 14.6365 10.2284 14.6386 10.4628 14.6378C10.5237 14.6382 10.5237 14.6382 10.5857 14.6386C10.6735 14.6391 10.7614 14.6394 10.8492 14.6395C10.9883 14.6396 11.1273 14.6404 11.2664 14.6414C11.6618 14.6441 12.0571 14.6456 12.4525 14.6468C12.6945 14.6475 12.9366 14.649 13.1786 14.6508C13.2707 14.6514 13.3628 14.6517 13.4549 14.6517C13.5838 14.6517 13.7127 14.6526 13.8416 14.6536C13.8795 14.6534 13.9174 14.6532 13.9564 14.653C14.1871 14.656 14.346 14.691 14.5462 14.8175C14.6148 14.9545 14.6097 15.0515 14.5945 15.2031C14.4867 15.3404 14.4231 15.3887 14.2564 15.4441C14.1753 15.449 14.0941 15.4516 14.0128 15.4526C13.9649 15.4537 13.917 15.4549 13.8677 15.4561C13.7675 15.4581 13.6674 15.4596 13.5673 15.4606C13.2053 15.4706 12.9391 15.5301 12.6614 15.7692C12.6398 15.7961 12.6183 15.823 12.5961 15.8508C12.5738 15.8775 12.5515 15.9043 12.5285 15.9319C12.4094 16.1141 12.3608 16.2824 12.3573 16.4987C12.3563 16.5441 12.3554 16.5894 12.3544 16.6361C12.3538 16.6844 12.3533 16.7327 12.3527 16.7825C12.3518 16.8324 12.3508 16.8824 12.3499 16.9338C12.347 17.0929 12.3447 17.252 12.3425 17.4111C12.3407 17.5191 12.3388 17.6272 12.3369 17.7352C12.3321 17.9997 12.3283 18.2642 12.3244 18.5287C11.7506 18.5287 11.1768 18.5287 10.5856 18.5287C10.5158 18.3984 10.4461 18.2682 10.3743 18.1341C10.0909 17.6192 9.75484 17.1747 9.35542 16.7433C9.33054 16.7165 9.30566 16.6896 9.28003 16.6619C9.0961 16.4648 8.90725 16.2733 8.71506 16.0842C8.68774 16.0573 8.66042 16.0304 8.63227 16.0027C8.52097 15.8934 8.40953 15.7842 8.29762 15.6755C7.3078 14.7125 6.58316 13.6342 6.5625 12.2105C6.55342 10.412 7.12281 8.95311 8.36375 7.6363C8.38916 7.60784 8.41456 7.57939 8.44073 7.55007C9.23598 6.6958 10.4951 6.07183 11.6482 5.90123C11.7598 5.90123 11.8713 5.90123 11.9863 5.90123ZM18.7484 10.8173C18.9214 11.6806 18.9564 12.6288 18.6518 13.468C18.6343 13.5184 18.6168 13.5687 18.5988 13.6205C18.2067 14.6471 17.4171 15.3897 16.6459 16.1388C15.8972 16.8675 15.3451 17.6143 14.836 18.5287C14.2622 18.5287 13.6884 18.5287 13.0972 18.5287C13.0939 18.2594 13.091 17.9902 13.0892 17.7209C13.0885 17.6293 13.0875 17.5378 13.0863 17.4463C13.0845 17.3144 13.0837 17.1826 13.0831 17.0508C13.0823 17.0101 13.0816 16.9694 13.0808 16.9275C13.0807 16.6884 13.0992 16.5137 13.2421 16.3116C13.4062 16.2174 13.5495 16.2033 13.7366 16.2021C13.7842 16.2011 13.8318 16.2001 13.8809 16.199C13.9797 16.1978 14.0786 16.1969 14.1775 16.1964C14.5384 16.188 14.8018 16.1285 15.0787 15.8901C15.1002 15.8632 15.1218 15.8363 15.1439 15.8086C15.1774 15.7684 15.1774 15.7684 15.2115 15.7274C15.4159 15.4151 15.3997 15.0823 15.3673 14.7212C15.2885 14.4221 15.0923 14.2133 14.836 14.0464C14.6225 13.9383 14.4204 13.9362 14.186 13.9369C14.1454 13.9367 14.1049 13.9364 14.0631 13.9362C13.9753 13.9357 13.8874 13.9354 13.7996 13.9353C13.6605 13.9351 13.5215 13.9343 13.3824 13.9334C12.987 13.9307 12.5917 13.9292 12.1963 13.928C11.9543 13.9273 11.7122 13.9258 11.4702 13.9239C11.3781 13.9234 11.286 13.9231 11.1939 13.9231C11.065 13.9231 10.9361 13.9222 10.8072 13.9211C10.7693 13.9213 10.7314 13.9216 10.6924 13.9218C10.4617 13.9188 10.3028 13.8838 10.1026 13.7572C10.034 13.6203 10.0391 13.5232 10.0543 13.3717C10.1621 13.2344 10.2257 13.1861 10.3924 13.1307C10.5007 13.1259 10.6091 13.1241 10.7175 13.1238C10.7503 13.1237 10.7832 13.1235 10.817 13.1233C10.8884 13.123 10.9597 13.1227 11.031 13.1225C11.1441 13.1222 11.2572 13.1214 11.3704 13.1206C11.692 13.118 12.0137 13.1157 12.3354 13.115C12.5322 13.1145 12.729 13.1131 12.9259 13.111C13.0006 13.1105 13.0754 13.1102 13.1502 13.1103C13.5961 13.1108 13.9529 13.1095 14.3059 12.8055C14.3274 12.7786 14.3489 12.7517 14.3711 12.724C14.4046 12.6839 14.4046 12.6839 14.4387 12.6429C14.7944 12.0991 14.6216 11.475 14.6428 10.8173C15.9977 10.8173 17.3525 10.8173 18.7484 10.8173ZM5.80382 12.7451C5.81531 12.8169 5.81531 12.8169 5.82703 12.8901C5.8961 13.2986 5.99289 13.6745 6.14249 14.0611C6.19577 14.183 6.19577 14.183 6.19023 14.2874C6.14116 14.2915 6.0921 14.2957 6.04155 14.3C5.31373 14.3705 4.66419 14.5992 4.1616 15.1549C4.13894 15.1773 4.11627 15.1998 4.09292 15.2229C3.55448 15.7865 3.45685 16.5148 3.4703 17.256C3.48296 17.562 3.54394 17.8191 3.6786 18.0949C3.70132 18.1418 3.72405 18.1887 3.74746 18.237C4.11429 18.9455 4.68122 19.3352 5.42572 19.5941C6.1353 19.7595 6.91476 19.68 7.54415 19.3102C7.69445 19.2087 7.8342 19.1073 7.95999 18.9764C8.02225 18.9032 8.02225 18.9032 8.12225 18.9142C8.13539 18.8864 8.14852 18.8586 8.16206 18.8299C8.21876 18.7216 8.28336 18.6278 8.3547 18.5287C8.58498 18.1888 8.72001 17.8082 8.84676 17.4201C9.24687 17.8068 9.75035 18.3647 9.82918 18.937C9.81871 19.0665 9.81871 19.0665 9.7407 19.198C9.65616 19.3721 9.65794 19.4844 9.66183 19.6763C9.64962 19.9565 9.60009 20.0845 9.3992 20.2818C9.32918 20.3417 9.25818 20.4006 9.18486 20.4565C9.08253 20.4064 8.98252 20.3549 8.88374 20.298C8.45722 20.072 8.00968 20.0442 7.54264 20.1528C7.07775 20.3204 6.84018 20.5905 6.63248 21.032C6.55717 21.2308 6.5354 21.4015 6.52833 21.6132C6.2733 21.6132 6.01828 21.6132 5.75552 21.6132C5.74556 21.5277 5.7356 21.4423 5.72533 21.3542C5.65754 20.9558 5.50122 20.6425 5.18195 20.3872C4.76481 20.1121 4.31621 20.0371 3.8235 20.1191C3.6578 20.1817 3.51385 20.2539 3.36238 20.3451C3.23789 20.4235 3.23789 20.4235 3.05069 20.4083C2.9433 20.3245 2.9433 20.3245 2.84541 20.2155C2.81129 20.1797 2.77717 20.144 2.74202 20.1071C2.71636 20.0793 2.69071 20.0514 2.66428 20.0227C2.71451 19.9206 2.76616 19.8208 2.82315 19.7223C3.04965 19.2967 3.07747 18.8501 2.96861 18.3841C2.80066 17.9202 2.52997 17.6831 2.08751 17.4759C1.8883 17.4007 1.71728 17.379 1.50507 17.372C1.50507 17.1175 1.50507 16.863 1.50507 16.6008C1.59074 16.5909 1.67642 16.5809 1.76468 16.5707C2.16393 16.503 2.47792 16.3471 2.73372 16.0285C3.00947 15.6122 3.08463 15.1646 3.00239 14.673C2.93971 14.5076 2.86737 14.364 2.77598 14.2128C2.69739 14.0886 2.69739 14.0886 2.71258 13.9018C2.79659 13.7947 2.79659 13.7947 2.90579 13.697C2.94165 13.6629 2.97751 13.6289 3.01446 13.5938C3.04236 13.5682 3.07025 13.5426 3.09899 13.5162C3.20132 13.5664 3.30133 13.6179 3.40011 13.6748C3.82663 13.9008 4.27417 13.9285 4.74121 13.8199C5.29111 13.6217 5.50892 13.2492 5.75552 12.7451C5.77146 12.7451 5.7874 12.7451 5.80382 12.7451ZM19.0801 15.0462C19.1066 15.0728 19.1331 15.0994 19.1604 15.1268C19.1882 15.1545 19.216 15.1822 19.2446 15.2108C19.337 15.303 19.4292 15.3954 19.5214 15.4878C19.5852 15.5515 19.649 15.6153 19.7128 15.679C19.8812 15.8472 20.0494 16.0156 20.2176 16.1839C20.3891 16.3555 20.5608 16.527 20.7324 16.6985C21.0694 17.0353 21.4063 17.3723 21.743 17.7093C21.6551 17.8991 21.5316 18.029 21.3834 18.174C21.3578 18.1994 21.3322 18.2248 21.3058 18.2509C21.2244 18.3317 21.1426 18.4121 21.0608 18.4925C21.0053 18.5473 20.9499 18.6022 20.8945 18.6571C20.759 18.7912 20.6232 18.9251 20.4872 19.0588C20.2991 18.9825 20.1727 18.8544 20.0326 18.7126C20.0072 18.6872 19.9817 18.6618 19.9555 18.6356C19.8716 18.5519 19.7881 18.4678 19.7046 18.3837C19.6464 18.3255 19.5882 18.2673 19.53 18.2091C19.377 18.056 19.2243 17.9027 19.0717 17.7493C18.9158 17.5928 18.7596 17.4365 18.6035 17.2803C18.2973 16.9737 17.9914 16.6669 17.6858 16.3598C17.75 16.2272 17.81 16.1276 17.9139 16.0226C17.9526 15.9827 17.9526 15.9827 17.9921 15.9419C18.0195 15.9138 18.0469 15.8857 18.0752 15.8568C18.3386 15.5817 18.5588 15.2972 18.7672 14.9791C18.7929 14.9417 18.8185 14.9043 18.845 14.8657C18.9477 14.8657 19.0114 14.9778 19.0801 15.0462ZM6.89662 15.282C6.91854 15.3146 6.94045 15.3472 6.96304 15.3808C7.15235 15.6419 7.37003 15.8705 7.59217 16.1035C7.64797 16.1623 7.70348 16.2213 7.75865 16.2806C7.821 16.3475 7.88444 16.4135 7.9481 16.4792C8.05117 16.6408 8.05491 16.7825 8.0498 16.9683C8.04918 17.0024 8.04856 17.0365 8.04792 17.0716C8.02649 17.6305 7.79636 18.0482 7.39453 18.431C6.96039 18.796 6.50225 18.9093 5.9425 18.8843C5.38055 18.8294 4.96464 18.5565 4.60536 18.131C4.26271 17.6579 4.20248 17.1688 4.2582 16.6008C4.36724 16.0812 4.68057 15.6797 5.10705 15.3722C5.54371 15.1013 6.4779 14.8612 6.89662 15.282ZM17.2898 17.1095C17.3272 17.1473 17.3272 17.1473 17.3654 17.1859C17.3918 17.2123 17.4182 17.2386 17.4454 17.2657C17.5329 17.3531 17.6201 17.4408 17.7073 17.5286C17.7678 17.5891 17.8283 17.6496 17.8888 17.7101C18.0483 17.8697 18.2075 18.0295 18.3666 18.1893C18.529 18.3523 18.6916 18.515 18.8542 18.6778C19.1734 18.9973 19.4923 19.3171 19.811 19.6372C19.723 19.8269 19.5996 19.9569 19.4514 20.1018C19.4258 20.1272 19.4002 20.1526 19.3738 20.1788C19.2924 20.2596 19.2106 20.34 19.1287 20.4204C19.0733 20.4752 19.0179 20.53 18.9625 20.5849C18.827 20.7191 18.6912 20.853 18.5552 20.9867C18.3685 20.9101 18.2509 20.791 18.1095 20.6493C18.085 20.6248 18.0604 20.6004 18.0352 20.5752C17.9544 20.4945 17.8741 20.4136 17.7937 20.3326C17.7377 20.2766 17.6816 20.2205 17.6256 20.1645C17.4783 20.0172 17.3313 19.8696 17.1844 19.7219C17.0344 19.5712 16.884 19.4207 16.7337 19.2702C16.439 18.9751 16.1446 18.6797 15.8503 18.3841C15.8884 18.3147 15.9265 18.2453 15.9647 18.176C15.986 18.1374 16.0072 18.0988 16.0291 18.059C16.27 17.6417 16.6465 17.2539 17.0096 16.9382C17.1482 16.9382 17.1959 17.0163 17.2898 17.1095ZM22.226 18.5287C22.4154 18.9764 22.5985 19.4266 22.7773 19.8787C22.8085 19.9574 22.84 20.0359 22.8717 20.1144C22.9181 20.2291 22.9636 20.3442 23.009 20.4593C23.0233 20.4942 23.0376 20.5291 23.0523 20.5651C23.1266 20.7563 23.1785 20.8906 23.0954 21.0831C23.0051 21.1936 22.9161 21.2925 22.8156 21.393C22.7874 21.4216 22.7592 21.4503 22.7302 21.4798C22.6706 21.5401 22.6107 21.6001 22.5505 21.6599C22.4587 21.7516 22.3683 21.8446 22.278 21.9378C22.2198 21.9962 22.1616 22.0546 22.1032 22.1129C22.0763 22.1408 22.0494 22.1688 22.0217 22.1976C21.9024 22.314 21.8288 22.3831 21.6584 22.3887C21.4363 22.3143 21.2165 22.2362 20.9978 22.1522C20.9499 22.1341 20.9021 22.116 20.8528 22.0973C20.7006 22.0396 20.5486 21.9816 20.3966 21.9235C20.2933 21.8842 20.1899 21.845 20.0865 21.8057C19.8335 21.7097 19.5807 21.6134 19.328 21.5168C19.328 21.3383 19.3869 21.2963 19.5083 21.1738C19.5349 21.1477 19.5614 21.1217 19.5888 21.0948C19.6165 21.067 19.6442 21.0393 19.6728 21.0107C19.7647 20.9188 19.8572 20.8274 19.9497 20.7361C20.0135 20.6726 20.0772 20.609 20.141 20.5455C20.2747 20.4122 20.4087 20.2792 20.5429 20.1464C20.7153 19.9758 20.8872 19.8047 21.0591 19.6334C21.1908 19.5022 21.3226 19.3712 21.4545 19.2401C21.518 19.1771 21.5814 19.114 21.6449 19.0509C21.7333 18.9629 21.822 18.8751 21.9106 18.7874C21.9371 18.761 21.9636 18.7347 21.9909 18.7075C22.0917 18.5841 22.0917 18.5841 22.226 18.5287ZM14.9326 19.4444C15.0012 19.5813 14.9961 19.6784 14.9809 19.83C14.8731 19.9672 14.8095 20.0155 14.6428 20.0709C14.5202 20.0761 14.3989 20.0785 14.2763 20.0787C14.2204 20.0791 14.2204 20.0791 14.1634 20.0794C14.0401 20.0801 13.9169 20.0805 13.7936 20.0807C13.7079 20.081 13.6221 20.0813 13.5364 20.0816C13.3566 20.0821 13.1767 20.0824 12.9969 20.0825C12.7668 20.0828 12.5366 20.0839 12.3065 20.0853C12.1294 20.0862 11.9522 20.0865 11.7751 20.0865C11.6903 20.0867 11.6054 20.0871 11.5206 20.0877C11.4018 20.0885 11.2829 20.0884 11.1641 20.0881C11.1292 20.0886 11.0944 20.089 11.0584 20.0895C10.8338 20.0876 10.6795 20.0452 10.489 19.9264C10.4204 19.7894 10.4255 19.6924 10.4407 19.5408C10.5485 19.4035 10.6121 19.3552 10.7788 19.2998C10.9014 19.2947 11.0227 19.2922 11.1453 19.292C11.1826 19.2918 11.2198 19.2916 11.2582 19.2913C11.3815 19.2906 11.5047 19.2903 11.628 19.29C11.7137 19.2897 11.7995 19.2895 11.8852 19.2892C12.065 19.2887 12.2449 19.2884 12.4247 19.2882C12.6548 19.288 12.885 19.2868 13.1151 19.2854C13.2922 19.2845 13.4694 19.2843 13.6465 19.2842C13.7314 19.2841 13.8162 19.2837 13.901 19.283C14.0199 19.2822 14.1387 19.2823 14.2575 19.2826C14.2924 19.2822 14.3272 19.2817 14.3632 19.2813C14.5878 19.2831 14.7421 19.3255 14.9326 19.4444ZM14.9326 20.9867C15.0012 21.1236 14.9961 21.2207 14.9809 21.3722C14.8731 21.5095 14.8095 21.5578 14.6428 21.6132C14.5202 21.6183 14.3989 21.6208 14.2763 21.621C14.2204 21.6214 14.2204 21.6214 14.1634 21.6217C14.0401 21.6224 13.9169 21.6228 13.7936 21.623C13.7079 21.6233 13.6221 21.6236 13.5364 21.6239C13.3566 21.6244 13.1767 21.6246 12.9969 21.6248C12.7668 21.6251 12.5366 21.6262 12.3065 21.6276C12.1294 21.6285 11.9522 21.6287 11.7751 21.6288C11.6903 21.629 11.6054 21.6294 11.5206 21.63C11.4018 21.6308 11.2829 21.6307 11.1641 21.6304C11.1292 21.6309 11.0944 21.6313 11.0584 21.6318C10.8338 21.6299 10.6795 21.5875 10.489 21.4686C10.4204 21.3317 10.4255 21.2347 10.4407 21.0831C10.5485 20.9458 10.6121 20.8975 10.7788 20.8421C10.9014 20.837 11.0227 20.8345 11.1453 20.8343C11.1826 20.8341 11.2198 20.8338 11.2582 20.8336C11.3815 20.8329 11.5047 20.8326 11.628 20.8323C11.7137 20.832 11.7995 20.8317 11.8852 20.8315C12.065 20.831 12.2449 20.8307 12.4247 20.8305C12.6548 20.8302 12.885 20.8291 13.1151 20.8277C13.2922 20.8268 13.4694 20.8266 13.6465 20.8265C13.7314 20.8263 13.8162 20.826 13.901 20.8253C14.0199 20.8245 14.1387 20.8246 14.2575 20.8249C14.2924 20.8245 14.3272 20.824 14.3632 20.8236C14.5878 20.8254 14.7421 20.8678 14.9326 20.9867ZM23.5301 21.8542C23.5873 21.9925 23.6433 22.1311 23.6992 22.2699C23.7153 22.3089 23.7314 22.3478 23.7481 22.3879C23.8329 22.6006 23.8999 22.7779 23.8682 23.0109C23.7796 23.1188 23.7796 23.1188 23.649 23.1239C23.4239 23.1016 23.2369 23.0243 23.029 22.9386C22.9889 22.9225 22.9487 22.9064 22.9073 22.8899C22.8088 22.8503 22.7106 22.8103 22.6124 22.7699C22.8015 22.5441 22.9978 22.3296 23.2071 22.1223C23.2331 22.0962 23.259 22.0702 23.2857 22.0433C23.3904 21.9134 23.3904 21.9134 23.5301 21.8542ZM14.0149 22.3844C13.7988 22.7439 13.5128 23.0022 13.0972 23.1073C12.5896 23.1692 12.1722 23.1268 11.7448 22.8181C11.6172 22.6991 11.5048 22.577 11.4067 22.4326C11.4067 22.4167 11.4067 22.4008 11.4067 22.3844C12.2674 22.3844 13.1281 22.3844 14.0149 22.3844Z" fill="#7C877F"/>
</svg>
