<svg width="24" height="24" viewBox="0 0 24 24" fill="none" xmlns="http://www.w3.org/2000/svg">
<path d="M22.3522 1.21872H1.64784C1.61135 1.21691 1.57487 1.2224 1.54052 1.23485C1.50618 1.2473 1.47466 1.26647 1.4478 1.29124C1.42094 1.31601 1.39929 1.34588 1.38411 1.37911C1.36893 1.41234 1.36052 1.44827 1.35938 1.48478V22.5152C1.36052 22.5517 1.36893 22.5876 1.38411 22.6208C1.39929 22.6541 1.42094 22.6839 1.4478 22.7087C1.47466 22.7335 1.50618 22.7526 1.54052 22.7651C1.57487 22.7775 1.61135 22.783 1.64784 22.7812H22.3522C22.3886 22.783 22.4251 22.7775 22.4595 22.7651C22.4938 22.7526 22.5253 22.7335 22.5522 22.7087C22.5791 22.6839 22.6007 22.6541 22.6159 22.6208C22.6311 22.5876 22.6395 22.5517 22.6406 22.5152V1.48478C22.6395 1.44827 22.6311 1.41234 22.6159 1.37911C22.6007 1.34588 22.5791 1.31601 22.5522 1.29124C22.5253 1.26647 22.4938 1.2473 22.4595 1.23485C22.4251 1.2224 22.3886 1.21691 22.3522 1.21872ZM22.0781 1.78122V11.625H13.5938V1.78122H22.0781ZM13.5938 15.0468V12.1875H22.0781V15.0468H13.5938ZM22.0781 15.6093V18.5625H13.5938V15.6093H22.0781ZM1.92188 22.2187V1.78122H7.17188V22.2187H1.92188ZM7.73438 22.2187V1.78122H13.0312V11.625V12.1875V15.0468V15.6093V18.5625V19.125V22.2187H7.73438ZM13.5938 22.2187V19.125H22.0781V22.2187H13.5938Z" fill="#7C877F"/>
<path d="M6 10.7344C5.92541 10.7344 5.85387 10.764 5.80113 10.8168C5.74838 10.8695 5.71875 10.941 5.71875 11.0156V12.9375C5.71875 13.0121 5.74838 13.0836 5.80113 13.1364C5.85387 13.1891 5.92541 13.2188 6 13.2188C6.07459 13.2188 6.14613 13.1891 6.19887 13.1364C6.25162 13.0836 6.28125 13.0121 6.28125 12.9375V11.0156C6.28125 10.941 6.25162 10.8695 6.19887 10.8168C6.14613 10.764 6.07459 10.7344 6 10.7344Z" fill="#7C877F"/>
<path d="M9 10.7344C8.92541 10.7344 8.85387 10.764 8.80113 10.8168C8.74838 10.8695 8.71875 10.941 8.71875 11.0156V12.9375C8.71875 13.0121 8.74838 13.0836 8.80113 13.1364C8.85387 13.1891 8.92541 13.2188 9 13.2188C9.07459 13.2188 9.14613 13.1891 9.19887 13.1364C9.25162 13.0836 9.28125 13.0121 9.28125 12.9375V11.0156C9.28125 10.941 9.25162 10.8695 9.19887 10.8168C9.14613 10.764 9.07459 10.7344 9 10.7344Z" fill="#7C877F"/>
</svg>
