<svg width="37" height="38" viewBox="0 0 37 38" fill="none" xmlns="http://www.w3.org/2000/svg">
<path d="M4.87198 0.500171C4.76037 0.501014 4.76037 0.501014 4.6465 0.501874C3.31879 0.531203 2.16857 1.07655 1.24686 2.03499C0.450996 2.9686 0.0254021 4.08166 0.0384865 5.30583C0.0393295 5.41745 0.0393295 5.41745 0.0401878 5.53132C0.0720406 6.97327 0.72364 8.11021 1.74002 9.10841C1.86192 9.22474 1.98427 9.3406 2.10699 9.45607C2.24628 9.58874 2.38552 9.72144 2.52474 9.85418C2.56092 9.88857 2.59711 9.92295 2.63439 9.95837C2.90136 10.2121 3.16662 10.4675 3.43096 10.724C3.46961 10.7615 3.50826 10.799 3.54808 10.8376C3.70701 10.9919 3.86588 11.1462 4.02472 11.3006C4.47327 11.7363 4.92331 12.1703 5.37834 12.5993C5.74171 12.942 6.10134 13.2881 6.45709 13.6386C6.64491 13.8234 6.83404 14.006 7.02786 14.1846C7.84381 14.8797 7.84381 14.8797 8.25918 15.8176C8.22602 16.2581 8.0912 16.6456 7.92678 17.0524C7.82983 17.3292 7.81214 17.5993 7.80362 17.8906C7.79673 18.1156 7.79673 18.1156 7.78971 18.3451C7.39783 18.3451 7.00596 18.3451 6.60221 18.3451C6.59455 18.5273 6.5869 18.7095 6.57901 18.8971C6.53919 19.7154 6.53919 19.7154 6.11514 20.3862C5.75726 20.6064 5.46041 20.6343 5.04361 20.5717C4.54631 20.3318 4.15872 19.851 3.78189 19.4584C3.42319 19.7573 3.08564 20.0703 2.75704 20.4018C2.71165 20.4473 2.66626 20.4928 2.61949 20.5397C2.47643 20.6832 2.33362 20.8269 2.19083 20.9706C2.0931 21.0687 1.99535 21.1668 1.89758 21.2649C1.6596 21.5037 1.42186 21.7427 1.18424 21.9819C1.25488 22.0645 1.32554 22.1471 1.39622 22.2296C1.43557 22.2756 1.47492 22.3216 1.51546 22.369C1.70731 22.5916 1.90483 22.809 2.10183 23.027C2.3331 23.298 2.32238 23.5254 2.31839 23.8712C2.28773 24.1484 2.18554 24.3004 2.00064 24.5053C1.43825 24.9235 0.755707 24.8336 0.0709572 24.8764C0.0709572 26.052 0.0709572 27.2276 0.0709572 28.4389C0.462833 28.4634 0.854706 28.4879 1.25846 28.5131C1.7448 28.6242 1.7448 28.6242 2.11197 28.9259C2.33221 29.2838 2.36013 29.5807 2.29752 29.9975C2.05757 30.4948 1.57677 30.8824 1.18424 31.2592C1.48315 31.6179 1.79608 31.9555 2.12763 32.2841C2.17312 32.3294 2.21862 32.3748 2.2655 32.4216C2.40897 32.5647 2.5527 32.7075 2.69645 32.8503C2.79455 32.948 2.89264 33.0457 2.99071 33.1435C3.2295 33.3815 3.46852 33.6192 3.70768 33.8569C3.79029 33.7862 3.87288 33.7156 3.95546 33.6449C4.00146 33.6055 4.04745 33.5662 4.09484 33.5256C4.31741 33.3338 4.53482 33.1363 4.75283 32.9393C5.02385 32.708 5.25126 32.7187 5.59706 32.7227C5.87425 32.7534 6.02623 32.8556 6.23111 33.0405C6.6493 33.6028 6.55941 34.2854 6.60221 34.9701C7.77783 34.9701 8.95346 34.9701 10.1647 34.9701C10.1892 34.5783 10.2137 34.1864 10.2389 33.7826C10.35 33.2963 10.35 33.2963 10.6518 32.9291C11.0096 32.7089 11.3065 32.681 11.7233 32.7436C12.2206 32.9835 12.6082 33.4643 12.985 33.8569C13.0686 33.7858 13.1521 33.7147 13.2355 33.6435C13.282 33.6039 13.3285 33.5643 13.3764 33.5235C13.4718 33.4402 13.5635 33.3526 13.653 33.2631C13.6639 33.3277 13.6639 33.3277 13.675 33.3936C13.7967 34.029 14.0845 34.4536 14.6178 34.8217C14.6809 34.8434 14.7439 34.8651 14.8089 34.8875C15.0377 34.9925 15.0698 35.0796 15.1652 35.3088C15.6012 36.244 16.3052 36.8631 17.2755 37.2196C18.1595 37.4985 19.2797 37.4634 20.11 37.0483C20.3448 36.9136 20.5634 36.7677 20.778 36.603C20.8391 36.5575 20.9003 36.5121 20.9632 36.4652C21.3472 36.1364 21.6932 35.6803 21.8542 35.1974C21.9946 34.9108 22.1185 34.88 22.4009 34.7591C22.8026 34.5413 23.0936 34.1396 23.2272 33.7084C23.2761 33.2328 23.3104 32.7572 23.0695 32.3307C22.903 32.0928 22.903 32.0928 22.9767 31.8761C23.0104 31.8195 23.0441 31.7629 23.0788 31.7045C23.1932 31.4622 23.2417 31.2513 23.2687 30.9867C23.2749 30.9265 23.2812 30.8664 23.2876 30.8044C23.2922 30.7585 23.2967 30.7127 23.3014 30.6655C23.3413 30.7095 23.3812 30.7535 23.4223 30.7988C26.9961 34.7237 26.9961 34.7237 29.4338 35.3412C30.1052 35.5122 30.7382 35.7718 31.3794 36.0317C31.6973 36.1598 32.0169 36.2834 32.3364 36.4075C32.7511 36.5693 33.1646 36.7335 33.5772 36.9004C35.2642 37.5745 35.2642 37.5745 36.0995 37.2338C36.4778 37.0102 36.7458 36.6447 36.8835 36.2319C37.0385 35.2872 36.6183 34.4586 36.2758 33.6017C36.2124 33.4401 36.1492 33.2785 36.0861 33.1167C35.9525 32.7749 35.8181 32.4333 35.6832 32.092C35.4857 31.59 35.2939 31.0859 35.1035 30.5812C34.9828 30.2616 34.861 29.9425 34.7393 29.6233C34.6724 29.447 34.6058 29.2707 34.5397 29.0942C34.4466 28.8465 34.3519 28.5994 34.2568 28.3525C34.2164 28.2433 34.2164 28.2433 34.1752 28.1318C33.9868 27.6489 33.7593 27.3203 33.3952 26.9545C33.3187 26.8764 33.2422 26.7983 33.1657 26.7202C32.8808 26.4307 32.5931 26.1441 32.3054 25.8575C32.1996 25.7518 32.0939 25.6462 31.9881 25.5405C31.7114 25.2641 31.4345 24.988 31.1576 24.7118C30.8743 24.4294 30.5913 24.1467 30.3083 23.864C29.7541 23.3106 29.1997 22.7575 28.6452 22.2045C28.6708 22.1239 28.6965 22.0433 28.723 21.9603C28.7569 21.853 28.7908 21.7457 28.8247 21.6384C28.8416 21.5854 28.8585 21.5325 28.8759 21.4779C29.1313 20.6672 29.1873 19.8866 29.18 19.0413C29.1786 18.8775 29.1785 18.7138 29.1785 18.55C29.1769 18.0784 29.1606 17.6249 29.0905 17.1576C29.1508 17.1583 29.2111 17.159 29.2733 17.1596C29.8453 17.1656 30.4173 17.1701 30.9894 17.173C31.2834 17.1746 31.5774 17.1766 31.8714 17.18C32.1558 17.1833 32.4402 17.185 32.7246 17.1858C32.8324 17.1863 32.9403 17.1874 33.0481 17.189C34.2354 17.2061 35.0993 16.9072 35.9743 16.0954C36.7159 15.3117 36.9216 14.4547 36.9146 13.4073C36.8839 12.3508 36.445 11.5377 35.6823 10.8143C35.299 10.4911 34.922 10.2929 34.4342 10.1811C34.4461 10.1285 34.458 10.0759 34.4702 10.0217C34.7664 8.38095 34.4084 6.73745 33.4743 5.36933C33.3532 5.21224 33.2281 5.06147 33.0983 4.91155C33.054 4.85271 33.0097 4.79387 32.9641 4.73325C32.3555 4.01183 31.5204 3.53513 30.6491 3.20452C30.5666 3.17237 30.4841 3.14022 30.3992 3.1071C28.915 2.62248 27.2545 2.81504 25.8712 3.48748C25.4203 3.71937 25.0132 3.97454 24.6374 4.3178C24.5766 4.37262 24.5159 4.42744 24.4533 4.48392C23.9843 4.92875 23.6393 5.4013 23.3014 5.95061C23.2442 5.93875 23.187 5.92688 23.1281 5.91466C21.7119 5.71537 20.4183 5.90227 19.2194 6.6928C18.8682 6.9596 18.5205 7.23112 18.2977 7.61772C18.0615 8.02111 18.0615 8.02111 17.6743 8.26118C17.428 8.30895 17.1871 8.33744 16.9372 8.35808C16.7705 8.37607 16.6039 8.39453 16.4373 8.41345C16.3641 8.42 16.2908 8.42655 16.2153 8.4333C15.9785 8.47019 15.7598 8.52391 15.5292 8.58792C15.4558 8.60822 15.3824 8.62852 15.3068 8.64943C15.2229 8.67283 15.2229 8.67283 15.1374 8.6967C15.1017 8.66084 15.0661 8.62499 15.0293 8.58804C14.1595 7.71328 13.289 6.83915 12.4179 5.9657C11.9966 5.54328 11.5756 5.12066 11.155 4.69753C10.7882 4.3285 10.421 3.95987 10.0533 3.5917C9.85886 3.39696 9.6646 3.20204 9.47083 3.00663C9.25386 2.78785 9.03601 2.56997 8.81808 2.35214C8.75482 2.28808 8.69156 2.22402 8.62638 2.15801C7.58302 1.11995 6.36383 0.484225 4.87198 0.500171ZM7.87349 3.28308C7.91932 3.33063 7.96515 3.37818 8.01236 3.42717C7.88945 3.74595 7.64902 3.95869 7.41104 4.19379C7.36469 4.24016 7.31834 4.28653 7.27058 4.33431C7.11753 4.48726 6.96395 4.63968 6.81037 4.7921C6.70405 4.89814 6.59777 5.00421 6.49151 5.11032C6.21194 5.38932 5.93192 5.66788 5.65181 5.94635C5.36599 6.23065 5.08059 6.51538 4.79515 6.80007C4.23516 7.35847 3.67469 7.91641 3.11393 8.47405C2.49659 8.1866 1.91773 7.5304 1.62955 6.91545C1.60066 6.85441 1.57177 6.79338 1.542 6.73049C1.22935 5.95211 1.1828 4.96478 1.45328 4.16472C1.50806 4.04074 1.56684 3.91844 1.62955 3.79827C1.66275 3.73369 1.69595 3.66911 1.73015 3.60257C2.2334 2.69997 2.97794 2.17629 3.95179 1.85031C5.55744 1.40378 6.79225 2.1788 7.87349 3.28308ZM31.9502 5.53864C32.6866 6.32046 33.2552 7.30974 33.2566 8.40911C33.2567 8.4799 33.2568 8.5507 33.2569 8.62364C33.2565 8.73328 33.2565 8.73328 33.256 8.84514C33.2563 8.91823 33.2566 8.99133 33.2569 9.06664C33.2567 9.17283 33.2567 9.17283 33.2566 9.28118C33.2565 9.34528 33.2564 9.40938 33.2563 9.47542C33.2464 9.66747 33.2148 9.84527 33.1725 10.0326C33.0649 10.0503 33.0649 10.0503 32.9551 10.0683C31.8484 10.2613 31.0031 10.6748 30.3244 11.6144C29.9475 12.2272 29.8002 12.8847 29.7585 13.5951C30.1748 13.5951 30.5912 13.5951 31.0202 13.5951C31.0202 13.4237 31.0202 13.2522 31.0202 13.0756C31.1936 12.3901 31.5488 11.932 32.1427 11.5634C32.7267 11.2232 33.3948 11.1933 34.0527 11.3425C34.7164 11.5837 35.1551 12.002 35.48 12.6219C35.7283 13.1986 35.7173 13.9343 35.5011 14.5182C35.2119 15.1319 34.7686 15.5606 34.1374 15.8217C33.3673 16.0375 32.5589 15.9911 31.7673 15.9893C31.6103 15.9895 31.4533 15.9898 31.2963 15.9901C30.8719 15.9908 30.4474 15.9906 30.023 15.9901C29.578 15.9897 29.1329 15.9901 28.6879 15.9903C27.9409 15.9906 27.1938 15.9902 26.4468 15.9895C25.5839 15.9887 24.721 15.9889 23.8582 15.9898C23.1162 15.9904 22.3742 15.9905 21.6323 15.9901C21.1896 15.9899 20.747 15.9899 20.3043 15.9904C19.8882 15.9908 19.4721 15.9905 19.0561 15.9896C18.9036 15.9894 18.7512 15.9895 18.5988 15.9898C18.3902 15.9902 18.1817 15.9897 17.9731 15.989C17.9133 15.9893 17.8534 15.9897 17.7917 15.99C17.126 15.9854 16.5421 15.8931 16.0555 15.4031C15.6464 14.9495 15.5466 14.5758 15.5601 13.9662C15.6169 13.407 15.9017 13.0931 16.3176 12.7376C16.7783 12.4202 17.2671 12.4188 17.8092 12.4819C18.3174 12.666 18.6992 13.0946 18.9503 13.5627C19.0152 13.7843 19.0152 13.7843 18.9967 14.1889C19.4131 14.1889 19.8295 14.1889 20.2585 14.1889C20.1569 13.3207 19.9605 12.5683 19.2936 11.9623C19.1204 11.8401 18.9454 11.7265 18.7634 11.6179C18.6031 11.5209 18.6031 11.5209 18.5514 11.2944C18.4734 10.0469 18.669 9.15466 19.4908 8.17978C20.1268 7.49419 20.9303 7.14287 21.855 7.10823C22.9758 7.09167 23.7951 7.43617 24.6188 8.20037C25.1449 8.75875 25.382 9.36152 25.528 10.1069C25.4787 10.1293 25.4294 10.1518 25.3787 10.175C24.7216 10.4868 24.2395 10.9082 23.9508 11.5866C23.8849 11.8557 23.8553 12.1327 23.821 12.4076C24.2373 12.4076 24.6537 12.4076 25.0827 12.4076C25.1072 12.2362 25.1317 12.0647 25.1569 11.8881C25.3097 11.608 25.5289 11.4128 25.8249 11.2944C26.1892 11.2427 26.4843 11.2545 26.8175 11.415C27.0317 11.6087 27.1738 11.7813 27.3092 12.0365C27.3092 12.159 27.3092 12.2815 27.3092 12.4076C27.7256 12.4076 28.142 12.4076 28.571 12.4076C28.4269 11.4473 28.1674 10.9211 27.3791 10.3379C27.235 10.2553 27.235 10.2553 27.0045 10.2037C26.9336 10.1717 26.8627 10.1398 26.7897 10.1069C26.7193 9.91786 26.6818 9.76914 26.6505 9.57341C26.3919 8.31979 25.6976 7.33861 24.6278 6.63192C24.582 6.60302 24.5361 6.57413 24.4889 6.54436C25.0266 5.46898 26.0135 4.71883 27.135 4.32244C28.9102 3.79268 30.6363 4.26726 31.9502 5.53864ZM9.22827 4.62859C9.32902 4.73191 9.32902 4.73191 9.4318 4.83733C9.49934 4.90621 9.56688 4.9751 9.63648 5.04607C9.68833 5.09965 9.74019 5.15322 9.79361 5.20842C9.6707 5.5272 9.43027 5.73994 9.19229 5.97504C9.12276 6.04459 9.12276 6.04459 9.05183 6.11556C8.89878 6.26851 8.7452 6.42093 8.59162 6.57335C8.4853 6.67939 8.37902 6.78546 8.27276 6.89157C7.99319 7.17057 7.71317 7.44913 7.43306 7.7276C7.14724 8.0119 6.86184 8.29663 6.5764 8.58132C6.01641 9.13972 5.45594 9.69766 4.89518 10.2553C4.64204 10.1362 4.47822 10.0026 4.28287 9.80071C4.20423 9.72006 4.20423 9.72006 4.124 9.63777C4.08458 9.59663 4.04516 9.5555 4.00455 9.51311C4.12755 9.19512 4.36655 8.98184 4.60352 8.7465C4.64963 8.70012 4.69574 8.65375 4.74326 8.60597C4.89557 8.453 5.04843 8.30058 5.20133 8.14818C5.30728 8.04213 5.41321 7.93606 5.51911 7.82997C5.74098 7.60787 5.96312 7.38605 6.18545 7.16442C6.47099 6.87973 6.75585 6.59438 7.04052 6.30882C7.25901 6.08979 7.47786 5.87111 7.69682 5.65254C7.80204 5.54742 7.90715 5.44219 8.01215 5.33684C8.15856 5.19005 8.30544 5.04375 8.45246 4.89756C8.49611 4.85361 8.53975 4.80966 8.58473 4.76438C8.88565 4.42738 8.88565 4.42738 9.22827 4.62859ZM10.9632 6.36019C11.0418 6.4393 11.0418 6.4393 11.122 6.52001C11.1815 6.57944 11.2409 6.63888 11.3021 6.70012C11.3663 6.76506 11.4305 6.82999 11.4966 6.8969C11.5623 6.96279 11.628 7.02869 11.6956 7.09658C11.8704 7.27202 12.0448 7.44777 12.2191 7.62368C12.3969 7.80304 12.5752 7.98197 12.7534 8.16094C13.1031 8.51232 13.4524 8.86412 13.8014 9.21624C13.5858 9.44427 13.339 9.58605 13.0685 9.74041C12.6194 10.0014 12.2077 10.2888 11.8068 10.619C11.5742 10.8129 11.5742 10.8129 11.278 10.849C11.1486 10.7521 11.1486 10.7521 11.0211 10.6174C10.9706 10.5669 10.9201 10.5164 10.868 10.4643C10.814 10.4091 10.7599 10.3539 10.7042 10.297C10.6207 10.213 10.6207 10.213 10.5355 10.1273C10.3572 9.94783 10.1798 9.7676 10.0024 9.58733C9.88185 9.46571 9.76129 9.34413 9.64068 9.22261C9.34472 8.92419 9.04939 8.62514 8.75455 8.32561C8.88918 8.03518 9.07668 7.83353 9.30191 7.6101C9.34089 7.57098 9.37986 7.53186 9.42002 7.49156C9.50218 7.40929 9.58454 7.32721 9.66706 7.24531C9.79369 7.11948 9.9195 6.99287 10.0453 6.86617C10.1252 6.7863 10.2052 6.70647 10.2853 6.6267C10.323 6.58867 10.3608 6.55063 10.3996 6.51145C10.6576 6.22298 10.6576 6.22298 10.9632 6.36019ZM7.98039 9.31485C8.02621 9.361 8.07203 9.40715 8.11923 9.45469C8.17123 9.5067 8.22322 9.55871 8.2768 9.61229C8.33285 9.66911 8.3889 9.72593 8.44666 9.78447C8.5041 9.84213 8.56155 9.89979 8.62074 9.95919C8.80485 10.1441 8.98845 10.3296 9.17203 10.5151C9.29647 10.6402 9.42094 10.7654 9.54544 10.8905C9.85121 11.1979 10.1566 11.5057 10.4616 11.8139C10.4167 11.8734 10.4167 11.8734 10.3709 11.9341C10.3312 11.9867 10.2916 12.0393 10.2508 12.0936C10.2117 12.1455 10.1726 12.1974 10.1323 12.2509C9.96228 12.4806 9.80286 12.7167 9.64517 12.955C9.61347 13.0027 9.58177 13.0504 9.5491 13.0995C9.29737 13.4806 9.05757 13.8678 8.82877 14.2631C8.43462 13.934 8.06815 13.5866 7.7065 13.2223C7.62359 13.1392 7.62359 13.1392 7.539 13.0545C7.36417 12.8792 7.18961 12.7038 7.01505 12.5282C6.89586 12.4087 6.77666 12.2891 6.65743 12.1696C6.36669 11.8781 6.07616 11.5863 5.7858 11.2944C5.92043 11.0039 6.10793 10.8023 6.33316 10.5788C6.37214 10.5397 6.41111 10.5006 6.45127 10.4603C6.53343 10.378 6.61579 10.296 6.69831 10.2141C6.82494 10.0882 6.95076 9.96162 7.07651 9.83492C7.15648 9.75505 7.2365 9.67522 7.31656 9.59545C7.35429 9.55742 7.39202 9.51938 7.4309 9.4802C7.67985 9.19793 7.67985 9.19793 7.98039 9.31485ZM17.3639 9.58733C17.3394 10.1262 17.3149 10.665 17.2897 11.2201C17.1458 11.237 17.0019 11.2538 16.8537 11.2712C16.108 11.3878 15.4977 11.6948 14.9889 12.2592C14.4007 13.0709 14.3081 13.8825 14.3952 14.8569C14.5604 15.6927 15.0622 16.2701 15.7444 16.7489C16.3136 17.0531 16.8435 17.1174 17.4825 17.1214C17.6022 17.1234 17.6022 17.1234 17.7242 17.1254C17.9768 17.1294 18.2293 17.132 18.4818 17.1344C18.654 17.1369 18.8262 17.1395 18.9983 17.1421C19.4184 17.1484 19.8384 17.1535 20.2585 17.1576C20.2649 17.4452 20.2689 17.7328 20.2724 18.0204C20.2752 18.1423 20.2752 18.1423 20.278 18.2666C20.2914 18.8612 20.2914 18.8612 20.0358 19.3842C19.7372 19.5393 19.4816 19.5513 19.1483 19.5516C19.0978 19.5519 19.0473 19.5521 18.9953 19.5524C18.8861 19.5529 18.7769 19.5531 18.6677 19.553C18.4945 19.5529 18.3213 19.5539 18.1481 19.5552C17.6557 19.5586 17.1633 19.5604 16.671 19.5609C16.3693 19.5613 16.0676 19.5631 15.7659 19.5658C15.6515 19.5665 15.537 19.5667 15.4225 19.5663C14.7383 19.564 14.193 19.5658 13.6512 20.0333C13.6181 20.0748 13.585 20.1162 13.5509 20.1589C13.5167 20.2001 13.4824 20.2413 13.4471 20.2838C13.1331 20.7648 13.1579 21.2773 13.2077 21.8334C13.3288 22.294 13.6303 22.6154 14.0241 22.8725C14.3522 23.039 14.6628 23.0422 15.023 23.0411C15.1164 23.0416 15.1164 23.0416 15.2118 23.0422C15.3467 23.043 15.4817 23.0434 15.6166 23.0436C15.8303 23.0438 16.044 23.0451 16.2577 23.0466C16.8652 23.0507 17.4727 23.053 18.0803 23.0548C18.4522 23.056 18.8241 23.0582 19.1961 23.0611C19.3376 23.0619 19.4791 23.0624 19.6206 23.0624C19.8187 23.0624 20.0167 23.0638 20.2148 23.0654C20.273 23.0651 20.3312 23.0647 20.3911 23.0644C20.7457 23.069 20.9898 23.1229 21.2975 23.3178C21.4029 23.5286 21.3951 23.6781 21.3717 23.9115C21.2061 24.1229 21.1083 24.1973 20.8522 24.2826C20.7276 24.2902 20.6027 24.2941 20.4779 24.2957C20.4043 24.2975 20.3307 24.2992 20.2548 24.301C20.101 24.3042 19.9471 24.3065 19.7933 24.308C19.237 24.3234 18.8281 24.415 18.4012 24.7833C18.3681 24.8248 18.335 24.8662 18.3009 24.9089C18.2667 24.9501 18.2324 24.9913 18.1971 25.0338C18.014 25.3144 17.9394 25.5735 17.934 25.9067C17.9325 25.9765 17.9311 26.0463 17.9295 26.1182C17.9287 26.1926 17.9278 26.267 17.9269 26.3437C17.9255 26.4206 17.9241 26.4975 17.9226 26.5767C17.9182 26.8217 17.9147 27.0667 17.9113 27.3117C17.9085 27.4781 17.9056 27.6444 17.9026 27.8108C17.8954 28.2181 17.8894 28.6253 17.8835 29.0326C17.0017 29.0326 16.12 29.0326 15.2116 29.0326C15.1044 28.8321 14.9973 28.6316 14.8869 28.425C14.4515 27.6322 13.9351 26.9476 13.3213 26.2834C13.2831 26.242 13.2449 26.2006 13.2055 26.1579C12.9228 25.8544 12.6327 25.5595 12.3373 25.2684C12.2954 25.227 12.2534 25.1856 12.2101 25.1429C12.0391 24.9746 11.8679 24.8064 11.6959 24.6391C10.1749 23.1561 9.06146 21.4956 9.02972 19.3032C9.01575 16.5336 9.89068 14.287 11.7975 12.2592C11.8366 12.2154 11.8756 12.1716 11.9158 12.1264C13.1378 10.8109 15.0725 9.85004 16.8444 9.58733C17.0158 9.58733 17.1873 9.58733 17.3639 9.58733ZM27.7545 17.1576C28.0204 18.4871 28.0743 19.9473 27.6061 21.2397C27.5792 21.3172 27.5523 21.3947 27.5246 21.4745C26.9222 23.0553 25.7089 24.1988 24.5238 25.3524C23.3734 26.4746 22.5251 27.6246 21.7428 29.0326C20.8611 29.0326 19.9794 29.0326 19.071 29.0326C19.0658 28.618 19.0614 28.2034 19.0587 27.7887C19.0576 27.6478 19.0561 27.5068 19.0542 27.3659C19.0514 27.1628 19.0502 26.9598 19.0492 26.7568C19.0481 26.6942 19.0469 26.6315 19.0457 26.567C19.0456 26.1987 19.074 25.9297 19.2936 25.6186C19.5458 25.4735 19.766 25.4518 20.0535 25.4498C20.1266 25.4483 20.1998 25.4468 20.2751 25.4452C20.427 25.4433 20.579 25.4419 20.7309 25.4411C21.2854 25.4281 21.6902 25.3366 22.1157 24.9695C22.1488 24.928 22.1819 24.8866 22.216 24.8439C22.2674 24.7821 22.2674 24.7821 22.3198 24.719C22.6338 24.2379 22.609 23.7254 22.5592 23.1694C22.4381 22.7088 22.1366 22.3874 21.7428 22.1303C21.4147 21.9638 21.1041 21.9606 20.7439 21.9617C20.6816 21.9613 20.6193 21.961 20.5551 21.9606C20.4202 21.9598 20.2852 21.9594 20.1503 21.9592C19.9366 21.959 19.7229 21.9577 19.5092 21.9562C18.9017 21.9521 18.2942 21.9498 17.6867 21.948C17.3147 21.9468 16.9428 21.9446 16.5709 21.9417C16.4293 21.9408 16.2878 21.9404 16.1463 21.9404C15.9482 21.9404 15.7502 21.939 15.5521 21.9374C15.4939 21.9377 15.4357 21.9381 15.3758 21.9384C15.0212 21.9337 14.7771 21.8799 14.4694 21.685C14.364 21.4741 14.3718 21.3247 14.3952 21.0912C14.5608 20.8799 14.6586 20.8055 14.9147 20.7201C15.0811 20.7129 15.2477 20.7101 15.4143 20.7096C15.4648 20.7094 15.5152 20.7091 15.5672 20.7088C15.6768 20.7083 15.7864 20.7079 15.896 20.7076C16.0698 20.7071 16.2437 20.7059 16.4175 20.7046C16.9118 20.7007 17.406 20.6971 17.9003 20.6959C18.2028 20.6952 18.5052 20.693 18.8077 20.6899C18.9226 20.689 19.0375 20.6886 19.1524 20.6888C19.8375 20.6895 20.3857 20.6875 20.9282 20.2195C20.9613 20.178 20.9944 20.1366 21.0285 20.0939C21.0799 20.0321 21.0799 20.0321 21.1323 19.969C21.6789 19.1315 21.4133 18.1705 21.446 17.1576C23.5278 17.1576 25.6096 17.1576 27.7545 17.1576ZM7.86392 20.1264C7.88158 20.2369 7.88158 20.2369 7.89958 20.3496C8.00573 20.9787 8.15445 21.5575 8.38433 22.1529C8.46619 22.3407 8.46619 22.3407 8.45767 22.5014C8.38228 22.5078 8.30689 22.5142 8.22922 22.5208C7.11084 22.6294 6.11276 22.9816 5.34049 23.8373C5.30566 23.8719 5.27084 23.9064 5.23496 23.942C4.40759 24.8099 4.25757 25.9315 4.27823 27.0728C4.29768 27.5441 4.39138 27.94 4.5983 28.3647C4.63322 28.4369 4.66814 28.5091 4.70412 28.5836C5.26778 29.6745 6.13894 30.2746 7.28293 30.6733C8.37327 30.9281 9.571 30.8056 10.5381 30.2361C10.7691 30.0798 10.9838 29.9236 11.1771 29.7221C11.2728 29.6094 11.2728 29.6094 11.4264 29.6264C11.4466 29.5835 11.4668 29.5407 11.4876 29.4965C11.5747 29.3298 11.674 29.1853 11.7836 29.0326C12.1375 28.5092 12.3449 27.9232 12.5397 27.3256C13.1545 27.921 13.9282 28.7801 14.0493 29.6615C14.0332 29.8609 14.0332 29.8609 13.9133 30.0633C13.7834 30.3315 13.7862 30.5044 13.7921 30.8C13.7734 31.2314 13.6973 31.4285 13.3886 31.7323C13.281 31.8247 13.1719 31.9154 13.0592 32.0014C12.902 31.9242 12.7483 31.8448 12.5965 31.7573C11.9411 31.4092 11.2534 31.3665 10.5358 31.5338C9.82145 31.7918 9.45639 32.2078 9.13724 32.8877C9.02152 33.1938 8.98808 33.4566 8.97721 33.7826C8.58533 33.7826 8.19346 33.7826 7.78971 33.7826C7.7744 33.651 7.75909 33.5193 7.74332 33.3837C7.63914 32.7702 7.39895 32.2878 6.90836 31.8947C6.26738 31.471 5.57807 31.3555 4.82096 31.4819C4.56635 31.5782 4.34515 31.6893 4.1124 31.8298C3.92112 31.9505 3.92112 31.9505 3.63346 31.9272C3.46844 31.7981 3.46844 31.7981 3.31803 31.6303C3.2656 31.5752 3.21317 31.5201 3.15915 31.4633C3.11974 31.4204 3.08032 31.3776 3.03971 31.3334C3.11689 31.1762 3.19625 31.0225 3.28382 30.8707C3.63186 30.2153 3.67461 29.5276 3.50734 28.81C3.24926 28.0956 2.83332 27.7306 2.15343 27.4114C1.84733 27.2957 1.58453 27.2623 1.25846 27.2514C1.25846 26.8595 1.25846 26.4676 1.25846 26.0639C1.3901 26.0486 1.52175 26.0333 1.65738 26.0175C2.27087 25.9133 2.75334 25.6731 3.1464 25.1825C3.57011 24.5416 3.68561 23.8522 3.55924 23.0951C3.46292 22.8405 3.35177 22.6193 3.21134 22.3866C3.09058 22.1953 3.09058 22.1953 3.11393 21.9076C3.243 21.7426 3.243 21.7426 3.4108 21.5922C3.46591 21.5398 3.52102 21.4874 3.57779 21.4333C3.62066 21.3939 3.66351 21.3545 3.70768 21.3139C3.86493 21.3911 4.0186 21.4704 4.17038 21.558C4.82576 21.906 5.51347 21.9488 6.23111 21.7815C7.07609 21.4762 7.41078 20.9027 7.78971 20.1264C7.8142 20.1264 7.83869 20.1264 7.86392 20.1264ZM28.2643 23.6699C28.305 23.7109 28.3457 23.7518 28.3876 23.794C28.4303 23.8367 28.473 23.8794 28.5171 23.9234C28.659 24.0654 28.8007 24.2076 28.9423 24.3499C29.0404 24.4481 29.1385 24.5463 29.2365 24.6444C29.4953 24.9034 29.7537 25.1626 30.0122 25.4219C30.2757 25.6862 30.5395 25.9503 30.8032 26.2144C31.321 26.733 31.8386 27.2519 32.3561 27.7709C32.221 28.0631 32.0313 28.2632 31.8035 28.4864C31.7642 28.5256 31.7249 28.5647 31.6844 28.605C31.5592 28.7293 31.4335 28.8532 31.3078 28.977C31.2226 29.0614 31.1375 29.1459 31.0524 29.2304C30.8441 29.437 30.6354 29.6431 30.4264 29.849C30.1374 29.7315 29.9431 29.5342 29.7279 29.3159C29.6888 29.2767 29.6497 29.2376 29.6094 29.1973C29.4805 29.0684 29.3522 28.9389 29.2238 28.8094C29.1344 28.7197 29.045 28.6301 28.9556 28.5405C28.7205 28.3048 28.4858 28.0687 28.2513 27.8325C28.0118 27.5915 27.7718 27.3509 27.5319 27.1102C27.0614 26.6381 26.5914 26.1656 26.1217 25.6928C26.2204 25.4886 26.3126 25.3352 26.4722 25.1736C26.5318 25.112 26.5318 25.112 26.5925 25.0492C26.6346 25.006 26.6767 24.9627 26.7201 24.9181C27.1249 24.4945 27.4632 24.0564 27.7835 23.5665C27.823 23.5089 27.8624 23.4514 27.903 23.392C28.0609 23.392 28.1587 23.5645 28.2643 23.6699ZM9.54312 24.033C9.5768 24.0832 9.61048 24.1335 9.64517 24.1852C9.93608 24.5873 10.2706 24.9392 10.6119 25.2981C10.6976 25.3886 10.7829 25.4794 10.8677 25.5708C10.9635 25.6739 11.061 25.7754 11.1588 25.8766C11.3172 26.1255 11.3229 26.3437 11.3151 26.6298C11.3141 26.6823 11.3132 26.7348 11.3122 26.7888C11.2793 27.6495 10.9257 28.2927 10.3082 28.8822C9.64112 29.4443 8.93714 29.6188 8.07701 29.5803C7.21353 29.4958 6.57444 29.0756 6.02237 28.4203C5.49584 27.6918 5.40331 26.9386 5.48893 26.0639C5.65648 25.2638 6.13794 24.6455 6.79326 24.1719C7.46424 23.7548 8.89971 23.385 9.54312 24.033ZM25.5133 26.8472C25.5708 26.9055 25.5708 26.9055 25.6295 26.965C25.6701 27.0055 25.7106 27.046 25.7524 27.0878C25.8869 27.2224 26.0208 27.3575 26.1548 27.4926C26.2477 27.5858 26.3407 27.679 26.4337 27.7722C26.6788 28.0178 26.9234 28.2639 27.168 28.5101C27.4175 28.7611 27.6673 29.0117 27.9172 29.2623C28.4077 29.7543 28.8977 30.2468 29.3874 30.7397C29.2522 31.0319 29.0625 31.232 28.8348 31.4552C28.7955 31.4943 28.7561 31.5334 28.7156 31.5737C28.5904 31.6981 28.4647 31.8219 28.339 31.9457C28.2538 32.0302 28.1687 32.1146 28.0836 32.1991C27.8753 32.4057 27.6666 32.6119 27.4577 32.8178C27.1708 32.6999 26.9901 32.5165 26.7728 32.2982C26.7351 32.2606 26.6974 32.2229 26.6586 32.1841C26.5346 32.0599 26.4111 31.9353 26.2876 31.8106C26.2015 31.7243 26.1154 31.638 26.0293 31.5517C25.803 31.3248 25.5771 31.0975 25.3514 30.8701C25.1208 30.638 24.8898 30.4063 24.6588 30.1746C24.2059 29.7202 23.7535 29.2652 23.3014 28.81C23.3598 28.7031 23.4185 28.5963 23.4772 28.4896C23.5098 28.4301 23.5425 28.3707 23.5761 28.3094C23.9463 27.6668 24.5248 27.0696 25.0827 26.5834C25.2957 26.5834 25.369 26.7037 25.5133 26.8472ZM33.0983 29.0326C33.3894 29.7222 33.6707 30.4154 33.9454 31.1116C33.9934 31.2327 34.0418 31.3537 34.0905 31.4745C34.1617 31.6512 34.2317 31.8284 34.3015 32.0057C34.3234 32.0595 34.3453 32.1132 34.368 32.1686C34.4821 32.463 34.562 32.6698 34.4342 32.9662C34.2954 33.1365 34.1587 33.2887 34.0043 33.4434C33.961 33.4876 33.9177 33.5317 33.873 33.5772C33.7814 33.67 33.6893 33.7624 33.5969 33.8545C33.4558 33.9957 33.317 34.139 33.1782 34.2825C33.0888 34.3725 32.9992 34.4623 32.9096 34.5521C32.8683 34.5951 32.827 34.6382 32.7844 34.6825C32.601 34.8617 32.4879 34.9682 32.2261 34.9769C31.8848 34.8623 31.547 34.7419 31.2109 34.6127C31.1374 34.5848 31.0639 34.5569 30.9882 34.5281C30.7544 34.4393 30.5208 34.3499 30.2873 34.2604C30.1284 34.1999 29.9695 34.1395 29.8106 34.0791C29.422 33.9312 29.0335 33.7829 28.6452 33.6342C28.6452 33.3592 28.7357 33.2946 28.9222 33.1059C28.9631 33.0658 29.0039 33.0257 29.046 32.9843C29.0886 32.9416 29.1311 32.8988 29.175 32.8548C29.3163 32.7133 29.4584 32.5726 29.6004 32.4319C29.6985 32.3341 29.7965 32.2362 29.8944 32.1383C30.0999 31.9332 30.3058 31.7284 30.512 31.5239C30.7769 31.2611 31.0411 30.9976 31.3052 30.7339C31.5075 30.5319 31.7101 30.33 31.9128 30.1283C32.0103 30.0311 32.1078 29.934 32.2053 29.8368C32.3412 29.7014 32.4774 29.5662 32.6137 29.4311C32.6544 29.3905 32.695 29.3499 32.737 29.3081C32.8918 29.118 32.8918 29.118 33.0983 29.0326ZM21.8913 30.4428C21.9967 30.6536 21.9888 30.8031 21.9655 31.0365C21.7998 31.2479 21.702 31.3223 21.446 31.4076C21.2575 31.4155 21.0711 31.4193 20.8827 31.4196C20.7969 31.4201 20.7969 31.4201 20.7093 31.4207C20.5199 31.4218 20.3305 31.4223 20.141 31.4227C20.0093 31.4231 19.8776 31.4236 19.7458 31.424C19.4695 31.4248 19.1932 31.4252 18.9168 31.4255C18.5632 31.4259 18.2096 31.4277 17.856 31.4298C17.5838 31.4312 17.3116 31.4315 17.0394 31.4317C16.909 31.4319 16.7787 31.4325 16.6483 31.4334C16.4657 31.4347 16.2831 31.4346 16.1005 31.4341C16.047 31.4348 15.9934 31.4355 15.9382 31.4362C15.593 31.4333 15.3559 31.368 15.0631 31.185C14.9577 30.9741 14.9656 30.8247 14.9889 30.5912C15.1546 30.3799 15.2524 30.3055 15.5085 30.2201C15.6969 30.2123 15.8833 30.2085 16.0717 30.2082C16.1289 30.2078 16.1862 30.2074 16.2451 30.2071C16.4345 30.206 16.624 30.2055 16.8134 30.2051C16.9451 30.2046 17.0768 30.2042 17.2086 30.2038C17.4849 30.203 17.7612 30.2026 18.0376 30.2023C18.3912 30.2019 18.7448 30.2001 19.0985 30.198C19.3707 30.1966 19.6428 30.1962 19.915 30.1961C20.0454 30.1959 20.1757 30.1953 20.3061 30.1943C20.4887 30.1931 20.6713 30.1932 20.8539 30.1937C20.9075 30.193 20.961 30.1923 21.0162 30.1916C21.3614 30.1945 21.5985 30.2598 21.8913 30.4428ZM21.8913 32.8178C21.9967 33.0286 21.9888 33.1781 21.9655 33.4115C21.7998 33.6229 21.702 33.6973 21.446 33.7826C21.2575 33.7905 21.0711 33.7943 20.8827 33.7946C20.7969 33.7952 20.7969 33.7952 20.7093 33.7957C20.5199 33.7968 20.3305 33.7973 20.141 33.7977C20.0093 33.7981 19.8776 33.7986 19.7458 33.799C19.4695 33.7998 19.1932 33.8002 18.9168 33.8005C18.5632 33.8009 18.2096 33.8027 17.856 33.8048C17.5838 33.8062 17.3116 33.8065 17.0394 33.8067C16.909 33.8069 16.7787 33.8075 16.6483 33.8084C16.4657 33.8097 16.2831 33.8096 16.1005 33.8091C16.047 33.8098 15.9934 33.8105 15.9382 33.8112C15.593 33.8083 15.3559 33.743 15.0631 33.56C14.9577 33.3491 14.9656 33.1997 14.9889 32.9662C15.1546 32.7549 15.2524 32.6805 15.5085 32.5951C15.6969 32.5873 15.8833 32.5835 16.0717 32.5832C16.1289 32.5828 16.1862 32.5824 16.2451 32.5821C16.4345 32.581 16.624 32.5805 16.8134 32.5801C16.9451 32.5796 17.0768 32.5792 17.2086 32.5788C17.4849 32.578 17.7612 32.5776 18.0376 32.5773C18.3912 32.5769 18.7448 32.5751 19.0985 32.573C19.3707 32.5716 19.6428 32.5712 19.915 32.5711C20.0454 32.5709 20.1757 32.5703 20.3061 32.5693C20.4887 32.5681 20.6713 32.5682 20.8539 32.5687C20.9075 32.568 20.961 32.5673 21.0162 32.5666C21.3614 32.5695 21.5985 32.6348 21.8913 32.8178ZM35.1022 34.1537C35.1901 34.3666 35.2762 34.5802 35.362 34.7939C35.3867 34.8539 35.4115 34.9138 35.4371 34.9756C35.5675 35.3031 35.6703 35.5762 35.6217 35.935C35.4856 36.1011 35.4856 36.1011 35.2849 36.1089C34.939 36.0746 34.6516 35.9556 34.3322 35.8237C34.2705 35.7989 34.2088 35.7741 34.1452 35.7486C33.9939 35.6877 33.8428 35.6261 33.692 35.5639C33.9826 35.2162 34.2843 34.8858 34.6059 34.5666C34.6457 34.5264 34.6856 34.4863 34.7266 34.445C34.8875 34.2449 34.8875 34.2449 35.1022 34.1537ZM20.4811 34.9701C20.1489 35.5237 19.7095 35.9215 19.071 36.0834C18.2909 36.1787 17.6495 36.1134 16.9928 35.6381C16.7968 35.4548 16.624 35.2668 16.4733 35.0444C16.4733 35.0199 16.4733 34.9954 16.4733 34.9701C17.7959 34.9701 19.1185 34.9701 20.4811 34.9701Z" fill="#7C877F"/>
</svg>
