<svg width="24" height="24" viewBox="0 0 24 24" fill="none" xmlns="http://www.w3.org/2000/svg">
<g clip-path="url(#clip0_81_171)">
<path d="M22.1719 15.5586V12.8273C22.1711 12.3344 21.9749 11.862 21.6263 11.5136C21.2777 11.1652 20.8051 10.9692 20.3123 10.9688H17.625V7.96877H19.6879C19.7324 7.96667 19.7758 7.95453 19.8149 7.93327C19.854 7.91201 19.8877 7.88218 19.9136 7.84601C19.9396 7.80985 19.957 7.76828 19.9645 7.72443C19.9721 7.68059 19.9696 7.6356 19.9573 7.59283L18.9765 4.32415C18.959 4.26636 18.9234 4.21576 18.8748 4.17988C18.8263 4.144 18.7675 4.12476 18.7071 4.12502H15.9805C15.9203 4.12428 15.8615 4.14306 15.813 4.17856C15.7644 4.21406 15.7286 4.26435 15.7111 4.3219L14.7302 7.59002C14.7176 7.63338 14.715 7.67904 14.7226 7.72356C14.7302 7.76807 14.7477 7.81029 14.774 7.84704C14.7997 7.88331 14.8334 7.91318 14.8726 7.93432C14.9117 7.95545 14.9552 7.96729 14.9996 7.96891H17.0625V10.9689H4.15667C3.66382 10.9694 3.19126 11.1653 2.84263 11.5136C2.494 11.862 2.29775 12.3344 2.2969 12.8273V15.5586C1.82564 15.5875 1.38334 15.7958 1.0608 16.1406C0.738267 16.4854 0.559974 16.9406 0.562527 17.4128V21.7078C0.562616 21.7445 0.569986 21.7808 0.58421 21.8147C0.598434 21.8485 0.619229 21.8791 0.64539 21.9049C0.67155 21.9306 0.702556 21.9509 0.736611 21.9645C0.770665 21.9782 0.807091 21.9849 0.843777 21.9844H1.64065V23.3906C1.64364 23.4666 1.67602 23.5383 1.73095 23.5908C1.78588 23.6433 1.85906 23.6724 1.93503 23.6719H5.11629C5.15287 23.6718 5.18904 23.6643 5.22272 23.6501C5.25639 23.6358 5.28689 23.615 5.31243 23.5888C5.33796 23.5626 5.35803 23.5316 5.37146 23.4976C5.38489 23.4636 5.39142 23.4272 5.39065 23.3906V21.9844H19.0781V23.3906C19.0774 23.4272 19.0839 23.4636 19.0974 23.4976C19.1108 23.5316 19.1309 23.5626 19.1564 23.5888C19.182 23.615 19.2125 23.6358 19.2462 23.6501C19.2798 23.6643 19.316 23.6718 19.3526 23.6719H22.534C22.6099 23.6724 22.6831 23.6433 22.738 23.5908C22.7929 23.5383 22.8252 23.4665 22.8281 23.3906V21.9844H23.625C23.6617 21.9849 23.6981 21.9782 23.7322 21.9645C23.7663 21.9509 23.7973 21.9306 23.8234 21.9049C23.8496 21.8792 23.8704 21.8485 23.8846 21.8147C23.8988 21.7808 23.9062 21.7445 23.9063 21.7078V17.4128C23.9088 16.9406 23.7305 16.4854 23.408 16.1406C23.0855 15.7958 22.6432 15.5875 22.1719 15.5586ZM16.1898 4.68752H18.4978L19.3099 7.40627H15.3776L16.1898 4.68752ZM4.15667 11.5313H20.3123C20.656 11.5316 20.9855 11.6682 21.2287 11.9112C21.4719 12.1541 21.6088 12.4836 21.6094 12.8273V15.607C21.2079 15.7094 20.8519 15.9424 20.5973 16.2693C20.3428 16.5963 20.2041 16.9985 20.2031 17.4129V18.2813H4.26565V17.4128C4.26471 16.9984 4.12605 16.5962 3.87148 16.2692C3.61691 15.9423 3.26088 15.7093 2.8594 15.6069V12.8272C2.86007 12.4835 2.99701 12.154 3.24018 11.9111C3.48336 11.6682 3.81294 11.5316 4.15667 11.5313ZM4.82815 23.1094H2.20315V21.9844H4.82815V23.1094ZM22.2656 23.1094H19.6406V21.9844H22.2656V23.1094ZM23.3438 21.4219H1.12503V17.4128C1.12503 17.0709 1.26084 16.743 1.50258 16.5013C1.74433 16.2595 2.07221 16.1237 2.41409 16.1237C2.75597 16.1237 3.08385 16.2595 3.32559 16.5013C3.56734 16.743 3.70315 17.0709 3.70315 17.4128V18.5531C3.7061 18.6302 3.73836 18.7032 3.79335 18.7572C3.84833 18.8112 3.92187 18.8422 3.99893 18.8438H20.47C20.5471 18.8422 20.6206 18.8112 20.6755 18.7572C20.7305 18.7031 20.7627 18.6302 20.7656 18.5531V17.4128C20.7656 17.0709 20.9015 16.743 21.1432 16.5013C21.385 16.2595 21.7128 16.1237 22.0547 16.1237C22.3966 16.1237 22.7245 16.2595 22.9662 16.5013C23.208 16.743 23.3438 17.0709 23.3438 17.4128V21.4219Z" fill="#7C877F"/>
<path d="M10.0312 9.52682V2.65439C10.0312 2.61852 10.0239 2.58303 10.0097 2.55009C9.99549 2.51714 9.97475 2.48743 9.94871 2.46276C9.92267 2.43809 9.89188 2.41897 9.85822 2.40658C9.82456 2.39419 9.78873 2.38877 9.75291 2.39067H7.22541L5.26275 0.419293C5.23739 0.391753 5.20657 0.36981 5.17224 0.354868C5.13792 0.339927 5.10085 0.332316 5.06342 0.332524C5.02598 0.332731 4.98901 0.340752 4.95485 0.356073C4.92069 0.371393 4.89011 0.393677 4.86506 0.421496L2.90245 2.39067H0.375C0.339027 2.38872 0.303032 2.39408 0.269186 2.40642C0.235339 2.41876 0.204342 2.43783 0.178062 2.46247C0.151782 2.48711 0.130763 2.51682 0.116273 2.5498C0.101783 2.58279 0.0941215 2.61836 0.09375 2.65439V9.52682C0.0939666 9.56318 0.101473 9.59912 0.115824 9.63253C0.130176 9.66593 0.151081 9.69612 0.177304 9.7213C0.203527 9.74648 0.234534 9.76615 0.268491 9.77914C0.302448 9.79213 0.338665 9.79817 0.375 9.79692H9.75291C9.78909 9.79811 9.82513 9.792 9.8589 9.77895C9.89266 9.7659 9.92346 9.74619 9.94943 9.72098C9.97541 9.69577 9.99605 9.66559 10.0101 9.63223C10.0242 9.59887 10.0314 9.56302 10.0312 9.52682ZM8.15625 6.17817L6.17672 7.10095L3.76711 5.45831C3.71728 5.4253 3.65853 5.40835 3.59878 5.40971C3.53902 5.41108 3.48112 5.4307 3.43284 5.46595L1.92188 6.5947V4.07817H8.15625V6.17817ZM1.92188 7.29796L3.61228 6.03651L5.99752 7.65567C6.04507 7.68743 6.10097 7.70437 6.15816 7.70437C6.19614 7.70436 6.23358 7.69541 6.26747 7.67826L8.15625 6.79809V8.10942H1.92188V7.29796ZM8.35102 3.51567H1.76667L1.08952 2.95317H9.02344L8.35102 3.51567ZM1.35938 3.94181V8.25942L0.65625 8.90292V3.30346L1.35938 3.94181ZM1.76719 8.67192H8.35031L8.99564 9.23442H1.11727L1.76719 8.67192ZM8.71875 8.25989V3.9412L9.46875 3.28964V8.91689L8.71875 8.25989ZM5.06391 1.02468L6.42994 2.39067H3.69792L5.06391 1.02468Z" fill="#7C877F"/>
<path d="M6.01748 6.2437C6.20488 6.2437 6.38808 6.18812 6.5439 6.08401C6.69972 5.97989 6.82117 5.83191 6.89288 5.65877C6.9646 5.48563 6.98336 5.29511 6.9468 5.11131C6.91024 4.92751 6.82 4.75867 6.68748 4.62616C6.55497 4.49364 6.38613 4.4034 6.20233 4.36684C6.01853 4.33028 5.82801 4.34904 5.65487 4.42076C5.48173 4.49248 5.33375 4.61392 5.22963 4.76974C5.12552 4.92557 5.06995 5.10876 5.06995 5.29616C5.07022 5.54738 5.17014 5.78823 5.34777 5.96587C5.52541 6.14351 5.76626 6.24342 6.01748 6.2437ZM6.01748 4.91118C6.09363 4.91118 6.16808 4.93376 6.23139 4.97607C6.29471 5.01838 6.34406 5.07852 6.3732 5.14888C6.40235 5.21924 6.40997 5.29665 6.39511 5.37134C6.38025 5.44603 6.34357 5.51464 6.28972 5.56849C6.23587 5.62233 6.16726 5.659 6.09256 5.67385C6.01787 5.6887 5.94045 5.68107 5.8701 5.65192C5.79975 5.62277 5.73961 5.57341 5.69731 5.51009C5.65501 5.44676 5.63244 5.37232 5.63245 5.29616C5.63251 5.19405 5.67309 5.09613 5.74528 5.02391C5.81747 4.95168 5.91536 4.91106 6.01748 4.91095V4.91118Z" fill="#7C877F"/>
<path d="M16.3494 14.4582C16.2622 14.6132 16.2164 14.788 16.2164 14.9659C16.2164 15.1438 16.2622 15.3186 16.3494 15.4736L15.9519 15.8711C15.9252 15.897 15.904 15.9281 15.8893 15.9623C15.8747 15.9966 15.8671 16.0334 15.8668 16.0707C15.8666 16.108 15.8737 16.1449 15.8879 16.1794C15.902 16.2138 15.9228 16.2451 15.9492 16.2715C15.9755 16.2978 16.0068 16.3187 16.0413 16.3328C16.0758 16.347 16.1127 16.3541 16.15 16.3539C16.1872 16.3536 16.2241 16.346 16.2583 16.3314C16.2926 16.3168 16.3236 16.2955 16.3496 16.2688L16.7471 15.8713C16.9021 15.9585 17.0769 16.0043 17.2548 16.0043C17.4326 16.0043 17.6075 15.9585 17.7625 15.8713L18.1599 16.2687C18.2126 16.3215 18.2842 16.3511 18.3588 16.3511C18.4333 16.3511 18.5049 16.3215 18.5576 16.2688C18.6104 16.216 18.64 16.1445 18.64 16.0699C18.64 15.9953 18.6104 15.9238 18.5577 15.871L18.1598 15.4731C18.2464 15.3181 18.2918 15.1434 18.2918 14.9659C18.2918 14.7883 18.2464 14.6136 18.1598 14.4586L18.5577 14.0607C18.6104 14.0079 18.64 13.9364 18.64 13.8618C18.64 13.7872 18.6104 13.7157 18.5576 13.6629C18.5049 13.6102 18.4333 13.5806 18.3588 13.5806C18.2842 13.5806 18.2126 13.6102 18.1599 13.663L17.7625 14.0604C17.6075 13.9732 17.4326 13.9274 17.2548 13.9274C17.077 13.9274 16.9021 13.9732 16.7471 14.0604L16.3496 13.663C16.3236 13.6363 16.2926 13.615 16.2583 13.6004C16.2241 13.5858 16.1872 13.5781 16.15 13.5779C16.1127 13.5776 16.0758 13.5848 16.0413 13.5989C16.0068 13.6131 15.9755 13.6339 15.9492 13.6603C15.9228 13.6866 15.902 13.7179 15.8879 13.7524C15.8737 13.7869 15.8666 13.8238 15.8668 13.8611C15.8671 13.8983 15.8747 13.9351 15.8893 13.9694C15.904 14.0037 15.9252 14.0347 15.9519 14.0607L16.3494 14.4582ZM17.2548 14.49C17.365 14.49 17.4717 14.5281 17.5569 14.598C17.642 14.6679 17.7003 14.7651 17.7218 14.8731C17.7433 14.9811 17.7267 15.0933 17.6748 15.1904C17.6229 15.2876 17.5389 15.3637 17.4371 15.4059C17.3353 15.448 17.2221 15.4536 17.1167 15.4216C17.0113 15.3896 16.9203 15.3221 16.8591 15.2305C16.7979 15.1389 16.7703 15.029 16.7811 14.9194C16.7919 14.8097 16.8404 14.7073 16.9183 14.6294C16.9624 14.5851 17.0148 14.5499 17.0725 14.526C17.1303 14.5021 17.1922 14.4898 17.2547 14.49H17.2548Z" fill="#7C877F"/>
<path d="M11.1931 14.4582C11.1059 14.6132 11.0601 14.788 11.0601 14.9659C11.0601 15.1438 11.1059 15.3186 11.1931 15.4736L10.7957 15.8711C10.769 15.897 10.7477 15.9281 10.7331 15.9623C10.7185 15.9966 10.7108 16.0334 10.7106 16.0707C10.7103 16.108 10.7175 16.1449 10.7316 16.1794C10.7457 16.2138 10.7666 16.2451 10.7929 16.2715C10.8193 16.2978 10.8506 16.3187 10.8851 16.3328C10.9195 16.347 10.9565 16.3541 10.9937 16.3539C11.031 16.3536 11.0678 16.346 11.1021 16.3314C11.1363 16.3168 11.1674 16.2955 11.1934 16.2688L11.5908 15.8713C11.7458 15.9585 11.9207 16.0043 12.0985 16.0043C12.2764 16.0043 12.4512 15.9585 12.6062 15.8713L13.0036 16.2687C13.0564 16.3215 13.1279 16.3511 13.2025 16.3511C13.2771 16.3511 13.3486 16.3215 13.4014 16.2688C13.4541 16.216 13.4838 16.1445 13.4838 16.0699C13.4838 15.9953 13.4542 15.9238 13.4014 15.871L13.0036 15.4731C13.0901 15.3181 13.1355 15.1434 13.1355 14.9659C13.1355 14.7883 13.0901 14.6136 13.0036 14.4586L13.4014 14.0607C13.4542 14.0079 13.4838 13.9364 13.4838 13.8618C13.4838 13.7872 13.4541 13.7157 13.4014 13.6629C13.3486 13.6102 13.2771 13.5806 13.2025 13.5806C13.1279 13.5806 13.0564 13.6102 13.0036 13.663L12.6062 14.0604C12.4512 13.9732 12.2764 13.9274 12.0985 13.9274C11.9207 13.9274 11.7459 13.9732 11.5909 14.0604L11.1934 13.663C11.1674 13.6363 11.1363 13.615 11.1021 13.6004C11.0678 13.5858 11.031 13.5781 10.9937 13.5779C10.9565 13.5776 10.9195 13.5848 10.8851 13.5989C10.8506 13.6131 10.8193 13.6339 10.7929 13.6603C10.7666 13.6866 10.7457 13.7179 10.7316 13.7524C10.7175 13.7869 10.7103 13.8238 10.7106 13.8611C10.7108 13.8983 10.7185 13.9351 10.7331 13.9694C10.7477 14.0037 10.769 14.0347 10.7957 14.0607L11.1931 14.4582ZM12.0986 14.49C12.2087 14.49 12.3155 14.5281 12.4006 14.598C12.4858 14.6679 12.5441 14.7651 12.5656 14.8731C12.5871 14.9811 12.5704 15.0933 12.5185 15.1904C12.4666 15.2876 12.3826 15.3637 12.2808 15.4059C12.1791 15.448 12.0659 15.4536 11.9605 15.4216C11.8551 15.3896 11.764 15.3221 11.7028 15.2305C11.6416 15.1389 11.6141 15.029 11.6249 14.9194C11.6357 14.8097 11.6842 14.7073 11.7621 14.6294C11.8061 14.5851 11.8585 14.5499 11.9163 14.526C11.974 14.5021 12.0359 14.4898 12.0984 14.49H12.0986Z" fill="#7C877F"/>
<path d="M6.03688 14.4582C5.94967 14.6132 5.90385 14.788 5.90385 14.9659C5.90385 15.1438 5.94967 15.3186 6.03688 15.4736L5.63943 15.8711C5.61273 15.897 5.59145 15.9281 5.57685 15.9623C5.56224 15.9966 5.55458 16.0334 5.55433 16.0707C5.55407 16.108 5.56122 16.1449 5.57536 16.1794C5.5895 16.2138 5.61034 16.2451 5.63669 16.2715C5.66303 16.2978 5.69434 16.3187 5.72881 16.3328C5.76328 16.347 5.80021 16.3541 5.83746 16.3539C5.87472 16.3536 5.91155 16.346 5.94582 16.3314C5.9801 16.3168 6.01113 16.2955 6.03711 16.2688L6.43457 15.8713C6.58957 15.9585 6.76442 16.0043 6.94227 16.0043C7.12012 16.0043 7.29497 15.9585 7.44997 15.8713L7.84738 16.2687C7.90012 16.3215 7.97166 16.3511 8.04625 16.3511C8.12085 16.3511 8.19239 16.3215 8.24514 16.2688C8.29789 16.216 8.32752 16.1445 8.32753 16.0699C8.32753 15.9953 8.2979 15.9238 8.24516 15.871L7.84733 15.4731C7.93386 15.3181 7.97928 15.1434 7.97928 14.9659C7.97928 14.7883 7.93386 14.6136 7.84733 14.4586L8.24516 14.0607C8.27128 14.0346 8.29199 14.0036 8.30612 13.9694C8.32026 13.9353 8.32753 13.8987 8.32753 13.8618C8.32753 13.8249 8.32025 13.7883 8.30611 13.7542C8.29198 13.7201 8.27126 13.6891 8.24514 13.6629C8.21902 13.6368 8.18801 13.6161 8.15389 13.602C8.11976 13.5878 8.08319 13.5806 8.04625 13.5806C8.00932 13.5806 7.97275 13.5879 7.93862 13.602C7.9045 13.6161 7.8735 13.6368 7.84738 13.663L7.44997 14.0604C7.29497 13.9732 7.12013 13.9274 6.94229 13.9274C6.76446 13.9274 6.58961 13.9732 6.43461 14.0604L6.03711 13.663C6.01113 13.6363 5.9801 13.615 5.94582 13.6004C5.91155 13.5858 5.87472 13.5781 5.83746 13.5779C5.80021 13.5776 5.76328 13.5848 5.72881 13.5989C5.69434 13.6131 5.66303 13.6339 5.63669 13.6603C5.61034 13.6866 5.5895 13.7179 5.57536 13.7524C5.56122 13.7869 5.55407 13.8238 5.55433 13.8611C5.55458 13.8983 5.56224 13.9351 5.57685 13.9694C5.59145 14.0037 5.61273 14.0347 5.63943 14.0607L6.03688 14.4582ZM6.94232 14.49C7.05246 14.49 7.15921 14.5281 7.24436 14.598C7.32951 14.6679 7.3878 14.7651 7.4093 14.8731C7.4308 14.9811 7.41418 15.0933 7.36227 15.1904C7.31035 15.2876 7.22636 15.3637 7.1246 15.4059C7.02284 15.448 6.90961 15.4536 6.80421 15.4216C6.69881 15.3896 6.60775 15.3221 6.54656 15.2305C6.48537 15.1389 6.45783 15.029 6.46863 14.9194C6.47943 14.8097 6.52791 14.7073 6.6058 14.6294C6.64987 14.5851 6.70229 14.5499 6.76003 14.526C6.81776 14.5021 6.87968 14.4898 6.94218 14.49H6.94232Z" fill="#7C877F"/>
</g>
<defs>
<clipPath id="clip0_81_171">
<rect width="24" height="24" fill="white"/>
</clipPath>
</defs>
</svg>
