<svg width="24" height="24" viewBox="0 0 24 24" fill="none" xmlns="http://www.w3.org/2000/svg">
<path d="M18.8425 12.3281H18.8344L18.0555 2.12208C17.9913 1.28231 17.2813 0.609375 16.4391 0.609375H7.56094C6.71869 0.609375 6.00867 1.28231 5.9445 2.12208L5.16562 12.3281H5.15742C4.99786 12.3272 4.83969 12.3578 4.69196 12.4182C4.54424 12.4785 4.40988 12.5674 4.29656 12.6797C4.18324 12.7921 4.09319 12.9257 4.03158 13.0728C3.96997 13.22 3.938 13.3779 3.9375 13.5375V16.4006C3.93758 16.4759 3.96722 16.5482 4.02005 16.6018C4.07289 16.6555 4.14468 16.6863 4.21997 16.6875H4.875V23.0886C4.875 23.2439 5.00255 23.3906 5.15784 23.3906H6.71658C6.78527 23.389 6.8511 23.3628 6.90219 23.3169C6.95329 23.2709 6.98628 23.2083 6.9952 23.1401L7.88128 16.6875H16.2244L17.1104 23.1401C17.1193 23.2083 17.1523 23.271 17.2034 23.3169C17.2545 23.3629 17.3204 23.389 17.3891 23.3906H18.8422C18.9975 23.3906 19.1251 23.2439 19.1251 23.0886V16.6875H19.7801C19.8554 16.6862 19.9272 16.6555 19.98 16.6018C20.0328 16.5482 20.0624 16.4759 20.0625 16.4006V13.5375C20.062 13.3779 20.03 13.22 19.9684 13.0728C19.9068 12.9256 19.8168 12.792 19.7034 12.6797C19.5901 12.5674 19.4557 12.4785 19.308 12.4182C19.1603 12.3578 19.0021 12.3272 18.8425 12.3281ZM6.50536 2.16492C6.54727 1.61653 7.01095 1.17188 7.56094 1.17188H16.4391C16.989 1.17188 17.4527 1.61653 17.4946 2.16492L18.2701 12.3281H5.72986L6.50536 2.16492ZM6.47137 22.8281H5.4375V16.6875H7.31348L6.47137 22.8281ZM18.5625 22.8281H17.6344L16.7922 16.6875H18.5625V22.8281ZM19.5 16.125H4.5V13.5375C4.50042 13.4518 4.51779 13.367 4.55111 13.288C4.58443 13.209 4.63305 13.1374 4.69415 13.0773C4.75526 13.0172 4.82765 12.9697 4.90717 12.9377C4.98668 12.9056 5.07175 12.8897 5.15747 12.8906H18.8425C18.9283 12.8897 19.0133 12.9056 19.0928 12.9377C19.1723 12.9697 19.2447 13.0172 19.3058 13.0773C19.367 13.1374 19.4156 13.209 19.4489 13.288C19.4822 13.367 19.4996 13.4518 19.5 13.5375V16.125Z" fill="#7C877F"/>
<path d="M15.8812 3.52516C15.8284 3.47242 15.7569 3.44279 15.6823 3.44279C15.6077 3.44279 15.5362 3.47242 15.4835 3.52516L15.0856 3.92299C14.9305 3.83647 14.7559 3.79105 14.5783 3.79105C14.4007 3.79105 14.2261 3.83647 14.071 3.92299L13.6731 3.52516C13.6471 3.4987 13.6161 3.47765 13.5819 3.46323C13.5477 3.44882 13.5109 3.44132 13.4738 3.44116C13.4367 3.44101 13.3999 3.44821 13.3656 3.46235C13.3312 3.47649 13.3 3.49729 13.2738 3.52354C13.2475 3.54979 13.2267 3.58098 13.2126 3.61531C13.1985 3.64964 13.1913 3.68643 13.1914 3.72356C13.1916 3.76068 13.1991 3.79741 13.2135 3.83163C13.2279 3.86584 13.2489 3.89686 13.2754 3.9229L13.6729 4.32035C13.5857 4.47536 13.5399 4.65021 13.5399 4.82805C13.5399 5.0059 13.5857 5.18075 13.6729 5.33576L13.2754 5.73321C13.2234 5.7861 13.1943 5.85741 13.1946 5.9316C13.1949 6.0058 13.2246 6.07687 13.277 6.12933C13.3295 6.1818 13.4006 6.2114 13.4747 6.21171C13.5489 6.21201 13.6203 6.18298 13.6731 6.13095L14.071 5.73312C14.2259 5.82024 14.4006 5.86601 14.5783 5.86601C14.756 5.86601 14.9307 5.82024 15.0856 5.73312L15.4835 6.13095C15.5363 6.18298 15.6077 6.21201 15.6818 6.21171C15.756 6.2114 15.8271 6.1818 15.8796 6.12933C15.932 6.07687 15.9616 6.0058 15.962 5.9316C15.9623 5.85741 15.9332 5.7861 15.8812 5.73321L15.4837 5.33571C15.5709 5.18072 15.6167 5.00589 15.6167 4.82805C15.6167 4.65022 15.5709 4.47539 15.4837 4.3204L15.8812 3.9229C15.9339 3.87015 15.9636 3.79862 15.9636 3.72403C15.9636 3.64944 15.9339 3.57791 15.8812 3.52516ZM14.2418 5.16457C14.1752 5.09801 14.1299 5.01321 14.1115 4.92089C14.0932 4.82857 14.1026 4.73288 14.1386 4.64591C14.1746 4.55895 14.2356 4.48462 14.3139 4.43232C14.3922 4.38002 14.4842 4.35211 14.5783 4.35211C14.6724 4.35211 14.7644 4.38002 14.8427 4.43232C14.921 4.48462 14.982 4.55895 15.018 4.64591C15.054 4.73288 15.0634 4.82857 15.0451 4.92089C15.0267 5.01321 14.9814 5.09801 14.9148 5.16457C14.8708 5.20918 14.8184 5.24461 14.7606 5.26879C14.7028 5.29297 14.6408 5.30543 14.5782 5.30543C14.5155 5.30543 14.4535 5.29297 14.3957 5.26879C14.3379 5.24461 14.2855 5.20918 14.2415 5.16457H14.2418Z" fill="#7C877F"/>
<path d="M10.7249 3.52516C10.6722 3.47242 10.6007 3.44279 10.5261 3.44279C10.4515 3.44279 10.3799 3.47242 10.3272 3.52516L9.92933 3.92299C9.77426 3.83647 9.59963 3.79105 9.42205 3.79105C9.24447 3.79105 9.06984 3.83647 8.91477 3.92299L8.51689 3.52516C8.49086 3.4987 8.45983 3.47765 8.42562 3.46323C8.39141 3.44882 8.35468 3.44132 8.31755 3.44116C8.28042 3.44101 8.24364 3.44821 8.20931 3.46235C8.17498 3.47649 8.14379 3.49729 8.11753 3.52354C8.09128 3.54979 8.07048 3.58098 8.05635 3.61531C8.04221 3.64964 8.03501 3.68643 8.03516 3.72356C8.03531 3.76068 8.04281 3.79741 8.05723 3.83163C8.07164 3.86584 8.09269 3.89686 8.11916 3.9229L8.51661 4.32035C8.42943 4.47536 8.38363 4.65021 8.38363 4.82805C8.38363 5.0059 8.42943 5.18075 8.51661 5.33576L8.11916 5.73321C8.06712 5.7861 8.0381 5.85741 8.0384 5.9316C8.0387 6.0058 8.06831 6.07687 8.12077 6.12933C8.17324 6.1818 8.24431 6.2114 8.3185 6.21171C8.39269 6.21201 8.464 6.18298 8.51689 6.13095L8.91477 5.73312C9.06964 5.82024 9.24435 5.86601 9.42205 5.86601C9.59975 5.86601 9.77445 5.82024 9.92933 5.73312L10.3272 6.13095C10.3532 6.15741 10.3843 6.17846 10.4185 6.19288C10.4527 6.20729 10.4894 6.21479 10.5265 6.21495C10.5637 6.2151 10.6005 6.2079 10.6348 6.19376C10.6691 6.17962 10.7003 6.15882 10.7266 6.13257C10.7528 6.10632 10.7736 6.07513 10.7878 6.0408C10.8019 6.00647 10.8091 5.96968 10.8089 5.93255C10.8088 5.89543 10.8013 5.8587 10.7869 5.82448C10.7725 5.79027 10.7514 5.75925 10.7249 5.73321L10.3275 5.33571C10.4147 5.18072 10.4605 5.00589 10.4605 4.82805C10.4605 4.65022 10.4147 4.47539 10.3275 4.3204L10.7249 3.9229C10.7777 3.87015 10.8073 3.79862 10.8073 3.72403C10.8073 3.64944 10.7777 3.57791 10.7249 3.52516ZM9.08553 5.16457C9.01897 5.09801 8.97364 5.01321 8.95527 4.92089C8.93691 4.82857 8.94633 4.73288 8.98235 4.64591C9.01837 4.55895 9.07937 4.48462 9.15764 4.43232C9.2359 4.38002 9.32792 4.35211 9.42205 4.35211C9.51618 4.35211 9.6082 4.38002 9.68646 4.43232C9.76473 4.48462 9.82573 4.55895 9.86175 4.64591C9.89777 4.73288 9.90719 4.82857 9.88882 4.92089C9.87046 5.01321 9.82513 5.09801 9.75856 5.16457C9.71459 5.20918 9.66218 5.24461 9.60439 5.26879C9.5466 5.29297 9.48458 5.30543 9.42193 5.30543C9.35929 5.30543 9.29727 5.29297 9.23947 5.26879C9.18168 5.24461 9.12928 5.20918 9.0853 5.16457H9.08553Z" fill="#7C877F"/>
<path d="M15.8812 8.21262C15.8284 8.15988 15.7569 8.13025 15.6823 8.13025C15.6077 8.13025 15.5362 8.15988 15.4835 8.21262L15.0856 8.61049C14.9305 8.52396 14.7559 8.47854 14.5783 8.47854C14.4007 8.47854 14.2261 8.52396 14.071 8.61049L13.6731 8.21266C13.6471 8.1862 13.6161 8.16515 13.5819 8.15073C13.5477 8.13632 13.5109 8.12882 13.4738 8.12866C13.4367 8.12851 13.3999 8.13571 13.3656 8.14985C13.3312 8.16399 13.3 8.18479 13.2738 8.21104C13.2475 8.23729 13.2267 8.26848 13.2126 8.30281C13.1985 8.33714 13.1913 8.37393 13.1914 8.41106C13.1916 8.44818 13.1991 8.48491 13.2135 8.51913C13.2279 8.55334 13.2489 8.58436 13.2754 8.6104L13.6729 9.00785C13.5857 9.16286 13.5399 9.33771 13.5399 9.51556C13.5399 9.6934 13.5857 9.86825 13.6729 10.0233L13.2754 10.4207C13.2234 10.4736 13.1943 10.5449 13.1946 10.6191C13.1949 10.6933 13.2246 10.7644 13.277 10.8168C13.3295 10.8693 13.4006 10.8989 13.4748 10.8992C13.5489 10.8995 13.6203 10.8705 13.6731 10.8184L14.071 10.4206C14.2259 10.5077 14.4006 10.5535 14.5783 10.5535C14.756 10.5535 14.9307 10.5077 15.0856 10.4206L15.4835 10.8184C15.5095 10.8449 15.5405 10.866 15.5747 10.8804C15.6089 10.8948 15.6457 10.9023 15.6828 10.9024C15.7199 10.9026 15.7567 10.8954 15.791 10.8813C15.8254 10.8671 15.8566 10.8463 15.8828 10.8201C15.9091 10.7938 15.9299 10.7626 15.944 10.7283C15.9581 10.694 15.9653 10.6572 15.9652 10.6201C15.965 10.5829 15.9575 10.5462 15.9431 10.512C15.9287 10.4778 15.9077 10.4467 15.8812 10.4207L15.4837 10.0232C15.5709 9.86822 15.6167 9.69339 15.6167 9.51556C15.6167 9.33772 15.5709 9.16289 15.4837 9.0079L15.8812 8.6104C15.9073 8.58428 15.928 8.55327 15.9422 8.51915C15.9563 8.48502 15.9636 8.44845 15.9636 8.41151C15.9636 8.37457 15.9563 8.33799 15.9422 8.30387C15.928 8.26974 15.9073 8.23873 15.8812 8.21262ZM14.2418 9.85202C14.1752 9.78547 14.1299 9.70067 14.1115 9.60834C14.0932 9.51602 14.1026 9.42033 14.1386 9.33336C14.1746 9.2464 14.2356 9.17207 14.3139 9.11977C14.3922 9.06748 14.4842 9.03956 14.5783 9.03956C14.6724 9.03956 14.7644 9.06748 14.8427 9.11977C14.921 9.17207 14.982 9.2464 15.018 9.33336C15.054 9.42033 15.0634 9.51602 15.0451 9.60834C15.0267 9.70067 14.9814 9.78547 14.9148 9.85202C14.8708 9.89664 14.8184 9.93207 14.7606 9.95625C14.7028 9.98043 14.6408 9.99288 14.5782 9.99288C14.5155 9.99288 14.4535 9.98043 14.3957 9.95625C14.3379 9.93207 14.2855 9.89664 14.2415 9.85202H14.2418Z" fill="#7C877F"/>
<path d="M10.7249 8.21262C10.6722 8.15988 10.6007 8.13025 10.5261 8.13025C10.4515 8.13025 10.3799 8.15988 10.3272 8.21262L9.92933 8.61049C9.77426 8.52396 9.59963 8.47854 9.42205 8.47854C9.24447 8.47854 9.06984 8.52396 8.91477 8.61049L8.51689 8.21266C8.49086 8.1862 8.45983 8.16515 8.42562 8.15073C8.39141 8.13632 8.35468 8.12882 8.31755 8.12866C8.28042 8.12851 8.24364 8.13571 8.20931 8.14985C8.17498 8.16399 8.14379 8.18479 8.11753 8.21104C8.09128 8.23729 8.07048 8.26848 8.05635 8.30281C8.04221 8.33714 8.03501 8.37393 8.03516 8.41106C8.03531 8.44818 8.04281 8.48491 8.05723 8.51913C8.07164 8.55334 8.09269 8.58436 8.11916 8.6104L8.51661 9.00785C8.42943 9.16286 8.38363 9.33771 8.38363 9.51556C8.38363 9.6934 8.42943 9.86825 8.51661 10.0233L8.11916 10.4207C8.06712 10.4736 8.0381 10.5449 8.0384 10.6191C8.0387 10.6933 8.06831 10.7644 8.12077 10.8168C8.17324 10.8693 8.24431 10.8989 8.3185 10.8992C8.39269 10.8995 8.464 10.8705 8.51689 10.8184L8.91477 10.4206C9.06964 10.5077 9.24435 10.5535 9.42205 10.5535C9.59975 10.5535 9.77445 10.5077 9.92933 10.4206L10.3272 10.8184C10.3532 10.8449 10.3843 10.866 10.4185 10.8804C10.4527 10.8948 10.4894 10.9023 10.5265 10.9024C10.5637 10.9026 10.6005 10.8954 10.6348 10.8813C10.6691 10.8671 10.7003 10.8463 10.7266 10.8201C10.7528 10.7938 10.7736 10.7626 10.7878 10.7283C10.8019 10.694 10.8091 10.6572 10.8089 10.6201C10.8088 10.5829 10.8013 10.5462 10.7869 10.512C10.7725 10.4778 10.7514 10.4467 10.7249 10.4207L10.3275 10.0232C10.4147 9.86822 10.4605 9.69339 10.4605 9.51556C10.4605 9.33772 10.4147 9.16289 10.3275 9.0079L10.7249 8.6104C10.7511 8.58428 10.7718 8.55327 10.7859 8.51915C10.8001 8.48502 10.8073 8.44845 10.8073 8.41151C10.8073 8.37457 10.8001 8.33799 10.7859 8.30387C10.7718 8.26974 10.7511 8.23873 10.7249 8.21262ZM9.08553 9.85202C9.01897 9.78547 8.97364 9.70067 8.95527 9.60834C8.93691 9.51602 8.94633 9.42033 8.98235 9.33336C9.01837 9.2464 9.07937 9.17207 9.15764 9.11977C9.2359 9.06748 9.32792 9.03956 9.42205 9.03956C9.51618 9.03956 9.6082 9.06748 9.68646 9.11977C9.76473 9.17207 9.82573 9.2464 9.86175 9.33336C9.89777 9.42033 9.90719 9.51602 9.88882 9.60834C9.87046 9.70067 9.82513 9.78547 9.75856 9.85202C9.71459 9.89664 9.66218 9.93207 9.60439 9.95625C9.5466 9.98043 9.48458 9.99288 9.42193 9.99288C9.35929 9.99288 9.29727 9.98043 9.23947 9.95625C9.18168 9.93207 9.12928 9.89664 9.0853 9.85202H9.08553Z" fill="#7C877F"/>
</svg>
