<svg width="60" height="60" viewBox="0 0 60 60" fill="none" xmlns="http://www.w3.org/2000/svg">
<path d="M22.3828 31.3123C22.5693 31.3123 22.7481 31.2383 22.88 31.1064C23.0119 30.9745 23.0859 30.7957 23.0859 30.6092V24.5205C23.0859 24.334 23.0119 24.1552 22.88 24.0233C22.7481 23.8915 22.5693 23.8174 22.3828 23.8174C22.1963 23.8174 22.0175 23.8915 21.8856 24.0233C21.7538 24.1552 21.6797 24.334 21.6797 24.5205V30.6092C21.6797 30.7957 21.7538 30.9745 21.8856 31.1064C22.0175 31.2383 22.1963 31.3123 22.3828 31.3123Z" fill="#7C877F"/>
<path d="M49.056 51.7966H46.0547V2.66391C46.0599 2.57603 46.0467 2.48804 46.0161 2.40552C45.9854 2.32299 45.938 2.24775 45.8767 2.18456C45.8154 2.12137 45.7416 2.07161 45.6601 2.03845C45.5786 2.0053 45.491 1.98946 45.403 1.99195H14.597C14.509 1.98946 14.4214 2.0053 14.3399 2.03845C14.2584 2.07161 14.1846 2.12137 14.1233 2.18456C14.062 2.24775 14.0146 2.32299 13.9839 2.40552C13.9533 2.48804 13.9401 2.57603 13.9453 2.66391V51.7966H10.944C10.5558 51.7966 10.1953 52.0768 10.1953 52.4646V57.3352C10.1953 57.7234 10.5558 58.0071 10.944 58.0071H49.056C49.4442 58.0071 49.8047 57.7234 49.8047 57.3352V52.4646C49.8047 52.0768 49.4442 51.7966 49.056 51.7966ZM15.3516 3.3982H44.6484V51.7966H41.25V7.53492C41.2482 7.34324 41.1726 7.15961 41.039 7.02214C40.9054 6.88467 40.724 6.80392 40.5325 6.79664H19.4675C19.276 6.80392 19.0946 6.88467 18.961 7.02214C18.8274 7.15961 18.7518 7.34324 18.75 7.53492V51.7966H15.3516V3.3982ZM39.8438 51.7966H20.1562V8.20289H39.8438V51.7966ZM48.3984 56.6013H11.6016V53.2029H48.3984V56.6013Z" fill="#7C877F"/>
</svg>
