<svg width="36" height="36" viewBox="0 0 36 36" fill="none" xmlns="http://www.w3.org/2000/svg">
<g clip-path="url(#clip0_336_12969)">
<path d="M17.0799 -0.0142294C17.1448 -0.0147258 17.2098 -0.0152221 17.2768 -0.0157336C19.9874 -0.0317402 19.9874 -0.0317402 21.164 0.21099C21.2402 0.226455 21.3164 0.24192 21.3948 0.257854C23.4765 0.690022 23.4765 0.690022 23.8755 1.09869C24.0497 1.38655 24.0696 1.5572 24.0468 1.89849C23.9193 2.25987 23.7597 2.43518 23.414 2.60162C22.9273 2.66697 22.4844 2.53854 22.021 2.40386C21.4877 2.25685 20.9602 2.13185 20.4126 2.0523C20.3589 2.04448 20.3052 2.03665 20.2499 2.02859C18.7451 1.82398 17.1818 1.80219 15.6797 2.03912C15.6147 2.04933 15.5497 2.05955 15.4828 2.07008C12.3427 2.58674 9.40059 3.97432 7.07709 6.15487C6.92877 6.2927 6.77884 6.42384 6.62253 6.5523C6.35361 6.78049 6.13245 7.04291 5.90622 7.31255C5.85338 7.37328 5.80054 7.43401 5.7461 7.49657C4.31103 9.16968 3.26453 11.1214 2.60154 13.2188C2.58487 13.2712 2.5682 13.3237 2.55103 13.3777C1.27015 17.4846 1.85275 21.9136 3.81443 25.6993C5.78498 29.3958 9.23382 32.1914 13.2305 33.421C17.519 34.6804 21.9877 34.1865 25.9189 32.0686C26.9597 31.4903 27.9299 30.7702 28.8042 29.9639C28.9662 29.8149 29.1318 29.6709 29.2983 29.5269C29.5907 29.2667 29.8434 28.9877 30.0937 28.6876C30.1464 28.627 30.199 28.5665 30.2533 28.5041C32.2425 26.186 33.487 23.3285 33.9609 20.3204C33.97 20.2628 33.9792 20.2053 33.9886 20.1461C34.3292 17.8777 34.1242 15.3963 33.3984 13.2188C33.3603 12.8912 33.3681 12.6489 33.5127 12.3487C33.7348 12.1031 33.9151 11.9642 34.2545 11.9441C34.5885 11.9626 34.8009 12.0282 35.0596 12.2577C35.2489 12.4876 35.305 12.7632 35.3759 13.0474C35.3932 13.1124 35.4105 13.1774 35.4283 13.2444C35.5427 13.6844 35.6444 14.1272 35.7363 14.5723C35.7469 14.6236 35.7575 14.6748 35.7685 14.7277C35.9769 15.8076 36.0263 16.8764 36.0219 17.9737C36.0218 18.042 36.0216 18.1102 36.0215 18.1805C36.0179 19.1887 35.9904 20.1732 35.789 21.1641C35.7681 21.2707 35.7681 21.2707 35.7467 21.3793C35.129 24.4494 33.8329 27.2935 31.7812 29.6719C31.7366 29.7243 31.692 29.7767 31.6461 29.8307C30.8506 30.7403 29.9932 31.6155 29.0154 32.3287C28.8979 32.4145 28.7818 32.5021 28.6658 32.5899C28.0051 33.0829 27.3003 33.4949 26.5781 33.8907C26.5316 33.9162 26.485 33.9418 26.4371 33.9681C24.1439 35.2092 21.4753 36.0006 18.8583 36.0143C18.795 36.0148 18.7317 36.0153 18.6664 36.0158C16.0266 36.0318 16.0266 36.0318 14.8359 35.7891C14.7277 35.7676 14.7277 35.7676 14.6173 35.7457C11.1927 35.0488 8.07716 33.5077 5.55466 31.0782C5.5083 31.0337 5.46194 30.9893 5.41417 30.9435C4.7845 30.3366 4.18973 29.7228 3.67246 29.0166C3.58606 28.8987 3.49806 28.7821 3.40985 28.6656C2.91701 28.005 2.50509 27.3003 2.10935 26.5782C2.07103 26.5084 2.07103 26.5084 2.03193 26.4371C0.801358 24.1633 0.00570577 21.51 -0.0167812 18.9147C-0.0174667 18.8489 -0.0181521 18.7831 -0.0188583 18.7153C-0.0307333 17.2803 -0.0189535 15.894 0.281223 14.4844C0.294388 14.4195 0.307553 14.3545 0.321117 14.2876C0.997169 10.9978 2.59453 7.97111 4.92185 5.55474C4.96629 5.50838 5.01074 5.46202 5.05653 5.41425C5.66339 4.78458 6.27719 4.18981 6.98343 3.67254C7.10133 3.58614 7.21789 3.49814 7.33445 3.40993C7.99506 2.91709 8.69974 2.50517 9.42185 2.10943C9.49166 2.07111 9.49166 2.07111 9.56288 2.03201C11.8312 0.804391 14.4893 -0.00104736 17.0799 -0.0142294Z" fill="#7C877F"/>
<path d="M17.9692 5.32612C18.0261 5.32545 18.083 5.32479 18.1416 5.3241C18.6119 5.32672 19.1202 5.34963 19.5073 5.64253C19.7699 5.92432 19.8305 6.12147 19.8237 6.50386C19.7406 6.81427 19.6293 6.94333 19.4062 7.17183C19.2012 7.27434 19.0176 7.25377 18.7888 7.25697C18.69 7.25876 18.5912 7.26061 18.4925 7.26251C18.4407 7.26345 18.389 7.26438 18.3357 7.26534C15.6486 7.31858 13.1614 8.04057 11.1093 9.8437C11.0208 9.91943 11.0208 9.91943 10.9305 9.99669C8.81648 11.842 7.59083 14.5079 7.39153 17.2923C7.22918 19.9835 8.1182 22.7977 9.89947 24.8376C10.0872 25.0474 10.2811 25.2505 10.4765 25.4531C10.5233 25.5035 10.5701 25.5539 10.6183 25.6058C12.3517 27.4266 15.0201 28.505 17.5078 28.6171C17.5872 28.6209 17.6666 28.6246 17.7484 28.6284C20.6739 28.6971 23.4234 27.5806 25.5369 25.5756C27.3213 23.8333 28.6225 21.3117 28.6952 18.7856C28.6951 18.6945 28.695 18.6033 28.6949 18.5094C28.6958 18.4078 28.6969 18.3061 28.698 18.2044C28.6996 18.0469 28.7006 17.8895 28.6998 17.7319C28.6958 16.7396 28.6958 16.7396 28.9591 16.4204C29.2095 16.1821 29.466 16.147 29.8081 16.1521C30.1203 16.1946 30.3145 16.3759 30.5024 16.6157C31.1948 18.1826 30.4608 20.8682 29.8917 22.3636C29.7783 22.6466 29.6576 22.9257 29.5312 23.2031C29.4961 23.2801 29.4961 23.2801 29.4603 23.3588C28.0638 26.3736 25.4517 28.6577 22.3593 29.8125C21.5091 30.1132 20.6509 30.3207 19.7578 30.4453C19.7116 30.4519 19.6655 30.4585 19.618 30.4653C17.7195 30.7105 15.8009 30.4759 13.9922 29.8828C13.9169 29.8584 13.9169 29.8584 13.8401 29.8336C10.6806 28.7928 8.17885 26.3691 6.68899 23.4431C5.26637 20.5556 5.05542 17.085 6.0556 14.0325C7.11008 10.9314 9.26101 8.23358 12.2124 6.74116C12.4058 6.64707 12.6008 6.5571 12.7968 6.4687C12.8491 6.44495 12.9013 6.42121 12.9552 6.39674C14.5459 5.68617 16.2315 5.34253 17.9692 5.32612Z" fill="#7C877F"/>
<path d="M30.1816 1.84572C30.4503 2.01672 30.5563 2.16105 30.6562 2.46096C30.6623 2.557 30.6645 2.65331 30.6642 2.74954C30.6642 2.80724 30.6642 2.86494 30.6642 2.92439C30.6639 2.98636 30.6635 3.04832 30.6631 3.11217C30.663 3.20771 30.663 3.20771 30.6628 3.30517C30.6624 3.50863 30.6615 3.71209 30.6606 3.91555C30.6603 4.05347 30.66 4.1914 30.6597 4.32932C30.6589 4.66747 30.6577 5.00562 30.6562 5.34377C30.7414 5.34267 30.8265 5.34156 30.9142 5.34042C31.231 5.33659 31.5479 5.33418 31.8647 5.33218C32.0017 5.33112 32.1386 5.32969 32.2756 5.32786C32.4728 5.32529 32.67 5.3241 32.8672 5.32317C32.9586 5.32154 32.9586 5.32154 33.0517 5.31987C33.4088 5.31977 33.6505 5.35804 33.9609 5.55471C34.1639 5.77393 34.2363 6.00473 34.2773 6.29738C34.2015 6.81876 33.7809 7.16123 33.4225 7.51764C33.3686 7.57176 33.3147 7.62589 33.2592 7.68166C33.0817 7.85972 32.9038 8.03726 32.7258 8.21477C32.6021 8.33852 32.4785 8.46228 32.3549 8.58607C32.0962 8.84499 31.8372 9.10365 31.5781 9.36214C31.3117 9.62787 31.0456 9.8939 30.7799 10.1603C30.459 10.4821 30.1377 10.8035 29.8161 11.1246C29.6935 11.2471 29.571 11.3697 29.4487 11.4924C29.278 11.6634 29.1069 11.834 28.9356 12.0045C28.8849 12.0555 28.8342 12.1065 28.7819 12.1591C28.7353 12.2053 28.6886 12.2515 28.6406 12.2992C28.6002 12.3395 28.5598 12.3799 28.5182 12.4214C28.3717 12.5447 28.2502 12.5897 28.0583 12.5765C28.0061 12.5684 27.9539 12.5603 27.9001 12.5519C26.5867 12.3699 25.1513 12.2399 24.0322 13.0643C23.6752 13.3564 23.3415 13.6679 23.018 13.9963C22.9851 14.0297 22.9521 14.0632 22.9182 14.0976C22.5112 14.5134 22.12 14.9427 21.7338 15.3779C21.3358 15.8257 20.9246 16.2612 20.5137 16.6973C20.4144 16.8027 20.315 16.9082 20.2157 17.0137C20.1835 17.0479 20.1513 17.0821 20.1182 17.1174C19.8987 17.3512 19.6831 17.5882 19.4687 17.8267C19.4117 17.8893 19.3548 17.952 19.296 18.0165C19.1903 18.133 19.0854 18.2503 18.9816 18.3685C18.6706 18.7086 18.4619 18.8575 18 18.9141C17.6792 18.8706 17.5427 18.8061 17.3057 18.5845C17.1368 18.3212 17.0859 18.1714 17.0859 17.8594C17.2309 17.3848 17.5091 17.1355 17.8748 16.812C17.9969 16.7013 18.1189 16.5905 18.2409 16.4797C18.3379 16.3921 18.3379 16.3921 18.4369 16.3028C18.8187 15.9553 19.193 15.5997 19.5683 15.2452C19.9632 14.8723 20.3603 14.5027 20.7665 14.142C22.7359 12.4592 22.7359 12.4592 23.5567 10.103C23.5746 9.50011 23.5405 8.89588 23.4564 8.29853C23.3958 7.85442 23.3958 7.85442 23.4821 7.62C23.6957 7.37066 23.9216 7.13702 24.1544 6.90556C24.2081 6.85156 24.2619 6.79756 24.3173 6.74192C24.4948 6.56381 24.6728 6.38623 24.8508 6.20867C24.9744 6.08499 25.0979 5.96129 25.2215 5.83757C25.5135 5.54537 25.8058 5.25353 26.0982 4.96182C26.3314 4.72917 26.5642 4.49618 26.7968 4.26297C27.1177 3.94129 27.4389 3.61995 27.7604 3.2989C27.883 3.17647 28.0054 3.05393 28.1277 2.93129C28.2985 2.7601 28.4698 2.58936 28.6412 2.41875C28.6918 2.36786 28.7424 2.31698 28.7945 2.26456C28.8413 2.21813 28.8882 2.17171 28.9364 2.12388C28.9768 2.0835 29.0173 2.04313 29.0589 2.00153C29.4059 1.70539 29.7572 1.68246 30.1816 1.84572ZM27.3341 6.21963C27.1291 6.41345 26.9226 6.60456 26.7103 6.79048C25.5993 7.74068 25.5993 7.74068 25.1348 9.07201C25.1085 9.63737 25.1591 10.1989 25.2422 10.7578C26.6513 10.9737 26.6513 10.9737 27.9555 10.5305C28.4649 10.1339 28.8949 9.64887 29.3189 9.16481C29.5068 8.95332 29.7019 8.74879 29.8964 8.5434C30.5814 7.93004 30.5814 7.93004 31.0078 7.24221C30.8717 7.23704 30.8717 7.23704 30.7329 7.23177C30.6121 7.22649 30.4914 7.22118 30.3706 7.21584C30.2812 7.21258 30.2812 7.21258 30.19 7.20925C29.3172 7.16881 29.3172 7.16881 29.0127 6.86428C28.8486 6.59922 28.8197 6.37151 28.8059 6.06337C28.8029 6.00083 28.8 5.93829 28.797 5.87386C28.7942 5.80915 28.7914 5.74443 28.7886 5.67775C28.7855 5.61195 28.7825 5.54615 28.7794 5.47835C28.7719 5.31631 28.7648 5.15427 28.7578 4.99221C28.3858 4.99221 27.6251 5.94406 27.3341 6.21963Z" fill="#7C877F"/>
<path d="M17.7714 10.7227C17.828 10.7197 17.8846 10.7166 17.9429 10.7135C18.3353 10.7092 18.5358 10.8007 18.8223 11.0681C19.0031 11.2882 19.0082 11.5316 19.0041 11.8081C18.9627 12.1115 18.7911 12.3081 18.5542 12.4882C18.2928 12.6143 18.0431 12.6313 17.7582 12.6519C16.2642 12.7917 14.9697 13.4017 13.9702 14.5283C13.0264 15.7283 12.6586 17.1207 12.7968 18.6328C12.9699 19.9803 13.6889 21.1858 14.7082 22.0666C15.933 23.0078 17.4005 23.3679 18.9304 23.1843C20.2681 22.9614 21.4521 22.2299 22.2846 21.1685C22.9467 20.2263 23.2826 19.231 23.3536 18.0855C23.3816 17.7278 23.4642 17.5142 23.6953 17.2266C23.9456 17.0179 24.1577 16.9819 24.4742 16.9956C24.7543 17.0372 24.9126 17.1792 25.1092 17.3722C25.2893 17.6512 25.2849 17.8635 25.2773 18.189C25.2764 18.2477 25.2755 18.3064 25.2746 18.3669C25.2411 19.4213 24.9409 20.3685 24.4687 21.3047C24.4319 21.3783 24.3951 21.4519 24.3572 21.5277C23.4086 23.2768 21.7641 24.3862 19.8984 24.961C19.6641 25.0249 19.4361 25.0722 19.1953 25.1016C19.1397 25.1092 19.0841 25.1168 19.0269 25.1247C17.0995 25.3553 15.1892 24.8414 13.6392 23.6764C13.448 23.5228 13.262 23.3654 13.0781 23.2031C13.0343 23.1653 12.9905 23.1274 12.9454 23.0883C11.5794 21.8211 10.9212 19.947 10.8152 18.1305C10.7745 16.3436 11.3792 14.6582 12.5156 13.2891C12.5646 13.2285 12.6136 13.168 12.6642 13.1056C13.6096 11.9925 14.9162 11.2804 16.3124 10.8985C16.3753 10.8812 16.4382 10.864 16.5031 10.8463C16.9203 10.7526 17.3452 10.7356 17.7714 10.7227Z" fill="#7C877F"/>
</g>
<defs>
<clipPath id="clip0_336_12969">
<rect width="36" height="36" fill="white"/>
</clipPath>
</defs>
</svg>
