<svg width="24" height="24" viewBox="0 0 24 24" fill="none" xmlns="http://www.w3.org/2000/svg">
<path d="M22.3542 9.9375H21.2812V8.98636C21.2821 8.95066 21.2756 8.91517 21.2622 8.88207C21.2488 8.84898 21.2288 8.81897 21.2033 8.7939C21.1779 8.76883 21.1476 8.74923 21.1143 8.73631C21.0811 8.72339 21.0455 8.71741 21.0098 8.71875H20.3438V7.875H21.0098C21.0458 7.87564 21.0816 7.86897 21.115 7.85541C21.1484 7.84184 21.1787 7.82166 21.204 7.79607C21.2294 7.77048 21.2493 7.74001 21.2626 7.70651C21.2759 7.67302 21.2822 7.63718 21.2812 7.60116V6.38461C21.2838 6.31005 21.2566 6.23754 21.2057 6.18301C21.1548 6.12847 21.0844 6.09637 21.0098 6.09375H15.4328C15.3561 6.09551 15.283 6.12668 15.2286 6.18081C15.1743 6.23495 15.1427 6.3079 15.1406 6.38461V7.3125H14.4693C14.3139 7.3125 14.2031 7.45781 14.2031 7.6132V8.98636C14.2031 9.14166 14.3139 9.28125 14.4693 9.28125H15.1406V9.9375H9.1875V8.95228C9.1875 8.79694 9.08381 8.67188 8.92852 8.67188H7.59375V4.96875H9.36736C9.41262 4.96659 9.45678 4.95403 9.49641 4.93204C9.53603 4.91005 9.57005 4.87922 9.59583 4.84195C9.6216 4.80468 9.63844 4.76197 9.64504 4.71714C9.65163 4.6723 9.6478 4.62655 9.63384 4.58344L8.31623 0.666328C8.29776 0.609847 8.26219 0.560499 8.21445 0.525105C8.16672 0.489712 8.10916 0.470019 8.04975 0.46875H5.35055C5.29134 0.469517 5.23384 0.488731 5.18607 0.523718C5.13829 0.558704 5.10262 0.60772 5.08402 0.663937L3.76641 4.57678C3.75213 4.62082 3.74814 4.66754 3.75473 4.71337C3.76133 4.75919 3.77835 4.80289 3.80447 4.84111C3.82997 4.8787 3.86391 4.90982 3.90356 4.93198C3.94322 4.95414 3.98751 4.96673 4.03289 4.96875H5.90625V8.67188H4.47188C4.31658 8.67188 4.17188 8.79694 4.17188 8.95228V9.9375H1.64578C1.56986 9.93905 1.49753 9.97008 1.44408 10.024C1.39062 10.0779 1.36025 10.1506 1.35938 10.2265V11.7722C1.36009 11.809 1.36808 11.8454 1.38287 11.8792C1.39766 11.9129 1.41897 11.9434 1.44558 11.969C1.47218 11.9945 1.50356 12.0145 1.53792 12.0279C1.57227 12.0412 1.60893 12.0477 1.64578 12.0469H2.25V23.2425C2.24832 23.2791 2.25393 23.3156 2.2665 23.35C2.27906 23.3844 2.29834 23.4159 2.3232 23.4428C2.34806 23.4697 2.37801 23.4913 2.41131 23.5065C2.44462 23.5217 2.4806 23.5301 2.51719 23.5312H4.24327C4.39861 23.5312 4.54688 23.3978 4.54688 23.2425V12.0469H10.9219V14.8438C10.9214 14.92 10.9504 14.9935 11.0029 15.0489C11.0554 15.1042 11.1273 15.1371 11.2035 15.1406H19.4531V23.2425C19.4531 23.3978 19.6014 23.5312 19.7567 23.5312H21.4828C21.5194 23.5301 21.5554 23.5217 21.5887 23.5065C21.622 23.4913 21.6519 23.4697 21.6768 23.4428C21.7017 23.4159 21.7209 23.3844 21.7335 23.35C21.7461 23.3156 21.7517 23.2791 21.75 23.2425V12.0469H22.3542C22.3911 12.0477 22.4277 12.0412 22.4621 12.0279C22.4964 12.0145 22.5278 11.9945 22.5544 11.969C22.581 11.9434 22.6023 11.9129 22.6171 11.8792C22.6319 11.8454 22.6399 11.809 22.6406 11.7722V10.2265C22.6398 10.1506 22.6094 10.0779 22.5559 10.024C22.5025 9.97008 22.4301 9.93905 22.3542 9.9375ZM15.7031 6.65625H20.7188V7.3125H15.7031V6.65625ZM14.7656 7.875H19.7812V8.71875H14.7656V7.875ZM20.0461 9.28125H20.7188V9.9375H15.7031V9.28125H20.0461ZM5.55253 1.03125H7.84772L8.97581 4.40625H4.42425L5.55253 1.03125ZM6.46875 4.96875H7.03125V8.67188H6.46875V4.96875ZM4.73438 9.23438H8.625V9.9375H4.73438V9.23438ZM3.98438 22.9688H2.8125V12.0469H3.98438V22.9688ZM11.4844 14.5781V12.0469H19.4531V14.5781H11.4844ZM21.1875 22.9688H20.0156V12.0469H21.1875V22.9688ZM22.0781 11.4844H1.92188V10.5H22.0781V11.4844Z" fill="#7C877F"/>
<path d="M16.7344 12.9844H14.4375C14.3629 12.9844 14.2914 13.014 14.2386 13.0668C14.1859 13.1195 14.1562 13.191 14.1562 13.2656C14.1562 13.3402 14.1859 13.4118 14.2386 13.4645C14.2914 13.5172 14.3629 13.5469 14.4375 13.5469H16.7344C16.809 13.5469 16.8805 13.5172 16.9332 13.4645C16.986 13.4118 17.0156 13.3402 17.0156 13.2656C17.0156 13.191 16.986 13.1195 16.9332 13.0668C16.8805 13.014 16.809 12.9844 16.7344 12.9844Z" fill="#7C877F"/>
</svg>
