<svg width="24" height="24" viewBox="0 0 24 24" fill="none" xmlns="http://www.w3.org/2000/svg">
<g clip-path="url(#clip0_545_227)">
<path d="M6.00015 1.82815C6.42091 2.18625 6.80971 2.58254 7.20077 2.97237C7.24437 3.01578 7.24437 3.01578 7.28886 3.06006C7.44224 3.21275 7.59549 3.36556 7.74863 3.5185C7.90548 3.67509 8.06276 3.83124 8.22015 3.9873C8.34252 4.10879 8.46458 4.23061 8.58655 4.35251C8.64438 4.4102 8.70232 4.46777 8.76039 4.52522C9.41257 5.17091 9.89733 5.79458 9.93764 6.75002C9.88384 7.85309 9.04202 8.59214 8.30874 9.32229C8.24411 9.38718 8.24411 9.38718 8.17818 9.45339C8.13643 9.49508 8.09468 9.53678 8.05166 9.57973C8.01433 9.61701 7.977 9.65428 7.93855 9.69269C7.82827 9.7969 7.71367 9.89137 7.5939 9.9844C7.62127 10.2201 7.72855 10.4022 7.84292 10.6055C7.86355 10.6424 7.88417 10.6792 7.90543 10.7172C8.23217 11.2891 8.6235 11.8242 9.04702 12.3281C9.07631 12.3633 9.07631 12.3633 9.10619 12.3992C9.67578 13.0815 10.2763 13.7637 10.9522 14.3429C11.0358 14.4145 11.1185 14.487 11.2009 14.56C11.8264 15.1111 12.4945 15.6171 13.2189 16.0313C13.2459 16.0471 13.2728 16.0628 13.3006 16.0791C13.3833 16.1274 13.4665 16.1747 13.5499 16.2217C13.5988 16.2493 13.6477 16.2769 13.6981 16.3054C13.8429 16.3655 13.874 16.3661 14.0158 16.3125C14.1007 16.2469 14.1007 16.2469 14.1802 16.1618C14.2115 16.13 14.2429 16.0982 14.2751 16.0655C14.3253 16.0136 14.3253 16.0136 14.3765 15.9606C14.4115 15.925 14.4466 15.8895 14.4827 15.8528C14.6324 15.7007 14.7814 15.5479 14.9304 15.395C15.0394 15.2834 15.1488 15.1723 15.2583 15.0612C15.3076 15.0101 15.3076 15.0101 15.358 14.958C15.6668 14.6448 16.0083 14.371 16.421 14.209C16.4663 14.1908 16.5116 14.1725 16.5582 14.1537C17.1529 13.9501 17.7831 14.045 18.34 14.3115C18.5481 14.4351 18.724 14.5791 18.899 14.745C18.9284 14.7727 18.9579 14.8004 18.9882 14.8289C19.4696 15.2856 19.9374 15.7566 20.4065 16.2258C20.5477 16.3671 20.6893 16.5079 20.8309 16.6488C20.9415 16.7589 21.0519 16.8692 21.1623 16.9796C21.2144 17.0316 21.2665 17.0836 21.3188 17.1354C21.9683 17.7808 22.5376 18.4205 22.5617 19.374C22.5446 20.3859 21.935 21.0625 21.2528 21.7491C21.2112 21.7912 21.1695 21.8333 21.1266 21.8766C21.0391 21.9648 20.9515 22.0528 20.8638 22.1407C20.775 22.2297 20.6865 22.3191 20.5985 22.4089C19.6554 23.3689 19.6554 23.3689 19.1251 23.625C19.0768 23.6484 19.0284 23.6719 18.9786 23.696C17.5864 24.3392 15.8828 23.9883 14.4845 23.5313C14.4438 23.518 14.4032 23.5047 14.3613 23.491C11.5867 22.5677 8.97877 20.8723 6.8439 18.8906C6.79172 18.8428 6.73953 18.7949 6.68734 18.7471C5.49309 17.6474 5.49309 17.6474 5.02017 17.0435C4.90941 16.9063 4.79062 16.7779 4.67007 16.6494C4.39043 16.3487 4.13952 16.0296 3.89077 15.7031C3.86418 15.6686 3.83758 15.634 3.81018 15.5984C2.72818 14.1905 1.80215 12.6856 1.07827 11.0625C1.05603 11.0139 1.0338 10.9652 1.01089 10.9151C0.22538 9.14986 -0.426012 7.0225 0.24624 5.12112C0.53569 4.4173 1.04546 3.91942 1.57659 3.3932C1.72034 3.25039 1.86165 3.1082 1.99233 2.95315C3.03595 1.72663 4.45999 0.7526 6.00015 1.82815ZM3.75015 3.2344C3.47454 3.49581 3.2057 3.76422 2.93622 4.03191C2.85001 4.11734 2.76356 4.20252 2.67685 4.28744C2.55051 4.41119 2.42498 4.53571 2.29958 4.66042C2.2612 4.69775 2.22281 4.73507 2.18327 4.77352C1.6082 5.35071 1.39361 6.03819 1.39484 6.84016C1.40651 7.60105 1.59708 8.32637 1.82827 9.0469C1.84214 9.09072 1.85601 9.13454 1.87029 9.1797C2.37657 10.7521 3.18515 12.2406 4.12515 13.5938C4.14506 13.6226 4.16498 13.6513 4.1855 13.681C4.63602 14.3292 5.11721 14.9584 5.62515 15.5625C5.6558 15.5992 5.6558 15.5992 5.68708 15.6365C6.3323 16.4057 7.01496 17.1768 7.78249 17.8268C7.89899 17.9267 8.01129 18.0308 8.12417 18.1348C8.3777 18.3652 8.63738 18.5848 8.90639 18.7969C8.93911 18.8229 8.97182 18.8488 9.00552 18.8756C11.3487 20.7272 14.6372 22.8543 17.7658 22.5938C18.3937 22.5024 18.9524 22.1206 19.3527 21.6398C19.5129 21.4549 19.6838 21.2829 19.8579 21.1114C19.8862 21.0834 19.9145 21.0555 19.9436 21.0268C20.0619 20.9102 20.1803 20.7938 20.2991 20.6778C20.3867 20.5922 20.4739 20.5061 20.5611 20.4199C20.5875 20.3943 20.614 20.3687 20.6413 20.3424C20.9034 20.0819 21.1234 19.7985 21.1554 19.4209C21.1381 18.7376 20.2935 18.1283 19.8398 17.6706C19.8124 17.643 19.785 17.6153 19.7568 17.5869C19.6124 17.4412 19.4677 17.2956 19.323 17.1502C19.2044 17.0309 19.0861 16.9113 18.9681 16.7914C18.8239 16.645 18.6792 16.4991 18.5341 16.3536C18.4794 16.2987 18.425 16.2435 18.3708 16.1882C17.9007 15.685 17.9007 15.685 17.2736 15.4614C16.8098 15.4816 16.5182 15.8081 16.215 16.1217C16.1328 16.2053 16.0506 16.2888 15.9683 16.3724C15.8401 16.5035 15.7121 16.6348 15.5842 16.7661C15.4599 16.8935 15.3351 17.0203 15.2102 17.1471C15.1538 17.2056 15.1538 17.2056 15.0963 17.2652C14.823 17.5421 14.5288 17.797 14.146 17.9C13.665 17.9014 13.3028 17.7101 12.8908 17.4844C12.8369 17.4554 12.8369 17.4554 12.7819 17.4258C11.7877 16.8874 10.881 16.1965 10.0504 15.4311C9.95558 15.3445 9.85929 15.2605 9.76205 15.1767C9.55316 14.9944 9.35676 14.8011 9.16128 14.6045C9.12771 14.5711 9.09415 14.5377 9.05956 14.5033C8.84256 14.286 8.63773 14.0611 8.43764 13.8281C8.39426 13.779 8.3508 13.7299 8.30727 13.6809C6.08599 11.1533 6.08599 11.1533 6.06899 9.78756C6.13401 9.44478 6.32694 9.20804 6.57436 8.97366C6.61198 8.93672 6.61198 8.93672 6.65035 8.89904C6.7863 8.7668 6.9262 8.64043 7.06985 8.51662C7.29504 8.32104 7.50602 8.11215 7.71694 7.90139C7.75537 7.86353 7.7938 7.82568 7.8334 7.78667C8.33669 7.30257 8.33669 7.30257 8.53139 6.65627C8.46453 6.04373 7.73557 5.52403 7.32235 5.10958C7.29206 5.07916 7.26177 5.04873 7.23056 5.01739C7.07079 4.85693 6.9109 4.6966 6.75089 4.53638C6.58618 4.37142 6.42192 4.20602 6.25775 4.04052C6.13071 3.91261 6.00336 3.78501 5.87592 3.6575C5.81519 3.59663 5.75459 3.53565 5.6941 3.47455C5.60967 3.38932 5.5248 3.30454 5.43981 3.21985C5.41518 3.1948 5.39056 3.16974 5.36519 3.14392C4.79836 2.5834 4.2702 2.74992 3.75015 3.2344Z" fill="#7C877F"/>
<path d="M14.159 0.123066C14.21 0.135891 14.2611 0.148716 14.3136 0.16193C16.2902 0.667351 18.0933 1.5678 19.6405 2.90627C19.6801 2.93986 19.7197 2.97346 19.7606 3.00808C20.3432 3.51593 20.9059 4.07235 21.3748 4.68752C21.4114 4.73326 21.4481 4.779 21.4858 4.82613C22.2281 5.75796 22.807 6.8011 23.2517 7.90418C23.2916 8.00309 23.3326 8.10147 23.3738 8.19985C23.6805 8.96543 24.1282 10.086 23.9998 10.9219C23.8891 11.1477 23.7569 11.2799 23.5311 11.3906C23.2664 11.4329 23.0533 11.402 22.828 11.25C22.6753 11.0845 22.6104 10.9542 22.5635 10.7349C22.5513 10.6801 22.539 10.6254 22.5264 10.5689C22.5138 10.5104 22.5011 10.4519 22.4881 10.3916C22.1177 8.76484 21.4807 7.22241 20.4551 5.8962C20.3894 5.81116 20.3246 5.72546 20.2599 5.63967C19.9974 5.29509 19.7199 4.9869 19.4061 4.68752C19.2958 4.57829 19.1864 4.46867 19.0796 4.3561C17.6688 2.88666 15.5763 1.89928 13.5976 1.4991C13.5597 1.49132 13.5217 1.48354 13.4826 1.47552C13.4106 1.46109 13.3384 1.44742 13.266 1.43471C13.0179 1.38566 12.8833 1.30374 12.703 1.12502C12.5784 0.91205 12.5392 0.750893 12.5823 0.511982C12.6407 0.316392 12.7397 0.181574 12.9042 0.0634877C13.2814 -0.125178 13.7717 0.0229268 14.159 0.123066Z" fill="#7C877F"/>
<path d="M16.702 5.8429C17.0141 6.09179 17.2964 6.37434 17.5783 6.65626C17.607 6.68272 17.6356 6.70919 17.6651 6.73646C18.7085 7.71545 19.6081 9.45524 19.6614 10.8955C19.6546 11.1267 19.6171 11.2649 19.4533 11.4375C19.2756 11.5768 19.1151 11.6132 18.8908 11.625C18.6637 11.5787 18.4737 11.48 18.3283 11.2969C18.2609 11.1456 18.2255 10.9891 18.1877 10.8281C17.8624 9.53968 17.3257 8.50256 16.4065 7.54688C16.3775 7.51437 16.3485 7.48186 16.3186 7.44837C15.5033 6.5639 14.286 6.03746 13.1317 5.78683C12.8395 5.72319 12.637 5.67563 12.4618 5.42267C12.3678 5.23595 12.3612 5.08138 12.3752 4.87501C12.4639 4.62858 12.5874 4.50617 12.7971 4.35938C13.9876 4.01924 15.8013 5.15468 16.702 5.8429Z" fill="#7C877F"/>
</g>
<defs>
<clipPath id="clip0_545_227">
<rect width="24" height="24" fill="white"/>
</clipPath>
</defs>
</svg>
