<svg width="60" height="60" viewBox="0 0 60 60" fill="none" xmlns="http://www.w3.org/2000/svg">
<path d="M54.8149 22.4999H53.7755C54.623 21.5624 55.1466 20.4385 55.1466 19.1325C55.1496 18.4986 55.0273 17.8704 54.7867 17.2839C54.5462 16.6974 54.1921 16.1642 53.7449 15.7149C53.2976 15.2657 52.766 14.9092 52.1806 14.6661C51.5952 14.4229 50.9675 14.2978 50.3336 14.2979C49.6997 14.298 49.0721 14.4234 48.4868 14.6669C47.9015 14.9103 47.37 15.267 46.923 15.7164C46.4759 16.1659 46.1221 16.6992 45.8818 17.2858C45.6415 17.8724 45.5195 18.5007 45.5228 19.1346C45.5228 20.4406 46.0465 21.5624 46.8939 22.4999H45.8544C45.6661 22.4951 45.4834 22.5643 45.3456 22.6927C45.2077 22.8211 45.1257 22.9984 45.1172 23.1866V25.5538C45.1251 25.7431 45.2066 25.9218 45.3444 26.0518C45.4821 26.1818 45.6652 26.2529 45.8546 26.2499H49.6875V26.8784C49.6875 32.0967 45.4137 36.3421 40.1953 36.3421C34.977 36.3421 30.7031 32.0967 30.7031 26.8784V20.3905H34.4801C34.5706 20.3909 34.6603 20.3729 34.7437 20.3379C34.8272 20.3028 34.9027 20.2512 34.9658 20.1863C35.0289 20.1214 35.0783 20.0445 35.111 19.9601C35.1438 19.8756 35.1591 19.7855 35.1562 19.695V17.3278C35.159 17.2378 35.1434 17.1482 35.1105 17.0643C35.0776 16.9805 35.0281 16.9042 34.9649 16.84C34.9017 16.7758 34.8262 16.7251 34.7428 16.6909C34.6595 16.6568 34.5701 16.6398 34.4801 16.6411H33.4407C34.2882 15.7036 34.7926 14.5797 34.7926 13.2737C34.7949 12.1215 34.3833 11.0067 33.6327 10.1324C32.8821 9.25816 31.8425 8.68255 30.7031 8.51041V1.86084C30.7031 1.67436 30.629 1.49552 30.4972 1.36366C30.3653 1.23179 30.1865 1.15771 30 1.15771C29.8135 1.15771 29.6347 1.23179 29.5028 1.36366C29.371 1.49552 29.2969 1.67436 29.2969 1.86084V8.5001C28.1487 8.66376 27.0985 9.23706 26.3398 10.1143C25.5811 10.9915 25.1653 12.1134 25.1688 13.2731C25.1688 14.5791 25.7118 15.703 26.5593 16.6405H25.5199C25.4299 16.6392 25.3405 16.6562 25.2572 16.6904C25.1738 16.7245 25.0983 16.7752 25.0351 16.8394C24.9719 16.9036 24.9224 16.9799 24.8895 17.0637C24.8566 17.1476 24.841 17.2372 24.8438 17.3272V19.6944C24.8408 19.785 24.8561 19.8752 24.8888 19.9597C24.9215 20.0441 24.9708 20.1212 25.0339 20.1861C25.0971 20.2511 25.1726 20.3027 25.2561 20.3378C25.3396 20.3729 25.4293 20.3909 25.5199 20.3905H29.2969V26.8784C29.2969 32.0967 25.023 36.3421 19.8047 36.3421C14.5863 36.3421 10.3125 32.0967 10.3125 26.8784V26.2499H14.1454C14.3347 26.2529 14.5177 26.1819 14.6554 26.052C14.7932 25.9221 14.8747 25.7436 14.8828 25.5544V23.1872C14.8743 22.999 14.7923 22.8216 14.6544 22.6932C14.5165 22.5648 14.3337 22.4956 14.1454 22.5005H13.1059C13.9534 21.563 14.477 20.439 14.477 19.1331C14.48 18.4992 14.3577 17.871 14.1171 17.2845C13.8766 16.698 13.5225 16.1648 13.0753 15.7155C12.6281 15.2663 12.0965 14.9098 11.5111 14.6666C10.9256 14.4235 10.2979 14.2983 9.66404 14.2985C9.03013 14.2986 8.40249 14.424 7.81719 14.6674C7.23188 14.9109 6.70044 15.2676 6.25341 15.717C5.80637 16.1665 5.45254 16.6998 5.21225 17.2864C4.97196 17.873 4.84994 18.5013 4.8532 19.1352C4.8532 20.4412 5.37691 21.563 6.2243 22.5005H5.18484C4.99723 22.4959 4.81533 22.5653 4.67843 22.6937C4.54153 22.822 4.46061 22.9991 4.45312 23.1866V25.5538C4.45985 25.7425 4.54024 25.9211 4.67707 26.0512C4.8139 26.1813 4.99627 26.2527 5.18508 26.2499H8.90625V26.8784C8.90625 32.8721 13.811 37.7483 19.8047 37.7483C21.734 37.7466 23.6284 37.2342 25.2956 36.2633C26.9628 35.2924 28.3433 33.8975 29.2969 32.2204V47.9721C29.2969 53.1905 25.023 57.4358 19.8047 57.4358C14.5863 57.4358 10.3125 53.1905 10.3125 47.9721V47.3437H14.1454C14.3347 47.3467 14.5177 47.2757 14.6554 47.1458C14.7932 47.0159 14.8747 46.8373 14.8828 46.6481V44.281C14.8743 44.0927 14.7923 43.9154 14.6544 43.7869C14.5165 43.6585 14.3337 43.5894 14.1454 43.5942H13.1059C13.9534 42.6567 14.477 41.5328 14.477 40.2269C14.48 39.5929 14.3577 38.9647 14.1171 38.3782C13.8766 37.7917 13.5225 37.2585 13.0753 36.8093C12.6281 36.36 12.0965 36.0036 11.5111 35.7604C10.9256 35.5172 10.2979 35.3921 9.66404 35.3922C9.03013 35.3924 8.40249 35.5178 7.81719 35.7612C7.23188 36.0046 6.70044 36.3613 6.25341 36.8108C5.80637 37.2602 5.45254 37.7936 5.21225 38.3802C4.97196 38.9668 4.84994 39.5951 4.8532 40.229C4.8532 41.5349 5.37691 42.6567 6.2243 43.5942H5.18484C4.99723 43.5897 4.81533 43.659 4.67843 43.7874C4.54153 43.9158 4.46061 44.0928 4.45312 44.2804V46.6476C4.45985 46.8363 4.54024 47.0148 4.67707 47.145C4.8139 47.2751 4.99627 47.3464 5.18508 47.3437H8.90625V47.9721C8.90824 50.526 9.80872 52.9978 11.45 54.9546C13.0912 56.9113 15.3686 58.2282 17.8832 58.6746C20.3978 59.121 22.9893 58.6684 25.2038 57.3962C27.4183 56.1239 29.1145 54.1131 29.9954 51.7159C30.8773 54.1132 32.5744 56.124 34.7894 57.3962C37.0045 58.6684 39.5964 59.1209 42.1115 58.6746C44.6266 58.2283 46.9046 56.9116 48.5468 54.955C50.1889 52.9984 51.0905 50.5265 51.0938 47.9721V47.3437H54.8149C55.0036 47.3464 55.1859 47.2752 55.3227 47.1452C55.4595 47.0152 55.54 46.8367 55.5469 46.6481V44.281C55.5395 44.0933 55.4586 43.916 55.3217 43.7875C55.1847 43.659 55.0027 43.5896 54.8149 43.5942H53.7755C54.623 42.6567 55.1466 41.5328 55.1466 40.2269C55.1496 39.5929 55.0273 38.9647 54.7867 38.3782C54.5462 37.7917 54.1921 37.2585 53.7449 36.8093C53.2976 36.36 52.766 36.0036 52.1806 35.7604C51.5952 35.5172 50.9675 35.3921 50.3336 35.3922C49.6997 35.3924 49.0721 35.5178 48.4868 35.7612C47.9015 36.0046 47.37 36.3613 46.923 36.8108C46.4759 37.2602 46.1221 37.7936 45.8818 38.3802C45.6415 38.9668 45.5195 39.5951 45.5228 40.229C45.5228 41.5349 46.0465 42.6567 46.8939 43.5942H45.8544C45.6662 43.5894 45.4836 43.6585 45.3457 43.7868C45.2079 43.9151 45.1259 44.0923 45.1172 44.2804V46.6476C45.1251 46.8368 45.2066 47.0155 45.3444 47.1455C45.4821 47.2756 45.6652 47.3467 45.8546 47.3437H49.6875V47.9721C49.6875 53.1905 45.4137 57.4358 40.1953 57.4358C34.977 57.4358 30.7031 53.1905 30.7031 47.9721V32.2204C31.6567 33.8975 33.0372 35.2924 34.7044 36.2633C36.3716 37.2342 38.266 37.7466 40.1953 37.7483C46.189 37.7483 51.0938 32.8721 51.0938 26.8784V26.2499H54.8149C55.0036 26.2527 55.1859 26.1814 55.3227 26.0514C55.4595 25.9214 55.54 25.743 55.5469 25.5544V23.1872C55.5397 22.9994 55.4589 22.822 55.3219 22.6934C55.1849 22.5648 55.0028 22.4953 54.8149 22.4999ZM6.25957 19.1325C6.25708 18.6836 6.34337 18.2386 6.51347 17.8232C6.68357 17.4077 6.93412 17.03 7.25073 16.7117C7.56733 16.3935 7.94373 16.1409 8.35828 15.9687C8.77283 15.7964 9.21735 15.7078 9.66628 15.7079C10.1152 15.7081 10.5597 15.797 10.9741 15.9695C11.3886 16.142 11.7648 16.3948 12.0812 16.7132C12.3976 17.0317 12.6479 17.4096 12.8178 17.8251C12.9876 18.2407 13.0736 18.6857 13.0709 19.1346C13.0709 20.8221 11.8362 22.2655 10.2232 22.4999H9.1077C7.49414 22.2655 6.25957 20.8205 6.25957 19.1325ZM5.85938 23.9062H9.00516C9.22102 23.9062 9.44121 23.953 9.66516 23.953C9.8891 23.953 10.1093 23.9062 10.3253 23.9062H13.4766V24.8437H5.85938V23.9062ZM6.25957 40.2263C6.25708 39.7774 6.34337 39.3324 6.51347 38.9169C6.68357 38.5015 6.93412 38.1238 7.25073 37.8055C7.56733 37.4872 7.94373 37.2347 8.35828 37.0624C8.77283 36.8901 9.21735 36.8015 9.66628 36.8017C10.1152 36.8018 10.5597 36.8907 10.9741 37.0632C11.3886 37.2358 11.7648 37.4885 12.0812 37.807C12.3976 38.1255 12.6479 38.5033 12.8178 38.9189C12.9876 39.3344 13.0736 39.7795 13.0709 40.2284C13.0709 41.9159 11.8362 43.3593 10.2232 43.5937H9.1077C7.49414 43.3593 6.25957 41.9142 6.25957 40.2263ZM5.85938 44.9999H9.00516C9.22102 44.9999 9.44121 45.0468 9.66516 45.0468C9.8891 45.0468 10.1093 44.9999 10.3253 44.9999H13.4766V45.9374H5.85938V44.9999ZM46.9291 40.2263C46.9267 39.7774 47.0129 39.3324 47.183 38.9169C47.3531 38.5015 47.6037 38.1238 47.9203 37.8055C48.2369 37.4872 48.6133 37.2347 49.0279 37.0624C49.4424 36.8901 49.8869 36.8015 50.3358 36.8017C50.7848 36.8018 51.2292 36.8907 51.6437 37.0632C52.0581 37.2358 52.4344 37.4885 52.7508 37.807C53.0672 38.1255 53.3175 38.5033 53.4873 38.9189C53.6572 39.3344 53.7432 39.7795 53.7404 40.2284C53.7404 41.9159 52.5057 43.3593 50.8928 43.5937H49.7777C48.1641 43.3593 46.9291 41.9142 46.9291 40.2263ZM46.5234 44.9999H49.6747C49.8906 44.9999 50.1108 45.0468 50.3347 45.0468C50.5587 45.0468 50.7789 44.9999 50.9948 44.9999H54.1406V45.9374H46.5234V44.9999ZM26.5943 13.2731C26.5944 12.8259 26.6827 12.3831 26.8539 11.9699C27.0252 11.5568 27.2762 11.1814 27.5925 10.8653C27.9089 10.5491 28.2844 10.2984 28.6977 10.1273C29.1109 9.95631 29.5538 9.86836 30.0011 9.8685C30.4483 9.86863 30.8911 9.95686 31.3043 10.1281C31.7174 10.2994 32.0928 10.5504 32.4089 10.8667C32.7251 11.1831 32.9758 11.5586 33.1469 11.9719C33.3179 12.3851 33.4058 12.828 33.4057 13.2753C33.4057 14.9628 32.171 16.4062 30.558 16.6405H29.4429C27.829 16.4062 26.5943 14.9611 26.5943 13.2731ZM26.25 18.0468H29.3399C29.5559 18.0468 29.7759 18.0937 30 18.0937C30.2241 18.0937 30.4441 18.0468 30.6601 18.0468H33.75V18.9843H26.25V18.0468ZM46.9291 19.1325C46.9267 18.6836 47.0129 18.2386 47.183 17.8232C47.3531 17.4077 47.6037 17.03 47.9203 16.7117C48.2369 16.3935 48.6133 16.1409 49.0279 15.9687C49.4424 15.7964 49.8869 15.7078 50.3358 15.7079C50.7848 15.7081 51.2292 15.797 51.6437 15.9695C52.0581 16.142 52.4344 16.3948 52.7508 16.7132C53.0672 17.0317 53.3175 17.4096 53.4873 17.8251C53.6572 18.2407 53.7432 18.6857 53.7404 19.1346C53.7404 20.8221 52.5057 22.2655 50.8928 22.4999H49.7777C48.1641 22.2655 46.9291 20.8205 46.9291 19.1325ZM54.1406 24.8437H46.5234V23.9062H49.6747C49.8906 23.9062 50.1108 23.953 50.3347 23.953C50.5587 23.953 50.7789 23.9062 50.9948 23.9062H54.1406V24.8437Z" fill="#7C877F"/>
</svg>
