<svg width="46" height="50" viewBox="0 0 46 50" fill="none" xmlns="http://www.w3.org/2000/svg">
<path d="M2.20567 36.8606C4.6844 38.4633 9.67376 41.6893 14.0461 44.5163C22.5532 50.01 22.5638 50.0032 22.9716 49.9998C23.4539 49.9964 23.4504 50.0066 31.9539 44.5163C36.3262 41.6893 41.3156 38.4633 43.7943 36.8606C45.1738 35.9671 46 34.4803 46 32.8775V19.162V17.6445V17.1227C46 15.5234 45.1773 14.0332 43.7943 13.1397C41.3156 11.5369 36.3262 8.31095 31.9539 5.48395C23.7731 0.198239 23.461 0.000456508 23.0745 0.000456508C23.0603 0.000456508 23.0426 0.000456508 23.0284 0.000456508C22.539 -0.00636376 22.5496 -0.00636864 14.0461 5.48395C9.67376 8.31095 4.6844 11.5369 2.20567 13.1397C0.826241 14.0332 0 15.52 0 17.1227V18.1731V19.1586V32.8741C0 34.4769 0.822695 35.9671 2.20567 36.8606ZM23 3.04229C25.4291 4.60073 33.2766 9.67159 41.1667 14.7731L38.9184 16.2668C36.7305 14.8516 34.2589 13.2556 31.9574 11.7654C23.7766 6.47971 23.4645 6.28192 23.078 6.28192C23.0638 6.28192 23.0461 6.28192 23.0319 6.28192C22.5426 6.2751 22.5532 6.2751 14.0496 11.7654C11.7482 13.2522 9.28369 14.8448 7.09929 16.2566L4.89362 14.7356C12.7589 9.64772 20.5745 4.59731 23 3.04229ZM28.9433 22.7256C23.695 19.3393 23.4078 19.1859 23.0745 19.1859C23.0603 19.1859 23.0426 19.1859 23.0284 19.1859C22.6064 19.179 22.5426 19.1859 17.0567 22.7256C16.2695 22.2175 15.4255 21.6719 14.5496 21.1058C19.5887 17.8525 21.9574 16.3248 23 15.6564C24.0426 16.3248 26.422 17.8593 31.4504 21.1058C30.5745 21.6719 29.7305 22.2141 28.9433 22.7256ZM26.3617 24.3897C24.8723 25.3514 23.7057 26.1016 23 26.5552C22.2943 26.1016 21.1277 25.3514 19.6383 24.3897C21.3652 23.2746 22.4007 22.6096 23 22.2243C23.5957 22.6062 24.6418 23.2814 26.3617 24.3897ZM34.0284 19.4382C33.3298 18.9881 32.6348 18.5379 31.9539 18.098C23.7731 12.8123 23.461 12.6145 23.0745 12.6145C23.0603 12.6145 23.0426 12.6145 23.0284 12.6145C22.539 12.6077 22.5496 12.6077 14.0461 18.098C13.3688 18.5379 12.6667 18.9881 11.9716 19.4382C11.2128 18.9506 10.4397 18.4493 9.65248 17.9378C18.1738 12.4304 21.6631 10.1797 23 9.32376C24.3369 10.1797 27.844 12.4406 36.3475 17.9378C35.5603 18.4493 34.7872 18.9506 34.0284 19.4382ZM2.87589 17.9753V17.1227C2.87589 17.0511 2.89362 16.9795 2.90426 16.9079C5.54255 18.6164 10.0496 21.5286 14.0461 24.1101C22.5532 29.6038 22.5638 29.6004 22.9716 29.5936C23.4539 29.5868 23.4504 29.6004 31.9539 24.1101C35.9504 21.5286 40.4574 18.613 43.0957 16.9079C43.1028 16.9795 43.1241 17.0477 43.1241 17.1227V17.358V19.162C43.1241 19.8406 42.7766 20.4715 42.1915 20.85C29.3262 29.1673 24.6099 32.2092 23 33.2424C21.3901 32.2092 16.6738 29.1673 3.80851 20.85C3.2234 20.4715 2.87589 19.8406 2.87589 19.162V17.9753ZM2.87589 23.5781C5.51064 25.2832 10.0355 28.2057 14.0461 30.7974C22.5532 36.2911 22.5638 36.2843 22.9716 36.2809C23.4539 36.2774 23.4504 36.2877 31.9539 30.7974C35.9645 28.2057 40.4894 25.2832 43.1241 23.5781V26.1937C43.1241 26.8723 42.7766 27.5032 42.1915 27.8817C33.9681 33.2015 25.5355 38.6475 23 40.2741C20.4645 38.6475 12.0319 33.1981 3.80851 27.8817C3.2234 27.5032 2.87589 26.8723 2.87589 26.1937V23.5781ZM2.87589 30.6098C5.51064 32.3149 10.0355 35.2374 14.0461 37.8291C22.5532 43.3228 22.5638 43.3194 22.9716 43.3125C23.4539 43.3057 23.4504 43.3194 31.9539 37.8291C35.9645 35.2374 40.4894 32.3115 43.1241 30.6098V32.8775C43.1241 33.5562 42.7766 34.187 42.1915 34.5656C29.3262 42.8829 24.6099 45.9247 23 46.958C21.3901 45.9247 16.6738 42.8829 3.80851 34.5656C3.2234 34.187 2.87589 33.5562 2.87589 32.8775V30.6098Z" fill="url(#paint0_linear_151_148)"/>
<defs>
<linearGradient id="paint0_linear_151_148" x1="6.37018" y1="40.9923" x2="38.3301" y2="7.75816" gradientUnits="userSpaceOnUse">
<stop stop-color="#EAF0EC"/>
<stop offset="0.3826" stop-color="#7C877F"/>
<stop offset="1" stop-color="#EAF0EC"/>
</linearGradient>
</defs>
</svg>
