<?xml version="1.0" standalone="no"?>
<!DOCTYPE svg PUBLIC "-//W3C//DTD SVG 20010904//EN"
 "http://www.w3.org/TR/2001/REC-SVG-20010904/DTD/svg10.dtd">
<svg version="1.0" xmlns="http://www.w3.org/2000/svg"
 width="465.000000pt" height="502.000000pt" viewBox="0 0 465.000000 502.000000"
 preserveAspectRatio="xMidYMid meet">

<g transform="translate(0.000000,502.000000) scale(0.100000,-0.100000)"
fill="#000000" stroke="none">
<path d="M2345 3955 c-53 -39 -206 -121 -259 -139 -19 -6 -19 -38 -14 -1436 3
-787 3 -1432 -1 -1434 -3 -2 -23 3 -43 11 l-38 15 0 1220 c0 1157 -1 1219 -17
1214 -10 -3 -58 -10 -108 -16 -83 -11 -139 -9 -267 6 l-48 6 -2 -1049 -3
-1048 -41 60 c-130 190 -194 397 -194 629 0 187 35 337 116 499 42 83 45 92
42 160 l-3 72 -52 -70 c-151 -202 -233 -458 -233 -729 0 -334 122 -629 360
-866 116 -116 220 -189 361 -252 162 -72 275 -98 449 -105 364 -13 675 104
919 346 112 110 179 201 241 326 94 191 130 343 130 555 0 274 -80 520 -239
738 l-56 77 -3 -71 c-3 -67 0 -76 38 -147 95 -176 132 -323 134 -527 1 -192
-31 -335 -111 -495 -36 -72 -131 -215 -142 -215 -3 0 -5 475 -3 1056 l3 1056
-43 -5 c-116 -16 -181 -18 -270 -8 -53 6 -103 14 -112 17 -15 6 -16 -100 -16
-1218 l0 -1225 -39 -11 c-21 -7 -41 -12 -45 -12 -3 0 -6 647 -6 1438 l0 1437
-70 28 c-59 24 -153 81 -235 142 -19 14 -25 12 -80 -30z"/>
</g>
</svg>
