<svg width="148" height="50" viewBox="0 0 148 50" fill="none" xmlns="http://www.w3.org/2000/svg">
<path d="M61.628 33V21.168H64.604V33H61.628ZM61.532 19.344V16.272H64.724V19.344H61.532ZM67.5348 33V21.168H70.5348V23.856L70.0548 23.904C70.2628 23.184 70.5668 22.608 70.9668 22.176C71.3668 21.744 71.8308 21.432 72.3588 21.24C72.8868 21.032 73.4308 20.928 73.9908 20.928C75.3348 20.928 76.3828 21.312 77.1348 22.08C77.9028 22.832 78.2868 23.896 78.2868 25.272V33H75.2868V26.376C75.2868 25.384 75.1108 24.664 74.7588 24.216C74.4068 23.752 73.8548 23.52 73.1028 23.52C72.5268 23.52 72.0468 23.656 71.6628 23.928C71.2948 24.184 71.0148 24.592 70.8228 25.152C70.6308 25.712 70.5348 26.44 70.5348 27.336V33H67.5348ZM85.1857 33.24C84.3057 33.24 83.5377 33.112 82.8817 32.856C82.2257 32.6 81.6657 32.28 81.2017 31.896C80.7537 31.512 80.3937 31.144 80.1217 30.792L82.1617 29.016C82.4337 29.464 82.8177 29.88 83.3137 30.264C83.8257 30.632 84.4577 30.816 85.2097 30.816C85.8017 30.816 86.2577 30.704 86.5777 30.48C86.9137 30.24 87.0817 29.944 87.0817 29.592C87.0817 29.304 86.9777 29.072 86.7697 28.896C86.5617 28.704 86.2817 28.552 85.9297 28.44C85.5777 28.312 85.1857 28.192 84.7537 28.08C84.3057 27.952 83.8417 27.808 83.3617 27.648C82.8817 27.488 82.4417 27.28 82.0417 27.024C81.6417 26.752 81.3137 26.408 81.0577 25.992C80.8177 25.576 80.6977 25.056 80.6977 24.432C80.6977 23.392 81.1057 22.552 81.9217 21.912C82.7377 21.256 83.8177 20.928 85.1617 20.928C86.1057 20.928 86.9617 21.12 87.7297 21.504C88.4977 21.872 89.1057 22.408 89.5537 23.112L87.7057 24.576C87.4177 24.112 87.0337 23.768 86.5537 23.544C86.0897 23.304 85.5937 23.184 85.0657 23.184C84.6017 23.184 84.2177 23.272 83.9137 23.448C83.6257 23.624 83.4817 23.864 83.4817 24.168C83.4817 24.376 83.5457 24.552 83.6737 24.696C83.8177 24.84 84.0417 24.968 84.3457 25.08C84.6657 25.176 85.0817 25.288 85.5937 25.416C86.0737 25.528 86.5697 25.664 87.0817 25.824C87.5937 25.984 88.0737 26.2 88.5217 26.472C88.9697 26.744 89.3297 27.104 89.6017 27.552C89.8737 28 90.0097 28.568 90.0097 29.256C90.0097 30.04 89.8097 30.736 89.4097 31.344C89.0097 31.936 88.4497 32.4 87.7297 32.736C87.0097 33.072 86.1617 33.24 85.1857 33.24ZM92.402 37.896V21.168H95.378V24.336L94.658 24.576C94.866 23.632 95.178 22.896 95.594 22.368C96.026 21.84 96.514 21.472 97.058 21.264C97.602 21.04 98.17 20.928 98.762 20.928C99.802 20.928 100.698 21.2 101.45 21.744C102.218 22.272 102.802 23 103.202 23.928C103.602 24.856 103.802 25.912 103.802 27.096C103.802 28.376 103.578 29.48 103.13 30.408C102.682 31.32 102.074 32.024 101.306 32.52C100.538 33 99.69 33.24 98.762 33.24C98.138 33.24 97.546 33.112 96.986 32.856C96.426 32.6 95.946 32.216 95.546 31.704C95.162 31.176 94.898 30.512 94.754 29.712L95.378 29.808V37.896H92.402ZM97.946 30.504C98.538 30.504 99.042 30.368 99.458 30.096C99.89 29.808 100.226 29.408 100.466 28.896C100.706 28.384 100.826 27.784 100.826 27.096C100.826 26.392 100.706 25.784 100.466 25.272C100.226 24.76 99.89 24.368 99.458 24.096C99.042 23.808 98.538 23.664 97.946 23.664C97.37 23.664 96.866 23.808 96.434 24.096C96.018 24.384 95.69 24.784 95.45 25.296C95.226 25.792 95.114 26.392 95.114 27.096C95.114 27.784 95.226 28.384 95.45 28.896C95.69 29.408 96.018 29.808 96.434 30.096C96.866 30.368 97.37 30.504 97.946 30.504ZM113.767 33L113.527 31.224V25.536C113.527 24.832 113.303 24.312 112.855 23.976C112.423 23.624 111.831 23.448 111.079 23.448C110.455 23.448 109.815 23.576 109.159 23.832C108.519 24.072 107.951 24.416 107.455 24.864L105.943 22.824C106.775 22.152 107.623 21.672 108.487 21.384C109.367 21.08 110.311 20.928 111.319 20.928C112.951 20.928 114.223 21.336 115.135 22.152C116.047 22.968 116.503 24.096 116.503 25.536V33H113.767ZM110.191 33.24C109.327 33.24 108.551 33.08 107.863 32.76C107.191 32.44 106.655 31.984 106.255 31.392C105.871 30.8 105.679 30.12 105.679 29.352C105.679 28.664 105.815 28.08 106.087 27.6C106.375 27.104 106.751 26.728 107.215 26.472C107.615 26.232 108.055 26.064 108.535 25.968C109.031 25.872 109.559 25.824 110.119 25.824H113.791V28.032H110.551C110.295 28.032 110.039 28.056 109.783 28.104C109.543 28.136 109.335 28.224 109.159 28.368C108.999 28.48 108.879 28.624 108.799 28.8C108.719 28.96 108.679 29.144 108.679 29.352C108.679 29.8 108.855 30.16 109.207 30.432C109.559 30.704 110.031 30.84 110.623 30.84C111.151 30.84 111.631 30.728 112.063 30.504C112.511 30.264 112.863 29.944 113.119 29.544C113.391 29.128 113.527 28.656 113.527 28.128L114.319 29.712C114.111 30.544 113.791 31.224 113.359 31.752C112.943 32.264 112.463 32.64 111.919 32.88C111.375 33.12 110.799 33.24 110.191 33.24ZM119.261 33V21.168H122.237V33H119.261ZM119.165 19.344V16.272H122.357V19.344H119.165ZM125.168 33V21.168H128.168V24.384L127.712 24.432C127.76 23.744 127.968 23.136 128.336 22.608C128.704 22.08 129.152 21.672 129.68 21.384C130.224 21.08 130.776 20.928 131.336 20.928C131.736 20.928 132.112 20.984 132.464 21.096C132.832 21.192 133.208 21.36 133.592 21.6L132.152 24.288C131.976 24.192 131.752 24.104 131.48 24.024C131.208 23.944 130.936 23.904 130.664 23.904C130.344 23.904 130.032 23.96 129.728 24.072C129.44 24.184 129.176 24.36 128.936 24.6C128.712 24.84 128.528 25.16 128.384 25.56C128.32 25.784 128.264 26.072 128.216 26.424C128.184 26.76 128.168 27.256 128.168 27.912V33H125.168ZM140.034 33.24C139.01 33.24 138.13 33.072 137.394 32.736C136.658 32.4 136.05 31.952 135.57 31.392C135.106 30.816 134.762 30.168 134.538 29.448C134.314 28.712 134.202 27.944 134.202 27.144C134.202 26.376 134.314 25.624 134.538 24.888C134.762 24.152 135.098 23.488 135.546 22.896C135.994 22.304 136.57 21.832 137.274 21.48C137.994 21.112 138.85 20.928 139.842 20.928C140.77 20.928 141.578 21.088 142.266 21.408C142.954 21.712 143.522 22.144 143.97 22.704C144.418 23.248 144.754 23.888 144.978 24.624C145.218 25.36 145.338 26.144 145.338 26.976C145.338 27.088 145.33 27.248 145.314 27.456C145.314 27.648 145.298 27.856 145.266 28.08H137.178C137.258 28.928 137.57 29.568 138.114 30C138.674 30.432 139.37 30.648 140.202 30.648C140.81 30.648 141.402 30.544 141.978 30.336C142.554 30.112 143.066 29.8 143.514 29.4L145.002 31.416C144.442 31.848 143.914 32.2 143.418 32.472C142.922 32.744 142.402 32.936 141.858 33.048C141.33 33.176 140.722 33.24 140.034 33.24ZM142.386 26.592C142.418 26.464 142.442 26.336 142.458 26.208C142.49 26.08 142.506 25.96 142.506 25.848C142.506 25.512 142.442 25.2 142.314 24.912C142.186 24.608 142.01 24.344 141.786 24.12C141.562 23.896 141.29 23.728 140.97 23.616C140.666 23.488 140.314 23.424 139.914 23.424C139.322 23.424 138.826 23.544 138.426 23.784C138.026 24.024 137.722 24.336 137.514 24.72C137.322 25.088 137.202 25.472 137.154 25.872H143.394L142.386 26.592Z" fill="white"/>
<path d="M2.20567 36.8606C4.6844 38.4633 9.67376 41.6893 14.0461 44.5163C22.5532 50.01 22.5638 50.0032 22.9716 49.9998C23.4539 49.9964 23.4504 50.0066 31.9539 44.5163C36.3262 41.6893 41.3156 38.4633 43.7943 36.8606C45.1738 35.9671 46 34.4803 46 32.8775V19.162V17.6445V17.1227C46 15.5234 45.1773 14.0332 43.7943 13.1397C41.3156 11.5369 36.3262 8.31095 31.9539 5.48395C23.7731 0.198239 23.461 0.000456508 23.0745 0.000456508C23.0603 0.000456508 23.0426 0.000456508 23.0284 0.000456508C22.539 -0.00636376 22.5496 -0.00636864 14.0461 5.48395C9.67376 8.31095 4.6844 11.5369 2.20567 13.1397C0.826241 14.0332 0 15.52 0 17.1227V18.1731V19.1586V32.8741C0 34.4769 0.822695 35.9671 2.20567 36.8606ZM23 3.04229C25.4291 4.60073 33.2766 9.67159 41.1667 14.7731L38.9184 16.2668C36.7305 14.8516 34.2589 13.2556 31.9574 11.7654C23.7766 6.47971 23.4645 6.28192 23.078 6.28192C23.0638 6.28192 23.0461 6.28192 23.0319 6.28192C22.5426 6.2751 22.5532 6.2751 14.0496 11.7654C11.7482 13.2522 9.28369 14.8448 7.09929 16.2566L4.89362 14.7356C12.7589 9.64772 20.5745 4.59731 23 3.04229ZM28.9433 22.7256C23.695 19.3393 23.4078 19.1859 23.0745 19.1859C23.0603 19.1859 23.0426 19.1859 23.0284 19.1859C22.6064 19.179 22.5426 19.1859 17.0567 22.7256C16.2695 22.2175 15.4255 21.6719 14.5496 21.1058C19.5887 17.8525 21.9574 16.3248 23 15.6564C24.0426 16.3248 26.422 17.8593 31.4504 21.1058C30.5745 21.6719 29.7305 22.2141 28.9433 22.7256ZM26.3617 24.3897C24.8723 25.3514 23.7057 26.1016 23 26.5552C22.2943 26.1016 21.1277 25.3514 19.6383 24.3897C21.3652 23.2746 22.4007 22.6096 23 22.2243C23.5957 22.6062 24.6418 23.2814 26.3617 24.3897ZM34.0284 19.4382C33.3298 18.9881 32.6348 18.5379 31.9539 18.098C23.7731 12.8123 23.461 12.6145 23.0745 12.6145C23.0603 12.6145 23.0426 12.6145 23.0284 12.6145C22.539 12.6077 22.5496 12.6077 14.0461 18.098C13.3688 18.5379 12.6667 18.9881 11.9716 19.4382C11.2128 18.9506 10.4397 18.4493 9.65248 17.9378C18.1738 12.4304 21.6631 10.1797 23 9.32376C24.3369 10.1797 27.844 12.4406 36.3475 17.9378C35.5603 18.4493 34.7872 18.9506 34.0284 19.4382ZM2.87589 17.9753V17.1227C2.87589 17.0511 2.89362 16.9795 2.90426 16.9079C5.54255 18.6164 10.0496 21.5286 14.0461 24.1101C22.5532 29.6038 22.5638 29.6004 22.9716 29.5936C23.4539 29.5868 23.4504 29.6004 31.9539 24.1101C35.9504 21.5286 40.4574 18.613 43.0957 16.9079C43.1028 16.9795 43.1241 17.0477 43.1241 17.1227V17.358V19.162C43.1241 19.8406 42.7766 20.4715 42.1915 20.85C29.3262 29.1673 24.6099 32.2092 23 33.2424C21.3901 32.2092 16.6738 29.1673 3.80851 20.85C3.2234 20.4715 2.87589 19.8406 2.87589 19.162V17.9753ZM2.87589 23.5781C5.51064 25.2832 10.0355 28.2057 14.0461 30.7974C22.5532 36.2911 22.5638 36.2843 22.9716 36.2809C23.4539 36.2774 23.4504 36.2877 31.9539 30.7974C35.9645 28.2057 40.4894 25.2832 43.1241 23.5781V26.1937C43.1241 26.8723 42.7766 27.5032 42.1915 27.8817C33.9681 33.2015 25.5355 38.6475 23 40.2741C20.4645 38.6475 12.0319 33.1981 3.80851 27.8817C3.2234 27.5032 2.87589 26.8723 2.87589 26.1937V23.5781ZM2.87589 30.6098C5.51064 32.3149 10.0355 35.2374 14.0461 37.8291C22.5532 43.3228 22.5638 43.3194 22.9716 43.3125C23.4539 43.3057 23.4504 43.3194 31.9539 37.8291C35.9645 35.2374 40.4894 32.3115 43.1241 30.6098V32.8775C43.1241 33.5562 42.7766 34.187 42.1915 34.5656C29.3262 42.8829 24.6099 45.9247 23 46.958C21.3901 45.9247 16.6738 42.8829 3.80851 34.5656C3.2234 34.187 2.87589 33.5562 2.87589 32.8775V30.6098Z" fill="url(#paint0_linear_37_13)"/>
<defs>
<linearGradient id="paint0_linear_37_13" x1="6.37018" y1="40.9923" x2="38.3301" y2="7.75816" gradientUnits="userSpaceOnUse">
<stop stop-color="#EAF0EC"/>
<stop offset="0.3826" stop-color="#7C877F"/>
<stop offset="1" stop-color="#EAF0EC"/>
</linearGradient>
</defs>
</svg>
