<?xml version="1.0" standalone="no"?>
<!DOCTYPE svg PUBLIC "-//W3C//DTD SVG 20010904//EN"
 "http://www.w3.org/TR/2001/REC-SVG-20010904/DTD/svg10.dtd">
<svg version="1.0" xmlns="http://www.w3.org/2000/svg"
 width="148.000000pt" height="50.000000pt" viewBox="0 0 602.000000 392.000000"
 preserveAspectRatio="xMidYMid meet">

<g transform="translate(0.000000,392.000000) scale(0.100000,-0.100000)"
fill="#ffffff" stroke="none">
<path d="M1620 2905 c-25 -19 -73 -47 -107 -62 l-63 -27 0 -988 c0 -544 -2
-988 -4 -988 -3 0 -16 4 -30 10 l-26 10 0 838 0 839 -52 -9 c-29 -6 -97 -8
-150 -5 l-98 5 0 -721 -1 -722 -24 30 c-37 45 -90 151 -115 230 -16 49 -24
106 -27 190 -6 141 13 238 73 365 27 59 35 86 32 121 l-3 44 -37 -50 c-52 -69
-103 -175 -130 -270 -30 -105 -32 -333 -4 -435 82 -299 314 -531 611 -611 112
-31 306 -31 420 0 242 65 442 227 550 446 65 130 85 220 85 375 0 192 -46 340
-152 492 l-43 61 -3 -46 c-2 -36 4 -60 32 -114 63 -126 81 -202 81 -348 0 -98
-5 -146 -19 -195 -22 -76 -73 -183 -119 -249 l-32 -46 -3 726 -2 727 -108 -5
c-59 -3 -126 0 -149 5 l-43 10 0 -843 0 -843 -22 -6 c-13 -3 -26 -6 -30 -6 -5
0 -8 445 -8 988 l0 988 -36 13 c-44 16 -149 77 -165 97 -17 20 -28 17 -79 -21z"/>
<path d="M2709 1855 c-45 -24 -69 -109 -49 -171 8 -22 42 -69 81 -111 64 -67
69 -75 69 -116 0 -29 -5 -47 -14 -50 -23 -9 -36 15 -36 65 l0 48 -56 0 -57 0
6 -65 c7 -73 28 -118 64 -134 31 -14 118 -14 145 0 28 15 58 86 58 142 0 68
-22 112 -95 188 -65 67 -83 110 -51 122 19 7 36 -12 36 -40 0 -21 4 -23 56
-23 l56 0 -7 43 c-9 53 -18 70 -51 96 -32 25 -114 28 -155 6z"/>
<path d="M3661 1854 c-45 -32 -64 -118 -40 -181 5 -15 32 -50 58 -78 26 -27
57 -63 69 -79 37 -49 24 -132 -16 -107 -6 3 -12 29 -14 56 l-3 50 -52 3 -53 3
0 -48 c0 -114 40 -163 132 -163 86 0 121 33 133 126 11 82 -7 124 -90 214 -76
80 -85 99 -62 118 17 15 34 2 38 -28 4 -23 9 -25 57 -28 l52 -3 0 36 c0 43
-21 88 -52 109 -30 22 -126 21 -157 0z"/>
<path d="M3930 1590 l0 -280 55 0 55 0 2 193 c3 191 3 192 26 195 l22 3 0
-195 0 -196 60 0 60 0 0 178 c-1 201 -8 248 -45 280 -33 28 -65 28 -99 1 l-26
-20 0 60 0 61 -55 0 -55 0 0 -280z"/>
<path d="M3033 1775 c-50 -21 -66 -64 -71 -185 -8 -210 25 -280 133 -280 96 0
130 32 142 131 l6 49 -57 0 -56 0 0 -45 c0 -32 -5 -47 -16 -52 -25 -9 -36 11
-41 81 l-6 66 87 0 86 0 0 76 c0 92 -18 136 -65 158 -40 19 -99 20 -142 1z
m95 -127 c3 -47 3 -48 -27 -48 -27 0 -31 3 -31 28 0 51 11 73 34 70 17 -2 22
-11 24 -50z"/>
<path d="M3352 1775 c-33 -15 -62 -63 -62 -105 0 -18 6 -20 55 -20 52 0 55 1
55 25 0 18 5 25 19 25 21 0 31 -19 31 -59 0 -24 -7 -30 -62 -52 -84 -33 -102
-60 -102 -150 1 -89 22 -122 79 -127 28 -3 43 2 61 19 l24 22 0 -21 c0 -20 5
-22 55 -22 l55 0 0 191 c0 153 -3 198 -16 224 -28 59 -118 82 -192 50z m98
-289 c0 -73 -14 -107 -40 -91 -17 11 -12 126 7 147 27 30 33 21 33 -56z"/>
<path d="M4331 1772 c-59 -30 -71 -67 -71 -225 0 -196 24 -237 139 -237 114 0
141 45 141 235 0 109 -3 135 -20 171 -34 69 -116 94 -189 56z m94 -94 c3 -13
4 -79 3 -147 -3 -106 -6 -125 -21 -135 -14 -8 -20 -8 -27 4 -11 17 -14 283 -3
293 15 15 43 6 48 -15z"/>
<path d="M4590 1550 l0 -240 55 0 55 0 2 188 3 187 38 9 c36 9 37 11 37 53 0
41 -2 44 -22 38 -13 -4 -28 -13 -34 -21 -16 -20 -24 -17 -24 6 0 18 -7 20 -55
20 l-55 0 0 -240z"/>
<path d="M4893 1775 c-50 -21 -66 -64 -71 -185 -8 -210 25 -280 133 -280 96 0
130 32 142 131 l6 49 -57 0 -56 0 0 -45 c0 -32 -5 -47 -16 -52 -25 -9 -36 11
-41 81 l-6 66 87 0 86 0 0 76 c0 92 -18 136 -65 158 -40 19 -99 20 -142 1z
m95 -127 c3 -47 3 -48 -27 -48 -27 0 -31 3 -31 28 0 51 11 73 34 70 17 -2 22
-11 24 -50z"/>
</g>
</svg>
