<svg width="84" height="84" viewBox="0 0 84 84" fill="none" xmlns="http://www.w3.org/2000/svg">
<circle cx="72" cy="2" r="2" transform="rotate(90 72 2)" fill="#EAF0EC"/>
<circle cx="72" cy="12" r="2" transform="rotate(90 72 12)" fill="#EAF0EC"/>
<circle cx="72" cy="32" r="2" transform="rotate(90 72 32)" fill="#EAF0EC"/>
<circle cx="72" cy="42" r="2" transform="rotate(90 72 42)" fill="#EAF0EC"/>
<circle cx="72" cy="52" r="2" transform="rotate(90 72 52)" fill="#EAF0EC"/>
<circle cx="72" cy="62" r="2" transform="rotate(90 72 62)" fill="#EAF0EC"/>
<circle cx="72" cy="72" r="2" transform="rotate(90 72 72)" fill="#EAF0EC"/>
<circle cx="72" cy="82" r="2" transform="rotate(90 72 82)" fill="#EAF0EC"/>
<circle cx="72" cy="22" r="2" transform="rotate(90 72 22)" fill="#EAF0EC"/>
<circle cx="62" cy="2" r="2" transform="rotate(90 62 2)" fill="#EAF0EC"/>
<circle cx="62" cy="12" r="2" transform="rotate(90 62 12)" fill="#EAF0EC"/>
<circle cx="62" cy="32" r="2" transform="rotate(90 62 32)" fill="#EAF0EC"/>
<circle cx="62" cy="42" r="2" transform="rotate(90 62 42)" fill="#EAF0EC"/>
<circle cx="62" cy="52" r="2" transform="rotate(90 62 52)" fill="#EAF0EC"/>
<circle cx="62" cy="62" r="2" transform="rotate(90 62 62)" fill="#EAF0EC"/>
<circle cx="62" cy="72" r="2" transform="rotate(90 62 72)" fill="#EAF0EC"/>
<circle cx="62" cy="82" r="2" transform="rotate(90 62 82)" fill="#EAF0EC"/>
<circle cx="62" cy="22" r="2" transform="rotate(90 62 22)" fill="#EAF0EC"/>
<circle cx="82" cy="2" r="2" transform="rotate(90 82 2)" fill="#EAF0EC"/>
<circle cx="82" cy="12" r="2" transform="rotate(90 82 12)" fill="#EAF0EC"/>
<circle cx="82" cy="32" r="2" transform="rotate(90 82 32)" fill="#EAF0EC"/>
<circle cx="82" cy="42" r="2" transform="rotate(90 82 42)" fill="#EAF0EC"/>
<circle cx="82" cy="52" r="2" transform="rotate(90 82 52)" fill="#EAF0EC"/>
<circle cx="82" cy="62" r="2" transform="rotate(90 82 62)" fill="#EAF0EC"/>
<circle cx="82" cy="72" r="2" transform="rotate(90 82 72)" fill="#EAF0EC"/>
<circle cx="82" cy="82" r="2" transform="rotate(90 82 82)" fill="#EAF0EC"/>
<circle cx="82" cy="22" r="2" transform="rotate(90 82 22)" fill="#EAF0EC"/>
<circle cx="52" cy="2" r="2" transform="rotate(90 52 2)" fill="#EAF0EC"/>
<circle cx="52" cy="12" r="2" transform="rotate(90 52 12)" fill="#EAF0EC"/>
<circle cx="52" cy="32" r="2" transform="rotate(90 52 32)" fill="#EAF0EC"/>
<circle cx="52" cy="42" r="2" transform="rotate(90 52 42)" fill="#EAF0EC"/>
<circle cx="52" cy="52" r="2" transform="rotate(90 52 52)" fill="#EAF0EC"/>
<circle cx="52" cy="62" r="2" transform="rotate(90 52 62)" fill="#EAF0EC"/>
<circle cx="52" cy="72" r="2" transform="rotate(90 52 72)" fill="#EAF0EC"/>
<circle cx="52" cy="82" r="2" transform="rotate(90 52 82)" fill="#EAF0EC"/>
<circle cx="52" cy="22" r="2" transform="rotate(90 52 22)" fill="#EAF0EC"/>
<circle cx="42" cy="2" r="2" transform="rotate(90 42 2)" fill="#EAF0EC"/>
<circle cx="42" cy="12" r="2" transform="rotate(90 42 12)" fill="#EAF0EC"/>
<circle cx="42" cy="32" r="2" transform="rotate(90 42 32)" fill="#EAF0EC"/>
<circle cx="42" cy="42" r="2" transform="rotate(90 42 42)" fill="#EAF0EC"/>
<circle cx="42" cy="52" r="2" transform="rotate(90 42 52)" fill="#EAF0EC"/>
<circle cx="42" cy="62" r="2" transform="rotate(90 42 62)" fill="#EAF0EC"/>
<circle cx="42" cy="72" r="2" transform="rotate(90 42 72)" fill="#EAF0EC"/>
<circle cx="42" cy="82" r="2" transform="rotate(90 42 82)" fill="#EAF0EC"/>
<circle cx="42" cy="22" r="2" transform="rotate(90 42 22)" fill="#EAF0EC"/>
<circle cx="32" cy="2" r="2" transform="rotate(90 32 2)" fill="#EAF0EC"/>
<circle cx="32" cy="12" r="2" transform="rotate(90 32 12)" fill="#EAF0EC"/>
<circle cx="32" cy="32" r="2" transform="rotate(90 32 32)" fill="#EAF0EC"/>
<circle cx="32" cy="42" r="2" transform="rotate(90 32 42)" fill="#EAF0EC"/>
<circle cx="32" cy="52" r="2" transform="rotate(90 32 52)" fill="#EAF0EC"/>
<circle cx="32" cy="62" r="2" transform="rotate(90 32 62)" fill="#EAF0EC"/>
<circle cx="32" cy="72" r="2" transform="rotate(90 32 72)" fill="#EAF0EC"/>
<circle cx="32" cy="82" r="2" transform="rotate(90 32 82)" fill="#EAF0EC"/>
<circle cx="32" cy="22" r="2" transform="rotate(90 32 22)" fill="#EAF0EC"/>
<circle cx="22" cy="2" r="2" transform="rotate(90 22 2)" fill="#EAF0EC"/>
<circle cx="22" cy="12" r="2" transform="rotate(90 22 12)" fill="#EAF0EC"/>
<circle cx="22" cy="32" r="2" transform="rotate(90 22 32)" fill="#EAF0EC"/>
<circle cx="22" cy="42" r="2" transform="rotate(90 22 42)" fill="#EAF0EC"/>
<circle cx="22" cy="52" r="2" transform="rotate(90 22 52)" fill="#EAF0EC"/>
<circle cx="22" cy="62" r="2" transform="rotate(90 22 62)" fill="#EAF0EC"/>
<circle cx="22" cy="72" r="2" transform="rotate(90 22 72)" fill="#EAF0EC"/>
<circle cx="22" cy="82" r="2" transform="rotate(90 22 82)" fill="#EAF0EC"/>
<circle cx="22" cy="22" r="2" transform="rotate(90 22 22)" fill="#EAF0EC"/>
<circle cx="12" cy="2" r="2" transform="rotate(90 12 2)" fill="#EAF0EC"/>
<circle cx="12" cy="12" r="2" transform="rotate(90 12 12)" fill="#EAF0EC"/>
<circle cx="12" cy="32" r="2" transform="rotate(90 12 32)" fill="#EAF0EC"/>
<circle cx="12" cy="42" r="2" transform="rotate(90 12 42)" fill="#EAF0EC"/>
<circle cx="12" cy="52" r="2" transform="rotate(90 12 52)" fill="#EAF0EC"/>
<circle cx="12" cy="62" r="2" transform="rotate(90 12 62)" fill="#EAF0EC"/>
<circle cx="12" cy="72" r="2" transform="rotate(90 12 72)" fill="#EAF0EC"/>
<circle cx="12" cy="82" r="2" transform="rotate(90 12 82)" fill="#EAF0EC"/>
<circle cx="12" cy="22" r="2" transform="rotate(90 12 22)" fill="#EAF0EC"/>
<circle cx="2" cy="2" r="2" transform="rotate(90 2 2)" fill="#EAF0EC"/>
<circle cx="2" cy="12" r="2" transform="rotate(90 2 12)" fill="#EAF0EC"/>
<circle cx="2" cy="32" r="2" transform="rotate(90 2 32)" fill="#EAF0EC"/>
<circle cx="2" cy="42" r="2" transform="rotate(90 2 42)" fill="#EAF0EC"/>
<circle cx="2" cy="52" r="2" transform="rotate(90 2 52)" fill="#EAF0EC"/>
<circle cx="2" cy="62" r="2" transform="rotate(90 2 62)" fill="#EAF0EC"/>
<circle cx="2" cy="72" r="2" transform="rotate(90 2 72)" fill="#EAF0EC"/>
<circle cx="2" cy="82" r="2" transform="rotate(90 2 82)" fill="#EAF0EC"/>
<circle cx="2" cy="22" r="2" transform="rotate(90 2 22)" fill="#EAF0EC"/>
</svg>
