<svg width="110" height="48" viewBox="0 0 110 48" fill="none" xmlns="http://www.w3.org/2000/svg">
<path d="M34.8922 12.6557C34.5197 13.0905 34.0593 13.3083 33.5279 13.4583C29.0943 14.708 25.0399 16.7113 21.3519 19.4847C16.9838 22.7694 12.9388 26.3524 9.80905 30.9008C8.16612 33.2871 6.61362 35.7179 5.31567 38.3084C5.16792 38.603 5.10517 39.0518 4.6997 39.0533C4.18087 39.0561 4.20824 38.5213 4.0669 38.1854C3.70644 37.3271 3.42782 36.4322 3.01858 35.5978C2.71024 34.9693 1.89804 34.6372 1.4224 34.8299C0.770988 35.0922 0.864811 35.675 0.882843 36.2114C0.889954 36.4556 0.902461 36.7024 0.932205 36.9447C1.26347 39.6693 1.60936 42.3922 1.92734 45.1198C2.04753 46.14 2.50027 46.8959 3.48994 47.2306C4.45946 47.5591 5.18625 47.1001 5.83437 46.4172C8.09776 44.0391 10.3734 41.6728 12.6395 39.2947C12.9427 38.9764 13.2308 38.6358 13.4702 38.2696C13.72 37.8871 13.8495 37.4421 13.5172 37.0385C13.1765 36.6245 12.7249 36.7045 12.3095 36.9079C11.9153 37.1001 11.556 37.3649 11.1646 37.5651C10.7482 37.7805 10.4245 38.194 9.87529 38.2096C9.7588 37.6835 10.1008 37.3656 10.3109 37.0028C13.1715 32.0694 16.8734 27.8561 21.2946 24.2776C24.0419 22.0538 26.8899 19.9759 30.1969 18.6311C30.4849 18.5148 30.7804 18.2074 31.1633 18.6044C30.5658 20.2437 30.0602 21.9289 29.6768 23.6526C27.4803 33.5384 34.7765 42.0386 43.4432 42.729C45.2581 42.8734 47.0801 42.983 48.8702 42.6993C53.54 41.9569 57.4075 39.7255 60.0365 35.7764C65.0214 28.2826 60.5626 19.171 55.5602 15.8307C51.7855 13.3083 47.5163 12.3199 43.0198 12.2103C42.3018 12.1924 41.5745 12.351 40.787 12.1597C40.9016 11.7057 41.1117 11.5645 41.2989 11.4146C44.1162 9.16377 47.1893 7.35033 50.5973 6.16206C58.2575 3.49331 66.1641 2.6724 74.2106 3.36529C79.509 3.82075 84.6275 5.24197 89.6064 7.08043C96.0859 9.47803 101.883 12.9667 106.563 18.1441C107.693 19.393 108.714 20.7045 108.812 22.4891C108.831 22.8305 108.786 23.2522 109.251 23.2814C109.751 23.3124 109.868 22.881 109.949 22.4865C110.041 22.045 109.975 21.6085 109.892 21.1724C109.697 20.1433 109.275 19.2077 108.69 18.3493C105.996 14.3927 102.531 11.222 98.439 8.80324C89.3264 3.42115 79.4825 0.333154 68.8817 0.0393044C61.3201 -0.172164 53.9127 0.833362 46.9191 3.93789C42.3003 5.98652 38.2007 8.7842 34.8922 12.6557ZM37.5938 16.4519C42.2089 15.7095 46.7352 15.7797 51.1888 17.4609C55.9898 19.2728 59.3742 24.5848 58.799 29.6476C58.4767 32.4837 57.091 34.7504 54.8799 36.4635C52.4632 38.335 49.7324 39.4526 46.6033 39.4044C44.1373 39.366 41.7152 39.1503 39.4708 37.993C38.5026 37.4935 37.6561 36.8389 37.0256 36.1793C33.735 33.0887 32.4436 29.4705 33.138 25.1634C33.5556 22.5748 34.3526 20.1243 35.6565 17.8421C36.0959 17.072 36.6809 16.6002 37.5938 16.4519Z" fill="#ADFF1C"/>
</svg>
